  0
SECTION
  2
HEADER
  9
$ACADVER
  1
AC1024
  9
$ACADMAINTVER
 70
     6
  9
$DWGCODEPAGE
  3
UNDEFINED
  9
$INSBASE
 10
0.0
 20
0.0
 30
0.0
  9
$EXTMIN
 10
1.000000000000000E+20
 20
1.000000000000000E+20
 30
1.000000000000000E+20
  9
$EXTMAX
 10
-1.000000000000000E+20
 20
-1.000000000000000E+20
 30
-1.000000000000000E+20
  9
$LIMMIN
 10
0.0
 20
0.0
  9
$LIMMAX
 10
12.0
 20
9.0
  9
$ORTHOMODE
 70
     0
  9
$REGENMODE
 70
     1
  9
$FILLMODE
 70
     1
  9
$QTEXTMODE
 70
     0
  9
$MIRRTEXT
 70
     1
  9
$LTSCALE
 40
1.0
  9
$ATTMODE
 70
     1
  9
$TEXTSIZE
 40
0.2
  9
$TRACEWID
 40
0.05
  9
$TEXTSTYLE
  7
Standard
  9
$CLAYER
  8
0
  9
$CELTYPE
  6
ByLayer
  9
$CECOLOR
 62
   256
  9
$CELTSCALE
 40
1.0
  9
$DISPSILH
 70
     0
  9
$DIMSCALE
 40
1.0
  9
$DIMASZ
 40
0.18
  9
$DIMEXO
 40
0.0625
  9
$DIMDLI
 40
0.38
  9
$DIMRND
 40
0.0
  9
$DIMDLE
 40
0.0
  9
$DIMEXE
 40
0.18
  9
$DIMTP
 40
0.0
  9
$DIMTM
 40
0.0
  9
$DIMTXT
 40
0.18
  9
$DIMCEN
 40
0.09
  9
$DIMTSZ
 40
0.0
  9
$DIMTOL
 70
     0
  9
$DIMLIM
 70
     0
  9
$DIMTIH
 70
     1
  9
$DIMTOH
 70
     1
  9
$DIMSE1
 70
     0
  9
$DIMSE2
 70
     0
  9
$DIMTAD
 70
     0
  9
$DIMZIN
 70
     0
  9
$DIMBLK
  1

  9
$DIMASO
 70
     1
  9
$DIMSHO
 70
     1
  9
$DIMPOST
  1

  9
$DIMAPOST
  1

  9
$DIMALT
 70
     0
  9
$DIMALTD
 70
     2
  9
$DIMALTF
 40
25.4
  9
$DIMLFAC
 40
1.0
  9
$DIMTOFL
 70
     0
  9
$DIMTVP
 40
0.0
  9
$DIMTIX
 70
     0
  9
$DIMSOXD
 70
     0
  9
$DIMSAH
 70
     0
  9
$DIMBLK1
  1

  9
$DIMBLK2
  1

  9
$DIMSTYLE
  2
Standard
  9
$DIMCLRD
 70
     0
  9
$DIMCLRE
 70
     0
  9
$DIMCLRT
 70
     0
  9
$DIMTFAC
 40
1.0
  9
$DIMGAP
 40
0.09
  9
$DIMJUST
 70
     0
  9
$DIMSD1
 70
     0
  9
$DIMSD2
 70
     0
  9
$DIMTOLJ
 70
     1
  9
$DIMTZIN
 70
     0
  9
$DIMALTZ
 70
     0
  9
$DIMALTTZ
 70
     0
  9
$DIMUPT
 70
     0
  9
$DIMDEC
 70
     4
  9
$DIMTDEC
 70
     4
  9
$DIMALTU
 70
     2
  9
$DIMALTTD
 70
     2
  9
$DIMTXSTY
  7
Standard
  9
$DIMAUNIT
 70
     0
  9
$DIMADEC
 70
     0
  9
$DIMALTRND
 40
0.0
  9
$DIMAZIN
 70
     0
  9
$DIMDSEP
 70
    46
  9
$DIMATFIT
 70
     3
  9
$DIMFRAC
 70
     0
  9
$DIMLDRBLK
  1

  9
$DIMLUNIT
 70
     2
  9
$DIMLWD
 70
    -2
  9
$DIMLWE
 70
    -2
  9
$DIMTMOVE
 70
     0
  9
$DIMFXL
 40
1.0
  9
$DIMFXLON
 70
     0
  9
$DIMJOGANG
 40
0.7853981633974483
  9
$DIMTFILL
 70
     0
  9
$DIMTFILLCLR
 70
     0
  9
$DIMARCSYM
 70
     0
  9
$DIMLTYPE
  6

  9
$DIMLTEX1
  6

  9
$DIMLTEX2
  6

  9
$DIMTXTDIRECTION
 70
     0
  9
$LUNITS
 70
     2
  9
$LUPREC
 70
     4
  9
$SKETCHINC
 40
0.1
  9
$FILLETRAD
 40
0.5
  9
$AUNITS
 70
     0
  9
$AUPREC
 70
     0
  9
$MENU
  1
.
  9
$ELEVATION
 40
0.0
  9
$PELEVATION
 40
0.0
  9
$THICKNESS
 40
0.0
  9
$LIMCHECK
 70
     0
  9
$CHAMFERA
 40
0.5
  9
$CHAMFERB
 40
0.5
  9
$CHAMFERC
 40
1.0
  9
$CHAMFERD
 40
0.0
  9
$SKPOLY
 70
     0
  9
$TDCREATE
 40
2459059.491087951
  9
$TDUCREATE
 40
2459059.824421296
  9
$TDUPDATE
 40
2459059.491087951
  9
$TDUUPDATE
 40
2459059.824421296
  9
$TDINDWG
 40
0.0000000116
  9
$TDUSRTIMER
 40
0.0000000116
  9
$USRTIMER
 70
     1
  9
$ANGBASE
 50
0.0
  9
$ANGDIR
 70
     0
  9
$PDMODE
 70
     0
  9
$PDSIZE
 40
0.0
  9
$PLINEWID
 40
0.0
  9
$SPLFRAME
 70
     0
  9
$SPLINETYPE
 70
     6
  9
$SPLINESEGS
 70
     8
  9
$HANDSEED
  5
89
  9
$SURFTAB1
 70
     6
  9
$SURFTAB2
 70
     6
  9
$SURFTYPE
 70
     6
  9
$SURFU
 70
     6
  9
$SURFV
 70
     6
  9
$UCSBASE
  2

  9
$UCSNAME
  2

  9
$UCSORG
 10
0.0
 20
0.0
 30
0.0
  9
$UCSXDIR
 10
1.0
 20
0.0
 30
0.0
  9
$UCSYDIR
 10
0.0
 20
1.0
 30
0.0
  9
$UCSORTHOREF
  2

  9
$UCSORTHOVIEW
 70
     0
  9
$UCSORGTOP
 10
0.0
 20
0.0
 30
0.0
  9
$UCSORGBOTTOM
 10
0.0
 20
0.0
 30
0.0
  9
$UCSORGLEFT
 10
0.0
 20
0.0
 30
0.0
  9
$UCSORGRIGHT
 10
0.0
 20
0.0
 30
0.0
  9
$UCSORGFRONT
 10
0.0
 20
0.0
 30
0.0
  9
$UCSORGBACK
 10
0.0
 20
0.0
 30
0.0
  9
$PUCSBASE
  2

  9
$PUCSNAME
  2

  9
$PUCSORG
 10
0.0
 20
0.0
 30
0.0
  9
$PUCSXDIR
 10
1.0
 20
0.0
 30
0.0
  9
$PUCSYDIR
 10
0.0
 20
1.0
 30
0.0
  9
$PUCSORTHOREF
  2

  9
$PUCSORTHOVIEW
 70
     0
  9
$PUCSORGTOP
 10
0.0
 20
0.0
 30
0.0
  9
$PUCSORGBOTTOM
 10
0.0
 20
0.0
 30
0.0
  9
$PUCSORGLEFT
 10
0.0
 20
0.0
 30
0.0
  9
$PUCSORGRIGHT
 10
0.0
 20
0.0
 30
0.0
  9
$PUCSORGFRONT
 10
0.0
 20
0.0
 30
0.0
  9
$PUCSORGBACK
 10
0.0
 20
0.0
 30
0.0
  9
$USERI1
 70
     0
  9
$USERI2
 70
     0
  9
$USERI3
 70
     0
  9
$USERI4
 70
     0
  9
$USERI5
 70
     0
  9
$USERR1
 40
0.0
  9
$USERR2
 40
0.0
  9
$USERR3
 40
0.0
  9
$USERR4
 40
0.0
  9
$USERR5
 40
0.0
  9
$WORLDVIEW
 70
     1
  9
$SHADEDGE
 70
     3
  9
$SHADEDIF
 70
    70
  9
$TILEMODE
 70
     1
  9
$MAXACTVP
 70
    64
  9
$PINSBASE
 10
0.0
 20
0.0
 30
0.0
  9
$PLIMCHECK
 70
     0
  9
$PEXTMIN
 10
1.000000000000000E+20
 20
1.000000000000000E+20
 30
1.000000000000000E+20
  9
$PEXTMAX
 10
-1.000000000000000E+20
 20
-1.000000000000000E+20
 30
-1.000000000000000E+20
  9
$PLIMMIN
 10
0.0
 20
0.0
  9
$PLIMMAX
 10
12.0
 20
9.0
  9
$UNITMODE
 70
     0
  9
$VISRETAIN
 70
     1
  9
$PLINEGEN
 70
     0
  9
$PSLTSCALE
 70
     1
  9
$TREEDEPTH
 70
  3020
  9
$CMLSTYLE
  2
Standard
  9
$CMLJUST
 70
     0
  9
$CMLSCALE
 40
1.0
  9
$PROXYGRAPHICS
 70
     1
  9
$MEASUREMENT
 70
     0
  9
$CELWEIGHT
370
    -1
  9
$ENDCAPS
280
     0
  9
$JOINSTYLE
280
     0
  9
$LWDISPLAY
290
     1
  9
$INSUNITS
 70
     1
  9
$HYPERLINKBASE
  1

  9
$STYLESHEET
  1

  9
$XEDIT
290
     1
  9
$CEPSNTYPE
380
     0
  9
$PSTYLEMODE
290
     1
  9
$FINGERPRINTGUID
  2
{D9818232-2889-362E-6A59-2CBD56E69014}
  9
$VERSIONGUID
  2
{FAEB1C32-E019-11D5-929B-00C0DF256EC4}
  9
$EXTNAMES
290
     1
  9
$PSVPSCALE
 40
0.0
  9
$OLESTARTUP
290
     0
  9
$SORTENTS
280
   127
  9
$INDEXCTL
280
     0
  9
$HIDETEXT
280
     1
  9
$XCLIPFRAME
280
     2
  9
$HALOGAP
280
     0
  9
$OBSCOLOR
 70
   257
  9
$OBSLTYPE
280
     0
  9
$INTERSECTIONDISPLAY
280
     0
  9
$INTERSECTIONCOLOR
 70
   257
  9
$DIMASSOC
280
     2
  9
$PROJECTNAME
  1

  9
$CAMERADISPLAY
290
     0
  9
$LENSLENGTH
 40
50.0
  9
$CAMERAHEIGHT
 40
0.0
  9
$STEPSPERSEC
 40
2.0
  9
$STEPSIZE
 40
6.0
  9
$3DDWFPREC
 40
2.0
  9
$PSOLWIDTH
 40
0.25
  9
$PSOLHEIGHT
 40
4.0
  9
$LOFTANG1
 40
1.570796326794897
  9
$LOFTANG2
 40
1.570796326794897
  9
$LOFTMAG1
 40
0.0
  9
$LOFTMAG2
 40
0.0
  9
$LOFTPARAM
 70
     7
  9
$LOFTNORMALS
280
     1
  9
$LATITUDE
 40
37.795
  9
$LONGITUDE
 40
-122.394
  9
$NORTHDIRECTION
 40
0.0
  9
$TIMEZONE
 70
 -8000
  9
$LIGHTGLYPHDISPLAY
280
     1
  9
$TILEMODELIGHTSYNCH
280
     1
  9
$CMATERIAL
347
3C
  9
$SOLIDHIST
280
     1
  9
$SHOWHIST
280
     1
  9
$DWFFRAME
280
     2
  9
$DGNFRAME
280
     2
  9
$REALWORLDSCALE
290
     1
  9
$INTERFERECOLOR
 62
   256
  9
$CSHADOW
280
     0
  9
$SHADOWPLANELOCATION
 40
0.0
  0
ENDSEC
  0
SECTION
  2
CLASSES
  0
CLASS
  1
ACDBDICTIONARYWDFLT
  2
AcDbDictionaryWithDefault
  3
ObjectDBX Classes
 90
        0
 91
        4
280
     0
281
     0
  0
CLASS
  1
VISUALSTYLE
  2
AcDbVisualStyle
  3
ObjectDBX Classes
 90
     4095
 91
        4
280
     0
281
     0
  0
CLASS
  1
MATERIAL
  2
AcDbMaterial
  3
ObjectDBX Classes
 90
     1153
 91
        4
280
     0
281
     0
  0
CLASS
  1
SUN
  2
AcDbSun
  3
SCENEOE
 90
     1024
 91
        4
280
     0
281
     0
  0
ENDSEC
  0
SECTION
  2
TABLES
  0
TABLE
  2
VPORT
  5
8
330
0
100
AcDbSymbolTable
 70
     1
  0
VPORT
  5
29
330
8
100
AcDbSymbolTableRecord
100
AcDbViewportTableRecord
  2
*Active
 70
     0
 10
0.0
 20
0.0
 11
1.0
 21
1.0
 12
0.0
 22
0.0
 13
0.0
 23
0.0
 14
0.5
 24
0.5
 15
0.5
 25
0.5
 16
0.0
 26
0.0
 36
1.0
 17
400.0
 27
-250.0
 37
0.0
 40
500.0
 41
1.6
 42
50.0
 43
0.0
 44
0.0
 50
0.0
 51
0.0
 71
     0
 72
   100
 73
     1
 74
     3
 75
     0
 76
     0
 77
     0
 78
     0
281
     0
 65
     1
110
0.0
120
0.0
130
0.0
111
1.0
121
0.0
131
0.0
112
0.0
122
1.0
132
0.0
 79
     0
146
0.0
 60
     3
 61
     5
292
     1
282
     1
141
0.0
142
0.0
 63
   250
361
3F
  0
ENDTAB
  0
TABLE
  2
LTYPE
  5
5
330
0
100
AcDbSymbolTable
 70
     1
  0
LTYPE
  5
14
330
5
100
AcDbSymbolTableRecord
100
AcDbLinetypeTableRecord
  2
ByBlock
 70
     0
  3

 72
    65
 73
     0
 40
0.0
  0
LTYPE
  5
15
330
5
100
AcDbSymbolTableRecord
100
AcDbLinetypeTableRecord
  2
ByLayer
 70
     0
  3

 72
    65
 73
     0
 40
0.0
  0
LTYPE
  5
16
330
5
100
AcDbSymbolTableRecord
100
AcDbLinetypeTableRecord
  2
Continuous
 70
     0
  3
Solid line
 72
    65
 73
     0
 40
0.0
  0
ENDTAB
  0
TABLE
  2
LAYER
  5
2
330
0
100
AcDbSymbolTable
 70
     2
  0
LAYER
  5
10
330
2
100
AcDbSymbolTableRecord
100
AcDbLayerTableRecord
  2
0
 70
     0
 62
     7
  6
Continuous
370
    -3
390
F
347
3E
  0
LAYER
  5
40
330
2
100
AcDbSymbolTableRecord
100
AcDbLayerTableRecord
  2
Layer 1
 70
     0
 62
     7
  6
Continuous
370
    -3
390
F
347
3E
  0
ENDTAB
  0
TABLE
  2
STYLE
  5
3
330
0
100
AcDbSymbolTable
 70
     1
  0
STYLE
  5
11
330
3
100
AcDbSymbolTableRecord
100
AcDbTextStyleTableRecord
  2
Standard
 70
     0
 40
0.0
 41
1.0
 50
0.0
 71
     0
 42
0.2
  3
txt
  4

  0
ENDTAB
  0
TABLE
  2
VIEW
  5
6
330
0
100
AcDbSymbolTable
 70
     0
  0
ENDTAB
  0
TABLE
  2
UCS
  5
7
330
0
100
AcDbSymbolTable
 70
     0
  0
ENDTAB
  0
TABLE
  2
APPID
  5
9
330
0
100
AcDbSymbolTable
 70
     1
  0
APPID
  5
12
330
9
100
AcDbSymbolTableRecord
100
AcDbRegAppTableRecord
  2
ACAD
 70
     0
  0
ENDTAB
  0
TABLE
  2
DIMSTYLE
  5
A
330
0
100
AcDbSymbolTable
 70
     1
100
AcDbDimStyleTable
  0
DIMSTYLE
105
27
330
A
100
AcDbSymbolTableRecord
100
AcDbDimStyleTableRecord
  2
Standard
 70
     0
178
     0
340
11
  0
ENDTAB
  0
TABLE
  2
BLOCK_RECORD
  5
1
330
0
100
AcDbSymbolTable
 70
     5
  0
BLOCK_RECORD
  5
1F
330
1
100
AcDbSymbolTableRecord
100
AcDbBlockTableRecord
  2
*Model_Space
340
22
 70
     0
280
     1
281
     0
  0
BLOCK_RECORD
  5
1B
330
1
100
AcDbSymbolTableRecord
100
AcDbBlockTableRecord
  2
*Paper_Space
340
1E
 70
     0
280
     1
281
     0
  0
BLOCK_RECORD
  5
23
330
1
100
AcDbSymbolTableRecord
100
AcDbBlockTableRecord
  2
*Paper_Space0
340
26
 70
     0
280
     1
281
     0
  0
BLOCK_RECORD
  5
41
330
1
100
AcDbSymbolTableRecord
100
AcDbBlockTableRecord
  2
block 2
340
0
102
{BLKREFS
331
42
102
}
 70
     0
280
     1
281
     0
  0
BLOCK_RECORD
  5
45
330
1
100
AcDbSymbolTableRecord
100
AcDbBlockTableRecord
  2
block 3
340
0
102
{BLKREFS
331
46
102
}
 70
     0
280
     1
281
     0
  0
BLOCK_RECORD
  5
49
330
1
100
AcDbSymbolTableRecord
100
AcDbBlockTableRecord
  2
block 4
340
0
102
{BLKREFS
331
4A
102
}
 70
     0
280
     1
281
     0
  0
BLOCK_RECORD
  5
64
330
1
100
AcDbSymbolTableRecord
100
AcDbBlockTableRecord
  2
block 5
340
0
102
{BLKREFS
331
65
102
}
 70
     0
280
     1
281
     0
  0
ENDTAB
  0
ENDSEC
  0
SECTION
  2
BLOCKS
  0
BLOCK
  5
20
330
1F
100
AcDbEntity
  8
0
100
AcDbBlockBegin
  2
*Model_Space
 70
     0
 10
0.0
 20
0.0
 30
0.0
  3
*Model_Space
  1

  0
ENDBLK
  5
21
330
1F
100
AcDbEntity
  8
0
100
AcDbBlockEnd
  0
BLOCK
  5
1C
330
1B
100
AcDbEntity
 67
     1
  8
0
100
AcDbBlockBegin
  2
*Paper_Space
 70
     0
 10
0.0
 20
0.0
 30
0.0
  3
*Paper_Space
  1

  0
ENDBLK
  5
1D
330
1B
100
AcDbEntity
 67
     1
  8
0
100
AcDbBlockEnd
  0
BLOCK
  5
24
330
23
100
AcDbEntity
  8
0
100
AcDbBlockBegin
  2
*Paper_Space0
 70
     0
 10
0.0
 20
0.0
 30
0.0
  3
*Paper_Space0
  1

  0
ENDBLK
  5
25
330
23
100
AcDbEntity
  8
0
100
AcDbBlockEnd
  0
BLOCK
  5
43
330
41
100
AcDbEntity
  8
0
100
AcDbBlockBegin
  2
block 2
 70
     0
 10
0.0
 20
0.0
 30
0.0
  3
block 2
  1

  0
INSERT
  5
46
330
41
100
AcDbEntity
  8
Layer 1
100
AcDbBlockReference
  2
block 3
 10
0.0
 20
0.0
 30
0.0
  0
ENDBLK
  5
44
330
41
100
AcDbEntity
  8
0
100
AcDbBlockEnd
  0
BLOCK
  5
47
330
45
100
AcDbEntity
  8
0
100
AcDbBlockBegin
  2
block 3
 70
     0
 10
0.0
 20
0.0
 30
0.0
  3
block 3
  1

  0
INSERT
  5
4A
330
45
100
AcDbEntity
  8
Layer 1
100
AcDbBlockReference
  2
block 4
 10
0.0
 20
0.0
 30
0.0
  0
INSERT
  5
65
330
45
100
AcDbEntity
  8
Layer 1
100
AcDbBlockReference
  2
block 5
 10
0.0
 20
0.0
 30
0.0
  0
ENDBLK
  5
48
330
45
100
AcDbEntity
  8
0
100
AcDbBlockEnd
  0
BLOCK
  5
4B
330
49
100
AcDbEntity
  8
0
100
AcDbBlockBegin
  2
block 4
 70
     0
 10
0.0
 20
0.0
 30
0.0
  3
block 4
  1

  0
SPLINE
  5
4D
330
49
100
AcDbEntity
  8
Layer 1
370
     0
100
AcDbSpline
210
0.0
220
0.0
230
1.0
 70
    11
 71
     3
 72
    35
 73
    31
 74
     0
 42
0.0000000001
 43
0.0000000001
 12
1.0
 22
0.0
 32
0.0
 13
1.0
 23
0.0
 33
0.0
 40
0.0
 40
0.0
 40
0.0
 40
0.0
 40
1.0
 40
1.0
 40
1.0
 40
2.0
 40
2.0
 40
2.0
 40
3.0
 40
3.0
 40
3.0
 40
4.0
 40
4.0
 40
4.0
 40
5.0
 40
5.0
 40
5.0
 40
6.0
 40
6.0
 40
6.0
 40
7.0
 40
7.0
 40
7.0
 40
8.0
 40
8.0
 40
8.0
 40
9.0
 40
9.0
 40
9.0
 40
10.0
 40
10.0
 40
10.0
 40
10.0
 10
115.4381538831549
 20
-263.2958037532717
 30
0.0
 10
115.4381538831549
 20
-263.2958037532717
 30
0.0
 10
84.60422737539557
 20
-263.2958037532717
 30
0.0
 10
84.60422737539557
 20
-263.2958037532717
 30
0.0
 10
84.11823362177893
 20
-263.2958037532717
 30
0.0
 10
83.68695790454512
 20
-263.2147608556443
 30
0.0
 10
83.30930875215563
 20
-263.0521954279211
 30
0.0
 10
82.93035946455711
 20
-262.8913386908243
 30
0.0
 10
82.62319048166319
 20
-262.6691039870548
 30
0.0
 10
82.385201533074
 20
-262.3839924651966
 30
0.0
 10
82.14851271970838
 20
-262.1013390597363
 30
0.0
 10
81.98888500722751
 20
-261.7649068643386
 30
0.0
 10
81.90553189400816
 20
-261.3764045698408
 30
0.0
 10
81.82216272969526
 20
-260.9886517010018
 30
0.0
 10
81.83426522295485
 20
-260.5669948124996
 30
0.0
 10
81.94076395321827
 20
-260.1134273767493
 30
0.0
 10
81.94076395321827
 20
-260.1134273767493
 30
0.0
 10
89.32184023340233
 20
-228.4813217457922
 30
0.0
 10
89.32184023340233
 20
-228.4813217457922
 30
0.0
 10
89.32184023340233
 20
-228.4813217457922
 30
0.0
 10
96.08097034918319
 20
-228.4813217457922
 30
0.0
 10
96.08097034918319
 20
-228.4813217457922
 30
0.0
 10
96.08097034918319
 20
-228.4813217457922
 30
0.0
 10
89.42967120100366
 20
-256.9818920412199
 30
0.0
 10
89.42967120100366
 20
-256.9818920412199
 30
0.0
 10
89.42967120100366
 20
-256.9818920412199
 30
0.0
 10
116.9103082229849
 20
-256.9818920412199
 30
0.0
 10
116.9103082229849
 20
-256.9818920412199
 30
0.0
 10
116.9103082229849
 20
-256.9818920412199
 30
0.0
 10
115.4381538831549
 20
-263.2958037532717
 30
0.0
 10
115.4381538831549
 20
-263.2958037532717
 30
0.0
  0
HATCH
  5
4E
330
49
100
AcDbEntity
  8
Layer 1
 62
   179
420
  2236962
100
AcDbHatch
 10
0.0
 20
0.0
 30
0.0
210
0.0
220
0.0
230
1.0
  2
SOLID
 70
     1
 71
     0
 91
        1
 92
        1
 93
        1
 72
     4
 94
        3
 73
     0
 74
     1
 95
       35
 96
       31
 40
0.0
 40
0.0
 40
0.0
 40
0.0
 40
1.0
 40
1.0
 40
1.0
 40
2.0
 40
2.0
 40
2.0
 40
3.0
 40
3.0
 40
3.0
 40
4.0
 40
4.0
 40
4.0
 40
5.0
 40
5.0
 40
5.0
 40
6.0
 40
6.0
 40
6.0
 40
7.0
 40
7.0
 40
7.0
 40
8.0
 40
8.0
 40
8.0
 40
9.0
 40
9.0
 40
9.0
 40
10.0
 40
10.0
 40
10.0
 40
10.0
 10
115.4381538831549
 20
-263.2958037532717
 10
115.4381538831549
 20
-263.2958037532717
 10
84.60422737539557
 20
-263.2958037532717
 10
84.60422737539557
 20
-263.2958037532717
 10
84.11823362177893
 20
-263.2958037532717
 10
83.68695790454512
 20
-263.2147608556443
 10
83.30930875215563
 20
-263.0521954279211
 10
82.93035946455711
 20
-262.8913386908243
 10
82.62319048166319
 20
-262.6691039870548
 10
82.385201533074
 20
-262.3839924651966
 10
82.14851271970838
 20
-262.1013390597363
 10
81.98888500722751
 20
-261.7649068643386
 10
81.90553189400816
 20
-261.3764045698408
 10
81.82216272969526
 20
-260.9886517010018
 10
81.83426522295485
 20
-260.5669948124996
 10
81.94076395321827
 20
-260.1134273767493
 10
81.94076395321827
 20
-260.1134273767493
 10
89.32184023340233
 20
-228.4813217457922
 10
89.32184023340233
 20
-228.4813217457922
 10
89.32184023340233
 20
-228.4813217457922
 10
96.08097034918319
 20
-228.4813217457922
 10
96.08097034918319
 20
-228.4813217457922
 10
96.08097034918319
 20
-228.4813217457922
 10
89.42967120100366
 20
-256.9818920412199
 10
89.42967120100366
 20
-256.9818920412199
 10
89.42967120100366
 20
-256.9818920412199
 10
116.9103082229849
 20
-256.9818920412199
 10
116.9103082229849
 20
-256.9818920412199
 10
116.9103082229849
 20
-256.9818920412199
 10
115.4381538831549
 20
-263.2958037532717
 10
115.4381538831549
 20
-263.2958037532717
 97
        0
 97
        0
 75
     2
 76
     1
 98
        0
  0
SPLINE
  5
4F
330
49
100
AcDbEntity
  8
Layer 1
370
     0
100
AcDbSpline
210
0.0
220
0.0
230
1.0
 70
    11
 71
     3
 72
    53
 73
    49
 74
     0
 42
0.0000000001
 43
0.0000000001
 12
1.0
 22
0.0
 32
0.0
 13
1.0
 23
0.0
 33
0.0
 40
0.0
 40
0.0
 40
0.0
 40
0.0
 40
1.0
 40
1.0
 40
1.0
 40
2.0
 40
2.0
 40
2.0
 40
3.0
 40
3.0
 40
3.0
 40
4.0
 40
4.0
 40
4.0
 40
5.0
 40
5.0
 40
5.0
 40
6.0
 40
6.0
 40
6.0
 40
7.0
 40
7.0
 40
7.0
 40
8.0
 40
8.0
 40
8.0
 40
9.0
 40
9.0
 40
9.0
 40
10.0
 40
10.0
 40
10.0
 40
11.0
 40
11.0
 40
11.0
 40
12.0
 40
12.0
 40
12.0
 40
13.0
 40
13.0
 40
13.0
 40
14.0
 40
14.0
 40
14.0
 40
15.0
 40
15.0
 40
15.0
 40
16.0
 40
16.0
 40
16.0
 40
16.0
 10
156.9835413054789
 20
-263.2958037532717
 30
0.0
 10
156.9835413054789
 20
-263.2958037532717
 30
0.0
 10
150.2249408743919
 20
-263.2958037532717
 30
0.0
 10
150.2249408743919
 20
-263.2958037532717
 30
0.0
 10
150.2249408743919
 20
-263.2958037532717
 30
0.0
 10
152.2196532644375
 20
-254.7494127679729
 30
0.0
 10
152.2196532644375
 20
-254.7494127679729
 30
0.0
 10
152.2196532644375
 20
-254.7494127679729
 30
0.0
 10
128.4567448646994
 20
-254.7494127679729
 30
0.0
 10
128.4567448646994
 20
-254.7494127679729
 30
0.0
 10
128.4567448646994
 20
-254.7494127679729
 30
0.0
 10
126.462305342513
 20
-263.2958037532717
 30
0.0
 10
126.462305342513
 20
-263.2958037532717
 30
0.0
 10
126.462305342513
 20
-263.2958037532717
 30
0.0
 10
119.7031752267831
 20
-263.2958037532717
 30
0.0
 10
119.7031752267831
 20
-263.2958037532717
 30
0.0
 10
119.7031752267831
 20
-263.2958037532717
 30
0.0
 10
123.7649099963019
 20
-245.8879482204484
 30
0.0
 10
123.7649099963019
 20
-245.8879482204484
 30
0.0
 10
124.357145663409
 20
-243.3479945617291
 30
0.0
 10
125.3706732933861
 20
-241.0089319622239
 30
0.0
 10
126.8052200183265
 20
-238.8734283774884
 30
0.0
 10
128.2402964279645
 20
-236.7362161020537
 30
0.0
 10
129.9683526904846
 20
-234.9003179326101
 30
0.0
 10
131.9917162084676
 20
-233.3610724411992
 30
0.0
 10
134.0142932248309
 20
-231.8250195033197
 30
0.0
 10
136.2611997445056
 20
-230.6263880027855
 30
0.0
 10
138.7313763981401
 20
-229.769089941783
 30
0.0
 10
141.2015530516728
 20
-228.9110574435872
 30
0.0
 10
143.7800743064508
 20
-228.4818013782151
 30
0.0
 10
146.4664265289466
 20
-228.4818013782151
 30
0.0
 10
146.4664265289466
 20
-228.4818013782151
 30
0.0
 10
161.7024542986765
 20
-228.4818013782151
 30
0.0
 10
161.7024542986765
 20
-228.4818013782151
 30
0.0
 10
162.1695078108751
 20
-228.4818013782151
 30
0.0
 10
162.5921159600584
 20
-228.5630840920894
 30
0.0
 10
162.9713381155052
 20
-228.7239408291862
 30
0.0
 10
163.3492440847185
 20
-228.8865062569348
 30
0.0
 10
163.6611320769007
 20
-229.113417377177
 30
0.0
 10
163.9046586384466
 20
-229.4044193852278
 30
0.0
 10
164.148442016809
 20
-229.6956612094782
 30
0.0
 10
164.3104452850312
 20
-230.0355407631578
 30
0.0
 10
164.3945848998555
 20
-230.4232936319713
 30
0.0
 10
164.4763650099558
 20
-230.8125303637153
 30
0.0
 10
164.4658515708725
 20
-231.2248344192194
 30
0.0
 10
164.3643447177637
 20
-231.6614648336636
 30
0.0
 10
164.3643447177637
 20
-231.6614648336636
 30
0.0
 10
156.9835413054789
 20
-263.2958037532717
 30
0.0
 10
156.9835413054789
 20
-263.2958037532717
 30
0.0
  0
SPLINE
  5
50
330
49
100
AcDbEntity
  8
Layer 1
370
     0
100
AcDbSpline
210
0.0
220
0.0
230
1.0
 70
    11
 71
     3
 72
    35
 73
    31
 74
     0
 42
0.0000000001
 43
0.0000000001
 12
1.0
 22
0.0
 32
0.0
 13
1.0
 23
0.0
 33
0.0
 40
0.0
 40
0.0
 40
0.0
 40
0.0
 40
1.0
 40
1.0
 40
1.0
 40
2.0
 40
2.0
 40
2.0
 40
3.0
 40
3.0
 40
3.0
 40
4.0
 40
4.0
 40
4.0
 40
5.0
 40
5.0
 40
5.0
 40
6.0
 40
6.0
 40
6.0
 40
7.0
 40
7.0
 40
7.0
 40
8.0
 40
8.0
 40
8.0
 40
9.0
 40
9.0
 40
9.0
 40
10.0
 40
10.0
 40
10.0
 40
10.0
 10
129.9288992045549
 20
-248.4387085980306
 30
0.0
 10
129.9288992045549
 20
-248.4387085980306
 30
0.0
 10
153.6918076043185
 20
-248.4387085980306
 30
0.0
 10
153.6918076043185
 20
-248.4387085980306
 30
0.0
 10
153.6918076043185
 20
-248.4387085980306
 30
0.0
 10
156.8754535210282
 20
-234.7942442158474
 30
0.0
 10
156.8754535210282
 20
-234.7942442158474
 30
0.0
 10
156.8754535210282
 20
-234.7942442158474
 30
0.0
 10
144.9945290058895
 20
-234.7942442158474
 30
0.0
 10
144.9945290058895
 20
-234.7942442158474
 30
0.0
 10
144.785464053075
 20
-234.7942442158474
 30
0.0
 10
144.3420697915171
 20
-234.8232170142619
 30
0.0
 10
143.6612162661513
 20
-234.8784796670316
 30
0.0
 10
142.9798330560043
 20
-234.9356908267273
 30
0.0
 10
142.1756432467591
 20
-235.0776320585646
 30
0.0
 10
141.2481011025957
 20
-235.3045431788341
 30
0.0
 10
140.3195156399925
 20
-235.5304650571325
 30
0.0
 10
139.3152013139406
 20
-235.8799222715461
 30
0.0
 10
138.236715076353
 20
-236.3469943588225
 30
0.0
 10
137.1553396494564
 20
-236.8167793672328
 30
0.0
 10
136.1123583389563
 20
-237.4650775827049
 30
0.0
 10
135.1051387724765
 20
-238.289460865999
 30
0.0
 10
134.096875887597
 20
-239.116062449395
 30
0.0
 10
133.1851119275525
 20
-240.1481865429159
 30
0.0
 10
132.3677763066589
 20
-241.3863727331318
 30
0.0
 10
131.5501678179171
 20
-242.6245439347749
 30
0.0
 10
130.9350594016723
 20
-244.1247443460761
 30
0.0
 10
130.523237559486
 20
-245.8889374623923
 30
0.0
 10
130.523237559486
 20
-245.8889374623923
 30
0.0
 10
129.9288992045549
 20
-248.4387085980306
 30
0.0
 10
129.9288992045549
 20
-248.4387085980306
 30
0.0
  0
HATCH
  5
51
330
49
100
AcDbEntity
  8
Layer 1
 62
   179
420
  2236962
100
AcDbHatch
 10
0.0
 20
0.0
 30
0.0
210
0.0
220
0.0
230
1.0
  2
SOLID
 70
     1
 71
     0
 91
        2
 92
        1
 93
        1
 72
     4
 94
        3
 73
     0
 74
     1
 95
       53
 96
       49
 40
0.0
 40
0.0
 40
0.0
 40
0.0
 40
1.0
 40
1.0
 40
1.0
 40
2.0
 40
2.0
 40
2.0
 40
3.0
 40
3.0
 40
3.0
 40
4.0
 40
4.0
 40
4.0
 40
5.0
 40
5.0
 40
5.0
 40
6.0
 40
6.0
 40
6.0
 40
7.0
 40
7.0
 40
7.0
 40
8.0
 40
8.0
 40
8.0
 40
9.0
 40
9.0
 40
9.0
 40
10.0
 40
10.0
 40
10.0
 40
11.0
 40
11.0
 40
11.0
 40
12.0
 40
12.0
 40
12.0
 40
13.0
 40
13.0
 40
13.0
 40
14.0
 40
14.0
 40
14.0
 40
15.0
 40
15.0
 40
15.0
 40
16.0
 40
16.0
 40
16.0
 40
16.0
 10
156.9835413054789
 20
-263.2958037532717
 10
156.9835413054789
 20
-263.2958037532717
 10
150.2249408743919
 20
-263.2958037532717
 10
150.2249408743919
 20
-263.2958037532717
 10
150.2249408743919
 20
-263.2958037532717
 10
152.2196532644375
 20
-254.7494127679729
 10
152.2196532644375
 20
-254.7494127679729
 10
152.2196532644375
 20
-254.7494127679729
 10
128.4567448646994
 20
-254.7494127679729
 10
128.4567448646994
 20
-254.7494127679729
 10
128.4567448646994
 20
-254.7494127679729
 10
126.462305342513
 20
-263.2958037532717
 10
126.462305342513
 20
-263.2958037532717
 10
126.462305342513
 20
-263.2958037532717
 10
119.7031752267831
 20
-263.2958037532717
 10
119.7031752267831
 20
-263.2958037532717
 10
119.7031752267831
 20
-263.2958037532717
 10
123.7649099963019
 20
-245.8879482204484
 10
123.7649099963019
 20
-245.8879482204484
 10
124.357145663409
 20
-243.3479945617291
 10
125.3706732933861
 20
-241.0089319622239
 10
126.8052200183265
 20
-238.8734283774884
 10
128.2402964279645
 20
-236.7362161020537
 10
129.9683526904846
 20
-234.9003179326101
 10
131.9917162084676
 20
-233.3610724411992
 10
134.0142932248309
 20
-231.8250195033197
 10
136.2611997445056
 20
-230.6263880027855
 10
138.7313763981401
 20
-229.769089941783
 10
141.2015530516728
 20
-228.9110574435872
 10
143.7800743064508
 20
-228.4818013782151
 10
146.4664265289466
 20
-228.4818013782151
 10
146.4664265289466
 20
-228.4818013782151
 10
161.7024542986765
 20
-228.4818013782151
 10
161.7024542986765
 20
-228.4818013782151
 10
162.1695078108751
 20
-228.4818013782151
 10
162.5921159600584
 20
-228.5630840920894
 10
162.9713381155052
 20
-228.7239408291862
 10
163.3492440847185
 20
-228.8865062569348
 10
163.6611320769007
 20
-229.113417377177
 10
163.9046586384466
 20
-229.4044193852278
 10
164.148442016809
 20
-229.6956612094782
 10
164.3104452850312
 20
-230.0355407631578
 10
164.3945848998555
 20
-230.4232936319713
 10
164.4763650099558
 20
-230.8125303637153
 10
164.4658515708725
 20
-231.2248344192194
 10
164.3643447177637
 20
-231.6614648336636
 10
164.3643447177637
 20
-231.6614648336636
 10
156.9835413054789
 20
-263.2958037532717
 10
156.9835413054789
 20
-263.2958037532717
 97
        0
 97
        0
 92
        1
 93
        1
 72
     4
 94
        3
 73
     0
 74
     1
 95
       35
 96
       31
 40
0.0
 40
0.0
 40
0.0
 40
0.0
 40
1.0
 40
1.0
 40
1.0
 40
2.0
 40
2.0
 40
2.0
 40
3.0
 40
3.0
 40
3.0
 40
4.0
 40
4.0
 40
4.0
 40
5.0
 40
5.0
 40
5.0
 40
6.0
 40
6.0
 40
6.0
 40
7.0
 40
7.0
 40
7.0
 40
8.0
 40
8.0
 40
8.0
 40
9.0
 40
9.0
 40
9.0
 40
10.0
 40
10.0
 40
10.0
 40
10.0
 10
129.9288992045549
 20
-248.4387085980306
 10
129.9288992045549
 20
-248.4387085980306
 10
153.6918076043185
 20
-248.4387085980306
 10
153.6918076043185
 20
-248.4387085980306
 10
153.6918076043185
 20
-248.4387085980306
 10
156.8754535210282
 20
-234.7942442158474
 10
156.8754535210282
 20
-234.7942442158474
 10
156.8754535210282
 20
-234.7942442158474
 10
144.9945290058895
 20
-234.7942442158474
 10
144.9945290058895
 20
-234.7942442158474
 10
144.785464053075
 20
-234.7942442158474
 10
144.3420697915171
 20
-234.8232170142619
 10
143.6612162661513
 20
-234.8784796670316
 10
142.9798330560043
 20
-234.9356908267273
 10
142.1756432467591
 20
-235.0776320585646
 10
141.2481011025957
 20
-235.3045431788341
 10
140.3195156399925
 20
-235.5304650571325
 10
139.3152013139406
 20
-235.8799222715461
 10
138.236715076353
 20
-236.3469943588225
 10
137.1553396494564
 20
-236.8167793672328
 10
136.1123583389563
 20
-237.4650775827049
 10
135.1051387724765
 20
-238.289460865999
 10
134.096875887597
 20
-239.116062449395
 10
133.1851119275525
 20
-240.1481865429159
 10
132.3677763066589
 20
-241.3863727331318
 10
131.5501678179171
 20
-242.6245439347749
 10
130.9350594016723
 20
-244.1247443460761
 10
130.523237559486
 20
-245.8889374623923
 10
130.523237559486
 20
-245.8889374623923
 10
129.9288992045549
 20
-248.4387085980306
 10
129.9288992045549
 20
-248.4387085980306
 97
        0
 97
        0
 75
     2
 76
     1
 98
        0
  0
SPLINE
  5
52
330
49
100
AcDbEntity
  8
Layer 1
370
     0
100
AcDbSpline
210
0.0
220
0.0
230
1.0
 70
    11
 71
     3
 72
    59
 73
    55
 74
     0
 42
0.0000000001
 43
0.0000000001
 12
1.0
 22
0.0
 32
0.0
 13
1.0
 23
0.0
 33
0.0
 40
0.0
 40
0.0
 40
0.0
 40
0.0
 40
1.0
 40
1.0
 40
1.0
 40
2.0
 40
2.0
 40
2.0
 40
3.0
 40
3.0
 40
3.0
 40
4.0
 40
4.0
 40
4.0
 40
5.0
 40
5.0
 40
5.0
 40
6.0
 40
6.0
 40
6.0
 40
7.0
 40
7.0
 40
7.0
 40
8.0
 40
8.0
 40
8.0
 40
9.0
 40
9.0
 40
9.0
 40
10.0
 40
10.0
 40
10.0
 40
11.0
 40
11.0
 40
11.0
 40
12.0
 40
12.0
 40
12.0
 40
13.0
 40
13.0
 40
13.0
 40
14.0
 40
14.0
 40
14.0
 40
15.0
 40
15.0
 40
15.0
 40
16.0
 40
16.0
 40
16.0
 40
17.0
 40
17.0
 40
17.0
 40
18.0
 40
18.0
 40
18.0
 40
18.0
 10
202.720307844691
 20
-260.600164395004
 30
0.0
 10
202.6137930633449
 20
-261.0539866355011
 30
0.0
 10
202.4241980366496
 20
-261.474399477298
 30
0.0
 10
202.1514746114808
 20
-261.8614179089163
 30
0.0
 10
201.8782375526389
 20
-262.2506546406603
 30
0.0
 10
201.5574091244198
 20
-262.5860975940523
 30
0.0
 10
201.1889732759664
 20
-262.8697402414818
 30
0.0
 10
200.8192212411559
 20
-263.1538625213961
 30
0.0
 10
200.4071265311286
 20
-263.3753777764687
 30
0.0
 10
199.9550647014985
 20
-263.5379432042173
 30
0.0
 10
199.5003704993469
 20
-263.6987999412631
 30
0.0
 10
199.0393682336762
 20
-263.7798278504015
 30
0.0
 10
198.571528219898
 20
-263.7798278504015
 30
0.0
 10
198.154698449478
 20
-263.7798278504015
 30
0.0
 10
197.75260354489
 20
-263.707867992478
 30
0.0
 10
197.3610220793416
 20
-263.5619997698832
 30
0.0
 10
196.9704999832429
 20
-263.4149024890867
 30
0.0
 10
196.6488690024707
 20
-263.1821008826755
 30
0.0
 10
196.394829001827
 20
-262.8581840968709
 30
0.0
 10
196.394829001827
 20
-262.8581840968709
 30
0.0
 10
177.3166448544398
 20
-238.7751936537461
 30
0.0
 10
177.3166448544398
 20
-238.7751936537461
 30
0.0
 10
177.3166448544398
 20
-238.7751936537461
 30
0.0
 10
171.5939311688235
 20
-263.295788764759
 30
0.0
 10
171.5939311688235
 20
-263.295788764759
 30
0.0
 10
171.5939311688235
 20
-263.295788764759
 30
0.0
 10
164.8350739209491
 20
-263.295788764759
 30
0.0
 10
164.8350739209491
 20
-263.295788764759
 30
0.0
 10
164.8350739209491
 20
-263.295788764759
 30
0.0
 10
172.3310757337276
 20
-231.1757320458655
 30
0.0
 10
172.3310757337276
 20
-231.1757320458655
 30
0.0
 10
172.4809765087302
 20
-230.5291425210235
 30
0.0
 10
172.8131209286112
 20
-229.9424770769238
 30
0.0
 10
173.3264496238626
 20
-229.4166949785722
 30
0.0
 10
173.8384781838504
 20
-228.8901934314654
 30
0.0
 10
174.428867979972
 20
-228.4977641461264
 30
0.0
 10
175.0963028258629
 20
-228.2389274901343
 30
0.0
 10
175.7932074033088
 20
-227.9960536019789
 30
0.0
 10
176.4666934958223
 20
-227.9363843259107
 30
0.0
 10
177.1144176498055
 20
-228.0572067409157
 30
0.0
 10
177.7621418037743
 20
-228.1782689721331
 30
0.0
 10
178.2728541775796
 20
-228.4741872128707
 30
0.0
 10
178.6486414079118
 20
-228.9432227955949
 30
0.0
 10
178.6486414079118
 20
-228.9432227955949
 30
0.0
 10
197.7326039340405
 20
-253.0006728100361
 30
0.0
 10
197.7326039340405
 20
-253.0006728100361
 30
0.0
 10
197.7326039340405
 20
-253.0006728100361
 30
0.0
 10
203.4534877997648
 20
-228.4815615620391
 30
0.0
 10
203.4534877997648
 20
-228.4815615620391
 30
0.0
 10
203.4534877997648
 20
-228.4815615620391
 30
0.0
 10
210.2144477354377
 20
-228.4815615620391
 30
0.0
 10
210.2144477354377
 20
-228.4815615620391
 30
0.0
 10
210.2144477354377
 20
-228.4815615620391
 30
0.0
 10
202.720307844691
 20
-260.600164395004
 30
0.0
 10
202.720307844691
 20
-260.600164395004
 30
0.0
  0
HATCH
  5
53
330
49
100
AcDbEntity
  8
Layer 1
 62
   179
420
  2236962
100
AcDbHatch
 10
0.0
 20
0.0
 30
0.0
210
0.0
220
0.0
230
1.0
  2
SOLID
 70
     1
 71
     0
 91
        1
 92
        1
 93
        1
 72
     4
 94
        3
 73
     0
 74
     1
 95
       59
 96
       55
 40
0.0
 40
0.0
 40
0.0
 40
0.0
 40
1.0
 40
1.0
 40
1.0
 40
2.0
 40
2.0
 40
2.0
 40
3.0
 40
3.0
 40
3.0
 40
4.0
 40
4.0
 40
4.0
 40
5.0
 40
5.0
 40
5.0
 40
6.0
 40
6.0
 40
6.0
 40
7.0
 40
7.0
 40
7.0
 40
8.0
 40
8.0
 40
8.0
 40
9.0
 40
9.0
 40
9.0
 40
10.0
 40
10.0
 40
10.0
 40
11.0
 40
11.0
 40
11.0
 40
12.0
 40
12.0
 40
12.0
 40
13.0
 40
13.0
 40
13.0
 40
14.0
 40
14.0
 40
14.0
 40
15.0
 40
15.0
 40
15.0
 40
16.0
 40
16.0
 40
16.0
 40
17.0
 40
17.0
 40
17.0
 40
18.0
 40
18.0
 40
18.0
 40
18.0
 10
202.720307844691
 20
-260.600164395004
 10
202.6137930633449
 20
-261.0539866355011
 10
202.4241980366496
 20
-261.474399477298
 10
202.1514746114808
 20
-261.8614179089163
 10
201.8782375526389
 20
-262.2506546406603
 10
201.5574091244198
 20
-262.5860975940523
 10
201.1889732759664
 20
-262.8697402414818
 10
200.8192212411559
 20
-263.1538625213961
 10
200.4071265311286
 20
-263.3753777764687
 10
199.9550647014985
 20
-263.5379432042173
 10
199.5003704993469
 20
-263.6987999412631
 10
199.0393682336762
 20
-263.7798278504015
 10
198.571528219898
 20
-263.7798278504015
 10
198.154698449478
 20
-263.7798278504015
 10
197.75260354489
 20
-263.707867992478
 10
197.3610220793416
 20
-263.5619997698832
 10
196.9704999832429
 20
-263.4149024890867
 10
196.6488690024707
 20
-263.1821008826755
 10
196.394829001827
 20
-262.8581840968709
 10
196.394829001827
 20
-262.8581840968709
 10
177.3166448544398
 20
-238.7751936537461
 10
177.3166448544398
 20
-238.7751936537461
 10
177.3166448544398
 20
-238.7751936537461
 10
171.5939311688235
 20
-263.295788764759
 10
171.5939311688235
 20
-263.295788764759
 10
171.5939311688235
 20
-263.295788764759
 10
164.8350739209491
 20
-263.295788764759
 10
164.8350739209491
 20
-263.295788764759
 10
164.8350739209491
 20
-263.295788764759
 10
172.3310757337276
 20
-231.1757320458655
 10
172.3310757337276
 20
-231.1757320458655
 10
172.4809765087302
 20
-230.5291425210235
 10
172.8131209286112
 20
-229.9424770769238
 10
173.3264496238626
 20
-229.4166949785722
 10
173.8384781838504
 20
-228.8901934314654
 10
174.428867979972
 20
-228.4977641461264
 10
175.0963028258629
 20
-228.2389274901343
 10
175.7932074033088
 20
-227.9960536019789
 10
176.4666934958223
 20
-227.9363843259107
 10
177.1144176498055
 20
-228.0572067409157
 10
177.7621418037743
 20
-228.1782689721331
 10
178.2728541775796
 20
-228.4741872128707
 10
178.6486414079118
 20
-228.9432227955949
 10
178.6486414079118
 20
-228.9432227955949
 10
197.7326039340405
 20
-253.0006728100361
 10
197.7326039340405
 20
-253.0006728100361
 10
197.7326039340405
 20
-253.0006728100361
 10
203.4534877997648
 20
-228.4815615620391
 10
203.4534877997648
 20
-228.4815615620391
 10
203.4534877997648
 20
-228.4815615620391
 10
210.2144477354377
 20
-228.4815615620391
 10
210.2144477354377
 20
-228.4815615620391
 10
210.2144477354377
 20
-228.4815615620391
 10
202.720307844691
 20
-260.600164395004
 10
202.720307844691
 20
-260.600164395004
 97
        0
 97
        0
 75
     2
 76
     1
 98
        0
  0
SPLINE
  5
54
330
49
100
AcDbEntity
  8
Layer 1
370
     0
100
AcDbSpline
210
0.0
220
0.0
230
1.0
 70
    11
 71
     3
 72
   113
 73
   109
 74
     0
 42
0.0000000001
 43
0.0000000001
 12
1.0
 22
0.0
 32
0.0
 13
1.0
 23
0.0
 33
0.0
 40
0.0
 40
0.0
 40
0.0
 40
0.0
 40
1.0
 40
1.0
 40
1.0
 40
2.0
 40
2.0
 40
2.0
 40
3.0
 40
3.0
 40
3.0
 40
4.0
 40
4.0
 40
4.0
 40
5.0
 40
5.0
 40
5.0
 40
6.0
 40
6.0
 40
6.0
 40
7.0
 40
7.0
 40
7.0
 40
8.0
 40
8.0
 40
8.0
 40
9.0
 40
9.0
 40
9.0
 40
10.0
 40
10.0
 40
10.0
 40
11.0
 40
11.0
 40
11.0
 40
12.0
 40
12.0
 40
12.0
 40
13.0
 40
13.0
 40
13.0
 40
14.0
 40
14.0
 40
14.0
 40
15.0
 40
15.0
 40
15.0
 40
16.0
 40
16.0
 40
16.0
 40
17.0
 40
17.0
 40
17.0
 40
18.0
 40
18.0
 40
18.0
 40
19.0
 40
19.0
 40
19.0
 40
20.0
 40
20.0
 40
20.0
 40
21.0
 40
21.0
 40
21.0
 40
22.0
 40
22.0
 40
22.0
 40
23.0
 40
23.0
 40
23.0
 40
24.0
 40
24.0
 40
24.0
 40
25.0
 40
25.0
 40
25.0
 40
26.0
 40
26.0
 40
26.0
 40
27.0
 40
27.0
 40
27.0
 40
28.0
 40
28.0
 40
28.0
 40
29.0
 40
29.0
 40
29.0
 40
30.0
 40
30.0
 40
30.0
 40
31.0
 40
31.0
 40
31.0
 40
32.0
 40
32.0
 40
32.0
 40
33.0
 40
33.0
 40
33.0
 40
34.0
 40
34.0
 40
34.0
 40
35.0
 40
35.0
 40
35.0
 40
36.0
 40
36.0
 40
36.0
 40
36.0
 10
247.4708977465853
 20
-260.1144166186568
 30
0.0
 10
247.3643829652647
 20
-260.568238859194
 30
0.0
 10
247.1787364973898
 20
-260.9893861382207
 30
0.0
 10
246.9162696944513
 20
-261.3771539955378
 30
0.0
 10
246.6522298884411
 20
-261.7658961063207
 30
0.0
 10
246.3356068358844
 20
-262.1013390597363
 30
0.0
 10
245.9661116179268
 20
-262.3842472699325
 30
0.0
 10
245.5968732168294
 20
-262.6693587918289
 30
0.0
 10
245.1848106088801
 20
-262.8913536793116
 30
0.0
 10
244.7303732236032
 20
-263.053424486101
 30
0.0
 10
244.2764815740084
 20
-263.215495292854
 30
0.0
 10
243.8073093228668
 20
-263.2960435694949
 30
0.0
 10
243.3231774912965
 20
-263.2960435694949
 30
0.0
 10
243.3231774912965
 20
-263.2960435694949
 30
0.0
 10
218.9359473714467
 20
-263.2960435694949
 30
0.0
 10
218.9359473714467
 20
-263.2960435694949
 30
0.0
 10
218.3124282039207
 20
-263.2960435694949
 30
0.0
 10
217.6568069323039
 20
-263.2287601281423
 30
0.0
 10
216.9699182113509
 20
-263.089756645124
 30
0.0
 10
216.2822269377684
 20
-262.9527316460099
 30
0.0
 10
215.6226571074076
 20
-262.7380961190975
 30
0.0
 10
214.9891541855141
 20
-262.4470941110467
 30
0.0
 10
214.354046158438
 20
-262.1546232285564
 30
0.0
 10
213.7707509273569
 20
-261.7788911483476
 30
0.0
 10
213.2363793028417
 20
-261.3184439844626
 30
0.0
 10
212.7030670477943
 20
-260.8570075786047
 30
0.0
 10
212.2665105344277
 20
-260.299314932945
 30
0.0
 10
211.9251688617805
 20
-259.6426681149187
 30
0.0
 10
211.585400192238
 20
-258.9867407455022
 30
0.0
 10
211.3689678065202
 20
-258.2267031547744
 30
0.0
 10
211.2753580710087
 20
-257.3608166750328
 30
0.0
 10
211.1825187860086
 20
-256.4951700115162
 30
0.0
 10
211.2638013135584
 20
-255.5187882031878
 30
0.0
 10
211.5165090768387
 20
-254.4355682639125
 30
0.0
 10
211.5165090768387
 20
-254.4355682639125
 30
0.0
 10
215.5043287517656
 20
-237.3440153514748
 30
0.0
 10
215.5043287517656
 20
-237.3440153514748
 30
0.0
 10
215.642143084573
 20
-236.76177151915
 30
0.0
 10
215.860405290201
 20
-236.1360460064534
 30
0.0
 10
216.1657284020839
 20
-235.4639160529769
 30
0.0
 10
216.4699921445717
 20
-234.7912914785029
 30
0.0
 10
216.8542222282704
 20
-234.1277649323511
 30
0.0
 10
217.3194138184699
 20
-233.4733064373904
 30
0.0
 10
217.7838349581543
 20
-232.8168994355747
 30
0.0
 10
218.3366331904072
 20
-232.1906793018443
 30
0.0
 10
218.98011986661
 20
-231.5914834597006
 30
0.0
 10
219.622579275554
 20
-230.9925274337565
 30
0.0
 10
220.3494672181878
 20
-230.4620988958941
 30
0.0
 10
221.1586649556848
 20
-230.0009172947503
 30
0.0
 10
221.9678626932146
 20
-229.5409647518718
 30
0.0
 10
222.864634970636
 20
-229.1718725835162
 30
0.0
 10
223.8476334996303
 20
-228.8958441013965
 30
0.0
 10
224.8298615780914
 20
-228.6215392984777
 30
0.0
 10
225.9007235659083
 20
-228.4835250574051
 30
0.0
 10
227.0641359198526
 20
-228.4835250574051
 30
0.0
 10
227.0641359198526
 20
-228.4835250574051
 30
0.0
 10
254.544018542405
 20
-228.4835250574051
 30
0.0
 10
254.544018542405
 20
-228.4835250574051
 30
0.0
 10
254.544018542405
 20
-228.4835250574051
 30
0.0
 10
253.0702751483514
 20
-234.7954582855036
 30
0.0
 10
253.0702751483514
 20
-234.7954582855036
 30
0.0
 10
253.0702751483514
 20
-234.7954582855036
 30
0.0
 10
225.5888195227199
 20
-234.7954582855036
 30
0.0
 10
225.5888195227199
 20
-234.7954582855036
 30
0.0
 10
224.7059795584573
 20
-234.7954582855036
 30
0.0
 10
223.9806967210206
 20
-235.0147552404505
 30
0.0
 10
223.408701430566
 20
-235.4516254711198
 30
0.0
 10
222.8398842483766
 20
-235.8867720226444
 30
0.0
 10
222.4543379783754
 20
-236.534845410406
 30
0.0
 10
222.2539566447558
 20
-237.3928779086291
 30
0.0
 10
222.2539566447558
 20
-237.3928779086291
 30
0.0
 10
218.2776937272756
 20
-254.4353134591274
 30
0.0
 10
218.2776937272756
 20
-254.4353134591274
 30
0.0
 10
218.0880987006312
 20
-255.2437339745356
 30
0.0
 10
218.1801354330055
 20
-255.8711681779114
 30
0.0
 10
218.5532902908308
 20
-256.3161471949188
 30
0.0
 10
218.9251289623426
 20
-256.761366028104
 30
0.0
 10
219.5455021236376
 20
-256.9836157203863
 30
0.0
 10
220.4109748496012
 20
-256.9836157203863
 30
0.0
 10
220.4109748496012
 20
-256.9836157203863
 30
0.0
 10
241.4446907690508
 20
-256.9836157203863
 30
0.0
 10
241.4446907690508
 20
-256.9836157203863
 30
0.0
 10
241.4446907690508
 20
-256.9836157203863
 30
0.0
 10
243.2915890208606
 20
-249.0688407340149
 30
0.0
 10
243.2915890208606
 20
-249.0688407340149
 30
0.0
 10
243.2915890208606
 20
-249.0688407340149
 30
0.0
 10
225.2995153607517
 20
-249.0688407340149
 30
0.0
 10
225.2995153607517
 20
-249.0688407340149
 30
0.0
 10
225.2995153607517
 20
-249.0688407340149
 30
0.0
 10
226.7848155122447
 20
-242.7082847650108
 30
0.0
 10
226.7848155122447
 20
-242.7082847650108
 30
0.0
 10
226.7848155122447
 20
-242.7082847650108
 30
0.0
 10
248.1285735528618
 20
-242.7082847650108
 30
0.0
 10
248.1285735528618
 20
-242.7082847650108
 30
0.0
 10
248.613507937036
 20
-242.7082847650108
 30
0.0
 10
249.0442860717048
 20
-242.7949783326294
 30
0.0
 10
249.4208437525485
 20
-242.9636740627448
 30
0.0
 10
249.7976903522867
 20
-243.1343482767752
 30
0.0
 10
250.1038160167845
 20
-243.3644519506252
 30
0.0
 10
250.339156541806
 20
-243.6561883958711
 30
0.0
 10
250.5747859857584
 20
-243.9474302201215
 30
0.0
 10
250.7346865661566
 20
-244.2838774040083
 30
0.0
 10
250.8183125472933
 20
-244.6630268655317
 30
0.0
 10
250.9035115315128
 20
-245.0446494319422
 30
0.0
 10
250.8953575970409
 20
-245.4522920594118
 30
0.0
 10
250.7935939271192
 20
-245.8896569110875
 30
0.0
 10
250.7935939271192
 20
-245.8896569110875
 30
0.0
 10
247.4708977465853
 20
-260.1144166186568
 30
0.0
 10
247.4708977465853
 20
-260.1144166186568
 30
0.0
  0
HATCH
  5
55
330
49
100
AcDbEntity
  8
Layer 1
 62
   179
420
  2236962
100
AcDbHatch
 10
0.0
 20
0.0
 30
0.0
210
0.0
220
0.0
230
1.0
  2
SOLID
 70
     1
 71
     0
 91
        1
 92
        1
 93
        1
 72
     4
 94
        3
 73
     0
 74
     1
 95
      113
 96
      109
 40
0.0
 40
0.0
 40
0.0
 40
0.0
 40
1.0
 40
1.0
 40
1.0
 40
2.0
 40
2.0
 40
2.0
 40
3.0
 40
3.0
 40
3.0
 40
4.0
 40
4.0
 40
4.0
 40
5.0
 40
5.0
 40
5.0
 40
6.0
 40
6.0
 40
6.0
 40
7.0
 40
7.0
 40
7.0
 40
8.0
 40
8.0
 40
8.0
 40
9.0
 40
9.0
 40
9.0
 40
10.0
 40
10.0
 40
10.0
 40
11.0
 40
11.0
 40
11.0
 40
12.0
 40
12.0
 40
12.0
 40
13.0
 40
13.0
 40
13.0
 40
14.0
 40
14.0
 40
14.0
 40
15.0
 40
15.0
 40
15.0
 40
16.0
 40
16.0
 40
16.0
 40
17.0
 40
17.0
 40
17.0
 40
18.0
 40
18.0
 40
18.0
 40
19.0
 40
19.0
 40
19.0
 40
20.0
 40
20.0
 40
20.0
 40
21.0
 40
21.0
 40
21.0
 40
22.0
 40
22.0
 40
22.0
 40
23.0
 40
23.0
 40
23.0
 40
24.0
 40
24.0
 40
24.0
 40
25.0
 40
25.0
 40
25.0
 40
26.0
 40
26.0
 40
26.0
 40
27.0
 40
27.0
 40
27.0
 40
28.0
 40
28.0
 40
28.0
 40
29.0
 40
29.0
 40
29.0
 40
30.0
 40
30.0
 40
30.0
 40
31.0
 40
31.0
 40
31.0
 40
32.0
 40
32.0
 40
32.0
 40
33.0
 40
33.0
 40
33.0
 40
34.0
 40
34.0
 40
34.0
 40
35.0
 40
35.0
 40
35.0
 40
36.0
 40
36.0
 40
36.0
 40
36.0
 10
247.4708977465853
 20
-260.1144166186568
 10
247.3643829652647
 20
-260.568238859194
 10
247.1787364973898
 20
-260.9893861382207
 10
246.9162696944513
 20
-261.3771539955378
 10
246.6522298884411
 20
-261.7658961063207
 10
246.3356068358844
 20
-262.1013390597363
 10
245.9661116179268
 20
-262.3842472699325
 10
245.5968732168294
 20
-262.6693587918289
 10
245.1848106088801
 20
-262.8913536793116
 10
244.7303732236032
 20
-263.053424486101
 10
244.2764815740084
 20
-263.215495292854
 10
243.8073093228668
 20
-263.2960435694949
 10
243.3231774912965
 20
-263.2960435694949
 10
243.3231774912965
 20
-263.2960435694949
 10
218.9359473714467
 20
-263.2960435694949
 10
218.9359473714467
 20
-263.2960435694949
 10
218.3124282039207
 20
-263.2960435694949
 10
217.6568069323039
 20
-263.2287601281423
 10
216.9699182113509
 20
-263.089756645124
 10
216.2822269377684
 20
-262.9527316460099
 10
215.6226571074076
 20
-262.7380961190975
 10
214.9891541855141
 20
-262.4470941110467
 10
214.354046158438
 20
-262.1546232285564
 10
213.7707509273569
 20
-261.7788911483476
 10
213.2363793028417
 20
-261.3184439844626
 10
212.7030670477943
 20
-260.8570075786047
 10
212.2665105344277
 20
-260.299314932945
 10
211.9251688617805
 20
-259.6426681149187
 10
211.585400192238
 20
-258.9867407455022
 10
211.3689678065202
 20
-258.2267031547744
 10
211.2753580710087
 20
-257.3608166750328
 10
211.1825187860086
 20
-256.4951700115162
 10
211.2638013135584
 20
-255.5187882031878
 10
211.5165090768387
 20
-254.4355682639125
 10
211.5165090768387
 20
-254.4355682639125
 10
215.5043287517656
 20
-237.3440153514748
 10
215.5043287517656
 20
-237.3440153514748
 10
215.642143084573
 20
-236.76177151915
 10
215.860405290201
 20
-236.1360460064534
 10
216.1657284020839
 20
-235.4639160529769
 10
216.4699921445717
 20
-234.7912914785029
 10
216.8542222282704
 20
-234.1277649323511
 10
217.3194138184699
 20
-233.4733064373904
 10
217.7838349581543
 20
-232.8168994355747
 10
218.3366331904072
 20
-232.1906793018443
 10
218.98011986661
 20
-231.5914834597006
 10
219.622579275554
 20
-230.9925274337565
 10
220.3494672181878
 20
-230.4620988958941
 10
221.1586649556848
 20
-230.0009172947503
 10
221.9678626932146
 20
-229.5409647518718
 10
222.864634970636
 20
-229.1718725835162
 10
223.8476334996303
 20
-228.8958441013965
 10
224.8298615780914
 20
-228.6215392984777
 10
225.9007235659083
 20
-228.4835250574051
 10
227.0641359198526
 20
-228.4835250574051
 10
227.0641359198526
 20
-228.4835250574051
 10
254.544018542405
 20
-228.4835250574051
 10
254.544018542405
 20
-228.4835250574051
 10
254.544018542405
 20
-228.4835250574051
 10
253.0702751483514
 20
-234.7954582855036
 10
253.0702751483514
 20
-234.7954582855036
 10
253.0702751483514
 20
-234.7954582855036
 10
225.5888195227199
 20
-234.7954582855036
 10
225.5888195227199
 20
-234.7954582855036
 10
224.7059795584573
 20
-234.7954582855036
 10
223.9806967210206
 20
-235.0147552404505
 10
223.408701430566
 20
-235.4516254711198
 10
222.8398842483766
 20
-235.8867720226444
 10
222.4543379783754
 20
-236.534845410406
 10
222.2539566447558
 20
-237.3928779086291
 10
222.2539566447558
 20
-237.3928779086291
 10
218.2776937272756
 20
-254.4353134591274
 10
218.2776937272756
 20
-254.4353134591274
 10
218.0880987006312
 20
-255.2437339745356
 10
218.1801354330055
 20
-255.8711681779114
 10
218.5532902908308
 20
-256.3161471949188
 10
218.9251289623426
 20
-256.761366028104
 10
219.5455021236376
 20
-256.9836157203863
 10
220.4109748496012
 20
-256.9836157203863
 10
220.4109748496012
 20
-256.9836157203863
 10
241.4446907690508
 20
-256.9836157203863
 10
241.4446907690508
 20
-256.9836157203863
 10
241.4446907690508
 20
-256.9836157203863
 10
243.2915890208606
 20
-249.0688407340149
 10
243.2915890208606
 20
-249.0688407340149
 10
243.2915890208606
 20
-249.0688407340149
 10
225.2995153607517
 20
-249.0688407340149
 10
225.2995153607517
 20
-249.0688407340149
 10
225.2995153607517
 20
-249.0688407340149
 10
226.7848155122447
 20
-242.7082847650108
 10
226.7848155122447
 20
-242.7082847650108
 10
226.7848155122447
 20
-242.7082847650108
 10
248.1285735528618
 20
-242.7082847650108
 10
248.1285735528618
 20
-242.7082847650108
 10
248.613507937036
 20
-242.7082847650108
 10
249.0442860717048
 20
-242.7949783326294
 10
249.4208437525485
 20
-242.9636740627448
 10
249.7976903522867
 20
-243.1343482767752
 10
250.1038160167845
 20
-243.3644519506252
 10
250.339156541806
 20
-243.6561883958711
 10
250.5747859857584
 20
-243.9474302201215
 10
250.7346865661566
 20
-244.2838774040083
 10
250.8183125472933
 20
-244.6630268655317
 10
250.9035115315128
 20
-245.0446494319422
 10
250.8953575970409
 20
-245.4522920594118
 10
250.7935939271192
 20
-245.8896569110875
 10
250.7935939271192
 20
-245.8896569110875
 10
247.4708977465853
 20
-260.1144166186568
 10
247.4708977465853
 20
-260.1144166186568
 97
        0
 97
        0
 75
     2
 76
     1
 98
        0
  0
SPLINE
  5
56
330
49
100
AcDbEntity
  8
Layer 1
370
     0
100
AcDbSpline
210
0.0
220
0.0
230
1.0
 70
    11
 71
     3
 72
    77
 73
    73
 74
     0
 42
0.0000000001
 43
0.0000000001
 12
1.0
 22
0.0
 32
0.0
 13
1.0
 23
0.0
 33
0.0
 40
0.0
 40
0.0
 40
0.0
 40
0.0
 40
1.0
 40
1.0
 40
1.0
 40
2.0
 40
2.0
 40
2.0
 40
3.0
 40
3.0
 40
3.0
 40
4.0
 40
4.0
 40
4.0
 40
5.0
 40
5.0
 40
5.0
 40
6.0
 40
6.0
 40
6.0
 40
7.0
 40
7.0
 40
7.0
 40
8.0
 40
8.0
 40
8.0
 40
9.0
 40
9.0
 40
9.0
 40
10.0
 40
10.0
 40
10.0
 40
11.0
 40
11.0
 40
11.0
 40
12.0
 40
12.0
 40
12.0
 40
13.0
 40
13.0
 40
13.0
 40
14.0
 40
14.0
 40
14.0
 40
15.0
 40
15.0
 40
15.0
 40
16.0
 40
16.0
 40
16.0
 40
17.0
 40
17.0
 40
17.0
 40
18.0
 40
18.0
 40
18.0
 40
19.0
 40
19.0
 40
19.0
 40
20.0
 40
20.0
 40
20.0
 40
21.0
 40
21.0
 40
21.0
 40
22.0
 40
22.0
 40
22.0
 40
23.0
 40
23.0
 40
23.0
 40
24.0
 40
24.0
 40
24.0
 40
24.0
 10
297.1660463312619
 20
-263.2958037532717
 30
0.0
 10
297.1660463312619
 20
-263.2958037532717
 30
0.0
 10
290.3540761522308
 20
-263.2958037532717
 30
0.0
 10
290.3540761522308
 20
-263.2958037532717
 30
0.0
 10
290.3540761522308
 20
-263.2958037532717
 30
0.0
 10
295.1918632368106
 20
-242.5634057843508
 30
0.0
 10
295.1918632368106
 20
-242.5634057843508
 30
0.0
 10
295.1918632368106
 20
-242.5634057843508
 30
0.0
 10
278.6119932371876
 20
-262.2523783198139
 30
0.0
 10
278.6119932371876
 20
-262.2523783198139
 30
0.0
 10
278.200155343995
 20
-262.7533394383008
 30
0.0
 10
277.7005181960958
 20
-263.1349620046876
 30
0.0
 10
277.1122150367519
 20
-263.3923297862875
 30
0.0
 10
276.5213116070045
 20
-263.6516610633244
 30
0.0
 10
275.9237951437754
 20
-263.7818063342784
 30
0.0
 10
275.3184136651034
 20
-263.7818063342784
 30
0.0
 10
274.7285375026295
 20
-263.7818063342784
 30
0.0
 10
274.2083871102295
 20
-263.6516460748371
 30
0.0
 10
273.7576093648349
 20
-263.3923297862875
 30
0.0
 10
273.3063500877724
 20
-263.134976993224
 30
0.0
 10
272.9928730414686
 20
-262.7533544268135
 30
0.0
 10
272.8140322195977
 20
-262.2523783198139
 30
0.0
 10
272.8140322195977
 20
-262.2523783198139
 30
0.0
 10
265.3727323922067
 20
-242.5634057843508
 30
0.0
 10
265.3727323922067
 20
-242.5634057843508
 30
0.0
 10
265.3727323922067
 20
-242.5634057843508
 30
0.0
 10
260.5338859381627
 20
-263.2958037532717
 30
0.0
 10
260.5338859381627
 20
-263.2958037532717
 30
0.0
 10
260.5338859381627
 20
-263.2958037532717
 30
0.0
 10
253.7742421886942
 20
-263.2958037532717
 30
0.0
 10
253.7742421886942
 20
-263.2958037532717
 30
0.0
 10
253.7742421886942
 20
-263.2958037532717
 30
0.0
 10
261.2691846320558
 20
-231.17574703438
 30
0.0
 10
261.2691846320558
 20
-231.17574703438
 30
0.0
 10
261.4398715194693
 20
-230.4478747956855
 30
0.0
 10
261.820666678057
 20
-229.801285270818
 30
0.0
 10
262.4131431108799
 20
-229.2327859062407
 30
0.0
 10
263.0030192733029
 20
-228.6672392790242
 30
0.0
 10
263.6946591056694
 20
-228.287085587006
 30
0.0
 10
264.4856870522781
 20
-228.0933290607409
 30
0.0
 10
264.8680552139667
 20
-228.0110571049227
 30
0.0
 10
265.238064065561
 20
-227.9838079856472
 30
0.0
 10
265.5965161597051
 20
-228.0073849188921
 30
0.0
 10
265.9559955211698
 20
-228.0321909102549
 30
0.0
 10
266.2899858120145
 20
-228.1053648378129
 30
0.0
 10
266.5987438490301
 20
-228.2266818738026
 30
0.0
 10
266.9095885228126
 20
-228.3484785422388
 30
0.0
 10
267.1770311518958
 20
-228.5179236980512
 30
0.0
 10
267.4037362109011
 20
-228.7362463995778
 30
0.0
 10
267.6301523509683
 20
-228.9538196752874
 30
0.0
 10
267.8016096888314
 20
-229.2173177593268
 30
0.0
 10
267.9207405970847
 20
-229.5255115934688
 30
0.0
 10
267.9207405970847
 20
-229.5255115934688
 30
0.0
 10
277.4816460504626
 20
-254.505819431135
 30
0.0
 10
277.4816460504626
 20
-254.505819431135
 30
0.0
 10
277.4816460504626
 20
-254.505819431135
 30
0.0
 10
298.7023246241006
 20
-229.5255115934688
 30
0.0
 10
298.7023246241006
 20
-229.5255115934688
 30
0.0
 10
299.2453638166589
 20
-228.9098583624418
 30
0.0
 10
299.8970365294517
 20
-228.472748315502
 30
0.0
 10
300.6599430328679
 20
-228.2134170385125
 30
0.0
 10
301.4215333500251
 20
-227.9543405662353
 30
0.0
 10
302.163124056322
 20
-227.9145610489049
 30
0.0
 10
302.8852929896566
 20
-228.0933290607409
 30
0.0
 10
303.5679763349872
 20
-228.287085587006
 30
0.0
 10
304.0768588888059
 20
-228.6672242905115
 30
0.0
 10
304.4124221828242
 20
-229.2327859062407
 30
0.0
 10
304.7479854767444
 20
-229.801285270818
 30
0.0
 10
304.8310978241461
 20
-230.4478747956855
 30
0.0
 10
304.6609245704931
 20
-231.17574703438
 30
0.0
 10
304.6609245704931
 20
-231.17574703438
 30
0.0
 10
297.1660463312619
 20
-263.2958037532717
 30
0.0
 10
297.1660463312619
 20
-263.2958037532717
 30
0.0
  0
HATCH
  5
57
330
49
100
AcDbEntity
  8
Layer 1
 62
   179
420
  2236962
100
AcDbHatch
 10
0.0
 20
0.0
 30
0.0
210
0.0
220
0.0
230
1.0
  2
SOLID
 70
     1
 71
     0
 91
        1
 92
        1
 93
        1
 72
     4
 94
        3
 73
     0
 74
     1
 95
       77
 96
       73
 40
0.0
 40
0.0
 40
0.0
 40
0.0
 40
1.0
 40
1.0
 40
1.0
 40
2.0
 40
2.0
 40
2.0
 40
3.0
 40
3.0
 40
3.0
 40
4.0
 40
4.0
 40
4.0
 40
5.0
 40
5.0
 40
5.0
 40
6.0
 40
6.0
 40
6.0
 40
7.0
 40
7.0
 40
7.0
 40
8.0
 40
8.0
 40
8.0
 40
9.0
 40
9.0
 40
9.0
 40
10.0
 40
10.0
 40
10.0
 40
11.0
 40
11.0
 40
11.0
 40
12.0
 40
12.0
 40
12.0
 40
13.0
 40
13.0
 40
13.0
 40
14.0
 40
14.0
 40
14.0
 40
15.0
 40
15.0
 40
15.0
 40
16.0
 40
16.0
 40
16.0
 40
17.0
 40
17.0
 40
17.0
 40
18.0
 40
18.0
 40
18.0
 40
19.0
 40
19.0
 40
19.0
 40
20.0
 40
20.0
 40
20.0
 40
21.0
 40
21.0
 40
21.0
 40
22.0
 40
22.0
 40
22.0
 40
23.0
 40
23.0
 40
23.0
 40
24.0
 40
24.0
 40
24.0
 40
24.0
 10
297.1660463312619
 20
-263.2958037532717
 10
297.1660463312619
 20
-263.2958037532717
 10
290.3540761522308
 20
-263.2958037532717
 10
290.3540761522308
 20
-263.2958037532717
 10
290.3540761522308
 20
-263.2958037532717
 10
295.1918632368106
 20
-242.5634057843508
 10
295.1918632368106
 20
-242.5634057843508
 10
295.1918632368106
 20
-242.5634057843508
 10
278.6119932371876
 20
-262.2523783198139
 10
278.6119932371876
 20
-262.2523783198139
 10
278.200155343995
 20
-262.7533394383008
 10
277.7005181960958
 20
-263.1349620046876
 10
277.1122150367519
 20
-263.3923297862875
 10
276.5213116070045
 20
-263.6516610633244
 10
275.9237951437754
 20
-263.7818063342784
 10
275.3184136651034
 20
-263.7818063342784
 10
274.7285375026295
 20
-263.7818063342784
 10
274.2083871102295
 20
-263.6516460748371
 10
273.7576093648349
 20
-263.3923297862875
 10
273.3063500877724
 20
-263.134976993224
 10
272.9928730414686
 20
-262.7533544268135
 10
272.8140322195977
 20
-262.2523783198139
 10
272.8140322195977
 20
-262.2523783198139
 10
265.3727323922067
 20
-242.5634057843508
 10
265.3727323922067
 20
-242.5634057843508
 10
265.3727323922067
 20
-242.5634057843508
 10
260.5338859381627
 20
-263.2958037532717
 10
260.5338859381627
 20
-263.2958037532717
 10
260.5338859381627
 20
-263.2958037532717
 10
253.7742421886942
 20
-263.2958037532717
 10
253.7742421886942
 20
-263.2958037532717
 10
253.7742421886942
 20
-263.2958037532717
 10
261.2691846320558
 20
-231.17574703438
 10
261.2691846320558
 20
-231.17574703438
 10
261.4398715194693
 20
-230.4478747956855
 10
261.820666678057
 20
-229.801285270818
 10
262.4131431108799
 20
-229.2327859062407
 10
263.0030192733029
 20
-228.6672392790242
 10
263.6946591056694
 20
-228.287085587006
 10
264.4856870522781
 20
-228.0933290607409
 10
264.8680552139667
 20
-228.0110571049227
 10
265.238064065561
 20
-227.9838079856472
 10
265.5965161597051
 20
-228.0073849188921
 10
265.9559955211698
 20
-228.0321909102549
 10
266.2899858120145
 20
-228.1053648378129
 10
266.5987438490301
 20
-228.2266818738026
 10
266.9095885228126
 20
-228.3484785422388
 10
267.1770311518958
 20
-228.5179236980512
 10
267.4037362109011
 20
-228.7362463995778
 10
267.6301523509683
 20
-228.9538196752874
 10
267.8016096888314
 20
-229.2173177593268
 10
267.9207405970847
 20
-229.5255115934688
 10
267.9207405970847
 20
-229.5255115934688
 10
277.4816460504626
 20
-254.505819431135
 10
277.4816460504626
 20
-254.505819431135
 10
277.4816460504626
 20
-254.505819431135
 10
298.7023246241006
 20
-229.5255115934688
 10
298.7023246241006
 20
-229.5255115934688
 10
299.2453638166589
 20
-228.9098583624418
 10
299.8970365294517
 20
-228.472748315502
 10
300.6599430328679
 20
-228.2134170385125
 10
301.4215333500251
 20
-227.9543405662353
 10
302.163124056322
 20
-227.9145610489049
 10
302.8852929896566
 20
-228.0933290607409
 10
303.5679763349872
 20
-228.287085587006
 10
304.0768588888059
 20
-228.6672242905115
 10
304.4124221828242
 20
-229.2327859062407
 10
304.7479854767444
 20
-229.801285270818
 10
304.8310978241461
 20
-230.4478747956855
 10
304.6609245704931
 20
-231.17574703438
 10
304.6609245704931
 20
-231.17574703438
 10
297.1660463312619
 20
-263.2958037532717
 10
297.1660463312619
 20
-263.2958037532717
 97
        0
 97
        0
 75
     2
 76
     1
 98
        0
  0
SPLINE
  5
58
330
49
100
AcDbEntity
  8
Layer 1
370
     0
100
AcDbSpline
210
0.0
220
0.0
230
1.0
 70
    11
 71
     3
 72
    77
 73
    73
 74
     0
 42
0.0000000001
 43
0.0000000001
 12
1.0
 22
0.0
 32
0.0
 13
1.0
 23
0.0
 33
0.0
 40
0.0
 40
0.0
 40
0.0
 40
0.0
 40
1.0
 40
1.0
 40
1.0
 40
2.0
 40
2.0
 40
2.0
 40
3.0
 40
3.0
 40
3.0
 40
4.0
 40
4.0
 40
4.0
 40
5.0
 40
5.0
 40
5.0
 40
6.0
 40
6.0
 40
6.0
 40
7.0
 40
7.0
 40
7.0
 40
8.0
 40
8.0
 40
8.0
 40
9.0
 40
9.0
 40
9.0
 40
10.0
 40
10.0
 40
10.0
 40
11.0
 40
11.0
 40
11.0
 40
12.0
 40
12.0
 40
12.0
 40
13.0
 40
13.0
 40
13.0
 40
14.0
 40
14.0
 40
14.0
 40
15.0
 40
15.0
 40
15.0
 40
16.0
 40
16.0
 40
16.0
 40
17.0
 40
17.0
 40
17.0
 40
18.0
 40
18.0
 40
18.0
 40
19.0
 40
19.0
 40
19.0
 40
20.0
 40
20.0
 40
20.0
 40
21.0
 40
21.0
 40
21.0
 40
22.0
 40
22.0
 40
22.0
 40
23.0
 40
23.0
 40
23.0
 40
24.0
 40
24.0
 40
24.0
 40
24.0
 10
342.2874476374272
 20
-260.1144166186568
 30
0.0
 10
342.1817354087325
 20
-260.568238859194
 30
0.0
 10
341.9952863882536
 20
-260.9893861382207
 30
0.0
 10
341.7320170326675
 20
-261.3771539955378
 30
0.0
 10
341.4687797792685
 20
-261.7658961063207
 30
0.0
 10
341.1476624321695
 20
-262.1013390597363
 30
0.0
 10
340.7694996461032
 20
-262.3842472699325
 30
0.0
 10
340.3913368600988
 20
-262.6693587918289
 30
0.0
 10
339.974523140696
 20
-262.8913536793116
 30
0.0
 10
339.5216587584728
 20
-263.053424486101
 30
0.0
 10
339.0677671089179
 20
-263.215495292854
 30
0.0
 10
338.6075513448268
 20
-263.2960435694949
 30
0.0
 10
338.1381222769633
 20
-263.2960435694949
 30
0.0
 10
338.1381222769633
 20
-263.2960435694949
 30
0.0
 10
322.9031378255895
 20
-263.2960435694949
 30
0.0
 10
322.9031378255895
 20
-263.2960435694949
 30
0.0
 10
321.4657019112419
 20
-263.2960435694949
 30
0.0
 10
320.0434823942524
 20
-263.1496807259045
 30
0.0
 10
318.6373460314389
 20
-262.8586787178283
 30
0.0
 10
317.232493752741
 20
-262.5679165259789
 30
0.0
 10
315.9123268246331
 20
-262.1175416438236
 30
0.0
 10
314.6758179797616
 20
-261.5117208782776
 30
0.0
 10
313.4400795853871
 20
-260.9039366173456
 30
0.0
 10
312.325045102305
 20
-260.1316084447481
 30
0.0
 10
311.3304577137642
 20
-259.1935222908814
 30
0.0
 10
310.3358703252052
 20
-258.2561705742246
 30
0.0
 10
309.535083338993
 20
-257.1420143411324
 30
0.0
 10
308.9254964846477
 20
-255.856449456729
 30
0.0
 10
308.3159096302916
 20
-254.5674372140566
 30
0.0
 10
307.9440388566763
 20
-253.0964644059059
 30
0.0
 10
307.812035004692
 20
-251.4359168670399
 30
0.0
 10
307.6773987801716
 20
-249.7778124560264
 30
0.0
 10
307.8499154875281
 20
-247.9289042560667
 30
0.0
 10
308.3264391204466
 20
-245.8894320833388
 30
0.0
 10
308.3264391204466
 20
-245.8894320833388
 30
0.0
 10
312.3889603915304
 20
-228.4820711715238
 30
0.0
 10
312.3889603915304
 20
-228.4820711715238
 30
0.0
 10
312.3889603915304
 20
-228.4820711715238
 30
0.0
 10
319.1486041410099
 20
-228.4820711715238
 30
0.0
 10
319.1486041410099
 20
-228.4820711715238
 30
0.0
 10
319.1486041410099
 20
-228.4820711715238
 30
0.0
 10
315.0860828698642
 20
-245.8894320833388
 30
0.0
 10
315.0860828698642
 20
-245.8894320833388
 30
0.0
 10
314.6700396010092
 20
-247.6698277837768
 30
0.0
 10
314.5830107968432
 20
-249.1749444278266
 30
0.0
 10
314.824161802695
 20
-250.4069703385667
 30
0.0
 10
315.06611536114
 20
-251.6345896260536
 30
0.0
 10
315.4986912136046
 20
-252.6630415335694
 30
0.0
 10
316.1198669274963
 20
-253.488893691243
 30
0.0
 10
316.7420699087197
 20
-254.3130371582665
 30
0.0
 10
317.4828901645924
 20
-254.9615901785237
 30
0.0
 10
318.3444143317538
 20
-255.4303859449519
 30
0.0
 10
319.2043654957779
 20
-255.900905390572
 30
0.0
 10
320.0469494214958
 20
-256.2478895000859
 30
0.0
 10
320.869276919595
 20
-256.4745608041048
 30
0.0
 10
321.6924069702509
 20
-256.7017117406231
 30
0.0
 10
322.4300812198853
 20
-256.8434131562499
 30
0.0
 10
323.0838405693721
 20
-256.8998898786504
 30
0.0
 10
323.7386592884104
 20
-256.9563666011363
 30
0.0
 10
324.1694374230356
 20
-256.9841253298837
 30
0.0
 10
324.3777158742814
 20
-256.9841253298837
 30
0.0
 10
324.3777158742814
 20
-256.9841253298837
 30
0.0
 10
336.2583835726036
 20
-256.9841253298837
 30
0.0
 10
336.2583835726036
 20
-256.9841253298837
 30
0.0
 10
336.2583835726036
 20
-256.9841253298837
 30
0.0
 10
342.9096827207832
 20
-228.4837948506411
 30
0.0
 10
342.9096827207832
 20
-228.4837948506411
 30
0.0
 10
342.9096827207832
 20
-228.4837948506411
 30
0.0
 10
349.6690696534024
 20
-228.4837948506411
 30
0.0
 10
349.6690696534024
 20
-228.4837948506411
 30
0.0
 10
349.6690696534024
 20
-228.4837948506411
 30
0.0
 10
342.2874476374272
 20
-260.1144166186568
 30
0.0
 10
342.2874476374272
 20
-260.1144166186568
 30
0.0
  0
HATCH
  5
59
330
49
100
AcDbEntity
  8
Layer 1
 62
   179
420
  2236962
100
AcDbHatch
 10
0.0
 20
0.0
 30
0.0
210
0.0
220
0.0
230
1.0
  2
SOLID
 70
     1
 71
     0
 91
        1
 92
        1
 93
        1
 72
     4
 94
        3
 73
     0
 74
     1
 95
       77
 96
       73
 40
0.0
 40
0.0
 40
0.0
 40
0.0
 40
1.0
 40
1.0
 40
1.0
 40
2.0
 40
2.0
 40
2.0
 40
3.0
 40
3.0
 40
3.0
 40
4.0
 40
4.0
 40
4.0
 40
5.0
 40
5.0
 40
5.0
 40
6.0
 40
6.0
 40
6.0
 40
7.0
 40
7.0
 40
7.0
 40
8.0
 40
8.0
 40
8.0
 40
9.0
 40
9.0
 40
9.0
 40
10.0
 40
10.0
 40
10.0
 40
11.0
 40
11.0
 40
11.0
 40
12.0
 40
12.0
 40
12.0
 40
13.0
 40
13.0
 40
13.0
 40
14.0
 40
14.0
 40
14.0
 40
15.0
 40
15.0
 40
15.0
 40
16.0
 40
16.0
 40
16.0
 40
17.0
 40
17.0
 40
17.0
 40
18.0
 40
18.0
 40
18.0
 40
19.0
 40
19.0
 40
19.0
 40
20.0
 40
20.0
 40
20.0
 40
21.0
 40
21.0
 40
21.0
 40
22.0
 40
22.0
 40
22.0
 40
23.0
 40
23.0
 40
23.0
 40
24.0
 40
24.0
 40
24.0
 40
24.0
 10
342.2874476374272
 20
-260.1144166186568
 10
342.1817354087325
 20
-260.568238859194
 10
341.9952863882536
 20
-260.9893861382207
 10
341.7320170326675
 20
-261.3771539955378
 10
341.4687797792685
 20
-261.7658961063207
 10
341.1476624321695
 20
-262.1013390597363
 10
340.7694996461032
 20
-262.3842472699325
 10
340.3913368600988
 20
-262.6693587918289
 10
339.974523140696
 20
-262.8913536793116
 10
339.5216587584728
 20
-263.053424486101
 10
339.0677671089179
 20
-263.215495292854
 10
338.6075513448268
 20
-263.2960435694949
 10
338.1381222769633
 20
-263.2960435694949
 10
338.1381222769633
 20
-263.2960435694949
 10
322.9031378255895
 20
-263.2960435694949
 10
322.9031378255895
 20
-263.2960435694949
 10
321.4657019112419
 20
-263.2960435694949
 10
320.0434823942524
 20
-263.1496807259045
 10
318.6373460314389
 20
-262.8586787178283
 10
317.232493752741
 20
-262.5679165259789
 10
315.9123268246331
 20
-262.1175416438236
 10
314.6758179797616
 20
-261.5117208782776
 10
313.4400795853871
 20
-260.9039366173456
 10
312.325045102305
 20
-260.1316084447481
 10
311.3304577137642
 20
-259.1935222908814
 10
310.3358703252052
 20
-258.2561705742246
 10
309.535083338993
 20
-257.1420143411324
 10
308.9254964846477
 20
-255.856449456729
 10
308.3159096302916
 20
-254.5674372140566
 10
307.9440388566763
 20
-253.0964644059059
 10
307.812035004692
 20
-251.4359168670399
 10
307.6773987801716
 20
-249.7778124560264
 10
307.8499154875281
 20
-247.9289042560667
 10
308.3264391204466
 20
-245.8894320833388
 10
308.3264391204466
 20
-245.8894320833388
 10
312.3889603915304
 20
-228.4820711715238
 10
312.3889603915304
 20
-228.4820711715238
 10
312.3889603915304
 20
-228.4820711715238
 10
319.1486041410099
 20
-228.4820711715238
 10
319.1486041410099
 20
-228.4820711715238
 10
319.1486041410099
 20
-228.4820711715238
 10
315.0860828698642
 20
-245.8894320833388
 10
315.0860828698642
 20
-245.8894320833388
 10
314.6700396010092
 20
-247.6698277837768
 10
314.5830107968432
 20
-249.1749444278266
 10
314.824161802695
 20
-250.4069703385667
 10
315.06611536114
 20
-251.6345896260536
 10
315.4986912136046
 20
-252.6630415335694
 10
316.1198669274963
 20
-253.488893691243
 10
316.7420699087197
 20
-254.3130371582665
 10
317.4828901645924
 20
-254.9615901785237
 10
318.3444143317538
 20
-255.4303859449519
 10
319.2043654957779
 20
-255.900905390572
 10
320.0469494214958
 20
-256.2478895000859
 10
320.869276919595
 20
-256.4745608041048
 10
321.6924069702509
 20
-256.7017117406231
 10
322.4300812198853
 20
-256.8434131562499
 10
323.0838405693721
 20
-256.8998898786504
 10
323.7386592884104
 20
-256.9563666011363
 10
324.1694374230356
 20
-256.9841253298837
 10
324.3777158742814
 20
-256.9841253298837
 10
324.3777158742814
 20
-256.9841253298837
 10
336.2583835726036
 20
-256.9841253298837
 10
336.2583835726036
 20
-256.9841253298837
 10
336.2583835726036
 20
-256.9841253298837
 10
342.9096827207832
 20
-228.4837948506411
 10
342.9096827207832
 20
-228.4837948506411
 10
342.9096827207832
 20
-228.4837948506411
 10
349.6690696534024
 20
-228.4837948506411
 10
349.6690696534024
 20
-228.4837948506411
 10
349.6690696534024
 20
-228.4837948506411
 10
342.2874476374272
 20
-260.1144166186568
 10
342.2874476374272
 20
-260.1144166186568
 97
        0
 97
        0
 75
     2
 76
     1
 98
        0
  0
POLYLINE
  5
5A
330
49
100
AcDbEntity
  8
Layer 1
370
     0
100
AcDb2dPolyline
 66
     1
 10
0.0
 20
0.0
 30
0.0
  0
VERTEX
  5
5B
330
5A
100
AcDbEntity
  8
Layer 1
370
     0
100
AcDbVertex
100
AcDb2dVertex
 10
356.2069841700068
 20
-263.2958037532717
 30
0.0
  0
VERTEX
  5
5C
330
5A
100
AcDbEntity
  8
Layer 1
370
     0
100
AcDbVertex
100
AcDb2dVertex
 10
349.4475972373803
 20
-263.2958037532717
 30
0.0
  0
VERTEX
  5
5D
330
5A
100
AcDbEntity
  8
Layer 1
370
     0
100
AcDbVertex
100
AcDb2dVertex
 10
357.5718372270057
 20
-228.4815765505282
 30
0.0
  0
VERTEX
  5
5E
330
5A
100
AcDbEntity
  8
Layer 1
370
     0
100
AcDbVertex
100
AcDb2dVertex
 10
364.3320267122035
 20
-228.4815765505282
 30
0.0
  0
VERTEX
  5
5F
330
5A
100
AcDbEntity
  8
Layer 1
370
     0
100
AcDbVertex
100
AcDb2dVertex
 10
356.2069841700068
 20
-263.2958037532717
 30
0.0
  0
SEQEND
  5
61
330
5A
100
AcDbEntity
  8
Layer 1
370
     0
  0
HATCH
  5
60
330
49
100
AcDbEntity
  8
Layer 1
 62
   179
420
  2236962
100
AcDbHatch
 10
0.0
 20
0.0
 30
0.0
210
0.0
220
0.0
230
1.0
  2
SOLID
 70
     1
 71
     0
 91
        1
 92
        1
 93
        4
 72
     1
 10
356.2069841700068
 20
-263.2958037532717
 11
349.4475972373803
 21
-263.2958037532717
 72
     1
 10
349.4475972373803
 20
-263.2958037532717
 11
357.5718372270057
 21
-228.4815765505282
 72
     1
 10
357.5718372270057
 20
-228.4815765505282
 11
364.3320267122035
 21
-228.4815765505282
 72
     1
 10
364.3320267122035
 20
-228.4815765505282
 11
356.2069841700068
 21
-263.2958037532717
 97
        0
 75
     2
 76
     1
 98
        0
  0
SPLINE
  5
62
330
49
100
AcDbEntity
  8
Layer 1
370
     0
100
AcDbSpline
210
0.0
220
0.0
230
1.0
 70
    11
 71
     3
 72
   110
 73
   106
 74
     0
 42
0.0000000001
 43
0.0000000001
 12
1.0
 22
0.0
 32
0.0
 13
1.0
 23
0.0
 33
0.0
 40
0.0
 40
0.0
 40
0.0
 40
0.0
 40
1.0
 40
1.0
 40
1.0
 40
2.0
 40
2.0
 40
2.0
 40
3.0
 40
3.0
 40
3.0
 40
4.0
 40
4.0
 40
4.0
 40
5.0
 40
5.0
 40
5.0
 40
6.0
 40
6.0
 40
6.0
 40
7.0
 40
7.0
 40
7.0
 40
8.0
 40
8.0
 40
8.0
 40
9.0
 40
9.0
 40
9.0
 40
10.0
 40
10.0
 40
10.0
 40
11.0
 40
11.0
 40
11.0
 40
12.0
 40
12.0
 40
12.0
 40
13.0
 40
13.0
 40
13.0
 40
14.0
 40
14.0
 40
14.0
 40
15.0
 40
15.0
 40
15.0
 40
16.0
 40
16.0
 40
16.0
 40
17.0
 40
17.0
 40
17.0
 40
18.0
 40
18.0
 40
18.0
 40
19.0
 40
19.0
 40
19.0
 40
20.0
 40
20.0
 40
20.0
 40
21.0
 40
21.0
 40
21.0
 40
22.0
 40
22.0
 40
22.0
 40
23.0
 40
23.0
 40
23.0
 40
24.0
 40
24.0
 40
24.0
 40
25.0
 40
25.0
 40
25.0
 40
26.0
 40
26.0
 40
26.0
 40
27.0
 40
27.0
 40
27.0
 40
28.0
 40
28.0
 40
28.0
 40
29.0
 40
29.0
 40
29.0
 40
30.0
 40
30.0
 40
30.0
 40
31.0
 40
31.0
 40
31.0
 40
32.0
 40
32.0
 40
32.0
 40
33.0
 40
33.0
 40
33.0
 40
34.0
 40
34.0
 40
34.0
 40
35.0
 40
35.0
 40
35.0
 40
35.0
 10
406.7589379125347
 20
-240.1833196208081
 30
0.0
 10
406.4231178017399
 20
-241.6238507560665
 30
0.0
 10
405.9324050388241
 20
-242.9108845148385
 30
0.0
 10
405.2857081522161
 20
-244.0437014484269
 30
0.0
 10
404.6398138181503
 20
-245.1760387495669
 30
0.0
 10
403.8908717299892
 20
-246.1767319283226
 30
0.0
 10
403.0390745003606
 20
-247.0426184081134
 30
0.0
 10
402.1883366401999
 20
-247.9085048878806
 30
0.0
 10
401.2644701869249
 20
-248.6486527199304
 30
0.0
 10
400.2722583540635
 20
-249.2630768927775
 30
0.0
 10
399.280303338066
 20
-249.878475319043
 30
0.0
 10
398.2736134562547
 20
-250.3833784168091
 30
0.0
 10
397.2535048949576
 20
-250.7804691301226
 30
0.0
 10
396.2341988862645
 20
-251.1770652225241
 30
0.0
 10
395.2309118274861
 20
-251.4636456187382
 30
0.0
 10
394.2455377428196
 20
-251.6407049399568
 30
0.0
 10
393.2583017360812
 20
-251.8209568147449
 30
0.0
 10
392.3494590675364
 20
-251.9088644519961
 30
0.0
 10
391.5171157130171
 20
-251.9088644519961
 30
0.0
 10
391.5171157130171
 20
-251.9088644519961
 30
0.0
 10
402.9777915836894
 20
-263.2943049017922
 30
0.0
 10
402.9777915836894
 20
-263.2943049017922
 30
0.0
 10
402.9777915836894
 20
-263.2943049017922
 30
0.0
 10
392.5274652346743
 20
-263.2943049017922
 30
0.0
 10
392.5274652346743
 20
-263.2943049017922
 30
0.0
 10
392.5274652346743
 20
-263.2943049017922
 30
0.0
 10
381.0925352514605
 20
-251.9098387054164
 30
0.0
 10
381.0925352514605
 20
-251.9098387054164
 30
0.0
 10
381.0925352514605
 20
-251.9098387054164
 30
0.0
 10
376.2308320993216
 20
-251.9098387054164
 30
0.0
 10
376.2308320993216
 20
-251.9098387054164
 30
0.0
 10
376.2308320993216
 20
-251.9098387054164
 30
0.0
 10
377.7037729407748
 20
-245.5976656610437
 30
0.0
 10
377.7037729407748
 20
-245.5976656610437
 30
0.0
 10
377.7037729407748
 20
-245.5976656610437
 30
0.0
 10
392.991340638604
 20
-245.5976656610437
 30
0.0
 10
392.991340638604
 20
-245.5976656610437
 30
0.0
 10
393.8552403614267
 20
-245.5325855313276
 30
0.0
 10
394.6702164776725
 20
-245.3673221710069
 30
0.0
 10
395.433893431622
 20
-245.1003767286475
 30
0.0
 10
396.1986297549593
 20
-244.8339259072727
 30
0.0
 10
396.8889534010377
 20
-244.4736769624815
 30
0.0
 10
397.5059237393325
 20
-244.0208439639282
 30
0.0
 10
398.1228619754947
 20
-243.567276528127
 30
0.0
 10
398.6456768425087
 20
-243.0218594758226
 30
0.0
 10
399.0722496015042
 20
-242.3818948743683
 30
0.0
 10
399.497217255288
 20
-241.7419302728886
 30
0.0
 10
399.8075482954082
 20
-241.0093966062086
 30
0.0
 10
399.9995188778012
 20
-240.1850133229127
 30
0.0
 10
399.9995188778012
 20
-240.1850133229127
 30
0.0
 10
400.928906893012
 20
-236.2038090802653
 30
0.0
 10
400.928906893012
 20
-236.2038090802653
 30
0.0
 10
401.010959871026
 20
-235.8477269424875
 30
0.0
 10
401.0275245567173
 20
-235.5753856349456
 30
0.0
 10
400.9751981270492
 20
-235.3894980787009
 30
0.0
 10
400.9233853310761
 20
-235.2038503387539
 30
0.0
 10
400.8350403406803
 20
-235.0660759139046
 30
0.0
 10
400.7082691316755
 20
-234.9779134719411
 30
0.0
 10
400.5812411058141
 20
-234.8890165927096
 30
0.0
 10
400.4384509468837
 20
-234.8354776190827
 30
0.0
 10
400.2767205465243
 20
-234.8200094721815
 30
0.0
 10
400.1168199661151
 20
-234.8030724508735
 30
0.0
 10
399.9648165032995
 20
-234.7952034807931
 30
0.0
 10
399.8270342726137
 20
-234.7952034807931
 30
0.0
 10
399.8270342726137
 20
-234.7952034807931
 30
0.0
 10
377.5213045811761
 20
-234.7952034807931
 30
0.0
 10
377.5213045811761
 20
-234.7952034807931
 30
0.0
 10
377.5213045811761
 20
-234.7952034807931
 30
0.0
 10
370.8700054329856
 20
-263.2972576391749
 30
0.0
 10
370.8700054329856
 20
-263.2972576391749
 30
0.0
 10
370.8700054329856
 20
-263.2972576391749
 30
0.0
 10
364.110618500381
 20
-263.2972576391749
 30
0.0
 10
364.110618500381
 20
-263.2972576391749
 30
0.0
 10
364.110618500381
 20
-263.2972576391749
 30
0.0
 10
371.4919515974107
 20
-231.6629337080685
 30
0.0
 10
371.4919515974107
 20
-231.6629337080685
 30
0.0
 10
371.5945178199254
 20
-231.2263032936244
 30
0.0
 10
371.7765046479399
 20
-230.8139992381457
 30
0.0
 10
372.0408012708176
 20
-230.4247625064017
 30
0.0
 10
372.3050978936953
 20
-230.03700963755
 30
0.0
 10
372.6217209462411
 20
-229.6968902676581
 30
0.0
 10
372.9935917198563
 20
-229.4058882596564
 30
0.0
 10
373.3659761271847
 20
-229.1146464353587
 30
0.0
 10
373.7780708372411
 20
-228.887000877894
 30
0.0
 10
374.2309031173536
 20
-228.7254097035893
 30
0.0
 10
374.6855973194943
 20
-228.5645529664944
 30
0.0
 10
375.1557968379675
 20
-228.4832702526928
 30
0.0
 10
375.6412769579256
 20
-228.4832702526928
 30
0.0
 10
375.6412769579256
 20
-228.4832702526928
 30
0.0
 10
401.2994935824718
 20
-228.4832702526928
 30
0.0
 10
401.2994935824718
 20
-228.4832702526928
 30
0.0
 10
402.808228269907
 20
-228.4832702526928
 30
0.0
 10
404.0218804167198
 20
-228.7376852969464
 30
0.0
 10
404.9433392121973
 20
-229.2469950179366
 30
0.0
 10
405.8640275572106
 20
-229.7582682343436
 30
0.0
 10
406.5596159483284
 20
-230.3965241451951
 30
0.0
 10
407.029815466718
 20
-231.1656447756723
 30
0.0
 10
407.5008175377843
 20
-231.9342857736538
 30
0.0
 10
407.7743274645109
 20
-232.7648143478764
 30
0.0
 10
407.8529455174466
 20
-233.653528335155
 30
0.0
 10
407.931049936622
 20
-234.544955243553
 30
0.0
 10
407.8802965101022
 20
-235.3776871293412
 30
0.0
 10
407.6985664988861
 20
-236.1546767299005
 30
0.0
 10
407.6985664988861
 20
-236.1546767299005
 30
0.0
 10
406.7589379125347
 20
-240.1833196208081
 30
0.0
 10
406.7589379125347
 20
-240.1833196208081
 30
0.0
  0
HATCH
  5
63
330
49
100
AcDbEntity
  8
Layer 1
 62
   179
420
  2236962
100
AcDbHatch
 10
0.0
 20
0.0
 30
0.0
210
0.0
220
0.0
230
1.0
  2
SOLID
 70
     1
 71
     0
 91
        1
 92
        1
 93
        1
 72
     4
 94
        3
 73
     0
 74
     1
 95
      110
 96
      106
 40
0.0
 40
0.0
 40
0.0
 40
0.0
 40
1.0
 40
1.0
 40
1.0
 40
2.0
 40
2.0
 40
2.0
 40
3.0
 40
3.0
 40
3.0
 40
4.0
 40
4.0
 40
4.0
 40
5.0
 40
5.0
 40
5.0
 40
6.0
 40
6.0
 40
6.0
 40
7.0
 40
7.0
 40
7.0
 40
8.0
 40
8.0
 40
8.0
 40
9.0
 40
9.0
 40
9.0
 40
10.0
 40
10.0
 40
10.0
 40
11.0
 40
11.0
 40
11.0
 40
12.0
 40
12.0
 40
12.0
 40
13.0
 40
13.0
 40
13.0
 40
14.0
 40
14.0
 40
14.0
 40
15.0
 40
15.0
 40
15.0
 40
16.0
 40
16.0
 40
16.0
 40
17.0
 40
17.0
 40
17.0
 40
18.0
 40
18.0
 40
18.0
 40
19.0
 40
19.0
 40
19.0
 40
20.0
 40
20.0
 40
20.0
 40
21.0
 40
21.0
 40
21.0
 40
22.0
 40
22.0
 40
22.0
 40
23.0
 40
23.0
 40
23.0
 40
24.0
 40
24.0
 40
24.0
 40
25.0
 40
25.0
 40
25.0
 40
26.0
 40
26.0
 40
26.0
 40
27.0
 40
27.0
 40
27.0
 40
28.0
 40
28.0
 40
28.0
 40
29.0
 40
29.0
 40
29.0
 40
30.0
 40
30.0
 40
30.0
 40
31.0
 40
31.0
 40
31.0
 40
32.0
 40
32.0
 40
32.0
 40
33.0
 40
33.0
 40
33.0
 40
34.0
 40
34.0
 40
34.0
 40
35.0
 40
35.0
 40
35.0
 40
35.0
 10
406.7589379125347
 20
-240.1833196208081
 10
406.4231178017399
 20
-241.6238507560665
 10
405.9324050388241
 20
-242.9108845148385
 10
405.2857081522161
 20
-244.0437014484269
 10
404.6398138181503
 20
-245.1760387495669
 10
403.8908717299892
 20
-246.1767319283226
 10
403.0390745003606
 20
-247.0426184081134
 10
402.1883366401999
 20
-247.9085048878806
 10
401.2644701869249
 20
-248.6486527199304
 10
400.2722583540635
 20
-249.2630768927775
 10
399.280303338066
 20
-249.878475319043
 10
398.2736134562547
 20
-250.3833784168091
 10
397.2535048949576
 20
-250.7804691301226
 10
396.2341988862645
 20
-251.1770652225241
 10
395.2309118274861
 20
-251.4636456187382
 10
394.2455377428196
 20
-251.6407049399568
 10
393.2583017360812
 20
-251.8209568147449
 10
392.3494590675364
 20
-251.9088644519961
 10
391.5171157130171
 20
-251.9088644519961
 10
391.5171157130171
 20
-251.9088644519961
 10
402.9777915836894
 20
-263.2943049017922
 10
402.9777915836894
 20
-263.2943049017922
 10
402.9777915836894
 20
-263.2943049017922
 10
392.5274652346743
 20
-263.2943049017922
 10
392.5274652346743
 20
-263.2943049017922
 10
392.5274652346743
 20
-263.2943049017922
 10
381.0925352514605
 20
-251.9098387054164
 10
381.0925352514605
 20
-251.9098387054164
 10
381.0925352514605
 20
-251.9098387054164
 10
376.2308320993216
 20
-251.9098387054164
 10
376.2308320993216
 20
-251.9098387054164
 10
376.2308320993216
 20
-251.9098387054164
 10
377.7037729407748
 20
-245.5976656610437
 10
377.7037729407748
 20
-245.5976656610437
 10
377.7037729407748
 20
-245.5976656610437
 10
392.991340638604
 20
-245.5976656610437
 10
392.991340638604
 20
-245.5976656610437
 10
393.8552403614267
 20
-245.5325855313276
 10
394.6702164776725
 20
-245.3673221710069
 10
395.433893431622
 20
-245.1003767286475
 10
396.1986297549593
 20
-244.8339259072727
 10
396.8889534010377
 20
-244.4736769624815
 10
397.5059237393325
 20
-244.0208439639282
 10
398.1228619754947
 20
-243.567276528127
 10
398.6456768425087
 20
-243.0218594758226
 10
399.0722496015042
 20
-242.3818948743683
 10
399.497217255288
 20
-241.7419302728886
 10
399.8075482954082
 20
-241.0093966062086
 10
399.9995188778012
 20
-240.1850133229127
 10
399.9995188778012
 20
-240.1850133229127
 10
400.928906893012
 20
-236.2038090802653
 10
400.928906893012
 20
-236.2038090802653
 10
401.010959871026
 20
-235.8477269424875
 10
401.0275245567173
 20
-235.5753856349456
 10
400.9751981270492
 20
-235.3894980787009
 10
400.9233853310761
 20
-235.2038503387539
 10
400.8350403406803
 20
-235.0660759139046
 10
400.7082691316755
 20
-234.9779134719411
 10
400.5812411058141
 20
-234.8890165927096
 10
400.4384509468837
 20
-234.8354776190827
 10
400.2767205465243
 20
-234.8200094721815
 10
400.1168199661151
 20
-234.8030724508735
 10
399.9648165032995
 20
-234.7952034807931
 10
399.8270342726137
 20
-234.7952034807931
 10
399.8270342726137
 20
-234.7952034807931
 10
377.5213045811761
 20
-234.7952034807931
 10
377.5213045811761
 20
-234.7952034807931
 10
377.5213045811761
 20
-234.7952034807931
 10
370.8700054329856
 20
-263.2972576391749
 10
370.8700054329856
 20
-263.2972576391749
 10
370.8700054329856
 20
-263.2972576391749
 10
364.110618500381
 20
-263.2972576391749
 10
364.110618500381
 20
-263.2972576391749
 10
364.110618500381
 20
-263.2972576391749
 10
371.4919515974107
 20
-231.6629337080685
 10
371.4919515974107
 20
-231.6629337080685
 10
371.5945178199254
 20
-231.2263032936244
 10
371.7765046479399
 20
-230.8139992381457
 10
372.0408012708176
 20
-230.4247625064017
 10
372.3050978936953
 20
-230.03700963755
 10
372.6217209462411
 20
-229.6968902676581
 10
372.9935917198563
 20
-229.4058882596564
 10
373.3659761271847
 20
-229.1146464353587
 10
373.7780708372411
 20
-228.887000877894
 10
374.2309031173536
 20
-228.7254097035893
 10
374.6855973194943
 20
-228.5645529664944
 10
375.1557968379675
 20
-228.4832702526928
 10
375.6412769579256
 20
-228.4832702526928
 10
375.6412769579256
 20
-228.4832702526928
 10
401.2994935824718
 20
-228.4832702526928
 10
401.2994935824718
 20
-228.4832702526928
 10
402.808228269907
 20
-228.4832702526928
 10
404.0218804167198
 20
-228.7376852969464
 10
404.9433392121973
 20
-229.2469950179366
 10
405.8640275572106
 20
-229.7582682343436
 10
406.5596159483284
 20
-230.3965241451951
 10
407.029815466718
 20
-231.1656447756723
 10
407.5008175377843
 20
-231.9342857736538
 10
407.7743274645109
 20
-232.7648143478764
 10
407.8529455174466
 20
-233.653528335155
 10
407.931049936622
 20
-234.544955243553
 10
407.8802965101022
 20
-235.3776871293412
 10
407.6985664988861
 20
-236.1546767299005
 10
407.6985664988861
 20
-236.1546767299005
 10
406.7589379125347
 20
-240.1833196208081
 10
406.7589379125347
 20
-240.1833196208081
 97
        0
 97
        0
 75
     2
 76
     1
 98
        0
  0
ENDBLK
  5
4C
330
49
100
AcDbEntity
  8
0
100
AcDbBlockEnd
  0
BLOCK
  5
66
330
64
100
AcDbEntity
  8
0
100
AcDbBlockBegin
  2
block 5
 70
     0
 10
0.0
 20
0.0
 30
0.0
  3
block 5
  1

  0
SPLINE
  5
68
330
64
100
AcDbEntity
  8
Layer 1
370
     0
100
AcDbSpline
210
0.0
220
0.0
230
1.0
 70
    11
 71
     3
 72
   122
 73
   118
 74
     0
 42
0.0000000001
 43
0.0000000001
 12
1.0
 22
0.0
 32
0.0
 13
1.0
 23
0.0
 33
0.0
 40
0.0
 40
0.0
 40
0.0
 40
0.0
 40
1.0
 40
1.0
 40
1.0
 40
2.0
 40
2.0
 40
2.0
 40
3.0
 40
3.0
 40
3.0
 40
4.0
 40
4.0
 40
4.0
 40
5.0
 40
5.0
 40
5.0
 40
6.0
 40
6.0
 40
6.0
 40
7.0
 40
7.0
 40
7.0
 40
8.0
 40
8.0
 40
8.0
 40
9.0
 40
9.0
 40
9.0
 40
10.0
 40
10.0
 40
10.0
 40
11.0
 40
11.0
 40
11.0
 40
12.0
 40
12.0
 40
12.0
 40
13.0
 40
13.0
 40
13.0
 40
14.0
 40
14.0
 40
14.0
 40
15.0
 40
15.0
 40
15.0
 40
16.0
 40
16.0
 40
16.0
 40
17.0
 40
17.0
 40
17.0
 40
18.0
 40
18.0
 40
18.0
 40
19.0
 40
19.0
 40
19.0
 40
20.0
 40
20.0
 40
20.0
 40
21.0
 40
21.0
 40
21.0
 40
22.0
 40
22.0
 40
22.0
 40
23.0
 40
23.0
 40
23.0
 40
24.0
 40
24.0
 40
24.0
 40
25.0
 40
25.0
 40
25.0
 40
26.0
 40
26.0
 40
26.0
 40
27.0
 40
27.0
 40
27.0
 40
28.0
 40
28.0
 40
28.0
 40
29.0
 40
29.0
 40
29.0
 40
30.0
 40
30.0
 40
30.0
 40
31.0
 40
31.0
 40
31.0
 40
32.0
 40
32.0
 40
32.0
 40
33.0
 40
33.0
 40
33.0
 40
34.0
 40
34.0
 40
34.0
 40
35.0
 40
35.0
 40
35.0
 40
36.0
 40
36.0
 40
36.0
 40
37.0
 40
37.0
 40
37.0
 40
38.0
 40
38.0
 40
38.0
 40
39.0
 40
39.0
 40
39.0
 40
39.0
 10
458.7816903560997
 20
-252.5999339864502
 30
0.0
 10
458.4908292421205
 20
-253.8474280441387
 30
0.0
 10
458.060340026459
 20
-254.968478993891
 30
0.0
 10
457.4891472885975
 20
-255.9640161236039
 30
0.0
 10
456.9176977338902
 20
-256.9585939884928
 30
0.0
 10
456.2681277089468
 20
-257.8372506825508
 30
0.0
 10
455.5354613875461
 20
-258.597288273304
 30
0.0
 10
454.8025382493106
 20
-259.3583151059647
 30
0.0
 10
454.0017673141701
 20
-260.0041701936225
 30
0.0
 10
453.1323460294007
 20
-260.5397697689696
 30
0.0
 10
452.2626679277746
 20
-261.0746199185942
 30
0.0
 10
451.3887844505516
 20
-261.5105158958304
 30
0.0
 10
450.5117389161023
 20
-261.8498858400253
 30
0.0
 10
449.636282435793
 20
-262.190245026115
 30
0.0
 10
448.7663314663223
 20
-262.4414825053482
 30
0.0
 10
447.9061234854598
 20
-262.6023092654177
 30
0.0
 10
447.0440696335863
 20
-262.7646348768831
 30
0.0
 10
446.2501364465388
 20
-262.8456627859978
 30
0.0
 10
445.5232645549768
 20
-262.8456627859978
 30
0.0
 10
445.5232645549768
 20
-262.8456627859978
 30
0.0
 10
419.4463883401149
 20
-262.8456627859978
 30
0.0
 10
419.4463883401149
 20
-262.8456627859978
 30
0.0
 10
419.4463883401149
 20
-262.8456627859978
 30
0.0
 10
420.9198749173229
 20
-256.5329801321514
 30
0.0
 10
420.9198749173229
 20
-256.5329801321514
 30
0.0
 10
420.9198749173229
 20
-256.5329801321514
 30
0.0
 10
446.9959646306015
 20
-256.5329801321514
 30
0.0
 10
446.9959646306015
 20
-256.5329801321514
 30
0.0
 10
448.2956183142232
 20
-256.5329801321514
 30
0.0
 10
449.3890801833259
 20
-256.1773926153837
 30
0.0
 10
450.2740228353978
 20
-255.4654681560023
 30
0.0
 10
451.1594791211683
 20
-254.754532938603
 30
0.0
 10
451.7417149828434
 20
-253.7982956937612
 30
0.0
 10
452.0215329730199
 20
-252.601372883817
 30
0.0
 10
452.1577582516729
 20
-252.0201182934488
 30
0.0
 10
452.1872119321779
 20
-251.4840091086189
 30
0.0
 10
452.1098940144766
 20
-251.0
 30
0.0
 10
452.0310030937289
 20
-250.514012407466
 30
0.0
 10
451.8571702001318
 20
-250.0928651284612
 30
0.0
 10
451.5855061443472
 20
-249.7372776116554
 30
0.0
 10
451.3125259023254
 20
-249.381690094815
 30
0.0
 10
450.9430467354396
 20
-249.1059014289294
 30
0.0
 10
450.4773094094853
 20
-248.9111706492331
 30
0.0
 10
450.0107855819624
 20
-248.717429111457
 30
0.0
 10
449.4664141520516
 20
-248.6206632621434
 30
0.0
 10
448.8434086182097
 20
-248.6206632621434
 30
0.0
 10
448.8434086182097
 20
-248.6206632621434
 30
0.0
 10
433.2965201236111
 20
-248.6206632621434
 30
0.0
 10
433.2965201236111
 20
-248.6206632621434
 30
0.0
 10
432.2033150713432
 20
-248.6206632621434
 30
0.0
 10
431.0680241606387
 20
-248.4377134547667
 30
0.0
 10
429.8867148836762
 20
-248.0742719563932
 30
0.0
 10
428.7061921083332
 20
-247.7081325254221
 30
0.0
 10
427.6695349123765
 20
-247.1224413347663
 30
0.0
 10
426.775395007513
 20
-246.3152498775871
 30
0.0
 10
425.8807414689145
 20
-245.5046110620788
 30
0.0
 10
425.2269660682759
 20
-244.444743228285
 30
0.0
 10
424.8135551720297
 20
-243.1338777315104
 30
0.0
 10
424.4009468283257
 20
-241.8220229928011
 30
0.0
 10
424.4151359582975
 20
-240.2206501090095
 30
0.0
 10
424.8561546641358
 20
-238.3265515379626
 30
0.0
 10
425.2984895562331
 20
-236.4332023926381
 30
0.0
 10
426.0311558776048
 20
-234.8355166833644
 30
0.0
 10
427.0536239435387
 20
-233.5315159262354
 30
0.0
 10
428.0768785110304
 20
-232.2290140205514
 30
0.0
 10
429.224528731811
 20
-231.1686365772512
 30
0.0
 10
430.5002502968237
 20
-230.3526018965204
 30
0.0
 10
431.774912492423
 20
-229.5336144784706
 30
0.0
 10
433.0863958013942
 20
-228.9435166645872
 30
0.0
 10
434.4375894131044
 20
-228.5788311195083
 30
0.0
 10
435.7869371538254
 20
-228.2156294373581
 30
0.0
 10
437.008743235052
 20
-228.0331742509425
 30
0.0
 10
438.1001184674024
 20
-228.0331742509425
 30
0.0
 10
438.1001184674024
 20
-228.0331742509425
 30
0.0
 10
461.1088039828574
 20
-228.0331742509425
 30
0.0
 10
461.1088039828574
 20
-228.0331742509425
 30
0.0
 10
461.1088039828574
 20
-228.0331742509425
 30
0.0
 10
459.6350605888401
 20
-234.3450924905537
 30
0.0
 10
459.6350605888401
 20
-234.3450924905537
 30
0.0
 10
459.6350605888401
 20
-234.3450924905537
 30
0.0
 10
436.6279480764424
 20
-234.3450924905537
 30
0.0
 10
436.6279480764424
 20
-234.3450924905537
 30
0.0
 10
435.3440725770124
 20
-234.3450924905537
 30
0.0
 10
434.259278275993
 20
-234.7097630471471
 30
0.0
 10
433.3693597977726
 20
-235.4386245277983
 30
0.0
 10
432.480484637952
 20
-236.1657773178194
 30
0.0
 10
431.8956164037663
 20
-237.1281598536279
 30
0.0
 10
431.6160712814781
 20
-238.327270986636
 30
0.0
 10
431.3333641018617
 20
-239.5408910016504
 30
0.0
 10
431.4695893805147
 20
-240.5010852143423
 30
0.0
 10
432.0242174326595
 20
-241.2043762893354
 30
0.0
 10
432.5780589833303
 20
-241.907697341414
 30
0.0
 10
433.4971743251808
 20
-242.2603471094098
 30
0.0
 10
434.7799904552048
 20
-242.2603471094098
 30
0.0
 10
434.7799904552048
 20
-242.2603471094098
 30
0.0
 10
450.3268628987171
 20
-242.2603471094098
 30
0.0
 10
450.3268628987171
 20
-242.2603471094098
 30
0.0
 10
450.3268628987171
 20
-242.2603471094098
 30
0.0
 10
450.3789325115504
 20
-242.2603471094098
 30
0.0
 10
450.3789325115504
 20
-242.2603471094098
 30
0.0
 10
451.1034448984901
 20
-242.2765646820335
 30
0.0
 10
451.8524190887329
 20
-242.3713520474212
 30
0.0
 10
452.6284714037574
 20
-242.5393133403159
 30
0.0
 10
453.4029507157211
 20
-242.7092531171747
 30
0.0
 10
454.1516520380646
 20
-242.9722415917295
 30
0.0
 10
454.8743185540297
 20
-243.3268698435786
 30
0.0
 10
455.597257937894
 20
-243.6846756605464
 30
0.0
 10
456.2589144050471
 20
-244.1330720588376
 30
0.0
 10
456.8606041417952
 20
-244.677035225237
 30
0.0
 10
457.4623099295677
 20
-245.2180306658393
 30
0.0
 10
457.9561847497716
 20
-245.8697912281423
 30
0.0
 10
458.3417149686647
 20
-246.6293192093963
 30
0.0
 10
458.7272451875942
 20
-247.3910954677522
 30
0.0
 10
458.9702420644462
 20
-248.2660649872942
 30
0.0
 10
459.0688597281733
 20
-249.2529987097769
 30
0.0
 10
459.1674934429357
 20
-250.23852351188
 30
0.0
 10
459.0720217854287
 20
-251.3541486194135
 30
0.0
 10
458.7816903560997
 20
-252.5999339864502
 30
0.0
  0
HATCH
  5
69
330
64
100
AcDbEntity
  8
Layer 1
 62
   179
420
  2236962
100
AcDbHatch
 10
0.0
 20
0.0
 30
0.0
210
0.0
220
0.0
230
1.0
  2
SOLID
 70
     1
 71
     0
 91
        1
 92
        1
 93
        1
 72
     4
 94
        3
 73
     0
 74
     1
 95
      122
 96
      118
 40
0.0
 40
0.0
 40
0.0
 40
0.0
 40
1.0
 40
1.0
 40
1.0
 40
2.0
 40
2.0
 40
2.0
 40
3.0
 40
3.0
 40
3.0
 40
4.0
 40
4.0
 40
4.0
 40
5.0
 40
5.0
 40
5.0
 40
6.0
 40
6.0
 40
6.0
 40
7.0
 40
7.0
 40
7.0
 40
8.0
 40
8.0
 40
8.0
 40
9.0
 40
9.0
 40
9.0
 40
10.0
 40
10.0
 40
10.0
 40
11.0
 40
11.0
 40
11.0
 40
12.0
 40
12.0
 40
12.0
 40
13.0
 40
13.0
 40
13.0
 40
14.0
 40
14.0
 40
14.0
 40
15.0
 40
15.0
 40
15.0
 40
16.0
 40
16.0
 40
16.0
 40
17.0
 40
17.0
 40
17.0
 40
18.0
 40
18.0
 40
18.0
 40
19.0
 40
19.0
 40
19.0
 40
20.0
 40
20.0
 40
20.0
 40
21.0
 40
21.0
 40
21.0
 40
22.0
 40
22.0
 40
22.0
 40
23.0
 40
23.0
 40
23.0
 40
24.0
 40
24.0
 40
24.0
 40
25.0
 40
25.0
 40
25.0
 40
26.0
 40
26.0
 40
26.0
 40
27.0
 40
27.0
 40
27.0
 40
28.0
 40
28.0
 40
28.0
 40
29.0
 40
29.0
 40
29.0
 40
30.0
 40
30.0
 40
30.0
 40
31.0
 40
31.0
 40
31.0
 40
32.0
 40
32.0
 40
32.0
 40
33.0
 40
33.0
 40
33.0
 40
34.0
 40
34.0
 40
34.0
 40
35.0
 40
35.0
 40
35.0
 40
36.0
 40
36.0
 40
36.0
 40
37.0
 40
37.0
 40
37.0
 40
38.0
 40
38.0
 40
38.0
 40
39.0
 40
39.0
 40
39.0
 40
39.0
 10
458.7816903560997
 20
-252.5999339864502
 10
458.4908292421205
 20
-253.8474280441387
 10
458.060340026459
 20
-254.968478993891
 10
457.4891472885975
 20
-255.9640161236039
 10
456.9176977338902
 20
-256.9585939884928
 10
456.2681277089468
 20
-257.8372506825508
 10
455.5354613875461
 20
-258.597288273304
 10
454.8025382493106
 20
-259.3583151059647
 10
454.0017673141701
 20
-260.0041701936225
 10
453.1323460294007
 20
-260.5397697689696
 10
452.2626679277746
 20
-261.0746199185942
 10
451.3887844505516
 20
-261.5105158958304
 10
450.5117389161023
 20
-261.8498858400253
 10
449.636282435793
 20
-262.190245026115
 10
448.7663314663223
 20
-262.4414825053482
 10
447.9061234854598
 20
-262.6023092654177
 10
447.0440696335863
 20
-262.7646348768831
 10
446.2501364465388
 20
-262.8456627859978
 10
445.5232645549768
 20
-262.8456627859978
 10
445.5232645549768
 20
-262.8456627859978
 10
419.4463883401149
 20
-262.8456627859978
 10
419.4463883401149
 20
-262.8456627859978
 10
419.4463883401149
 20
-262.8456627859978
 10
420.9198749173229
 20
-256.5329801321514
 10
420.9198749173229
 20
-256.5329801321514
 10
420.9198749173229
 20
-256.5329801321514
 10
446.9959646306015
 20
-256.5329801321514
 10
446.9959646306015
 20
-256.5329801321514
 10
448.2956183142232
 20
-256.5329801321514
 10
449.3890801833259
 20
-256.1773926153837
 10
450.2740228353978
 20
-255.4654681560023
 10
451.1594791211683
 20
-254.754532938603
 10
451.7417149828434
 20
-253.7982956937612
 10
452.0215329730199
 20
-252.601372883817
 10
452.1577582516729
 20
-252.0201182934488
 10
452.1872119321779
 20
-251.4840091086189
 10
452.1098940144766
 20
-251.0
 10
452.0310030937289
 20
-250.514012407466
 10
451.8571702001318
 20
-250.0928651284612
 10
451.5855061443472
 20
-249.7372776116554
 10
451.3125259023254
 20
-249.381690094815
 10
450.9430467354396
 20
-249.1059014289294
 10
450.4773094094853
 20
-248.9111706492331
 10
450.0107855819624
 20
-248.717429111457
 10
449.4664141520516
 20
-248.6206632621434
 10
448.8434086182097
 20
-248.6206632621434
 10
448.8434086182097
 20
-248.6206632621434
 10
433.2965201236111
 20
-248.6206632621434
 10
433.2965201236111
 20
-248.6206632621434
 10
432.2033150713432
 20
-248.6206632621434
 10
431.0680241606387
 20
-248.4377134547667
 10
429.8867148836762
 20
-248.0742719563932
 10
428.7061921083332
 20
-247.7081325254221
 10
427.6695349123765
 20
-247.1224413347663
 10
426.775395007513
 20
-246.3152498775871
 10
425.8807414689145
 20
-245.5046110620788
 10
425.2269660682759
 20
-244.444743228285
 10
424.8135551720297
 20
-243.1338777315104
 10
424.4009468283257
 20
-241.8220229928011
 10
424.4151359582975
 20
-240.2206501090095
 10
424.8561546641358
 20
-238.3265515379626
 10
425.2984895562331
 20
-236.4332023926381
 10
426.0311558776048
 20
-234.8355166833644
 10
427.0536239435387
 20
-233.5315159262354
 10
428.0768785110304
 20
-232.2290140205514
 10
429.224528731811
 20
-231.1686365772512
 10
430.5002502968237
 20
-230.3526018965204
 10
431.774912492423
 20
-229.5336144784706
 10
433.0863958013942
 20
-228.9435166645872
 10
434.4375894131044
 20
-228.5788311195083
 10
435.7869371538254
 20
-228.2156294373581
 10
437.008743235052
 20
-228.0331742509425
 10
438.1001184674024
 20
-228.0331742509425
 10
438.1001184674024
 20
-228.0331742509425
 10
461.1088039828574
 20
-228.0331742509425
 10
461.1088039828574
 20
-228.0331742509425
 10
461.1088039828574
 20
-228.0331742509425
 10
459.6350605888401
 20
-234.3450924905537
 10
459.6350605888401
 20
-234.3450924905537
 10
459.6350605888401
 20
-234.3450924905537
 10
436.6279480764424
 20
-234.3450924905537
 10
436.6279480764424
 20
-234.3450924905537
 10
435.3440725770124
 20
-234.3450924905537
 10
434.259278275993
 20
-234.7097630471471
 10
433.3693597977726
 20
-235.4386245277983
 10
432.480484637952
 20
-236.1657773178194
 10
431.8956164037663
 20
-237.1281598536279
 10
431.6160712814781
 20
-238.327270986636
 10
431.3333641018617
 20
-239.5408910016504
 10
431.4695893805147
 20
-240.5010852143423
 10
432.0242174326595
 20
-241.2043762893354
 10
432.5780589833303
 20
-241.907697341414
 10
433.4971743251808
 20
-242.2603471094098
 10
434.7799904552048
 20
-242.2603471094098
 10
434.7799904552048
 20
-242.2603471094098
 10
450.3268628987171
 20
-242.2603471094098
 10
450.3268628987171
 20
-242.2603471094098
 10
450.3268628987171
 20
-242.2603471094098
 10
450.3789325115504
 20
-242.2603471094098
 10
450.3789325115504
 20
-242.2603471094098
 10
451.1034448984901
 20
-242.2765646820335
 10
451.8524190887329
 20
-242.3713520474212
 10
452.6284714037574
 20
-242.5393133403159
 10
453.4029507157211
 20
-242.7092531171747
 10
454.1516520380646
 20
-242.9722415917295
 10
454.8743185540297
 20
-243.3268698435786
 10
455.597257937894
 20
-243.6846756605464
 10
456.2589144050471
 20
-244.1330720588376
 10
456.8606041417952
 20
-244.677035225237
 10
457.4623099295677
 20
-245.2180306658393
 10
457.9561847497716
 20
-245.8697912281423
 10
458.3417149686647
 20
-246.6293192093963
 10
458.7272451875942
 20
-247.3910954677522
 10
458.9702420644462
 20
-248.2660649872942
 10
459.0688597281733
 20
-249.2529987097769
 10
459.1674934429357
 20
-250.23852351188
 10
459.0720217854287
 20
-251.3541486194135
 10
458.7816903560997
 20
-252.5999339864502
 97
        0
 97
        0
 75
     2
 76
     1
 98
        0
  0
SPLINE
  5
6A
330
64
100
AcDbEntity
  8
Layer 1
370
     0
100
AcDbSpline
210
0.0
220
0.0
230
1.0
 70
    11
 71
     3
 72
   101
 73
    97
 74
     0
 42
0.0000000001
 43
0.0000000001
 12
1.0
 22
0.0
 32
0.0
 13
1.0
 23
0.0
 33
0.0
 40
0.0
 40
0.0
 40
0.0
 40
0.0
 40
1.0
 40
1.0
 40
1.0
 40
2.0
 40
2.0
 40
2.0
 40
3.0
 40
3.0
 40
3.0
 40
4.0
 40
4.0
 40
4.0
 40
5.0
 40
5.0
 40
5.0
 40
6.0
 40
6.0
 40
6.0
 40
7.0
 40
7.0
 40
7.0
 40
8.0
 40
8.0
 40
8.0
 40
9.0
 40
9.0
 40
9.0
 40
10.0
 40
10.0
 40
10.0
 40
11.0
 40
11.0
 40
11.0
 40
12.0
 40
12.0
 40
12.0
 40
13.0
 40
13.0
 40
13.0
 40
14.0
 40
14.0
 40
14.0
 40
15.0
 40
15.0
 40
15.0
 40
16.0
 40
16.0
 40
16.0
 40
17.0
 40
17.0
 40
17.0
 40
18.0
 40
18.0
 40
18.0
 40
19.0
 40
19.0
 40
19.0
 40
20.0
 40
20.0
 40
20.0
 40
21.0
 40
21.0
 40
21.0
 40
22.0
 40
22.0
 40
22.0
 40
23.0
 40
23.0
 40
23.0
 40
24.0
 40
24.0
 40
24.0
 40
25.0
 40
25.0
 40
25.0
 40
26.0
 40
26.0
 40
26.0
 40
27.0
 40
27.0
 40
27.0
 40
28.0
 40
28.0
 40
28.0
 40
29.0
 40
29.0
 40
29.0
 40
30.0
 40
30.0
 40
30.0
 40
31.0
 40
31.0
 40
31.0
 40
32.0
 40
32.0
 40
32.0
 40
32.0
 10
501.0340757574195
 20
-239.6860697526208
 30
0.0
 10
500.6982556466719
 20
-241.1268257156134
 30
0.0
 10
500.203321457062
 20
-242.4131400256883
 30
0.0
 10
499.5485027380673
 20
-243.5449827058692
 30
0.0
 10
498.8942137037884
 20
-244.6773050185475
 30
0.0
 10
498.1454963303804
 20
-245.6787476229747
 30
0.0
 10
497.3018530352019
 20
-246.5441544702444
 30
0.0
 10
496.4592691094622
 20
-247.4095613175632
 30
0.0
 10
495.53567552409
 20
-248.1499339773363
 30
0.0
 10
494.5350368888649
 20
-248.7646129549194
 30
0.0
 10
493.5330820674462
 20
-249.3805209907205
 30
0.0
 10
492.5266490024878
 20
-249.8849144790129
 30
0.0
 10
491.5157537451014
 20
-250.2832192619699
 30
0.0
 10
490.5040719861317
 20
-250.6793357218503
 30
0.0
 10
489.5060496724182
 20
-250.9666355668342
 30
0.0
 10
488.5196162182838
 20
-251.1437098765655
 30
0.0
 10
487.5339692657108
 20
-251.3224928769123
 30
0.0
 10
486.6248376782205
 20
-251.4111349513478
 30
0.0
 10
485.7930400594487
 20
-251.4111349513478
 30
0.0
 10
485.7930400594487
 20
-251.4111349513478
 30
0.0
 10
483.0638315281285
 20
-251.4111349513478
 30
0.0
 10
483.0638315281285
 20
-251.4111349513478
 30
0.0
 10
483.0638315281285
 20
-251.4111349513478
 30
0.0
 10
480.3948465439862
 20
-262.8459325792574
 30
0.0
 10
480.3948465439862
 20
-262.8459325792574
 30
0.0
 10
480.3948465439862
 20
-262.8459325792574
 30
0.0
 10
473.5839196832421
 20
-262.8459325792574
 30
0.0
 10
473.5839196832421
 20
-262.8459325792574
 30
0.0
 10
473.5839196832421
 20
-262.8459325792574
 30
0.0
 10
476.2521181658412
 20
-251.4111349513478
 30
0.0
 10
476.2521181658412
 20
-251.4111349513478
 30
0.0
 10
476.2521181658412
 20
-251.4111349513478
 30
0.0
 10
473.5484147561656
 20
-251.4111349513478
 30
0.0
 10
473.5484147561656
 20
-251.4111349513478
 30
0.0
 10
472.7171307710378
 20
-251.4111349513478
 30
0.0
 10
471.8495553572757
 20
-251.3224928769123
 30
0.0
 10
470.9454316980155
 20
-251.1437098765655
 30
0.0
 10
470.042094540313
 20
-250.9666655438832
 30
0.0
 10
469.1734758081802
 20
-250.6793357218503
 30
0.0
 10
468.3390297658116
 20
-250.2832192619699
 30
0.0
 10
467.5035404050759
 20
-249.8849144790129
 30
0.0
 10
466.7332664687747
 20
-249.381480255628
 30
0.0
 10
466.0282240079177
 20
-248.7646129549194
 30
0.0
 10
465.3215924929609
 20
-248.1499339773363
 30
0.0
 10
464.7461943794297
 20
-247.409051708104
 30
0.0
 10
464.2972946070659
 20
-246.5441544702444
 30
0.0
 10
463.8496949699183
 20
-245.6782679905027
 30
0.0
 10
463.5635849673054
 20
-244.6746070859353
 30
0.0
 10
463.4402486834406
 20
-243.532722101063
 30
0.0
 10
463.3166555827884
 20
-242.3925458068152
 30
0.0
 10
463.421051625206
 20
-241.108449796915
 30
0.0
 10
463.7521366756191
 20
-239.6860997296571
 30
0.0
 10
463.7521366756191
 20
-239.6860997296571
 30
0.0
 10
466.471875086303
 20
-228.0322449630494
 30
0.0
 10
466.471875086303
 20
-228.0322449630494
 30
0.0
 10
466.471875086303
 20
-228.0322449630494
 30
0.0
 10
473.232578205163
 20
-228.0322449630494
 30
0.0
 10
473.232578205163
 20
-228.0322449630494
 30
0.0
 10
473.232578205163
 20
-228.0322449630494
 30
0.0
 10
470.5115236082238
 20
-239.6860997296571
 30
0.0
 10
470.5115236082238
 20
-239.6860997296571
 30
0.0
 10
470.3192801579789
 20
-240.5104980014403
 30
0.0
 10
470.2856211018734
 20
-241.2508706611661
 30
0.0
 10
470.4089573857236
 20
-241.906798030519
 30
0.0
 10
470.5338666726566
 20
-242.5612565254687
 30
0.0
 10
470.7929146015376
 20
-243.1253342782693
 30
0.0
 10
471.1857962022877
 20
-243.5946246657568
 30
0.0
 10
471.5786938541023
 20
-244.0643946855926
 30
0.0
 10
472.1062277304409
 20
-244.4229499282701
 30
0.0
 10
472.7670976960471
 20
-244.6743972466775
 30
0.0
 10
473.4274379769486
 20
-244.92488530019
 30
0.0
 10
474.2006011026169
 20
-245.0503691431677
 30
0.0
 10
475.0834250158296
 20
-245.0503691431677
 30
0.0
 10
475.0834250158296
 20
-245.0503691431677
 30
0.0
 10
487.2770400757327
 20
-245.0503691431677
 30
0.0
 10
487.2770400757327
 20
-245.0503691431677
 30
0.0
 10
487.9415857322711
 20
-244.9538730871409
 30
0.0
 10
488.6290201890042
 20
-244.8291086928439
 30
0.0
 10
489.3406435811448
 20
-244.6743972466775
 30
0.0
 10
490.0533263427205
 20
-244.5194459843224
 30
0.0
 10
490.7294448077519
 20
-244.2559479002939
 30
0.0
 10
491.3708448472644
 20
-243.8848922365742
 30
0.0
 10
492.0127745714635
 20
-243.5126075146745
 30
0.0
 10
492.5931806132103
 20
-242.9946943863561
 30
0.0
 10
493.1115172367172
 20
-242.3311528516933
 30
0.0
 10
493.6301106770479
 20
-241.669349984646
 30
0.0
 10
494.0182732685098
 20
-240.7864965064982
 30
0.0
 10
494.2746727737795
 20
-239.6860997296571
 30
0.0
 10
494.2746727737795
 20
-239.6860997296571
 30
0.0
 10
496.9933678660418
 20
-228.0322449630494
 30
0.0
 10
496.9933678660418
 20
-228.0322449630494
 30
0.0
 10
496.9933678660418
 20
-228.0322449630494
 30
0.0
 10
503.7530116154958
 20
-228.0322449630494
 30
0.0
 10
503.7530116154958
 20
-228.0322449630494
 30
0.0
 10
503.7530116154958
 20
-228.0322449630494
 30
0.0
 10
501.0340757574195
 20
-239.6860697526208
 30
0.0
 10
501.0340757574195
 20
-239.6860697526208
 30
0.0
  0
HATCH
  5
6B
330
64
100
AcDbEntity
  8
Layer 1
 62
   179
420
  2236962
100
AcDbHatch
 10
0.0
 20
0.0
 30
0.0
210
0.0
220
0.0
230
1.0
  2
SOLID
 70
     1
 71
     0
 91
        1
 92
        1
 93
        1
 72
     4
 94
        3
 73
     0
 74
     1
 95
      101
 96
       97
 40
0.0
 40
0.0
 40
0.0
 40
0.0
 40
1.0
 40
1.0
 40
1.0
 40
2.0
 40
2.0
 40
2.0
 40
3.0
 40
3.0
 40
3.0
 40
4.0
 40
4.0
 40
4.0
 40
5.0
 40
5.0
 40
5.0
 40
6.0
 40
6.0
 40
6.0
 40
7.0
 40
7.0
 40
7.0
 40
8.0
 40
8.0
 40
8.0
 40
9.0
 40
9.0
 40
9.0
 40
10.0
 40
10.0
 40
10.0
 40
11.0
 40
11.0
 40
11.0
 40
12.0
 40
12.0
 40
12.0
 40
13.0
 40
13.0
 40
13.0
 40
14.0
 40
14.0
 40
14.0
 40
15.0
 40
15.0
 40
15.0
 40
16.0
 40
16.0
 40
16.0
 40
17.0
 40
17.0
 40
17.0
 40
18.0
 40
18.0
 40
18.0
 40
19.0
 40
19.0
 40
19.0
 40
20.0
 40
20.0
 40
20.0
 40
21.0
 40
21.0
 40
21.0
 40
22.0
 40
22.0
 40
22.0
 40
23.0
 40
23.0
 40
23.0
 40
24.0
 40
24.0
 40
24.0
 40
25.0
 40
25.0
 40
25.0
 40
26.0
 40
26.0
 40
26.0
 40
27.0
 40
27.0
 40
27.0
 40
28.0
 40
28.0
 40
28.0
 40
29.0
 40
29.0
 40
29.0
 40
30.0
 40
30.0
 40
30.0
 40
31.0
 40
31.0
 40
31.0
 40
32.0
 40
32.0
 40
32.0
 40
32.0
 10
501.0340757574195
 20
-239.6860697526208
 10
500.6982556466719
 20
-241.1268257156134
 10
500.203321457062
 20
-242.4131400256883
 10
499.5485027380673
 20
-243.5449827058692
 10
498.8942137037884
 20
-244.6773050185475
 10
498.1454963303804
 20
-245.6787476229747
 10
497.3018530352019
 20
-246.5441544702444
 10
496.4592691094622
 20
-247.4095613175632
 10
495.53567552409
 20
-248.1499339773363
 10
494.5350368888649
 20
-248.7646129549194
 10
493.5330820674462
 20
-249.3805209907205
 10
492.5266490024878
 20
-249.8849144790129
 10
491.5157537451014
 20
-250.2832192619699
 10
490.5040719861317
 20
-250.6793357218503
 10
489.5060496724182
 20
-250.9666355668342
 10
488.5196162182838
 20
-251.1437098765655
 10
487.5339692657108
 20
-251.3224928769123
 10
486.6248376782205
 20
-251.4111349513478
 10
485.7930400594487
 20
-251.4111349513478
 10
485.7930400594487
 20
-251.4111349513478
 10
483.0638315281285
 20
-251.4111349513478
 10
483.0638315281285
 20
-251.4111349513478
 10
483.0638315281285
 20
-251.4111349513478
 10
480.3948465439862
 20
-262.8459325792574
 10
480.3948465439862
 20
-262.8459325792574
 10
480.3948465439862
 20
-262.8459325792574
 10
473.5839196832421
 20
-262.8459325792574
 10
473.5839196832421
 20
-262.8459325792574
 10
473.5839196832421
 20
-262.8459325792574
 10
476.2521181658412
 20
-251.4111349513478
 10
476.2521181658412
 20
-251.4111349513478
 10
476.2521181658412
 20
-251.4111349513478
 10
473.5484147561656
 20
-251.4111349513478
 10
473.5484147561656
 20
-251.4111349513478
 10
472.7171307710378
 20
-251.4111349513478
 10
471.8495553572757
 20
-251.3224928769123
 10
470.9454316980155
 20
-251.1437098765655
 10
470.042094540313
 20
-250.9666655438832
 10
469.1734758081802
 20
-250.6793357218503
 10
468.3390297658116
 20
-250.2832192619699
 10
467.5035404050759
 20
-249.8849144790129
 10
466.7332664687747
 20
-249.381480255628
 10
466.0282240079177
 20
-248.7646129549194
 10
465.3215924929609
 20
-248.1499339773363
 10
464.7461943794297
 20
-247.409051708104
 10
464.2972946070659
 20
-246.5441544702444
 10
463.8496949699183
 20
-245.6782679905027
 10
463.5635849673054
 20
-244.6746070859353
 10
463.4402486834406
 20
-243.532722101063
 10
463.3166555827884
 20
-242.3925458068152
 10
463.421051625206
 20
-241.108449796915
 10
463.7521366756191
 20
-239.6860997296571
 10
463.7521366756191
 20
-239.6860997296571
 10
466.471875086303
 20
-228.0322449630494
 10
466.471875086303
 20
-228.0322449630494
 10
466.471875086303
 20
-228.0322449630494
 10
473.232578205163
 20
-228.0322449630494
 10
473.232578205163
 20
-228.0322449630494
 10
473.232578205163
 20
-228.0322449630494
 10
470.5115236082238
 20
-239.6860997296571
 10
470.5115236082238
 20
-239.6860997296571
 10
470.3192801579789
 20
-240.5104980014403
 10
470.2856211018734
 20
-241.2508706611661
 10
470.4089573857236
 20
-241.906798030519
 10
470.5338666726566
 20
-242.5612565254687
 10
470.7929146015376
 20
-243.1253342782693
 10
471.1857962022877
 20
-243.5946246657568
 10
471.5786938541023
 20
-244.0643946855926
 10
472.1062277304409
 20
-244.4229499282701
 10
472.7670976960471
 20
-244.6743972466775
 10
473.4274379769486
 20
-244.92488530019
 10
474.2006011026169
 20
-245.0503691431677
 10
475.0834250158296
 20
-245.0503691431677
 10
475.0834250158296
 20
-245.0503691431677
 10
487.2770400757327
 20
-245.0503691431677
 10
487.2770400757327
 20
-245.0503691431677
 10
487.9415857322711
 20
-244.9538730871409
 10
488.6290201890042
 20
-244.8291086928439
 10
489.3406435811448
 20
-244.6743972466775
 10
490.0533263427205
 20
-244.5194459843224
 10
490.7294448077519
 20
-244.2559479002939
 10
491.3708448472644
 20
-243.8848922365742
 10
492.0127745714635
 20
-243.5126075146745
 10
492.5931806132103
 20
-242.9946943863561
 10
493.1115172367172
 20
-242.3311528516933
 10
493.6301106770479
 20
-241.669349984646
 10
494.0182732685098
 20
-240.7864965064982
 10
494.2746727737795
 20
-239.6860997296571
 10
494.2746727737795
 20
-239.6860997296571
 10
496.9933678660418
 20
-228.0322449630494
 10
496.9933678660418
 20
-228.0322449630494
 10
496.9933678660418
 20
-228.0322449630494
 10
503.7530116154958
 20
-228.0322449630494
 10
503.7530116154958
 20
-228.0322449630494
 10
503.7530116154958
 20
-228.0322449630494
 10
501.0340757574195
 20
-239.6860697526208
 10
501.0340757574195
 20
-239.6860697526208
 97
        0
 97
        0
 75
     2
 76
     1
 98
        0
  0
SPLINE
  5
6C
330
64
100
AcDbEntity
  8
Layer 1
370
     0
100
AcDbSpline
210
0.0
220
0.0
230
1.0
 70
    11
 71
     3
 72
   122
 73
   118
 74
     0
 42
0.0000000001
 43
0.0000000001
 12
1.0
 22
0.0
 32
0.0
 13
1.0
 23
0.0
 33
0.0
 40
0.0
 40
0.0
 40
0.0
 40
0.0
 40
1.0
 40
1.0
 40
1.0
 40
2.0
 40
2.0
 40
2.0
 40
3.0
 40
3.0
 40
3.0
 40
4.0
 40
4.0
 40
4.0
 40
5.0
 40
5.0
 40
5.0
 40
6.0
 40
6.0
 40
6.0
 40
7.0
 40
7.0
 40
7.0
 40
8.0
 40
8.0
 40
8.0
 40
9.0
 40
9.0
 40
9.0
 40
10.0
 40
10.0
 40
10.0
 40
11.0
 40
11.0
 40
11.0
 40
12.0
 40
12.0
 40
12.0
 40
13.0
 40
13.0
 40
13.0
 40
14.0
 40
14.0
 40
14.0
 40
15.0
 40
15.0
 40
15.0
 40
16.0
 40
16.0
 40
16.0
 40
17.0
 40
17.0
 40
17.0
 40
18.0
 40
18.0
 40
18.0
 40
19.0
 40
19.0
 40
19.0
 40
20.0
 40
20.0
 40
20.0
 40
21.0
 40
21.0
 40
21.0
 40
22.0
 40
22.0
 40
22.0
 40
23.0
 40
23.0
 40
23.0
 40
24.0
 40
24.0
 40
24.0
 40
25.0
 40
25.0
 40
25.0
 40
26.0
 40
26.0
 40
26.0
 40
27.0
 40
27.0
 40
27.0
 40
28.0
 40
28.0
 40
28.0
 40
29.0
 40
29.0
 40
29.0
 40
30.0
 40
30.0
 40
30.0
 40
31.0
 40
31.0
 40
31.0
 40
32.0
 40
32.0
 40
32.0
 40
33.0
 40
33.0
 40
33.0
 40
34.0
 40
34.0
 40
34.0
 40
35.0
 40
35.0
 40
35.0
 40
36.0
 40
36.0
 40
36.0
 40
37.0
 40
37.0
 40
37.0
 40
38.0
 40
38.0
 40
38.0
 40
39.0
 40
39.0
 40
39.0
 40
39.0
 10
539.6717802906132
 20
-252.5999339864502
 30
0.0
 10
539.3806463087312
 20
-253.8474280441387
 30
0.0
 10
538.9504139098426
 20
-254.968478993891
 30
0.0
 10
538.3802805414125
 20
-255.9640161236039
 30
0.0
 10
537.8098903561295
 20
-256.9590736209284
 30
0.0
 10
537.1584744602005
 20
-257.8372506825508
 30
0.0
 10
536.4266106914183
 20
-258.597288273304
 30
0.0
 10
535.6931739195461
 20
-259.3583151059647
 30
0.0
 10
534.8923869332757
 20
-260.0041701936225
 30
0.0
 10
534.0224520149131
 20
-260.5397697689696
 30
0.0
 10
533.1533035979992
 20
-261.0746199185942
 30
0.0
 10
532.2796769376619
 20
-261.5105158958304
 30
0.0
 10
531.4034339557802
 20
-261.8498858400253
 30
0.0
 10
530.527190973884
 20
-262.190245026115
 30
0.0
 10
529.6582993738702
 20
-262.4414825053482
 30
0.0
 10
528.79730489145
 20
-262.6023092654177
 30
0.0
 10
527.9349942227054
 20
-262.7646348768831
 30
0.0
 10
527.1407881678097
 20
-262.8456627859978
 30
0.0
 10
526.4133865915355
 20
-262.8456627859978
 30
0.0
 10
526.4133865915355
 20
-262.8456627859978
 30
0.0
 10
500.3367671934793
 20
-262.8456627859978
 30
0.0
 10
500.3367671934793
 20
-262.8456627859978
 30
0.0
 10
500.3367671934793
 20
-262.8456627859978
 30
0.0
 10
501.8097240859606
 20
-256.5329801321514
 30
0.0
 10
501.8097240859606
 20
-256.5329801321514
 30
0.0
 10
501.8097240859606
 20
-256.5329801321514
 30
0.0
 10
527.8868731687289
 20
-256.5329801321514
 30
0.0
 10
527.8868731687289
 20
-256.5329801321514
 30
0.0
 10
529.1865268523652
 20
-256.5329801321514
 30
0.0
 10
530.2794750877983
 20
-256.1773926153837
 30
0.0
 10
531.1638720040901
 20
-255.4654681560023
 30
0.0
 10
532.0485417882519
 20
-254.754532938603
 30
0.0
 10
532.631820968345
 20
-253.7982956937612
 30
0.0
 10
532.9116389584815
 20
-252.601372883817
 30
0.0
 10
533.0478642371745
 20
-252.0201182934488
 30
0.0
 10
533.0773179176467
 20
-251.4840091086189
 30
0.0
 10
533.0
 20
-251.0
 30
0.0
 10
532.9203225776873
 20
-250.514012407466
 30
0.0
 10
532.7464896841266
 20
-250.0928651284612
 30
0.0
 10
532.4748256283274
 20
-249.7372776116554
 30
0.0
 10
532.2023750710068
 20
-249.381690094815
 30
0.0
 10
531.8323662194125
 20
-249.1059014289294
 30
0.0
 10
531.3682018965701
 20
-248.9111706492331
 30
0.0
 10
530.9014052011407
 20
-248.717429111457
 30
0.0
 10
530.3565201375459
 20
-248.6206632621434
 30
0.0
 10
529.7335146037149
 20
-248.6206632621434
 30
0.0
 10
529.7335146037149
 20
-248.6206632621434
 30
0.0
 10
514.186882926002
 20
-248.6206632621434
 30
0.0
 10
514.186882926002
 20
-248.6206632621434
 30
0.0
 10
513.0939346905216
 20
-248.6206632621434
 30
0.0
 10
511.9586437797807
 20
-248.4377134547667
 30
0.0
 10
510.7781370554694
 20
-248.0742719563932
 30
0.0
 10
509.5976142800864
 20
-247.7081325254221
 30
0.0
 10
508.5601545315913
 20
-247.1224413347663
 30
0.0
 10
507.6660306776903
 20
-246.3152498775871
 30
0.0
 10
506.7708474544161
 20
-245.5046110620788
 30
0.0
 10
506.1165423690982
 20
-244.444743228285
 30
0.0
 10
505.7028746559517
 20
-243.1338777315104
 30
0.0
 10
505.2907799459208
 20
-241.8220229928011
 30
0.0
 10
505.3049851269752
 20
-240.2206501090095
 30
0.0
 10
505.7467903343495
 20
-238.3265515379626
 30
0.0
 10
506.1885955417602
 20
-236.4332023926381
 30
0.0
 10
506.9204753615595
 20
-234.8355166833644
 30
0.0
 10
507.9450461153174
 20
-233.5315159262354
 30
0.0
 10
508.9675141812404
 20
-232.2290140205514
 30
0.0
 10
510.1159509035933
 20
-231.1686365772512
 30
0.0
 10
511.3911427838939
 20
-230.3526018965204
 30
0.0
 10
512.6642319764032
 20
-229.5336144784706
 30
0.0
 10
513.9767586037342
 20
-228.9435166645872
 30
0.0
 10
515.3269088970119
 20
-228.5788311195083
 30
0.0
 10
516.6762566377329
 20
-228.2156294373581
 30
0.0
 10
517.8980627190067
 20
-228.0331742509425
 30
0.0
 10
518.9907541376015
 20
-228.0331742509425
 30
0.0
 10
518.9907541376015
 20
-228.0331742509425
 30
0.0
 10
541.9999532867441
 20
-228.0331742509425
 30
0.0
 10
541.9999532867441
 20
-228.0331742509425
 30
0.0
 10
541.9999532867441
 20
-228.0331742509425
 30
0.0
 10
540.5262098927269
 20
-234.3450924905537
 30
0.0
 10
540.5262098927269
 20
-234.3450924905537
 30
0.0
 10
540.5262098927269
 20
-234.3450924905537
 30
0.0
 10
517.5183108788406
 20
-234.3450924905537
 30
0.0
 10
517.5183108788406
 20
-234.3450924905537
 30
0.0
 10
516.2336488778164
 20
-234.3450924905537
 30
0.0
 10
515.1499139461885
 20
-234.7097630471471
 30
0.0
 10
514.2607659185087
 20
-235.4386245277983
 30
0.0
 10
513.3708474403029
 20
-236.1657773178194
 30
0.0
 10
512.7862360229301
 20
-237.1281598536279
 30
0.0
 10
512.5064180327354
 20
-238.327270986636
 30
0.0
 10
512.2234540363497
 20
-239.5408910016504
 30
0.0
 10
512.3594064470999
 20
-240.5010852143423
 30
0.0
 10
512.9137776824427
 20
-241.2043762893354
 30
0.0
 10
513.4686625514369
 20
-241.907697341414
 30
0.0
 10
514.3872642596252
 20
-242.2603471094098
 30
0.0
 10
515.6708668911779
 20
-242.2603471094098
 30
0.0
 10
515.6708668911779
 20
-242.2603471094098
 30
0.0
 10
531.2180122026002
 20
-242.2603471094098
 30
0.0
 10
531.2180122026002
 20
-242.2603471094098
 30
0.0
 10
531.2180122026002
 20
-242.2603471094098
 30
0.0
 10
531.2698249985733
 20
-242.2603471094098
 30
0.0
 10
531.2698249985733
 20
-242.2603471094098
 30
0.0
 10
531.9943373855385
 20
-242.2765646820335
 30
0.0
 10
532.7427818910728
 20
-242.3713520474212
 30
0.0
 10
533.5190910229867
 20
-242.5393133403159
 30
0.0
 10
534.2932974669857
 20
-242.7092531171747
 30
0.0
 10
535.0425284740777
 20
-242.9722415917295
 30
0.0
 10
535.7654678579129
 20
-243.3268698435786
 30
0.0
 10
536.4884072417663
 20
-243.6846756605464
 30
0.0
 10
537.1505773425815
 20
-244.1330720588376
 30
0.0
 10
537.7520102625058
 20
-244.677035225237
 30
0.0
 10
538.35344318239
 20
-245.2180306658393
 30
0.0
 10
538.8473340536439
 20
-245.8697912281423
 30
0.0
 10
539.2328482215598
 20
-246.6293192093963
 30
0.0
 10
539.6183623894067
 20
-247.3910954677522
 30
0.0
 10
539.8613753173086
 20
-248.2660649872942
 30
0.0
 10
539.9599929810247
 20
-249.2529987097769
 30
0.0
 10
540.0575833773801
 20
-250.23852351188
 30
0.0
 10
539.9623685367078
 20
-251.3541486194135
 30
0.0
 10
539.6717802906132
 20
-252.5999339864502
 30
0.0
  0
HATCH
  5
6D
330
64
100
AcDbEntity
  8
Layer 1
 62
   179
420
  2236962
100
AcDbHatch
 10
0.0
 20
0.0
 30
0.0
210
0.0
220
0.0
230
1.0
  2
SOLID
 70
     1
 71
     0
 91
        1
 92
        1
 93
        1
 72
     4
 94
        3
 73
     0
 74
     1
 95
      122
 96
      118
 40
0.0
 40
0.0
 40
0.0
 40
0.0
 40
1.0
 40
1.0
 40
1.0
 40
2.0
 40
2.0
 40
2.0
 40
3.0
 40
3.0
 40
3.0
 40
4.0
 40
4.0
 40
4.0
 40
5.0
 40
5.0
 40
5.0
 40
6.0
 40
6.0
 40
6.0
 40
7.0
 40
7.0
 40
7.0
 40
8.0
 40
8.0
 40
8.0
 40
9.0
 40
9.0
 40
9.0
 40
10.0
 40
10.0
 40
10.0
 40
11.0
 40
11.0
 40
11.0
 40
12.0
 40
12.0
 40
12.0
 40
13.0
 40
13.0
 40
13.0
 40
14.0
 40
14.0
 40
14.0
 40
15.0
 40
15.0
 40
15.0
 40
16.0
 40
16.0
 40
16.0
 40
17.0
 40
17.0
 40
17.0
 40
18.0
 40
18.0
 40
18.0
 40
19.0
 40
19.0
 40
19.0
 40
20.0
 40
20.0
 40
20.0
 40
21.0
 40
21.0
 40
21.0
 40
22.0
 40
22.0
 40
22.0
 40
23.0
 40
23.0
 40
23.0
 40
24.0
 40
24.0
 40
24.0
 40
25.0
 40
25.0
 40
25.0
 40
26.0
 40
26.0
 40
26.0
 40
27.0
 40
27.0
 40
27.0
 40
28.0
 40
28.0
 40
28.0
 40
29.0
 40
29.0
 40
29.0
 40
30.0
 40
30.0
 40
30.0
 40
31.0
 40
31.0
 40
31.0
 40
32.0
 40
32.0
 40
32.0
 40
33.0
 40
33.0
 40
33.0
 40
34.0
 40
34.0
 40
34.0
 40
35.0
 40
35.0
 40
35.0
 40
36.0
 40
36.0
 40
36.0
 40
37.0
 40
37.0
 40
37.0
 40
38.0
 40
38.0
 40
38.0
 40
39.0
 40
39.0
 40
39.0
 40
39.0
 10
539.6717802906132
 20
-252.5999339864502
 10
539.3806463087312
 20
-253.8474280441387
 10
538.9504139098426
 20
-254.968478993891
 10
538.3802805414125
 20
-255.9640161236039
 10
537.8098903561295
 20
-256.9590736209284
 10
537.1584744602005
 20
-257.8372506825508
 10
536.4266106914183
 20
-258.597288273304
 10
535.6931739195461
 20
-259.3583151059647
 10
534.8923869332757
 20
-260.0041701936225
 10
534.0224520149131
 20
-260.5397697689696
 10
533.1533035979992
 20
-261.0746199185942
 10
532.2796769376619
 20
-261.5105158958304
 10
531.4034339557802
 20
-261.8498858400253
 10
530.527190973884
 20
-262.190245026115
 10
529.6582993738702
 20
-262.4414825053482
 10
528.79730489145
 20
-262.6023092654177
 10
527.9349942227054
 20
-262.7646348768831
 10
527.1407881678097
 20
-262.8456627859978
 10
526.4133865915355
 20
-262.8456627859978
 10
526.4133865915355
 20
-262.8456627859978
 10
500.3367671934793
 20
-262.8456627859978
 10
500.3367671934793
 20
-262.8456627859978
 10
500.3367671934793
 20
-262.8456627859978
 10
501.8097240859606
 20
-256.5329801321514
 10
501.8097240859606
 20
-256.5329801321514
 10
501.8097240859606
 20
-256.5329801321514
 10
527.8868731687289
 20
-256.5329801321514
 10
527.8868731687289
 20
-256.5329801321514
 10
529.1865268523652
 20
-256.5329801321514
 10
530.2794750877983
 20
-256.1773926153837
 10
531.1638720040901
 20
-255.4654681560023
 10
532.0485417882519
 20
-254.754532938603
 10
532.631820968345
 20
-253.7982956937612
 10
532.9116389584815
 20
-252.601372883817
 10
533.0478642371745
 20
-252.0201182934488
 10
533.0773179176467
 20
-251.4840091086189
 10
533.0
 20
-251.0
 10
532.9203225776873
 20
-250.514012407466
 10
532.7464896841266
 20
-250.0928651284612
 10
532.4748256283274
 20
-249.7372776116554
 10
532.2023750710068
 20
-249.381690094815
 10
531.8323662194125
 20
-249.1059014289294
 10
531.3682018965701
 20
-248.9111706492331
 10
530.9014052011407
 20
-248.717429111457
 10
530.3565201375459
 20
-248.6206632621434
 10
529.7335146037149
 20
-248.6206632621434
 10
529.7335146037149
 20
-248.6206632621434
 10
514.186882926002
 20
-248.6206632621434
 10
514.186882926002
 20
-248.6206632621434
 10
513.0939346905216
 20
-248.6206632621434
 10
511.9586437797807
 20
-248.4377134547667
 10
510.7781370554694
 20
-248.0742719563932
 10
509.5976142800864
 20
-247.7081325254221
 10
508.5601545315913
 20
-247.1224413347663
 10
507.6660306776903
 20
-246.3152498775871
 10
506.7708474544161
 20
-245.5046110620788
 10
506.1165423690982
 20
-244.444743228285
 10
505.7028746559517
 20
-243.1338777315104
 10
505.2907799459208
 20
-241.8220229928011
 10
505.3049851269752
 20
-240.2206501090095
 10
505.7467903343495
 20
-238.3265515379626
 10
506.1885955417602
 20
-236.4332023926381
 10
506.9204753615595
 20
-234.8355166833644
 10
507.9450461153174
 20
-233.5315159262354
 10
508.9675141812404
 20
-232.2290140205514
 10
510.1159509035933
 20
-231.1686365772512
 10
511.3911427838939
 20
-230.3526018965204
 10
512.6642319764032
 20
-229.5336144784706
 10
513.9767586037342
 20
-228.9435166645872
 10
515.3269088970119
 20
-228.5788311195083
 10
516.6762566377329
 20
-228.2156294373581
 10
517.8980627190067
 20
-228.0331742509425
 10
518.9907541376015
 20
-228.0331742509425
 10
518.9907541376015
 20
-228.0331742509425
 10
541.9999532867441
 20
-228.0331742509425
 10
541.9999532867441
 20
-228.0331742509425
 10
541.9999532867441
 20
-228.0331742509425
 10
540.5262098927269
 20
-234.3450924905537
 10
540.5262098927269
 20
-234.3450924905537
 10
540.5262098927269
 20
-234.3450924905537
 10
517.5183108788406
 20
-234.3450924905537
 10
517.5183108788406
 20
-234.3450924905537
 10
516.2336488778164
 20
-234.3450924905537
 10
515.1499139461885
 20
-234.7097630471471
 10
514.2607659185087
 20
-235.4386245277983
 10
513.3708474403029
 20
-236.1657773178194
 10
512.7862360229301
 20
-237.1281598536279
 10
512.5064180327354
 20
-238.327270986636
 10
512.2234540363497
 20
-239.5408910016504
 10
512.3594064470999
 20
-240.5010852143423
 10
512.9137776824427
 20
-241.2043762893354
 10
513.4686625514369
 20
-241.907697341414
 10
514.3872642596252
 20
-242.2603471094098
 10
515.6708668911779
 20
-242.2603471094098
 10
515.6708668911779
 20
-242.2603471094098
 10
531.2180122026002
 20
-242.2603471094098
 10
531.2180122026002
 20
-242.2603471094098
 10
531.2180122026002
 20
-242.2603471094098
 10
531.2698249985733
 20
-242.2603471094098
 10
531.2698249985733
 20
-242.2603471094098
 10
531.9943373855385
 20
-242.2765646820335
 10
532.7427818910728
 20
-242.3713520474212
 10
533.5190910229867
 20
-242.5393133403159
 10
534.2932974669857
 20
-242.7092531171747
 10
535.0425284740777
 20
-242.9722415917295
 10
535.7654678579129
 20
-243.3268698435786
 10
536.4884072417663
 20
-243.6846756605464
 10
537.1505773425815
 20
-244.1330720588376
 10
537.7520102625058
 20
-244.677035225237
 10
538.35344318239
 20
-245.2180306658393
 10
538.8473340536439
 20
-245.8697912281423
 10
539.2328482215598
 20
-246.6293192093963
 10
539.6183623894067
 20
-247.3910954677522
 10
539.8613753173086
 20
-248.2660649872942
 10
539.9599929810247
 20
-249.2529987097769
 10
540.0575833773801
 20
-250.23852351188
 10
539.9623685367078
 20
-251.3541486194135
 10
539.6717802906132
 20
-252.5999339864502
 97
        0
 97
        0
 75
     2
 76
     1
 98
        0
  0
POLYLINE
  5
6E
330
64
100
AcDbEntity
  8
Layer 1
370
     0
100
AcDb2dPolyline
 66
     1
 10
0.0
 20
0.0
 30
0.0
  0
VERTEX
  5
6F
330
6E
100
AcDbEntity
  8
Layer 1
370
     0
100
AcDbVertex
100
AcDb2dVertex
 10
583.3029419734885
 20
-234.344133225648
 30
0.0
  0
VERTEX
  5
70
330
6E
100
AcDbEntity
  8
Layer 1
370
     0
100
AcDbVertex
100
AcDb2dVertex
 10
568.4061531885454
 20
-234.344133225648
 30
0.0
  0
VERTEX
  5
71
330
6E
100
AcDbEntity
  8
Layer 1
370
     0
100
AcDbVertex
100
AcDb2dVertex
 10
561.7556565929699
 20
-262.8454529468345
 30
0.0
  0
VERTEX
  5
72
330
6E
100
AcDbEntity
  8
Layer 1
370
     0
100
AcDbVertex
100
AcDb2dVertex
 10
554.9962696603543
 20
-262.8454529468345
 30
0.0
  0
VERTEX
  5
73
330
6E
100
AcDbEntity
  8
Layer 1
370
     0
100
AcDbVertex
100
AcDb2dVertex
 10
561.6475688085702
 20
-234.344133225648
 30
0.0
  0
VERTEX
  5
74
330
6E
100
AcDbEntity
  8
Layer 1
370
     0
100
AcDbVertex
100
AcDb2dVertex
 10
546.7252588509327
 20
-234.344133225648
 30
0.0
  0
VERTEX
  5
75
330
6E
100
AcDbEntity
  8
Layer 1
370
     0
100
AcDbVertex
100
AcDb2dVertex
 10
548.1971724250106
 20
-228.0321999974985
 30
0.0
  0
VERTEX
  5
76
330
6E
100
AcDbEntity
  8
Layer 1
370
     0
100
AcDbVertex
100
AcDb2dVertex
 10
584.7769742864402
 20
-228.0321999974985
 30
0.0
  0
VERTEX
  5
77
330
6E
100
AcDbEntity
  8
Layer 1
370
     0
100
AcDbVertex
100
AcDb2dVertex
 10
583.3029419734885
 20
-234.344133225648
 30
0.0
  0
SEQEND
  5
79
330
6E
100
AcDbEntity
  8
Layer 1
370
     0
  0
HATCH
  5
78
330
64
100
AcDbEntity
  8
Layer 1
 62
   179
420
  2236962
100
AcDbHatch
 10
0.0
 20
0.0
 30
0.0
210
0.0
220
0.0
230
1.0
  2
SOLID
 70
     1
 71
     0
 91
        1
 92
        1
 93
        8
 72
     1
 10
583.3029419734885
 20
-234.344133225648
 11
568.4061531885454
 21
-234.344133225648
 72
     1
 10
568.4061531885454
 20
-234.344133225648
 11
561.7556565929699
 21
-262.8454529468345
 72
     1
 10
561.7556565929699
 20
-262.8454529468345
 11
554.9962696603543
 21
-262.8454529468345
 72
     1
 10
554.9962696603543
 20
-262.8454529468345
 11
561.6475688085702
 21
-234.344133225648
 72
     1
 10
561.6475688085702
 20
-234.344133225648
 11
546.7252588509327
 21
-234.344133225648
 72
     1
 10
546.7252588509327
 20
-234.344133225648
 11
548.1971724250106
 21
-228.0321999974985
 72
     1
 10
548.1971724250106
 20
-228.0321999974985
 11
584.7769742864402
 21
-228.0321999974985
 72
     1
 10
584.7769742864402
 20
-228.0321999974985
 11
583.3029419734885
 21
-234.344133225648
 97
        0
 75
     2
 76
     1
 98
        0
  0
SPLINE
  5
7A
330
64
100
AcDbEntity
  8
Layer 1
370
     0
100
AcDbSpline
210
0.0
220
0.0
230
1.0
 70
    11
 71
     3
 72
    59
 73
    55
 74
     0
 42
0.0000000001
 43
0.0000000001
 12
1.0
 22
0.0
 32
0.0
 13
1.0
 23
0.0
 33
0.0
 40
0.0
 40
0.0
 40
0.0
 40
0.0
 40
1.0
 40
1.0
 40
1.0
 40
2.0
 40
2.0
 40
2.0
 40
3.0
 40
3.0
 40
3.0
 40
4.0
 40
4.0
 40
4.0
 40
5.0
 40
5.0
 40
5.0
 40
6.0
 40
6.0
 40
6.0
 40
7.0
 40
7.0
 40
7.0
 40
8.0
 40
8.0
 40
8.0
 40
9.0
 40
9.0
 40
9.0
 40
10.0
 40
10.0
 40
10.0
 40
11.0
 40
11.0
 40
11.0
 40
12.0
 40
12.0
 40
12.0
 40
13.0
 40
13.0
 40
13.0
 40
14.0
 40
14.0
 40
14.0
 40
15.0
 40
15.0
 40
15.0
 40
16.0
 40
16.0
 40
16.0
 40
17.0
 40
17.0
 40
17.0
 40
18.0
 40
18.0
 40
18.0
 40
18.0
 10
615.7214165397163
 20
-262.8451831535494
 30
0.0
 10
615.7214165397163
 20
-262.8451831535494
 30
0.0
 10
591.3357594229128
 20
-262.8451831535494
 30
0.0
 10
591.3357594229128
 20
-262.8451831535494
 30
0.0
 10
590.4003362121584
 20
-262.8451831535494
 30
0.0
 10
589.4123297549486
 20
-262.6912211330782
 30
0.0
 10
588.3751107722019
 20
-262.3837467476551
 30
0.0
 10
587.3389832609573
 20
-262.0765421555188
 30
0.0
 10
586.4295948566178
 20
-261.5706498158215
 30
0.0
 10
585.6485185622878
 20
-260.8656200731402
 30
0.0
 10
584.8682448205909
 20
-260.1625388372831
 30
0.0
 10
584.293103523898
 20
-259.2477898004145
 30
0.0
 10
583.9228378554762
 20
-258.1228418368701
 30
0.0
 10
583.5528290038746
 20
-256.9973842638919
 30
0.0
 10
583.5594099351656
 20
-255.618980520976
 30
0.0
 10
583.9402050937497
 20
-253.9842132269805
 30
0.0
 10
583.9402050937497
 20
-253.9842132269805
 30
0.0
 10
589.2540021776367
 20
-231.2115936596983
 30
0.0
 10
589.2540021776367
 20
-231.2115936596983
 30
0.0
 10
589.3573388506484
 20
-230.7749782337432
 30
0.0
 10
589.5396145976447
 20
-230.3626442012392
 30
0.0
 10
589.8038791183899
 20
-229.9748913323874
 30
0.0
 10
590.0679189244547
 20
-229.5839459100043
 30
0.0
 10
590.3847987938025
 20
-229.2452954145283
 30
0.0
 10
590.7574400179401
 20
-228.9542934064775
 30
0.0
 10
591.1274488695344
 20
-228.6630515822035
 30
0.0
 10
591.5400572132348
 20
-228.4376093363535
 30
0.0
 10
591.9947514154628
 20
-228.2755385296023
 30
0.0
 10
592.4476157976751
 20
-228.1129731019009
 30
0.0
 10
592.9167559466805
 20
-228.0319302042517
 30
0.0
 10
593.4027497003262
 20
-228.0319302042517
 30
0.0
 10
593.4027497003262
 20
-228.0319302042517
 30
0.0
 10
623.8464269797951
 20
-228.0319302042517
 30
0.0
 10
623.8464269797951
 20
-228.0319302042517
 30
0.0
 10
623.8464269797951
 20
-228.0319302042517
 30
0.0
 10
622.3726835857415
 20
-234.3438634323993
 30
0.0
 10
622.3726835857415
 20
-234.3438634323993
 30
0.0
 10
622.3726835857415
 20
-234.3438634323993
 30
0.0
 10
595.2833230593096
 20
-234.3438634323993
 30
0.0
 10
595.2833230593096
 20
-234.3438634323993
 30
0.0
 10
595.2833230593096
 20
-234.3438634323993
 30
0.0
 10
590.6998488432582
 20
-253.9844530432056
 30
0.0
 10
590.6998488432582
 20
-253.9844530432056
 30
0.0
 10
590.5078782608289
 20
-254.8088513149996
 30
0.0
 10
590.594650248182
 20
-255.4411867626113
 30
0.0
 10
590.9617699103983
 20
-255.8785516142143
 30
0.0
 10
591.3267708337808
 20
-256.3144475914996
 30
0.0
 10
591.9603058577632
 20
-256.5322606834543
 30
0.0
 10
592.8612835108652
 20
-256.5322606834543
 30
0.0
 10
592.8612835108652
 20
-256.5322606834543
 30
0.0
 10
617.1967008346983
 20
-256.5322606834543
 30
0.0
 10
617.1967008346983
 20
-256.5322606834543
 30
0.0
 10
617.1967008346983
 20
-256.5322606834543
 30
0.0
 10
615.7214165397163
 20
-262.8451831535494
 30
0.0
 10
615.7214165397163
 20
-262.8451831535494
 30
0.0
  0
POLYLINE
  5
7B
330
64
100
AcDbEntity
  8
Layer 1
370
     0
100
AcDb2dPolyline
 66
     1
 10
0.0
 20
0.0
 30
0.0
  0
VERTEX
  5
7C
330
7B
100
AcDbEntity
  8
Layer 1
370
     0
100
AcDbVertex
100
AcDb2dVertex
 10
616.0004480283205
 20
-248.6204534229673
 30
0.0
  0
VERTEX
  5
7D
330
7B
100
AcDbEntity
  8
Layer 1
370
     0
100
AcDbVertex
100
AcDb2dVertex
 10
594.656433170876
 20
-248.6204534229673
 30
0.0
  0
VERTEX
  5
7E
330
7B
100
AcDbEntity
  8
Layer 1
370
     0
100
AcDbVertex
100
AcDb2dVertex
 10
596.1399035024078
 20
-242.2594178214913
 30
0.0
  0
VERTEX
  5
7F
330
7B
100
AcDbEntity
  8
Layer 1
370
     0
100
AcDbVertex
100
AcDb2dVertex
 10
617.4847209125037
 20
-242.2594178214913
 30
0.0
  0
VERTEX
  5
80
330
7B
100
AcDbEntity
  8
Layer 1
370
     0
100
AcDbVertex
100
AcDb2dVertex
 10
616.0004480283205
 20
-248.6204534229673
 30
0.0
  0
SEQEND
  5
81
330
7B
100
AcDbEntity
  8
Layer 1
370
     0
  0
HATCH
  5
82
330
64
100
AcDbEntity
  8
Layer 1
 62
   179
420
  2236962
100
AcDbHatch
 10
0.0
 20
0.0
 30
0.0
210
0.0
220
0.0
230
1.0
  2
SOLID
 70
     1
 71
     0
 91
        2
 92
        1
 93
        1
 72
     4
 94
        3
 73
     0
 74
     1
 95
       59
 96
       55
 40
0.0
 40
0.0
 40
0.0
 40
0.0
 40
1.0
 40
1.0
 40
1.0
 40
2.0
 40
2.0
 40
2.0
 40
3.0
 40
3.0
 40
3.0
 40
4.0
 40
4.0
 40
4.0
 40
5.0
 40
5.0
 40
5.0
 40
6.0
 40
6.0
 40
6.0
 40
7.0
 40
7.0
 40
7.0
 40
8.0
 40
8.0
 40
8.0
 40
9.0
 40
9.0
 40
9.0
 40
10.0
 40
10.0
 40
10.0
 40
11.0
 40
11.0
 40
11.0
 40
12.0
 40
12.0
 40
12.0
 40
13.0
 40
13.0
 40
13.0
 40
14.0
 40
14.0
 40
14.0
 40
15.0
 40
15.0
 40
15.0
 40
16.0
 40
16.0
 40
16.0
 40
17.0
 40
17.0
 40
17.0
 40
18.0
 40
18.0
 40
18.0
 40
18.0
 10
615.7214165397163
 20
-262.8451831535494
 10
615.7214165397163
 20
-262.8451831535494
 10
591.3357594229128
 20
-262.8451831535494
 10
591.3357594229128
 20
-262.8451831535494
 10
590.4003362121584
 20
-262.8451831535494
 10
589.4123297549486
 20
-262.6912211330782
 10
588.3751107722019
 20
-262.3837467476551
 10
587.3389832609573
 20
-262.0765421555188
 10
586.4295948566178
 20
-261.5706498158215
 10
585.6485185622878
 20
-260.8656200731402
 10
584.8682448205909
 20
-260.1625388372831
 10
584.293103523898
 20
-259.2477898004145
 10
583.9228378554762
 20
-258.1228418368701
 10
583.5528290038746
 20
-256.9973842638919
 10
583.5594099351656
 20
-255.618980520976
 10
583.9402050937497
 20
-253.9842132269805
 10
583.9402050937497
 20
-253.9842132269805
 10
589.2540021776367
 20
-231.2115936596983
 10
589.2540021776367
 20
-231.2115936596983
 10
589.3573388506484
 20
-230.7749782337432
 10
589.5396145976447
 20
-230.3626442012392
 10
589.8038791183899
 20
-229.9748913323874
 10
590.0679189244547
 20
-229.5839459100043
 10
590.3847987938025
 20
-229.2452954145283
 10
590.7574400179401
 20
-228.9542934064775
 10
591.1274488695344
 20
-228.6630515822035
 10
591.5400572132348
 20
-228.4376093363535
 10
591.9947514154628
 20
-228.2755385296023
 10
592.4476157976751
 20
-228.1129731019009
 10
592.9167559466805
 20
-228.0319302042517
 10
593.4027497003262
 20
-228.0319302042517
 10
593.4027497003262
 20
-228.0319302042517
 10
623.8464269797951
 20
-228.0319302042517
 10
623.8464269797951
 20
-228.0319302042517
 10
623.8464269797951
 20
-228.0319302042517
 10
622.3726835857415
 20
-234.3438634323993
 10
622.3726835857415
 20
-234.3438634323993
 10
622.3726835857415
 20
-234.3438634323993
 10
595.2833230593096
 20
-234.3438634323993
 10
595.2833230593096
 20
-234.3438634323993
 10
595.2833230593096
 20
-234.3438634323993
 10
590.6998488432582
 20
-253.9844530432056
 10
590.6998488432582
 20
-253.9844530432056
 10
590.5078782608289
 20
-254.8088513149996
 10
590.594650248182
 20
-255.4411867626113
 10
590.9617699103983
 20
-255.8785516142143
 10
591.3267708337808
 20
-256.3144475914996
 10
591.9603058577632
 20
-256.5322606834543
 10
592.8612835108652
 20
-256.5322606834543
 10
592.8612835108652
 20
-256.5322606834543
 10
617.1967008346983
 20
-256.5322606834543
 10
617.1967008346983
 20
-256.5322606834543
 10
617.1967008346983
 20
-256.5322606834543
 10
615.7214165397163
 20
-262.8451831535494
 10
615.7214165397163
 20
-262.8451831535494
 97
        0
 97
        0
 92
        1
 93
        4
 72
     1
 10
616.0004480283205
 20
-248.6204534229673
 11
594.656433170876
 21
-248.6204534229673
 72
     1
 10
594.656433170876
 20
-248.6204534229673
 11
596.1399035024078
 21
-242.2594178214913
 72
     1
 10
596.1399035024078
 20
-242.2594178214913
 11
617.4847209125037
 21
-242.2594178214913
 72
     1
 10
617.4847209125037
 20
-242.2594178214913
 11
616.0004480283205
 21
-248.6204534229673
 97
        0
 75
     2
 76
     1
 98
        0
  0
SPLINE
  5
83
330
64
100
AcDbEntity
  8
Layer 1
370
     0
100
AcDbSpline
210
0.0
220
0.0
230
1.0
 70
    11
 71
     3
 72
    77
 73
    73
 74
     0
 42
0.0000000001
 43
0.0000000001
 12
1.0
 22
0.0
 32
0.0
 13
1.0
 23
0.0
 33
0.0
 40
0.0
 40
0.0
 40
0.0
 40
0.0
 40
1.0
 40
1.0
 40
1.0
 40
2.0
 40
2.0
 40
2.0
 40
3.0
 40
3.0
 40
3.0
 40
4.0
 40
4.0
 40
4.0
 40
5.0
 40
5.0
 40
5.0
 40
6.0
 40
6.0
 40
6.0
 40
7.0
 40
7.0
 40
7.0
 40
8.0
 40
8.0
 40
8.0
 40
9.0
 40
9.0
 40
9.0
 40
10.0
 40
10.0
 40
10.0
 40
11.0
 40
11.0
 40
11.0
 40
12.0
 40
12.0
 40
12.0
 40
13.0
 40
13.0
 40
13.0
 40
14.0
 40
14.0
 40
14.0
 40
15.0
 40
15.0
 40
15.0
 40
16.0
 40
16.0
 40
16.0
 40
17.0
 40
17.0
 40
17.0
 40
18.0
 40
18.0
 40
18.0
 40
19.0
 40
19.0
 40
19.0
 40
20.0
 40
20.0
 40
20.0
 40
21.0
 40
21.0
 40
21.0
 40
22.0
 40
22.0
 40
22.0
 40
23.0
 40
23.0
 40
23.0
 40
24.0
 40
24.0
 40
24.0
 40
24.0
 10
664.3578740861994
 20
-262.8451831535494
 30
0.0
 10
664.3578740861994
 20
-262.8451831535494
 30
0.0
 10
657.5464175408233
 20
-262.8451831535494
 30
0.0
 10
657.5464175408233
 20
-262.8451831535494
 30
0.0
 10
657.5464175408233
 20
-262.8451831535494
 30
0.0
 10
662.3842046253812
 20
-242.1118109311956
 30
0.0
 10
662.3842046253812
 20
-242.1118109311956
 30
0.0
 10
662.3842046253812
 20
-242.1118109311956
 30
0.0
 10
645.8045914425784
 20
-261.8015029153794
 30
0.0
 10
645.8045914425784
 20
-261.8015029153794
 30
0.0
 10
645.392496732562
 20
-262.3031984710506
 30
0.0
 10
644.8931164015266
 20
-262.6843264164763
 30
0.0
 10
644.3037538727112
 20
-262.9424286353351
 30
0.0
 10
643.7136208934571
 20
-263.2007706703534
 30
0.0
 10
643.1156228987056
 20
-263.329941687889
 30
0.0
 10
642.5099525010628
 20
-263.329941687889
 30
0.0
 10
641.9190490712936
 20
-263.329941687889
 30
0.0
 10
641.4006963967513
 20
-263.2007706703534
 30
0.0
 10
640.9494371197143
 20
-262.9424286353351
 30
0.0
 10
640.4971184732458
 20
-262.6840866002531
 30
0.0
 10
640.1828388743197
 20
-262.3029586548037
 30
0.0
 10
640.0058599745498
 20
-261.8015029153794
 30
0.0
 10
640.0058599745498
 20
-261.8015029153794
 30
0.0
 10
632.5653626996937
 20
-242.1118109311956
 30
0.0
 10
632.5653626996937
 20
-242.1118109311956
 30
0.0
 10
632.5653626996937
 20
-242.1118109311956
 30
0.0
 10
627.726516245697
 20
-262.8451831535494
 30
0.0
 10
627.726516245697
 20
-262.8451831535494
 30
0.0
 10
627.726516245697
 20
-262.8451831535494
 30
0.0
 10
620.9671293130668
 20
-262.8451831535494
 30
0.0
 10
620.9671293130668
 20
-262.8451831535494
 30
0.0
 10
620.9671293130668
 20
-262.8451831535494
 30
0.0
 10
628.4618149395901
 20
-230.7256060671407
 30
0.0
 10
628.4618149395901
 20
-230.7256060671407
 30
0.0
 10
628.6325018269417
 20
-229.9979736446348
 30
0.0
 10
629.0124944329364
 20
-229.3496604406264
 30
0.0
 10
629.6047140490009
 20
-228.7836191924598
 30
0.0
 10
630.195617478741
 20
-228.2170833232612
 30
0.0
 10
630.8872573111075
 20
-227.8364499988202
 30
0.0
 10
631.6783173598378
 20
-227.6417042305366
 30
0.0
 10
632.0606855214974
 20
-227.560916137696
 30
0.0
 10
632.4314969256629
 20
-227.5338918461093
 30
0.0
 10
632.7894032840522
 20
-227.5584580212726
 30
0.0
 10
633.1481121950419
 20
-227.5813005173222
 30
0.0
 10
633.4818456690446
 20
-227.6549690658267
 30
0.0
 10
633.7921446070395
 20
-227.7760312970549
 30
0.0
 10
634.1014162777283
 20
-227.8978279654675
 30
0.0
 10
634.369661459441
 20
-228.0672731213526
 30
0.0
 10
634.5963344163174
 20
-228.2855958228083
 30
0.0
 10
634.8219801058985
 20
-228.5041583405091
 30
0.0
 10
634.9950104468626
 20
-228.7676564245739
 30
0.0
 10
635.1133388024609
 20
-229.0738867632535
 30
0.0
 10
635.1133388024609
 20
-229.0738867632535
 30
0.0
 10
644.6750468085447
 20
-254.0559182801226
 30
0.0
 10
644.6750468085447
 20
-254.0559182801226
 30
0.0
 10
644.6750468085447
 20
-254.0559182801226
 30
0.0
 10
665.89572538211
 20
-229.0739017517917
 30
0.0
 10
665.89572538211
 20
-229.0739017517917
 30
0.0
 10
666.4379941241823
 20
-228.4609614418368
 30
0.0
 10
667.0896668369751
 20
-228.022847164526
 30
0.0
 10
667.8517707877727
 20
-227.763770692236
 30
0.0
 10
668.6138747386285
 20
-227.5054286571667
 30
0.0
 10
669.3546949944357
 20
-227.4641802654187
 30
0.0
 10
670.0776343782964
 20
-227.6417192190729
 30
0.0
 10
670.7603177236051
 20
-227.8364649873074
 30
0.0
 10
671.2683977248162
 20
-228.2173381279972
 30
0.0
 10
671.6047635714058
 20
-228.7836341809616
 30
0.0
 10
671.9403268653368
 20
-229.3499302338751
 30
0.0
 10
672.0242096632755
 20
-229.9979886331475
 30
0.0
 10
671.853554877991
 20
-230.7256060671407
 30
0.0
 10
671.853554877991
 20
-230.7256060671407
 30
0.0
 10
664.3578740861994
 20
-262.8451831535494
 30
0.0
 10
664.3578740861994
 20
-262.8451831535494
 30
0.0
  0
HATCH
  5
84
330
64
100
AcDbEntity
  8
Layer 1
 62
   179
420
  2236962
100
AcDbHatch
 10
0.0
 20
0.0
 30
0.0
210
0.0
220
0.0
230
1.0
  2
SOLID
 70
     1
 71
     0
 91
        1
 92
        1
 93
        1
 72
     4
 94
        3
 73
     0
 74
     1
 95
       77
 96
       73
 40
0.0
 40
0.0
 40
0.0
 40
0.0
 40
1.0
 40
1.0
 40
1.0
 40
2.0
 40
2.0
 40
2.0
 40
3.0
 40
3.0
 40
3.0
 40
4.0
 40
4.0
 40
4.0
 40
5.0
 40
5.0
 40
5.0
 40
6.0
 40
6.0
 40
6.0
 40
7.0
 40
7.0
 40
7.0
 40
8.0
 40
8.0
 40
8.0
 40
9.0
 40
9.0
 40
9.0
 40
10.0
 40
10.0
 40
10.0
 40
11.0
 40
11.0
 40
11.0
 40
12.0
 40
12.0
 40
12.0
 40
13.0
 40
13.0
 40
13.0
 40
14.0
 40
14.0
 40
14.0
 40
15.0
 40
15.0
 40
15.0
 40
16.0
 40
16.0
 40
16.0
 40
17.0
 40
17.0
 40
17.0
 40
18.0
 40
18.0
 40
18.0
 40
19.0
 40
19.0
 40
19.0
 40
20.0
 40
20.0
 40
20.0
 40
21.0
 40
21.0
 40
21.0
 40
22.0
 40
22.0
 40
22.0
 40
23.0
 40
23.0
 40
23.0
 40
24.0
 40
24.0
 40
24.0
 40
24.0
 10
664.3578740861994
 20
-262.8451831535494
 10
664.3578740861994
 20
-262.8451831535494
 10
657.5464175408233
 20
-262.8451831535494
 10
657.5464175408233
 20
-262.8451831535494
 10
657.5464175408233
 20
-262.8451831535494
 10
662.3842046253812
 20
-242.1118109311956
 10
662.3842046253812
 20
-242.1118109311956
 10
662.3842046253812
 20
-242.1118109311956
 10
645.8045914425784
 20
-261.8015029153794
 10
645.8045914425784
 20
-261.8015029153794
 10
645.392496732562
 20
-262.3031984710506
 10
644.8931164015266
 20
-262.6843264164763
 10
644.3037538727112
 20
-262.9424286353351
 10
643.7136208934571
 20
-263.2007706703534
 10
643.1156228987056
 20
-263.329941687889
 10
642.5099525010628
 20
-263.329941687889
 10
641.9190490712936
 20
-263.329941687889
 10
641.4006963967513
 20
-263.2007706703534
 10
640.9494371197143
 20
-262.9424286353351
 10
640.4971184732458
 20
-262.6840866002531
 10
640.1828388743197
 20
-262.3029586548037
 10
640.0058599745498
 20
-261.8015029153794
 10
640.0058599745498
 20
-261.8015029153794
 10
632.5653626996937
 20
-242.1118109311956
 10
632.5653626996937
 20
-242.1118109311956
 10
632.5653626996937
 20
-242.1118109311956
 10
627.726516245697
 20
-262.8451831535494
 10
627.726516245697
 20
-262.8451831535494
 10
627.726516245697
 20
-262.8451831535494
 10
620.9671293130668
 20
-262.8451831535494
 10
620.9671293130668
 20
-262.8451831535494
 10
620.9671293130668
 20
-262.8451831535494
 10
628.4618149395901
 20
-230.7256060671407
 10
628.4618149395901
 20
-230.7256060671407
 10
628.6325018269417
 20
-229.9979736446348
 10
629.0124944329364
 20
-229.3496604406264
 10
629.6047140490009
 20
-228.7836191924598
 10
630.195617478741
 20
-228.2170833232612
 10
630.8872573111075
 20
-227.8364499988202
 10
631.6783173598378
 20
-227.6417042305366
 10
632.0606855214974
 20
-227.560916137696
 10
632.4314969256629
 20
-227.5338918461093
 10
632.7894032840522
 20
-227.5584580212726
 10
633.1481121950419
 20
-227.5813005173222
 10
633.4818456690446
 20
-227.6549690658267
 10
633.7921446070395
 20
-227.7760312970549
 10
634.1014162777283
 20
-227.8978279654675
 10
634.369661459441
 20
-228.0672731213526
 10
634.5963344163174
 20
-228.2855958228083
 10
634.8219801058985
 20
-228.5041583405091
 10
634.9950104468626
 20
-228.7676564245739
 10
635.1133388024609
 20
-229.0738867632535
 10
635.1133388024609
 20
-229.0738867632535
 10
644.6750468085447
 20
-254.0559182801226
 10
644.6750468085447
 20
-254.0559182801226
 10
644.6750468085447
 20
-254.0559182801226
 10
665.89572538211
 20
-229.0739017517917
 10
665.89572538211
 20
-229.0739017517917
 10
666.4379941241823
 20
-228.4609614418368
 10
667.0896668369751
 20
-228.022847164526
 10
667.8517707877727
 20
-227.763770692236
 10
668.6138747386285
 20
-227.5054286571667
 10
669.3546949944357
 20
-227.4641802654187
 10
670.0776343782964
 20
-227.6417192190729
 10
670.7603177236051
 20
-227.8364649873074
 10
671.2683977248162
 20
-228.2173381279972
 10
671.6047635714058
 20
-228.7836341809616
 10
671.9403268653368
 20
-229.3499302338751
 10
672.0242096632755
 20
-229.9979886331475
 10
671.853554877991
 20
-230.7256060671407
 10
671.853554877991
 20
-230.7256060671407
 10
664.3578740861994
 20
-262.8451831535494
 10
664.3578740861994
 20
-262.8451831535494
 97
        0
 97
        0
 75
     2
 76
     1
 98
        0
  0
SPLINE
  5
85
330
64
100
AcDbEntity
  8
Layer 1
370
     0
100
AcDbSpline
210
0.0
220
0.0
230
1.0
 70
    11
 71
     3
 72
   122
 73
   118
 74
     0
 42
0.0000000001
 43
0.0000000001
 12
1.0
 22
0.0
 32
0.0
 13
1.0
 23
0.0
 33
0.0
 40
0.0
 40
0.0
 40
0.0
 40
0.0
 40
1.0
 40
1.0
 40
1.0
 40
2.0
 40
2.0
 40
2.0
 40
3.0
 40
3.0
 40
3.0
 40
4.0
 40
4.0
 40
4.0
 40
5.0
 40
5.0
 40
5.0
 40
6.0
 40
6.0
 40
6.0
 40
7.0
 40
7.0
 40
7.0
 40
8.0
 40
8.0
 40
8.0
 40
9.0
 40
9.0
 40
9.0
 40
10.0
 40
10.0
 40
10.0
 40
11.0
 40
11.0
 40
11.0
 40
12.0
 40
12.0
 40
12.0
 40
13.0
 40
13.0
 40
13.0
 40
14.0
 40
14.0
 40
14.0
 40
15.0
 40
15.0
 40
15.0
 40
16.0
 40
16.0
 40
16.0
 40
17.0
 40
17.0
 40
17.0
 40
18.0
 40
18.0
 40
18.0
 40
19.0
 40
19.0
 40
19.0
 40
20.0
 40
20.0
 40
20.0
 40
21.0
 40
21.0
 40
21.0
 40
22.0
 40
22.0
 40
22.0
 40
23.0
 40
23.0
 40
23.0
 40
24.0
 40
24.0
 40
24.0
 40
25.0
 40
25.0
 40
25.0
 40
26.0
 40
26.0
 40
26.0
 40
27.0
 40
27.0
 40
27.0
 40
28.0
 40
28.0
 40
28.0
 40
29.0
 40
29.0
 40
29.0
 40
30.0
 40
30.0
 40
30.0
 40
31.0
 40
31.0
 40
31.0
 40
32.0
 40
32.0
 40
32.0
 40
33.0
 40
33.0
 40
33.0
 40
34.0
 40
34.0
 40
34.0
 40
35.0
 40
35.0
 40
35.0
 40
36.0
 40
36.0
 40
36.0
 40
37.0
 40
37.0
 40
37.0
 40
38.0
 40
38.0
 40
38.0
 40
39.0
 40
39.0
 40
39.0
 40
39.0
 10
710.2853955801402
 20
-252.5999339864502
 30
0.0
 10
709.9934911477649
 20
-253.8474280441387
 30
0.0
 10
709.5635155657401
 20
-254.968478993891
 30
0.0
 10
708.9938958309867
 20
-255.9640161236039
 30
0.0
 10
708.4227030930888
 20
-256.9590736209284
 30
0.0
 10
707.7715761160653
 20
-257.8372506825508
 30
0.0
 10
707.0402259810071
 20
-258.597288273304
 30
0.0
 10
706.3067892091312
 20
-259.3583151059647
 30
0.0
 10
705.5057454060225
 20
-260.0041701936225
 30
0.0
 10
704.6368377549334
 20
-260.5397697689696
 30
0.0
 10
703.7658434670957
 20
-261.0746199185942
 30
0.0
 10
702.8922168067111
 20
-261.5105158958304
 30
0.0
 10
702.0167603263981
 20
-261.8498858400253
 30
0.0
 10
701.1397308429587
 20
-262.190245026115
 30
0.0
 10
700.2716257444736
 20
-262.4414825053482
 30
0.0
 10
699.4098447605465
 20
-262.6023092654177
 30
0.0
 10
698.5485774101799
 20
-262.7646348768831
 30
0.0
 10
697.7541145384748
 20
-262.8456627859978
 30
0.0
 10
697.0261993285203
 20
-262.8456627859978
 30
0.0
 10
697.0261993285203
 20
-262.8456627859978
 30
0.0
 10
670.9495959815213
 20
-262.8456627859978
 30
0.0
 10
670.9495959815213
 20
-262.8456627859978
 30
0.0
 10
670.9495959815213
 20
-262.8456627859978
 30
0.0
 10
672.4228257418617
 20
-256.5329801321514
 30
0.0
 10
672.4228257418617
 20
-256.5329801321514
 30
0.0
 10
672.4228257418617
 20
-256.5329801321514
 30
0.0
 10
698.4994290888862
 20
-256.5329801321514
 30
0.0
 10
698.4994290888862
 20
-256.5329801321514
 30
0.0
 10
699.7990827724752
 20
-256.5329801321514
 30
0.0
 10
700.8922878247286
 20
-256.1773926153837
 30
0.0
 10
701.7774712426144
 20
-255.4654681560023
 30
0.0
 10
702.6634572130824
 20
-254.754532938603
 30
0.0
 10
703.2446337052643
 20
-253.7982956937612
 30
0.0
 10
703.5247245633691
 20
-252.601372883817
 30
0.0
 10
703.660933790994
 20
-252.0201182934488
 30
0.0
 10
703.6896009699194
 20
-251.4840091086189
 30
0.0
 10
703.61255592011
 20
-251.0
 30
0.0
 10
703.5352540534732
 20
-250.514012407466
 30
0.0
 10
703.3606186073121
 20
-250.0928651284612
 30
0.0
 10
703.0879112331677
 20
-249.7372776116554
 30
0.0
 10
702.8167768621388
 20
-249.381690094815
 30
0.0
 10
702.4465111936915
 20
-249.1059014289294
 30
0.0
 10
701.981287501374
 20
-248.9111706492331
 30
0.0
 10
701.515293358585
 20
-248.717429111457
 30
0.0
 10
700.9711947965588
 20
-248.6206632621434
 30
0.0
 10
700.3468730764471
 20
-248.6206632621434
 30
0.0
 10
700.3468730764471
 20
-248.6206632621434
 30
0.0
 10
684.7999845818777
 20
-248.6206632621434
 30
0.0
 10
684.7999845818777
 20
-248.6206632621434
 30
0.0
 10
683.7078388989976
 20
-248.6206632621434
 30
0.0
 10
682.5712318020414
 20
-248.4377134547667
 30
0.0
 10
681.3904522098019
 20
-248.0742719563932
 30
0.0
 10
680.2115024375307
 20
-247.7081325254221
 30
0.0
 10
679.1732561874487
 20
-247.1224413347663
 30
0.0
 10
678.2788594657177
 20
-246.3152498775871
 30
0.0
 10
677.3844627440194
 20
-245.5046110620788
 30
0.0
 10
676.7296440249957
 20
-244.444743228285
 30
0.0
 10
676.3162331286876
 20
-243.1338777315104
 30
0.0
 10
675.9043952354441
 20
-241.8220229928011
 30
0.0
 10
675.9183596507355
 20
-240.2206501090095
 30
0.0
 10
676.3606624407184
 20
-238.3265515379626
 30
0.0
 10
676.8027405159919
 20
-236.4332023926381
 30
0.0
 10
677.5346042847596
 20
-234.8355166833644
 30
0.0
 10
678.5578588522658
 20
-233.5315159262354
 30
0.0
 10
679.5811134197647
 20
-232.2290140205514
 30
0.0
 10
680.7287636405745
 20
-231.1686365772512
 30
0.0
 10
682.0039555208241
 20
-230.3526018965204
 30
0.0
 10
683.2783448485679
 20
-229.5336144784706
 30
0.0
 10
684.5911603948407
 20
-228.9435166645872
 30
0.0
 10
685.9410217691984
 20
-228.5788311195083
 30
0.0
 10
687.2906263267469
 20
-228.2156294373581
 30
0.0
 10
688.5116619575128
 20
-228.0331742509425
 30
0.0
 10
689.6048670098171
 20
-228.0331742509425
 30
0.0
 10
689.6048670098171
 20
-228.0331742509425
 30
0.0
 10
712.6125980862053
 20
-228.0331742509425
 30
0.0
 10
712.6125980862053
 20
-228.0331742509425
 30
0.0
 10
712.6125980862053
 20
-228.0331742509425
 30
0.0
 10
711.140595632809
 20
-234.3450924905537
 30
0.0
 10
711.140595632809
 20
-234.3450924905537
 30
0.0
 10
711.140595632809
 20
-234.3450924905537
 30
0.0
 10
688.1319261683639
 20
-234.3450924905537
 30
0.0
 10
688.1319261683639
 20
-234.3450924905537
 30
0.0
 10
686.8485803536205
 20
-234.3450924905537
 30
0.0
 10
685.762983500008
 20
-234.7097630471471
 30
0.0
 10
684.875167709637
 20
-235.4386245277983
 30
0.0
 10
683.984719546701
 20
-236.1657773178194
 30
0.0
 10
683.4014243155834
 20
-237.1281598536279
 30
0.0
 10
683.1216223764422
 20
-238.327270986636
 30
0.0
 10
682.8386423289921
 20
-239.5408910016504
 30
0.0
 10
682.9730538387703
 20
-240.5010852143423
 30
0.0
 10
683.5287091582977
 20
-241.2043762893354
 30
0.0
 10
684.0833372104134
 20
-241.907697341414
 30
0.0
 10
685.0016499997073
 20
-242.2603471094098
 30
0.0
 10
686.2857983670292
 20
-242.2603471094098
 30
0.0
 10
686.2857983670292
 20
-242.2603471094098
 30
0.0
 10
701.8321411258621
 20
-242.2603471094098
 30
0.0
 10
701.8321411258621
 20
-242.2603471094098
 30
0.0
 10
701.8321411258621
 20
-242.2603471094098
 30
0.0
 10
701.8844675554828
 20
-242.2603471094098
 30
0.0
 10
701.8844675554828
 20
-242.2603471094098
 30
0.0
 10
702.6081773897822
 20
-242.2765646820335
 30
0.0
 10
703.3576973158524
 20
-242.3713520474212
 30
0.0
 10
704.1332199461795
 20
-242.5393133403159
 30
0.0
 10
704.907426390233
 20
-242.7092531171747
 30
0.0
 10
705.6558869468136
 20
-242.9722415917295
 30
0.0
 10
706.3795967811602
 20
-243.3268698435786
 30
0.0
 10
707.103306615496
 20
-243.6846756605464
 30
0.0
 10
707.7639358153283
 20
-244.1330720588376
 30
0.0
 10
708.3664281046549
 20
-244.677035225237
 30
0.0
 10
708.967604207719
 20
-245.2180306658393
 30
0.0
 10
709.4598899737794
 20
-245.8697912281423
 30
0.0
 10
709.8472660636799
 20
-246.6293192093963
 30
0.0
 10
710.2322665979118
 20
-247.3910954677522
 30
0.0
 10
710.4744769731478
 20
-248.2660649872942
 30
0.0
 10
710.573608270548
 20
-249.2529987097769
 30
0.0
 10
710.6727716700516
 20
-250.23852351188
 30
0.0
 10
710.5770431956698
 20
-251.3541486194135
 30
0.0
 10
710.2853955801402
 20
-252.5999339864502
 30
0.0
  0
HATCH
  5
86
330
64
100
AcDbEntity
  8
Layer 1
 62
   179
420
  2236962
100
AcDbHatch
 10
0.0
 20
0.0
 30
0.0
210
0.0
220
0.0
230
1.0
  2
SOLID
 70
     1
 71
     0
 91
        1
 92
        1
 93
        1
 72
     4
 94
        3
 73
     0
 74
     1
 95
      122
 96
      118
 40
0.0
 40
0.0
 40
0.0
 40
0.0
 40
1.0
 40
1.0
 40
1.0
 40
2.0
 40
2.0
 40
2.0
 40
3.0
 40
3.0
 40
3.0
 40
4.0
 40
4.0
 40
4.0
 40
5.0
 40
5.0
 40
5.0
 40
6.0
 40
6.0
 40
6.0
 40
7.0
 40
7.0
 40
7.0
 40
8.0
 40
8.0
 40
8.0
 40
9.0
 40
9.0
 40
9.0
 40
10.0
 40
10.0
 40
10.0
 40
11.0
 40
11.0
 40
11.0
 40
12.0
 40
12.0
 40
12.0
 40
13.0
 40
13.0
 40
13.0
 40
14.0
 40
14.0
 40
14.0
 40
15.0
 40
15.0
 40
15.0
 40
16.0
 40
16.0
 40
16.0
 40
17.0
 40
17.0
 40
17.0
 40
18.0
 40
18.0
 40
18.0
 40
19.0
 40
19.0
 40
19.0
 40
20.0
 40
20.0
 40
20.0
 40
21.0
 40
21.0
 40
21.0
 40
22.0
 40
22.0
 40
22.0
 40
23.0
 40
23.0
 40
23.0
 40
24.0
 40
24.0
 40
24.0
 40
25.0
 40
25.0
 40
25.0
 40
26.0
 40
26.0
 40
26.0
 40
27.0
 40
27.0
 40
27.0
 40
28.0
 40
28.0
 40
28.0
 40
29.0
 40
29.0
 40
29.0
 40
30.0
 40
30.0
 40
30.0
 40
31.0
 40
31.0
 40
31.0
 40
32.0
 40
32.0
 40
32.0
 40
33.0
 40
33.0
 40
33.0
 40
34.0
 40
34.0
 40
34.0
 40
35.0
 40
35.0
 40
35.0
 40
36.0
 40
36.0
 40
36.0
 40
37.0
 40
37.0
 40
37.0
 40
38.0
 40
38.0
 40
38.0
 40
39.0
 40
39.0
 40
39.0
 40
39.0
 10
710.2853955801402
 20
-252.5999339864502
 10
709.9934911477649
 20
-253.8474280441387
 10
709.5635155657401
 20
-254.968478993891
 10
708.9938958309867
 20
-255.9640161236039
 10
708.4227030930888
 20
-256.9590736209284
 10
707.7715761160653
 20
-257.8372506825508
 10
707.0402259810071
 20
-258.597288273304
 10
706.3067892091312
 20
-259.3583151059647
 10
705.5057454060225
 20
-260.0041701936225
 10
704.6368377549334
 20
-260.5397697689696
 10
703.7658434670957
 20
-261.0746199185942
 10
702.8922168067111
 20
-261.5105158958304
 10
702.0167603263981
 20
-261.8498858400253
 10
701.1397308429587
 20
-262.190245026115
 10
700.2716257444736
 20
-262.4414825053482
 10
699.4098447605465
 20
-262.6023092654177
 10
698.5485774101799
 20
-262.7646348768831
 10
697.7541145384748
 20
-262.8456627859978
 10
697.0261993285203
 20
-262.8456627859978
 10
697.0261993285203
 20
-262.8456627859978
 10
670.9495959815213
 20
-262.8456627859978
 10
670.9495959815213
 20
-262.8456627859978
 10
670.9495959815213
 20
-262.8456627859978
 10
672.4228257418617
 20
-256.5329801321514
 10
672.4228257418617
 20
-256.5329801321514
 10
672.4228257418617
 20
-256.5329801321514
 10
698.4994290888862
 20
-256.5329801321514
 10
698.4994290888862
 20
-256.5329801321514
 10
699.7990827724752
 20
-256.5329801321514
 10
700.8922878247286
 20
-256.1773926153837
 10
701.7774712426144
 20
-255.4654681560023
 10
702.6634572130824
 20
-254.754532938603
 10
703.2446337052643
 20
-253.7982956937612
 10
703.5247245633691
 20
-252.601372883817
 10
703.660933790994
 20
-252.0201182934488
 10
703.6896009699194
 20
-251.4840091086189
 10
703.61255592011
 20
-251.0
 10
703.5352540534732
 20
-250.514012407466
 10
703.3606186073121
 20
-250.0928651284612
 10
703.0879112331677
 20
-249.7372776116554
 10
702.8167768621388
 20
-249.381690094815
 10
702.4465111936915
 20
-249.1059014289294
 10
701.981287501374
 20
-248.9111706492331
 10
701.515293358585
 20
-248.717429111457
 10
700.9711947965588
 20
-248.6206632621434
 10
700.3468730764471
 20
-248.6206632621434
 10
700.3468730764471
 20
-248.6206632621434
 10
684.7999845818777
 20
-248.6206632621434
 10
684.7999845818777
 20
-248.6206632621434
 10
683.7078388989976
 20
-248.6206632621434
 10
682.5712318020414
 20
-248.4377134547667
 10
681.3904522098019
 20
-248.0742719563932
 10
680.2115024375307
 20
-247.7081325254221
 10
679.1732561874487
 20
-247.1224413347663
 10
678.2788594657177
 20
-246.3152498775871
 10
677.3844627440194
 20
-245.5046110620788
 10
676.7296440249957
 20
-244.444743228285
 10
676.3162331286876
 20
-243.1338777315104
 10
675.9043952354441
 20
-241.8220229928011
 10
675.9183596507355
 20
-240.2206501090095
 10
676.3606624407184
 20
-238.3265515379626
 10
676.8027405159919
 20
-236.4332023926381
 10
677.5346042847596
 20
-234.8355166833644
 10
678.5578588522658
 20
-233.5315159262354
 10
679.5811134197647
 20
-232.2290140205514
 10
680.7287636405745
 20
-231.1686365772512
 10
682.0039555208241
 20
-230.3526018965204
 10
683.2783448485679
 20
-229.5336144784706
 10
684.5911603948407
 20
-228.9435166645872
 10
685.9410217691984
 20
-228.5788311195083
 10
687.2906263267469
 20
-228.2156294373581
 10
688.5116619575128
 20
-228.0331742509425
 10
689.6048670098171
 20
-228.0331742509425
 10
689.6048670098171
 20
-228.0331742509425
 10
712.6125980862053
 20
-228.0331742509425
 10
712.6125980862053
 20
-228.0331742509425
 10
712.6125980862053
 20
-228.0331742509425
 10
711.140595632809
 20
-234.3450924905537
 10
711.140595632809
 20
-234.3450924905537
 10
711.140595632809
 20
-234.3450924905537
 10
688.1319261683639
 20
-234.3450924905537
 10
688.1319261683639
 20
-234.3450924905537
 10
686.8485803536205
 20
-234.3450924905537
 10
685.762983500008
 20
-234.7097630471471
 10
684.875167709637
 20
-235.4386245277983
 10
683.984719546701
 20
-236.1657773178194
 10
683.4014243155834
 20
-237.1281598536279
 10
683.1216223764422
 20
-238.327270986636
 10
682.8386423289921
 20
-239.5408910016504
 10
682.9730538387703
 20
-240.5010852143423
 10
683.5287091582977
 20
-241.2043762893354
 10
684.0833372104134
 20
-241.907697341414
 10
685.0016499997073
 20
-242.2603471094098
 10
686.2857983670292
 20
-242.2603471094098
 10
686.2857983670292
 20
-242.2603471094098
 10
701.8321411258621
 20
-242.2603471094098
 10
701.8321411258621
 20
-242.2603471094098
 10
701.8321411258621
 20
-242.2603471094098
 10
701.8844675554828
 20
-242.2603471094098
 10
701.8844675554828
 20
-242.2603471094098
 10
702.6081773897822
 20
-242.2765646820335
 10
703.3576973158524
 20
-242.3713520474212
 10
704.1332199461795
 20
-242.5393133403159
 10
704.907426390233
 20
-242.7092531171747
 10
705.6558869468136
 20
-242.9722415917295
 10
706.3795967811602
 20
-243.3268698435786
 10
707.103306615496
 20
-243.6846756605464
 10
707.7639358153283
 20
-244.1330720588376
 10
708.3664281046549
 20
-244.677035225237
 10
708.967604207719
 20
-245.2180306658393
 10
709.4598899737794
 20
-245.8697912281423
 10
709.8472660636799
 20
-246.6293192093963
 10
710.2322665979118
 20
-247.3910954677522
 10
710.4744769731478
 20
-248.2660649872942
 10
710.573608270548
 20
-249.2529987097769
 10
710.6727716700516
 20
-250.23852351188
 10
710.5770431956698
 20
-251.3541486194135
 10
710.2853955801402
 20
-252.5999339864502
 97
        0
 97
        0
 75
     2
 76
     1
 98
        0
  0
ENDBLK
  5
67
330
64
100
AcDbEntity
  8
0
100
AcDbBlockEnd
  0
ENDSEC
  0
SECTION
  2
ENTITIES
  0
INSERT
  5
42
330
1F
100
AcDbEntity
  8
Layer 1
100
AcDbBlockReference
  2
block 2
 10
0.0
 20
0.0
 30
0.0
  0
ENDSEC
  0
SECTION
  2
OBJECTS
  0
DICTIONARY
  5
C
330
0
100
AcDbDictionary
281
     1
  3
ACAD_GROUP
350
D
  3
ACAD_LAYOUT
350
1A
  3
ACAD_MATERIAL
350
3B
  3
ACAD_MLEADERSTYLE
350
88
  3
ACAD_MLINESTYLE
350
17
  3
ACAD_PLOTSETTINGS
350
19
  3
ACAD_PLOTSTYLENAME
350
E
  3
ACAD_TABLESTYLE
350
87
  3
ACAD_VISUALSTYLE
350
2A
  0
SUN
  5
3F
330
29
100
AcDbSun
 90
        1
290
     0
 63
     7
421
 16777215
 40
1.0
291
     1
 91
  2455826
 92
 54000000
292
     0
 70
     2
 71
   256
280
     1
  0
DICTIONARY
  5
D
102
{ACAD_REACTORS
330
C
102
}
330
C
100
AcDbDictionary
281
     1
  0
DICTIONARY
  5
1A
102
{ACAD_REACTORS
330
C
102
}
330
C
100
AcDbDictionary
281
     1
  3
Layout1
350
1E
  3
Layout2
350
26
  3
Model
350
22
  0
DICTIONARY
  5
3B
102
{ACAD_REACTORS
330
C
102
}
330
C
100
AcDbDictionary
281
     1
  3
ByBlock
350
3D
  3
ByLayer
350
3C
  3
Global
350
3E
  0
DICTIONARY
  5
88
102
{ACAD_REACTORS
330
C
102
}
330
C
100
AcDbDictionary
281
     1
  0
DICTIONARY
  5
17
102
{ACAD_REACTORS
330
C
102
}
330
C
100
AcDbDictionary
281
     1
  3
Standard
350
18
  0
DICTIONARY
  5
19
102
{ACAD_REACTORS
330
C
102
}
330
C
100
AcDbDictionary
281
     1
  0
ACDBDICTIONARYWDFLT
  5
E
102
{ACAD_REACTORS
330
C
102
}
330
C
100
AcDbDictionary
281
     1
  3
Normal
350
F
100
AcDbDictionaryWithDefault
340
F
  0
DICTIONARY
  5
87
102
{ACAD_REACTORS
330
C
102
}
330
C
100
AcDbDictionary
281
     1
  0
DICTIONARY
  5
2A
102
{ACAD_REACTORS
330
C
102
}
330
C
100
AcDbDictionary
281
     1
  3
2dWireframe
350
2F
  3
3D Hidden
350
31
  3
3dWireframe
350
30
  3
Basic
350
32
  3
Brighten
350
36
  3
ColorChange
350
3A
  3
Conceptual
350
34
  3
Dim
350
35
  3
Facepattern
350
39
  3
Flat
350
2B
  3
FlatWithEdges
350
2C
  3
Gouraud
350
2D
  3
GouraudWithEdges
350
2E
  3
Linepattern
350
38
  3
Realistic
350
33
  3
Thicken
350
37
  0
LAYOUT
  5
1E
102
{ACAD_REACTORS
330
1A
102
}
330
1A
100
AcDbPlotSettings
  1

  2
none_device
  4

  6

 40
0.0
 41
0.0
 42
0.0
 43
0.0
 44
0.0
 45
0.0
 46
0.0
 47
0.0
 48
0.0
 49
0.0
140
0.0
141
0.0
142
1.0
143
1.0
 70
   688
 72
     0
 73
     0
 74
     5
  7

 75
    16
 76
     0
 77
     2
 78
   300
147
1.0
148
0.0
149
0.0
100
AcDbLayout
  1
Layout1
 70
     1
 71
     1
 10
0.0
 20
0.0
 11
12.0
 21
9.0
 12
0.0
 22
0.0
 32
0.0
 14
1.000000000000000E+20
 24
1.000000000000000E+20
 34
1.000000000000000E+20
 15
-1.000000000000000E+20
 25
-1.000000000000000E+20
 35
-1.000000000000000E+20
146
0.0
 13
0.0
 23
0.0
 33
0.0
 16
1.0
 26
0.0
 36
0.0
 17
0.0
 27
1.0
 37
0.0
 76
     0
330
1B
  0
LAYOUT
  5
26
102
{ACAD_REACTORS
330
1A
102
}
330
1A
100
AcDbPlotSettings
  1

  2
none_device
  4

  6

 40
0.0
 41
0.0
 42
0.0
 43
0.0
 44
0.0
 45
0.0
 46
0.0
 47
0.0
 48
0.0
 49
0.0
140
0.0
141
0.0
142
1.0
143
1.0
 70
   688
 72
     0
 73
     0
 74
     5
  7

 75
    16
 76
     0
 77
     2
 78
   300
147
1.0
148
0.0
149
0.0
100
AcDbLayout
  1
Layout2
 70
     1
 71
     2
 10
0.0
 20
0.0
 11
0.0
 21
0.0
 12
0.0
 22
0.0
 32
0.0
 14
0.0
 24
0.0
 34
0.0
 15
0.0
 25
0.0
 35
0.0
146
0.0
 13
0.0
 23
0.0
 33
0.0
 16
1.0
 26
0.0
 36
0.0
 17
0.0
 27
1.0
 37
0.0
 76
     0
330
23
  0
LAYOUT
  5
22
102
{ACAD_REACTORS
330
1A
102
}
330
1A
100
AcDbPlotSettings
  1

  2
none_device
  4

  6

 40
0.0
 41
0.0
 42
0.0
 43
0.0
 44
0.0
 45
0.0
 46
0.0
 47
0.0
 48
0.0
 49
0.0
140
0.0
141
0.0
142
1.0
143
1.0
 70
  1712
 72
     0
 73
     0
 74
     0
  7

 75
     0
 76
     0
 77
     2
 78
   300
147
1.0
148
0.0
149
0.0
100
AcDbLayout
  1
Model
 70
     1
 71
     0
 10
0.0
 20
0.0
 11
12.0
 21
9.0
 12
0.0
 22
0.0
 32
0.0
 14
1.000000000000000E+20
 24
1.000000000000000E+20
 34
1.000000000000000E+20
 15
-1.000000000000000E+20
 25
-1.000000000000000E+20
 35
-1.000000000000000E+20
146
0.0
 13
0.0
 23
0.0
 33
0.0
 16
1.0
 26
0.0
 36
0.0
 17
0.0
 27
1.0
 37
0.0
 76
     0
330
1F
331
29
  0
MATERIAL
  5
3D
102
{ACAD_REACTORS
330
3B
102
}
330
3B
100
AcDbMaterial
  1
ByBlock
 72
     1
 94
      127
  0
MATERIAL
  5
3C
102
{ACAD_REACTORS
330
3B
102
}
330
3B
100
AcDbMaterial
  1
ByLayer
 72
     1
 94
      127
  0
MATERIAL
  5
3E
102
{ACAD_REACTORS
330
3B
102
}
330
3B
100
AcDbMaterial
  1
Global
 72
     1
 94
      127
  0
MLINESTYLE
  5
18
102
{ACAD_REACTORS
330
17
102
}
330
17
100
AcDbMlineStyle
  2
Standard
 70
     0
  3

 62
   256
 51
90.0
 52
90.0
 71
     2
 49
0.5
 62
   256
  6
BYLAYER
 49
-0.5
 62
   256
  6
BYLAYER
  0
ACDBPLACEHOLDER
  5
F
102
{ACAD_REACTORS
330
E
102
}
330
E
  0
VISUALSTYLE
  5
2F
102
{ACAD_REACTORS
330
2A
102
}
330
2A
100
AcDbVisualStyle
  2
2dWireframe
 70
     4
177
     2
291
     0
 71
     0
176
     1
 72
     2
176
     1
 73
     0
176
     1
 90
        0
176
     1
 40
-0.6
176
     1
 41
-30.0
176
     1
 62
     5
 63
     7
421
 16777215
176
     1
 74
     1
176
     1
 91
        4
176
     1
 64
     7
176
     1
 65
   257
176
     1
 75
     1
176
     1
175
     1
176
     1
 42
1.0
176
     1
 92
        0
176
     1
 66
   257
176
     1
 43
1.0
176
     1
 76
     1
176
     1
 77
     6
176
     1
 78
     2
176
     1
 67
     7
176
     1
 79
     5
176
     1
170
     0
176
     1
171
     0
176
     1
290
     0
176
     1
 93
        1
176
     1
 44
0.0
176
     1
173
     0
176
     1
  0
VISUALSTYLE
  5
31
102
{ACAD_REACTORS
330
2A
102
}
330
2A
100
AcDbVisualStyle
  2
3D Hidden
 70
     6
177
     2
291
     0
 71
     1
176
     1
 72
     2
176
     1
 73
     2
176
     1
 90
        0
176
     1
 40
-0.6
176
     1
 41
-30.0
176
     1
 62
     5
 63
     7
421
 16777215
176
     1
 74
     2
176
     1
 91
        2
176
     1
 64
     7
176
     1
 65
   257
176
     1
 75
     2
176
     1
175
     1
176
     1
 42
40.0
176
     1
 92
        0
176
     1
 66
   257
176
     1
 43
1.0
176
     1
 76
     1
176
     1
 77
     6
176
     1
 78
     2
176
     1
 67
     7
176
     1
 79
     3
176
     1
170
     0
176
     1
171
     0
176
     1
290
     0
176
     1
 93
        1
176
     1
 44
0.0
176
     1
173
     0
176
     1
  0
VISUALSTYLE
  5
30
102
{ACAD_REACTORS
330
2A
102
}
330
2A
100
AcDbVisualStyle
  2
3dWireframe
 70
     5
177
     2
291
     0
 71
     0
176
     1
 72
     2
176
     1
 73
     0
176
     1
 90
        0
176
     1
 40
-0.6
176
     1
 41
-30.0
176
     1
 62
     5
 63
     7
421
 16777215
176
     1
 74
     1
176
     1
 91
        4
176
     1
 64
     7
176
     1
 65
   257
176
     1
 75
     1
176
     1
175
     1
176
     1
 42
1.0
176
     1
 92
        0
176
     1
 66
   257
176
     1
 43
1.0
176
     1
 76
     1
176
     1
 77
     6
176
     1
 78
     2
176
     1
 67
     7
176
     1
 79
     5
176
     1
170
     0
176
     1
171
     0
176
     1
290
     0
176
     1
 93
        1
176
     1
 44
0.0
176
     1
173
     0
176
     1
  0
VISUALSTYLE
  5
32
102
{ACAD_REACTORS
330
2A
102
}
330
2A
100
AcDbVisualStyle
  2
Basic
 70
     7
177
     2
291
     1
 71
     1
176
     1
 72
     0
176
     1
 73
     1
176
     1
 90
        0
176
     1
 40
-0.6
176
     1
 41
-30.0
176
     1
 62
     5
 63
     7
421
 16777215
176
     1
 74
     0
176
     1
 91
        4
176
     1
 64
     7
176
     1
 65
   257
176
     1
 75
     1
176
     1
175
     1
176
     1
 42
1.0
176
     1
 92
        8
176
     1
 66
     7
176
     1
 43
1.0
176
     1
 76
     1
176
     1
 77
     6
176
     1
 78
     2
176
     1
 67
     7
176
     1
 79
     5
176
     1
170
     0
176
     1
171
     0
176
     1
290
     0
176
     1
 93
        1
176
     1
 44
0.0
176
     1
173
     0
176
     1
  0
VISUALSTYLE
  5
36
102
{ACAD_REACTORS
330
2A
102
}
330
2A
100
AcDbVisualStyle
  2
Brighten
 70
    12
177
     2
291
     1
 71
     2
176
     1
 72
     2
176
     1
 73
     0
176
     1
 90
        0
176
     1
 40
-0.6
176
     1
 41
-30.0
176
     1
 62
     5
 63
     7
421
 16777215
176
     1
 74
     1
176
     1
 91
        4
176
     1
 64
     7
176
     1
 65
   257
176
     1
 75
     1
176
     1
175
     1
176
     1
 42
1.0
176
     1
 92
        8
176
     1
 66
     7
176
     1
 43
1.0
176
     1
 76
     1
176
     1
 77
     6
176
     1
 78
     2
176
     1
 67
     7
176
     1
 79
     5
176
     1
170
     0
176
     1
171
     0
176
     1
290
     0
176
     1
 93
        1
176
     1
 44
50.0
176
     1
173
     0
176
     1
  0
VISUALSTYLE
  5
3A
102
{ACAD_REACTORS
330
2A
102
}
330
2A
100
AcDbVisualStyle
  2
ColorChange
 70
    16
177
     2
291
     1
 71
     2
176
     1
 72
     2
176
     1
 73
     3
176
     1
 90
        0
176
     1
 40
-0.6
176
     1
 41
-30.0
176
     1
 62
     5
 63
     8
421
  8421504
176
     1
 74
     1
176
     1
 91
        4
176
     1
 64
     7
176
     1
 65
   257
176
     1
 75
     1
176
     1
175
     1
176
     1
 42
1.0
176
     1
 92
        8
176
     1
 66
     8
424
  8421504
176
     1
 43
1.0
176
     1
 76
     1
176
     1
 77
     6
176
     1
 78
     2
176
     1
 67
     7
176
     1
 79
     5
176
     1
170
     0
176
     1
171
     0
176
     1
290
     0
176
     1
 93
        1
176
     1
 44
0.0
176
     1
173
     0
176
     1
  0
VISUALSTYLE
  5
34
102
{ACAD_REACTORS
330
2A
102
}
330
2A
100
AcDbVisualStyle
  2
Conceptual
 70
     9
177
     2
291
     0
 71
     3
176
     1
 72
     2
176
     1
 73
     0
176
     1
 90
        0
176
     1
 40
-0.6
176
     1
 41
-30.0
176
     1
 62
     5
 63
     7
421
 16777215
176
     1
 74
     2
176
     1
 91
        2
176
     1
 64
     7
176
     1
 65
   257
176
     1
 75
     1
176
     1
175
     1
176
     1
 42
40.0
176
     1
 92
        8
176
     1
 66
     7
176
     1
 43
1.0
176
     1
 76
     1
176
     1
 77
     6
176
     1
 78
     2
176
     1
 67
     7
176
     1
 79
     3
176
     1
170
     0
176
     1
171
     0
176
     1
290
     0
176
     1
 93
        1
176
     1
 44
0.0
176
     1
173
     0
176
     1
  0
VISUALSTYLE
  5
35
102
{ACAD_REACTORS
330
2A
102
}
330
2A
100
AcDbVisualStyle
  2
Dim
 70
    11
177
     2
291
     1
 71
     2
176
     1
 72
     2
176
     1
 73
     0
176
     1
 90
        0
176
     1
 40
-0.6
176
     1
 41
-30.0
176
     1
 62
     5
 63
     7
421
 16777215
176
     1
 74
     1
176
     1
 91
        4
176
     1
 64
     7
176
     1
 65
   257
176
     1
 75
     1
176
     1
175
     1
176
     1
 42
1.0
176
     1
 92
        8
176
     1
 66
     7
176
     1
 43
1.0
176
     1
 76
     1
176
     1
 77
     6
176
     1
 78
     2
176
     1
 67
     7
176
     1
 79
     5
176
     1
170
     0
176
     1
171
     0
176
     1
290
     0
176
     1
 93
        1
176
     1
 44
-50.0
176
     1
173
     0
176
     1
  0
VISUALSTYLE
  5
39
102
{ACAD_REACTORS
330
2A
102
}
330
2A
100
AcDbVisualStyle
  2
Facepattern
 70
    15
177
     2
291
     1
 71
     2
176
     1
 72
     2
176
     1
 73
     0
176
     1
 90
        0
176
     1
 40
-0.6
176
     1
 41
-30.0
176
     1
 62
     5
 63
     7
421
 16777215
176
     1
 74
     1
176
     1
 91
        4
176
     1
 64
     7
176
     1
 65
   257
176
     1
 75
     1
176
     1
175
     1
176
     1
 42
1.0
176
     1
 92
        8
176
     1
 66
     7
176
     1
 43
1.0
176
     1
 76
     1
176
     1
 77
     6
176
     1
 78
     2
176
     1
 67
     7
176
     1
 79
     5
176
     1
170
     0
176
     1
171
     0
176
     1
290
     0
176
     1
 93
        1
176
     1
 44
0.0
176
     1
173
     0
176
     1
  0
VISUALSTYLE
  5
2B
102
{ACAD_REACTORS
330
2A
102
}
330
2A
100
AcDbVisualStyle
  2
Flat
 70
     0
177
     2
291
     1
 71
     2
176
     1
 72
     1
176
     1
 73
     1
176
     1
 90
        2
176
     1
 40
-0.6
176
     1
 41
30.0
176
     1
 62
     5
 63
     7
421
 16777215
176
     1
 74
     0
176
     1
 91
        4
176
     1
 64
     7
176
     1
 65
   257
176
     1
 75
     1
176
     1
175
     1
176
     1
 42
1.0
176
     1
 92
        8
176
     1
 66
     7
176
     1
 43
1.0
176
     1
 76
     1
176
     1
 77
     6
176
     1
 78
     2
176
     1
 67
     7
176
     1
 79
     5
176
     1
170
     0
176
     1
171
     0
176
     1
290
     0
176
     1
 93
       13
176
     1
 44
0.0
176
     1
173
     0
176
     1
  0
VISUALSTYLE
  5
2C
102
{ACAD_REACTORS
330
2A
102
}
330
2A
100
AcDbVisualStyle
  2
FlatWithEdges
 70
     1
177
     2
291
     1
 71
     2
176
     1
 72
     1
176
     1
 73
     1
176
     1
 90
        2
176
     1
 40
-0.6
176
     1
 41
30.0
176
     1
 62
     5
 63
     7
421
 16777215
176
     1
 74
     1
176
     1
 91
        4
176
     1
 64
     7
176
     1
 65
   257
176
     1
 75
     1
176
     1
175
     1
176
     1
 42
1.0
176
     1
 92
        0
176
     1
 66
   257
176
     1
 43
1.0
176
     1
 76
     1
176
     1
 77
     6
176
     1
 78
     2
176
     1
 67
     7
176
     1
 79
     5
176
     1
170
     0
176
     1
171
     0
176
     1
290
     0
176
     1
 93
       13
176
     1
 44
0.0
176
     1
173
     0
176
     1
  0
VISUALSTYLE
  5
2D
102
{ACAD_REACTORS
330
2A
102
}
330
2A
100
AcDbVisualStyle
  2
Gouraud
 70
     2
177
     2
291
     1
 71
     2
176
     1
 72
     2
176
     1
 73
     1
176
     1
 90
        2
176
     1
 40
-0.6
176
     1
 41
30.0
176
     1
 62
     5
 63
     7
421
 16777215
176
     1
 74
     0
176
     1
 91
        4
176
     1
 64
     7
176
     1
 65
   257
176
     1
 75
     1
176
     1
175
     1
176
     1
 42
1.0
176
     1
 92
        0
176
     1
 66
     7
176
     1
 43
1.0
176
     1
 76
     1
176
     1
 77
     6
176
     1
 78
     2
176
     1
 67
     7
176
     1
 79
     5
176
     1
170
     0
176
     1
171
     0
176
     1
290
     0
176
     1
 93
       13
176
     1
 44
0.0
176
     1
173
     0
176
     1
  0
VISUALSTYLE
  5
2E
102
{ACAD_REACTORS
330
2A
102
}
330
2A
100
AcDbVisualStyle
  2
GouraudWithEdges
 70
     3
177
     2
291
     1
 71
     2
176
     1
 72
     2
176
     1
 73
     1
176
     1
 90
        2
176
     1
 40
-0.6
176
     1
 41
30.0
176
     1
 62
     5
 63
     7
421
 16777215
176
     1
 74
     1
176
     1
 91
        4
176
     1
 64
     7
176
     1
 65
   257
176
     1
 75
     1
176
     1
175
     1
176
     1
 42
1.0
176
     1
 92
        0
176
     1
 66
   257
176
     1
 43
1.0
176
     1
 76
     1
176
     1
 77
     6
176
     1
 78
     2
176
     1
 67
     7
176
     1
 79
     5
176
     1
170
     0
176
     1
171
     0
176
     1
290
     0
176
     1
 93
       13
176
     1
 44
0.0
176
     1
173
     0
176
     1
  0
VISUALSTYLE
  5
38
102
{ACAD_REACTORS
330
2A
102
}
330
2A
100
AcDbVisualStyle
  2
Linepattern
 70
    14
177
     2
291
     1
 71
     2
176
     1
 72
     2
176
     1
 73
     0
176
     1
 90
        0
176
     1
 40
-0.6
176
     1
 41
-30.0
176
     1
 62
     5
 63
     7
421
 16777215
176
     1
 74
     1
176
     1
 91
        4
176
     1
 64
     7
176
     1
 65
   257
176
     1
 75
     7
176
     1
175
     7
176
     1
 42
1.0
176
     1
 92
        8
176
     1
 66
     7
176
     1
 43
1.0
176
     1
 76
     1
176
     1
 77
     6
176
     1
 78
     2
176
     1
 67
     7
176
     1
 79
     5
176
     1
170
     0
176
     1
171
     0
176
     1
290
     0
176
     1
 93
        1
176
     1
 44
0.0
176
     1
173
     0
176
     1
  0
VISUALSTYLE
  5
33
102
{ACAD_REACTORS
330
2A
102
}
330
2A
100
AcDbVisualStyle
  2
Realistic
 70
     8
177
     2
291
     0
 71
     2
176
     1
 72
     2
176
     1
 73
     0
176
     1
 90
        0
176
     1
 40
-0.6
176
     1
 41
-30.0
176
     1
 62
     5
 63
     7
421
 16777215
176
     1
 74
     1
176
     1
 91
        0
176
     1
 64
     7
176
     1
 65
   257
176
     1
 75
     1
176
     1
175
     1
176
     1
 42
1.0
176
     1
 92
        8
176
     1
 66
     8
424
  7895160
176
     1
 43
1.0
176
     1
 76
     1
176
     1
 77
     6
176
     1
 78
     2
176
     1
 67
     7
176
     1
 79
     5
176
     1
170
     0
176
     1
171
     0
176
     1
290
     0
176
     1
 93
       13
176
     1
 44
0.0
176
     1
173
     0
176
     1
  0
VISUALSTYLE
  5
37
102
{ACAD_REACTORS
330
2A
102
}
330
2A
100
AcDbVisualStyle
  2
Thicken
 70
    13
177
     2
291
     1
 71
     2
176
     1
 72
     2
176
     1
 73
     0
176
     1
 90
        0
176
     1
 40
-0.6
176
     1
 41
-30.0
176
     1
 62
     5
 63
     7
421
 16777215
176
     1
 74
     1
176
     1
 91
        4
176
     1
 64
     7
176
     1
 65
   257
176
     1
 75
     1
176
     1
175
     1
176
     1
 42
1.0
176
     1
 92
       12
176
     1
 66
     7
176
     1
 43
1.0
176
     1
 76
     1
176
     1
 77
     6
176
     1
 78
     2
176
     1
 67
     7
176
     1
 79
     5
176
     1
170
     0
176
     1
171
     0
176
     1
290
     0
176
     1
 93
        1
176
     1
 44
0.0
176
     1
173
     0
176
     1
  0
ENDSEC
  0
EOF
