0
SECTION
2
HEADER
9
$INSUNITS
70
1
9
$ACADVER
1
AC1014
9
$HANDSEED
5
FFFF
0
ENDSEC
0
SECTION
2
TABLES
0
TABLE
2
VPORT
5
8
100
AcDbSymbolTable
0
ENDTAB
0
TABLE
2
LTYPE
5
5
100
AcDbSymbolTable
0
LTYPE
5
14
100
AcDbSymbolTableRecord
100
AcDbLinetypeTableRecord
2
BYBLOCK
70
0
0
LTYPE
5
15
100
AcDbSymbolTableRecord
100
AcDbLinetypeTableRecord
2
BYLAYER
70
0
0
ENDTAB
0
TABLE
2
LAYER
5
2
100
AcDbSymbolTable
70
2
0
LAYER
5
50
100
AcDbSymbolTableRecord
100
AcDbLayerTableRecord
2
0
70
0
6
CONTINUOUS
0
ENDTAB
0
TABLE
2
STYLE
5
3
100
AcDbSymbolTable
70
1
0
STYLE
5
11
100
AcDbSymbolTableRecord
100
AcDbTextStyleTableRecord
2
STANDARD
70
0
0
ENDTAB
0
TABLE
2
VIEW
5
6
100
AcDbSymbolTable
70
0
0
ENDTAB
0
TABLE
2
UCS
5
7
100
AcDbSymbolTable
70
0
0
ENDTAB
0
TABLE
2
APPID
5
9
100
AcDbSymbolTable
70
2
0
APPID
5
12
100
AcDbSymbolTableRecord
100
AcDbRegAppTableRecord
2
ACAD
70
0
0
ENDTAB
0
TABLE
2
DIMSTYLE
5
A
100
AcDbSymbolTable
70
1
0
ENDTAB
0
TABLE
2
BLOCK_RECORD
5
1
100
AcDbSymbolTable
70
1
0
BLOCK_RECORD
5
1F
100
AcDbSymbolTableRecord
100
AcDbBlockTableRecord
2
*MODEL_SPACE
0
BLOCK_RECORD
5
1B
100
AcDbSymbolTableRecord
100
AcDbBlockTableRecord
2
*PAPER_SPACE
0
ENDTAB
0
ENDSEC
0
SECTION
2
BLOCKS
0
BLOCK
5
20
100
AcDbEntity
100
AcDbBlockBegin
2
*MODEL_SPACE
0
ENDBLK
5
21
100
AcDbEntity
100
AcDbBlockEnd
0
BLOCK
5
1C
100
AcDbEntity
100
AcDbBlockBegin
2
*PAPER_SPACE
0
ENDBLK
5
1D
100
AcDbEntity
100
AcDbBlockEnd
0
ENDSEC
0
SECTION
2
ENTITIES
0
LINE
5
100
100
AcDbEntity
8
0
100
AcDbLine
10
7.4439346306871306
20
14.715020558281974
30
0
11
7.9918704596114649
21
13.554685861736328
31
0
0
LINE
5
101
100
AcDbEntity
8
0
100
AcDbLine
10
7.9918704596114649
20
13.554685861736328
30
0
11
8.6687323659297597
21
14.715020558281974
31
0
0
LINE
5
102
100
AcDbEntity
8
0
100
AcDbLine
10
8.6687323659297597
20
14.715020558281974
30
0
11
8.5461768411909578
21
13.068340081116474
31
0
0
LINE
5
103
100
AcDbEntity
8
0
100
AcDbLine
10
8.5461768411909578
20
13.068340081116474
30
0
11
9.1683094997116878
21
14.134853210009153
31
0
0
LINE
5
104
100
AcDbEntity
8
0
100
AcDbLine
10
9.1683094997116878
20
14.134853210009153
30
0
11
8.8572431704513246
21
12.297656607145207
31
0
0
LINE
5
105
100
AcDbEntity
8
0
100
AcDbLine
10
7.4439346306871306
20
14.715020558281974
30
0
11
7.4439346306871306
21
12.906263531313769
31
0
0
LINE
5
106
100
AcDbEntity
8
0
100
AcDbLine
10
7.4439346306871306
20
12.906263531313769
30
0
11
6.8637672824143054
21
14.134853210009153
31
0
0
LINE
5
107
100
AcDbEntity
8
0
100
AcDbLine
10
6.8637672824143054
20
14.134853210009153
30
0
11
7.1399999137117165
21
12.239999852077228
31
0
0
SPLINE
5
108
100
AcDbEntity
8
0
100
AcDbSpline
70
4
71
5
72
91
73
85
74
0
42
0.000000001
43
0.0000000001
44
0.0000000001
40
0
40
0
40
0
40
0
40
0
40
0
40
0.012500000000000001
40
0.025000000000000001
40
0.037500000000000006
40
0.050000000000000003
40
0.0625
40
0.074999999999999997
40
0.087499999999999994
40
0.099999999999999992
40
0.11249999999999999
40
0.12499999999999999
40
0.13749999999999998
40
0.14999999999999999
40
0.16250000000000001
40
0.17500000000000002
40
0.18750000000000003
40
0.20000000000000004
40
0.21250000000000005
40
0.22500000000000006
40
0.23750000000000007
40
0.25000000000000006
40
0.26250000000000007
40
0.27500000000000008
40
0.28750000000000009
40
0.3000000000000001
40
0.31250000000000011
40
0.32500000000000012
40
0.33750000000000013
40
0.35000000000000014
40
0.36250000000000016
40
0.37500000000000017
40
0.38750000000000018
40
0.40000000000000019
40
0.4125000000000002
40
0.42500000000000021
40
0.43750000000000022
40
0.45000000000000023
40
0.46250000000000024
40
0.47500000000000026
40
0.48750000000000027
40
0.50000000000000022
40
0.51250000000000018
40
0.52500000000000013
40
0.53750000000000009
40
0.55000000000000004
40
0.5625
40
0.57499999999999996
40
0.58749999999999991
40
0.59999999999999987
40
0.61249999999999982
40
0.62499999999999978
40
0.63749999999999973
40
0.64999999999999969
40
0.66249999999999964
40
0.6749999999999996
40
0.68749999999999956
40
0.69999999999999951
40
0.71249999999999947
40
0.72499999999999942
40
0.73749999999999938
40
0.74999999999999933
40
0.76249999999999929
40
0.77499999999999925
40
0.7874999999999992
40
0.79999999999999916
40
0.81249999999999911
40
0.82499999999999907
40
0.83749999999999902
40
0.84999999999999898
40
0.86249999999999893
40
0.87499999999999889
40
0.88749999999999885
40
0.8999999999999988
40
0.91249999999999876
40
0.92499999999999871
40
0.93749999999999867
40
0.94999999999999862
40
0.96249999999999858
40
0.97499999999999853
40
0.98749999999999849
40
1
40
1
40
1
40
1
40
1
40
1
41
1
41
1
41
1
41
1
41
1
41
1
41
1
41
1
41
1
41
1
41
1
41
1
41
1
41
1
41
1
41
1
41
1
41
1
41
1
41
1
41
1
41
1
41
1
41
1
41
1
41
1
41
1
41
1
41
1
41
1
41
1
41
1
41
1
41
1
41
1
41
1
41
1
41
1
41
1
41
1
41
1
41
1
41
1
41
1
41
1
41
1
41
1
41
1
41
1
41
1
41
1
41
1
41
1
41
1
41
1
41
1
41
1
41
1
41
1
41
1
41
1
41
1
41
1
41
1
41
1
41
1
41
1
41
1
41
1
41
1
41
1
41
1
41
1
41
1
41
1
41
1
41
1
41
1
41
1
41
1
41
1
41
1
41
1
41
1
41
1
10
8.8572431704513246
20
12.297656607145207
30
0
10
8.8625199451735277
20
12.30511793531735
30
0
10
8.8731326767687619
20
12.319983982800364
30
0
10
8.8892293246131633
20
12.342113226707694
30
0
10
8.9110466782112088
20
12.371279150591118
30
0
10
8.9389417807708966
20
12.407166142683678
30
0
10
8.9675532157803222
20
12.442471138417826
30
0
10
8.9970673527018725
20
12.477171404778815
30
0
10
9.0277919015245107
20
12.511230066739749
30
0
10
9.0601947149956121
20
12.544591124923331
30
0
10
9.0947982865938837
20
12.577200408939062
30
0
10
9.1320655635258223
20
12.609027854725039
30
0
10
9.1722814429818396
20
12.640091124005449
30
0
10
9.2154526800087684
20
12.670474637904706
30
0
10
9.2611581487785628
20
12.700360711724233
30
0
10
9.3085909924942634
20
12.730014102880554
30
0
10
9.3567737812646428
20
12.759724646347856
30
0
10
9.4047208491586574
20
12.789762574320662
30
0
10
9.4516313044099984
20
12.820326635653387
30
0
10
9.4970480509749748
20
12.851499843175619
30
0
10
9.5410828110967163
20
12.883190626561346
30
0
10
9.5844367603220935
20
12.915118723815203
30
0
10
9.6280633448759723
20
12.946878370796176
30
0
10
9.6729187111518282
20
12.977983643241052
30
0
10
9.7196626737726604
20
13.007921540641137
30
0
10
9.768413604353082
20
13.0362001708564
30
0
10
9.8183998737894793
20
13.062402782608871
30
0
10
9.867916289630223
20
13.086227229168633
30
0
10
9.915022151101704
20
13.107492635049422
30
0
10
9.9580731314419424
20
13.126152053376005
30
0
10
9.9963621369892603
20
13.142303988021707
30
0
10
10.030615555548117
20
13.156202033446336
30
0
10
10.063808081399989
20
13.168272111891911
30
0
10
10.100178064650141
20
13.179080381970094
30
0
10
10.143686761795603
20
13.189280204518479
30
0
10
10.196648215038957
20
13.199575458193481
30
0
10
10.258318731614924
20
13.210656448725224
30
0
10
10.323417712321564
20
13.223196371776785
30
0
10
10.384193254191809
20
13.237266909079393
30
0
10
10.432370931837635
20
13.252019445008044
30
0
10
10.461514419036281
20
13.264730019381334
30
0
10
10.468373145322218
20
13.271330781564957
30
0
10
10.45670949771568
20
13.263349587750319
30
0
10
10.432763782062235
20
13.236672396812228
30
0
10
10.401346113857407
20
13.195023944887264
30
0
10
10.366872118687956
20
13.145364609974271
30
0
10
10.332606386723551
20
13.096022986423256
30
0
10
10.300705141271004
20
13.05393456603875
30
0
10
10.271804920722184
20
13.021623953388847
30
0
10
10.245306436799929
20
12.997216235650948
30
0
10
10.219988451004603
20
12.976776387861085
30
0
10
10.19450424781304
20
12.955853257149812
30
0
10
10.167985253917928
20
12.931548000721003
30
0
10
10.140417701920818
20
12.903759175862421
30
0
10
10.112247028543964
20
12.873905712500918
30
0
10
10.084093065859365
20
12.84400347812765
30
0
10
10.056439285023789
20
12.815659913752118
30
0
10
10.029288553637679
20
12.788960628588095
30
0
10
10.002283532236699
20
12.762849486108355
30
0
10
9.9749169986016675
20
12.735799354438608
30
0
10
9.9466954783233881
20
12.70632893629095
30
0
10
9.9173574503131476
20
12.67370444482146
30
0
10
9.8869347769630203
20
12.638103740889115
30
0
10
9.8556493893101287
20
12.600215535962155
30
0
10
9.8238523202838373
20
12.560981370761818
30
0
10
9.7919475196807806
20
12.52129139627878
30
0
10
9.7603178783958207
20
12.481672625445098
30
0
10
9.7292635575502242
20
12.442062928947221
30
0
10
9.6990129118550659
20
12.402040508064232
30
0
10
9.6697231441628766
20
12.360985679482443
30
0
10
9.6414845880111031
20
12.318276094115895
30
0
10
9.6143240849408489
20
12.273450967326102
30
0
10
9.5882068883012295
20
12.22643019696199
30
0
10
9.5630466931029687
20
12.177535502425457
30
0
10
9.5387229203983939
20
12.12734996457846
30
0
10
9.5150956347554683
20
12.076625315275496
30
0
10
9.492021930324043
20
12.026166396061461
30
0
10
9.4693704617127956
20
11.976733466338104
30
0
10
9.4470397641266857
20
11.928917218172808
30
0
10
9.4249636167532902
20
11.883099884950404
30
0
10
9.4031016372907317
20
11.839512833557356
30
0
10
9.3857673280667786
20
11.806517708494143
30
0
10
9.3728508476152133
20
11.782842399771939
30
0
10
9.3642773006320787
20
11.767534726437061
30
0
10
9.3599998868825853
20
11.759999857878121
30
0
0
SPLINE
5
109
100
AcDbEntity
8
0
100
AcDbSpline
70
4
71
5
72
111
73
105
74
0
42
0.000000001
43
0.0000000001
44
0.0000000001
40
0
40
0
40
0
40
0
40
0
40
0
40
0.01
40
0.02
40
0.029999999999999999
40
0.040000000000000001
40
0.050000000000000003
40
0.060000000000000005
40
0.070000000000000007
40
0.080000000000000002
40
0.089999999999999997
40
0.099999999999999992
40
0.10999999999999999
40
0.11999999999999998
40
0.12999999999999998
40
0.13999999999999999
40
0.14999999999999999
40
0.16
40
0.17000000000000001
40
0.18000000000000002
40
0.19000000000000003
40
0.20000000000000004
40
0.21000000000000005
40
0.22000000000000006
40
0.23000000000000007
40
0.24000000000000007
40
0.25000000000000006
40
0.26000000000000006
40
0.27000000000000007
40
0.28000000000000008
40
0.29000000000000009
40
0.3000000000000001
40
0.31000000000000011
40
0.32000000000000012
40
0.33000000000000013
40
0.34000000000000014
40
0.35000000000000014
40
0.36000000000000015
40
0.37000000000000016
40
0.38000000000000017
40
0.39000000000000018
40
0.40000000000000019
40
0.4100000000000002
40
0.42000000000000021
40
0.43000000000000022
40
0.44000000000000022
40
0.45000000000000023
40
0.46000000000000024
40
0.47000000000000025
40
0.48000000000000026
40
0.49000000000000027
40
0.50000000000000022
40
0.51000000000000023
40
0.52000000000000024
40
0.53000000000000025
40
0.54000000000000026
40
0.55000000000000027
40
0.56000000000000028
40
0.57000000000000028
40
0.58000000000000029
40
0.5900000000000003
40
0.60000000000000031
40
0.61000000000000032
40
0.62000000000000033
40
0.63000000000000034
40
0.64000000000000035
40
0.65000000000000036
40
0.66000000000000036
40
0.67000000000000037
40
0.68000000000000038
40
0.69000000000000039
40
0.7000000000000004
40
0.71000000000000041
40
0.72000000000000042
40
0.73000000000000043
40
0.74000000000000044
40
0.75000000000000044
40
0.76000000000000045
40
0.77000000000000046
40
0.78000000000000047
40
0.79000000000000048
40
0.80000000000000049
40
0.8100000000000005
40
0.82000000000000051
40
0.83000000000000052
40
0.84000000000000052
40
0.85000000000000053
40
0.86000000000000054
40
0.87000000000000055
40
0.88000000000000056
40
0.89000000000000057
40
0.90000000000000058
40
0.91000000000000059
40
0.9200000000000006
40
0.9300000000000006
40
0.94000000000000061
40
0.95000000000000062
40
0.96000000000000063
40
0.97000000000000064
40
0.98000000000000065
40
0.99000000000000066
40
1
40
1
40
1
40
1
40
1
40
1
41
1
41
1
41
1
41
1
41
1
41
1
41
1
41
1
41
1
41
1
41
1
41
1
41
1
41
1
41
1
41
1
41
1
41
1
41
1
41
1
41
1
41
1
41
1
41
1
41
1
41
1
41
1
41
1
41
1
41
1
41
1
41
1
41
1
41
1
41
1
41
1
41
1
41
1
41
1
41
1
41
1
41
1
41
1
41
1
41
1
41
1
41
1
41
1
41
1
41
1
41
1
41
1
41
1
41
1
41
1
41
1
41
1
41
1
41
1
41
1
41
1
41
1
41
1
41
1
41
1
41
1
41
1
41
1
41
1
41
1
41
1
41
1
41
1
41
1
41
1
41
1
41
1
41
1
41
1
41
1
41
1
41
1
41
1
41
1
41
1
41
1
41
1
41
1
41
1
41
1
41
1
41
1
41
1
41
1
41
1
41
1
41
1
41
1
41
1
41
1
41
1
41
1
41
1
41
1
41
1
10
9.3599998868825853
20
11.759999857878121
30
0
10
9.3651127401889962
20
11.762748057539076
30
0
10
9.3754150134070819
20
11.768046015236274
30
0
10
9.3910981286216462
20
11.775397622243091
30
0
10
9.4124683861637717
20
11.784008952451567
30
0
10
9.4399412105388585
20
11.792802501152925
30
0
10
9.4681552063258341
20
11.799670357850804
30
0
10
9.4970737299568722
20
11.804702514914178
30
0
10
9.526631574198392
20
11.808053346840907
30
0
10
9.5567446560734712
20
11.809943499940044
30
0
10
9.5873437419711252
20
11.81063920181813
30
0
10
9.6184049417395396
20
11.810437678267784
30
0
10
9.6499754367317934
20
11.809649266027222
30
0
10
9.6822165541752074
20
11.808583078649299
30
0
10
9.715361995143093
20
11.807520633454086
30
0
10
9.749635135543544
20
11.806684874236021
30
0
10
9.7851753798573124
20
11.806208789033313
30
0
10
9.8219691170381473
20
11.806108112291673
30
0
10
9.859758352178762
20
11.806242631032166
30
0
10
9.8980269475607727
20
11.80631445313074
30
0
10
9.9361490055152366
20
11.805942235056806
30
0
10
9.9734989920571486
20
11.804717924764502
30
0
10
10.009584886720361
20
11.802273196790209
30
0
10
10.044153711927301
20
11.798335471386375
30
0
10
10.077353298238041
20
11.792804058215719
30
0
10
10.10968929569546
20
11.785753803230902
30
0
10
10.141806286065693
20
11.777375622536375
30
0
10
10.17431187716455
20
11.767934010655647
30
0
10
10.207596824683913
20
11.757719230104028
30
0
10
10.241624285606511
20
11.746998058081562
30
0
10
10.275833147868017
20
11.735976784694486
30
0
10
10.309464680531462
20
11.724812434449925
30
0
10
10.341812804900329
20
11.71361596754868
30
0
10
10.372520021959284
20
11.702458732547708
30
0
10
10.401817866209228
20
11.691377213518182
30
0
10
10.430885875766126
20
11.680379230181014
30
0
10
10.461399893529778
20
11.669443977443969
30
0
10
10.494923005119681
20
11.658521614516923
30
0
10
10.532317184616092
20
11.647531627676079
30
0
10
10.57322064892691
20
11.636364721029619
30
0
10
10.615316155770074
20
11.624875876136864
30
0
10
10.654282821683466
20
11.612905017272464
30
0
10
10.68515181446686
20
11.600350597569779
30
0
10
10.70342574102447
20
11.587238218085215
30
0
10
10.706172124562912
20
11.573778528193253
30
0
10
10.693418239397802
20
11.560460566247301
30
0
10
10.668405298229034
20
11.548021699267496
30
0
10
10.635815158364657
20
11.537194242831177
30
0
10
10.600562148197348
20
11.528522649508108
30
0
10
10.566141154421363
20
11.522109299236535
30
0
10
10.533888545970907
20
11.51753371502739
30
0
10
10.503778557007678
20
11.514076632761901
30
0
10
10.474907446580739
20
11.510883600368166
30
0
10
10.446068003338674
20
11.507141272636767
30
0
10
10.416365714063843
20
11.502275506331866
30
0
10
10.385542348081026
20
11.496047292520695
30
0
10
10.353718187098373
20
11.488452895391095
30
0
10
10.321261117814174
20
11.479667308314134
30
0
10
10.288614403001768
20
11.469971898891469
30
0
10
10.256119455727163
20
11.459685410093279
30
0
10
10.223916472496736
20
11.44910522863267
30
0
10
10.192031194833776
20
11.438478526174864
30
0
10
10.160422093517036
20
11.427966368196582
30
0
10
10.129042545704522
20
11.417611539550098
30
0
10
10.097898497341701
20
11.407302503222269
30
0
10
10.067102674818246
20
11.396745170357557
30
0
10
10.036816105377738
20
11.385563161995963
30
0
10
10.007195879803337
20
11.373391504355642
30
0
10
9.978340334117064
20
11.359973145267784
30
0
10
9.9502357672282606
20
11.34525350418572
30
0
10
9.9227011422998643
20
11.329478255354864
30
0
10
9.8954577414115938
20
11.313071579849439
30
0
10
9.868200087549587
20
11.296512139371169
30
0
10
9.8406666826783571
20
11.280209391305624
30
0
10
9.8127101262542133
20
11.264381012511208
30
0
10
9.7843695073461578
20
11.248926258752334
30
0
10
9.7558180650144415
20
11.233525124138964
30
0
10
9.7273090743443813
20
11.217740975558399
30
0
10
9.6991214527225225
20
11.20112312767349
30
0
10
9.6715077986500528
20
11.183306388701093
30
0
10
9.6446353296463023
20
11.16412004304903
30
0
10
9.6186030766415378
20
11.143588575539887
30
0
10
9.593466906675074
20
11.121916889599317
30
0
10
9.569264599429685
20
11.09948535670444
30
0
10
9.5460343689798002
20
11.076831331048036
30
0
10
9.5238528680939911
20
11.054660939352805
30
0
10
9.5027651763165402
20
11.033702920348272
30
0
10
9.4826695214095249
20
11.014497938747809
30
0
10
9.4632228696212994
20
10.997216073244934
30
0
10
9.4437236370717024
20
10.981445862788583
30
0
10
9.4230429864796346
20
10.966041249835412
30
0
10
9.4000500214118183
20
10.949571492040382
30
0
10
9.37403046326191
20
10.930754604658503
30
0
10
9.3450554077129642
20
10.908849872172267
30
0
10
9.3144991062506666
20
10.884182301550608
30
0
10
9.2849756036700501
20
10.858146028881094
30
0
10
9.2597612528261219
20
10.832744230112638
30
0
10
9.2423460308261092
20
10.810247637320405
30
0
10
9.2359654215921871
20
10.792829232400027
30
0
10
9.2430607373489604
20
10.78215003725925
30
0
10
9.2650428020770299
20
10.779167933455332
30
0
10
9.2951107301827456
20
10.783330448362923
30
0
10
9.3247852113972787
20
10.790205586900635
30
0
10
9.3477340352497134
20
10.796457103139634
30
0
10
9.3599998868825853
20
10.799999869479906
30
0
0
SPLINE
5
110
100
AcDbEntity
8
0
100
AcDbSpline
70
4
71
5
72
61
73
55
74
0
42
0.000000001
43
0.0000000001
44
0.0000000001
40
0
40
0
40
0
40
0
40
0
40
0
40
0.02
40
0.040000000000000001
40
0.059999999999999998
40
0.080000000000000002
40
0.10000000000000001
40
0.12000000000000001
40
0.14000000000000001
40
0.16
40
0.17999999999999999
40
0.19999999999999998
40
0.21999999999999997
40
0.23999999999999996
40
0.25999999999999995
40
0.27999999999999997
40
0.29999999999999999
40
0.32000000000000001
40
0.34000000000000002
40
0.36000000000000004
40
0.38000000000000006
40
0.40000000000000008
40
0.4200000000000001
40
0.44000000000000011
40
0.46000000000000013
40
0.48000000000000015
40
0.50000000000000011
40
0.52000000000000013
40
0.54000000000000015
40
0.56000000000000016
40
0.58000000000000018
40
0.6000000000000002
40
0.62000000000000022
40
0.64000000000000024
40
0.66000000000000025
40
0.68000000000000027
40
0.70000000000000029
40
0.72000000000000031
40
0.74000000000000032
40
0.76000000000000034
40
0.78000000000000036
40
0.80000000000000038
40
0.8200000000000004
40
0.84000000000000041
40
0.86000000000000043
40
0.88000000000000045
40
0.90000000000000047
40
0.92000000000000048
40
0.9400000000000005
40
0.96000000000000052
40
0.98000000000000054
40
1
40
1
40
1
40
1
40
1
40
1
41
1
41
1
41
1
41
1
41
1
41
1
41
1
41
1
41
1
41
1
41
1
41
1
41
1
41
1
41
1
41
1
41
1
41
1
41
1
41
1
41
1
41
1
41
1
41
1
41
1
41
1
41
1
41
1
41
1
41
1
41
1
41
1
41
1
41
1
41
1
41
1
41
1
41
1
41
1
41
1
41
1
41
1
41
1
41
1
41
1
41
1
41
1
41
1
41
1
41
1
41
1
41
1
41
1
41
1
41
1
10
9.3599998868825853
20
10.799999869479906
30
0
10
9.3670048943710054
20
10.799727051627535
30
0
10
9.3808402101611676
20
10.79926006131379
30
0
10
9.4010692026369327
20
10.798795462374706
30
0
10
9.4269915375026798
20
10.798648508454615
30
0
10
9.4577983628472708
20
10.799183917063443
30
0
10
9.4874573841409084
20
10.800238000100359
30
0
10
9.51690601143736
20
10.801392346862036
30
0
10
9.5476018732439716
20
10.801994057840679
30
0
10
9.5809760159996706
20
10.801384166621348
30
0
10
9.618044011992346
20
10.799060165746781
30
0
10
9.6588225657346065
20
10.794918154887176
30
0
10
9.7023344113974801
20
10.789255804455504
30
0
10
9.7471632986246703
20
10.782551521504164
30
0
10
9.7918846949266367
20
10.775294993472926
30
0
10
9.835492145320833
20
10.767817404758532
30
0
10
9.8779618396498101
20
10.760070802836385
30
0
10
9.9201454678676573
20
10.751658702080816
30
0
10
9.9632244559443581
20
10.742032307273986
30
0
10
10.008270257088304
20
10.730644660071917
30
0
10
10.055819840032818
20
10.717104152357374
30
0
10
10.105298470526954
20
10.701372740958281
30
0
10
10.155092606984525
20
10.683767409398085
30
0
10
10.203246098181358
20
10.664772364899028
30
0
10
10.247975467683222
20
10.64490588957031
30
0
10
10.288274154616422
20
10.624561690800206
30
0
10
10.324445958319748
20
10.603868813328313
30
0
10
10.35876436777809
20
10.582522021466332
30
0
10
10.394497021978394
20
10.559985852792666
30
0
10
10.434841238508918
20
10.535719477823676
30
0
10
10.481827807378339
20
10.509407332826783
30
0
10
10.535381546254461
20
10.481157424849387
30
0
10
10.591940199591463
20
10.451791467056269
30
0
10
10.645213271179434
20
10.42268932109568
30
0
10
10.687901518396417
20
10.395433275632298
30
0
10
10.713160944510813
20
10.371505596026958
30
0
10
10.716055553032097
20
10.351988303148834
30
0
10
10.695302379684346
20
10.337202322284663
30
0
10
10.653973248578861
20
10.326563173172586
30
0
10
10.597722224369408
20
10.318950269325736
30
0
10
10.533513178285871
20
10.3129724151297
30
0
10
10.468162149128862
20
10.307271728329866
30
0
10
10.406938850085645
20
10.300815347056194
30
0
10
10.352199085500919
20
10.293180569917659
30
0
10
10.304103072516638
20
10.284402023046903
30
0
10
10.261246766087371
20
10.274837124473056
30
0
10
10.221340223540262
20
10.265021528720769
30
0
10
10.181819802538751
20
10.255538752152725
30
0
10
10.140592919230897
20
10.246861179131457
30
0
10
10.096327630043572
20
10.239289304495529
30
0
10
10.048213042225274
20
10.233005210839559
30
0
10
10.006329237644243
20
10.229077926952636
30
0
10
9.9729509721157346
20
10.226763739788323
30
0
10
9.9498260046170994
20
10.225501298707419
30
0
10
9.9380453141810641
20
10.224940167716364
30
0
0
SPLINE
5
111
100
AcDbEntity
8
0
100
AcDbSpline
70
4
71
5
72
36
73
30
74
0
42
0.000000001
43
0.0000000001
44
0.0000000001
40
0
40
0
40
0
40
0
40
0
40
0
40
0.040000000000000001
40
0.080000000000000002
40
0.12
40
0.16
40
0.20000000000000001
40
0.24000000000000002
40
0.28000000000000003
40
0.32000000000000001
40
0.35999999999999999
40
0.39999999999999997
40
0.43999999999999995
40
0.47999999999999993
40
0.51999999999999991
40
0.55999999999999994
40
0.59999999999999998
40
0.64000000000000001
40
0.68000000000000005
40
0.72000000000000008
40
0.76000000000000012
40
0.80000000000000016
40
0.84000000000000019
40
0.88000000000000023
40
0.92000000000000026
40
0.9600000000000003
40
1
40
1
40
1
40
1
40
1
40
1
41
1
41
1
41
1
41
1
41
1
41
1
41
1
41
1
41
1
41
1
41
1
41
1
41
1
41
1
41
1
41
1
41
1
41
1
41
1
41
1
41
1
41
1
41
1
41
1
41
1
41
1
41
1
41
1
41
1
41
1
10
9.9380453141810641
20
10.224940167716364
30
0
10
9.9296672653248113
20
10.221761806633516
30
0
10
9.9128287303550806
20
10.215362343491165
30
0
10
9.8873236157099189
20
10.205634926802439
30
0
10
9.8528208845908019
20
10.192407917269112
30
0
10
9.8088779467450227
20
10.175418095960044
30
0
10
9.764169868544176
20
10.157896135154937
30
0
10
9.7188058658571048
20
10.139694843102705
30
0
10
9.6729787836153314
20
10.120572081623074
30
0
10
9.6269879755121117
20
10.100168934306499
30
0
10
9.5811880263078741
20
10.078105527444793
30
0
10
9.5359410030663287
20
10.054070924504678
30
0
10
9.4915652716040011
20
10.027922717724408
30
0
10
9.4482904926718945
20
9.9997704466987827
30
0
10
9.4061953552800954
20
9.9701064074267194
30
0
10
9.3652324357658561
20
9.9396968745528653
30
0
10
9.3252820967787713
20
9.9093945634790153
30
0
10
9.2861972662000962
20
9.8799702496853072
30
0
10
9.247847105968841
20
9.8519550465003238
30
0
10
9.2101705438822279
20
9.8254293560065022
30
0
10
9.1731888031253419
20
9.8000052293937436
30
0
10
9.1369703657189039
20
9.7750305512425246
30
0
10
9.1016077007409848
20
9.7497373736223949
30
0
10
9.0671912519678717
20
9.7233988128563755
30
0
10
9.0337790966737987
20
9.6955130032060577
30
0
10
9.0013972035654799
20
9.6658033161861105
30
0
10
8.9763216152711163
20
9.6404732398377604
30
0
10
8.9579802534578903
20
9.6205829074170577
30
0
10
8.9459589651846958
20
9.6069268600671922
30
0
10
8.939999891958367
20
9.5999998839821394
30
0
0
SPLINE
5
112
100
AcDbEntity
8
0
100
AcDbSpline
70
4
71
5
72
101
73
95
74
0
42
0.000000001
43
0.0000000001
44
0.0000000001
40
0
40
0
40
0
40
0
40
0
40
0
40
0.011111111111111112
40
0.022222222222222223
40
0.033333333333333333
40
0.044444444444444446
40
0.055555555555555559
40
0.066666666666666666
40
0.077777777777777779
40
0.088888888888888892
40
0.10000000000000001
40
0.11111111111111112
40
0.12222222222222223
40
0.13333333333333333
40
0.14444444444444443
40
0.15555555555555553
40
0.16666666666666663
40
0.17777777777777773
40
0.18888888888888883
40
0.19999999999999993
40
0.21111111111111103
40
0.22222222222222213
40
0.23333333333333323
40
0.24444444444444433
40
0.25555555555555542
40
0.26666666666666655
40
0.27777777777777768
40
0.28888888888888881
40
0.29999999999999993
40
0.31111111111111106
40
0.32222222222222219
40
0.33333333333333331
40
0.34444444444444444
40
0.35555555555555557
40
0.3666666666666667
40
0.37777777777777782
40
0.38888888888888895
40
0.40000000000000008
40
0.4111111111111112
40
0.42222222222222233
40
0.43333333333333346
40
0.44444444444444459
40
0.45555555555555571
40
0.46666666666666684
40
0.47777777777777797
40
0.48888888888888909
40
0.50000000000000022
40
0.51111111111111129
40
0.52222222222222237
40
0.53333333333333344
40
0.54444444444444451
40
0.55555555555555558
40
0.56666666666666665
40
0.57777777777777772
40
0.5888888888888888
40
0.59999999999999987
40
0.61111111111111094
40
0.62222222222222201
40
0.63333333333333308
40
0.64444444444444415
40
0.65555555555555522
40
0.6666666666666663
40
0.67777777777777737
40
0.68888888888888844
40
0.69999999999999951
40
0.71111111111111058
40
0.72222222222222165
40
0.73333333333333273
40
0.7444444444444438
40
0.75555555555555487
40
0.76666666666666594
40
0.77777777777777701
40
0.78888888888888808
40
0.79999999999999916
40
0.81111111111111023
40
0.8222222222222213
40
0.83333333333333237
40
0.84444444444444344
40
0.85555555555555451
40
0.86666666666666559
40
0.87777777777777666
40
0.88888888888888773
40
0.8999999999999988
40
0.91111111111110987
40
0.92222222222222094
40
0.93333333333333202
40
0.94444444444444309
40
0.95555555555555416
40
0.96666666666666523
40
0.9777777777777763
40
0.98888888888888737
40
1
40
1
40
1
40
1
40
1
40
1
41
1
41
1
41
1
41
1
41
1
41
1
41
1
41
1
41
1
41
1
41
1
41
1
41
1
41
1
41
1
41
1
41
1
41
1
41
1
41
1
41
1
41
1
41
1
41
1
41
1
41
1
41
1
41
1
41
1
41
1
41
1
41
1
41
1
41
1
41
1
41
1
41
1
41
1
41
1
41
1
41
1
41
1
41
1
41
1
41
1
41
1
41
1
41
1
41
1
41
1
41
1
41
1
41
1
41
1
41
1
41
1
41
1
41
1
41
1
41
1
41
1
41
1
41
1
41
1
41
1
41
1
41
1
41
1
41
1
41
1
41
1
41
1
41
1
41
1
41
1
41
1
41
1
41
1
41
1
41
1
41
1
41
1
41
1
41
1
41
1
41
1
41
1
41
1
41
1
41
1
41
1
41
1
41
1
41
1
41
1
10
7.1399999137117165
20
12.239999852077228
30
0
10
7.1373341647987383
20
12.242581980297651
30
0
10
7.1316601238436146
20
12.248116494747313
30
0
10
7.1221215355598257
20
12.257528908149666
30
0
10
7.1073470611993388
20
12.27230167080209
30
0
10
7.0855840935518257
20
12.294309207919259
30
0
10
7.0609108265207814
20
12.319385799756661
30
0
10
7.0341340250628317
20
12.346538463952937
30
0
10
7.0063005556445397
20
12.374499643042455
30
0
10
6.9784167856524615
20
12.40210397449497
30
0
10
6.9512244107507373
20
12.428585435442155
30
0
10
6.9248992695331433
20
12.453989688574923
30
0
10
6.8989568038982139
20
12.479271025823325
30
0
10
6.8725952956511991
20
12.505721284772502
30
0
10
6.8449581889827504
20
12.534518647234178
30
0
10
6.8154117272981658
20
12.566262040008668
30
0
10
6.7838598072655243
20
12.600424749573458
30
0
10
6.7506248259388428
20
12.635669277303503
30
0
10
6.7162540508468913
20
12.670305756645149
30
0
10
6.6813451712813654
20
12.702718485450529
30
0
10
6.6463802537766563
20
12.731763119733754
30
0
10
6.6115162689140456
20
12.75728041370165
30
0
10
6.5765328474334455
20
12.780198839554542
30
0
10
6.5410313437125653
20
12.801982573053662
30
0
10
6.5045816474053026
20
12.824215880243372
30
0
10
6.46687593184798
20
12.848168634733897
30
0
10
6.4279132384114241
20
12.87428364830426
30
0
10
6.3880564744661035
20
12.901989163542385
30
0
10
6.3478347137459759
20
12.930158541951231
30
0
10
6.3078050351676529
20
12.957421377858523
30
0
10
6.2683831819188658
20
12.982546611394934
30
0
10
6.2297045259928048
20
13.004765476098511
30
0
10
6.1914273794960071
20
13.02419733100327
30
0
10
6.1529101580053283
20
13.041624109175249
30
0
10
6.1134637026211118
20
13.058129014802271
30
0
10
6.0725931761965022
20
13.074765635787841
30
0
10
6.0302098023536512
20
13.092251056808776
30
0
10
5.9869438324107058
20
13.110555191930748
30
0
10
5.9439139998830104
20
13.129066824345744
30
0
10
5.9022974839194928
20
13.146977071653405
30
0
10
5.8629348947686823
20
13.163615866589522
30
0
10
5.8259870372405622
20
13.178754794972692
30
0
10
5.7904065419290482
20
13.193054634603858
30
0
10
5.7540935277612348
20
13.207966983625065
30
0
10
5.7148433132207801
20
13.225001753935617
30
0
10
5.6711371976257468
20
13.245120049070847
30
0
10
5.6228947680656329
20
13.268158678894975
30
0
10
5.5724904097599079
20
13.292041045468713
30
0
10
5.5248205443674578
20
13.312754571685248
30
0
10
5.4856758649777522
20
13.325692377083714
30
0
10
5.4604232440192213
20
13.32675100561924
30
0
10
5.4527109480994609
20
13.313396256015579
30
0
10
5.4627948525848593
20
13.286067536169311
30
0
10
5.4878279588979915
20
13.247853245817923
30
0
10
5.5232326781618788
20
13.20321847353368
30
0
10
5.5637791879381817
20
13.156983298782222
30
0
10
5.6046884031031592
20
13.113296448404908
30
0
10
5.6429646873226949
20
13.074364774863472
30
0
10
5.6775270036618712
20
13.040415787036533
30
0
10
5.7085360442563546
20
13.01047911647157
30
0
10
5.7369586394540493
20
12.982929726385109
30
0
10
5.7640484988023424
20
12.956108032382195
30
0
10
5.7908309948712633
20
12.928956205517673
30
0
10
5.8176809217426326
20
12.901503158910428
30
0
10
5.8445904680015595
20
12.874317624816809
30
0
10
5.8713667895208461
20
12.848053961650038
30
0
10
5.8978372193455462
20
12.823014530267395
30
0
10
5.9240996802068624
20
12.798574455991409
30
0
10
5.950495960181394
20
12.773359438999297
30
0
10
5.9774460424236864
20
12.745798034814714
30
0
10
6.0053326056360978
20
12.714533511149664
30
0
10
6.0343514136932264
20
12.678942474764085
30
0
10
6.0644162527163061
20
12.639462125888491
30
0
10
6.0952641495295277
20
12.597183369561554
30
0
10
6.1265315929637643
20
12.553551302683028
30
0
10
6.1578444951340661
20
12.510014600913607
30
0
10
6.1888963233621235
20
12.467719121996609
30
0
10
6.219545675567387
20
12.427128469453399
30
0
10
6.2498594677698369
20
12.387848947189221
30
0
10
6.2800144034692327
20
12.34898657499955
30
0
10
6.310226496323307
20
12.309399417291427
30
0
10
6.3406665348472613
20
12.268000887210231
30
0
10
6.371388411611111
20
12.224018806191079
30
0
10
6.4022351167242837
20
12.177328268052333
30
0
10
6.4328118294389105
20
12.128565093446007
30
0
10
6.4625738034634885
20
12.078864809187204
30
0
10
6.4908883198982332
20
12.029686208279559
30
0
10
6.5171069267032822
20
11.982601373228196
30
0
10
6.5406333488579245
20
11.939099922126992
30
0
10
6.5609930652144293
20
11.900387736190522
30
0
10
6.577902894021709
20
11.867186130942226
30
0
10
6.5885590192165369
20
11.845319319928777
30
0
10
6.5949154364482743
20
11.831612438505626
30
0
10
6.5984262289011415
20
11.823671260242277
30
0
10
6.5999999202377211
20
11.819999857153009
30
0
0
SPLINE
5
113
100
AcDbEntity
8
0
100
AcDbSpline
70
4
71
5
72
81
73
75
74
0
42
0.000000001
43
0.0000000001
44
0.0000000001
40
0
40
0
40
0
40
0
40
0
40
0
40
0.014285714285714285
40
0.028571428571428571
40
0.042857142857142858
40
0.057142857142857141
40
0.071428571428571425
40
0.085714285714285715
40
0.10000000000000001
40
0.1142857142857143
40
0.12857142857142859
40
0.14285714285714288
40
0.15714285714285717
40
0.17142857142857146
40
0.18571428571428575
40
0.20000000000000004
40
0.21428571428571433
40
0.22857142857142862
40
0.24285714285714291
40
0.25714285714285717
40
0.27142857142857146
40
0.28571428571428575
40
0.30000000000000004
40
0.31428571428571433
40
0.32857142857142863
40
0.34285714285714292
40
0.35714285714285721
40
0.3714285714285715
40
0.38571428571428579
40
0.40000000000000008
40
0.41428571428571437
40
0.42857142857142866
40
0.44285714285714295
40
0.45714285714285724
40
0.47142857142857153
40
0.48571428571428582
40
0.50000000000000011
40
0.51428571428571435
40
0.52857142857142858
40
0.54285714285714282
40
0.55714285714285705
40
0.57142857142857129
40
0.58571428571428552
40
0.59999999999999976
40
0.61428571428571399
40
0.62857142857142823
40
0.64285714285714246
40
0.6571428571428567
40
0.67142857142857093
40
0.68571428571428517
40
0.6999999999999994
40
0.71428571428571364
40
0.72857142857142787
40
0.74285714285714211
40
0.75714285714285634
40
0.77142857142857058
40
0.78571428571428481
40
0.79999999999999905
40
0.81428571428571328
40
0.82857142857142752
40
0.84285714285714175
40
0.85714285714285599
40
0.87142857142857022
40
0.88571428571428445
40
0.89999999999999869
40
0.91428571428571292
40
0.92857142857142716
40
0.94285714285714139
40
0.95714285714285563
40
0.97142857142856986
40
0.9857142857142841
40
1
40
1
40
1
40
1
40
1
40
1
41
1
41
1
41
1
41
1
41
1
41
1
41
1
41
1
41
1
41
1
41
1
41
1
41
1
41
1
41
1
41
1
41
1
41
1
41
1
41
1
41
1
41
1
41
1
41
1
41
1
41
1
41
1
41
1
41
1
41
1
41
1
41
1
41
1
41
1
41
1
41
1
41
1
41
1
41
1
41
1
41
1
41
1
41
1
41
1
41
1
41
1
41
1
41
1
41
1
41
1
41
1
41
1
41
1
41
1
41
1
41
1
41
1
41
1
41
1
41
1
41
1
41
1
41
1
41
1
41
1
41
1
41
1
41
1
41
1
41
1
41
1
41
1
41
1
41
1
41
1
10
6.5999999202377211
20
11.819999857153009
30
0
10
6.6029412322639551
20
11.813452436378846
30
0
10
6.6078035503373078
20
11.801202086779462
30
0
10
6.6120360451973932
20
11.78536017940686
30
0
10
6.6115559309795833
20
11.769305329061426
30
0
10
6.600932122080347
20
11.757371089127988
30
0
10
6.5808621181530409
20
11.752595020413507
30
0
10
6.552492299316838
20
11.753065216672136
30
0
10
6.517354542371594
20
11.756467492540763
30
0
10
6.4772114528008808
20
11.760547397555563
30
0
10
6.4338894313569597
20
11.763618407178949
30
0
10
6.3891216810936911
20
11.76499721665817
30
0
10
6.3444374977586167
20
11.764698001466881
30
0
10
6.301054174088355
20
11.763183711553749
30
0
10
6.2597566887353358
20
11.761085150571461
30
0
10
6.2208066599876375
20
11.758960040699078
30
0
10
6.183777431389303
20
11.756971116448581
30
0
10
6.1476533645770548
20
11.754845313882907
30
0
10
6.111197160114366
20
11.752121448050133
30
0
10
6.0732630008460529
20
11.748331305785479
30
0
10
6.0330933451496449
20
11.743184927675649
30
0
10
5.9907177087032233
20
11.73681055704655
30
0
10
5.9469167863882744
20
11.72973847792672
30
0
10
5.9027995103719189
20
11.722653765011987
30
0
10
5.8594948077314459
20
11.716217041855622
30
0
10
5.8177856690732721
20
11.710852191329087
30
0
10
5.7777927506091551
20
11.706560046181332
30
0
10
5.7385689183083848
20
11.702688155687596
30
0
10
5.698695783575773
20
11.698191711780721
30
0
10
5.6569469765430611
20
11.691931678958664
30
0
10
5.6129789880960068
20
11.682975459272948
30
0
10
5.5678952835974993
20
11.670860419894199
30
0
10
5.525149871731081
20
11.655962328369677
30
0
10
5.4902789477901122
20
11.639499679093257
30
0
10
5.4688959024240384
20
11.623006433446553
30
0
10
5.4652022720926388
20
11.607952125846595
30
0
10
5.4800840709124321
20
11.595264088316021
30
0
10
5.5099944630401465
20
11.585005618420681
30
0
10
5.5491625783085707
20
11.576664561589778
30
0
10
5.5913067646310672
20
11.569357708964901
30
0
10
5.6316351534673252
20
11.562072674596052
30
0
10
5.668450163203592
20
11.553877692305848
30
0
10
5.7021402143046611
20
11.543977269976301
30
0
10
5.7343849174619281
20
11.531782958825902
30
0
10
5.7673141686357683
20
11.516972913634223
30
0
10
5.8026106040178451
20
11.499570240813824
30
0
10
5.8408754512934671
20
11.479971339345671
30
0
10
5.8819778071363711
20
11.458800143638134
30
0
10
5.9252398387286132
20
11.436792535446466
30
0
10
5.9696905897389989
20
11.414665344189837
30
0
10
6.0142786731025986
20
11.393000634272495
30
0
10
6.0581297650041792
20
11.372102303445192
30
0
10
6.1006947838440277
20
11.351933535917974
30
0
10
6.1416684737767335
20
11.332232904577262
30
0
10
6.1809546913607276
20
11.312592594806119
30
0
10
6.2186130487389981
20
11.292554287348388
30
0
10
6.2548146368313544
20
11.271690931415389
30
0
10
6.2897919300956167
20
11.249710339329882
30
0
10
6.3237987830690194
20
11.226493562529019
30
0
10
6.357082610437752
20
11.202037540898823
30
0
10
6.3898538769287327
20
11.1764207110482
30
0
10
6.4222564414960353
20
11.149759351121949
30
0
10
6.4543379043167368
20
11.122168287160818
30
0
10
6.4860186228212529
20
11.093718874203622
30
0
10
6.5171261720087541
20
11.064447396684296
30
0
10
6.5474306106724205
20
11.034364083780805
30
0
10
6.5766804524932905
20
11.003462113329855
30
0
10
6.6046358227642017
20
10.971726080362222
30
0
10
6.6311088749358644
20
10.93914194811448
30
0
10
6.6559792696825211
20
10.905701793595332
30
0
10
6.6791750187229963
20
10.871401306541093
30
0
10
6.6963645356679562
20
10.843271525885852
30
0
10
6.7084829942776345
20
10.8217864383413
30
0
10
6.7162182332327518
20
10.807290771673872
30
0
10
6.719999918787499
20
10.799999869479908
30
0
0
SPLINE
5
114
100
AcDbEntity
8
0
100
AcDbSpline
70
4
71
5
72
91
73
85
74
0
42
0.000000001
43
0.0000000001
44
0.0000000001
40
0
40
0
40
0
40
0
40
0
40
0
40
0.012500000000000001
40
0.025000000000000001
40
0.037500000000000006
40
0.050000000000000003
40
0.0625
40
0.074999999999999997
40
0.087499999999999994
40
0.099999999999999992
40
0.11249999999999999
40
0.12499999999999999
40
0.13749999999999998
40
0.14999999999999999
40
0.16250000000000001
40
0.17500000000000002
40
0.18750000000000003
40
0.20000000000000004
40
0.21250000000000005
40
0.22500000000000006
40
0.23750000000000007
40
0.25000000000000006
40
0.26250000000000007
40
0.27500000000000008
40
0.28750000000000009
40
0.3000000000000001
40
0.31250000000000011
40
0.32500000000000012
40
0.33750000000000013
40
0.35000000000000014
40
0.36250000000000016
40
0.37500000000000017
40
0.38750000000000018
40
0.40000000000000019
40
0.4125000000000002
40
0.42500000000000021
40
0.43750000000000022
40
0.45000000000000023
40
0.46250000000000024
40
0.47500000000000026
40
0.48750000000000027
40
0.50000000000000022
40
0.51250000000000018
40
0.52500000000000013
40
0.53750000000000009
40
0.55000000000000004
40
0.5625
40
0.57499999999999996
40
0.58749999999999991
40
0.59999999999999987
40
0.61249999999999982
40
0.62499999999999978
40
0.63749999999999973
40
0.64999999999999969
40
0.66249999999999964
40
0.6749999999999996
40
0.68749999999999956
40
0.69999999999999951
40
0.71249999999999947
40
0.72499999999999942
40
0.73749999999999938
40
0.74999999999999933
40
0.76249999999999929
40
0.77499999999999925
40
0.7874999999999992
40
0.79999999999999916
40
0.81249999999999911
40
0.82499999999999907
40
0.83749999999999902
40
0.84999999999999898
40
0.86249999999999893
40
0.87499999999999889
40
0.88749999999999885
40
0.8999999999999988
40
0.91249999999999876
40
0.92499999999999871
40
0.93749999999999867
40
0.94999999999999862
40
0.96249999999999858
40
0.97499999999999853
40
0.98749999999999849
40
1
40
1
40
1
40
1
40
1
40
1
41
1
41
1
41
1
41
1
41
1
41
1
41
1
41
1
41
1
41
1
41
1
41
1
41
1
41
1
41
1
41
1
41
1
41
1
41
1
41
1
41
1
41
1
41
1
41
1
41
1
41
1
41
1
41
1
41
1
41
1
41
1
41
1
41
1
41
1
41
1
41
1
41
1
41
1
41
1
41
1
41
1
41
1
41
1
41
1
41
1
41
1
41
1
41
1
41
1
41
1
41
1
41
1
41
1
41
1
41
1
41
1
41
1
41
1
41
1
41
1
41
1
41
1
41
1
41
1
41
1
41
1
41
1
41
1
41
1
41
1
41
1
41
1
41
1
41
1
41
1
41
1
41
1
41
1
41
1
41
1
41
1
41
1
41
1
41
1
41
1
10
6.7199999187874973
20
10.799999869479906
30
0
10
6.7130468220148245
20
10.799460613513325
30
0
10
6.6993302502128564
20
10.798534941749107
30
0
10
6.6793241813069191
20
10.797604886879656
30
0
10
6.6537879529538984
20
10.797282540192667
30
0
10
6.623609498952125
20
10.798281688972144
30
0
10
6.5947150894668631
20
10.800309077834957
30
0
10
6.5661639753824037
20
10.802594899191426
30
0
10
6.5364539848979399
20
10.803914927008728
30
0
10
6.5039857923629762
20
10.803023249437164
30
0
10
6.4674205316748843
20
10.798983075644609
30
0
10
6.4261537542191478
20
10.791616723771142
30
0
10
6.3804896408442016
20
10.781639018881185
30
0
10
6.3312896684368267
20
10.770229603357155
30
0
10
6.2797427676075097
20
10.758737222382333
30
0
10
6.2270752955958812
20
10.74831394149475
30
0
10
6.1743144617784012
20
10.739619535964005
30
0
10
6.1219593575197404
20
10.732394008473875
30
0
10
6.0700149477259107
20
10.725558942982071
30
0
10
6.0182544935486337
20
10.717652791086687
30
0
10
5.9664072265839199
20
10.70715740963665
30
0
10
5.9143895860067621
20
10.692886620333228
30
0
10
5.8624883111882529
20
10.674308503597361
30
0
10
5.8116363665674617
20
10.651993600950215
30
0
10
5.7634080455907561
20
10.627685144914052
30
0
10
5.7194243471389372
20
10.603585059243072
30
0
10
5.6809037604400787
20
10.581823919713806
30
0
10
5.6481096484708866
20
10.563818310228381
30
0
10
5.619944988738343
20
10.549766350619475
30
0
10
5.5932164301344134
20
10.537851157860862
30
0
10
5.5635403696462449
20
10.524869760629185
30
0
10
5.5270084006038296
20
10.50750650780553
30
0
10
5.4815075113609444
20
10.483333057966339
30
0
10
5.428418535143714
20
10.452074787213297
30
0
10
5.3734368099270089
20
10.416296623619298
30
0
10
5.3242923984231485
20
10.380084868471611
30
0
10
5.2890177397927483
20
10.348071950811182
30
0
10
5.2738762886097472
20
10.324267572237064
30
0
10
5.2817229859022099
20
10.311110716454909
30
0
10
5.3094541593582667
20
10.308078804655675
30
0
10
5.3490598061031465
20
10.312023201419034
30
0
10
5.3914696140505542
20
10.318817466156519
30
0
10
5.4292986790100422
20
10.324521682971916
30
0
10
5.460734195626193
20
10.326987314671527
30
0
10
5.4884030641807557
20
10.325683471988075
30
0
10
5.5167641807411893
20
10.321017407997884
30
0
10
5.5500420699739825
20
10.313832461230271
30
0
10
5.5897991633103885
20
10.304805830870894
30
0
10
5.6355298780954408
20
10.294459963760467
30
0
10
5.6853903933396932
20
10.283197554714851
30
0
10
5.7369036780402061
20
10.271330013679279
30
0
10
5.7876205339258178
20
10.259105617223071
30
0
10
5.8359309527610987
20
10.246744939771732
30
0
10
5.881286054364562
20
10.234444344768663
30
0
10
5.923844389405942
20
10.222347969456306
30
0
10
5.9642755054932319
20
10.210527893287354
30
0
10
6.0035021967801727
20
10.198961806259371
30
0
10
6.0424637382960418
20
10.187509481723319
30
0
10
6.0818864081548893
20
10.17589586754149
30
0
10
6.1222766577469532
20
10.16377768647293
30
0
10
6.1638963372675351
20
10.150803999474933
30
0
10
6.2067447336919805
20
10.136678905398229
30
0
10
6.2505371068670152
20
10.121223703150445
30
0
10
6.2946854399747387
20
10.104438419501044
30
0
10
6.3384482053640001
20
10.086431487551916
30
0
10
6.3810738835594867
20
10.067353320540601
30
0
10
6.4219553662210203
20
10.047324173632331
30
0
10
6.4607602315087114
20
10.026374267578804
30
0
10
6.497620103406395
20
10.004354266649832
30
0
10
6.5331001480760138
20
9.9809560164475037
30
0
10
6.5679672099553184
20
9.9558337714522871
30
0
10
6.6030077479808353
20
9.9287013370363084
30
0
10
6.6388385411078517
20
9.8994310659070504
30
0
10
6.6756890365036199
20
9.8681714913831478
30
0
10
6.7132985622698511
20
9.8353937878354056
30
0
10
6.7510884882335347
20
9.8017688327967996
30
0
10
6.7882761214358629
20
9.7680805123654579
30
0
10
6.8240162319175877
20
9.7351210541689248
30
0
10
6.8575199446356585
20
9.703602549888247
30
0
10
6.8882099079307171
20
9.6740405077515241
30
0
10
6.9157532771849413
20
9.6467336041594667
30
0
10
6.9351358771282063
20
9.6268130877839564
30
0
10
6.9481572196867631
20
9.6129770645920072
30
0
10
6.9561645997857999
20
9.6042438184867738
30
0
10
6.9599999158870514
20
9.5999998839821394
30
0
0
SPLINE
5
115
100
AcDbEntity
8
0
100
AcDbSpline
70
4
71
5
72
71
73
65
74
0
42
0.000000001
43
0.0000000001
44
0.0000000001
40
0
40
0
40
0
40
0
40
0
40
0
40
0.016666666666666666
40
0.033333333333333333
40
0.050000000000000003
40
0.066666666666666666
40
0.083333333333333329
40
0.099999999999999992
40
0.11666666666666665
40
0.13333333333333333
40
0.14999999999999999
40
0.16666666666666666
40
0.18333333333333332
40
0.19999999999999998
40
0.21666666666666665
40
0.23333333333333331
40
0.24999999999999997
40
0.26666666666666666
40
0.28333333333333333
40
0.29999999999999999
40
0.31666666666666665
40
0.33333333333333331
40
0.34999999999999998
40
0.36666666666666664
40
0.3833333333333333
40
0.39999999999999997
40
0.41666666666666663
40
0.43333333333333329
40
0.44999999999999996
40
0.46666666666666662
40
0.48333333333333328
40
0.49999999999999994
40
0.51666666666666661
40
0.53333333333333333
40
0.55000000000000004
40
0.56666666666666676
40
0.58333333333333348
40
0.6000000000000002
40
0.61666666666666692
40
0.63333333333333364
40
0.65000000000000036
40
0.66666666666666707
40
0.68333333333333379
40
0.70000000000000051
40
0.71666666666666723
40
0.73333333333333395
40
0.75000000000000067
40
0.76666666666666738
40
0.7833333333333341
40
0.80000000000000082
40
0.81666666666666754
40
0.83333333333333426
40
0.85000000000000098
40
0.8666666666666677
40
0.88333333333333441
40
0.90000000000000113
40
0.91666666666666785
40
0.93333333333333457
40
0.95000000000000129
40
0.96666666666666801
40
0.98333333333333472
40
1
40
1
40
1
40
1
40
1
40
1
41
1
41
1
41
1
41
1
41
1
41
1
41
1
41
1
41
1
41
1
41
1
41
1
41
1
41
1
41
1
41
1
41
1
41
1
41
1
41
1
41
1
41
1
41
1
41
1
41
1
41
1
41
1
41
1
41
1
41
1
41
1
41
1
41
1
41
1
41
1
41
1
41
1
41
1
41
1
41
1
41
1
41
1
41
1
41
1
41
1
41
1
41
1
41
1
41
1
41
1
41
1
41
1
41
1
41
1
41
1
41
1
41
1
41
1
41
1
41
1
41
1
41
1
41
1
41
1
41
1
10
6.9599999158870514
20
9.5999998839821394
30
0
10
6.9525379275116626
20
9.5975657381064767
30
0
10
6.9373801505098074
20
9.5922643158321073
30
0
10
6.9139420339888522
20
9.5830127424769032
30
0
10
6.8812881109509689
20
9.5680776751996088
30
0
10
6.8382126197707649
20
9.5451540729919007
30
0
10
6.793134892395055
20
9.5182293114536396
30
0
10
6.746557347063673
20
9.4878059568946895
30
0
10
6.6993569137666373
20
9.4547635819944187
30
0
10
6.6526361604320421
20
9.4202199854897746
30
0
10
6.6074664761864916
20
9.3852876139251507
30
0
10
6.5646487311494317
20
9.3508484567609322
30
0
10
6.5245046321631994
20
9.317354991854744
30
0
10
6.4865582846272476
20
9.284534244693269
30
0
10
6.4497094445761869
20
9.2515279145866618
30
0
10
6.412716136858541
20
9.217307220066326
30
0
10
6.3745872118125142
20
9.1810074780298017
30
0
10
6.3350038126755939
20
9.1422888799855588
30
0
10
6.294752805700786
20
9.1017062132614441
30
0
10
6.2552559988129408
20
9.060327784585672
30
0
10
6.2180679554660419
20
9.019328048677977
30
0
10
6.1843843404614258
20
8.9795891205243308
30
0
10
6.1545492279690039
20
8.9413013003775248
30
0
10
6.1275499875321504
20
8.9035535887556705
30
0
10
6.1015944718600297
20
8.8648262904918766
30
0
10
6.0747384051465474
20
8.8235272027782283
30
0
10
6.0454330759540778
20
8.7784575959800151
30
0
10
6.0132537827907564
20
8.7294384779402794
30
0
10
5.9789337773265698
20
8.6773207752843735
30
0
10
5.9438390271194779
20
8.6234994548009229
30
0
10
5.9096020471744524
20
8.5695686170369711
30
0
10
5.8776954345130754
20
8.5169234137947019
30
0
10
5.8490209880817412
20
8.4663748589256613
30
0
10
5.8235198959241732
20
8.4177856105291013
30
0
10
5.8004898131467488
20
8.3703827075772068
30
0
10
5.7788721886363197
20
8.323041768678344
30
0
10
5.7575440755394975
20
8.2745758283316313
30
0
10
5.7356216282567996
20
8.2240344276794772
30
0
10
5.7127183760248661
20
8.1709622512057081
30
0
10
5.6888241190829127
20
8.1153214573665711
30
0
10
5.6642207468760635
20
8.0574446801293185
30
0
10
5.6393838379294072
20
7.9979809195113747
30
0
10
5.6148922564284174
20
7.9378361710824175
30
0
10
5.5913306938803293
20
7.8781395993494643
30
0
10
5.5692180683274568
20
7.8200753804058785
30
0
10
5.5489485352622063
20
7.7646641969979431
30
0
10
5.5307237219154857
20
7.7125481789681052
30
0
10
5.5144983888788746
20
7.6638016849745503
30
0
10
5.499895497852032
20
7.6176628392168162
30
0
10
5.4862141339587849
20
7.5725190427254629
30
0
10
5.4726331532393102
20
7.5264339237813012
30
0
10
5.4583793825931108
20
7.4775749784347711
30
0
10
5.4428990454531068
20
7.4246529608364664
30
0
10
5.4260564360772099
20
7.3674293073388304
30
0
10
5.4080655846389289
20
7.3065426394107371
30
0
10
5.3893708276610814
20
7.2432045606009705
30
0
10
5.3705442977834474
20
7.178938729281171
30
0
10
5.3521798090858272
20
7.1153107100677593
30
0
10
5.3347807883958884
20
7.0536425327290981
30
0
10
5.3186735114903874
20
6.9947921232368717
30
0
10
5.3040542246145135
20
6.9392759777015725
30
0
10
5.293625552335838
20
6.8977319845714513
30
0
10
5.2865304130342183
20
6.8682244408348279
30
0
10
5.2821229837937702
20
6.8492858978072233
30
0
10
5.279999936190177
20
6.8399999173372743
30
0
0
SPLINE
5
116
100
AcDbEntity
8
0
100
AcDbSpline
70
4
71
5
72
51
73
45
74
0
42
0.000000001
43
0.0000000001
44
0.0000000001
40
0
40
0
40
0
40
0
40
0
40
0
40
0.025000000000000001
40
0.050000000000000003
40
0.075000000000000011
40
0.10000000000000001
40
0.125
40
0.14999999999999999
40
0.17499999999999999
40
0.19999999999999998
40
0.22499999999999998
40
0.24999999999999997
40
0.27499999999999997
40
0.29999999999999999
40
0.32500000000000001
40
0.35000000000000003
40
0.37500000000000006
40
0.40000000000000008
40
0.4250000000000001
40
0.45000000000000012
40
0.47500000000000014
40
0.50000000000000011
40
0.52500000000000013
40
0.55000000000000016
40
0.57500000000000018
40
0.6000000000000002
40
0.62500000000000022
40
0.65000000000000024
40
0.67500000000000027
40
0.70000000000000029
40
0.72500000000000031
40
0.75000000000000033
40
0.77500000000000036
40
0.80000000000000038
40
0.8250000000000004
40
0.85000000000000042
40
0.87500000000000044
40
0.90000000000000047
40
0.92500000000000049
40
0.95000000000000051
40
0.97500000000000053
40
1
40
1
40
1
40
1
40
1
40
1
41
1
41
1
41
1
41
1
41
1
41
1
41
1
41
1
41
1
41
1
41
1
41
1
41
1
41
1
41
1
41
1
41
1
41
1
41
1
41
1
41
1
41
1
41
1
41
1
41
1
41
1
41
1
41
1
41
1
41
1
41
1
41
1
41
1
41
1
41
1
41
1
41
1
41
1
41
1
41
1
41
1
41
1
41
1
41
1
41
1
10
5.279999936190177
20
6.8399999173372743
30
0
10
5.2778655164140726
20
6.8302425058054732
30
0
10
5.2735472072070291
20
6.8104139064873292
30
0
10
5.2669213197923463
20
6.779729617144536
30
0
10
5.2577897805642388
20
6.736933067311603
30
0
10
5.245902787164848
20
6.6803791656557454
30
0
10
5.2336161168555
20
6.6210427938392629
30
0
10
5.2210738957773524
20
6.5594733034847383
30
0
10
5.2085287143699111
20
6.4966426863796318
30
0
10
5.1963137709250571
20
6.4338206412092047
30
0
10
5.1847711348130447
20
6.3722653643782436
30
0
10
5.1741900256234983
20
6.3129555594047586
30
0
10
5.164747401269393
20
6.2563340028844294
30
0
10
5.1564300338851501
20
6.2019682093465915
30
0
10
5.1490795076902742
20
6.1487571055789303
30
0
10
5.1424790278410981
20
6.0953218911451685
30
0
10
5.1364192005159355
20
6.0403066260352682
30
0
10
5.1307881038772738
20
5.9827797345216007
30
0
10
5.1255932965347748
20
5.9223578143100717
30
0
10
5.120906427746486
20
5.8590128125605219
30
0
10
5.1168259447745212
20
5.7929569012100304
30
0
10
5.113436513966481
20
5.7245065070978498
30
0
10
5.1107599408860178
20
5.6539327194469085
30
0
10
5.1087604745847139
20
5.5814385908162878
30
0
10
5.1073782127500218
20
5.5072046416881459
30
0
10
5.1065535465171621
20
5.4314127325937189
30
0
10
5.106254998073724
20
5.3542787912169523
30
0
10
5.1065062587304872
20
5.2760825364452995
30
0
10
5.1074120220983108
20
5.1971972062109639
30
0
10
5.1091201490082208
20
5.1180588988775266
30
0
10
5.1117860446970953
20
5.0391382837461416
30
0
10
5.1155360438146751
20
4.960911518603174
30
0
10
5.1204314769053569
20
4.8838317647136646
30
0
10
5.1264311814771109
20
4.8082998603156479
30
0
10
5.1333569225788764
20
4.7346364583757721
30
0
10
5.1409389508483061
20
4.6630921451462681
30
0
10
5.1488573623494753
20
4.593855839627353
30
0
10
5.1567863838181163
20
4.5270633863288277
30
0
10
5.1644335268345802
20
4.462805773448399
30
0
10
5.1715904467799945
20
4.4011368759021758
30
0
10
5.1781377150429311
20
4.3420822086858086
30
0
10
5.1828403414914632
20
4.2969351865202565
30
0
10
5.1860582341897015
20
4.2642528963890012
30
0
10
5.1880662415664967
20
4.2429877161471321
30
0
10
5.1890359331825957
20
4.2324858792925504
30
0
0
SPLINE
5
117
100
AcDbEntity
8
0
100
AcDbSpline
70
4
71
5
72
51
73
45
74
0
42
0.000000001
43
0.0000000001
44
0.0000000001
40
0
40
0
40
0
40
0
40
0
40
0
40
0.025000000000000001
40
0.050000000000000003
40
0.075000000000000011
40
0.10000000000000001
40
0.125
40
0.14999999999999999
40
0.17499999999999999
40
0.19999999999999998
40
0.22499999999999998
40
0.24999999999999997
40
0.27499999999999997
40
0.29999999999999999
40
0.32500000000000001
40
0.35000000000000003
40
0.37500000000000006
40
0.40000000000000008
40
0.4250000000000001
40
0.45000000000000012
40
0.47500000000000014
40
0.50000000000000011
40
0.52500000000000013
40
0.55000000000000016
40
0.57500000000000018
40
0.6000000000000002
40
0.62500000000000022
40
0.65000000000000024
40
0.67500000000000027
40
0.70000000000000029
40
0.72500000000000031
40
0.75000000000000033
40
0.77500000000000036
40
0.80000000000000038
40
0.8250000000000004
40
0.85000000000000042
40
0.87500000000000044
40
0.90000000000000047
40
0.92500000000000049
40
0.95000000000000051
40
0.97500000000000053
40
1
40
1
40
1
40
1
40
1
40
1
41
1
41
1
41
1
41
1
41
1
41
1
41
1
41
1
41
1
41
1
41
1
41
1
41
1
41
1
41
1
41
1
41
1
41
1
41
1
41
1
41
1
41
1
41
1
41
1
41
1
41
1
41
1
41
1
41
1
41
1
41
1
41
1
41
1
41
1
41
1
41
1
41
1
41
1
41
1
41
1
41
1
41
1
41
1
41
1
41
1
10
5.1890359331825957
20
4.2324858792925504
30
0
10
5.1896548738366777
20
4.2270416498218371
30
0
10
5.1909992572041261
20
4.2160875607119603
30
0
10
5.1933353372869178
20
4.1994595385083349
30
0
10
5.1970897812848973
20
4.1768946471821335
30
0
10
5.2028456153752263
20
4.1480370783037124
30
0
10
5.209647817660267
20
4.1185484138741169
30
0
10
5.217458212185079
20
4.0884730605192283
30
0
10
5.2262092028611429
20
4.0578867763571722
30
0
10
5.235793087881202
20
4.0269091729395443
30
0
10
5.2460669636206427
20
3.9956886452599907
30
0
10
5.2568631500796155
20
3.9643772696037423
30
0
10
5.2679976953696919
20
3.9331092451786827
30
0
10
5.2792794571254813
20
3.9019773795191344
30
0
10
5.2905191098586721
20
3.8710112888835266
30
0
10
5.3015375152357427
20
3.8401518354226489
30
0
10
5.3121871190169498
20
3.8092856024005983
30
0
10
5.3223738580301996
20
3.7782826865472274
30
0
10
5.3320799630959463
20
3.7470337266948612
30
0
10
5.3413847661223359
20
3.7154860672150272
30
0
10
5.3504914336259235
20
3.6836834448357214
30
0
10
5.3597378435513008
20
3.6517959136546088
30
0
10
5.3694986488169683
20
3.6200868101297639
30
0
10
5.3801028101412554
20
3.5888861396255911
30
0
10
5.3917383013353497
20
3.5585635596134368
30
0
10
5.4043771338101241
20
3.5294976779502503
30
0
10
5.4176534640515595
20
3.5020566968006084
30
0
10
5.4308857484039779
20
3.4765420439662607
30
0
10
5.4433548629886248
20
3.4530733808848151
30
0
10
5.4545430509844071
20
3.4314723892658945
30
0
10
5.4643527028885837
20
3.4111742543553683
30
0
10
5.4734234188263242
20
3.3910568992113692
30
0
10
5.4830907551225403
20
3.369551601221755
30
0
10
5.494873831417328
20
3.3451151297559596
30
0
10
5.5100587187440002
20
3.3166356779338098
30
0
10
5.5292910108377429
20
3.2838158126519827
30
0
10
5.5520430681536252
20
3.2476941461927842
30
0
10
5.5766062415740718
20
3.2106102330275301
30
0
10
5.6006104859159338
20
3.1756126946708712
30
0
10
5.6213863989404933
20
3.1460349428513865
30
0
10
5.6364109600870531
20
3.1249788471549684
30
0
10
5.6422175589965562
20
3.1169120120078411
30
0
10
5.6426328303110838
20
3.1163367766850874
30
0
10
5.6411681051825759
20
3.1183749547779862
30
0
10
5.6399999318395073
20
3.1199999622941954
30
0
0
SPLINE
5
118
100
AcDbEntity
8
0
100
AcDbSpline
70
4
71
5
72
31
73
25
74
0
42
0.000000001
43
0.0000000001
44
0.0000000001
40
0
40
0
40
0
40
0
40
0
40
0
40
0.050000000000000003
40
0.10000000000000001
40
0.15000000000000002
40
0.20000000000000001
40
0.25
40
0.29999999999999999
40
0.34999999999999998
40
0.39999999999999997
40
0.44999999999999996
40
0.49999999999999994
40
0.54999999999999993
40
0.59999999999999998
40
0.65000000000000002
40
0.70000000000000007
40
0.75000000000000011
40
0.80000000000000016
40
0.8500000000000002
40
0.90000000000000024
40
0.95000000000000029
40
1
40
1
40
1
40
1
40
1
40
1
41
1
41
1
41
1
41
1
41
1
41
1
41
1
41
1
41
1
41
1
41
1
41
1
41
1
41
1
41
1
41
1
41
1
41
1
41
1
41
1
41
1
41
1
41
1
41
1
41
1
10
5.6399999318395073
20
3.1199999622941954
30
0
10
5.6441366738956376
20
3.1134102253588076
30
0
10
5.6525588107494515
20
3.1000829537810408
30
0
10
5.6656379755054083
20
3.0796486507111891
30
0
10
5.6839724099648929
20
3.0515125244549388
30
0
10
5.7083830963704996
20
3.0148765332458654
30
0
10
5.734248553244206
20
2.9768674324439091
30
0
10
5.7614633923954264
20
2.9377004149813026
30
0
10
5.7898209576291162
20
2.8977672035099329
30
0
10
5.8189834285608093
20
2.8576831644210618
30
0
10
5.8485558634725656
20
2.8181641554942116
30
0
10
5.8781514887044493
20
2.7799169353857516
30
0
10
5.9074631810076355
20
2.7435183094530551
30
0
10
5.9363249135968292
20
2.7093102055421143
30
0
10
5.9648009136141971
20
2.6772469351096451
30
0
10
5.9931457195347484
20
2.6469594519911039
30
0
10
6.0217148535289775
20
2.6179019526849796
30
0
10
6.0508928713142582
20
2.5894676370747609
30
0
10
6.0810166766093277
20
2.561111505063256
30
0
10
6.1122950854518781
20
2.5324768154778559
30
0
10
6.1448367122466818
20
2.5033594080290804
30
0
10
6.1719136895417481
20
2.479602496116597
30
0
10
6.1928096745428745
20
2.4615124166548288
30
0
10
6.207000719036369
20
2.449331781364152
30
0
10
6.2141613379407197
20
2.4432113187221449
30
0
0
SPLINE
5
119
100
AcDbEntity
8
0
100
AcDbSpline
70
4
71
5
72
96
73
90
74
0
42
0.000000001
43
0.0000000001
44
0.0000000001
40
0
40
0
40
0
40
0
40
0
40
0
40
0.011764705882352941
40
0.023529411764705882
40
0.035294117647058823
40
0.047058823529411764
40
0.058823529411764705
40
0.070588235294117646
40
0.082352941176470587
40
0.094117647058823528
40
0.10588235294117647
40
0.11764705882352941
40
0.12941176470588234
40
0.14117647058823529
40
0.15294117647058825
40
0.1647058823529412
40
0.17647058823529416
40
0.18823529411764711
40
0.20000000000000007
40
0.21176470588235302
40
0.22352941176470598
40
0.23529411764705893
40
0.24705882352941189
40
0.25882352941176484
40
0.2705882352941178
40
0.28235294117647075
40
0.29411764705882371
40
0.30588235294117666
40
0.31764705882352962
40
0.32941176470588257
40
0.34117647058823553
40
0.35294117647058848
40
0.36470588235294144
40
0.37647058823529439
40
0.38823529411764734
40
0.4000000000000003
40
0.41176470588235325
40
0.42352941176470621
40
0.43529411764705916
40
0.44705882352941212
40
0.45882352941176507
40
0.47058823529411803
40
0.48235294117647098
40
0.49411764705882394
40
0.50588235294117689
40
0.51764705882352979
40
0.52941176470588269
40
0.54117647058823559
40
0.55294117647058849
40
0.56470588235294139
40
0.57647058823529429
40
0.58823529411764719
40
0.60000000000000009
40
0.61176470588235299
40
0.62352941176470589
40
0.63529411764705879
40
0.64705882352941169
40
0.65882352941176459
40
0.67058823529411749
40
0.68235294117647038
40
0.69411764705882328
40
0.70588235294117618
40
0.71764705882352908
40
0.72941176470588198
40
0.74117647058823488
40
0.75294117647058778
40
0.76470588235294068
40
0.77647058823529358
40
0.78823529411764648
40
0.79999999999999938
40
0.81176470588235228
40
0.82352941176470518
40
0.83529411764705808
40
0.84705882352941098
40
0.85882352941176388
40
0.87058823529411677
40
0.88235294117646967
40
0.89411764705882257
40
0.90588235294117547
40
0.91764705882352837
40
0.92941176470588127
40
0.94117647058823417
40
0.95294117647058707
40
0.96470588235293997
40
0.97647058823529287
40
0.98823529411764577
40
1
40
1
40
1
40
1
40
1
40
1
41
1
41
1
41
1
41
1
41
1
41
1
41
1
41
1
41
1
41
1
41
1
41
1
41
1
41
1
41
1
41
1
41
1
41
1
41
1
41
1
41
1
41
1
41
1
41
1
41
1
41
1
41
1
41
1
41
1
41
1
41
1
41
1
41
1
41
1
41
1
41
1
41
1
41
1
41
1
41
1
41
1
41
1
41
1
41
1
41
1
41
1
41
1
41
1
41
1
41
1
41
1
41
1
41
1
41
1
41
1
41
1
41
1
41
1
41
1
41
1
41
1
41
1
41
1
41
1
41
1
41
1
41
1
41
1
41
1
41
1
41
1
41
1
41
1
41
1
41
1
41
1
41
1
41
1
41
1
41
1
41
1
41
1
41
1
41
1
41
1
41
1
41
1
41
1
41
1
41
1
10
6.2141613379407197
20
2.4432113187221449
30
0
10
6.2214743675143369
20
2.4356463891166098
30
0
10
6.2364487408283873
20
2.4207850712854158
30
0
10
6.259955357015361
20
2.3992987227284122
30
0
10
6.2933871095329028
20
2.3722618423311777
30
0
10
6.3385405018842125
20
2.3411289008518663
30
0
10
6.3866775377092431
20
2.3125863654243606
30
0
10
6.4370667710646714
20
2.2864871032590828
30
0
10
6.4884113362095306
20
2.2625806796952865
30
0
10
6.5390625528320685
20
2.2405001558244821
30
0
10
6.587730915471143
20
2.219770349066212
30
0
10
6.6340934107409071
20
2.1998070322485201
30
0
10
6.6793919211879134
20
2.1799272384878119
30
0
10
6.7271717813623084
20
2.1593354463114989
30
0
10
6.7813936949115066
20
2.1374420863556431
30
0
10
6.8445488787945603
20
2.114163537834167
30
0
10
6.9154576294047034
20
2.0903024866751041
30
0
10
6.9879131668162469
20
2.067728927814064
30
0
10
7.0471752847099181
20
2.0500606763579965
30
0
10
7.08011623054872
20
2.0402828490903446
30
0
10
7.0822119023947465
20
2.0392007733249793
30
0
10
7.0755086622715559
20
2.0411505799717453
30
0
10
7.0960909608600184
20
2.0372840140344164
30
0
10
7.1507387587838869
20
2.0262458088372597
30
0
10
7.2357356148359111
20
2.0093588767960302
30
0
10
7.3373259621817688
20
1.9903780279666066
30
0
10
7.4396388553708697
20
1.9733899058111797
30
0
10
7.5296568861783992
20
1.9614347004193393
30
0
10
7.6027296340958328
20
1.9550315041480475
30
0
10
7.6598905853045727
20
1.9530993223811248
30
0
10
7.7061136608781995
20
1.9536097659757188
30
0
10
7.7481720760971111
20
1.9543586178768531
30
0
10
7.7927387945890088
20
1.9536534384370206
30
0
10
7.8441986130050161
20
1.9511248642060302
30
0
10
7.9048201957987381
20
1.9474382276688844
30
0
10
7.975208931254067
20
1.9438775200684808
30
0
10
8.05466442668558
20
1.9419612236903887
30
0
10
8.1415655724953488
20
1.9430762766754242
30
0
10
8.2337705116777293
20
1.9480266446053498
30
0
10
8.3288889078322725
20
1.9569547964934355
30
0
10
8.4244480375866839
20
1.9695494360169024
30
0
10
8.5180906631779933
20
1.9851697612006365
30
0
10
8.6077585154631446
20
2.0030031241922157
30
0
10
8.6918852539303586
20
2.0222095516952425
30
0
10
8.7695786390814252
20
2.0420685895911173
30
0
10
8.8408249806567962
20
2.0621329649335114
30
0
10
8.9066351677209212
20
2.0823570118030235
30
0
10
8.9686407767443761
20
2.1029801047072025
30
0
10
9.0287453587784796
20
2.1244325422811534
30
0
10
9.0887385775948797
20
2.1472304249075709
30
0
10
9.1499637179020166
20
2.1718813172227129
30
0
10
9.2128693334721987
20
2.1987705237222044
30
0
10
9.2769733837466912
20
2.2281133219329967
30
0
10
9.3412554625666733
20
2.259973557972315
30
0
10
9.4044275934022661
20
2.2942654434454548
30
0
10
9.46526729491063
20
2.3307596259507428
30
0
10
9.5228937189139931
20
2.3690929216196581
30
0
10
9.5771454372358757
20
2.4087620140084169
30
0
10
9.6284981719209544
20
2.4492005969043555
30
0
10
9.677783924282199
20
2.4898912677968847
30
0
10
9.7259679936874708
20
2.5304714016064516
30
0
10
9.7739147089954521
20
2.5708303840430617
30
0
10
9.8221278504346934
20
2.611237732007706
30
0
10
9.8705975166643576
20
2.6523723424197478
30
0
10
9.9189663562028763
20
2.6950644915276429
30
0
10
9.9666369219490107
20
2.7400926754664381
30
0
10
10.012902939799698
20
2.7879530075463572
30
0
10
10.057068216515752
20
2.8386534795949427
30
0
10
10.098576307035641
20
2.8914614786881812
30
0
10
10.137049546926946
20
2.9451822889487866
30
0
10
10.17231734825746
20
2.9984799361404724
30
0
10
10.204453860085881
20
3.0501997541474188
30
0
10
10.233799727802825
20
3.0996517096695575
30
0
10
10.261021246002461
20
3.1470069023787204
30
0
10
10.287022379818954
20
3.1932301778036329
30
0
10
10.312745355784676
20
3.2396590107565508
30
0
10
10.339003668391907
20
3.2876855631355326
30
0
10
10.366301592985264
20
3.3383962232551165
30
0
10
10.39465950742243
20
3.3922297665964165
30
0
10
10.423741235709427
20
3.4491323449392683
30
0
10
10.452979665864527
20
3.5087122158154829
30
0
10
10.48170636282002
20
3.5703982670144638
30
0
10
10.509270984779171
20
3.6335869855176637
30
0
10
10.535186472496207
20
3.6978191922866301
30
0
10
10.559136110568049
20
3.7627962540745363
30
0
10
10.580928696833148
20
3.8283359203276541
30
0
10
10.596562382123947
20
3.8811455926665341
30
0
10
10.607261215060788
20
3.9209516293657409
30
0
10
10.613937701550935
20
3.9475773382667056
30
0
10
10.617161926443099
20
3.9609122791528892
30
0
0
SPLINE
5
120
100
AcDbEntity
8
0
100
AcDbSpline
70
4
71
5
72
46
73
40
74
0
42
0.000000001
43
0.0000000001
44
0.0000000001
40
0
40
0
40
0
40
0
40
0
40
0
40
0.028571428571428571
40
0.057142857142857141
40
0.085714285714285715
40
0.11428571428571428
40
0.14285714285714285
40
0.17142857142857143
40
0.20000000000000001
40
0.22857142857142859
40
0.25714285714285717
40
0.28571428571428575
40
0.31428571428571433
40
0.34285714285714292
40
0.3714285714285715
40
0.40000000000000008
40
0.42857142857142866
40
0.45714285714285724
40
0.48571428571428582
40
0.51428571428571435
40
0.54285714285714293
40
0.57142857142857151
40
0.60000000000000009
40
0.62857142857142867
40
0.65714285714285725
40
0.68571428571428583
40
0.71428571428571441
40
0.74285714285714299
40
0.77142857142857157
40
0.80000000000000016
40
0.82857142857142874
40
0.85714285714285732
40
0.8857142857142859
40
0.91428571428571448
40
0.94285714285714306
40
0.97142857142857164
40
1
40
1
40
1
40
1
40
1
40
1
41
1
41
1
41
1
41
1
41
1
41
1
41
1
41
1
41
1
41
1
41
1
41
1
41
1
41
1
41
1
41
1
41
1
41
1
41
1
41
1
41
1
41
1
41
1
41
1
41
1
41
1
41
1
41
1
41
1
41
1
41
1
41
1
41
1
41
1
41
1
41
1
41
1
41
1
41
1
41
1
10
10.617161926443099
20
3.9609122791528892
30
0
10
10.617696740879206
20
3.9637083457687616
30
0
10
10.61902896303155
20
3.9708436542370564
30
0
10
10.62181508116948
20
3.9861761727988139
30
0
10
10.627107527168402
20
4.0158906982994109
30
0
10
10.636312101118872
20
4.0682554225218999
30
0
10
10.647962424131219
20
4.135020040346105
30
0
10
10.661756694186517
20
4.2144516661745648
30
0
10
10.677172721461178
20
4.3035493660586042
30
0
10
10.693417606680983
20
4.3977560098776545
30
0
10
10.709343364108159
20
4.4904690314322613
30
0
10
10.723646998520433
20
4.5741789435365998
30
0
10
10.735143729048175
20
4.641976159986906
30
0
10
10.742977432654509
20
4.6888074183128712
30
0
10
10.746943737567337
20
4.7131255589351673
30
0
10
10.747572379963811
20
4.71774451214538
30
0
10
10.746788722537669
20
4.7126203736761854
30
0
10
10.746835869421366
20
4.711732507868863
30
0
10
10.748189729773056
20
4.7245112598684438
30
0
10
10.751078185998916
20
4.7572398474199336
30
0
10
10.755272472146679
20
4.812991563344295
30
0
10
10.760302561628095
20
4.8923602341003924
30
0
10
10.765493904094617
20
4.9938300081749238
30
0
10
10.770079182775479
20
5.1142841206861611
30
0
10
10.77327776430603
20
5.2494434308449041
30
0
10
10.774387153335731
20
5.394320169137985
30
0
10
10.772873747515749
20
5.5436707410560482
30
0
10
10.768455438877128
20
5.6924164921025362
30
0
10
10.761213427036058
20
5.8361512129061879
30
0
10
10.751565124109014
20
5.9712226519290015
30
0
10
10.740172808061571
20
6.0946170512479885
30
0
10
10.727874280840876
20
6.203910576001344
30
0
10
10.715605856295426
20
6.2971975223485828
30
0
10
10.70432912413801
20
6.3730333298478437
30
0
10
10.694957184949388
20
6.4303753533864469
30
0
10
10.688279027165111
20
6.4685300032031154
30
0
10
10.685566406000403
20
6.4833852648231112
30
0
10
10.685152298686333
20
6.4856472513341812
30
0
10
10.685594311661836
20
6.4832146562505866
30
0
10
10.68599489853243
20
6.4810131804417308
30
0
0
SPLINE
5
121
100
AcDbEntity
8
0
100
AcDbSpline
70
4
71
5
72
21
73
15
74
0
42
0.000000001
43
0.0000000001
44
0.0000000001
40
0
40
0
40
0
40
0
40
0
40
0
40
0.10000000000000001
40
0.20000000000000001
40
0.30000000000000004
40
0.40000000000000002
40
0.5
40
0.59999999999999998
40
0.69999999999999996
40
0.79999999999999993
40
0.89999999999999991
40
1
40
1
40
1
40
1
40
1
40
1
41
1
41
1
41
1
41
1
41
1
41
1
41
1
41
1
41
1
41
1
41
1
41
1
41
1
41
1
41
1
10
10.68599489853243
20
6.4810131804417308
30
0
10
10.68130392690802
20
6.5050530776212616
30
0
10
10.671902442717577
20
6.5529228770809125
30
0
10
10.657741597102243
20
6.6240976291326081
30
0
10
10.638741271934579
20
6.7177163518247625
30
0
10
10.614778325236454
20
6.8324557114381141
30
0
10
10.59058239855533
20
6.944691373520234
30
0
10
10.5661320897912
20
7.0541933424290244
30
0
10
10.541411718981564
20
7.1607931149350827
30
0
10
10.516425966990727
20
7.2645409935210257
30
0
10
10.491192417611293
20
7.3656259407748985
30
0
10
10.470822353815265
20
7.444524895960865
30
0
10
10.455448110531066
20
7.5026599839387966
30
0
10
10.445156332994312
20
7.5409623295758292
30
0
10
10.439999873830576
20
7.5599999086359349
30
0
0
LWPOLYLINE
5
122
100
AcDbEntity
8
0
100
AcDbPolyline
90
3
70
1
43
0.0
10
7.6799999071857119
20
6.9599999158870514
10
6.7199999187874973
20
6.9599999158870514
10
7.1999999129866046
20
6.479999921687944
0
LWPOLYLINE
5
123
100
AcDbEntity
8
0
100
AcDbPolyline
90
3
70
1
43
0.0
10
8.5786850247744848
20
6.4598497077417152
10
9.0586850189735912
20
6.9398497019408225
10
8.0986850305753766
20
6.9398497019408225
0
LWPOLYLINE
5
124
100
AcDbEntity
8
0
100
AcDbPolyline
90
3
70
1
43
0.0
10
7.9821456784757183
20
5.5023177148265505
10
8.4621456726748256
20
5.9823177090256578
10
7.5021456842766119
20
5.9823177090256578
0
LWPOLYLINE
5
125
100
AcDbEntity
8
0
100
AcDbPolyline
90
3
70
1
43
0.0
10
9.4347021000983577
20
5.5302514921654478
10
9.914702094297466
20
6.0102514863645551
10
8.9547021058992495
20
6.0102514863645551
0
LWPOLYLINE
5
126
100
AcDbEntity
8
0
100
AcDbPolyline
90
3
70
1
43
0.0
10
6.9257879190354945
20
6.0102514863645551
10
5.9657879306372807
20
6.0102514863645551
10
6.4457879248363872
20
5.5302514921654478
0
LWPOLYLINE
5
127
100
AcDbEntity
8
0
100
AcDbPolyline
90
3
70
1
43
0.0
10
6.7479336961263945
20
5.07912557506799
10
7.2279336903255018
20
4.5991255808688827
10
7.7079336845246083
20
5.07912557506799
0
LWPOLYLINE
5
128
100
AcDbEntity
8
0
100
AcDbPolyline
90
3
70
1
43
0.0
10
9.1604901061472468
20
5.088436834180956
10
8.2004901177490339
20
5.088436834180956
10
8.6804901119481404
20
4.6084368399818496
0
LWPOLYLINE
5
129
100
AcDbEntity
8
0
100
AcDbPolyline
90
3
70
1
43
0.0
10
10.077178978892986
20
4.5991255808688827
10
10.557178973092093
20
5.07912557506799
10
9.5971789846938798
20
5.07912557506799
0
LWPOLYLINE
5
130
100
AcDbEntity
8
0
100
AcDbPolyline
90
3
70
1
43
0.0
10
5.2674434971648578
20
5.1070593524068864
10
5.7474434913639643
20
4.627059358207779
10
6.2274434855630716
20
5.1070593524068864
0
LWPOLYLINE
5
131
100
AcDbEntity
8
0
100
AcDbPolyline
90
3
70
1
43
0.0
10
6.5016554795141817
20
7.3645695374196789
10
6.981655473713289
20
7.8445695316187862
10
6.0216554853150743
20
7.8445695316187862
0
LWPOLYLINE
5
132
100
AcDbEntity
8
0
100
AcDbPolyline
90
3
70
1
43
0.0
10
7.9355893829108899
20
7.3366357600807834
10
8.4155893771099972
20
7.8166357542798908
10
7.4555893887117834
20
7.8166357542798908
0
LWPOLYLINE
5
133
100
AcDbEntity
8
0
100
AcDbPolyline
90
3
70
1
43
0.0
10
9.4533246183242881
20
7.3552582783067146
10
9.9333246125233963
20
7.835258272505822
10
8.9733246241251834
20
7.835258272505822
0
LWPOLYLINE
5
134
100
AcDbEntity
8
0
100
AcDbPolyline
90
3
70
1
43
0.0
10
7.1380334835898172
20
8.326599517712177
10
7.6180334777889245
20
8.8065995119112834
10
6.6580334893907107
20
8.8065995119112834
0
LWPOLYLINE
5
135
100
AcDbEntity
8
0
100
AcDbPolyline
90
3
70
1
43
0.0
10
8.6376210749920475
20
8.3513860894708891
10
9.1176210691911539
20
8.8313860836699973
10
8.157621080792941
20
8.8313860836699973
0
LWPOLYLINE
5
136
100
AcDbEntity
8
0
100
AcDbPolyline
90
3
70
1
43
0.0
10
6.5059759037425975
20
3.6915105988325583
10
6.9859758979417048
20
4.1715105930316652
10
6.025975909543491
20
4.1715105930316652
0
LWPOLYLINE
5
137
100
AcDbEntity
8
0
100
AcDbPolyline
90
3
70
1
43
0.0
10
7.1999999129866046
20
6.479999921687944
10
7.6799999071857119
20
6.9599999158870514
10
6.7199999187874973
20
6.9599999158870514
0
LWPOLYLINE
5
138
100
AcDbEntity
8
0
100
AcDbPolyline
90
3
70
1
43
0.0
10
7.9435970657480413
20
3.6915105988325592
10
8.4235970599471486
20
4.171510593031666
10
7.4635970715489339
20
4.171510593031666
0
LWPOLYLINE
5
139
100
AcDbEntity
8
0
100
AcDbPolyline
90
3
70
1
43
0.0
10
9.406004799512198
20
3.716297170591274
10
9.8860047937113062
20
4.1962971647903808
10
8.9260048053130916
20
4.1962971647903808
0
LWPOLYLINE
5
140
100
AcDbEntity
8
0
100
AcDbPolyline
90
3
70
1
43
0.0
10
7.2675009282666583
20
2.7867300856506674
10
7.7475009224657656
20
3.2667300798497743
10
6.7875009340675518
20
3.2667300798497743
0
LWPOLYLINE
5
141
100
AcDbEntity
8
0
100
AcDbPolyline
90
3
70
1
43
0.0
10
8.6560932425992121
20
2.7674440812849372
10
9.1360932367983203
20
3.2474440754840437
10
8.1760932484001057
20
3.2474440754840437
0
LWPOLYLINE
5
142
100
AcDbEntity
8
0
100
AcDbPolyline
90
3
70
1
43
0.0
10
6.3978882192631437
20
6.9599999158870514
10
5.437888230864929
20
6.9599999158870514
10
5.9178882250640363
20
6.479999921687944
0
LWPOLYLINE
5
143
100
AcDbEntity
8
0
100
AcDbPolyline
90
3
70
1
43
0.0
10
6.3978882192631437
20
6.9599999158870514
10
5.437888230864929
20
6.9599999158870514
10
5.9178882250640363
20
6.479999921687944
0
LWPOLYLINE
5
144
100
AcDbEntity
8
0
100
AcDbPolyline
90
3
70
1
43
0.0
10
10.389529274328739
20
6.9172628596229657
10
9.4295292859305242
20
6.9172628596229657
10
9.9095292801296306
20
6.4372628654238593
0
LWPOLYLINE
5
145
100
AcDbEntity
8
0
100
AcDbPolyline
90
3
70
1
43
0.0
10
10.389529274328739
20
6.9172628596229657
10
9.4295292859305242
20
6.9172628596229657
10
9.9095292801296306
20
6.4372628654238593
0
SPLINE
5
146
100
AcDbEntity
8
0
100
AcDbSpline
70
4
71
5
72
51
73
45
74
0
42
0.000000001
43
0.0000000001
44
0.0000000001
40
0
40
0
40
0
40
0
40
0
40
0
40
0.025000000000000001
40
0.050000000000000003
40
0.075000000000000011
40
0.10000000000000001
40
0.125
40
0.14999999999999999
40
0.17499999999999999
40
0.19999999999999998
40
0.22499999999999998
40
0.24999999999999997
40
0.27499999999999997
40
0.29999999999999999
40
0.32500000000000001
40
0.35000000000000003
40
0.37500000000000006
40
0.40000000000000008
40
0.4250000000000001
40
0.45000000000000012
40
0.47500000000000014
40
0.50000000000000011
40
0.52500000000000013
40
0.55000000000000016
40
0.57500000000000018
40
0.6000000000000002
40
0.62500000000000022
40
0.65000000000000024
40
0.67500000000000027
40
0.70000000000000029
40
0.72500000000000031
40
0.75000000000000033
40
0.77500000000000036
40
0.80000000000000038
40
0.8250000000000004
40
0.85000000000000042
40
0.87500000000000044
40
0.90000000000000047
40
0.92500000000000049
40
0.95000000000000051
40
0.97500000000000053
40
1
40
1
40
1
40
1
40
1
40
1
41
1
41
1
41
1
41
1
41
1
41
1
41
1
41
1
41
1
41
1
41
1
41
1
41
1
41
1
41
1
41
1
41
1
41
1
41
1
41
1
41
1
41
1
41
1
41
1
41
1
41
1
41
1
41
1
41
1
41
1
41
1
41
1
41
1
41
1
41
1
41
1
41
1
41
1
41
1
41
1
41
1
41
1
41
1
41
1
41
1
10
10.439999873830576
20
7.5599999086359349
30
0
10
10.437383008212889
20
7.5727949897336595
30
0
10
10.431857338026335
20
7.5983640776731685
30
0
10
10.422693036112742
20
7.6366544587672633
30
0
10
10.408720414585746
20
7.6875819137662207
30
0
10
10.388388468669755
20
7.7509572384437728
30
0
10
10.365374523998156
20
7.8138341272243528
30
0
10
10.340066862909481
20
7.8757760760507907
30
0
10
10.313114164048098
20
7.9360719444246284
30
0
10
10.285531986452712
20
7.9936138658155951
30
0
10
10.258663965042047
20
8.0469776546576455
30
0
10
10.233746409175126
20
8.095044367337378
30
0
10
10.21150480167398
20
8.1375901245299804
30
0
10
10.191814803440254
20
8.1757610949464752
30
0
10
10.173143231433148
20
8.212916635066394
30
0
10
10.152739714614803
20
8.254227422697948
30
0
10
10.127872762342445
20
8.3045552484252241
30
0
10
10.096929448826161
20
8.3665404784248132
30
0
10
10.060327938829527
20
8.4390360446937454
30
0
10
10.022119488242014
20
8.514306927112397
30
0
10
9.9888520076656384
20
8.5801052648071732
30
0
10
9.9666308966536192
20
8.6249339905215265
30
0
10
9.9580462523382991
20
8.6435818198771148
30
0
10
9.9605735784790603
20
8.6399610186204221
30
0
10
9.9607791499360179
20
8.637594616376882
30
0
10
9.9474940670458452
20
8.6555625259900069
30
0
10
9.9162208704159411
20
8.7006046932375991
30
0
10
9.8661544512311199
20
8.7727259951004282
30
0
10
9.7998481614922639
20
8.8659694648740519
30
0
10
9.7217953434080719
20
8.9711671331981133
30
0
10
9.6374540160128177
20
9.0778948358896088
30
0
10
9.552167575789495
20
9.1765901055183008
30
0
10
9.469931233680617
20
9.2610258126769924
30
0
10
9.3930827414895859
20
9.3288140941858675
30
0
10
9.3227541621298826
20
9.3803031044460781
30
0
10
9.2590977053724828
20
9.4179502179685901
30
0
10
9.2015965672749598
20
9.4455193713989569
30
0
10
9.1493428135603239
20
9.4673398874139512
30
0
10
9.101310013675489
20
9.487593526583689
30
0
10
9.0566681019826287
20
9.5094672298461571
30
0
10
9.0149370046277397
20
9.5347876353859569
30
0
10
8.9836775861703693
20
9.5585419267329641
30
0
10
8.9613895698653305
20
9.5784554869719774
30
0
10
8.9470442230158085
20
9.5926631169562704
30
0
10
8.939999891958367
20
9.5999998839821394
30
0
0
ENDSEC
0
SECTION
2
OBJECTS
0
DICTIONARY
5
C
100
AcDbDictionary
3
ACAD_GROUP
350
D
3
ACAD_MLINESTYLE
350
17
0
DICTIONARY
5
D
100
AcDbDictionary
0
DICTIONARY
5
1A
330
C
100
AcDbDictionary
0
DICTIONARY
5
17
100
AcDbDictionary
0
ENDSEC
0
EOF 