  0
SECTION
  2
HEADER
  9
$ACADVER
  1
AC1027
  9
$ACADMAINTVER
 70
105
  9
$DWGCODEPAGE
  3
ANSI_1252
  9
$LASTSAVEDBY
  1
ezdxf
  9
$REQUIREDVERSIONS
160
0
  9
$INSBASE
 10
0.0
 20
0.0
 30
0.0
  9
$EXTMIN
 10
1e+20
 20
1e+20
 30
1e+20
  9
$EXTMAX
 10
-1e+20
 20
-1e+20
 30
-1e+20
  9
$LIMMIN
 10
0.0
 20
0.0
  9
$LIMMAX
 10
420.0
 20
297.0
  9
$ORTHOMODE
 70
0
  9
$REGENMODE
 70
1
  9
$FILLMODE
 70
1
  9
$QTEXTMODE
 70
0
  9
$MIRRTEXT
 70
1
  9
$LTSCALE
 40
1.0
  9
$ATTMODE
 70
1
  9
$TEXTSIZE
 40
2.5
  9
$TRACEWID
 40
1.0
  9
$TEXTSTYLE
  7
Standard
  9
$CLAYER
  8
0
  9
$CELTYPE
  6
ByLayer
  9
$CECOLOR
 62
256
  9
$CELTSCALE
 40
1.0
  9
$DISPSILH
 70
0
  9
$DIMSCALE
 40
1.0
  9
$DIMASZ
 40
2.5
  9
$DIMEXO
 40
0.625
  9
$DIMDLI
 40
3.75
  9
$DIMRND
 40
0.0
  9
$DIMDLE
 40
0.0
  9
$DIMEXE
 40
1.25
  9
$DIMTP
 40
0.0
  9
$DIMTM
 40
0.0
  9
$DIMTXT
 40
2.5
  9
$DIMCEN
 40
2.5
  9
$DIMTSZ
 40
0.0
  9
$DIMTOL
 70
0
  9
$DIMLIM
 70
0
  9
$DIMTIH
 70
0
  9
$DIMTOH
 70
0
  9
$DIMSE1
 70
0
  9
$DIMSE2
 70
0
  9
$DIMTAD
 70
1
  9
$DIMZIN
 70
8
  9
$DIMBLK
  1

  9
$DIMASO
 70
1
  9
$DIMSHO
 70
1
  9
$DIMPOST
  1

  9
$DIMAPOST
  1

  9
$DIMALT
 70
0
  9
$DIMALTD
 70
3
  9
$DIMALTF
 40
0.03937007874
  9
$DIMLFAC
 40
1.0
  9
$DIMTOFL
 70
1
  9
$DIMTVP
 40
0.0
  9
$DIMTIX
 70
0
  9
$DIMSOXD
 70
0
  9
$DIMSAH
 70
0
  9
$DIMBLK1
  1

  9
$DIMBLK2
  1

  9
$DIMSTYLE
  2
ISO-25
  9
$DIMCLRD
 70
0
  9
$DIMCLRE
 70
0
  9
$DIMCLRT
 70
0
  9
$DIMTFAC
 40
1.0
  9
$DIMGAP
 40
0.625
  9
$DIMJUST
 70
0
  9
$DIMSD1
 70
0
  9
$DIMSD2
 70
0
  9
$DIMTOLJ
 70
0
  9
$DIMTZIN
 70
8
  9
$DIMALTZ
 70
0
  9
$DIMALTTZ
 70
0
  9
$DIMUPT
 70
0
  9
$DIMDEC
 70
2
  9
$DIMTDEC
 70
2
  9
$DIMALTU
 70
2
  9
$DIMALTTD
 70
3
  9
$DIMTXSTY
  7
Standard
  9
$DIMAUNIT
 70
0
  9
$DIMADEC
 70
0
  9
$DIMALTRND
 40
0.0
  9
$DIMAZIN
 70
0
  9
$DIMDSEP
 70
44
  9
$DIMATFIT
 70
3
  9
$DIMFRAC
 70
0
  9
$DIMLDRBLK
  1

  9
$DIMLUNIT
 70
2
  9
$DIMLWD
 70
-2
  9
$DIMLWE
 70
-2
  9
$DIMTMOVE
 70
0
  9
$DIMFXL
 40
1.0
  9
$DIMFXLON
 70
0
  9
$DIMJOGANG
 40
0.785398163397
  9
$DIMTFILL
 70
0
  9
$DIMTFILLCLR
 70
0
  9
$DIMARCSYM
 70
0
  9
$DIMLTYPE
  6

  9
$DIMLTEX1
  6

  9
$DIMLTEX2
  6

  9
$DIMTXTDIRECTION
 70
0
  9
$LUNITS
 70
2
  9
$LUPREC
 70
4
  9
$SKETCHINC
 40
1.0
  9
$FILLETRAD
 40
10.0
  9
$AUNITS
 70
0
  9
$AUPREC
 70
2
  9
$MENU
  1
.
  9
$ELEVATION
 40
0.0
  9
$PELEVATION
 40
0.0
  9
$THICKNESS
 40
0.0
  9
$LIMCHECK
 70
0
  9
$CHAMFERA
 40
0.0
  9
$CHAMFERB
 40
0.0
  9
$CHAMFERC
 40
0.0
  9
$CHAMFERD
 40
0.0
  9
$SKPOLY
 70
0
  9
$TDCREATE
 40
2460661.8344444446
  9
$TDUCREATE
 40
2458532.153996898
  9
$TDUPDATE
 40
2460661.8344444446
  9
$TDUUPDATE
 40
2458532.1544311
  9
$TDINDWG
 40
0.0
  9
$TDUSRTIMER
 40
0.0
  9
$USRTIMER
 70
1
  9
$ANGBASE
 50
0.0
  9
$ANGDIR
 70
0
  9
$PDMODE
 70
0
  9
$PDSIZE
 40
0.0
  9
$PLINEWID
 40
0.0
  9
$SPLFRAME
 70
0
  9
$SPLINETYPE
 70
6
  9
$SPLINESEGS
 70
8
  9
$HANDSEED
  5
33
  9
$SURFTAB1
 70
6
  9
$SURFTAB2
 70
6
  9
$SURFTYPE
 70
6
  9
$SURFU
 70
6
  9
$SURFV
 70
6
  9
$UCSBASE
  2

  9
$UCSNAME
  2

  9
$UCSORG
 10
0.0
 20
0.0
 30
0.0
  9
$UCSXDIR
 10
1.0
 20
0.0
 30
0.0
  9
$UCSYDIR
 10
0.0
 20
1.0
 30
0.0
  9
$UCSORTHOREF
  2

  9
$UCSORTHOVIEW
 70
0
  9
$UCSORGTOP
 10
0.0
 20
0.0
 30
0.0
  9
$UCSORGBOTTOM
 10
0.0
 20
0.0
 30
0.0
  9
$UCSORGLEFT
 10
0.0
 20
0.0
 30
0.0
  9
$UCSORGRIGHT
 10
0.0
 20
0.0
 30
0.0
  9
$UCSORGFRONT
 10
0.0
 20
0.0
 30
0.0
  9
$UCSORGBACK
 10
0.0
 20
0.0
 30
0.0
  9
$PUCSBASE
  2

  9
$PUCSNAME
  2

  9
$PUCSORG
 10
0.0
 20
0.0
 30
0.0
  9
$PUCSXDIR
 10
1.0
 20
0.0
 30
0.0
  9
$PUCSYDIR
 10
0.0
 20
1.0
 30
0.0
  9
$PUCSORTHOREF
  2

  9
$PUCSORTHOVIEW
 70
0
  9
$PUCSORGTOP
 10
0.0
 20
0.0
 30
0.0
  9
$PUCSORGBOTTOM
 10
0.0
 20
0.0
 30
0.0
  9
$PUCSORGLEFT
 10
0.0
 20
0.0
 30
0.0
  9
$PUCSORGRIGHT
 10
0.0
 20
0.0
 30
0.0
  9
$PUCSORGFRONT
 10
0.0
 20
0.0
 30
0.0
  9
$PUCSORGBACK
 10
0.0
 20
0.0
 30
0.0
  9
$USERI1
 70
0
  9
$USERI2
 70
0
  9
$USERI3
 70
0
  9
$USERI4
 70
0
  9
$USERI5
 70
0
  9
$USERR1
 40
0.0
  9
$USERR2
 40
0.0
  9
$USERR3
 40
0.0
  9
$USERR4
 40
0.0
  9
$USERR5
 40
0.0
  9
$WORLDVIEW
 70
1
  9
$SHADEDGE
 70
3
  9
$SHADEDIF
 70
70
  9
$TILEMODE
 70
1
  9
$MAXACTVP
 70
64
  9
$PINSBASE
 10
0.0
 20
0.0
 30
0.0
  9
$PLIMCHECK
 70
0
  9
$PEXTMIN
 10
1e+20
 20
1e+20
 30
1e+20
  9
$PEXTMAX
 10
-1e+20
 20
-1e+20
 30
-1e+20
  9
$PLIMMIN
 10
0.0
 20
0.0
  9
$PLIMMAX
 10
420.0
 20
297.0
  9
$UNITMODE
 70
0
  9
$VISRETAIN
 70
1
  9
$PLINEGEN
 70
0
  9
$PSLTSCALE
 70
1
  9
$TREEDEPTH
 70
3020
  9
$CMLSTYLE
  2
Standard
  9
$CMLJUST
 70
0
  9
$CMLSCALE
 40
20.0
  9
$PROXYGRAPHICS
 70
1
  9
$MEASUREMENT
 70
1
  9
$CELWEIGHT
370
-1
  9
$ENDCAPS
280
0
  9
$JOINSTYLE
280
0
  9
$LWDISPLAY
290
0
  9
$INSUNITS
 70
6
  9
$HYPERLINKBASE
  1

  9
$STYLESHEET
  1

  9
$XEDIT
290
1
  9
$CEPSNTYPE
380
0
  9
$PSTYLEMODE
290
1
  9
$FINGERPRINTGUID
  2
{FE7C0AA3-A08C-4757-8102-5361A7E2AFDD}
  9
$VERSIONGUID
  2
{D45BE9A2-A7D3-463D-8B48-9AA9C488973B}
  9
$EXTNAMES
290
1
  9
$PSVPSCALE
 40
0.0
  9
$OLESTARTUP
290
0
  9
$SORTENTS
280
127
  9
$INDEXCTL
280
0
  9
$HIDETEXT
280
1
  9
$XCLIPFRAME
280
0
  9
$HALOGAP
280
0
  9
$OBSCOLOR
 70
257
  9
$OBSLTYPE
280
0
  9
$INTERSECTIONDISPLAY
280
0
  9
$INTERSECTIONCOLOR
 70
257
  9
$DIMASSOC
280
2
  9
$PROJECTNAME
  1

  9
$CAMERADISPLAY
290
0
  9
$LENSLENGTH
 40
50.0
  9
$CAMERAHEIGHT
 40
0.0
  9
$STEPSPERSEC
 40
24.0
  9
$STEPSIZE
 40
100.0
  9
$3DDWFPREC
 40
2.0
  9
$PSOLWIDTH
 40
0.005
  9
$PSOLHEIGHT
 40
0.08
  9
$LOFTANG1
 40
1.570796326795
  9
$LOFTANG2
 40
1.570796326795
  9
$LOFTMAG1
 40
0.0
  9
$LOFTMAG2
 40
0.0
  9
$LOFTPARAM
 70
7
  9
$LOFTNORMALS
280
1
  9
$LATITUDE
 40
37.795
  9
$LONGITUDE
 40
-122.394
  9
$NORTHDIRECTION
 40
0.0
  9
$TIMEZONE
 70
-8000
  9
$LIGHTGLYPHDISPLAY
280
1
  9
$TILEMODELIGHTSYNCH
280
1
  9
$CMATERIAL
347
20
  9
$SOLIDHIST
280
0
  9
$SHOWHIST
280
1
  9
$DWFFRAME
280
2
  9
$DGNFRAME
280
2
  9
$REALWORLDSCALE
290
1
  9
$INTERFERECOLOR
 62
256
  9
$CSHADOW
280
0
  9
$SHADOWPLANELOCATION
 40
0.0
  0
ENDSEC
  0
SECTION
  2
CLASSES
  0
CLASS
  1
ACDBDICTIONARYWDFLT
  2
AcDbDictionaryWithDefault
  3
ObjectDBX Classes
 90
0
 91
0
280
0
281
0
  0
CLASS
  1
SUN
  2
AcDbSun
  3
SCENEOE
 90
1153
 91
0
280
0
281
0
  0
CLASS
  1
VISUALSTYLE
  2
AcDbVisualStyle
  3
ObjectDBX Classes
 90
4095
 91
0
280
0
281
0
  0
CLASS
  1
MATERIAL
  2
AcDbMaterial
  3
ObjectDBX Classes
 90
1153
 91
0
280
0
281
0
  0
CLASS
  1
SCALE
  2
AcDbScale
  3
ObjectDBX Classes
 90
1153
 91
0
280
0
281
0
  0
CLASS
  1
TABLESTYLE
  2
AcDbTableStyle
  3
ObjectDBX Classes
 90
4095
 91
0
280
0
281
0
  0
CLASS
  1
MLEADERSTYLE
  2
AcDbMLeaderStyle
  3
ACDB_MLEADERSTYLE_CLASS
 90
4095
 91
0
280
0
281
0
  0
CLASS
  1
DICTIONARYVAR
  2
AcDbDictionaryVar
  3
ObjectDBX Classes
 90
0
 91
0
280
0
281
0
  0
CLASS
  1
CELLSTYLEMAP
  2
AcDbCellStyleMap
  3
ObjectDBX Classes
 90
1152
 91
0
280
0
281
0
  0
CLASS
  1
MENTALRAYRENDERSETTINGS
  2
AcDbMentalRayRenderSettings
  3
SCENEOE
 90
1024
 91
0
280
0
281
0
  0
CLASS
  1
ACDBDETAILVIEWSTYLE
  2
AcDbDetailViewStyle
  3
ObjectDBX Classes
 90
1025
 91
0
280
0
281
0
  0
CLASS
  1
ACDBSECTIONVIEWSTYLE
  2
AcDbSectionViewStyle
  3
ObjectDBX Classes
 90
1025
 91
0
280
0
281
0
  0
CLASS
  1
RASTERVARIABLES
  2
AcDbRasterVariables
  3
ISM
 90
0
 91
0
280
0
281
0
  0
CLASS
  1
ACDBPLACEHOLDER
  2
AcDbPlaceHolder
  3
ObjectDBX Classes
 90
0
 91
0
280
0
281
0
  0
CLASS
  1
LAYOUT
  2
AcDbLayout
  3
ObjectDBX Classes
 90
0
 91
0
280
0
281
0
  0
ENDSEC
  0
SECTION
  2
TABLES
  0
TABLE
  2
VPORT
  5
8
330
0
100
AcDbSymbolTable
 70
1
  0
VPORT
  5
23
330
8
100
AcDbSymbolTableRecord
100
AcDbViewportTableRecord
  2
*Active
 70
0
 10
0.0
 20
0.0
 11
1.0
 21
1.0
 12
0.0
 22
0.0
 13
0.0
 23
0.0
 14
0.5
 24
0.5
 15
0.5
 25
0.5
 16
0.0
 26
0.0
 36
1.0
 17
0.0
 27
0.0
 37
0.0
 40
1000.0
 41
1.34
 42
50.0
 43
0.0
 44
0.0
 50
0.0
 51
0.0
 71
0
 72
1000
 73
1
 74
3
 75
0
 76
0
 77
0
 78
0
281
0
 65
0
146
0.0
  0
ENDTAB
  0
TABLE
  2
LTYPE
  5
2
330
0
100
AcDbSymbolTable
 70
3
  0
LTYPE
  5
24
330
2
100
AcDbSymbolTableRecord
100
AcDbLinetypeTableRecord
  2
ByBlock
 70
0
  3

 72
65
 73
0
 40
0.0
  0
LTYPE
  5
25
330
2
100
AcDbSymbolTableRecord
100
AcDbLinetypeTableRecord
  2
ByLayer
 70
0
  3

 72
65
 73
0
 40
0.0
  0
LTYPE
  5
26
330
2
100
AcDbSymbolTableRecord
100
AcDbLinetypeTableRecord
  2
Continuous
 70
0
  3

 72
65
 73
0
 40
0.0
  0
ENDTAB
  0
TABLE
  2
LAYER
  5
1
330
0
100
AcDbSymbolTable
 70
2
  0
LAYER
  5
27
330
1
100
AcDbSymbolTableRecord
100
AcDbLayerTableRecord
  2
0
 70
0
 62
7
  6
Continuous
370
-3
390
13
347
21
  0
LAYER
  5
28
330
1
100
AcDbSymbolTableRecord
100
AcDbLayerTableRecord
  2
Defpoints
 70
0
 62
7
  6
Continuous
290
0
370
-3
390
13
347
21
  0
ENDTAB
  0
TABLE
  2
STYLE
  5
5
330
0
100
AcDbSymbolTable
 70
1
  0
STYLE
  5
29
330
5
100
AcDbSymbolTableRecord
100
AcDbTextStyleTableRecord
  2
Standard
 70
0
 40
0.0
 41
1.0
 50
0.0
 71
0
 42
2.5
  3
txt
  4

  0
ENDTAB
  0
TABLE
  2
VIEW
  5
7
330
0
100
AcDbSymbolTable
 70
0
  0
ENDTAB
  0
TABLE
  2
UCS
  5
6
330
0
100
AcDbSymbolTable
 70
0
  0
ENDTAB
  0
TABLE
  2
APPID
  5
3
330
0
100
AcDbSymbolTable
 70
3
  0
APPID
  5
2A
330
3
100
AcDbSymbolTableRecord
100
AcDbRegAppTableRecord
  2
ACAD
 70
0
  0
APPID
  5
30
330
3
100
AcDbSymbolTableRecord
100
AcDbRegAppTableRecord
  2
HATCHBACKGROUNDCOLOR
 70
0
  0
APPID
  5
31
330
3
100
AcDbSymbolTableRecord
100
AcDbRegAppTableRecord
  2
EZDXF
 70
0
  0
ENDTAB
  0
TABLE
  2
DIMSTYLE
  5
4
330
0
100
AcDbSymbolTable
 70
1
100
AcDbDimStyleTable
  0
DIMSTYLE
105
2B
330
4
100
AcDbSymbolTableRecord
100
AcDbDimStyleTableRecord
  2
Standard
 70
0
 40
1.0
 41
2.5
 42
0.625
 43
3.75
 44
1.25
 45
0.0
 46
0.0
 47
0.0
 48
0.0
 49
2.5
140
2.5
141
2.5
142
0.0
143
0.03937007874
144
1.0
145
0.0
146
1.0
147
0.625
148
0.0
 69
0
 70
0
 71
0
 72
0
 73
0
 74
0
 75
0
 76
0
 77
1
 78
8
 79
3
170
0
171
3
172
1
173
0
174
0
175
0
176
0
177
0
178
0
179
2
271
2
272
2
273
2
274
3
275
0
276
0
277
2
278
44
279
0
280
0
281
0
282
0
283
0
284
8
285
0
286
0
288
0
289
3
290
0
371
-2
372
-2
  0
ENDTAB
  0
TABLE
  2
BLOCK_RECORD
  5
9
330
0
100
AcDbSymbolTable
 70
2
  0
BLOCK_RECORD
  5
17
330
9
100
AcDbSymbolTableRecord
100
AcDbBlockTableRecord
  2
*Model_Space
340
1A
 70
0
280
1
281
0
  0
BLOCK_RECORD
  5
1B
330
9
100
AcDbSymbolTableRecord
100
AcDbBlockTableRecord
  2
*Paper_Space
340
1E
 70
0
280
1
281
0
  0
ENDTAB
  0
ENDSEC
  0
SECTION
  2
BLOCKS
  0
BLOCK
  5
18
330
17
100
AcDbEntity
  8
0
100
AcDbBlockBegin
  2
*Model_Space
 70
0
 10
0.0
 20
0.0
 30
0.0
  3
*Model_Space
  1

  0
ENDBLK
  5
19
330
17
100
AcDbEntity
  8
0
100
AcDbBlockEnd
  0
BLOCK
  5
1C
330
1B
100
AcDbEntity
  8
0
100
AcDbBlockBegin
  2
*Paper_Space
 70
0
 10
0.0
 20
0.0
 30
0.0
  3
*Paper_Space
  1

  0
ENDBLK
  5
1D
330
1B
100
AcDbEntity
  8
0
100
AcDbBlockEnd
  0
ENDSEC
  0
SECTION
  2
ENTITIES
  0
LWPOLYLINE
  5
2F
330
17
100
AcDbEntity
  8
0
100
AcDbPolyline
 90
500
 70
1
 10
-497.8306383652695
 20
29.915031625588313
 10
-463.9218882700946
 20
51.83714294877939
 10
-438.7281457182346
 20
65.82688606234842
 10
-397.68833925339163
 20
63.63277393132341
 10
-467.62536690102064
 20
175.23899537132047
 10
-490.3000505638403
 20
199.13233604615607
 10
-457.4265558073689
 20
243.3725309502213
 10
-456.2720912710575
 20
293.5689597995347
 10
-409.70034223192874
 20
324.5054543500156
 10
-410.7743149859292
 20
326.917742493039
 10
-491.03330425202006
 20
385.00080167033
 10
-485.92271299194624
 20
461.0458352687425
 10
-487.87882827560367
 20
465.5163406267061
 10
-450.9718217081357
 20
439.6430889533324
 10
-444.4241659002652
 20
429.5049531626132
 10
-430.14456506214185
 20
414.2009583811205
 10
-446.18562016907083
 20
396.72998023694913
 10
-425.42756592037165
 20
386.0115114652683
 10
-390.87651718831097
 20
489.72428346643426
 10
-336.9301045738975
 20
450.787118208704
 10
-310.25679866155065
 20
392.26888899585583
 10
-246.22936013760022
 20
492.11529754735193
 10
-237.84739113519402
 20
490.43941890106044
 10
-231.08604752679065
 20
484.50863307354564
 10
-202.98746729534912
 20
479.7089065643546
 10
-183.88600268096565
 20
455.76396290383605
 10
-182.6590312570957
 20
431.1931446354024
 10
-233.8450357693623
 20
424.7846160845529
 10
-154.0683295898919
 20
404.91744457150617
 10
-172.3471457409188
 20
376.30647355317785
 10
-220.96737581803393
 20
387.3481616926026
 10
-236.7525540091856
 20
406.9074244292076
 10
-278.7242548366602
 20
320.6891668485697
 10
-232.39702677806093
 20
365.95485893920704
 10
-199.57817747619964
 20
350.4330547054807
 10
-144.52787979256522
 20
338.4199671379903
 10
-137.1951182801124
 20
305.94193726601736
 10
-172.13547689255893
 20
295.2889076699296
 10
-175.92931039650097
 20
277.3024162880944
 10
-207.96118184700896
 20
264.5245720630668
 10
-239.2260384262608
 20
231.87181138961932
 10
-252.83629231936376
 20
238.2347041412063
 10
-234.9174355206838
 20
201.29371907926202
 10
-269.86208264816355
 20
171.2757032022207
 10
-280.09652363701576
 20
165.53288965982847
 10
-305.7261150972673
 20
194.26842641410724
 10
-321.72475380446974
 20
235.1869456891277
 10
-351.01751247135303
 20
255.999159859899
 10
-350.8496152791821
 20
272.6159877508145
 10
-378.5445502583953
 20
265.8820030113212
 10
-395.1711492097078
 20
226.32726715381966
 10
-398.6309136951611
 20
205.14616373519755
 10
-343.7567298930141
 20
218.00022400705495
 10
-308.66071727312647
 20
160.24860278306085
 10
-340.7195214682688
 20
165.7683028612156
 10
-358.89438627949585
 20
125.37315688291005
 10
-368.9963500040351
 20
119.87531456140107
 10
-315.8547092529044
 20
92.7585866115569
 10
-280.5637664575902
 20
44.41836591943263
 10
-267.5185702440233
 20
30.524823681794487
 10
-278.5399129864494
 20
3.3258739628888634
 10
-264.18057981962573
 20
-8.98905892071923
 10
-267.2785032472933
 20
50.30005284694232
 10
-189.83419611777418
 20
74.33353319846526
 10
-158.69799402307007
 20
60.40319967500773
 10
-160.6654865968756
 20
93.75043778394138
 10
-129.01214668504093
 20
101.34146099161865
 10
-113.97879848438475
 20
79.92491892890496
 10
-158.54458122396278
 20
18.699581165947052
 10
-159.82291059200526
 20
6.6296748943092325
 10
-164.22060103361412
 20
-5.955559466088971
 10
-179.50630497576225
 20
-21.120990370562595
 10
-167.19125441779136
 20
-31.89045408458071
 10
-158.22254062420882
 20
-46.08989823331456
 10
-109.69435114274796
 20
17.856912198510827
 10
-79.751381747702
 20
61.59755838995079
 10
-50.779559733827
 20
46.46266720375661
 10
-28.429782990840863
 20
18.573408133715702
 10
10.703369397164408
 20
-14.520389695005576
 10
10.932135309891692
 20
-37.44777934954135
 10
-20.946800158684653
 20
-41.388621522685526
 10
-69.15449263271546
 20
-70.82463069886012
 10
-77.37950879993502
 20
-72.42987548547688
 10
-100.4690338494122
 20
-60.342322591822494
 10
-131.17427208615726
 20
-108.7495320280666
 10
-157.8993480310412
 20
-153.36940798525166
 10
-178.22993897111127
 20
-161.54626105716818
 10
-227.2647916081636
 20
-222.76858186751434
 10
-191.90044232494785
 20
-179.90423792772083
 10
-87.0693651738892
 20
-109.12268262988266
 10
-106.10529328637563
 20
-124.65655556506317
 10
-53.55668701399543
 20
-91.84187847746637
 10
-50.98635165337828
 20
-117.3398276792098
 10
-57.425861665805655
 20
-167.41403619743477
 10
-86.30404686663616
 20
-191.59046285053415
 10
-125.2601667621467
 20
-183.7579072045159
 10
-100.45262328063541
 20
-241.7693459195458
 10
-110.65232585970728
 20
-272.17250585568564
 10
-110.41855375109719
 20
-274.2454058935525
 10
-103.87557010146674
 20
-273.35761092162
 10
-83.72312616901559
 20
-261.3584948980812
 10
-74.56717477069321
 20
-262.4551017783416
 10
-78.3516382847539
 20
-250.2635206322471
 10
-29.463778430826494
 20
-246.49108649920936
 10
-15.02072923813023
 20
-250.58432775970928
 10
-10.395728662532804
 20
-284.67846235410866
 10
-11.318045947340181
 20
-245.9160836313462
 10
-5.95050889625179
 20
-239.85984453346987
 10
-48.05204220926572
 20
-180.07390583419215
 10
13.379579563404036
 20
-186.55856981864048
 10
13.974677198670861
 20
-190.79622096095585
 10
36.58678557231303
 20
-187.7284306077686
 10
10.531182100900764
 20
-168.99698107056702
 10
12.193613489542486
 20
-148.89154633407009
 10
0.7748617141776322
 20
-122.37672472067027
 10
-27.24133308293841
 20
-78.77856265416074
 10
11.721005814700902
 20
-53.02774340158243
 10
44.71636518267678
 20
-82.07154035071198
 10
66.55946625583863
 20
-101.65823027396647
 10
33.478916257305855
 20
-32.33415481746505
 10
9.835152413197534
 20
43.924655610299396
 10
-20.78521919703104
 20
67.96598941707066
 10
10.679099326828066
 20
89.8996845900474
 10
-22.957265309702336
 20
88.65285902281562
 10
-49.690661224439566
 20
73.10893992210129
 10
-86.93170014893849
 20
143.1506401939381
 10
-106.00838447781524
 20
163.36532522740106
 10
-141.61650670773884
 20
174.99304488322582
 10
-113.55650866728894
 20
118.11102633466089
 10
-235.57759010313737
 20
101.10592423424453
 10
-240.1030722077354
 20
141.12234529233353
 10
-186.03077354883715
 20
209.74043203202268
 10
-133.54538912128322
 20
266.2740600052099
 10
-150.49877378802637
 20
237.99910143586192
 10
-85.61539726902566
 20
250.0316779533913
 10
-78.2124080612603
 20
213.355326826681
 10
-62.04020842640466
 20
199.42249109729084
 10
-82.25170983796824
 20
315.3037789600588
 10
-17.705156846116722
 20
297.59336374014026
 10
-40.811933370231486
 20
347.3732799942818
 10
-32.36186652938676
 20
343.0715503308073
 10
-94.38191783992158
 20
377.72744246605976
 10
-119.8919813709677
 20
425.84556738431354
 10
-75.27632473521174
 20
456.5571359172991
 10
-41.42237321079358
 20
458.9864150861624
 10
-20.425431569528826
 20
430.842267952709
 10
5.235440071661458
 20
398.3790330291647
 10
19.352461290622955
 20
378.9361671301227
 10
37.950392262168066
 20
358.842037358893
 10
63.240584323544454
 20
348.86748221420544
 10
77.79055663988868
 20
425.4578045192999
 10
15.635740470823862
 20
412.4744532251283
 10
8.937038327118216
 20
438.55532428092147
 10
20.488590394042262
 20
481.34351946570075
 10
32.095531720521876
 20
499.10161747789573
 10
94.92874750950784
 20
460.4756922502437
 10
90.58268191275863
 20
429.45288042394475
 10
132.72427633422592
 20
491.7789527385853
 10
156.1150309840467
 20
486.7043037937078
 10
182.8403828809096
 20
461.33772666650634
 10
176.07989176412445
 20
453.7862602646712
 10
151.54826668798785
 20
450.8589671576441
 10
133.09228060925557
 20
437.43757626022
 10
114.14398317710663
 20
419.1860908888825
 10
193.2443556654515
 20
443.7849293138963
 10
195.42698750743193
 20
426.9495821866575
 10
202.64069840120612
 20
398.8896673614174
 10
224.74551402145846
 20
375.36462078806653
 10
223.69404177929016
 20
410.9956653017359
 10
263.72359754873776
 20
421.7072270071146
 10
283.37709938537273
 20
395.3355463185952
 10
306.53778520998685
 20
411.2647163167454
 10
342.5642786631013
 20
394.43501606089706
 10
341.63489592033557
 20
358.4918632135016
 10
303.32419287978416
 20
342.71540951569887
 10
279.0349910717847
 20
357.6259776342587
 10
282.81038526796397
 20
337.31467494072183
 10
294.51316420495255
 20
314.881246090196
 10
282.6204190081319
 20
295.38049147324557
 10
237.10125483440197
 20
279.4391224371325
 10
219.23782268170487
 20
327.46954351090244
 10
175.27449234485357
 20
349.0951557170473
 10
133.40963214986584
 20
324.9132024913479
 10
105.75848183644325
 20
304.84730173056107
 10
91.13031786453303
 20
306.184151037063
 10
83.29298622304611
 20
293.8522119745211
 10
41.345734404220025
 20
289.03870879896783
 10
52.62936382906196
 20
260.8257752466967
 10
114.24576233194898
 20
252.4311840853045
 10
107.03381786448438
 20
300.27752261378157
 10
179.68575711951894
 20
295.11985145872734
 10
181.95101811679172
 20
284.1819423154616
 10
213.84060267129837
 20
268.3316809164643
 10
205.66093938857318
 20
264.3720160678391
 10
270.75727000986217
 20
254.13872027477157
 10
337.3833509781507
 20
328.7940285612
 10
338.5937142749452
 20
313.31536492596695
 10
333.7257803033327
 20
280.2052734600247
 10
334.25346762031756
 20
251.1975604511598
 10
357.8339560257675
 20
281.953729794339
 10
399.53496167796914
 20
318.9803720331414
 10
432.6771108532863
 20
305.2302640188029
 10
400.3599600928734
 20
364.2778309215239
 10
414.9793381282524
 20
395.5313757044379
 10
373.62022118140226
 20
413.99773750262716
 10
327.0909618315832
 20
424.01950234608273
 10
270.12927372489753
 20
426.91579412333203
 10
252.5977892853523
 20
435.7007416604557
 10
233.05562122939818
 20
468.14198203544834
 10
269.19986082576395
 20
468.9626883213175
 10
278.62152178103213
 20
476.94951955400074
 10
297.851122218034
 20
461.56909788279995
 10
320.83172691390087
 20
472.31416174808453
 10
323.5842665347974
 20
478.1981469487114
 10
397.1460223634442
 20
475.45195078263157
 10
405.2492640034286
 20
461.7173585221078
 10
392.18422336274807
 20
446.78513242827023
 10
401.3839601298067
 20
433.93442110334377
 10
467.56288281895274
 20
499.80445181732216
 10
496.92886541292376
 20
475.3467633573425
 10
494.6748441526473
 20
391.4761528447101
 10
475.0310326203137
 20
372.6307403615575
 10
471.9322829015931
 20
361.81131180821365
 10
485.5118872898091
 20
361.41414499047016
 10
428.9345885025359
 20
237.5820379898414
 10
407.6894395031278
 20
224.07211203373492
 10
487.0455456210648
 20
200.28154290385783
 10
418.0582695724029
 20
132.38270791705202
 10
401.9683122755763
 20
135.57295626717917
 10
385.321324686596
 20
156.21548583071092
 10
386.1827279122299
 20
193.39750989759114
 10
404.3161361226886
 20
221.65697215821535
 10
356.5669387799875
 20
168.71775278512678
 10
377.41550794563454
 20
164.10279285664012
 10
451.9873039229983
 20
74.3510184291141
 10
436.7416053370822
 20
72.42967101668637
 10
427.70606905841794
 20
71.3326883025344
 10
385.7837461073324
 20
69.01720154170391
 10
390.2797876564192
 20
-24.194716078266424
 10
431.3225914344989
 20
35.292042325099146
 10
451.05458546359705
 20
22.19021794824573
 10
490.7711819537925
 20
37.2750681954476
 10
491.16089630285126
 20
-22.497215207757506
 10
453.1561330805473
 20
-15.758449441652488
 10
411.7854469495867
 20
-45.62135298939285
 10
449.2595635240183
 20
-32.552167984658524
 10
471.9930670148042
 20
-67.04826267680232
 10
461.9760800853245
 20
-94.72995299471489
 10
447.4763484085877
 20
-96.40569747712811
 10
408.1538211613888
 20
-96.85931824065676
 10
439.4255809977451
 20
-112.89730567768788
 10
422.2920798860366
 20
-164.02937436064303
 10
412.97245867343474
 20
-180.8524059306353
 10
383.678824630137
 20
-181.36774497626118
 10
361.6266835537896
 20
-175.61450556474847
 10
353.2865853903321
 20
-186.80446050132247
 10
325.3805458449963
 20
-173.1578879870629
 10
322.8442205898692
 20
-144.0289260140416
 10
359.0165418399091
 20
-126.40522525458431
 10
359.2933419646945
 20
-111.5381163569549
 10
305.90507221093264
 20
-130.9411695964783
 10
295.52632148796874
 20
-110.1256888298887
 10
266.94455231093525
 20
-190.90349463236788
 10
226.9325061916718
 20
-193.85428438230355
 10
226.03661142746205
 20
-188.0746385490545
 10
210.87625791347705
 20
-158.0487759628022
 10
218.48386681916486
 20
-151.4912902569945
 10
222.04712072950542
 20
-149.40837632993674
 10
219.96950465528232
 20
-121.69171482254882
 10
233.0148136813608
 20
-106.58584102406843
 10
246.7947823083266
 20
-108.01016241905745
 10
226.2180842667192
 20
-85.14986345409369
 10
251.51440535771394
 20
-58.00058718849152
 10
269.50896470380474
 20
-63.88260653076105
 10
266.7056487246522
 20
-28.368796325748747
 10
280.72924454789097
 20
-2.674004599322302
 10
315.6766433112738
 20
-1.422526034504017
 10
328.95050293444024
 20
-5.48218681393422
 10
364.13665162999973
 20
6.024776710288336
 10
250.43202626721438
 20
23.90802688712097
 10
233.50908064465364
 20
43.8013875158822
 10
229.48900065106523
 20
58.55019772438038
 10
226.29578641230637
 20
63.08566134375587
 10
229.04945718224917
 20
93.39661029596436
 10
267.6770585229659
 20
102.16229733349542
 10
283.61536068678697
 20
132.9785845242743
 10
303.93573102192033
 20
172.83924761895753
 10
255.49159937864783
 20
183.53367788094977
 10
210.86885603648602
 20
210.65851681640584
 10
170.8360564400307
 20
211.16754705286382
 10
148.2711915720904
 20
179.8545739851695
 10
138.56196917912825
 20
176.35687028595748
 10
90.38508482960185
 20
188.5142547210936
 10
42.07560626478244
 20
182.4121974127903
 10
6.027127246414636
 20
195.46466756723407
 10
1.916514667133356
 20
148.48816352317908
 10
64.3045058045933
 20
139.75461254347056
 10
227.75475122720843
 20
135.86344052166044
 10
185.71213304683283
 20
55.65096827207094
 10
232.80510324114005
 20
22.42303679093004
 10
244.77905349671244
 20
-9.067989836028062
 10
234.5746117875849
 20
-36.38007486790673
 10
199.33273947225894
 20
-9.062766063619108
 10
157.78883662674184
 20
13.40614719317773
 10
120.02462649831614
 20
18.976351447493585
 10
106.36377571775233
 20
22.70486748974929
 10
113.63274047708069
 20
84.20033282599411
 10
145.39380918018924
 20
97.54415099032474
 10
134.67296512459598
 20
123.2155717965843
 10
70.63110980041529
 20
58.28416581622946
 10
136.65970363848862
 20
-55.681893664449774
 10
128.94665539497737
 20
-55.29097416816654
 10
112.73391073618563
 20
-51.02650333136785
 10
168.8464157737086
 20
-76.46887891871455
 10
206.25899068670196
 20
-86.86658050119314
 10
226.5538612085569
 20
-94.61608062929082
 10
202.9721670610461
 20
-142.1187732028405
 10
160.54314070095768
 20
-145.1250839149788
 10
125.47096733480555
 20
-170.87045694705705
 10
91.98840258564121
 20
-197.52578972707704
 10
161.7319761149722
 20
-203.2065917852587
 10
137.99005644836893
 20
-245.72048040277807
 10
156.3279108929354
 20
-220.16698743348473
 10
192.47377553984768
 20
-250.82313246819288
 10
151.9815783660473
 20
-238.94455460782427
 10
165.07166878858163
 20
-271.5390325536208
 10
164.0812072482065
 20
-270.5021600417101
 10
120.60886539220019
 20
-266.5421021030978
 10
194.56434836189578
 20
-324.8237282884101
 10
212.3283839160738
 20
-341.9178677402498
 10
223.70703994142195
 20
-349.7683506003432
 10
258.49673902443476
 20
-372.2544842531855
 10
267.57849275568253
 20
-347.1172117520829
 10
268.3713524363675
 20
-343.2986152342634
 10
230.8066839652754
 20
-348.2411421011279
 10
214.2264569866678
 20
-299.6982601406878
 10
195.13343818226042
 20
-273.84087813998474
 10
264.2279242586501
 20
-277.621297646641
 10
276.6459282852027
 20
-263.3738401066769
 10
261.8426048694952
 20
-256.9075052695081
 10
272.7882471671285
 20
-255.37905380305338
 10
219.31877775884902
 20
-240.61082497499143
 10
212.95391422914724
 20
-236.3646762575732
 10
315.613402461625
 20
-198.50489466741118
 10
292.2407351810856
 20
-207.89318184387474
 10
359.78294637402496
 20
-244.59210688633058
 10
349.74242239694445
 20
-267.3686939148414
 10
339.4768918799332
 20
-268.1050186976458
 10
337.8861747500499
 20
-278.012487453376
 10
306.2078044297972
 20
-285.9998504582144
 10
370.52486739145115
 20
-279.6281051604761
 10
362.3028836656964
 20
-342.45180881439387
 10
406.29275049309365
 20
-296.55635942348545
 10
405.78252277562035
 20
-228.08122227584562
 10
405.51472222137716
 20
-199.68624896992173
 10
428.3296436367391
 20
-186.6056030951229
 10
426.954725225546
 20
-203.26787343328357
 10
485.8387443706448
 20
-225.4810934942567
 10
474.79382523390905
 20
-240.9260086191514
 10
458.84688090500697
 20
-231.25787859586046
 10
479.7814101541138
 20
-292.4808529973278
 10
487.2979328244189
 20
-312.0568137600491
 10
447.4646907694879
 20
-322.64007423366036
 10
462.1890076507527
 20
-356.8581311374449
 10
453.4824954936803
 20
-359.1311865178553
 10
451.5984971805037
 20
-381.68341234056567
 10
397.7393190329684
 20
-418.84084117193976
 10
383.67958040787255
 20
-416.7263766892107
 10
457.4465774053257
 20
-433.66725075590716
 10
466.9262960525351
 20
-447.71618579725083
 10
494.97209347016974
 20
-454.0156309661302
 10
479.9127621488632
 20
-491.3194407924283
 10
349.9795965772413
 20
-491.0761399893709
 10
329.38608741845235
 20
-446.18939122937684
 10
308.32500569581134
 20
-462.1755199278853
 10
288.1692525701354
 20
-458.80383240818435
 10
280.12390977184793
 20
-442.1283425252641
 10
262.26576631312264
 20
-490.2544122074175
 10
250.89317344835126
 20
-472.66499131588114
 10
241.30797571502478
 20
-498.1017449512941
 10
227.1328026716808
 20
-498.18940042452476
 10
214.2954325947968
 20
-457.7772908675106
 10
213.11779780599193
 20
-456.7459931289397
 10
198.83330280035727
 20
-450.6654091328918
 10
199.00780699976974
 20
-424.9647271442645
 10
209.70907011797055
 20
-411.32534854542126
 10
178.9757757960682
 20
-388.64883439699736
 10
119.36375551795936
 20
-427.85001163454217
 10
118.393005057756
 20
-416.09603365631506
 10
112.06522294289493
 20
-391.7071378334519
 10
138.30819533417707
 20
-363.1531034446848
 10
101.0879320224941
 20
-326.28001823546293
 10
68.51036004781315
 20
-317.09358500456506
 10
53.67918918162741
 20
-299.336467183064
 10
-7.353505926009802
 20
-304.62288623381306
 10
40.68931583407061
 20
-301.0607957424367
 10
110.23128719893725
 20
-361.33278392493
 10
54.34752892475751
 20
-372.89597538326177
 10
38.943385259128945
 20
-450.4314783808465
 10
42.842851716751056
 20
-418.16265437528887
 10
35.369359774751615
 20
-379.66282082572155
 10
25.719966415326212
 20
-361.37920485622243
 10
-17.1331863476546
 20
-387.3520511752765
 10
-37.031471222320874
 20
-375.91593329560646
 10
-45.40474543719654
 20
-355.758560135125
 10
-45.193647434101024
 20
-399.4048269990395
 10
-55.2068144243313
 20
-430.60172575551235
 10
-62.647535430094706
 20
-437.5945778896907
 10
-36.274003765355474
 20
-426.5445825637779
 10
23.894744789088463
 20
-480.5786393710365
 10
-6.686879866713696
 20
-457.80605702564935
 10
-45.39607280509085
 20
-488.66932707176716
 10
-82.06755239627216
 20
-485.01866322034624
 10
-125.31079700400363
 20
-468.4057102558491
 10
-133.50084062134817
 20
-421.78977385221407
 10
-133.5286836740953
 20
-420.59416339391754
 10
-105.94768985952584
 20
-399.6671898695479
 10
-198.2943620087857
 20
-414.20027422398954
 10
-149.34364624044383
 20
-430.1404709336839
 10
-139.16006585484985
 20
-492.13871033406787
 10
-181.3942443907044
 20
-480.3847549837452
 10
-206.4185790539227
 20
-484.7919306169668
 10
-230.00082173566227
 20
-498.05500945892487
 10
-319.30972211164385
 20
-431.2021607716042
 10
-296.83823455835864
 20
-399.5780289081318
 10
-290.8078798996638
 20
-395.0308681782788
 10
-263.2799644659193
 20
-358.72777783306987
 10
-253.0287004294227
 20
-353.27360794574514
 10
-245.55269966222747
 20
-342.32887197923276
 10
-239.59020802339916
 20
-334.81636579629196
 10
-217.58200239859713
 20
-328.5024586606638
 10
-199.68575919989217
 20
-344.59974176786
 10
-209.51049282731748
 20
-398.1490216336028
 10
-190.33064858866197
 20
-343.74773663673386
 10
-168.38332865630082
 20
-332.5093143714387
 10
-137.5917499001473
 20
-356.3910879802322
 10
-112.37520109385355
 20
-347.4440984203218
 10
-172.866246395892
 20
-309.3352465993737
 10
-214.92062063567062
 20
-308.16926157855784
 10
-203.56621162582366
 20
-288.90522066217295
 10
-272.4266858531168
 20
-333.8654859043727
 10
-329.00396463386676
 20
-360.3496844302058
 10
-321.36967836436736
 20
-335.23552686841344
 10
-374.8049443628353
 20
-420.8861525445761
 10
-379.5137485514881
 20
-406.1798972066696
 10
-388.10610650006294
 20
-419.17864098693
 10
-465.3961988250138
 20
-455.32844938381055
 10
-448.0133956096166
 20
-429.3667782566828
 10
-490.6378066921939
 20
-370.23920455142354
 10
-431.0850119515286
 20
-373.96213457507855
 10
-421.24337118154097
 20
-334.1377191339569
 10
-421.48241435938303
 20
-313.46848705766894
 10
-431.73728321775974
 20
-299.47351332046924
 10
-459.42868561454463
 20
-286.9041043663454
 10
-479.251397462105
 20
-250.78488682429133
 10
-463.4520577812716
 20
-247.8812922353407
 10
-435.2523188478662
 20
-259.68115710966765
 10
-444.0272710458969
 20
-216.79119345883925
 10
-455.3780675749847
 20
-207.50239154795702
 10
-465.2338117212345
 20
-204.53479743671653
 10
-494.72737121831824
 20
-178.34639259062357
 10
-458.3041460261327
 20
-164.93015654694352
 10
-459.3420900027319
 20
-136.2465913455856
 10
-429.16949546454384
 20
-150.73240724736314
 10
-424.6066423241225
 20
-165.39457491528918
 10
-407.47697066739875
 20
-202.51467187206953
 10
-389.8628438162005
 20
-162.3198349057692
 10
-384.2402181142961
 20
-152.22113989829103
 10
-364.021157106686
 20
-163.92225074869174
 10
-358.2878334492434
 20
-201.58075640338444
 10
-324.98465111541486
 20
-209.8488201397376
 10
-311.45521737862805
 20
-200.03382812931847
 10
-289.24347759751515
 20
-151.57592859751145
 10
-276.1222562356477
 20
-135.81208873669868
 10
-262.3221533970951
 20
-142.1059305971806
 10
-224.95084847889558
 20
-122.6368199462421
 10
-184.98030241458275
 20
-104.37806567926367
 10
-292.36232075946134
 20
-117.6369400034589
 10
-281.1999901682933
 20
-95.19336389209019
 10
-315.98760578151143
 20
-42.604068755713
 10
-354.9892001204963
 20
-42.1907577809356
 10
-384.3047386743329
 20
-48.219872741418385
 10
-396.71573482291035
 20
-30.661663598575274
 10
-386.42909397953196
 20
-12.496651246169392
 10
-361.0554146515535
 20
14.636280979446042
 10
-344.12295516747884
 20
43.16075972425847
 10
-398.75389102483183
 20
-3.0696662908727035
 10
-401.2446342779116
 20
-82.47929997645986
 10
-385.59854323771725
 20
-65.35309130474764
 10
-322.22262530689204
 20
-93.22576842581088
 10
-351.1243485643032
 20
-102.7523741568047
 10
-363.6415692723144
 20
-143.7937570167025
 10
-429.8825145444788
 20
-133.60674964880172
 10
-425.07376847736356
 20
-86.80280652721353
 10
-440.9852095290301
 20
-115.2927261226713
 10
-461.3746162743344
 20
-119.65839084527329
 10
-496.20958078878397
 20
-72.60082422486425
 10
-463.67902440550023
 20
-45.770937623158886
 10
-449.1891797208868
 20
-28.56535081634945
 10
-462.74574897289045
 20
8.028347422468585
  0
ENDSEC
  0
SECTION
  2
OBJECTS
  0
DICTIONARY
  5
A
330
0
100
AcDbDictionary
280
0
281
1
  3
ACAD_COLOR
350
B
  3
ACAD_GROUP
350
C
  3
ACAD_LAYOUT
350
D
  3
ACAD_MATERIAL
350
E
  3
ACAD_MLEADERSTYLE
350
F
  3
ACAD_MLINESTYLE
350
10
  3
ACAD_PLOTSETTINGS
350
11
  3
ACAD_PLOTSTYLENAME
350
12
  3
ACAD_SCALELIST
350
14
  3
ACAD_TABLESTYLE
350
15
  3
ACAD_VISUALSTYLE
350
16
  3
EZDXF_META
350
2D
  0
DICTIONARY
  5
B
330
A
100
AcDbDictionary
280
0
281
1
  0
DICTIONARY
  5
C
330
A
100
AcDbDictionary
280
0
281
1
  0
DICTIONARY
  5
D
330
A
100
AcDbDictionary
280
0
281
1
  3
Model
350
1A
  3
Layout1
350
1E
  0
DICTIONARY
  5
E
330
A
100
AcDbDictionary
280
0
281
1
  3
ByBlock
350
1F
  3
ByLayer
350
20
  3
Global
350
21
  0
DICTIONARY
  5
F
330
A
100
AcDbDictionary
280
0
281
1
  3
Standard
350
2C
  0
DICTIONARY
  5
10
330
A
100
AcDbDictionary
280
0
281
1
  3
Standard
350
22
  0
DICTIONARY
  5
11
330
A
100
AcDbDictionary
280
0
281
1
  0
ACDBDICTIONARYWDFLT
  5
12
330
A
100
AcDbDictionary
280
0
281
1
  3
Normal
350
13
100
AcDbDictionaryWithDefault
340
13
  0
ACDBPLACEHOLDER
  5
13
330
12
  0
DICTIONARY
  5
14
330
A
100
AcDbDictionary
280
0
281
1
  0
DICTIONARY
  5
15
330
A
100
AcDbDictionary
280
0
281
1
  0
DICTIONARY
  5
16
330
A
100
AcDbDictionary
280
0
281
1
  0
LAYOUT
  5
1A
330
D
100
AcDbPlotSettings
  1

  2
Adobe PDF
  4
A3
  6

 40
7.5
 41
20.0
 42
7.5
 43
20.0
 44
420.0
 45
297.0
 46
0.0
 47
0.0
 48
0.0
 49
0.0
140
0.0
141
0.0
142
1.0
143
1.0
 70
1024
 72
1
 73
0
 74
5
  7

 75
16
 76
0
 77
2
 78
300
147
1.0
148
0.0
149
0.0
100
AcDbLayout
  1
Model
 70
1
 71
0
 10
0.0
 20
0.0
 11
420.0
 21
297.0
 12
0.0
 22
0.0
 32
0.0
 14
1e+20
 24
1e+20
 34
1e+20
 15
-1e+20
 25
-1e+20
 35
-1e+20
146
0.0
 13
0.0
 23
0.0
 33
0.0
 16
1.0
 26
0.0
 36
0.0
 17
0.0
 27
1.0
 37
0.0
 76
1
330
17
  0
LAYOUT
  5
1E
330
D
100
AcDbPlotSettings
  1

  2
Adobe PDF
  4
A3
  6

 40
7.5
 41
20.0
 42
7.5
 43
20.0
 44
420.0
 45
297.0
 46
0.0
 47
0.0
 48
0.0
 49
0.0
140
0.0
141
0.0
142
1.0
143
1.0
 70
0
 72
1
 73
0
 74
5
  7

 75
16
 76
0
 77
2
 78
300
147
1.0
148
0.0
149
0.0
100
AcDbLayout
  1
Layout1
 70
1
 71
1
 10
0.0
 20
0.0
 11
420.0
 21
297.0
 12
0.0
 22
0.0
 32
0.0
 14
1e+20
 24
1e+20
 34
1e+20
 15
-1e+20
 25
-1e+20
 35
-1e+20
146
0.0
 13
0.0
 23
0.0
 33
0.0
 16
1.0
 26
0.0
 36
0.0
 17
0.0
 27
1.0
 37
0.0
 76
1
330
1B
  0
MATERIAL
  5
1F
102
{ACAD_REACTORS
330
E
102
}
330
E
100
AcDbMaterial
  1
ByBlock
  2

 70
0
 40
1.0
 71
1
 41
1.0
 91
-1023410177
 42
1.0
 72
1
  3

 73
1
 74
1
 75
1
 44
0.5
 73
0
 45
1.0
 46
1.0
 77
1
  4

 78
1
 79
1
170
1
 48
1.0
171
1
  6

172
1
173
1
174
1
140
1.0
141
1.0
175
1
  7

176
1
177
1
178
1
143
1.0
179
1
  8

270
1
271
1
272
1
145
1.0
146
1.0
273
1
  9

274
1
275
1
276
1
 42
1.0
 72
1
  3

 73
1
 74
1
 75
1
 94
63
  0
MATERIAL
  5
20
102
{ACAD_REACTORS
330
E
102
}
330
E
100
AcDbMaterial
  1
ByLayer
  2

 70
0
 40
1.0
 71
1
 41
1.0
 91
-1023410177
 42
1.0
 72
1
  3

 73
1
 74
1
 75
1
 44
0.5
 73
0
 45
1.0
 46
1.0
 77
1
  4

 78
1
 79
1
170
1
 48
1.0
171
1
  6

172
1
173
1
174
1
140
1.0
141
1.0
175
1
  7

176
1
177
1
178
1
143
1.0
179
1
  8

270
1
271
1
272
1
145
1.0
146
1.0
273
1
  9

274
1
275
1
276
1
 42
1.0
 72
1
  3

 73
1
 74
1
 75
1
 94
63
  0
MATERIAL
  5
21
102
{ACAD_REACTORS
330
E
102
}
330
E
100
AcDbMaterial
  1
Global
  2

 70
0
 40
1.0
 71
1
 41
1.0
 91
-1023410177
 42
1.0
 72
1
  3

 73
1
 74
1
 75
1
 44
0.5
 73
0
 45
1.0
 46
1.0
 77
1
  4

 78
1
 79
1
170
1
 48
1.0
171
1
  6

172
1
173
1
174
1
140
1.0
141
1.0
175
1
  7

176
1
177
1
178
1
143
1.0
179
1
  8

270
1
271
1
272
1
145
1.0
146
1.0
273
1
  9

274
1
275
1
276
1
 42
1.0
 72
1
  3

 73
1
 74
1
 75
1
 94
63
  0
MLINESTYLE
  5
22
102
{ACAD_REACTORS
330
10
102
}
330
10
100
AcDbMlineStyle
  2
Standard
 70
0
  3

 62
256
 51
90.0
 52
90.0
 71
2
 49
0.5
 62
256
  6
BYLAYER
 49
-0.5
 62
256
  6
BYLAYER
  0
MLEADERSTYLE
  5
2C
102
{ACAD_REACTORS
330
F
102
}
330
F
100
AcDbMLeaderStyle
179
2
170
2
171
1
172
0
 90
2
 40
0.0
 41
0.0
173
1
 91
-1056964608
 92
-2
290
1
 42
2.0
291
1
 43
8.0
  3
Standard
 44
4.0
300

342
29
174
1
175
1
176
0
178
1
 93
-1056964608
 45
4.0
292
0
297
0
 46
4.0
 94
-1056964608
 47
1.0
 49
1.0
140
1.0
294
1
141
0.0
177
0
142
1.0
295
0
296
0
143
3.75
271
0
272
9
273
9
  0
DICTIONARY
  5
2D
330
A
100
AcDbDictionary
281
1
  3
CREATED_BY_EZDXF
350
2E
  3
WRITTEN_BY_EZDXF
350
32
  0
DICTIONARYVAR
  5
2E
330
2D
100
DictionaryVariables
280
0
  1
1.1.4 @ 2024-12-16T18:01:36.234197+00:00
  0
DICTIONARYVAR
  5
32
330
2D
100
DictionaryVariables
280
0
  1
1.1.4 @ 2024-12-16T18:01:36.235197+00:00
  0
ENDSEC
  0
EOF
