0
SECTION
2
HEADER
9
$INSUNITS
70
1
9
$ACADVER
1
AC1014
9
$HANDSEED
5
FFFF
0
ENDSEC
0
SECTION
2
TABLES
0
TABLE
2
VPORT
5
8
100
AcDbSymbolTable
0
ENDTAB
0
TABLE
2
LTYPE
5
5
100
AcDbSymbolTable
0
LTYPE
5
14
100
AcDbSymbolTableRecord
100
AcDbLinetypeTableRecord
2
BYBLOCK
70
0
0
LTYPE
5
15
100
AcDbSymbolTableRecord
100
AcDbLinetypeTableRecord
2
BYLAYER
70
0
0
ENDTAB
0
TABLE
2
LAYER
5
2
100
AcDbSymbolTable
70
2
0
LAYER
5
50
100
AcDbSymbolTableRecord
100
AcDbLayerTableRecord
2
0
70
0
6
CONTINUOUS
0
ENDTAB
0
TABLE
2
STYLE
5
3
100
AcDbSymbolTable
70
1
0
STYLE
5
11
100
AcDbSymbolTableRecord
100
AcDbTextStyleTableRecord
2
STANDARD
70
0
0
ENDTAB
0
TABLE
2
VIEW
5
6
100
AcDbSymbolTable
70
0
0
ENDTAB
0
TABLE
2
UCS
5
7
100
AcDbSymbolTable
70
0
0
ENDTAB
0
TABLE
2
APPID
5
9
100
AcDbSymbolTable
70
2
0
APPID
5
12
100
AcDbSymbolTableRecord
100
AcDbRegAppTableRecord
2
ACAD
70
0
0
ENDTAB
0
TABLE
2
DIMSTYLE
5
A
100
AcDbSymbolTable
70
1
0
ENDTAB
0
TABLE
2
BLOCK_RECORD
5
1
100
AcDbSymbolTable
70
1
0
BLOCK_RECORD
5
1F
100
AcDbSymbolTableRecord
100
AcDbBlockTableRecord
2
*MODEL_SPACE
0
BLOCK_RECORD
5
1B
100
AcDbSymbolTableRecord
100
AcDbBlockTableRecord
2
*PAPER_SPACE
0
ENDTAB
0
ENDSEC
0
SECTION
2
BLOCKS
0
BLOCK
5
20
100
AcDbEntity
100
AcDbBlockBegin
2
*MODEL_SPACE
0
ENDBLK
5
21
100
AcDbEntity
100
AcDbBlockEnd
0
BLOCK
5
1C
100
AcDbEntity
100
AcDbBlockBegin
2
*PAPER_SPACE
0
ENDBLK
5
1D
100
AcDbEntity
100
AcDbBlockEnd
0
ENDSEC
0
SECTION
2
ENTITIES
0
LINE
5
100
100
AcDbEntity
8
0
100
AcDbLine
10
5.5741147922800511
20
-7.2521116862643735
30
0
11
7.2056462281233138
21
-7.2521117760565517
31
0
0
LINE
5
101
100
AcDbEntity
8
0
100
AcDbLine
10
0.59847964055842773
20
-3.6217379626584254
30
0
11
1.2617091723835574
21
-3.7322569365188496
31
0
0
LINE
5
102
100
AcDbEntity
8
0
100
AcDbLine
10
-1.6848734783339494
20
-3.0314482100736795
30
0
11
-1.684873478338057
21
-3.2412454912707478
31
0
0
LINE
5
103
100
AcDbEntity
8
0
100
AcDbLine
10
-4.1007309611687646
20
-2.8386728114756665
30
0
11
-3.6378292583673528
21
-2.9158096377450624
31
0
0
LINE
5
104
100
AcDbEntity
8
0
100
AcDbLine
10
-2.7538961001693467
20
-3.3436694752082863
30
0
11
-1.8151809429376657
21
-3.5270192941467724
31
0
0
LWPOLYLINE
5
105
100
AcDbEntity
8
0
100
AcDbPolyline
90
4
70
1
43
0.0
10
-0.60090747566097147
20
-3.5556822062116749
10
0.3772918964178017
20
-3.7053315194885736
10
0.3772918964178017
20
-3.8768335946838866
10
-0.60090747566097147
20
-3.7190290534043164
0
LWPOLYLINE
5
106
100
AcDbEntity
8
0
100
AcDbPolyline
90
4
70
1
43
0.0
10
0.3772918964178017
20
-3.9945466073791995
10
0.3772918964178017
20
-4.1979548574424621
10
-0.60090747566097147
20
-4.0348197808766004
10
-0.60090747566097147
20
-3.8341059213836552
0
SPLINE
5
107
100
AcDbEntity
8
0
100
AcDbSpline
70
0
71
3
72
8
73
4
74
0
42
0.000000001
43
0.0000000001
44
0.0000000001
40
5.0292481937567324
40
5.0292481937567324
40
5.0292481937567324
40
5.0292481937567324
40
5.3340572468059086
40
5.3340572468059086
40
5.3340572468059086
40
5.3340572468059086
10
-1.7999319521462924
20
-4.1378718289716137
30
0
10
-2.0964932809811185
20
-4.0786374680490134
30
0
10
-2.4324803693303831
20
-4.0091141918945281
30
0
10
-2.7538961001729705
20
-3.9416032699029833
30
0
0
LINE
5
108
100
AcDbEntity
8
0
100
AcDbLine
10
-3.43037305109493
20
-3.2115400155817437
30
0
11
-2.8797029257489357
21
-3.3190968894632471
31
0
0
LINE
5
109
100
AcDbEntity
8
0
100
AcDbLine
10
-1.8104050083687409
20
-3.363321880218944
30
0
11
-1.8081730703169707
21
-3.5283880716361433
31
0
0
LINE
5
110
100
AcDbEntity
8
0
100
AcDbLine
10
-2.8797029258499474
20
-3.6107794943940417
30
0
11
-3.4303730510919621
21
-3.4965024096459989
31
0
0
LINE
5
111
100
AcDbEntity
8
0
100
AcDbLine
10
-3.6378292583570029
20
-2.6897199732556829
30
0
11
-3.6378292583673528
21
-2.9158096377450624
31
0
0
LINE
5
112
100
AcDbEntity
8
0
100
AcDbLine
10
-3.4303730510919621
20
-2.9503796411005601
30
0
11
-2.8797029259571181
21
-3.0421419861453272
31
0
0
SPLINE
5
113
100
AcDbEntity
8
0
100
AcDbSpline
70
0
71
3
72
8
73
4
74
0
42
0.000000001
43
0.0000000001
44
0.0000000001
40
0
40
0
40
0
40
0
40
0.54366501333245376
40
0.54366501333245376
40
0.54366501333245376
40
0.54366501333245376
10
-1.8151809429376657
20
-3.3624509652893528
30
0
10
-1.8561564082323752
20
-3.3549788896239359
30
0
10
-2.3299819690505394
20
-3.2654023979367524
30
0
10
-2.7538961001683862
20
-3.1852045135586686
30
0
0
LINE
5
114
100
AcDbEntity
8
0
100
AcDbLine
10
-3.6378292583673528
20
-2.9158096377450624
30
0
11
-3.6378292583570029
21
-2.6897199732556829
31
0
0
LINE
5
115
100
AcDbEntity
8
0
100
AcDbLine
10
0.59847964055842773
20
-4.4628647261423984
30
0
11
1.304705304077155
21
-4.6064677157342935
31
0
0
LINE
5
116
100
AcDbEntity
8
0
100
AcDbLine
10
0.3772918964178017
20
-4.4178887036605445
30
0
11
0.37729189641408989
21
-4.5534826097095973
31
0
0
LINE
5
117
100
AcDbEntity
8
0
100
AcDbLine
10
-2.8797029259571181
20
-3.0421419861453272
30
0
11
-2.8797029253039046
21
-2.8274752984859535
31
0
0
LINE
5
118
100
AcDbEntity
8
0
100
AcDbLine
10
-4.0887946819513381
20
-3.5097605612398994
30
0
11
-3.6378292583673542
21
-3.6014592796730636
31
0
0
LINE
5
119
100
AcDbEntity
8
0
100
AcDbLine
10
-2.8797029258499474
20
-3.6107794943940417
30
0
11
-2.8797029257842257
21
-3.4178505496390956
31
0
0
LINE
5
120
100
AcDbEntity
8
0
100
AcDbLine
10
-1.7999319521433754
20
-3.8348575284375879
30
0
11
-2.7538960917625532
21
-3.6368873901775118
31
0
0
LINE
5
121
100
AcDbEntity
8
0
100
AcDbLine
10
-3.6378292583673542
20
-3.6014592796730636
30
0
11
-3.6378292583696656
21
-3.7536709481299146
31
0
0
SPLINE
5
122
100
AcDbEntity
8
0
100
AcDbSpline
70
0
71
3
72
8
73
4
74
0
42
0.000000001
43
0.0000000001
44
0.0000000001
40
0.59830295192992289
40
0.59830295192992289
40
0.59830295192992289
40
0.59830295192992289
40
1
40
1
40
1
40
1
10
-2.8797029256938558
20
-3.1614020611795413
30
0
10
-3.1819046948547163
20
-3.1042218937401298
30
0
10
-3.4303716351177895
20
-3.0571810002137418
30
0
10
-3.4303730510919621
20
-3.057180732135059
30
0
0
LINE
5
123
100
AcDbEntity
8
0
100
AcDbLine
10
-3.430373051095982
20
-3.3041630014213341
30
0
11
-3.4303730510919621
21
-3.4965024096459989
31
0
0
LINE
5
124
100
AcDbEntity
8
0
100
AcDbLine
10
-3.4303730510919621
20
-3.057180732135059
30
0
11
-3.43037305109493
21
-3.2115400155817437
31
0
0
SPLINE
5
125
100
AcDbEntity
8
0
100
AcDbSpline
70
0
71
3
72
8
73
4
74
0
42
0.000000001
43
0.0000000001
44
0.0000000001
40
5.6463376451091118
40
5.6463376451091118
40
5.6463376451091118
40
5.6463376451091118
40
6
40
6
40
6
40
6
10
-3.6378292583696656
20
-3.7536709481299146
30
0
10
-3.9103570132139831
20
-3.6951050703676813
30
0
10
-4.0887934422556471
20
-3.6562146632167076
30
0
10
-4.0887946819513381
20
-3.6562143930237299
30
0
0
SPLINE
5
126
100
AcDbEntity
8
0
100
AcDbSpline
70
0
71
3
72
8
73
4
74
0
42
0.000000001
43
0.0000000001
44
0.0000000001
40
12.60956618316434
40
12.60956618316434
40
12.60956618316434
40
12.60956618316434
40
13
40
13
40
13
40
13
10
0.59847964105851659
20
-3.3739202992211306
30
0
10
1.0247386373240506
20
-3.4343030459655064
30
0
10
1.3112080500296124
20
-3.4733412790859171
30
0
10
1.3112094379217087
20
-3.4733414682190404
30
0
0
LINE
5
127
100
AcDbEntity
8
0
100
AcDbLine
10
-1.8021379195234879
20
-3.9747263359613618
30
0
11
-1.7999319521462924
21
-4.1378718289716137
31
0
0
LINE
5
128
100
AcDbEntity
8
0
100
AcDbLine
10
-2.753896100000099
20
-2.8497155861010302
30
0
11
-2.7538961001729723
21
-3.0631061329800415
31
0
0
LINE
5
129
100
AcDbEntity
8
0
100
AcDbLine
10
-2.7538961001683862
20
-3.1852045135586686
30
0
11
-2.7538961001693467
21
-3.3436694752082863
31
0
0
LINE
5
130
100
AcDbEntity
8
0
100
AcDbLine
10
-2.8797029257489357
20
-3.3190968894632471
30
0
11
-2.8797029256938558
21
-3.1614020611795413
31
0
0
LINE
5
131
100
AcDbEntity
8
0
100
AcDbLine
10
0.3772918964367164
20
-3.3424483125126634
30
0
11
0.3772918964178017
21
-3.5848797690166956
31
0
0
SPLINE
5
132
100
AcDbEntity
8
0
100
AcDbSpline
70
0
71
3
72
8
73
4
74
0
42
0.000000001
43
0.0000000001
44
0.0000000001
40
11.521431563101315
40
11.521431563101315
40
11.521431563101315
40
11.521431563101315
40
11.713888735779953
40
11.713888735779953
40
11.713888735779953
40
11.713888735779953
10
-3.4303730510894361
20
-2.7280714848848024
30
0
10
-3.2686797014187197
20
-2.7577625707385316
30
0
10
-3.083547851931749
20
-2.7912991997906822
30
0
10
-2.8797029253039046
20
-2.8274752984859535
30
0
0
LINE
5
133
100
AcDbEntity
8
0
100
AcDbLine
10
-1.8151809429376657
20
-3.3624509652893528
30
0
11
-1.8104050083687409
21
-3.363321880218944
31
0
0
SPLINE
5
134
100
AcDbEntity
8
0
100
AcDbSpline
70
0
71
2
72
6
73
3
74
0
42
0.000000001
43
0.0000000001
44
0.0000000001
40
0.17274297617588782
40
0.17274297617588782
40
0.17274297617588782
40
1
40
1
40
1
10
5.2886458414467317
20
-8.7959267989621086
30
0
10
5.1687614423484236
20
-8.78531690172845
30
0
10
5.077380291282676
20
-8.7238967648954553
30
0
0
SPLINE
5
135
100
AcDbEntity
8
0
100
AcDbSpline
70
0
71
3
72
8
73
4
74
0
42
0.000000001
43
0.0000000001
44
0.0000000001
40
11
40
11
40
11
40
11
40
11.433058889703808
40
11.433058889703808
40
11.433058889703808
40
11.433058889703808
10
-4.1344881939142288
20
-2.5954130014221657
30
0
10
-4.1344866693607809
20
-2.5954133006517686
30
0
10
-3.9509880911330995
20
-2.6314292282523706
30
0
10
-3.6378292583570029
20
-2.6897199732556811
30
0
0
LINE
5
136
100
AcDbEntity
8
0
100
AcDbLine
10
-1.8151809429376657
20
-3.5270192941467724
30
0
11
-1.8081730703169707
21
-3.5283880716361433
31
0
0
SPLINE
5
137
100
AcDbEntity
8
0
100
AcDbSpline
70
0
71
3
72
8
73
4
74
0
42
0.000000001
43
0.0000000001
44
0.0000000001
40
4
40
4
40
4
40
4
40
4.3845820393828188
40
4.3845820393828188
40
4.3845820393828188
40
4.3845820393828188
10
1.352305171564286
20
-4.7352585824768534
30
0
10
1.3523038149418964
20
-4.735258331042357
30
0
10
1.0385259775861548
20
-4.6771031859792167
30
0
10
0.5984796405584295
20
-4.5948624332892454
30
0
0
LINE
5
138
100
AcDbEntity
8
0
100
AcDbLine
10
-1.8151809429358139
20
-3.0101107643798799
30
0
11
-1.8123428731892799
21
-3.220004297925815
31
0
0
LINE
5
139
100
AcDbEntity
8
0
100
AcDbLine
10
-2.7538961001729723
20
-3.0631061329800415
30
0
11
-1.8123428731892799
21
-3.220004297925815
31
0
0
LINE
5
140
100
AcDbEntity
8
0
100
AcDbLine
10
-2.8797029259602351
20
-3.9151264007252355
30
0
11
-2.8797029259009488
21
-3.7556156949146327
31
0
0
LINE
5
141
100
AcDbEntity
8
0
100
AcDbLine
10
0.59847964055842773
20
-3.791824134234667
30
0
11
0.59847964055842773
21
-4.18739374483037
31
0
0
LINE
5
142
100
AcDbEntity
8
0
100
AcDbLine
10
-0.83281096000740829
20
-4.1718279940701652
30
0
11
-0.83281096001139576
21
-4.3252265719778906
31
0
0
LINE
5
143
100
AcDbEntity
8
0
100
AcDbLine
10
-1.684873478338057
20
-3.9985707318774617
30
0
11
-1.6848734783380455
21
-4.1607233864972315
31
0
0
SPLINE
5
144
100
AcDbEntity
8
0
100
AcDbSpline
70
0
71
3
72
10
73
6
74
0
42
0.000000001
43
0.0000000001
44
0.0000000001
40
11.752772691184818
40
11.752772691184818
40
11.752772691184818
40
11.752772691184818
40
12
40
12
40
12.012005774990492
40
12.012005774990492
40
12.012005774990492
40
12.012005774990492
10
-2.753896100000099
20
-2.8497155861010302
30
0
10
-2.4825745974523366
20
-2.8974936413307573
30
0
10
-2.1819490606471481
20
-2.9492251293079188
30
0
10
-1.8465007540200085
20
-3.0049334630296105
30
0
10
-1.8308808937119894
20
-3.007519402097016
30
0
10
-1.8151809429358139
20
-3.0101107643798799
30
0
0
LINE
5
145
100
AcDbEntity
8
0
100
AcDbLine
10
-2.7538960863808302
20
-3.4437020831200376
30
0
11
-2.7538960917625532
21
-3.6368873901775118
31
0
0
SPLINE
5
146
100
AcDbEntity
8
0
100
AcDbSpline
70
0
71
3
72
8
73
4
74
0
42
0.000000001
43
0.0000000001
44
0.0000000001
40
5.3741033859335108
40
5.3741033859335108
40
5.3741033859335108
40
5.3741033859335108
40
5.5629134783337104
40
5.5629134783337104
40
5.5629134783337104
40
5.5629134783337104
10
-2.8797029259602351
20
-3.9151264007252355
30
0
10
-3.0758507691918915
20
-3.8737666849957981
30
0
10
-3.2636854831551805
20
-3.8337992370722769
30
0
10
-3.4303730510919608
20
-3.7981478185602731
30
0
0
SPLINE
5
147
100
AcDbEntity
8
0
100
AcDbSpline
70
0
71
3
72
8
73
4
74
0
42
0.000000001
43
0.0000000001
44
0.0000000001
40
3.5902923306503505
40
3.5902923306503505
40
3.5902923306503505
40
3.5902923306503505
40
4
40
4
40
4
40
4
10
-2.8797029257842257
20
-3.4178505496390956
30
0
10
-3.182454160400543
20
-3.3555783287060472
30
0
10
-3.4303716118501955
20
-3.3041632999031991
30
0
10
-3.4303730510919621
20
-3.3041630014221677
30
0
0
LINE
5
148
100
AcDbEntity
8
0
100
AcDbLine
10
0.59847964055842773
20
-4.4628647261423984
30
0
11
0.5984796405584295
21
-4.5948624332892454
31
0
0
LINE
5
149
100
AcDbEntity
8
0
100
AcDbLine
10
0.59847964105851659
20
-3.3739202992211306
30
0
11
0.59847964055842773
21
-3.6217379626584254
31
0
0
LINE
5
150
100
AcDbEntity
8
0
100
AcDbLine
10
-2.7538960957456249
20
-3.7811970909420696
30
0
11
-1.8021379195234879
21
-3.9747263359613618
31
0
0
SPLINE
5
151
100
AcDbEntity
8
0
100
AcDbSpline
70
0
71
3
72
8
73
4
74
0
42
0.000000001
43
0.0000000001
44
0.0000000001
40
3
40
3
40
3
40
3
40
3.5346906142009136
40
3.5346906142009136
40
3.5346906142009136
40
3.5346906142009136
10
-1.8071101116388377
20
-3.6333243783752907
30
0
10
-1.885355608257985
20
-3.6210985195285477
30
0
10
-2.3440070559888273
20
-3.5278416927936349
30
0
10
-2.7538960863808302
20
-3.4437020831200353
30
0
0
LINE
5
152
100
AcDbEntity
8
0
100
AcDbLine
10
-3.430373051099838
20
-3.6436431530757045
30
0
11
-2.8797029259009488
21
-3.7556156949146327
31
0
0
SPLINE
5
153
100
AcDbEntity
8
0
100
AcDbSpline
70
0
71
2
72
6
73
3
74
0
42
0.000000001
43
0.0000000001
44
0.0000000001
40
0
40
0
40
0
40
0.7805482635920018
40
0.7805482635920018
40
0.7805482635920018
10
5.5767263410344974
20
-8.7397419040910602
30
0
10
5.4950985447019907
20
-8.7853262283426101
30
0
10
5.3966458401296435
20
-8.7953297874525962
30
0
0
LINE
5
154
100
AcDbEntity
8
0
100
AcDbLine
10
-2.7538960957456249
20
-3.7811970909420696
30
0
11
-2.7538961001729705
21
-3.9416032699029833
31
0
0
LINE
5
155
100
AcDbEntity
8
0
100
AcDbLine
10
-3.4303730510894361
20
-2.7280714848848024
30
0
11
-3.4303730510919621
21
-2.9503796411005601
31
0
0
LINE
5
156
100
AcDbEntity
8
0
100
AcDbLine
10
-3.430373051099838
20
-3.6436431530757045
30
0
11
-3.4303730510919608
21
-3.7981478185602731
31
0
0
LINE
5
157
100
AcDbEntity
8
0
100
AcDbLine
10
2.4806460773282564
20
-7.2521117760565517
30
0
11
3.4862358969481653
21
-7.2521117760563891
31
0
0
SPLINE
5
158
100
AcDbEntity
8
0
100
AcDbSpline
70
0
71
3
72
8
73
4
74
0
42
0.000000001
43
0.0000000001
44
0.0000000001
40
7
40
7
40
7
40
7
40
8
40
8
40
8
40
8
10
1.8232931781560811
20
-5.0004836496155249
30
0
10
1.6403708148748324
20
-4.9730205758850587
30
0
10
1.3797682452947571
20
-4.6346883615295864
30
0
10
1.3797682452947571
20
-4.3283181222717779
30
0
0
SPLINE
5
159
100
AcDbEntity
8
0
100
AcDbSpline
70
0
71
3
72
8
73
4
74
0
42
0.000000001
43
0.0000000001
44
0.0000000001
40
4
40
4
40
4
40
4
40
5
40
5
40
5
40
5
10
5.5497059894353749
20
-6.271633399371388
30
0
10
5.8927101398260016
20
-5.7046111520569323
30
0
10
5.8606492877752245
20
-5.0918953927795858
30
0
10
5.6915449786931926
20
-4.6849549325745103
30
0
0
SPLINE
5
160
100
AcDbEntity
8
0
100
AcDbSpline
70
0
71
3
72
8
73
4
74
0
42
0.000000001
43
0.0000000001
44
0.0000000001
40
2
40
2
40
2
40
2
40
3
40
3
40
3
40
3
10
5.1473756671697544
20
-4.5158629831116208
30
0
10
5.1473789823754545
20
-4.5158616118809203
30
0
10
5.2548301959783483
20
-4.4714177926819341
30
0
10
5.3714061237127231
20
-4.5158629831116208
30
0
0
ELLIPSE
5
161
100
AcDbEntity
8
0
100
AcDbEllipse
10
5.1490208619411888
20
-5.7824046849356456
30
0
11
0.012880127447399756
21
0.0089095163106692795
31
0.0
40
0.17343556890796702
41
5.5819628403506245
42
6.5302618471765426
0
SPLINE
5
162
100
AcDbEntity
8
0
100
AcDbSpline
70
0
71
3
72
8
73
4
74
0
42
0.000000001
43
0.0000000001
44
0.0000000001
40
4.4463943700804123
40
4.4463943700804123
40
4.4463943700804123
40
4.4463943700804123
40
4.6914729050361288
40
4.6914729050361288
40
4.6914729050361288
40
4.6914729050361288
10
0.37729189641408989
20
-4.5534826097095973
30
0
10
0.074089123393832876
20
-4.496700873840247
30
0
10
-0.2681524474065381
20
-4.4323617107268252
30
0
10
-0.60090747566096991
20
-4.369281938131147
30
0
0
SPLINE
5
163
100
AcDbEntity
8
0
100
AcDbSpline
70
0
71
3
72
8
73
4
74
0
42
0.000000001
43
0.0000000001
44
0.0000000001
40
5
40
5
40
5
40
5
40
6
40
6
40
6
40
6
10
5.6915449786931926
20
-4.6849549325745103
30
0
10
5.5223665118963172
20
-4.2780639108459964
30
0
10
5.1736803589220424
20
-4.3877668136462109
30
0
10
5.1736769367010034
20
-4.3877678903381838
30
0
0
SPLINE
5
164
100
AcDbEntity
8
0
100
AcDbSpline
70
0
71
3
72
8
73
4
74
0
42
0.000000001
43
0.0000000001
44
0.0000000001
40
1
40
1
40
1
40
1
40
2
40
2
40
2
40
2
10
5.3348216510564752
20
-5.7868891366760735
30
0
10
5.6412413287908469
20
-4.8267321237366234
30
0
10
5.1473787033442742
20
-4.5158648942648689
30
0
10
5.1473756671697544
20
-4.5158629831116208
30
0
0
LINE
5
165
100
AcDbEntity
8
0
100
AcDbLine
10
-0.6009074756609718
20
-4.2189829409507427
30
0
11
-0.60090747566096991
21
-4.369281938131147
31
0
0
LINE
5
166
100
AcDbEntity
8
0
100
AcDbLine
10
-1.684873478338057
20
-3.9985707318774617
30
0
11
-0.83281096000740829
21
-4.1718279940701652
31
0
0
SPLINE
5
167
100
AcDbEntity
8
0
100
AcDbSpline
70
0
71
3
72
8
73
4
74
0
42
0.000000001
43
0.0000000001
44
0.0000000001
40
1
40
1
40
1
40
1
40
2
40
2
40
2
40
2
10
2.0519337726385043
20
-6.6419523080627902
30
0
10
1.3615254474431935
20
-6.5185044320862282
30
0
10
-2.0174955486505572
20
-5.6589052804749054
30
0
10
-2.7719514202325892
20
-5.4668738778870098
30
0
0
SPLINE
5
168
100
AcDbEntity
8
0
100
AcDbSpline
70
0
71
3
72
8
73
4
74
0
42
0.000000001
43
0.0000000001
44
0.0000000001
40
0
40
0
40
0
40
0
40
1
40
1
40
1
40
1
10
5.217504146173658
20
-5.4646244272034172
30
0
10
5.2007445026189734
20
-5.5958959420959955
30
0
10
5.12296541936702
20
-5.7024111398499002
30
0
10
5.0439256549627256
20
-5.7023122628967773
30
0
0
SPLINE
5
169
100
AcDbEntity
8
0
100
AcDbSpline
70
0
71
3
72
8
73
4
74
0
42
0.000000001
43
0.0000000001
44
0.0000000001
40
5
40
5
40
5
40
5
40
6
40
6
40
6
40
6
10
4.9873185992986633
20
-6.555088904742477
30
0
10
4.7868826556951474
20
-6.583701423053026
30
0
10
4.6627696288263509
20
-6.4316438080792366
30
0
10
4.6627673602849882
20
-6.4316410287659158
30
0
0
SPLINE
5
170
100
AcDbEntity
8
0
100
AcDbSpline
70
0
71
3
72
8
73
4
74
0
42
0.000000001
43
0.0000000001
44
0.0000000001
40
7
40
7
40
7
40
7
40
8
40
8
40
8
40
8
10
4.9005169940740521
20
-6.2075734933655262
30
0
10
4.7404475665838142
20
-6.3264483102600559
30
0
10
4.612454689643867
20
-6.2761336132706251
30
0
10
4.6124513507635054
20
-6.2761323007385732
30
0
0
LINE
5
171
100
AcDbEntity
8
0
100
AcDbLine
10
-0.6009074756609718
20
-4.2189829409507427
30
0
11
0.3772918964178017
21
-4.4178887036605445
31
0
0
SPLINE
5
172
100
AcDbEntity
8
0
100
AcDbSpline
70
0
71
3
72
8
73
4
74
0
42
0.000000001
43
0.0000000001
44
0.0000000001
40
0
40
0
40
0
40
0
40
1
40
1
40
1
40
1
10
4.9507217670232704
20
-4.6620896371643532
30
0
10
4.9507246831831697
20
-4.6620917268710107
30
0
10
5.2251671100408457
20
-4.8587558969299787
30
0
10
5.243409907892409
20
-5.1513328012268556
30
0
0
SPLINE
5
173
100
AcDbEntity
8
0
100
AcDbSpline
70
0
71
3
72
8
73
4
74
0
42
0.000000001
43
0.0000000001
44
0.0000000001
40
3
40
3
40
3
40
3
40
4
40
4
40
4
40
4
10
2.5548837543279581
20
-3.569264472369432
30
0
10
2.7012216449529585
20
-3.5921668466370122
30
0
10
2.8246077228338162
20
-3.7109922250549809
30
0
10
2.8429493976385052
20
-3.8848055490295899
30
0
0
SPLINE
5
174
100
AcDbEntity
8
0
100
AcDbSpline
70
0
71
3
72
11
73
7
74
0
42
0.000000001
43
0.0000000001
44
0.0000000001
40
2
40
2
40
2
40
2
40
3
40
3
40
3
40
4
40
4
40
4
40
4
10
4.9309092975408486
20
-5.4644390329163075
30
0
10
4.9476936603338135
20
-5.3331180795471669
30
0
10
5.0254727435857713
20
-5.226701758746386
30
0
10
5.104623744562331
20
-5.226751197222951
30
0
10
5.1837623859197555
20
-5.2268006356995089
30
0
10
5.2342885089666291
20
-5.3332663949768548
30
0
10
5.217504146173658
20
-5.4646244272034172
30
0
0
SPLINE
5
175
100
AcDbEntity
8
0
100
AcDbSpline
70
0
71
3
72
8
73
4
74
0
42
0.000000001
43
0.0000000001
44
0.0000000001
40
0
40
0
40
0
40
0
40
1
40
1
40
1
40
1
10
6.0326457477361606
20
-5.5677530893127933
30
0
10
5.9414564777166268
20
-6.2814840158264662
30
0
10
5.5466902423650684
20
-6.8599265512268541
30
0
10
5.1509475971013963
20
-6.8597782357971653
30
0
0
SPLINE
5
176
100
AcDbEntity
8
0
100
AcDbSpline
70
0
71
3
72
8
73
4
74
0
42
0.000000001
43
0.0000000001
44
0.0000000001
40
0
40
0
40
0
40
0
40
1
40
1
40
1
40
1
10
-5.2318369793146191
20
-2.6777033456604467
30
0
10
-5.2501292156427448
20
-2.5634015878479501
30
0
10
-5.1907536052911816
20
-2.4033445199768568
30
0
10
-5.0032087444513378
20
-2.4079299386780253
30
0
0
SPLINE
5
177
100
AcDbEntity
8
0
100
AcDbSpline
70
0
71
3
72
8
73
4
74
0
42
0.000000001
43
0.0000000001
44
0.0000000001
40
5
40
5
40
5
40
5
40
6
40
6
40
6
40
6
10
2.8292178607732716
20
-4.7398316415588848
30
0
10
2.8083548236638958
20
-4.8898897775452133
30
0
10
2.7148543048650668
20
-4.9730205758850587
30
0
10
2.6097110248357711
20
-4.995861152056932
30
0
0
LINE
5
178
100
AcDbEntity
8
0
100
AcDbLine
10
-4.0916250347345411
20
-3.3385474618713844
30
0
11
-4.0916250347345411
21
-3.0066546090881814
31
0
0
SPLINE
5
179
100
AcDbEntity
8
0
100
AcDbSpline
70
0
71
3
72
8
73
4
74
0
42
0.000000001
43
0.0000000001
44
0.0000000001
40
6
40
6
40
6
40
6
40
7
40
7
40
7
40
7
10
5.1736769367010034
20
-4.3877678903381838
30
0
10
5.2723314166814736
20
-4.3153281625549802
30
0
10
5.3767701984197558
20
-4.2750728830139639
30
0
10
5.4812584186346012
20
-4.275122321490529
30
0
0
SPLINE
5
180
100
AcDbEntity
8
0
100
AcDbSpline
70
0
71
3
72
11
73
7
74
0
42
0.000000001
43
0.0000000001
44
0.0000000001
40
3
40
3
40
3
40
3
40
4
40
4
40
4
40
5
40
5
40
5
40
5
10
-4.2214010357111045
20
-2.8331749948303693
30
0
10
-4.2030470012872767
20
-3.0755224069397431
30
0
10
-4.2030470012872767
20
-3.3818308481018544
30
0
10
-4.2030470012872767
20
-3.473292029742479
30
0
10
-4.2030470012872767
20
-3.6242029794495112
30
0
10
-4.2305224346368853
20
-3.6653357919495106
30
0
10
-4.3768603252618856
20
-3.6927617868225577
30
0
0
SPLINE
5
181
100
AcDbEntity
8
0
100
AcDbSpline
70
0
71
3
72
8
73
4
74
0
42
0.000000001
43
0.0000000001
44
0.0000000001
40
3
40
3
40
3
40
3
40
4
40
4
40
4
40
4
10
-5.1906423687189172
20
-4.6849549325745103
30
0
10
-5.2546899151056339
20
-4.6118354257385743
30
0
10
-5.3964300274103234
20
-4.2323086007874027
30
0
10
-5.4376122783868839
20
-4.1500182565491217
30
0
0
SPLINE
5
182
100
AcDbEntity
8
0
100
AcDbSpline
70
0
71
3
72
11
73
7
74
0
42
0.000000001
43
0.0000000001
44
0.0000000001
40
0
40
0
40
0
40
0
40
1
40
1
40
1
40
2
40
2
40
2
40
2
10
1.3797682452947571
20
-4.3283181222717779
30
0
10
1.3797682452947571
20
-4.0219726022522453
30
0
10
1.3797682452947571
20
-3.7796622690002915
30
0
10
1.3797682452947571
20
-3.6745066293518551
30
0
10
1.3797682452947571
20
-3.569264472369432
30
0
10
1.4163527179510049
20
-3.4870359262268527
30
0
10
1.59465258367366
20
-3.4824752267639645
30
0
0
SPLINE
5
183
100
AcDbEntity
8
0
100
AcDbSpline
70
0
71
3
72
11
73
7
74
0
42
0.000000001
43
0.0000000001
44
0.0000000001
40
5
40
5
40
5
40
5
40
6
40
6
40
6
40
7
40
7
40
7
40
7
10
7.0906785846502238
20
1.8226440969665045
30
0
10
7.0837819171697571
20
2.0935422292907231
30
0
10
6.4082547410542334
20
2.1826985009320214
30
0
10
4.9816578937322564
20
2.2204260793883792
30
0
10
3.5550490220615063
20
2.2581539758389648
30
0
10
2.0187976337224898
20
2.2101305166442389
30
0
10
1.6587248492986608
20
2.1381233755309577
30
0
0
SPLINE
5
184
100
AcDbEntity
8
0
100
AcDbSpline
70
0
71
3
72
11
73
7
74
0
42
0.000000001
43
0.0000000001
44
0.0000000001
40
0
40
0
40
0
40
0
40
1
40
1
40
1
40
2
40
2
40
2
40
2
10
11.146289851740072
20
-2.8422840341370117
30
0
10
11.146292906798987
20
-2.8422859149553141
30
0
10
11.205714900568191
20
-2.8788685067932596
30
0
10
11.205714900568191
20
-3.0252187570374027
30
0
10
11.205714900568191
20
-3.1761049875061538
30
0
10
11.132548997764033
20
-3.2218213176535486
30
0
10
11.13254595525569
20
-3.2218232187073257
30
0
0
SPLINE
5
185
100
AcDbEntity
8
0
100
AcDbSpline
70
0
71
3
72
11
73
7
74
0
42
0.000000001
43
0.0000000001
44
0.0000000001
40
15
40
15
40
15
40
15
40
16
40
16
40
16
40
17
40
17
40
17
40
17
10
5.8492289996892843
20
-0.30007105195927658
30
0
10
5.0399334979803028
20
-0.18690637910771465
30
0
10
3.4590270600273429
20
-0.063456308901890551
30
0
10
2.3308780170232706
20
-0.018877356890917078
30
0
10
1.2026179108659603
20
0.025705983794592345
30
0
10
0.34533350659393564
20
-0.0051704101349073234
30
0
10
0.34532992132014578
20
-0.0051705392639636773
30
0
0
SPLINE
5
186
100
AcDbEntity
8
0
100
AcDbSpline
70
0
71
3
72
11
73
7
74
0
42
0.000000001
43
0.0000000001
44
0.0000000001
40
4
40
4
40
4
40
4
40
5
40
5
40
5
40
6
40
6
40
6
40
6
10
11.425221736505691
20
-2.1839118417541994
30
0
10
11.516757075861161
20
-2.1976186593811526
30
0
10
11.60814409978695
20
-2.3164934762756815
30
0
10
11.60814409978695
20
-2.910892279986617
30
0
10
11.60814409978695
20
-3.5053281625549775
30
0
10
11.397758662775217
20
-3.8071253427307599
30
0
10
11.269762446954916
20
-3.816246741656542
30
0
0
SPLINE
5
187
100
AcDbEntity
8
0
100
AcDbSpline
70
0
71
3
72
8
73
4
74
0
42
0.000000001
43
0.0000000001
44
0.0000000001
40
14
40
14
40
14
40
14
40
15
40
15
40
15
40
15
10
6.9980061603338131
20
-0.42696726167607302
30
0
10
6.8917134357244425
20
-0.44411005342412163
30
0
10
6.6585862994939777
20
-0.41326044404912138
30
0
10
5.8492289996892843
20
-0.30007105195927658
30
0
0
SPLINE
5
188
100
AcDbEntity
8
0
100
AcDbSpline
70
0
71
3
72
11
73
7
74
0
42
0.000000001
43
0.0000000001
44
0.0000000001
40
0
40
0
40
0
40
0
40
1
40
1
40
1
40
2
40
2
40
2
40
2
10
1.2465315509588162
20
-3.9601745065491172
30
0
10
1.2465315509588162
20
-3.9938173898499048
30
0
10
1.2465315509588162
20
-4.1705599435608409
30
0
10
1.2465315509588162
20
-4.2125950082581056
30
0
10
1.2465315509588162
20
-4.2546795114319345
30
0
10
1.2465315509588162
20
-4.288384192828417
30
0
10
1.1792210651189732
20
-4.2841819223206024
30
0
0
SPLINE
5
189
100
AcDbEntity
8
0
100
AcDbSpline
70
0
71
3
72
17
73
13
74
0
42
0.000000001
43
0.0000000001
44
0.0000000001
40
0
40
0
40
0
40
0
40
1
40
1
40
1
40
2
40
2
40
2
40
3
40
3
40
3
40
4
40
4
40
4
40
4
10
12.851843135431475
20
-0.62244699800420022
30
0
10
12.851839601379597
20
-0.62244761553133898
30
0
10
8.1810968541055189
20
-1.4385959075220776
30
0
10
6.3705330158025673
20
-1.7540937265198235
30
0
10
4.5598273231086148
20
-2.0696162641991371
30
0
10
3.2907881693102294
20
-2.3309452657538001
30
0
10
2.7148543048650668
20
-2.3096338876526361
30
0
10
2.5297320360047744
20
-2.3027837770580319
30
0
10
-0.85150239601654887
20
-1.9392731442463125
30
0
10
-1.7774470257013395
20
-1.8226772531311526
30
0
10
-5.00247050213971
20
-1.4165790113489751
30
0
10
-5.0420901357157701
20
-1.3563023824426808
30
0
10
-5.0420921062677451
20
-1.3562993844788074
30
0
0
SPLINE
5
190
100
AcDbEntity
8
0
100
AcDbSpline
70
0
71
3
72
8
73
4
74
0
42
0.000000001
43
0.0000000001
44
0.0000000001
40
2
40
2
40
2
40
2
40
3
40
3
40
3
40
3
10
1.1792210651189732
20
-4.2841819223206024
30
0
10
1.1119352985174105
20
-4.2799425729553722
30
0
10
0.5984831712608385
20
-4.187394381228791
30
0
10
0.59847964055842773
20
-4.18739374483037
30
0
0
LWPOLYLINE
5
191
100
AcDbEntity
8
0
100
AcDbPolyline
90
3
70
1
43
0.0
10
1.5352275348455366
20
1.6980220571715827
10
0.96831652410334801
20
0.19373281156611422
10
1.4392056537420206
20
0.19373281156611422
0
SPLINE
5
192
100
AcDbEntity
8
0
100
AcDbSpline
70
0
71
3
72
8
73
4
74
0
42
0.000000001
43
0.0000000001
44
0.0000000001
40
7
40
7
40
7
40
7
40
8
40
8
40
8
40
8
10
7.7811857867986616
20
-0.21097055757451061
30
0
10
7.7719655109197516
20
-0.06350794160771446
30
0
10
7.8840178180486555
20
0.063462425823927165
30
0
10
8.0314186359197581
20
0.072670342083691608
30
0
0
SPLINE
5
193
100
AcDbEntity
8
0
100
AcDbSpline
70
0
71
3
72
8
73
4
74
0
42
0.000000001
43
0.0000000001
44
0.0000000001
40
17
40
17
40
17
40
17
40
18
40
18
40
18
40
18
10
0.34532992132014578
20
-0.0051705392639636773
30
0
10
0.34533009632136907
20
-0.005166955936315774
30
0
10
0.34867937810725558
20
0.063412987347363836
30
0
10
0.41734942205256709
20
0.087427727337598571
30
0
0
SPLINE
5
194
100
AcDbEntity
8
0
100
AcDbSpline
70
0
71
3
72
8
73
4
74
0
42
0.000000001
43
0.0000000001
44
0.0000000001
40
8
40
8
40
8
40
8
40
9
40
9
40
9
40
9
10
4.6124513507635054
20
-6.2761323007385732
30
0
10
4.5621353412420191
20
-6.0109690316956073
30
0
10
4.5758668781072549
20
-5.1468215402405253
30
0
10
4.9507217670232704
20
-4.6620896371643532
30
0
0
SPLINE
5
195
100
AcDbEntity
8
0
100
AcDbSpline
70
0
71
3
72
8
73
4
74
0
42
0.000000001
43
0.0000000001
44
0.0000000001
40
4
40
4
40
4
40
4
40
5
40
5
40
5
40
5
10
7.0940404010564757
20
-0.097756446246385006
30
0
10
7.1009617877752218
20
0.053117424603223433
30
0
10
7.0975010944158461
20
1.5517088857848644
30
0
10
7.0906785846502238
20
1.8226440969665045
30
0
0
SPLINE
5
196
100
AcDbEntity
8
0
100
AcDbSpline
70
0
71
3
72
8
73
4
74
0
42
0.000000001
43
0.0000000001
44
0.0000000001
40
25
40
25
40
25
40
25
40
26
40
26
40
26
40
26
10
12.316795222833816
20
0.27603551542353638
30
0
10
12.43347002752132
20
0.30347386991572328
30
0
10
12.508838985040846
20
0.28290746366572256
30
0
10
12.529479549005693
20
0.20743962919306727
30
0
0
SPLINE
5
197
100
AcDbEntity
8
0
100
AcDbSpline
70
0
71
3
72
8
73
4
74
0
42
0.000000001
43
0.0000000001
44
0.0000000001
40
5
40
5
40
5
40
5
40
6
40
6
40
6
40
6
10
1.1960054279119428
20
-3.8843853219788071
30
0
10
1.2381393695623335
20
-3.8928269418518542
30
0
10
1.2465315509588162
20
-3.9265192636291983
30
0
10
1.2465315509588162
20
-3.9601745065491172
30
0
0
SPLINE
5
198
100
AcDbEntity
8
0
100
AcDbSpline
70
0
71
3
72
11
73
7
74
0
42
0.000000001
43
0.0000000001
44
0.0000000001
40
7
40
7
40
7
40
7
40
8
40
8
40
8
40
9
40
9
40
9
40
9
10
2.93091280706233
20
2.690215202923536
30
0
10
2.4965957904607685
20
2.6462149587829105
30
0
10
2.1066362785129251
20
2.5790341946780044
30
0
10
1.826753871515459
20
2.5256468740661138
30
0
10
1.2334278776758938
20
2.4124704675877728
30
0
10
1.158061397150224
20
2.2341328970153325
30
0
10
1.1716816974431914
20
2.1072366872985357
30
0
0
SPLINE
5
199
100
AcDbEntity
8
0
100
AcDbSpline
70
0
71
3
72
8
73
4
74
0
42
0.000000001
43
0.0000000001
44
0.0000000001
40
0
40
0
40
0
40
0
40
1
40
1
40
1
40
1
10
4.6627673602849882
20
-6.4316410287659158
30
0
10
4.6627707499066213
20
-6.4316422040648664
30
0
10
5.0827101398260011
20
-6.5772497018616187
30
0
10
5.3348216510564752
20
-5.7868891366760735
30
0
0
SPLINE
5
200
100
AcDbEntity
8
0
100
AcDbSpline
70
0
71
3
72
8
73
4
74
0
42
0.000000001
43
0.0000000001
44
0.0000000001
40
5
40
5
40
5
40
5
40
6
40
6
40
6
40
6
10
9.4636760211736615
20
-0.062333777789353811
30
0
10
9.4636751120268414
20
-0.062330307297383016
30
0
10
9.0953099323064741
20
1.3438324514586917
30
0
10
8.9835542560369426
20
1.6157317129333015
30
0
0
SPLINE
5
201
100
AcDbEntity
8
0
100
AcDbSpline
70
0
71
3
72
8
73
4
74
0
42
0.000000001
43
0.0000000001
44
0.0000000001
40
18
40
18
40
18
40
18
40
19
40
19
40
19
40
19
10
-5.381586124822431
20
-2.155324042681932
30
0
10
-5.3815865844704192
20
-2.1553276007131568
30
0
10
-5.3953176616876659
20
-2.261616767291307
30
0
10
-5.3335813640802447
20
-2.6113939889709963
30
0
0
LINE
5
202
100
AcDbEntity
8
0
100
AcDbLine
10
-3.6798643230646202
20
-3.4142254098694318
30
0
11
-4.0916250347345411
21
-3.3385474618713844
31
0
0
SPLINE
5
203
100
AcDbEntity
8
0
100
AcDbSpline
70
0
71
3
72
8
73
4
74
0
42
0.000000001
43
0.0000000001
44
0.0000000001
40
7
40
7
40
7
40
7
40
8
40
8
40
8
40
8
10
5.4812584186346012
20
-4.275122321490529
30
0
10
5.8769887042791291
20
-4.2752829965393557
30
0
10
6.1238597369939702
20
-4.8540345224182602
30
0
10
6.0326457477361606
20
-5.5677530893127933
30
0
0
SPLINE
5
204
100
AcDbEntity
8
0
100
AcDbSpline
70
0
71
3
72
11
73
7
74
0
42
0.000000001
43
0.0000000001
44
0.0000000001
40
29
40
29
40
29
40
29
40
30
40
30
40
30
40
31
40
31
40
31
40
31
10
9.4636760211736615
20
-0.28637659395146375
30
0
10
9.4636795916045919
20
-0.28637624340130757
30
0
10
10.225892486679669
20
-0.21154106136386946
30
0
10
11.260641048029125
20
-0.087460883502246345
30
0
10
12.108163830455201
20
0.014168421928302061
30
0
10
12.577505445253614
20
0.035974466351655576
30
0
10
12.577509028986167
20
0.035974632855176256
30
0
0
SPLINE
5
205
100
AcDbEntity
8
0
100
AcDbSpline
70
0
71
3
72
8
73
4
74
0
42
0.000000001
43
0.0000000001
44
0.0000000001
40
1
40
1
40
1
40
1
40
2
40
2
40
2
40
2
10
5.1509475971013963
20
-6.8597782357971653
30
0
10
5.0094299579412382
20
-6.8597287973206038
30
0
10
4.8869955707342081
20
-6.7857070382874021
30
0
10
4.792234370783035
20
-6.6580198129456019
30
0
0
SPLINE
5
206
100
AcDbEntity
8
0
100
AcDbSpline
70
0
71
3
72
8
73
4
74
0
42
0.000000001
43
0.0000000001
44
0.0000000001
40
6
40
6
40
6
40
6
40
7
40
7
40
7
40
7
10
8.9835542560369426
20
1.6157317129333015
30
0
10
8.8464366412908468
20
1.9495032278258795
30
0
10
8.6382759357244421
20
2.1028490225036141
30
0
10
8.3846812701970936
20
2.1186693350036134
30
0
0
SPLINE
5
207
100
AcDbEntity
8
0
100
AcDbSpline
70
0
71
3
72
8
73
4
74
0
42
0.000000001
43
0.0000000001
44
0.0000000001
40
3
40
3
40
3
40
3
40
4
40
4
40
4
40
4
10
11.288104121759597
20
-2.3576386483948237
30
0
10
11.288104971640999
20
-2.3576351629157957
30
0
10
11.333809993341626
20
-2.1701926645081073
30
0
10
11.425221736505691
20
-2.1839118417541994
30
0
0
SPLINE
5
208
100
AcDbEntity
8
0
100
AcDbSpline
70
0
71
3
72
8
73
4
74
0
42
0.000000001
43
0.0000000001
44
0.0000000001
40
0
40
0
40
0
40
0
40
1
40
1
40
1
40
1
10
12.64949145086115
20
0.12172567045283174
30
0
10
12.649490997894802
20
0.12172922934085346
30
0
10
12.625489070490067
20
0.31030873930048947
30
0
10
12.539738032892416
20
0.35149099027705077
30
0
0
SPLINE
5
209
100
AcDbEntity
8
0
100
AcDbSpline
70
0
71
3
72
8
73
4
74
0
42
0.000000001
43
0.0000000001
44
0.0000000001
40
24
40
24
40
24
40
24
40
25
40
25
40
25
40
25
10
9.374563167169752
20
-0.17663553560185469
30
0
10
9.3745667148208867
20
-0.17663500171620333
30
0
10
12.200219295099442
20
0.24859716093134812
30
0
10
12.316795222833816
20
0.27603551542353638
30
0
0
SPLINE
5
210
100
AcDbEntity
8
0
100
AcDbSpline
70
0
71
3
72
11
73
7
74
0
42
0.000000001
43
0.0000000001
44
0.0000000001
40
27
40
27
40
27
40
27
40
28
40
28
40
28
40
29
40
29
40
29
40
29
10
12.550021236017415
20
0.13199651395869275
30
0
10
12.550017649088792
20
0.13199644463672341
30
0
10
12.193399688477269
20
0.12510434792106284
30
0
10
10.80904528386897
20
-0.073679908160447088
30
0
10
10.344027948514601
20
-0.14045336210093667
30
0
10
9.4636795604804735
20
-0.28637600729166024
30
0
10
9.4636760211736615
20
-0.28637659395146375
30
0
0
SPLINE
5
211
100
AcDbEntity
8
0
100
AcDbSpline
70
0
71
3
72
8
73
4
74
0
42
0.000000001
43
0.0000000001
44
0.0000000001
40
6
40
6
40
6
40
6
40
7
40
7
40
7
40
7
10
5.1598588825017853
20
-5.777038520220998
30
0
10
5.1478082538396741
20
-5.8131780465881837
30
0
10
5.0502167011053034
20
-6.0963616403381797
30
0
10
4.9005169940740521
20
-6.2075734933655262
30
0
0
SPLINE
5
212
100
AcDbEntity
8
0
100
AcDbSpline
70
0
71
3
72
11
73
7
74
0
42
0.000000001
43
0.0000000001
44
0.0000000001
40
3
40
3
40
3
40
3
40
4
40
4
40
4
40
5
40
5
40
5
40
5
10
11.224056575372877
20
-2.4673673471252933
30
0
10
11.224059251167553
20
-2.4673697368920879
30
0
10
11.352052791193197
20
-2.5816814645569317
30
0
10
11.352052791193197
20
-3.0023534616272456
30
0
10
11.352052791193197
20
-3.345407050494432
30
0
10
11.132548339726196
20
-3.5921641661216035
30
0
10
11.13254595525569
20
-3.5921668466370122
30
0
0
SPLINE
5
213
100
AcDbEntity
8
0
100
AcDbSpline
70
0
71
3
72
8
73
4
74
0
42
0.000000001
43
0.0000000001
44
0.0000000001
40
8
40
8
40
8
40
8
40
9
40
9
40
9
40
9
10
8.0314186359197581
20
0.072670342083691608
30
0
10
8.1788936115056874
20
0.081865898724317571
30
0
10
8.3058516193181955
20
-0.030223487262010702
30
0
10
8.3150718951971019
20
-0.17763666475224493
30
0
0
SPLINE
5
214
100
AcDbEntity
8
0
100
AcDbSpline
70
0
71
3
72
11
73
7
74
0
42
0.000000001
43
0.0000000001
44
0.0000000001
40
15
40
15
40
15
40
15
40
16
40
16
40
16
40
17
40
17
40
17
40
17
10
1.5557692218572552
20
-1.2465706857483383
30
0
10
1.5557724557190697
20
-1.2465691323648613
30
0
10
2.3728008730567622
20
-0.85411004854423489
30
0
10
3.6796956134588141
20
-0.6292818673889643
30
0
10
4.955330956122511
20
-0.40983131407184936
30
0
10
5.5949880608638969
20
-0.35215480919685443
30
0
10
5.5949916339666306
20
-0.35215448701786894
30
0
0
SPLINE
5
215
100
AcDbEntity
8
0
100
AcDbSpline
70
0
71
3
72
8
73
4
74
0
42
0.000000001
43
0.0000000001
44
0.0000000001
40
4
40
4
40
4
40
4
40
5
40
5
40
5
40
5
10
5.6503627277166277
20
-5.6406254037659167
30
0
10
5.5314631915838151
20
-6.2304387887756842
30
0
10
5.243409907892409
20
-6.5185044320862282
30
0
10
4.9873185992986633
20
-6.555088904742477
30
0
0
SPLINE
5
216
100
AcDbEntity
8
0
100
AcDbSpline
70
0
71
3
72
11
73
7
74
0
42
0.000000001
43
0.0000000001
44
0.0000000001
40
13
40
13
40
13
40
13
40
14
40
14
40
14
40
15
40
15
40
15
40
15
10
5.165729701593583
20
-0.30465647066044743
30
0
10
5.1657261511478936
20
-0.30465698563410276
30
0
10
3.9677601974950525
20
-0.47841570804083589
30
0
10
2.9846895099431916
20
-0.70245081270146337
30
0
10
1.9031722313098627
20
-0.94892122401470058
30
0
10
1.5557719462475981
20
-1.2465683515333283
30
0
10
1.5557692218572552
20
-1.2465706857483383
30
0
0
SPLINE
5
217
100
AcDbEntity
8
0
100
AcDbSpline
70
0
71
3
72
11
73
7
74
0
42
0.000000001
43
0.0000000001
44
0.0000000001
40
7
40
7
40
7
40
7
40
8
40
8
40
8
40
9
40
9
40
9
40
9
10
1.7913312030584247
20
-0.10346659028935458
30
0
10
1.7913276400046323
20
-0.10346700922864623
30
0
10
0.89074826835256027
20
-0.20935597582093501
30
0
10
-0.29369946710758776
20
-0.39610529268193223
30
0
10
-1.395657726195666
20
-0.56984867192363819
30
0
10
-1.6974652955147755
20
-0.84877390873852632
30
0
10
-1.697467930242355
20
-0.84877634370732258
30
0
0
SPLINE
5
218
100
AcDbEntity
8
0
100
AcDbSpline
70
0
71
3
72
8
73
4
74
0
42
0.000000001
43
0.0000000001
44
0.0000000001
40
32
40
32
40
32
40
32
40
33
40
33
40
33
40
33
10
12.824355342462717
20
-0.24521906221318221
30
0
10
12.886103999689286
20
-0.40983682954716716
30
0
10
12.851843706188573
20
-0.62244345609810292
30
0
10
12.851843135431475
20
-0.62244699800420022
30
0
0
SPLINE
5
219
100
AcDbEntity
8
0
100
AcDbSpline
70
0
71
3
72
8
73
4
74
0
42
0.000000001
43
0.0000000001
44
0.0000000001
40
1
40
1
40
1
40
1
40
2
40
2
40
2
40
2
10
-4.0916250347345411
20
-3.0066546090881814
30
0
10
-4.0916215056584164
20
-3.0066552544440208
30
0
10
-3.7470635723321966
20
-3.0696639474670886
30
0
10
-3.7008262371271203
20
-3.0738414987366167
30
0
0
SPLINE
5
220
100
AcDbEntity
8
0
100
AcDbSpline
70
0
71
3
72
8
73
4
74
0
42
0.000000001
43
0.0000000001
44
0.0000000001
40
1
40
1
40
1
40
1
40
2
40
2
40
2
40
2
10
5.243409907892409
20
-5.1513328012268556
30
0
10
5.2434068112915186
20
-5.1513309896183435
30
0
10
5.0559762836248323
20
-5.0416782602112331
30
0
10
4.9187597919256154
20
-5.1970881112854466
30
0
0
SPLINE
5
221
100
AcDbEntity
8
0
100
AcDbSpline
70
0
71
3
72
8
73
4
74
0
42
0.000000001
43
0.0000000001
44
0.0000000001
40
2
40
2
40
2
40
2
40
3
40
3
40
3
40
3
10
-4.4134447979181353
20
-2.4765134652893535
30
0
10
-4.3402758526056351
20
-2.4948180612366193
30
0
10
-4.2396438335626661
20
-2.5908028634827147
30
0
10
-4.2214010357111045
20
-2.8331749948303693
30
0
0
SPLINE
5
222
100
AcDbEntity
8
0
100
AcDbSpline
70
0
71
3
72
8
73
4
74
0
42
0.000000001
43
0.0000000001
44
0.0000000001
40
4
40
4
40
4
40
4
40
5
40
5
40
5
40
5
10
5.1598588825017853
20
-5.777038520220998
30
0
10
5.160699336603348
20
-5.7745913156311532
30
0
10
5.1611308444101835
20
-5.7732228194437534
30
0
10
5.1611319232732678
20
-5.7732193979065398
30
0
0
SPLINE
5
223
100
AcDbEntity
8
0
100
AcDbSpline
70
0
71
3
72
8
73
4
74
0
42
0.000000001
43
0.0000000001
44
0.0000000001
40
7
40
7
40
7
40
7
40
8
40
8
40
8
40
8
10
8.3846812701970936
20
2.1186693350036134
30
0
10
8.0920054889470983
20
2.1369615713317387
30
0
10
7.1683747381224059
20
2.1415469722223577
30
0
10
7.1683711505681895
20
2.1415469900329107
30
0
0
LINE
5
224
100
AcDbEntity
8
0
100
AcDbLine
10
12.135108821466627
20
0.31718068754267631
30
0
11
9.6077150226385033
21
0.25545674955439651
31
0
0
SPLINE
5
225
100
AcDbEntity
8
0
100
AcDbSpline
70
0
71
3
72
8
73
4
74
0
42
0.000000001
43
0.0000000001
44
0.0000000001
40
0
40
0
40
0
40
0
40
1
40
1
40
1
40
1
10
1.5672018695623318
20
0.20743962919306727
30
0
10
1.5672020417645067
20
0.20744321265631763
30
0
10
1.6403708148748324
20
1.730058189984083
30
0
10
1.6449809528142842
20
1.7620448843200203
30
0
0
SPLINE
5
226
100
AcDbEntity
8
0
100
AcDbSpline
70
0
71
3
72
8
73
4
74
0
42
0.000000001
43
0.0000000001
44
0.0000000001
40
31
40
31
40
31
40
31
40
32
40
32
40
32
40
32
10
12.577509028986167
20
0.035974632855176256
30
0
10
12.577512064503207
20
0.035972720657810625
30
0
10
12.762606685236168
20
-0.080626014117478051
30
0
10
12.824355342462717
20
-0.24521906221318221
30
0
0
SPLINE
5
227
100
AcDbEntity
8
0
100
AcDbSpline
70
0
71
3
72
11
73
7
74
0
42
0.000000001
43
0.0000000001
44
0.0000000001
40
9
40
9
40
9
40
9
40
10
40
10
40
10
40
11
40
11
40
11
40
11
10
-1.697467930242355
20
-0.84877634370732258
30
0
10
-1.6974646542154128
20
-0.8487748813428212
30
0
10
-1.1852740164488684
20
-0.62014141161692393
30
0
10
-0.033096897527509439
20
-0.43726282442021308
30
0
10
1.1191646126236605
20
-0.25437084227872653
30
0
10
2.4630482149859283
20
-0.11747040236005857
30
0
10
2.4630517841131128
20
-0.11747003877568231
30
0
0
SPLINE
5
228
100
AcDbEntity
8
0
100
AcDbSpline
70
0
71
3
72
17
73
13
74
0
42
0.000000001
43
0.0000000001
44
0.0000000001
40
3
40
3
40
3
40
3
40
4
40
4
40
4
40
5
40
5
40
5
40
6
40
6
40
6
40
7
40
7
40
7
40
7
10
9.6077150226385033
20
0.25545674955439651
30
0
10
9.6077140660588061
20
0.25546020727297131
30
0
10
9.1893373780919312
20
1.7677532790197366
30
0
10
9.0967683673650654
20
2.0078159109313485
30
0
10
9.0042150033704633
20
2.2478379655947212
30
0
10
8.9252912532916309
20
2.4330254294372091
30
0
10
7.985712764337725
20
2.5804865041930669
30
0
10
7.046035882223209
20
2.7279630211513402
30
0
10
5.1016946120230644
20
2.7999779405043763
30
0
10
4.3506869769842069
20
2.7759662405211922
30
0
10
3.9540174116228375
20
2.7632836656024637
30
0
10
3.4172020221502217
20
2.7395177236754886
30
0
10
2.93091280706233
20
2.690215202923536
30
0
0
SPLINE
5
229
100
AcDbEntity
8
0
100
AcDbSpline
70
0
71
3
72
8
73
4
74
0
42
0.000000001
43
0.0000000001
44
0.0000000001
40
2
40
2
40
2
40
2
40
3
40
3
40
3
40
3
10
3.5379678607732692
20
0.99389455473017663
30
0
10
3.5379681767286733
20
0.99389812838861602
30
0
10
3.6111368060857711
20
1.821482292767286
30
0
10
4.0363200641424122
20
1.9266626516540044
30
0
0
SPLINE
5
230
100
AcDbEntity
8
0
100
AcDbSpline
70
0
71
3
72
8
73
4
74
0
42
0.000000001
43
0.0000000001
44
0.0000000001
40
38
40
38
40
38
40
38
40
39
40
39
40
39
40
39
10
7.8587794757635026
20
-4.8266826852600566
30
0
10
7.8863414264470926
20
-4.8124814828674776
30
0
10
7.8609794879705328
20
-4.820119727496385
30
0
10
10.056888301447097
20
-3.7842106088440404
30
0
0
SPLINE
5
231
100
AcDbEntity
8
0
100
AcDbSpline
70
0
71
3
72
8
73
4
74
0
42
0.000000001
43
0.0000000001
44
0.0000000001
40
3
40
3
40
3
40
3
40
4
40
4
40
4
40
4
10
5.1702533221990485
20
-6.6465006479065432
30
0
10
5.2881517291814752
20
-6.592093604449512
30
0
10
5.4282109332830339
20
-6.4725884469788078
30
0
10
5.5497059894353749
20
-6.271633399371388
30
0
0
LINE
5
232
100
AcDbEntity
8
0
100
AcDbLine
10
12.529479549005693
20
0.20743962919306727
30
0
11
12.550021236017415
21
0.13199651395869275
31
0
0
SPLINE
5
233
100
AcDbEntity
8
0
100
AcDbSpline
70
0
71
3
72
8
73
4
74
0
42
0.000000001
43
0.0000000001
44
0.0000000001
40
1
40
1
40
1
40
1
40
2
40
2
40
2
40
2
10
5.0439256549627256
20
-5.7023122628967773
30
0
10
4.9646757770330376
20
-5.7023122628967773
30
0
10
4.9141496539861587
20
-5.5957970651428681
30
0
10
4.9309092975408486
20
-5.4644390329163075
30
0
0
SPLINE
5
234
100
AcDbEntity
8
0
100
AcDbSpline
70
0
71
3
72
8
73
4
74
0
42
0.000000001
43
0.0000000001
44
0.0000000001
40
6
40
6
40
6
40
6
40
7
40
7
40
7
40
7
10
7.8999617267400684
20
-0.41667169893193157
30
0
10
7.8328737140447533
20
-0.37190515840458865
30
0
10
7.7865251422674122
20
-0.29769800508427657
30
0
10
7.7811857867986616
20
-0.21097055757451061
30
0
0
SPLINE
5
235
100
AcDbEntity
8
0
100
AcDbSpline
70
0
71
3
72
8
73
4
74
0
42
0.000000001
43
0.0000000001
44
0.0000000001
40
2
40
2
40
2
40
2
40
3
40
3
40
3
40
3
10
11.425221736505691
20
-2.9749027475159164
30
0
10
11.42910265691585
20
-2.4627819284241208
30
0
10
11.288106997756922
20
-2.3576407930397454
30
0
10
11.288104121759597
20
-2.3576386483948237
30
0
0
SPLINE
5
236
100
AcDbEntity
8
0
100
AcDbSpline
70
0
71
3
72
8
73
4
74
0
42
0.000000001
43
0.0000000001
44
0.0000000001
40
1
40
1
40
1
40
1
40
2
40
2
40
2
40
2
10
11.160009028986158
20
-3.6973719247620096
30
0
10
11.160012271287805
20
-3.6973703890724385
30
0
10
11.420722835138506
20
-3.573886969928028
30
0
10
11.425221736505691
20
-2.9749027475159164
30
0
0
SPLINE
5
237
100
AcDbEntity
8
0
100
AcDbSpline
70
0
71
3
72
8
73
4
74
0
42
0.000000001
43
0.0000000001
44
0.0000000001
40
0
40
0
40
0
40
0
40
1
40
1
40
1
40
1
10
11.269762446954916
20
-3.816246741656542
30
0
10
11.178449580743969
20
-3.8227355417053719
30
0
10
11.160009551091134
20
-3.6973754741660252
30
0
10
11.160009028986158
20
-3.6973719247620096
30
0
0
SPLINE
5
238
100
AcDbEntity
8
0
100
AcDbSpline
70
0
71
3
72
17
73
13
74
0
42
0.000000001
43
0.0000000001
44
0.0000000001
40
0
40
0
40
0
40
0
40
1
40
1
40
1
40
2
40
2
40
2
40
3
40
3
40
3
40
4
40
4
40
4
40
4
10
1.9420691180974876
20
-3.7564879831116196
30
0
10
2.1830693317205356
20
-3.7564879831116196
30
0
10
2.3878929401189732
20
-4.0332940133850617
30
0
10
2.3878929401189732
20
-4.300546058062789
30
0
10
2.3878929401189732
20
-4.5677486642639655
30
0
10
2.2975317645818611
20
-4.8207006295959953
30
0
10
2.0565439105779575
20
-4.8207006295959953
30
0
10
1.8155313373357718
20
-4.8207006295959953
30
0
10
1.598657100275223
20
-4.5963735421936542
30
0
10
1.598657100275223
20
-4.2145972665588864
30
0
10
1.598657100275223
20
-3.9903072580139649
30
0
10
1.7010565448553026
20
-3.7564879831116196
30
0
10
1.9420691180974876
20
-3.7564879831116196
30
0
0
SPLINE
5
239
100
AcDbEntity
8
0
100
AcDbSpline
70
0
71
3
72
11
73
7
74
0
42
0.000000001
43
0.0000000001
44
0.0000000001
40
0
40
0
40
0
40
0
40
1
40
1
40
1
40
2
40
2
40
2
40
2
10
11.11430315740413
20
-3.3544295724670894
30
0
10
11.114306027950386
20
-3.3544274205315352
30
0
10
11.260641327578762
20
-3.2447256056469702
30
0
10
11.269762446954916
20
-3.0435109933655289
30
0
10
11.278884125447458
20
-2.8422840468098585
30
0
10
11.182851306315726
20
-2.6639749674222855
30
0
10
11.182849605158038
20
-2.6639718087952158
30
0
0
LINE
5
240
100
AcDbEntity
8
0
100
AcDbLine
10
6.7889061237127253
20
0.53206502592158311
30
0
11
5.3348216510564752
21
0.55493032133173825
31
0
0
SPLINE
5
241
100
AcDbEntity
8
0
100
AcDbSpline
70
0
71
3
72
8
73
4
74
0
42
0.000000001
43
0.0000000001
44
0.0000000001
40
35
40
35
40
35
40
35
40
36
40
36
40
36
40
36
10
2.6325639606267877
20
-3.1395699533264665
30
0
10
2.37657152898616
20
-3.0938270028870107
30
0
10
-1.884889194890792
20
-2.5450969919006834
30
0
10
-2.1592233013361031
20
-2.4994281991760703
30
0
0
SPLINE
5
242
100
AcDbEntity
8
0
100
AcDbSpline
70
0
71
3
72
11
73
7
74
0
42
0.000000001
43
0.0000000001
44
0.0000000001
40
0
40
0
40
0
40
0
40
1
40
1
40
1
40
2
40
2
40
2
40
2
10
0.41734942205256709
20
0.087427727337598571
30
0
10
0.41735300456632113
20
0.087427918276509448
30
0
10
1.1512387180131178
20
0.12654216839819143
30
0
10
2.5502736163885054
20
0.063412987347363836
30
0
10
3.9604318319008693
20
-0.00021811535119389933
30
0
10
5.2041063190252235
20
-0.12027567232060465
30
0
10
5.9932432819158477
20
-0.22465265596318218
30
0
0
SPLINE
5
243
100
AcDbEntity
8
0
100
AcDbSpline
70
0
71
3
72
8
73
4
74
0
42
0.000000001
43
0.0000000001
44
0.0000000001
40
7
40
7
40
7
40
7
40
8
40
8
40
8
40
8
10
-5.4421729778497756
20
-3.9122686227600623
30
0
10
-5.442173968404024
20
-3.9122720708993737
30
0
10
-5.4838496135919632
20
-4.0573458322327136
30
0
10
-5.0215504192560259
20
-4.1911510690491198
30
0
0
SPLINE
5
244
100
AcDbEntity
8
0
100
AcDbSpline
70
0
71
3
72
8
73
4
74
0
42
0.000000001
43
0.0000000001
44
0.0000000001
40
13
40
13
40
13
40
13
40
14
40
14
40
14
40
14
10
-1.3635728191583703
20
-5.0233365854065415
30
0
10
-1.3411524700372759
20
-5.0642222055237305
30
0
10
-1.3178793071954797
20
-5.0782132943909168
30
0
10
-1.2355766033380562
20
-5.1010662301819307
30
0
0
SPLINE
5
245
100
AcDbEntity
8
0
100
AcDbSpline
70
0
71
3
72
8
73
4
74
0
42
0.000000001
43
0.0000000001
44
0.0000000001
40
3
40
3
40
3
40
3
40
4
40
4
40
4
40
4
10
4.9005169940740521
20
-5.7823407968323233
30
0
10
5.0218142963201462
20
-5.8673008188049778
30
0
10
5.1428767658025665
20
-5.7949846872131818
30
0
10
5.1598588825017853
20
-5.777038520220998
30
0
0
SPLINE
5
246
100
AcDbEntity
8
0
100
AcDbSpline
70
0
71
3
72
8
73
4
74
0
42
0.000000001
43
0.0000000001
44
0.0000000001
40
13
40
13
40
13
40
13
40
14
40
14
40
14
40
14
10
6.2630784869939724
20
-2.6182659372131809
30
0
10
5.4034669757635054
20
-2.4262221750061514
30
0
10
4.4935797001812512
20
-2.9109523912720179
30
0
10
4.4935765338689686
20
-2.9109540780823235
30
0
0
SPLINE
5
247
100
AcDbEntity
8
0
100
AcDbSpline
70
0
71
3
72
13
73
9
74
0
42
0.000000001
43
0.0000000001
44
0.0000000001
40
2
40
2
40
2
40
2
40
3
40
3
40
4
40
4
40
4
40
5
40
5
40
5
40
5
10
-3.7008262371271203
20
-3.0738414987366167
30
0
10
-3.654601261541182
20
-3.0780932077209968
30
0
10
-3.6378292583673528
20
-3.0991169198791999
30
0
10
-3.6378292583673528
20
-3.1914679940979473
30
0
10
-3.6378292583673528
20
-3.3175855478088851
30
0
10
-3.6378292583673528
20
-3.355307105426073
30
0
10
-3.6378292583673528
20
-3.3931522592346672
30
0
10
-3.6798611159182357
20
-3.414223802052732
30
0
10
-3.6798643230646202
20
-3.4142254098694318
30
0
0
SPLINE
5
248
100
AcDbEntity
8
0
100
AcDbSpline
70
0
71
3
72
8
73
4
74
0
42
0.000000001
43
0.0000000001
44
0.0000000001
40
6
40
6
40
6
40
6
40
7
40
7
40
7
40
7
10
-5.0032087444513378
20
-3.5419002755920874
30
0
10
-5.0969317363946978
20
-3.366628516558885
30
0
10
-5.2135447429864943
20
-2.7920174630920878
30
0
10
-5.2318369793146191
20
-2.6777033456604467
30
0
0
SPLINE
5
249
100
AcDbEntity
8
0
100
AcDbSpline
70
0
71
3
72
8
73
4
74
0
42
0.000000001
43
0.0000000001
44
0.0000000001
40
3
40
3
40
3
40
3
40
4
40
4
40
4
40
4
10
-2.7901818584650107
20
-4.492960608844041
30
0
10
-2.9273983501642293
20
-4.4609244760315416
30
0
10
-2.9822256206720414
20
-4.4792290719788097
30
0
10
-3.0462855266779001
20
-4.5112528451721658
30
0
0
SPLINE
5
250
100
AcDbEntity
8
0
100
AcDbSpline
70
0
71
3
72
11
73
7
74
0
42
0.000000001
43
0.0000000001
44
0.0000000001
40
24
40
24
40
24
40
24
40
25
40
25
40
25
40
26
40
26
40
26
40
26
10
6.6836516071111607
20
-4.1317136606018527
30
0
10
6.4322569537908469
20
-3.6379345163147412
30
0
10
6.1670449531852842
20
-3.39556603245823
30
0
10
5.5771690631658464
20
-3.5098888620178705
30
0
10
4.9873193061813135
20
-3.6242066267790594
30
0
10
4.6002894855291299
20
-4.1188843759338845
30
0
10
4.4203952289373349
20
-4.7398316415588848
30
0
0
SPLINE
5
251
100
AcDbEntity
8
0
100
AcDbSpline
70
0
71
3
72
8
73
4
74
0
42
0.000000001
43
0.0000000001
44
0.0000000001
40
11
40
11
40
11
40
11
40
12
40
12
40
12
40
12
10
-2.8587406658380563
20
-4.5752509530823238
30
0
10
-2.78107281915837
20
-4.5935431894104477
30
0
10
-1.5693481182306344
20
-4.8496344980041952
30
0
10
-1.5054241680353231
20
-4.8724874337952118
30
0
0
SPLINE
5
252
100
AcDbEntity
8
0
100
AcDbSpline
70
0
71
3
72
8
73
4
74
0
42
0.000000001
43
0.0000000001
44
0.0000000001
40
21
40
21
40
21
40
21
40
22
40
22
40
22
40
22
10
7.3420732379705358
20
-5.0050443490784158
30
0
10
7.3420698137290898
20
-5.005045419327443
30
0
10
6.9763273883611632
20
-5.1193584665100555
30
0
10
6.9260237384588148
20
-5.1376012643616189
30
0
0
SPLINE
5
253
100
AcDbEntity
8
0
100
AcDbSpline
70
0
71
3
72
8
73
4
74
0
42
0.000000001
43
0.0000000001
44
0.0000000001
40
2
40
2
40
2
40
2
40
3
40
3
40
3
40
3
10
4.9187597919256154
20
-5.1970881112854466
30
0
10
4.7816421771795223
20
-5.352547400836233
30
0
10
4.7633005023748334
20
-5.6863189157288065
30
0
10
4.9005169940740521
20
-5.7823407968323233
30
0
0
LINE
5
254
100
AcDbEntity
8
0
100
AcDbLine
10
-3.4303730510919621
20
-3.057180732135059
30
0
11
-3.43037305109493
21
-3.2115400155817437
31
0
0
SPLINE
5
255
100
AcDbEntity
8
0
100
AcDbSpline
70
0
71
3
72
8
73
4
74
0
42
0.000000001
43
0.0000000001
44
0.0000000001
40
12
40
12
40
12
40
12
40
13
40
13
40
13
40
13
10
5.2023265338689759
20
-2.4719527658264639
30
0
10
5.9063551593572559
20
-2.3987838205139647
30
0
10
6.2630754314332782
20
-2.6182640572101756
30
0
10
6.2630784869939724
20
-2.6182659372131809
30
0
0
SPLINE
5
256
100
AcDbEntity
8
0
100
AcDbSpline
70
0
71
3
72
11
73
7
74
0
42
0.000000001
43
0.0000000001
44
0.0000000001
40
17
40
17
40
17
40
17
40
18
40
18
40
18
40
19
40
19
40
19
40
19
10
7.4335838580877232
20
-4.9547777780334972
30
0
10
7.4473277545720968
20
-4.9501676400940413
30
0
10
7.2231983152710582
20
-2.974901732567699
30
0
10
5.8195411945135014
20
-3.1212282785217753
30
0
10
4.415784985185466
20
-3.267565154126908
30
0
10
4.1505729304536469
20
-4.9867485670937253
30
0
10
4.1505723834783455
20
-4.9867521127502892
30
0
0
SPLINE
5
257
100
AcDbEntity
8
0
100
AcDbSpline
70
0
71
3
72
8
73
4
74
0
42
0.000000001
43
0.0000000001
44
0.0000000001
40
46
40
46
40
46
40
46
40
47
40
47
40
47
40
47
10
12.842622859552568
20
-0.71157221162724549
30
0
10
12.842622309662355
20
-0.71157575683291086
30
0
10
12.80149004705258
20
-0.97676019990849505
30
0
10
12.769528071954914
20
-1.2602775033752933
30
0
0
LINE
5
258
100
AcDbEntity
8
0
100
AcDbLine
10
-4.0887946819513381
20
-3.6562143930237299
30
0
11
-4.0887946819513381
21
-3.5097605612398994
31
0
0
SPLINE
5
259
100
AcDbEntity
8
0
100
AcDbSpline
70
0
71
3
72
8
73
4
74
0
42
0.000000001
43
0.0000000001
44
0.0000000001
40
13
40
13
40
13
40
13
40
14
40
14
40
14
40
14
10
7.190074641779133
20
-0.12175882661748021
30
0
10
7.1797914386541297
20
-0.31723856294560349
30
0
10
7.1043236041814675
20
-0.40983682954716716
30
0
10
6.9980061603338131
20
-0.42696726167607302
30
0
0
SPLINE
5
260
100
AcDbEntity
8
0
100
AcDbSpline
70
0
71
3
72
8
73
4
74
0
42
0.000000001
43
0.0000000001
44
0.0000000001
40
9
40
9
40
9
40
9
40
10
40
10
40
10
40
10
10
-3.3663255047052445
20
-4.6392490609924817
30
0
10
-3.270291263982589
20
-4.6712728341858378
30
0
10
-3.1514164470880575
20
-4.6758335336487269
30
0
10
-3.0873689007013385
20
-4.6438591989319331
30
0
0
SPLINE
5
261
100
AcDbEntity
8
0
100
AcDbSpline
70
0
71
3
72
8
73
4
74
0
42
0.000000001
43
0.0000000001
44
0.0000000001
40
8
40
8
40
8
40
8
40
9
40
9
40
9
40
9
10
-5.0215504192560259
20
-4.1911510690491198
30
0
10
-4.5002464031427438
20
-4.3420620187561498
30
0
10
-3.4623350261896202
20
-4.6072747262756852
30
0
10
-3.3663255047052445
20
-4.6392490609924817
30
0
0
LWPOLYLINE
5
262
100
AcDbEntity
8
0
100
AcDbPolyline
90
5
70
1
43
0.0
10
-0.83281096000740829
20
-3.7960699594158691
10
-1.684873478338057
20
-3.6563177791813355
10
-1.684873478338057
20
-3.6712839637597492
10
-1.6771750804831913
20
-3.855329788212928
10
-0.83281096000740829
20
-3.9961450548906803
0
LINE
5
263
100
AcDbEntity
8
0
100
AcDbLine
10
-1.7999319521433754
20
-3.8348575284375879
30
0
11
-1.8071101116388377
21
-3.6333243783752907
31
0
0
SPLINE
5
264
100
AcDbEntity
8
0
100
AcDbSpline
70
0
71
3
72
8
73
4
74
0
42
0.000000001
43
0.0000000001
44
0.0000000001
40
10
40
10
40
10
40
10
40
11
40
11
40
11
40
11
10
-3.0873689007013385
20
-4.6438591989319331
30
0
10
-3.023432590886884
20
-4.6118354257385743
30
0
10
-2.9365197490900106
20
-4.5569587167541972
30
0
10
-2.8587406658380563
20
-4.5752509530823238
30
0
0
SPLINE
5
265
100
AcDbEntity
8
0
100
AcDbSpline
70
0
71
3
72
8
73
4
74
0
42
0.000000001
43
0.0000000001
44
0.0000000001
40
8
40
8
40
8
40
8
40
9
40
9
40
9
40
9
10
11.01030932195491
20
-2.3233654245178723
30
0
10
10.94509997136897
20
-2.6971573861877913
30
0
10
10.763340803489925
20
-3.1291969259933166
30
0
10
10.763339412286944
20
-3.1292002328674799
30
0
0
SPLINE
5
266
100
AcDbEntity
8
0
100
AcDbSpline
70
0
71
3
72
8
73
4
74
0
42
0.000000001
43
0.0000000001
44
0.0000000001
40
26
40
26
40
26
40
26
40
27
40
27
40
27
40
27
10
4.4203952289373349
20
-4.7398316415588848
30
0
10
4.1871692157537383
20
-5.5446035226623991
30
0
10
4.0820135761053011
20
-5.9789452585022422
30
0
10
4.0454414630681921
20
-6.0612356027405259
30
0
0
SPLINE
5
267
100
AcDbEntity
8
0
100
AcDbSpline
70
0
71
3
72
8
73
4
74
0
42
0.000000001
43
0.0000000001
44
0.0000000001
40
1
40
1
40
1
40
1
40
2
40
2
40
2
40
2
10
11.771587703302568
20
-1.6478010019104485
30
0
10
12.121389644220537
20
-1.6134906991760738
30
0
10
12.220859859064284
20
-1.9289699777405276
30
0
10
12.210502498224447
20
-2.1895972665588861
30
0
0
SPLINE
5
268
100
AcDbEntity
8
0
100
AcDbSpline
70
0
71
3
72
10
73
6
74
0
42
0.000000001
43
0.0000000001
44
0.0000000001
40
3
40
3
40
3
40
3
40
4
40
4
40
5
40
5
40
5
40
5
10
2.7744029498845961
20
1.821482292767286
30
0
10
2.8795338702947553
20
1.8123361746032232
30
0
10
2.9389712787420188
20
1.734606529827833
30
0
10
2.9389712787420188
20
1.5425627676208011
30
0
10
2.8017547870428032
20
0.46806691801142536
30
0
10
2.7926457477361599
20
0.36291127836298953
30
0
0
SPLINE
5
269
100
AcDbEntity
8
0
100
AcDbSpline
70
0
71
3
72
8
73
4
74
0
42
0.000000001
43
0.0000000001
44
0.0000000001
40
4
40
4
40
4
40
4
40
5
40
5
40
5
40
5
10
-5.4376122783868839
20
-4.1500182565491217
30
0
10
-5.4787574505060253
20
-4.0677155526916966
30
0
10
-5.5427555584161823
20
-3.8985370858948256
30
0
10
-5.4879282879083693
20
-3.8253681405823241
30
0
0
SPLINE
5
270
100
AcDbEntity
8
0
100
AcDbSpline
70
0
71
3
72
8
73
4
74
0
42
0.000000001
43
0.0000000001
44
0.0000000001
40
12
40
12
40
12
40
12
40
13
40
13
40
13
40
13
10
7.1935353351385034
20
1.7711910024840825
30
0
10
7.2037938190252166
20
1.644294792767286
30
0
10
7.2003331256658489
20
0.073708550091505301
30
0
10
7.190074641779133
20
-0.12175882661748021
30
0
0
SPLINE
5
271
100
AcDbEntity
8
0
100
AcDbSpline
70
0
71
3
72
8
73
4
74
0
42
0.000000001
43
0.0000000001
44
0.0000000001
40
4
40
4
40
4
40
4
40
5
40
5
40
5
40
5
10
0.59847964055842773
20
-3.791824134234667
30
0
10
0.59848318766907105
20
-3.7918246716995916
30
0
10
1.1539703632146767
20
-3.8759931405823238
30
0
10
1.1960054279119428
20
-3.8843853219788071
30
0
0
SPLINE
5
272
100
AcDbEntity
8
0
100
AcDbSpline
70
0
71
3
72
11
73
7
74
0
42
0.000000001
43
0.0000000001
44
0.0000000001
40
22
40
22
40
22
40
22
40
23
40
23
40
23
40
24
40
24
40
24
40
24
10
6.9260237384588148
20
-5.1376012643616189
30
0
10
6.8756706500799147
20
-5.1559429391663061
30
0
10
6.857452571466629
20
-5.1193584665100555
30
0
10
6.857452571466629
20
-5.0599086984436505
30
0
10
6.857452571466629
20
-5.0004836496155249
30
0
10
6.9117360187322543
20
-4.5796015390198219
30
0
10
6.6836516071111607
20
-4.1317136606018527
30
0
0
SPLINE
5
273
100
AcDbEntity
8
0
100
AcDbSpline
70
0
71
3
72
8
73
4
74
0
42
0.000000001
43
0.0000000001
44
0.0000000001
40
3
40
3
40
3
40
3
40
4
40
4
40
4
40
4
10
5.3714061237127231
20
-4.5158629831116208
30
0
10
5.5634498859197512
20
-4.5889824899475586
30
0
10
5.7692375446111601
20
-5.0507996591370095
30
0
10
5.6503627277166277
20
-5.6406254037659167
30
0
0
SPLINE
5
274
100
AcDbEntity
8
0
100
AcDbSpline
70
0
71
3
72
8
73
4
74
0
42
0.000000001
43
0.0000000001
44
0.0000000001
40
4
40
4
40
4
40
4
40
5
40
5
40
5
40
5
10
-3.0462855266779001
20
-4.5112528451721658
30
0
10
-3.1345455669611031
20
-4.555389045123337
30
0
10
-3.1880009197443062
20
-4.5935431894104477
30
0
10
-3.3297286724298543
20
-4.5615688546936521
30
0
0
SPLINE
5
275
100
AcDbEntity
8
0
100
AcDbSpline
70
0
71
3
72
8
73
4
74
0
42
0.000000001
43
0.0000000001
44
0.0000000001
40
8
40
8
40
8
40
8
40
9
40
9
40
9
40
9
10
1.2437011981756136
20
1.8672252432067391
30
0
10
1.2026178241521774
20
1.95979879057002
30
0
10
1.271584498956867
20
2.0955815664489266
30
0
10
1.360376002863114
20
2.1415469900329107
30
0
0
SPLINE
5
276
100
AcDbEntity
8
0
100
AcDbSpline
70
0
71
3
72
8
73
4
74
0
42
0.000000001
43
0.0000000001
44
0.0000000001
40
5
40
5
40
5
40
5
40
6
40
6
40
6
40
6
10
2.7926457477361599
20
0.36291127836298953
30
0
10
2.7835243488103774
20
0.25773091947627125
30
0
10
2.6783713585783042
20
0.16172381697006688
30
0
10
2.6783687091619419
20
0.16172139799189461
30
0
0
SPLINE
5
277
100
AcDbEntity
8
0
100
AcDbSpline
70
0
71
3
72
8
73
4
74
0
42
0.000000001
43
0.0000000001
44
0.0000000001
40
7
40
7
40
7
40
7
40
8
40
8
40
8
40
8
10
1.6587248492986608
20
2.1381233755309577
30
0
10
1.2986273456365518
20
2.0661038747985354
30
0
10
1.2437021532412535
20
1.8672287013438222
30
0
10
1.2437011981756136
20
1.8672252432067391
30
0
0
SPLINE
5
278
100
AcDbEntity
8
0
100
AcDbSpline
70
0
71
3
72
8
73
4
74
0
42
0.000000001
43
0.0000000001
44
0.0000000001
40
2
40
2
40
2
40
2
40
3
40
3
40
3
40
3
10
12.210502498224447
20
-2.1895972665588861
30
0
10
12.210503258606568
20
-2.1895937604668338
30
0
10
12.34739763982601
20
-1.5583791574280268
30
0
10
11.805848567560384
20
-1.5792174752991204
30
0
0
SPLINE
5
279
100
AcDbEntity
8
0
100
AcDbSpline
70
0
71
3
72
8
73
4
74
0
42
0.000000001
43
0.0000000001
44
0.0000000001
40
5
40
5
40
5
40
5
40
6
40
6
40
6
40
6
10
11.76127978093929
20
-1.4317424997131822
30
0
10
12.306512019708817
20
-1.3837377389709959
30
0
10
12.333974961734915
20
-2.131318077130731
30
0
10
12.333975093439287
20
-2.1313216623108411
30
0
0
SPLINE
5
280
100
AcDbEntity
8
0
100
AcDbSpline
70
0
71
3
72
8
73
4
74
0
42
0.000000001
43
0.0000000001
44
0.0000000001
40
15
40
15
40
15
40
15
40
16
40
16
40
16
40
16
10
2.5593950153142844
20
-5.9012156137268557
30
0
10
3.0760888934881141
20
-5.9835553964416954
30
0
10
3.5927916157782622
20
-5.8783757531682674
30
0
10
3.5927951312810844
20
-5.8783750375549833
30
0
0
SPLINE
5
281
100
AcDbEntity
8
0
100
AcDbSpline
70
0
71
3
72
8
73
4
74
0
42
0.000000001
43
0.0000000001
44
0.0000000001
40
6
40
6
40
6
40
6
40
7
40
7
40
7
40
7
10
2.6783687091619419
20
0.16172139799189461
30
0
10
2.6783651251553753
20
0.16172155848922307
30
0
10
2.0656529498845981
20
0.18915975248408254
30
0
10
1.5672018695623318
20
0.20743962919306727
30
0
0
SPLINE
5
282
100
AcDbEntity
8
0
100
AcDbSpline
70
0
71
3
72
8
73
4
74
0
42
0.000000001
43
0.0000000001
44
0.0000000001
40
5
40
5
40
5
40
5
40
6
40
6
40
6
40
6
10
-5.4879282879083693
20
-3.8253681405823241
30
0
10
-5.4330021404474316
20
-3.7521991952698261
30
0
10
-5.1770129405949294
20
-3.6288146750821264
30
0
10
-5.1770097088068061
20
-3.6288131173889631
30
0
0
SPLINE
5
283
100
AcDbEntity
8
0
100
AcDbSpline
70
0
71
3
72
8
73
4
74
0
42
0.000000001
43
0.0000000001
44
0.0000000001
40
2
40
2
40
2
40
2
40
3
40
3
40
3
40
3
10
-2.7719514202325892
20
-5.4668738778870098
30
0
10
-3.5263949321954788
20
-5.2748177560608358
30
0
10
-5.1267060589044631
20
-4.7581238778870105
30
0
10
-5.1906423687189172
20
-4.6849549325745103
30
0
0
SPLINE
5
284
100
AcDbEntity
8
0
100
AcDbSpline
70
0
71
3
72
8
73
4
74
0
42
0.000000001
43
0.0000000001
44
0.0000000001
40
4
40
4
40
4
40
4
40
5
40
5
40
5
40
5
10
2.8429493976385052
20
-3.8848055490295899
30
0
10
2.8612045551092051
20
-4.0585447152893561
30
0
10
2.8520831561834243
20
-4.5752015146057605
30
0
10
2.8292178607732716
20
-4.7398316415588848
30
0
0
SPLINE
5
285
100
AcDbEntity
8
0
100
AcDbSpline
70
0
71
3
72
8
73
4
74
0
42
0.000000001
43
0.0000000001
44
0.0000000001
40
2
40
2
40
2
40
2
40
3
40
3
40
3
40
3
10
4.792234370783035
20
-6.6580198129456019
30
0
10
4.7922375315775723
20
-6.6580215100726896
30
0
10
4.9555543781072569
20
-6.7457113107483391
30
0
10
5.1702533221990485
20
-6.6465006479065432
30
0
0
SPLINE
5
286
100
AcDbEntity
8
0
100
AcDbSpline
70
0
71
3
72
8
73
4
74
0
42
0.000000001
43
0.0000000001
44
0.0000000001
40
9
40
9
40
9
40
9
40
10
40
10
40
10
40
10
10
10.763339412286944
20
-3.1292002328674799
30
0
10
10.780519282892412
20
-3.118929389361619
30
0
10
10.958843867853341
20
-2.8034377511780257
30
0
10
11.078855769708813
20
-2.3816533883850615
30
0
0
SPLINE
5
287
100
AcDbEntity
8
0
100
AcDbSpline
70
0
71
3
72
13
73
9
74
0
42
0.000000001
43
0.0000000001
44
0.0000000001
40
32
40
32
40
32
40
32
40
33
40
33
40
34
40
34
40
34
40
35
40
35
40
35
40
35
10
3.0120413471013938
20
-5.2931099923889615
30
0
10
3.0120443592902273
20
-5.2931080436506832
30
0
10
3.1674944733853008
20
-5.1925394522063577
30
0
10
3.1949699067200727
20
-4.6620893179282454
30
0
10
3.1721107745916268
20
-3.7979421457092775
30
0
10
3.1721107745916268
20
-3.6242029794495112
30
0
10
3.1721107745916268
20
-3.3315642770569323
30
0
10
2.8886552692205374
20
-3.1852758249084965
30
0
10
2.6325639606267877
20
-3.1395699533264665
30
0
0
SPLINE
5
288
100
AcDbEntity
8
0
100
AcDbSpline
70
0
71
3
72
8
73
4
74
0
42
0.000000001
43
0.0000000001
44
0.0000000001
40
14
40
14
40
14
40
14
40
15
40
15
40
15
40
15
10
-1.2355766033380562
20
-5.1010662301819307
30
0
10
-1.1626301311700886
20
-5.1213483651916949
30
0
10
2.0428000140935825
20
-5.8189376291077144
30
0
10
2.5593950153142844
20
-5.9012156137268557
30
0
0
SPLINE
5
289
100
AcDbEntity
8
0
100
AcDbSpline
70
0
71
3
72
8
73
4
74
0
42
0.000000001
43
0.0000000001
44
0.0000000001
40
12
40
12
40
12
40
12
40
13
40
13
40
13
40
13
10
-1.5054241680353231
20
-4.8724874337952118
30
0
10
-1.4413642620294631
20
-4.8953403695862336
30
0
10
-1.413901188298994
20
-4.931924842242478
30
0
10
-1.3635728191583703
20
-5.0233365854065415
30
0
0
SPLINE
5
290
100
AcDbEntity
8
0
100
AcDbSpline
70
0
71
3
72
11
73
7
74
0
42
0.000000001
43
0.0000000001
44
0.0000000001
40
19
40
19
40
19
40
19
40
20
40
20
40
20
40
21
40
21
40
21
40
21
10
4.1505723834783455
20
-4.9867521127502892
30
0
10
4.1505732571377063
20
-4.9867486331552291
30
0
10
4.5581429561983082
20
-3.3634872347116183
30
0
10
5.8011995197088151
20
-3.2172501596252943
30
0
10
7.1226650365393267
20
-3.0617888092077492
30
0
10
7.3420728354611171
20
-5.0050407841312028
30
0
10
7.3420732379705358
20
-5.0050443490784158
30
0
0
SPLINE
5
291
100
AcDbEntity
8
0
100
AcDbSpline
70
0
71
3
72
11
73
7
74
0
42
0.000000001
43
0.0000000001
44
0.0000000001
40
36
40
36
40
36
40
36
40
37
40
37
40
37
40
38
40
38
40
38
40
38
10
-2.1592233013361031
20
-2.4994281991760703
30
0
10
-2.4335697674005576
20
-2.453709967974901
30
0
10
-4.9209182418635464
20
-2.0787428660336373
30
0
10
-5.0901092266290719
20
-2.0513054879944335
30
0
10
-5.2593122543034472
20
-2.0238661569797598
30
0
10
-5.314124891381522
20
-2.0833019046393577
30
0
10
-5.314127323552901
20
-2.0833045419495111
30
0
0
SPLINE
5
292
100
AcDbEntity
8
0
100
AcDbSpline
70
0
71
3
72
8
73
4
74
0
42
0.000000001
43
0.0000000001
44
0.0000000001
40
31
40
31
40
31
40
31
40
32
40
32
40
32
40
32
10
3.0441269183904587
20
-5.4028139718811508
30
0
10
3.0441261767151739
20
-5.4028104617842532
30
0
10
3.0257728839666314
20
-5.315950568560841
30
0
10
3.0120413471013938
20
-5.2931099923889615
30
0
0
SPLINE
5
293
100
AcDbEntity
8
0
100
AcDbSpline
70
0
71
3
72
8
73
4
74
0
42
0.000000001
43
0.0000000001
44
0.0000000001
40
2
40
2
40
2
40
2
40
3
40
3
40
3
40
3
10
5.9932432819158477
20
-0.22465265596318218
30
0
10
6.4803605914861588
20
-0.28907099092412097
30
0
10
6.7083955646306919
20
-0.33469034517216628
30
0
10
6.8026253009588169
20
-0.34125330293583855
30
0
0
SPLINE
5
294
100
AcDbEntity
8
0
100
AcDbSpline
70
0
71
3
72
8
73
4
74
0
42
0.000000001
43
0.0000000001
44
0.0000000001
40
2
40
2
40
2
40
2
40
3
40
3
40
3
40
3
10
-1.4961915325372757
20
-4.7809768136780253
30
0
10
-1.5785931133478233
20
-4.7627340158264611
30
0
10
-2.6958285259454784
20
-4.5149236520569316
30
0
10
-2.7901818584650107
20
-4.492960608844041
30
0
0
SPLINE
5
295
100
AcDbEntity
8
0
100
AcDbSpline
70
0
71
3
72
11
73
7
74
0
42
0.000000001
43
0.0000000001
44
0.0000000001
40
8
40
8
40
8
40
8
40
9
40
9
40
9
40
10
40
10
40
10
40
10
10
5.7692375446111601
20
-2.3805163034241192
30
0
10
5.0970720172674095
20
-2.2982383188049802
30
0
10
4.0866212591258142
20
-2.5496971209023944
30
0
10
3.6019165302068639
20
-2.6685819467346676
30
0
10
3.1172934091973428
20
-2.7874467563766276
30
0
10
2.499961192895384
20
-2.769176993047656
30
0
10
2.4999576068670208
20
-2.7691768869202122
30
0
0
SPLINE
5
296
100
AcDbEntity
8
0
100
AcDbSpline
70
0
71
3
72
8
73
4
74
0
42
0.000000001
43
0.0000000001
44
0.0000000001
40
4
40
4
40
4
40
4
40
5
40
5
40
5
40
5
10
6.2447368121892852
20
2.0089406362731452
30
0
10
6.6059590411931906
20
1.9815022817809576
30
0
10
6.8483311725408464
20
1.8946265188415048
30
0
10
6.9077809406072532
20
1.8580791250426762
30
0
0
SPLINE
5
297
100
AcDbEntity
8
0
100
AcDbSpline
70
0
71
3
72
8
73
4
74
0
42
0.000000001
43
0.0000000001
44
0.0000000001
40
9
40
9
40
9
40
9
40
10
40
10
40
10
40
10
10
-4.6146099590509477
20
-3.802502845172167
30
0
10
-4.6146063774213291
20
-3.8025026383105276
30
0
10
-4.3768603252618856
20
-3.7887713083069299
30
0
10
-4.2853497051446974
20
-3.7613700326721675
30
0
0
SPLINE
5
298
100
AcDbEntity
8
0
100
AcDbSpline
70
0
71
3
72
8
73
4
74
0
42
0.000000001
43
0.0000000001
44
0.0000000001
40
32
40
32
40
32
40
32
40
33
40
33
40
33
40
33
10
6.0995360065252235
20
-6.445335486773728
30
0
10
6.4425401569158476
20
-5.581113837603807
30
0
10
6.3773559108381175
20
-4.977634280675999
30
0
10
6.3773555255681922
20
-4.9776307138245102
30
0
0
SPLINE
5
299
100
AcDbEntity
8
0
100
AcDbSpline
70
0
71
3
72
10
73
6
74
0
42
0.000000001
43
0.0000000001
44
0.0000000001
40
34
40
34
40
34
40
34
40
35
40
35
40
36
40
36
40
36
40
36
10
6.7716768146306929
20
-4.9776307138245102
30
0
10
6.7716759449531949
20
-4.9776341944169147
30
0
10
6.7374159503728821
20
-5.1147483285706041
30
0
10
6.8129085040838149
20
-5.2382209237854473
30
0
10
6.8402479816228796
20
-5.2725188669006817
30
0
10
7.0117500568181894
20
-5.2210410531799782
30
0
0
SPLINE
5
300
100
AcDbEntity
8
0
100
AcDbSpline
70
0
71
3
72
8
73
4
74
0
42
0.000000001
43
0.0000000001
44
0.0000000001
40
6
40
6
40
6
40
6
40
7
40
7
40
7
40
7
10
-5.2364471172540714
20
-4.0265827401916967
30
0
10
-5.3690040325372754
20
-3.9763161691467759
30
0
10
-5.4421702783588204
20
-3.9122709857266367
30
0
10
-5.4421729778497756
20
-3.9122686227600623
30
0
0
SPLINE
5
301
100
AcDbEntity
8
0
100
AcDbSpline
70
0
71
3
72
8
73
4
74
0
42
0.000000001
43
0.0000000001
44
0.0000000001
40
2
40
2
40
2
40
2
40
3
40
3
40
3
40
3
10
11.182849605158038
20
-2.6639718087952158
30
0
10
11.192069881036941
20
-2.6000231393616215
30
0
10
11.224055734413357
20
-2.4673708347676984
30
0
10
11.224056575372877
20
-2.4673673471252933
30
0
0
SPLINE
5
302
100
AcDbEntity
8
0
100
AcDbSpline
70
0
71
3
72
8
73
4
74
0
42
0.000000001
43
0.0000000001
44
0.0000000001
40
1
40
1
40
1
40
1
40
2
40
2
40
2
40
2
10
3.963138759210771
20
1.025893608685255
30
0
10
3.6979260516912369
20
1.035039726849317
30
0
10
3.5379713352685238
20
0.99389544845562161
30
0
10
3.5379678607732692
20
0.99389455473017663
30
0
0
SPLINE
5
303
100
AcDbEntity
8
0
100
AcDbSpline
70
0
71
3
72
8
73
4
74
0
42
0.000000001
43
0.0000000001
44
0.0000000001
40
38
40
38
40
38
40
38
40
39
40
39
40
39
40
39
10
-5.314127323552901
20
-2.0833045419495111
30
0
10
-5.3141291430529796
20
-2.0833014499789546
30
0
10
-5.3598826336114946
20
-2.0055501779358398
30
0
10
-5.2089840435236043
20
-1.9049675973694324
30
0
0
SPLINE
5
304
100
AcDbEntity
8
0
100
AcDbSpline
70
0
71
3
72
17
73
13
74
0
42
0.000000001
43
0.0000000001
44
0.0000000001
40
0
40
0
40
0
40
0
40
1
40
1
40
1
40
2
40
2
40
2
40
3
40
3
40
3
40
4
40
4
40
4
40
4
10
-4.733373539373213
20
-2.638597510699511
30
0
10
-4.5724636577814168
20
-2.638597510699511
30
0
10
-4.4357786297052444
20
-2.8718482431213843
30
0
10
-4.4357786297052444
20
-3.0970157846252935
30
0
10
-4.4357786297052444
20
-3.3221956857483401
30
0
10
-4.4960564922540733
20
-3.5353002389709953
30
0
10
-4.6569663738458695
20
-3.5353002389709953
30
0
10
-4.8177650188653995
20
-3.5353002389709953
30
0
10
-4.9625332378595415
20
-3.3462969430725575
30
0
10
-4.9625332378595415
20
-3.0245760568420885
30
0
10
-4.9625332378595415
20
-2.8355727609436521
30
0
10
-4.8941845440118854
20
-2.638597510699511
30
0
10
-4.733373539373213
20
-2.638597510699511
30
0
0
SPLINE
5
305
100
AcDbEntity
8
0
100
AcDbSpline
70
0
71
3
72
8
73
4
74
0
42
0.000000001
43
0.0000000001
44
0.0000000001
40
7
40
7
40
7
40
7
40
8
40
8
40
8
40
8
10
6.9946690631658459
20
0.89331197416376973
30
0
10
6.994665478037823
20
0.89331184104902883
30
0
10
6.8711717487127233
20
0.88872655546259893
30
0
10
6.8437086749822553
20
0.75612020170283212
30
0
0
SPLINE
5
306
100
AcDbEntity
8
0
100
AcDbSpline
70
0
71
3
72
8
73
4
74
0
42
0.000000001
43
0.0000000001
44
0.0000000001
40
3
40
3
40
3
40
3
40
4
40
4
40
4
40
4
10
4.0363200641424122
20
1.9266626516540044
30
0
10
4.4615033221990519
20
2.0318182913024421
30
0
10
5.8835887409002234
20
2.0363789907653325
30
0
10
6.2447368121892852
20
2.0089406362731452
30
0
0
SPLINE
5
307
100
AcDbEntity
8
0
100
AcDbSpline
70
0
71
3
72
11
73
7
74
0
42
0.000000001
43
0.0000000001
44
0.0000000001
40
12
40
12
40
12
40
12
40
13
40
13
40
13
40
14
40
14
40
14
40
14
10
0.24238665349788013
20
0.0016890493590836558
30
0
10
0.24238308499482314
20
0.0016886796992498538
30
0
10
-1.3796287646664462
20
-0.16633489256755266
30
0
10
-2.8164954876154011
20
-0.39266931856083881
30
0
10
-4.2533761706800819
20
-0.61900594354358407
30
0
10
-4.422986423894697
20
-0.67677988374638609
30
0
10
-4.7334971355646198
20
-0.8899091562073248
30
0
0
SPLINE
5
308
100
AcDbEntity
8
0
100
AcDbSpline
70
0
71
3
72
8
73
4
74
0
42
0.000000001
43
0.0000000001
44
0.0000000001
40
17
40
17
40
17
40
17
40
18
40
18
40
18
40
18
10
-5.3095666240900092
20
-1.8672583993713849
30
0
10
-5.4193200420587591
20
-1.9358419259827144
30
0
10
-5.42959088556462
20
-2.0901641305725591
30
0
10
-5.381586124822431
20
-2.155324042681932
30
0
0
SPLINE
5
309
100
AcDbEntity
8
0
100
AcDbSpline
70
0
71
3
72
8
73
4
74
0
42
0.000000001
43
0.0000000001
44
0.0000000001
40
0
40
0
40
0
40
0
40
1
40
1
40
1
40
1
10
5.0833404804021747
20
0.97560231840205203
30
0
10
4.8090063739568647
20
1.0121867910583009
30
0
10
4.2283638263494403
20
1.0167722097594742
30
0
10
3.963138759210771
20
1.025893608685255
30
0
0
LINE
5
310
100
AcDbEntity
8
0
100
AcDbLine
10
6.3773555255681922
20
-4.9776307138245102
30
0
11
6.7716768146306929
21
-4.9776307138245102
31
0
0
SPLINE
5
311
100
AcDbEntity
8
0
100
AcDbSpline
70
0
71
3
72
8
73
4
74
0
42
0.000000001
43
0.0000000001
44
0.0000000001
40
45
40
45
40
45
40
45
40
46
40
46
40
46
40
46
10
11.967067439630693
20
-2.5702611764709973
30
0
10
12.011611507013507
20
-2.5771207650940426
30
0
10
12.360894343927569
20
-2.4081400522034166
30
0
10
12.505477168634602
20
-2.3096338876526361
30
0
0
LINE
5
312
100
AcDbEntity
8
0
100
AcDbLine
10
8.5789250446111627
20
0.89331197416376973
30
0
11
7.8176961017400668
21
0.90358281766963011
31
0
0
SPLINE
5
313
100
AcDbEntity
8
0
100
AcDbSpline
70
0
71
3
72
8
73
4
74
0
42
0.000000001
43
0.0000000001
44
0.0000000001
40
8
40
8
40
8
40
8
40
9
40
9
40
9
40
9
10
6.8437086749822553
20
0.75612020170283212
30
0
10
6.8162456012517838
20
0.6235385671813487
30
0
10
6.7889071510644037
20
0.53206846327681401
30
0
10
6.7889061237127253
20
0.53206502592158311
30
0
0
LINE
5
314
100
AcDbEntity
8
0
100
AcDbLine
10
-4.4271763347833701
20
-1.840994208697559
30
0
11
-1.5830920147150105
21
-2.2342031320374032
31
0
0
SPLINE
5
315
100
AcDbEntity
8
0
100
AcDbSpline
70
0
71
3
72
8
73
4
74
0
42
0.000000001
43
0.0000000001
44
0.0000000001
40
11
40
11
40
11
40
11
40
12
40
12
40
12
40
12
10
0.43096972234553788
20
0.18687322294306757
30
0
10
0.43096617738236725
20
0.18687267149173153
30
0
10
0.27667223699397486
20
0.16287084257197551
30
0
10
0.24238665349788013
20
0.0016890493590836558
30
0
0
LINE
5
316
100
AcDbEntity
8
0
100
AcDbLine
10
11.768102290704913
20
-2.0833045419495111
30
0
11
11.891599605158028
21
-2.0833045419495111
31
0
0
LINE
5
317
100
AcDbEntity
8
0
100
AcDbLine
10
1.1683322406560817
20
1.767755028362989
30
0
11
0.43096972234553788
21
0.18687322294306757
31
0
0
SPLINE
5
318
100
AcDbEntity
8
0
100
AcDbSpline
70
0
71
3
72
8
73
4
74
0
42
0.000000001
43
0.0000000001
44
0.0000000001
40
19
40
19
40
19
40
19
40
20
40
20
40
20
40
20
10
-5.3335813640802447
20
-2.6113939889709963
30
0
10
-5.2718821453302445
20
-2.9611712106506825
30
0
10
-5.1449373154936007
20
-3.5030134207605461
30
0
10
-5.1449364971368841
20
-3.5030169137756837
30
0
0
SPLINE
5
319
100
AcDbEntity
8
0
100
AcDbSpline
70
0
71
3
72
8
73
4
74
0
42
0.000000001
43
0.0000000001
44
0.0000000001
40
16
40
16
40
16
40
16
40
17
40
17
40
17
40
17
10
-5.0558236431329782
20
-1.7095249398987273
30
0
10
-5.0558266937771394
20
-1.7095268278692415
30
0
10
-5.1998750042169632
20
-1.7986748727600566
30
0
10
-5.3095666240900092
20
-1.8672583993713849
30
0
0
SPLINE
5
320
100
AcDbEntity
8
0
100
AcDbSpline
70
0
71
3
72
8
73
4
74
0
42
0.000000001
43
0.0000000001
44
0.0000000001
40
4
40
4
40
4
40
4
40
5
40
5
40
5
40
5
10
11.045731990411944
20
-2.7371407541077133
30
0
10
10.94509997136897
20
-3.0892168649475593
30
0
10
10.899418819025222
20
-3.2720774301331037
30
0
10
10.693631160333814
20
-3.3635509713928702
30
0
0
SPLINE
5
321
100
AcDbEntity
8
0
100
AcDbSpline
70
0
71
3
72
8
73
4
74
0
42
0.000000001
43
0.0000000001
44
0.0000000001
40
0
40
0
40
0
40
0
40
1
40
1
40
1
40
1
10
-4.4866137432306346
20
-1.6763888009827139
30
0
10
-4.5460511516779007
20
-1.671803382281543
30
0
10
-4.5642939495294641
20
-1.703827155474904
30
0
10
-4.5414410137384476
20
-1.7312655099670897
30
0
0
SPLINE
5
322
100
AcDbEntity
8
0
100
AcDbSpline
70
0
71
3
72
8
73
4
74
0
42
0.000000001
43
0.0000000001
44
0.0000000001
40
8
40
8
40
8
40
8
40
9
40
9
40
9
40
9
10
-0.097045566961104196
20
-4.8266826852600566
30
0
10
-2.2004179119318072
20
-4.4380838998596692
30
0
10
-4.6146064896704395
20
-3.8025037585512504
30
0
10
-4.6146099590509477
20
-3.802502845172167
30
0
0
SPLINE
5
323
100
AcDbEntity
8
0
100
AcDbSpline
70
0
71
3
72
8
73
4
74
0
42
0.000000001
43
0.0000000001
44
0.0000000001
40
4
40
4
40
4
40
4
40
5
40
5
40
5
40
5
10
11.260641048029125
20
-1.8501156076233405
30
0
10
11.260641859217014
20
-1.8501121129364182
30
0
10
11.349333674982253
20
-1.4680179818909183
30
0
10
11.76127978093929
20
-1.4317424997131822
30
0
0
SPLINE
5
324
100
AcDbEntity
8
0
100
AcDbSpline
70
0
71
3
72
8
73
4
74
0
42
0.000000001
43
0.0000000001
44
0.0000000001
40
5
40
5
40
5
40
5
40
6
40
6
40
6
40
6
10
-3.3297286724298543
20
-4.5615688546936521
30
0
10
-3.4714564251154005
20
-4.5294832834045895
30
0
10
-5.1038407634943059
20
-4.0768369516174801
30
0
10
-5.2364471172540714
20
-4.0265827401916967
30
0
0
SPLINE
5
325
100
AcDbEntity
8
0
100
AcDbSpline
70
0
71
3
72
8
73
4
74
0
42
0.000000001
43
0.0000000001
44
0.0000000001
40
17
40
17
40
17
40
17
40
18
40
18
40
18
40
18
10
2.4497528339178016
20
-5.7960723336975573
30
0
10
2.088505885675616
20
-5.7183303293030256
30
0
10
-1.1258355449884472
20
-5.0325074228088855
30
0
10
-1.1898830913751675
20
-5.0142151864807607
30
0
0
SPLINE
5
326
100
AcDbEntity
8
0
100
AcDbSpline
70
0
71
3
72
11
73
7
74
0
42
0.000000001
43
0.0000000001
44
0.0000000001
40
36
40
36
40
36
40
36
40
37
40
37
40
37
40
38
40
38
40
38
40
38
10
7.0117500568181894
20
-5.2210410531799782
30
0
10
7.1832521320135054
20
-5.1696126779358389
30
0
10
7.5723826904687215
20
-5.0228181977541988
30
0
10
7.6769941974431859
20
-4.9776307138245102
30
0
10
7.8279550321558649
20
-4.9124223969779095
30
0
10
7.7593834186345996
20
-4.8781481393616231
30
0
10
7.8587794757635026
20
-4.8266826852600566
30
0
0
SPLINE
5
327
100
AcDbEntity
8
0
100
AcDbSpline
70
0
71
3
72
8
73
4
74
0
42
0.000000001
43
0.0000000001
44
0.0000000001
40
14
40
14
40
14
40
14
40
15
40
15
40
15
40
15
10
-4.7334971355646198
20
-0.8899091562073248
30
0
10
-4.9632624553888371
20
-1.0476673349182599
30
0
10
-5.1621287273614946
20
-1.2774079355042003
30
0
10
-5.1381263469904006
20
-1.4317424997131822
30
0
0
SPLINE
5
328
100
AcDbEntity
8
0
100
AcDbSpline
70
0
71
3
72
8
73
4
74
0
42
0.000000001
43
0.0000000001
44
0.0000000001
40
9
40
9
40
9
40
9
40
10
40
10
40
10
40
10
10
1.1716816974431914
20
2.1072366872985357
30
0
10
1.1716807628440196
20
2.1072332235741178
30
0
10
1.1133937335760054
20
1.8912152639586921
30
0
10
1.1683322406560817
20
1.767755028362989
30
0
0
SPLINE
5
329
100
AcDbEntity
8
0
100
AcDbSpline
70
0
71
3
72
8
73
4
74
0
42
0.000000001
43
0.0000000001
44
0.0000000001
40
16
40
16
40
16
40
16
40
17
40
17
40
17
40
17
10
7.6347490192205347
20
-4.8952909311096668
30
0
10
7.5387147784978801
20
-4.9273147043030265
30
0
10
7.4198399616033495
20
-4.9593384774963889
30
0
10
7.4335838580877232
20
-4.9547777780334972
30
0
0
SPLINE
5
330
100
AcDbEntity
8
0
100
AcDbSpline
70
0
71
3
72
8
73
4
74
0
42
0.000000001
43
0.0000000001
44
0.0000000001
40
0
40
0
40
0
40
0
40
1
40
1
40
1
40
1
10
11.078855769708813
20
-2.3816533883850615
30
0
10
11.198892390802566
20
-1.9598443063538105
30
0
10
11.421761043146319
20
-1.6820742257874026
30
0
10
11.771587703302568
20
-1.6478010019104485
30
0
0
SPLINE
5
331
100
AcDbEntity
8
0
100
AcDbSpline
70
0
71
3
72
8
73
4
74
0
42
0.000000001
43
0.0000000001
44
0.0000000001
40
11
40
11
40
11
40
11
40
12
40
12
40
12
40
12
10
3.6247571063787385
20
-2.7280193551819325
30
0
10
4.013467128351393
20
-2.6548504098694341
30
0
10
4.4981866718084236
20
-2.5450969919006834
30
0
10
5.2023265338689759
20
-2.4719527658264639
30
0
0
SPLINE
5
332
100
AcDbEntity
8
0
100
AcDbSpline
70
0
71
3
72
8
73
4
74
0
42
0.000000001
43
0.0000000001
44
0.0000000001
40
6
40
6
40
6
40
6
40
7
40
7
40
7
40
7
10
7.7261607623845947
20
-4.7718554147522463
30
0
10
7.7261601259215196
20
-4.7718518840614879
30
0
10
7.5753239703924073
20
-3.9351091989319325
30
0
10
7.2277961993963169
20
-3.3681611093323256
30
0
0
LWPOLYLINE
5
333
100
AcDbEntity
8
0
100
AcDbPolyline
90
4
70
1
43
0.0
10
-1.684873478338057
20
-3.544162085894822
10
-1.684873478338057
20
-3.3898522409241223
10
-0.83281096000740829
20
-3.520204574381661
10
-0.83281096000740829
20
-3.6816180470052284
0
SPLINE
5
334
100
AcDbEntity
8
0
100
AcDbSpline
70
0
71
3
72
14
73
10
74
0
42
0.000000001
43
0.0000000001
44
0.0000000001
40
43
40
43
40
43
40
43
40
44
40
44
40
44
40
45
40
45
40
45
40
46
40
46
40
46
40
46
10
2.7012216449529585
20
-2.4330941232483383
30
0
10
3.1126857257635057
20
-2.4536605294983387
30
0
10
3.6293686450471889
20
-2.3485012451377236
30
0
10
4.3975546527654581
20
-2.2250322946350605
30
0
10
5.1656322251717333
20
-2.1015807727161433
30
0
10
9.1870458133626158
20
-1.3563155309846888
30
0
10
10.458205134943192
20
-1.136841987017869
30
0
10
11.72932059353985
20
-0.91737601626737719
30
0
10
12.842619331725659
20
-0.71157286377735895
30
0
10
12.842622859552568
20
-0.71157221162724549
30
0
0
LINE
5
335
100
AcDbEntity
8
0
100
AcDbLine
10
7.8176961017400668
20
0.90358281766963011
30
0
11
7.7689497638494434
21
1.0736140981872084
31
0
0
SPLINE
5
336
100
AcDbEntity
8
0
100
AcDbSpline
70
0
71
3
72
8
73
4
74
0
42
0.000000001
43
0.0000000001
44
0.0000000001
40
0
40
0
40
0
40
0
40
1
40
1
40
1
40
1
10
1.6678338886053021
20
-2.4399784311096675
30
0
10
1.5626906085760073
20
-2.426259253863575
30
0
10
-1.4916767051877078
20
-2.0924510498772069
30
0
10
-1.4916802715509483
20
-2.0924506601135735
30
0
0
SPLINE
5
337
100
AcDbEntity
8
0
100
AcDbSpline
70
0
71
3
72
8
73
4
74
0
42
0.000000001
43
0.0000000001
44
0.0000000001
40
27
40
27
40
27
40
27
40
28
40
28
40
28
40
28
10
4.0454414630681921
20
-6.0612356027405259
30
0
10
4.0088446307927983
20
-6.1435383065979474
30
0
10
3.9037137103826423
20
-6.1755497201721674
30
0
10
3.6613539386541274
20
-6.2578895028870116
30
0
0
SPLINE
5
338
100
AcDbEntity
8
0
100
AcDbSpline
70
0
71
3
72
8
73
4
74
0
42
0.000000001
43
0.0000000001
44
0.0000000001
40
28
40
28
40
28
40
28
40
29
40
29
40
29
40
29
10
3.6613539386541274
20
-6.2578895028870116
30
0
10
3.6613556470501463
20
-6.2578863481690332
30
0
10
3.8396538043767867
20
-5.928641608599901
30
0
10
3.88084841497249
20
-5.8280343087952096
30
0
0
SPLINE
5
339
100
AcDbEntity
8
0
100
AcDbSpline
70
0
71
3
72
8
73
4
74
0
42
0.000000001
43
0.0000000001
44
0.0000000001
40
0
40
0
40
0
40
0
40
1
40
1
40
1
40
1
10
12.769528071954914
20
-1.2602775033752933
30
0
10
12.73746721990414
20
-1.5437577279846681
30
0
10
12.622053096368973
20
-2.1542116769592772
30
0
10
12.476852290704905
20
-2.2250322946350605
30
0
0
SPLINE
5
340
100
AcDbEntity
8
0
100
AcDbSpline
70
0
71
3
72
8
73
4
74
0
42
0.000000001
43
0.0000000001
44
0.0000000001
40
4
40
4
40
4
40
4
40
5
40
5
40
5
40
5
10
8.4246275592596014
20
1.4831253591735361
30
0
10
8.4520906329900676
20
1.4214137808043947
30
0
10
8.5789242068007567
20
0.89331546256400163
30
0
10
8.5789250446111627
20
0.89331197416376973
30
0
0
SPLINE
5
341
100
AcDbEntity
8
0
100
AcDbSpline
70
0
71
3
72
11
73
7
74
0
42
0.000000001
43
0.0000000001
44
0.0000000001
40
2
40
2
40
2
40
2
40
3
40
3
40
3
40
4
40
4
40
4
40
4
10
7.6221669269353818
20
1.5860068289000986
30
0
10
7.6221705139539608
20
1.5860067644009734
30
0
10
8.1947386432439711
20
1.5757112661559578
30
0
10
8.2771278644353803
20
1.5757112661559578
30
0
10
8.3731621051580287
20
1.5757112661559578
30
0
10
8.3971644855291299
20
1.5448740164000982
30
0
10
8.4246275592596014
20
1.4831253591735361
30
0
0
SPLINE
5
342
100
AcDbEntity
8
0
100
AcDbSpline
70
0
71
3
72
8
73
4
74
0
42
0.000000001
43
0.0000000001
44
0.0000000001
40
46
40
46
40
46
40
46
40
47
40
47
40
47
40
47
10
12.505477168634602
20
-2.3096338876526361
30
0
10
12.580846126154137
20
-2.2581807931702156
30
0
10
12.628010432794762
20
-2.195084937457322
30
0
10
12.687237727716631
20
-2.0215806039612314
30
0
0
SPLINE
5
343
100
AcDbEntity
8
0
100
AcDbSpline
70
0
71
3
72
8
73
4
74
0
42
0.000000001
43
0.0000000001
44
0.0000000001
40
44
40
44
40
44
40
44
40
45
40
45
40
45
40
45
10
11.929345882013509
20
-2.3953478463928706
30
0
10
11.912141292169753
20
-2.5222440561096677
30
0
10
11.922424495294754
20
-2.5634015878479501
30
0
10
11.967067439630693
20
-2.5702611764709973
30
0
0
SPLINE
5
344
100
AcDbEntity
8
0
100
AcDbSpline
70
0
71
3
72
8
73
4
74
0
42
0.000000001
43
0.0000000001
44
0.0000000001
40
15
40
15
40
15
40
15
40
16
40
16
40
16
40
16
10
-5.1381263469904006
20
-1.4317424997131822
30
0
10
-5.114111607000166
20
-1.5860523446838852
30
0
10
-5.055825174661809
20
-1.7095216956296444
30
0
10
-5.0558236431329782
20
-1.7095249398987273
30
0
0
SPLINE
5
345
100
AcDbEntity
8
0
100
AcDbSpline
70
0
71
3
72
8
73
4
74
0
42
0.000000001
43
0.0000000001
44
0.0000000001
40
7
40
7
40
7
40
7
40
8
40
8
40
8
40
8
10
7.2277961993963169
20
-3.3681611093323256
30
0
10
6.8802931476385032
20
-2.8011883004944322
30
0
10
6.441378352716626
20
-2.4628313669006809
30
0
10
5.7692375446111601
20
-2.3805163034241192
30
0
0
SPLINE
5
346
100
AcDbEntity
8
0
100
AcDbSpline
70
0
71
3
72
8
73
4
74
0
42
0.000000001
43
0.0000000001
44
0.0000000001
40
43
40
43
40
43
40
43
40
44
40
44
40
44
40
44
10
11.891599605158028
20
-2.0833045419495111
30
0
10
11.891600623633671
20
-2.0833079819451261
30
0
10
11.946426875665843
20
-2.2684887155334952
30
0
10
11.929345882013509
20
-2.3953478463928706
30
0
0
SPLINE
5
347
100
AcDbEntity
8
0
100
AcDbSpline
70
0
71
3
72
8
73
4
74
0
42
0.000000001
43
0.0000000001
44
0.0000000001
40
10
40
10
40
10
40
10
40
11
40
11
40
11
40
11
10
5.3348216510564752
20
0.55493032133173825
30
0
10
5.3348218642540344
20
0.55493390258979369
30
0
10
5.357686946466627
20
0.93901784574580183
30
0
10
5.0833404804021747
20
0.97560231840205203
30
0
0
LINE
5
348
100
AcDbEntity
8
0
100
AcDbLine
10
-3.430373051095982
20
-3.3041630014213341
30
0
11
-3.4303730510919621
21
-3.4965024096459989
31
0
0
SPLINE
5
349
100
AcDbEntity
8
0
100
AcDbSpline
70
0
71
3
72
11
73
7
74
0
42
0.000000001
43
0.0000000001
44
0.0000000001
40
5
40
5
40
5
40
5
40
6
40
6
40
6
40
7
40
7
40
7
40
7
10
6.9077809406072532
20
1.8580791250426762
30
0
10
6.9672059894353806
20
1.821482292767286
30
0
10
6.9991679645330374
20
1.7848978201110361
30
0
10
6.9991679645330374
20
1.6706207815368173
30
0
10
6.9991679645330374
20
1.601431633587598
30
0
10
6.994669085958499
20
0.8933155616897912
30
0
10
6.9946690631658459
20
0.89331197416376973
30
0
0
SPLINE
5
350
100
AcDbEntity
8
0
100
AcDbSpline
70
0
71
3
72
8
73
4
74
0
42
0.000000001
43
0.0000000001
44
0.0000000001
40
1
40
1
40
1
40
1
40
2
40
2
40
2
40
2
10
12.539738032892416
20
0.35149099027705077
30
0
10
12.454011714533033
20
0.39262380277705156
30
0
10
12.248224055841625
20
0.34805501615595841
30
0
10
12.135108821466627
20
0.31718068754267631
30
0
0
SPLINE
5
351
100
AcDbEntity
8
0
100
AcDbSpline
70
0
71
3
72
8
73
4
74
0
42
0.000000001
43
0.0000000001
44
0.0000000001
40
0
40
0
40
0
40
0
40
1
40
1
40
1
40
1
10
8.6852177692205359
20
1.6100215688903325
30
0
10
8.6372130084783443
20
1.7128783193786135
30
0
10
8.5549226642400615
20
1.8020653310973636
30
0
10
8.404085872247876
20
1.8123361746032232
30
0
0
SPLINE
5
352
100
AcDbEntity
8
0
100
AcDbSpline
70
0
71
3
72
8
73
4
74
0
42
0.000000001
43
0.0000000001
44
0.0000000001
40
30
40
30
40
30
40
30
40
31
40
31
40
31
40
31
10
3.6979260516912369
20
-5.4988358529846684
30
0
10
3.5333577228338173
20
-5.4531176217834965
30
0
10
3.0441304871732782
20
-5.4028143388302485
30
0
10
3.0441269183904587
20
-5.4028139718811508
30
0
0
SPLINE
5
353
100
AcDbEntity
8
0
100
AcDbSpline
70
0
71
3
72
8
73
4
74
0
42
0.000000001
43
0.0000000001
44
0.0000000001
40
39
40
39
40
39
40
39
40
40
40
40
40
40
40
40
10
-5.2089840435236043
20
-1.9049675973694324
30
0
10
-5.0581472515314161
20
-1.8043850168030267
30
0
10
-4.9437745191337159
20
-1.7449245439734038
30
0
10
-4.9437713360040725
20
-1.7449228891174784
30
0
0
SPLINE
5
354
100
AcDbEntity
8
0
100
AcDbSpline
70
0
71
2
72
6
73
3
74
0
42
0.000000001
43
0.0000000001
44
0.0000000001
40
0
40
0
40
0
40
1
40
1
40
1
10
4.059673948713189
20
-8.590345438571779
30
0
10
4.1058510703111404
20
-8.6233937595147534
30
0
10
4.163798696575217
20
-8.6233937595147534
30
0
0
SPLINE
5
355
100
AcDbEntity
8
0
100
AcDbSpline
70
0
71
2
72
6
73
3
74
0
42
0.000000001
43
0.0000000001
44
0.0000000001
40
0
40
0
40
0
40
1
40
1
40
1
10
3.9935774335457728
20
-8.502971233846047
30
0
10
4.0134968271152385
20
-8.5572972443473354
30
0
10
4.059673948713189
20
-8.590345438571779
30
0
0
SPLINE
5
356
100
AcDbEntity
8
0
100
AcDbSpline
70
0
71
2
72
6
73
3
74
0
42
0.000000001
43
0.0000000001
44
0.0000000001
40
0
40
0
40
0
40
1
40
1
40
1
10
4.3806498465322283
20
-7.7899431380074553
30
0
10
4.3638991766773945
20
-7.7378807640764418
30
0
10
4.3335673209935797
20
-7.6998525947410972
30
0
0
SPLINE
5
357
100
AcDbEntity
8
0
100
AcDbSpline
70
0
71
2
72
6
73
3
74
0
42
0.000000001
43
0.0000000001
44
0.0000000001
40
0
40
0
40
0
40
1
40
1
40
1
10
4.3974002629499864
20
-7.903574880683867
30
0
10
4.3974002629499864
20
-7.842005448579199
30
0
10
4.3806498465322283
20
-7.7899431380074553
30
0
0
SPLINE
5
358
100
AcDbEntity
8
0
100
AcDbSpline
70
0
71
3
72
8
73
4
74
0
42
0.000000001
43
0.0000000001
44
0.0000000001
40
1
40
1
40
1
40
1
40
2
40
2
40
2
40
2
10
-4.5414410137384476
20
-1.7312655099670897
30
0
10
-4.5185880779474319
20
-1.7586791452209973
30
0
10
-4.4271790007789296
20
-1.8409918080038812
30
0
10
-4.4271763347833701
20
-1.840994208697559
30
0
0
SPLINE
5
359
100
AcDbEntity
8
0
100
AcDbSpline
70
0
71
3
72
14
73
10
74
0
42
0.000000001
43
0.0000000001
44
0.0000000001
40
39
40
39
40
39
40
39
40
40
40
40
40
40
40
41
40
41
40
41
40
42
40
42
40
42
40
42
10
10.056888301447097
20
-3.7842106088440404
30
0
10
10.056889060652638
20
-3.7842141151910571
30
0
10
10.156383433952143
20
-4.243723142906906
30
0
10
10.554189937189284
20
-4.2574604257385751
30
0
10
10.95202155652326
20
-4.2711985758937354
30
0
10
11.205715371207274
20
-4.2780153354669395
30
0
10
11.356650569513505
20
-4.1957117685120107
30
0
10
11.507537270470118
20
-4.1134346467130545
30
0
10
11.932806575372876
20
-3.513287757281542
30
0
10
11.768102290704913
20
-2.0833045419495111
30
0
0
SPLINE
5
360
100
AcDbEntity
8
0
100
AcDbSpline
70
0
71
2
72
6
73
3
74
0
42
0.000000001
43
0.0000000001
44
0.0000000001
40
0
40
0
40
0
40
1
40
1
40
1
10
3.8025311195690934
20
-8.4441180769227362
30
0
10
3.8305995287604362
20
-8.414238859850002
30
0
10
3.8740603118177619
20
-8.414238859850002
30
0
0
SPLINE
5
361
100
AcDbEntity
8
0
100
AcDbSpline
70
0
71
2
72
6
73
3
74
0
42
0.000000001
43
0.0000000001
44
0.0000000001
40
0
40
0
40
0
40
1
40
1
40
1
10
4.3403580406266071
20
-8.5228907541340444
30
0
10
4.405549151853327
20
-8.4260094912346641
30
0
10
4.4182251871786846
20
-8.1806372934752307
30
0
0
LINE
5
362
100
AcDbEntity
8
0
100
AcDbLine
10
-1.4916802715509483
20
-2.0924506601135735
30
0
11
-1.4916802715509483
21
-2.2479346689026367
31
0
0
SPLINE
5
363
100
AcDbEntity
8
0
100
AcDbSpline
70
0
71
3
72
8
73
4
74
0
42
0.000000001
43
0.0000000001
44
0.0000000001
40
10
40
10
40
10
40
10
40
11
40
11
40
11
40
11
10
8.3504204059392855
20
-0.37782541597294789
30
0
10
8.6352354694158446
20
-0.32795435274052742
30
0
10
8.8848256183416296
20
-0.28451029146123058
30
0
10
8.9322123981267865
20
-0.27606867158818138
30
0
0
SPLINE
5
364
100
AcDbEntity
8
0
100
AcDbSpline
70
0
71
2
72
6
73
3
74
0
42
0.000000001
43
0.0000000001
44
0.0000000001
40
0
40
0
40
0
40
1
40
1
40
1
10
4.3702373844178775
20
-8.7524179394164179
30
0
10
4.2760723333405855
20
-8.7963313610848228
30
0
10
4.1565552116125728
20
-8.7963313610848228
30
0
0
SPLINE
5
365
100
AcDbEntity
8
0
100
AcDbSpline
70
0
71
3
72
8
73
4
74
0
42
0.000000001
43
0.0000000001
44
0.0000000001
40
10
40
10
40
10
40
10
40
11
40
11
40
11
40
11
10
2.4999576068670208
20
-2.7691768869202122
30
0
10
2.8886552692205374
20
-2.8331749948303693
30
0
10
3.236158320978348
20
-2.8011883004944322
30
0
10
3.6247571063787385
20
-2.7280193551819325
30
0
0
SPLINE
5
366
100
AcDbEntity
8
0
100
AcDbSpline
70
0
71
2
72
6
73
3
74
0
42
0.000000001
43
0.0000000001
44
0.0000000001
40
0
40
0
40
0
40
1
40
1
40
1
10
3.7744627103777524
20
-8.5120255266900831
30
0
10
3.7744627103777524
20
-8.4739974207140065
30
0
10
3.8025311195690934
20
-8.4441180769227362
30
0
0
SPLINE
5
367
100
AcDbEntity
8
0
100
AcDbSpline
70
0
71
3
72
8
73
4
74
0
42
0.000000001
43
0.0000000001
44
0.0000000001
40
2
40
2
40
2
40
2
40
3
40
3
40
3
40
3
10
11.13254595525569
20
-3.2218232187073257
30
0
10
11.123399837091625
20
-3.1029484018127911
30
0
10
11.146289537905947
20
-2.8422876079823665
30
0
10
11.146289851740072
20
-2.8422840341370117
30
0
0
SPLINE
5
368
100
AcDbEntity
8
0
100
AcDbSpline
70
0
71
2
72
6
73
3
74
0
42
0.000000001
43
0.0000000001
44
0.0000000001
40
0
40
0
40
0
40
1
40
1
40
1
10
4.5318569932143671
20
-8.6184138477631169
30
0
10
4.464402308776636
20
-8.7085043910294733
30
0
10
4.3702373844178775
20
-8.7524179394164179
30
0
0
SPLINE
5
369
100
AcDbEntity
8
0
100
AcDbSpline
70
0
71
3
72
8
73
4
74
0
42
0.000000001
43
0.0000000001
44
0.0000000001
40
5
40
5
40
5
40
5
40
6
40
6
40
6
40
6
10
11.13254595525569
20
-3.5921668466370122
30
0
10
11.118925654962728
20
-3.5281687387268548
30
0
10
11.114303252821866
20
-3.354433158796398
30
0
10
11.11430315740413
20
-3.3544295724670894
30
0
0
SPLINE
5
370
100
AcDbEntity
8
0
100
AcDbSpline
70
0
71
3
72
8
73
4
74
0
42
0.000000001
43
0.0000000001
44
0.0000000001
40
3
40
3
40
3
40
3
40
4
40
4
40
4
40
4
10
11.805848567560384
20
-1.5792174752991204
30
0
10
11.44922411687679
20
-1.5929242929260747
30
0
10
11.260643169429676
20
-1.8501127144378642
30
0
10
11.260641048029125
20
-1.8501156076233405
30
0
0
SPLINE
5
371
100
AcDbEntity
8
0
100
AcDbSpline
70
0
71
3
72
11
73
7
74
0
42
0.000000001
43
0.0000000001
44
0.0000000001
40
6
40
6
40
6
40
6
40
7
40
7
40
7
40
8
40
8
40
8
40
8
10
12.333975093439287
20
-2.1313216623108411
30
0
10
12.351179683283039
20
-1.4831832345764639
30
0
10
12.052843415259803
20
-1.1951311686999895
30
0
10
11.613804805353341
20
-1.2740090402405269
30
0
10
11.174890229162832
20
-1.3528646278285981
30
0
10
11.075395076349441
20
-1.949573462847948
30
0
10
11.01030932195491
20
-2.3233654245178723
30
0
0
SPLINE
5
372
100
AcDbEntity
8
0
100
AcDbSpline
70
0
71
3
72
10
73
6
74
0
42
0.000000001
43
0.0000000001
44
0.0000000001
40
0
40
0
40
0
40
0
40
1
40
1
40
2
40
2
40
2
40
2
10
-1.1898830913751675
20
-5.0142151864807607
30
0
10
-1.2539306377618842
20
-4.995861152056932
30
0
10
-1.2950263714044625
20
-4.9135831674377952
30
0
10
-1.3681953167169632
20
-4.8312928231995098
30
0
10
-1.413901188298994
20
-4.7993308481018557
30
0
10
-1.4961915325372757
20
-4.7809768136780253
30
0
0
SPLINE
5
373
100
AcDbEntity
8
0
100
AcDbSpline
70
0
71
2
72
6
73
3
74
0
42
0.000000001
43
0.0000000001
44
0.0000000001
40
0
40
0
40
0
40
1
40
1
40
1
10
4.6346235718060811
20
-8.3956775088323123
30
0
10
4.5993118043706307
20
-8.5283233044967623
30
0
10
4.5318569932143671
20
-8.6184138477631169
30
0
0
SPLINE
5
374
100
AcDbEntity
8
0
100
AcDbSpline
70
0
71
2
72
6
73
3
74
0
42
0.000000001
43
0.0000000001
44
0.0000000001
40
0
40
0
40
0
40
1
40
1
40
1
10
3.8740603118177619
20
-8.414238859850002
30
0
10
3.9138993523937646
20
-8.414238859850002
30
0
10
3.9455893773478934
20
-8.4364219533490132
30
0
0
SPLINE
5
375
100
AcDbEntity
8
0
100
AcDbSpline
70
0
71
3
72
11
73
7
74
0
42
0.000000001
43
0.0000000001
44
0.0000000001
40
47
40
47
40
47
40
47
40
48
40
48
40
48
40
49
40
49
40
49
40
49
10
12.687237727716631
20
-2.0215806039612314
30
0
10
12.786609065607255
20
-1.7300913461487326
30
0
10
12.894381120425383
20
-1.0968210490312673
30
0
10
12.947827937677552
20
-0.68073496187138549
30
0
10
13.026676666214936
20
-0.066893752583732494
30
0
10
12.649494659615485
20
0.12172406584754705
30
0
10
12.64949145086115
20
0.12172567045283174
30
0
0
SPLINE
5
376
100
AcDbEntity
8
0
100
AcDbSpline
70
0
71
3
72
11
73
7
74
0
42
0.000000001
43
0.0000000001
44
0.0000000001
40
14
40
14
40
14
40
14
40
15
40
15
40
15
40
16
40
16
40
16
40
16
10
4.4935765338689686
20
-2.9109540780823235
30
0
10
5.4902809406072528
20
-2.6457290109436542
30
0
10
6.4413761066006012
20
-2.4308463426737466
30
0
10
6.9717048908025658
20
-3.1440812143127901
30
0
10
7.5021280593258517
20
-3.8574430226584817
30
0
10
7.6347485644784623
20
-4.8952873724481059
30
0
10
7.6347490192205347
20
-4.8952909311096668
30
0
0
SPLINE
5
377
100
AcDbEntity
8
0
100
AcDbSpline
70
0
71
2
72
6
73
3
74
0
42
0.000000001
43
0.0000000001
44
0.0000000001
40
0
40
0
40
0
40
1
40
1
40
1
10
4.1565552116125728
20
-8.7963313610848228
30
0
10
4.0388490244844908
20
-8.7963313610848228
30
0
10
3.9519274583698398
20
-8.7515125354757171
30
0
0
SPLINE
5
378
100
AcDbEntity
8
0
100
AcDbSpline
70
0
71
2
72
6
73
3
74
0
42
0.000000001
43
0.0000000001
44
0.0000000001
40
0
40
0
40
0
40
1
40
1
40
1
10
3.9519274583698398
20
-8.7515125354757171
30
0
10
3.8650058922551893
20
-8.7066935831480805
30
0
10
3.8197343013164708
20
-8.6401443026510503
30
0
0
SPLINE
5
379
100
AcDbEntity
8
0
100
AcDbSpline
70
0
71
2
72
6
73
3
74
0
42
0.000000001
43
0.0000000001
44
0.0000000001
40
0
40
0
40
0
40
1
40
1
40
1
10
3.9455893773478934
20
-8.4364219533490132
30
0
10
3.977279529020556
20
-8.4586050468480209
30
0
10
3.9935774335457728
20
-8.502971233846047
30
0
0
SPLINE
5
380
100
AcDbEntity
8
0
100
AcDbSpline
70
0
71
3
72
8
73
4
74
0
42
0.000000001
43
0.0000000001
44
0.0000000001
40
29
40
29
40
29
40
29
40
30
40
30
40
30
40
30
10
3.88084841497249
20
-5.8280343087952096
30
0
10
3.9219565082342047
20
-5.727464087847947
30
0
10
3.8625190997869403
20
-5.5446035226623991
30
0
10
3.6979260516912369
20
-5.4988358529846684
30
0
0
SPLINE
5
381
100
AcDbEntity
8
0
100
AcDbSpline
70
0
71
2
72
6
73
3
74
0
42
0.000000001
43
0.0000000001
44
0.0000000001
40
0
40
0
40
0
40
1
40
1
40
1
10
3.8197343013164708
20
-8.6401443026510503
30
0
10
3.7744627103777524
20
-8.5735950221540165
30
0
10
3.7744627103777524
20
-8.5120255266900831
30
0
0
SPLINE
5
382
100
AcDbEntity
8
0
100
AcDbSpline
70
0
71
2
72
6
73
3
74
0
42
0.000000001
43
0.0000000001
44
0.0000000001
40
0
40
0
40
0
40
1
40
1
40
1
10
4.2615853634152963
20
-8.5971362849233426
30
0
10
4.3077623582947107
20
-8.5708786836133886
30
0
10
4.3403580406266071
20
-8.5228907541340444
30
0
0
SPLINE
5
383
100
AcDbEntity
8
0
100
AcDbSpline
70
0
71
2
72
6
73
3
74
0
42
0.000000001
43
0.0000000001
44
0.0000000001
40
0
40
0
40
0
40
1
40
1
40
1
10
4.163798696575217
20
-8.6233937595147534
30
0
10
4.215408368535881
20
-8.6233937595147534
30
0
10
4.2615853634152963
20
-8.5971362849233426
30
0
0
SPLINE
5
384
100
AcDbEntity
8
0
100
AcDbSpline
70
0
71
3
72
8
73
4
74
0
42
0.000000001
43
0.0000000001
44
0.0000000001
40
2
40
2
40
2
40
2
40
3
40
3
40
3
40
3
10
7.7009965778142844
20
1.8209013906676765
30
0
10
7.5021303058416242
20
1.8209013906676765
30
0
10
7.4455232501775672
20
1.7403290334899424
30
0
10
7.4455232501775672
20
1.6614499441344734
30
0
0
SPLINE
5
385
100
AcDbEntity
8
0
100
AcDbSpline
70
0
71
3
72
8
73
4
74
0
42
0.000000001
43
0.0000000001
44
0.0000000001
40
16
40
16
40
16
40
16
40
17
40
17
40
17
40
17
10
3.5927951312810844
20
-5.8783750375549833
30
0
10
3.5927915437440126
20
-5.8783750165732434
30
0
10
2.8108761859685845
20
-5.8738019784729492
30
0
10
2.4497528339178016
20
-5.7960723336975573
30
0
0
SPLINE
5
386
100
AcDbEntity
8
0
100
AcDbSpline
70
0
71
3
72
8
73
4
74
0
42
0.000000001
43
0.0000000001
44
0.0000000001
40
26.99981564484013
40
26.99981564484013
40
26.99981564484013
40
26.99981564484013
40
27
40
27
40
27
40
27
10
-1.914564675629006
20
-5.7800419124885503
30
0
10
-1.9145646528306466
20
-5.7800419093676263
30
0
10
-1.91456464110271
20
-5.7800419077618885
30
0
10
-1.9145646404474312
20
-5.7800419076721701
30
0
0
SPLINE
5
387
100
AcDbEntity
8
0
100
AcDbSpline
70
0
71
3
72
8
73
4
74
0
42
0.000000001
43
0.0000000001
44
0.0000000001
40
28.999489494951487
40
28.999489494951487
40
28.999489494951487
40
28.999489494951487
40
29
40
29
40
29
40
29
10
3.2292489613377264
20
-6.836270275583102
30
0
10
3.2292491812037016
20
-6.8362702521917633
30
0
10
3.2292492920575495
20
-6.8362702403856597
30
0
10
3.2292492938787376
20
-6.8362702401916993
30
0
0
SPLINE
5
388
100
AcDbEntity
8
0
100
AcDbSpline
70
0
71
3
72
8
73
4
74
0
42
0.000000001
43
0.0000000001
44
0.0000000001
40
6
40
6
40
6
40
6
40
6.0009630025318161
40
6.0009630025318161
40
6.0009630025318161
40
6.0009630025318161
10
-5.1770097088068061
20
-3.6288131173889631
30
0
10
-5.1770097088068061
20
-3.6288131208438288
30
0
10
-5.1770097088068061
20
-3.6288131963306345
30
0
10
-5.1770097086475735
20
-3.6288133437719168
30
0
0
SPLINE
5
389
100
AcDbEntity
8
0
100
AcDbSpline
70
0
71
3
72
8
73
4
74
0
42
0.000000001
43
0.0000000001
44
0.0000000001
40
0.037030426933205546
40
0.037030426933205546
40
0.037030426933205546
40
0.037030426933205546
40
1
40
1
40
1
40
1
10
3.2711884086386696
20
-6.6918902157358744
30
0
10
3.16540082876879
20
-6.7652432484994582
30
0
10
2.7167521789192612
20
-6.7608407584251111
30
0
10
2.0519337726385043
20
-6.6419523080627902
30
0
0
SPLINE
5
390
100
AcDbEntity
8
0
100
AcDbSpline
70
0
71
3
72
8
73
4
74
0
42
0.000000001
43
0.0000000001
44
0.0000000001
40
10.192492633182544
40
10.192492633182544
40
10.192492633182544
40
10.192492633182544
40
11
40
11
40
11
40
11
10
-4.1007309611687646
20
-2.8386728114756665
30
0
10
-4.1135821498575043
20
-2.7206397217588658
30
0
10
-4.1344877168730116
20
-2.5954158588880212
30
0
10
-4.1344881939142288
20
-2.5954130014221657
30
0
0
SPLINE
5
391
100
AcDbEntity
8
0
100
AcDbSpline
70
0
71
3
72
11
73
7
74
0
42
0.000000001
43
0.0000000001
44
0.0000000001
40
2
40
2
40
2
40
2
40
3
40
3
40
3
40
4
40
4
40
4
40
4
10
12.028816096857257
20
-2.4490751107971676
30
0
10
12.028816577393126
20
-2.449071555526749
30
0
10
12.111007943937995
20
-1.8409743188336047
30
0
10
11.704178340509593
20
-1.8729685434143561
30
0
10
11.297225900595633
20
-1.9049724282019209
30
0
10
11.146289851740072
20
-2.3850770028870096
30
0
10
11.045731990411944
20
-2.7371407541077133
30
0
0
LINE
5
392
100
AcDbEntity
8
0
100
AcDbLine
10
7.7689497638494434
20
1.0736140981872084
30
0
11
7.6221669269353818
21
1.5860068289000986
31
0
0
SPLINE
5
393
100
AcDbEntity
8
0
100
AcDbSpline
70
0
71
3
72
8
73
4
74
0
42
0.000000001
43
0.0000000001
44
0.0000000001
40
24.999854032715827
40
24.999854032715827
40
24.999854032715827
40
24.999854032715827
40
25
40
25
40
25
40
25
10
-3.228058565889147
20
-5.4336882632101435
30
0
10
-3.2280584860531665
20
-5.4336882879103952
30
0
10
-3.228058445879348
20
-5.433688300339651
30
0
10
-3.228058445379073
20
-5.4336883004944312
30
0
0
SPLINE
5
394
100
AcDbEntity
8
0
100
AcDbSpline
70
0
71
3
72
11
73
7
74
0
42
0.000000001
43
0.0000000001
44
0.0000000001
40
10
40
10
40
10
40
10
40
11
40
11
40
11
40
11.875211478524086
40
11.875211478524086
40
11.875211478524086
40
11.875211478524086
10
-4.2853497051446974
20
-3.7613700326721675
30
0
10
-4.2853462220282923
20
-3.7613708921851563
30
0
10
-2.8770840311091774
20
-4.1088814262497841
30
0
10
-1.8391956829278997
20
-4.3192090829651333
30
0
10
-0.93080521167383268
20
-4.5032940469559337
30
0
10
0.9828277737245843
20
-4.8449701736851409
30
0
10
1.4431903479241543
20
-4.9151148310777968
30
0
0
SPLINE
5
395
100
AcDbEntity
8
0
100
AcDbSpline
70
0
71
3
72
8
73
4
74
0
42
0.000000001
43
0.0000000001
44
0.0000000001
40
7.6635662653639693
40
7.6635662653639693
40
7.6635662653639693
40
7.6635662653639693
40
8
40
8
40
8
40
8
10
1.544348933767751
20
-5.1258848763709075
30
0
10
1.1432421133687491
20
-5.0545742017931774
30
0
10
0.61056242265209937
20
-4.9574536914499436
30
0
10
-0.097045566961104196
20
-4.8266826852600566
30
0
0
SPLINE
5
396
100
AcDbEntity
8
0
100
AcDbSpline
70
0
71
3
72
8
73
4
74
0
42
0.000000001
43
0.0000000001
44
0.0000000001
40
12
40
12
40
12
40
12
40
12.000002735814185
40
12.000002735814185
40
12.000002735814185
40
12.000002735814185
10
1.5443489337713161
20
-4.9273147043030265
30
0
10
1.5443489214293462
20
-4.9273146542588648
30
0
10
1.5443489090881259
20
-4.9273146042159022
30
0
10
1.5443488967476589
20
-4.9273145541741403
30
0
0
LINE
5
397
100
AcDbEntity
8
0
100
AcDbLine
10
5.165729701593583
20
-0.30465647066044743
30
0
11
5.5949916339666306
21
-0.35215448701786894
31
0
0
LINE
5
398
100
AcDbEntity
8
0
100
AcDbLine
10
1.7913312030584247
20
-0.10346659028935458
30
0
11
2.4630517841131128
21
-0.11747003877568231
31
0
0
SPLINE
5
399
100
AcDbEntity
8
0
100
AcDbSpline
70
0
71
3
72
8
73
4
74
0
42
0.000000001
43
0.0000000001
44
0.0000000001
40
5
40
5
40
5
40
5
40
6
40
6
40
6
40
6
10
10.693631160333814
20
-3.3635509713928702
30
0
10
10.487868220880692
20
-3.4549997934143524
30
0
10
7.7261640006855048
20
-4.7718538706441826
30
0
10
7.7261607623845947
20
-4.7718554147522463
30
0
0
SPLINE
5
400
100
AcDbEntity
8
0
100
AcDbSpline
70
0
71
3
72
8
73
4
74
0
42
0.000000001
43
0.0000000001
44
0.0000000001
40
20.99915075737588
40
20.99915075737588
40
20.99915075737588
40
20.99915075737588
40
21
40
21
40
21
40
21
10
7.2380795270596083
20
2.0523845419868838
30
0
10
7.2380794459594835
20
2.0523846433377804
30
0
10
7.2380794044263776
20
2.0523846951747586
30
0
10
7.2380794025213149
20
2.052384697552442
30
0
0
SPLINE
5
401
100
AcDbEntity
8
0
100
AcDbSpline
70
0
71
3
72
8
73
4
74
0
42
0.000000001
43
0.0000000001
44
0.0000000001
40
11
40
11
40
11
40
11
40
12
40
12
40
12
40
12
10
8.9322123981267865
20
-0.27606867158818138
30
0
10
9.0281230426580361
20
-0.25893823945927441
30
0
10
9.0933076740056951
20
-0.13206674898076085
30
0
10
9.0727659869939732
20
-0.018877356890917078
30
0
0
SPLINE
5
402
100
AcDbEntity
8
0
100
AcDbSpline
70
0
71
3
72
11
73
7
74
0
42
0.000000001
43
0.0000000001
44
0.0000000001
40
3
40
3
40
3
40
3
40
4
40
4
40
4
40
5
40
5
40
5
40
5
10
1.6540899921209278
20
-2.6366199716370122
30
0
10
1.7226487994939741
20
-2.6457290109436542
30
0
10
1.7867087054998338
20
-2.6137052377502932
30
0
10
1.7867087054998338
20
-2.5634510263245103
30
0
10
1.7867087054998338
20
-2.5131226571838852
30
0
10
1.7729771686345983
20
-2.4536852487366216
30
0
10
1.6678338886053021
20
-2.4399784311096675
30
0
0
SPLINE
5
403
100
AcDbEntity
8
0
100
AcDbSpline
70
0
71
3
72
11
73
7
74
0
42
0.000000001
43
0.0000000001
44
0.0000000001
40
13
40
13
40
13
40
13
40
14
40
14
40
14
40
14.529410540271707
40
14.529410540271707
40
14.529410540271707
40
14.529410540271707
10
1.3112094379217087
20
-3.4733414682190404
30
0
10
1.3112073665814077
20
-3.4733443974530411
30
0
10
1.2562709308416302
20
-3.5510340341370124
30
0
10
1.2562709308416302
20
-3.6104590829651348
30
0
10
1.2562709308416302
20
-3.6419520467341386
30
0
10
1.2601230085776867
20
-3.6913682570915971
30
0
10
1.2617091723835574
20
-3.7322569365188496
30
0
0
SPLINE
5
404
100
AcDbEntity
8
0
100
AcDbSpline
70
0
71
3
72
8
73
4
74
0
42
0.000000001
43
0.0000000001
44
0.0000000001
40
0
40
0
40
0
40
0
40
0.00079712957161026546
40
0.00079712957161026546
40
0.00079712957161026546
40
0.00079712957161026546
10
8.8280949664861623
20
-0.22692682588505692
30
0
10
8.8280949686541561
20
-0.2269268240200791
30
0
10
8.8280950333010946
20
-0.22692676840875953
30
0
10
8.8280951603100117
20
-0.22692665905573456
30
0
0
SPLINE
5
405
100
AcDbEntity
8
0
100
AcDbSpline
70
4
71
5
72
16
73
10
74
0
42
0.000000001
43
0.0000000001
44
0.0000000001
40
0
40
0
40
0
40
0
40
0
40
0
40
0.20000000000000001
40
0.40000000000000002
40
0.60000000000000009
40
0.80000000000000004
40
1
40
1
40
1
40
1
40
1
40
1
41
1
41
1
41
1
41
1
41
1
41
1
41
1
41
1
41
1
41
1
10
1.544348933767751
20
-5.1258848763709075
30
0
10
1.5403025900997385
20
-5.1174540745223807
30
0
10
1.5322099027638911
20
-5.1005924708256609
30
0
10
1.5200708717606795
20
-5.0753000652816116
30
0
10
1.5038854970907269
20
-5.0415768578913775
30
0
10
1.4836537787544066
20
-4.9994228486556871
30
0
10
1.467468404085857
20
-4.965699641268154
30
0
10
1.4553293730846093
20
-4.9404072357278821
30
0
10
1.4472366857505026
20
-4.9235456320345108
30
0
10
1.4431903420834657
20
-4.9151148301878624
30
0
0
SPLINE
5
406
100
AcDbEntity
8
0
100
AcDbSpline
70
0
71
3
72
8
73
4
74
0
42
0.000000001
43
0.0000000001
44
0.0000000001
40
3.4507648388584622
40
3.4507648388584622
40
3.4507648388584622
40
3.4507648388584622
40
4
40
4
40
4
40
4
10
1.304705304077155
20
-4.6064677157342935
30
0
10
1.3288715083250544
20
-4.6814711479678373
30
0
10
1.3523043845497842
20
-4.7352567760375255
30
0
10
1.352305171564286
20
-4.7352585824768534
30
0
0
SPLINE
5
407
100
AcDbEntity
8
0
100
AcDbSpline
70
0
71
3
72
8
73
4
74
0
42
0.000000001
43
0.0000000001
44
0.0000000001
40
4.9998224812115204
40
4.9998224812115204
40
4.9998224812115204
40
4.9998224812115204
40
5
40
5
40
5
40
5
10
7.5398765991960355
20
1.6786050951343141
30
0
10
7.5398765888334358
20
1.6786050953650351
30
0
10
7.5398765833338066
20
1.6786050954874845
30
0
10
7.539876582697099
20
1.6786050955016607
30
0
0
SPLINE
5
408
100
AcDbEntity
8
0
100
AcDbSpline
70
0
71
3
72
11
73
7
74
0
42
0.000000001
43
0.0000000001
44
0.0000000001
40
3.648706703189101
40
3.648706703189101
40
3.648706703189101
40
3.648706703189101
40
4
40
4
40
4
40
5
40
5
40
5
40
5
10
7.4762517209200983
20
0.57788847382990771
30
0
10
7.4831184797039523
20
0.28572765543342094
30
0
10
7.4884111285955379
20
-0.0051027696065373395
30
0
10
7.4884111285955379
20
-0.20748514497685594
30
0
10
7.4884111285955379
20
-0.33230493867802535
30
0
10
7.5130562091619417
20
-0.44136621797490072
30
0
10
7.5932206989080369
20
-0.47671472871708959
30
0
0
SPLINE
5
409
100
AcDbEntity
8
0
100
AcDbSpline
70
0
71
3
72
8
73
4
74
0
42
0.000000001
43
0.0000000001
44
0.0000000001
40
3
40
3
40
3
40
3
40
3.59283957107258
40
3.59283957107258
40
3.59283957107258
40
3.59283957107258
10
7.4455232501775672
20
1.6614499441344734
30
0
10
7.445523320694889
20
1.6614478184334995
30
0
10
7.4605966280417046
20
1.2070723078328167
30
0
10
7.4728711249207427
20
0.71702841296333497
30
0
0
SPLINE
5
410
100
AcDbEntity
8
0
100
AcDbSpline
70
0
71
3
72
8
73
4
74
0
42
0.000000001
43
0.0000000001
44
0.0000000001
40
29
40
29
40
29
40
29
40
29.000117661011629
40
29.000117661011629
40
29.000117661011629
40
29.000117661011629
10
3.2292492938787376
20
-6.8362702401916993
30
0
10
3.2292492940040014
20
-6.8362702405948035
30
0
10
3.2292492960765729
20
-6.836270247264431
30
0
10
3.229249300096614
20
-6.8362702601993126
30
0
0
SPLINE
5
411
100
AcDbEntity
8
0
100
AcDbSpline
70
0
71
3
72
8
73
4
74
0
42
0.000000001
43
0.0000000001
44
0.0000000001
40
1.9997059535510373
40
1.9997059535510373
40
1.9997059535510373
40
1.9997059535510373
40
2
40
2
40
2
40
2
10
7.7989094670287891
20
-0.41630089945291443
30
0
10
7.7989094752831116
20
-0.41630090606314318
30
0
10
7.798909479822858
20
-0.41630090969833505
30
0
10
7.7989094806463131
20
-0.41630091035771383
30
0
0
LINE
5
412
100
AcDbEntity
8
0
100
AcDbLine
10
-1.5830920147150105
20
-2.2342031320374032
30
0
11
-1.5877021526544628
21
-2.0741831430237294
31
0
0
SPLINE
5
413
100
AcDbEntity
8
0
100
AcDbSpline
70
0
71
3
72
8
73
4
74
0
42
0.000000001
43
0.0000000001
44
0.0000000001
40
12.461285804168506
40
12.461285804168506
40
12.461285804168506
40
12.461285804168506
40
13
40
13
40
13
40
13
10
8.9096711719530308
20
0.71123313373933483
30
0
10
8.8155576169351075
20
1.1189973247964653
30
0
10
8.7110786152998472
20
1.5545912023583388
30
0
10
8.6852177692205359
20
1.6100215688903325
30
0
0
SPLINE
5
414
100
AcDbEntity
8
0
100
AcDbSpline
70
0
71
3
72
8
73
4
74
0
42
0.000000001
43
0.0000000001
44
0.0000000001
40
1
40
1
40
1
40
1
40
2
40
2
40
2
40
2
10
12.476852290704905
20
-2.2250322946350605
30
0
10
12.296228816583818
20
-2.3130698617737298
30
0
10
12.028819294631246
20
-2.4490734844196043
30
0
10
12.028816096857257
20
-2.4490751107971676
30
0
0
SPLINE
5
415
100
AcDbEntity
8
0
100
AcDbSpline
70
0
71
3
72
8
73
4
74
0
42
0.000000001
43
0.0000000001
44
0.0000000001
40
2
40
2
40
2
40
2
40
2.0000023583552662
40
2.0000023583552662
40
2.0000023583552662
40
2.0000023583552662
10
7.7989094806463131
20
-0.41630091035771383
30
0
10
7.7989093889455336
20
-0.41630092647676326
30
0
10
7.7989092972447764
20
-0.41630094259580913
30
0
10
7.798909205544053
20
-0.41630095871485012
30
0
0
SPLINE
5
416
100
AcDbEntity
8
0
100
AcDbSpline
70
0
71
3
72
8
73
4
74
0
42
0.000000001
43
0.0000000001
44
0.0000000001
40
21.999135300680884
40
21.999135300680884
40
21.999135300680884
40
21.999135300680884
40
22
40
22
40
22
40
22
10
-5.2867135816550483
20
-2.4628064240833618
30
0
10
-5.2867136514200626
20
-2.4628065702983339
30
0
10
-5.2867136869641094
20
-2.4628066448621007
30
0
10
-5.2867136882989945
20
-2.4628066476624029
30
0
0
SPLINE
5
417
100
AcDbEntity
8
0
100
AcDbSpline
70
0
71
3
72
8
73
4
74
0
42
0.000000001
43
0.0000000001
44
0.0000000001
40
2
40
2
40
2
40
2
40
3
40
3
40
3
40
3
10
-1.4916802715509483
20
-2.2479346689026367
30
0
10
-1.4916767109363842
20
-2.2479351080909584
30
0
10
1.5855435443670194
20
-2.6274985727112306
30
0
10
1.6540899921209278
20
-2.6366199716370122
30
0
0
SPLINE
5
418
100
AcDbEntity
8
0
100
AcDbSpline
70
0
71
3
72
8
73
4
74
0
42
0.000000001
43
0.0000000001
44
0.0000000001
40
1
40
1
40
1
40
1
40
2
40
2
40
2
40
2
10
8.404085872247876
20
1.8123361746032232
30
0
10
8.2531254840642863
20
1.8226440969665045
30
0
10
7.7010001653948343
20
1.820901401991299
30
0
10
7.7009965778142844
20
1.8209013906676765
30
0
0
SPLINE
5
419
100
AcDbEntity
8
0
100
AcDbSpline
70
0
71
3
72
8
73
4
74
0
42
0.000000001
43
0.0000000001
44
0.0000000001
40
12
40
12
40
12
40
12
40
12.402274728029301
40
12.402274728029301
40
12.402274728029301
40
12.402274728029301
10
9.0727659869939732
20
-0.018877356890917078
30
0
10
9.064462809738643
20
0.026645931102971393
30
0
10
9.0078933439580879
20
0.28248919132749845
30
0
10
8.9401088488732654
20
0.57877099222629658
30
0
0
SPLINE
5
420
100
AcDbEntity
8
0
100
AcDbSpline
70
0
71
3
72
8
73
4
74
0
42
0.000000001
43
0.0000000001
44
0.0000000001
40
4
40
4
40
4
40
4
40
5
40
5
40
5
40
5
10
-1.5877021526544628
20
-2.0741831430237294
30
0
10
-1.5877057063409399
20
-2.0741826509110552
30
0
10
-4.4271763347833701
20
-1.6809742196838862
30
0
10
-4.4866137432306346
20
-1.6763888009827139
30
0
0
LINE
5
421
100
AcDbEntity
8
0
100
AcDbLine
10
-5.1770097088068061
20
-3.6288131173889631
30
0
11
-5.1449364971368841
21
-3.5030169137756837
31
0
0
SPLINE
5
422
100
AcDbEntity
8
0
100
AcDbSpline
70
4
71
5
72
21
73
15
74
0
42
0.000000001
43
0.0000000001
44
0.0000000001
40
0
40
0
40
0
40
0
40
0
40
0
40
0.10000000000000001
40
0.20000000000000001
40
0.30000000000000004
40
0.40000000000000002
40
0.5
40
0.59999999999999998
40
0.69999999999999996
40
0.79999999999999982
40
0.8999999999999998
40
1
40
1
40
1
40
1
40
1
40
1
41
1
41
1
41
1
41
1
41
1
41
1
41
1
41
1
41
1
41
1
41
1
41
1
41
1
41
1
41
1
10
7.5932206989080369
20
-0.47671472871708959
30
0
10
7.5959777506244146
20
-0.481352650139591
30
0
10
7.6018104063217944
20
-0.49007784629308909
30
0
10
7.6115150643295788
20
-0.50151366990825386
30
0
10
7.6263972520268579
20
-0.51340339764139542
30
0
10
7.6484312447529978
20
-0.52233431420775778
30
0
10
7.6741179039036291
20
-0.5249512631695773
30
0
10
7.7035992237017226
20
-0.52100879454346893
30
0
10
7.7367268047718047
20
-0.51076343020791748
30
0
10
7.7731795525891112
20
-0.49477021138213079
30
0
10
7.81261219451806
20
-0.47362597335781287
30
0
10
7.8463077750987944
20
-0.45299503279944814
30
0
10
7.8727044269344155
20
-0.43557722018629658
30
0
10
7.8907939903829662
20
-0.42311523156033698
30
0
10
7.8999617267400684
20
-0.41667169893193157
30
0
0
SPLINE
5
423
100
AcDbEntity
8
0
100
AcDbSpline
70
0
71
3
72
8
73
4
74
0
42
0.000000001
43
0.0000000001
44
0.0000000001
40
3.9998186127650359
40
3.9998186127650359
40
3.9998186127650359
40
3.9998186127650359
40
4
40
4
40
4
40
4
10
7.6803312968956066
20
-0.52307566866900601
30
0
10
7.6803312955405456
20
-0.52307566359433288
30
0
10
7.6803312947790285
20
-0.52307566074229195
30
0
10
7.6803312946111584
20
-0.52307566011357287
30
0
0
SPLINE
5
424
100
AcDbEntity
8
0
100
AcDbSpline
70
0
71
2
72
6
73
3
74
0
42
0.000000001
43
0.0000000001
44
0.0000000001
40
0
40
0
40
0
40
1
40
1
40
1
10
4.9085171975235431
20
-8.5043294031163548
30
0
10
4.8501166792113146
20
-8.3590075721265524
30
0
10
4.8501166792113146
20
-8.1489471418025659
30
0
0
SPLINE
5
425
100
AcDbEntity
8
0
100
AcDbSpline
70
0
71
3
72
8
73
4
74
0
42
0.000000001
43
0.0000000001
44
0.0000000001
40
6.6767276321869993
40
6.6767276321869993
40
6.6767276321869993
40
6.6767276321869993
40
7
40
7
40
7
40
7
10
2.0756460645424433
20
-5.0163733851858074
30
0
10
1.9745246721067506
20
-5.0143845299879732
30
0
10
1.8824269236599618
20
-5.0093457203944167
30
0
10
1.8232931781560811
20
-5.0004836496155249
30
0
0
SPLINE
5
426
100
AcDbEntity
8
0
100
AcDbSpline
70
0
71
3
72
8
73
4
74
0
42
0.000000001
43
0.0000000001
44
0.0000000001
40
2.4365288964558904
40
2.4365288964558904
40
2.4365288964558904
40
2.4365288964558904
40
3
40
3
40
3
40
3
10
2.0108465162070042
20
-3.5083679075765639
30
0
10
2.2346387828136436
20
-3.5289989346622312
30
0
10
2.4724265816071713
20
-3.5563875034200469
30
0
10
2.5548837543279581
20
-3.569264472369432
30
0
0
SPLINE
5
427
100
AcDbEntity
8
0
100
AcDbSpline
70
0
71
3
72
8
73
4
74
0
42
0.000000001
43
0.0000000001
44
0.0000000001
40
1.4216943395744854
40
1.4216943395744854
40
1.4216943395744854
40
1.4216943395744854
40
2
40
2
40
2
40
2
10
-4.7203053090695475
20
-2.4305284928167441
30
0
10
-4.5836862810999195
20
-2.4461883117586782
30
0
10
-4.4557588131597186
20
-2.4659349614789576
30
0
10
-4.4134447979181353
20
-2.4765134652893535
30
0
0
SPLINE
5
428
100
AcDbEntity
8
0
100
AcDbSpline
70
0
71
2
72
6
73
3
74
0
42
0.000000001
43
0.0000000001
44
0.0000000001
40
0
40
0
40
0
40
1
40
1
40
1
10
3.0845230486196002
20
-7.8275186053724468
30
0
10
2.8545431613668826
20
-8.0040779494238397
30
0
10
2.7748651118945094
20
-8.0040779494238397
30
0
0
SPLINE
5
429
100
AcDbEntity
8
0
100
AcDbSpline
70
0
71
2
72
6
73
3
74
0
42
0.000000001
43
0.0000000001
44
0.0000000001
40
0
40
0
40
0
40
1
40
1
40
1
10
2.707410395777146
20
-7.9737459670214879
30
0
10
2.677983833155309
20
-7.9434139846191369
30
0
10
2.677983833155309
20
-7.9035749440431342
30
0
0
SPLINE
5
430
100
AcDbEntity
8
0
100
AcDbSpline
70
0
71
2
72
6
73
3
74
0
42
0.000000001
43
0.0000000001
44
0.0000000001
40
0
40
0
40
0
40
1
40
1
40
1
10
3.1669174049529651
20
-7.4562913315815926
30
0
10
3.1823097788189472
20
-7.4399935537749142
30
0
10
3.2248650945763093
20
-7.4399935537749142
30
0
0
LINE
5
431
100
AcDbEntity
8
0
100
AcDbLine
10
3.3308006503197296
20
-7.5794301957909269
30
0
11
3.3308006503197296
21
-8.6161502745521066
31
0
0
SPLINE
5
432
100
AcDbEntity
8
0
100
AcDbSpline
70
0
71
2
72
6
73
3
74
0
42
0.000000001
43
0.0000000001
44
0.0000000001
40
0
40
0
40
0
40
1
40
1
40
1
10
3.3308006503197296
20
-8.6161502745521066
30
0
10
3.3308006503197296
20
-8.7981422956847535
30
0
10
3.2067564455289688
20
-8.7981422956847535
30
0
0
SPLINE
5
433
100
AcDbEntity
8
0
100
AcDbSpline
70
0
71
2
72
6
73
3
74
0
42
0.000000001
43
0.0000000001
44
0.0000000001
40
0
40
0
40
0
40
1
40
1
40
1
10
2.9844727452092426
20
-7.6708789083275954
30
0
10
3.0501166217655782
20
-7.6138366860042144
30
0
10
3.1008208264262791
20
-7.5432128976962431
30
0
0
SPLINE
5
434
100
AcDbEntity
8
0
100
AcDbSpline
70
0
71
3
72
8
73
4
74
0
42
0.000000001
43
0.0000000001
44
0.0000000001
40
1
40
1
40
1
40
1
40
1.2196826846408515
40
1.2196826846408515
40
1.2196826846408515
40
1.2196826846408515
10
-5.0032087444513378
20
-2.4079299386780253
30
0
10
-4.9620328226802721
20
-2.4089372757685021
30
0
10
-4.9140170512616015
20
-2.4119291057322294
30
0
10
-4.863378056500328
20
-2.4161788306991312
30
0
0
SPLINE
5
435
100
AcDbEntity
8
0
100
AcDbSpline
70
0
71
2
72
6
73
3
74
0
42
0.000000001
43
0.0000000001
44
0.0000000001
40
0
40
0
40
0
40
1
40
1
40
1
10
2.7748651118945094
20
-8.0040779494238397
30
0
10
2.736836942559167
20
-8.0040779494238397
30
0
10
2.707410395777146
20
-7.9737459670214879
30
0
0
SPLINE
5
436
100
AcDbEntity
8
0
100
AcDbSpline
70
0
71
2
72
6
73
3
74
0
42
0.000000001
43
0.0000000001
44
0.0000000001
40
0
40
0
40
0
40
1
40
1
40
1
10
4.4182251871786846
20
-8.1806372934752307
30
0
10
4.358466753033218
20
-8.2512609550646641
30
0
10
4.2846739875735391
20
-8.2870256145482664
30
0
0
SPLINE
5
437
100
AcDbEntity
8
0
100
AcDbSpline
70
0
71
3
72
8
73
4
74
0
42
0.000000001
43
0.0000000001
44
0.0000000001
40
41
40
41
40
41
40
41
40
41.000025966138097
40
41.000025966138097
40
41.000025966138097
40
41.000025966138097
10
-5.0352819561212607
20
-1.4934664377014624
30
0
10
-5.0352819560290731
20
-1.4934664377148628
30
0
10
-5.035281954176563
20
-1.49346643798415
30
0
10
-5.0352819505638076
20
-1.4934664385093124
30
0
0
SPLINE
5
438
100
AcDbEntity
8
0
100
AcDbSpline
70
0
71
3
72
8
73
4
74
0
42
0.000000001
43
0.0000000001
44
0.0000000001
40
5.6419135487886507
40
5.6419135487886507
40
5.6419135487886507
40
5.6419135487886507
40
6
40
6
40
6
40
6
10
-4.8093541553244856
20
-3.6798663215493375
30
0
10
-4.8933096974580259
20
-3.6551265965350588
30
0
10
-4.9655583604369262
20
-3.6122839663151627
30
0
10
-5.0032087444513378
20
-3.5419002755920874
30
0
0
SPLINE
5
439
100
AcDbEntity
8
0
100
AcDbSpline
70
0
71
2
72
6
73
3
74
0
42
0.000000001
43
0.0000000001
44
0.0000000001
40
0
40
0
40
0
40
1
40
1
40
1
10
3.1180240715329246
20
-8.7610194669308381
30
0
10
3.0845230486196002
20
-8.7238967648954553
30
0
10
3.0845230486196002
20
-8.6514621687060931
30
0
0
LINE
5
440
100
AcDbEntity
8
0
100
AcDbLine
10
3.0845230486196002
20
-8.6514621687060931
30
0
11
3.0845230486196002
21
-7.8275186053724468
31
0
0
SPLINE
5
441
100
AcDbEntity
8
0
100
AcDbSpline
70
0
71
2
72
6
73
3
74
0
42
0.000000001
43
0.0000000001
44
0.0000000001
40
0
40
0
40
0
40
1
40
1
40
1
10
4.5404586474473216
20
-7.6061403089934183
30
0
10
4.602933420133418
20
-7.6871765594157377
30
0
10
4.63643450640601
20
-7.810315360265804
30
0
0
SPLINE
5
442
100
AcDbEntity
8
0
100
AcDbSpline
70
0
71
2
72
6
73
3
74
0
42
0.000000001
43
0.0000000001
44
0.0000000001
40
0
40
0
40
0
40
1
40
1
40
1
10
4.3335673209935797
20
-7.6998525947410972
30
0
10
4.3032352118726944
20
-7.6618243620464863
30
0
10
4.2611327248042175
20
-7.6400940338770926
30
0
0
SPLINE
5
443
100
AcDbEntity
8
0
100
AcDbSpline
70
0
71
2
72
6
73
3
74
0
42
0.000000001
43
0.0000000001
44
0.0000000001
40
0
40
0
40
0
40
1
40
1
40
1
10
3.3018268371876904
20
-7.4771163825288278
30
0
10
3.3308006503197296
20
-7.5142390845642053
30
0
10
3.3308006503197296
20
-7.5794301957909269
30
0
0
SPLINE
5
444
100
AcDbEntity
8
0
100
AcDbSpline
70
0
71
2
72
6
73
3
74
0
42
0.000000001
43
0.0000000001
44
0.0000000001
40
0
40
0
40
0
40
1
40
1
40
1
10
5.7682251669037194
20
-8.1770155509939055
30
0
10
5.7981046374135268
20
-8.2575990360866118
30
0
10
5.7981046374135268
20
-8.3454260061419596
30
0
0
SPLINE
5
445
100
AcDbEntity
8
0
100
AcDbSpline
70
0
71
2
72
6
73
3
74
0
42
0.000000001
43
0.0000000001
44
0.0000000001
40
0
40
0
40
0
40
1
40
1
40
1
10
5.6835673007186127
20
-8.037126270366814
30
0
10
5.7383459498309852
20
-8.0964320659012063
30
0
10
5.7682251669037194
20
-8.1770155509939055
30
0
0
SPLINE
5
446
100
AcDbEntity
8
0
100
AcDbSpline
70
0
71
2
72
6
73
3
74
0
42
0.000000001
43
0.0000000001
44
0.0000000001
40
0
40
0
40
0
40
1
40
1
40
1
10
2.677983833155309
20
-7.9035749440431342
30
0
10
2.677983833155309
20
-7.85739788580445
30
0
10
2.7069576779669808
20
-7.8356674942757873
30
0
0
SPLINE
5
447
100
AcDbEntity
8
0
100
AcDbSpline
70
4
71
5
72
17
73
11
74
0
42
0.000000001
43
0.0000000001
44
0.0000000001
40
0
40
0
40
0
40
0
40
0
40
0
40
0.10000000000000001
40
0.20000000000000001
40
0.30000000000000004
40
0.40000000000000002
40
0.5
40
0.55647359956439968
40
0.55647359956439968
40
0.55647359956439968
40
0.55647359956439968
40
0.55647359956439968
40
0.55647359956439968
41
1
41
1
41
1
41
1
41
1
41
1
41
1
41
1
41
1
41
1
41
1
10
8.3504204059392855
20
-0.37782541597294789
30
0
10
8.3405105537691657
20
-0.38207094060021923
30
0
10
8.3208725823358929
20
-0.39032678109297564
30
0
10
8.291960789209849
20
-0.40200496045356615
30
0
10
8.2545202970248646
20
-0.41614109983036307
30
0
10
8.2097013789406663
20
-0.4312464521919917
30
0
10
8.1707811092405915
20
-0.44245216702959678
30
0
10
8.1419233845798864
20
-0.44921473369731202
30
0
10
8.1220126540777642
20
-0.45297795973612248
30
0
10
8.1101869586837481
20
-0.45485744013951496
30
0
10
8.1059608859167742
20
-0.45548142254123047
30
0
0
SPLINE
5
448
100
AcDbEntity
8
0
100
AcDbSpline
70
0
71
2
72
6
73
3
74
0
42
0.000000001
43
0.0000000001
44
0.0000000001
40
0
40
0
40
0
40
1
40
1
40
1
10
3.2067564455289688
20
-8.7981422956847535
30
0
10
3.1515250310869809
20
-8.7981422956847535
30
0
10
3.1180240715329246
20
-8.7610194669308381
30
0
0
SPLINE
5
449
100
AcDbEntity
8
0
100
AcDbSpline
70
0
71
3
72
8
73
4
74
0
42
0.000000001
43
0.0000000001
44
0.0000000001
40
6
40
6
40
6
40
6
40
6.5000000000000018
40
6.5000000000000018
40
6.5000000000000018
40
6.5000000000000018
10
2.6097110248357711
20
-4.995861152056932
30
0
10
2.5571393848211215
20
-5.0072937997620102
30
0
10
2.406265513971511
20
-5.0153028329651361
30
0
10
2.2456692577154063
20
-5.0170269998352524
30
0
0
SPLINE
5
450
100
AcDbEntity
8
0
100
AcDbSpline
70
0
71
2
72
6
73
3
74
0
42
0.000000001
43
0.0000000001
44
0.0000000001
40
0
40
0
40
0
40
1
40
1
40
1
10
3.9623399204841889
20
-8.2897419530888943
30
0
10
3.8885471550245132
20
-8.2566936321459181
30
0
10
3.8346739098528384
20
-8.1973877098929897
30
0
0
SPLINE
5
451
100
AcDbEntity
8
0
100
AcDbSpline
70
0
71
3
72
8
73
4
74
0
42
0.000000001
43
0.0000000001
44
0.0000000001
40
9
40
9
40
9
40
9
40
9.9045429316368132
40
9.9045429316368132
40
9.9045429316368132
40
9.9045429316368132
10
8.3150718951971019
20
-0.17763666475224493
30
0
10
8.3234343901833654
20
-0.3110005720934213
30
0
10
8.232551685355638
20
-0.42761798963512981
30
0
10
8.1059608853153886
20
-0.45548141846823309
30
0
0
SPLINE
5
452
100
AcDbEntity
8
0
100
AcDbSpline
70
0
71
2
72
6
73
3
74
0
42
0.000000001
43
0.0000000001
44
0.0000000001
40
0
40
0
40
0
40
1
40
1
40
1
10
3.1008208264262791
20
-7.5432128976962431
30
0
10
3.1515250310869809
20
-7.4725891093882719
30
0
10
3.1669174049529651
20
-7.4562913315815926
30
0
0
SPLINE
5
453
100
AcDbEntity
8
0
100
AcDbSpline
70
0
71
3
72
8
73
4
74
0
42
0.000000001
43
0.0000000001
44
0.0000000001
40
2
40
2
40
2
40
2
40
2.3330674036025751
40
2.3330674036025751
40
2.3330674036025751
40
2.3330674036025751
10
1.59465258367366
20
-3.4824752267639645
30
0
10
1.6540466901851065
20
-3.4809356235039641
30
0
10
1.7641646669532132
20
-3.4875143074662818
30
0
10
1.8900357192039294
20
-3.4978185800307986
30
0
0
SPLINE
5
454
100
AcDbEntity
8
0
100
AcDbSpline
70
0
71
3
72
8
73
4
74
0
42
0.000000001
43
0.0000000001
44
0.0000000001
40
4
40
4
40
4
40
4
40
4.0003915587968004
40
4.0003915587968004
40
4.0003915587968004
40
4.0003915587968004
10
-5.0420921062677451
20
-1.3562993844788074
30
0
10
-5.0420921056774199
20
-1.356299383204109
30
0
10
-5.0420920756134162
20
-1.3562993182864267
30
0
10
-5.0420920160658902
20
-1.3562991897651113
30
0
0
SPLINE
5
455
100
AcDbEntity
8
0
100
AcDbSpline
70
0
71
2
72
6
73
3
74
0
42
0.000000001
43
0.0000000001
44
0.0000000001
40
0
40
0
40
0
40
1
40
1
40
1
10
4.6699354659600676
20
-8.0891885809385631
30
0
10
4.6699354659600676
20
-8.2630315864493262
30
0
10
4.6346235718060811
20
-8.3956775088323123
30
0
0
SPLINE
5
456
100
AcDbEntity
8
0
100
AcDbSpline
70
0
71
2
72
6
73
3
74
0
42
0.000000001
43
0.0000000001
44
0.0000000001
40
0
40
0
40
0
40
1
40
1
40
1
10
3.963698089754502
20
-7.887277102877186
30
0
10
3.963698089754502
20
-8.0076996285458915
30
0
10
4.0234566506185088
20
-8.07922882079456
30
0
0
SPLINE
5
457
100
AcDbEntity
8
0
100
AcDbSpline
70
0
71
2
72
6
73
3
74
0
42
0.000000001
43
0.0000000001
44
0.0000000001
40
0
40
0
40
0
40
1
40
1
40
1
10
4.8501166792113146
20
-8.1489471418025659
30
0
10
4.8501166792113146
20
-7.9778204114731599
30
0
10
4.8854285733653002
20
-7.8429109792384315
30
0
0
SPLINE
5
458
100
AcDbEntity
8
0
100
AcDbSpline
70
0
71
2
72
6
73
3
74
0
42
0.000000001
43
0.0000000001
44
0.0000000001
40
0
40
0
40
0
40
1
40
1
40
1
10
4.1212433174585881
20
-8.3227901473133343
30
0
10
4.0361326859438647
20
-8.3227901473133343
30
0
10
3.9623399204841889
20
-8.2897419530888943
30
0
0
SPLINE
5
459
100
AcDbEntity
8
0
100
AcDbSpline
70
0
71
2
72
6
73
3
74
0
42
0.000000001
43
0.0000000001
44
0.0000000001
40
0
40
0
40
0
40
1
40
1
40
1
10
3.7228530384170861
20
-7.8927097165991693
30
0
10
3.7228530384170861
20
-7.7994501328218355
30
0
10
3.7554485940304456
20
-7.7156976072181607
30
0
0
SPLINE
5
460
100
AcDbEntity
8
0
100
AcDbSpline
70
0
71
2
72
6
73
3
74
0
42
0.000000001
43
0.0000000001
44
0.0000000001
40
0
40
0
40
0
40
1
40
1
40
1
10
4.0234566506185088
20
-7.692156344448839
30
0
10
3.963698089754502
20
-7.7659491732677806
30
0
10
3.963698089754502
20
-7.887277102877186
30
0
0
SPLINE
5
461
100
AcDbEntity
8
0
100
AcDbSpline
70
0
71
3
72
8
73
4
74
0
42
0.000000001
43
0.0000000001
44
0.0000000001
40
11
40
11
40
11
40
11
40
11.001056928332062
40
11.001056928332062
40
11.001056928332062
40
11.001056928332062
10
1.2883565021306915
20
2.2146912161071297
30
0
10
1.2883565040807985
20
2.2146912193590662
30
0
10
1.288356582613656
20
2.2146913503179499
30
0
10
1.2883567379237209
20
2.2146916088002135
30
0
0
SPLINE
5
462
100
AcDbEntity
8
0
100
AcDbSpline
70
0
71
2
72
6
73
3
74
0
42
0.000000001
43
0.0000000001
44
0.0000000001
40
0
40
0
40
0
40
1
40
1
40
1
10
3.7554485940304456
20
-7.7156976072181607
30
0
10
3.7880441496438078
20
-7.6319451449737512
30
0
10
3.8487081144485082
20
-7.5703757762283539
30
0
0
SPLINE
5
463
100
AcDbEntity
8
0
100
AcDbSpline
70
0
71
2
72
6
73
3
74
0
42
0.000000001
43
0.0000000001
44
0.0000000001
40
0
40
0
40
0
40
1
40
1
40
1
10
5.1009215540519977
20
-8.0574984926251645
30
0
10
5.1624907960788624
20
-7.9841584291358378
30
0
10
5.2349253922682246
20
-7.9488465983411212
30
0
0
SPLINE
5
464
100
AcDbEntity
8
0
100
AcDbSpline
70
0
71
3
72
8
73
4
74
0
42
0.000000001
43
0.0000000001
44
0.0000000001
40
10.999856367379316
40
10.999856367379316
40
10.999856367379316
40
10.999856367379316
40
11
40
11
40
11
40
11
10
1.2883565181291368
20
2.2146912268746322
30
0
10
1.2883565078903545
20
2.2146912199843323
30
0
10
1.2883565025581578
20
2.2146912163948844
30
0
10
1.2883565021306915
20
2.2146912161071297
30
0
0
SPLINE
5
465
100
AcDbEntity
8
0
100
AcDbSpline
70
0
71
2
72
6
73
3
74
0
42
0.000000001
43
0.0000000001
44
0.0000000001
40
0
40
0
40
0
40
1
40
1
40
1
10
4.3652573459477084
20
-8.0357680377372347
30
0
10
4.3974002629499864
20
-7.9796312193545527
30
0
10
4.3974002629499864
20
-7.903574880683867
30
0
0
SPLINE
5
466
100
AcDbEntity
8
0
100
AcDbSpline
70
0
71
2
72
6
73
3
74
0
42
0.000000001
43
0.0000000001
44
0.0000000001
40
0
40
0
40
0
40
1
40
1
40
1
10
5.7981046374135268
20
-8.3454260061419596
30
0
10
5.7981046374135268
20
-8.473092016773311
30
0
10
5.7397041191012983
20
-8.5772167646353363
30
0
0
SPLINE
5
467
100
AcDbEntity
8
0
100
AcDbSpline
70
0
71
3
72
8
73
4
74
0
42
0.000000001
43
0.0000000001
44
0.0000000001
40
5
40
5
40
5
40
5
40
5.0008601299155817
40
5.0008601299155817
40
5.0008601299155817
40
5.0008601299155817
10
7.5932206989080369
20
-0.47671472871708959
30
0
10
7.5932206989323108
20
-0.47671473180279483
30
0
10
7.5932206992857267
20
-0.47671477672584456
30
0
10
7.5932206999763858
20
-0.47671486344628394
30
0
0
SPLINE
5
468
100
AcDbEntity
8
0
100
AcDbSpline
70
0
71
2
72
6
73
3
74
0
42
0.000000001
43
0.0000000001
44
0.0000000001
40
0
40
0
40
0
40
1
40
1
40
1
10
4.2846739875735391
20
-8.2870256145482664
30
0
10
4.2108812221138647
20
-8.3227901473133343
30
0
10
4.1212433174585881
20
-8.3227901473133343
30
0
0
SPLINE
5
469
100
AcDbEntity
8
0
100
AcDbSpline
70
0
71
2
72
6
73
3
74
0
42
0.000000001
43
0.0000000001
44
0.0000000001
40
0
40
0
40
0
40
1
40
1
40
1
10
4.63643450640601
20
-7.810315360265804
30
0
10
4.6699354659600676
20
-7.9334541611158675
30
0
10
4.6699354659600676
20
-8.0891885809385631
30
0
0
SPLINE
5
470
100
AcDbEntity
8
0
100
AcDbSpline
70
0
71
2
72
6
73
3
74
0
42
0.000000001
43
0.0000000001
44
0.0000000001
40
0
40
0
40
0
40
1
40
1
40
1
10
4.0234566506185088
20
-8.07922882079456
30
0
10
4.0832152114825115
20
-8.1507579496839586
30
0
10
4.1746637973006449
20
-8.1507579496839586
30
0
0
SPLINE
5
471
100
AcDbEntity
8
0
100
AcDbSpline
70
0
71
2
72
6
73
3
74
0
42
0.000000001
43
0.0000000001
44
0.0000000001
40
0
40
0
40
0
40
1
40
1
40
1
10
3.2248650945763093
20
-7.4399935537749142
30
0
10
3.272852960696385
20
-7.4399935537749142
30
0
10
3.3018268371876904
20
-7.4771163825288278
30
0
0
SPLINE
5
472
100
AcDbEntity
8
0
100
AcDbSpline
70
0
71
3
72
8
73
4
74
0
42
0.000000001
43
0.0000000001
44
0.0000000001
40
4
40
4
40
4
40
4
40
4.0002932164461455
40
4.0002932164461455
40
4.0002932164461455
40
4.0002932164461455
10
7.6803312946111584
20
-0.52307566011357287
30
0
10
7.6803312956529144
20
-0.52307565996755279
30
0
10
7.6803313043131132
20
-0.52307565875367512
30
0
10
7.6803313205889756
20
-0.52307565647185672
30
0
0
SPLINE
5
473
100
AcDbEntity
8
0
100
AcDbSpline
70
0
71
3
72
8
73
4
74
0
42
0.000000001
43
0.0000000001
44
0.0000000001
40
5
40
5
40
5
40
5
40
5.4247124922684336
40
5.4247124922684336
40
5.4247124922684336
40
5.4247124922684336
10
-4.3768603252618856
20
-3.6927617868225577
30
0
10
-4.4389698612253445
20
-3.7044256973119758
30
0
10
-4.5423373539762792
20
-3.7144242185373595
30
0
10
-4.6487689226383466
20
-3.707009961430249
30
0
0
SPLINE
5
474
100
AcDbEntity
8
0
100
AcDbSpline
70
0
71
2
72
6
73
3
74
0
42
0.000000001
43
0.0000000001
44
0.0000000001
40
0
40
0
40
0
40
1
40
1
40
1
10
2.7069576779669808
20
-7.8356674942757873
30
0
10
2.7359315069388366
20
-7.8139371661063937
30
0
10
2.8092715387485301
20
-7.7795307392523734
30
0
0
SPLINE
5
475
100
AcDbEntity
8
0
100
AcDbSpline
70
0
71
2
72
6
73
3
74
0
42
0.000000001
43
0.0000000001
44
0.0000000001
40
0
40
0
40
0
40
1
40
1
40
1
10
2.8092715387485301
20
-7.7795307392523734
30
0
10
2.9188288686529065
20
-7.7279210672917067
30
0
10
2.9844727452092426
20
-7.6708789083275954
30
0
0
SPLINE
5
476
100
AcDbEntity
8
0
100
AcDbSpline
70
0
71
2
72
6
73
3
74
0
42
0.000000001
43
0.0000000001
44
0.0000000001
40
0
40
0
40
0
40
1
40
1
40
1
10
3.8346739098528384
20
-8.1973877098929897
30
0
10
3.7808006646811632
20
-8.1380819143586027
30
0
10
3.7518268515491253
20
-8.0588565985362113
30
0
0
SPLINE
5
477
100
AcDbEntity
8
0
100
AcDbSpline
70
0
71
2
72
6
73
3
74
0
42
0.000000001
43
0.0000000001
44
0.0000000001
40
0
40
0
40
0
40
1
40
1
40
1
10
4.2819576490329139
20
-8.121331497940842
30
0
10
4.333114555663963
20
-8.0919049194791857
30
0
10
4.3652573459477084
20
-8.0357680377372347
30
0
0
SPLINE
5
478
100
AcDbEntity
8
0
100
AcDbSpline
70
0
71
2
72
6
73
3
74
0
42
0.000000001
43
0.0000000001
44
0.0000000001
40
0
40
0
40
0
40
1
40
1
40
1
10
5.2349253922682246
20
-7.9488465983411212
30
0
10
5.3073602418946617
20
-7.9135347041871338
30
0
10
5.3969978931128653
20
-7.9135347041871338
30
0
0
SPLINE
5
479
100
AcDbEntity
8
0
100
AcDbSpline
70
0
71
2
72
6
73
3
74
0
42
0.000000001
43
0.0000000001
44
0.0000000001
40
0
40
0
40
0
40
1
40
1
40
1
10
3.8487081144485082
20
-7.5703757762283539
30
0
10
3.9093722059717457
20
-7.508806280764416
30
0
10
3.9931246682161565
20
-7.4743999172696647
30
0
0
SPLINE
5
480
100
AcDbEntity
8
0
100
AcDbSpline
70
0
71
2
72
6
73
3
74
0
42
0.000000001
43
0.0000000001
44
0.0000000001
40
0
40
0
40
0
40
1
40
1
40
1
10
3.7518268515491253
20
-8.0588565985362113
30
0
10
3.7228530384170861
20
-7.9796312193545527
30
0
10
3.7228530384170861
20
-7.8927097165991693
30
0
0
SPLINE
5
481
100
AcDbEntity
8
0
100
AcDbSpline
70
0
71
2
72
6
73
3
74
0
42
0.000000001
43
0.0000000001
44
0.0000000001
40
0
40
0
40
0
40
1
40
1
40
1
10
4.1746637973006449
20
-8.1507579496839586
30
0
10
4.2308006156833295
20
-8.1507579496839586
30
0
10
4.2819576490329139
20
-8.121331497940842
30
0
0
SPLINE
5
482
100
AcDbEntity
8
0
100
AcDbSpline
70
0
71
2
72
6
73
3
74
0
42
0.000000001
43
0.0000000001
44
0.0000000001
40
0
40
0
40
0
40
1
40
1
40
1
10
5.5559014168057983
20
-7.9456775578301482
30
0
10
5.6287886516062446
20
-7.9778204114731599
30
0
10
5.6835673007186127
20
-8.037126270366814
30
0
0
SPLINE
5
483
100
AcDbEntity
8
0
100
AcDbSpline
70
0
71
2
72
6
73
3
74
0
42
0.000000001
43
0.0000000001
44
0.0000000001
40
0
40
0
40
0
40
1
40
1
40
1
10
5.3969978931128653
20
-7.9135347041871338
30
0
10
5.4830139285682842
20
-7.9135347041871338
30
0
10
5.5559014168057983
20
-7.9456775578301482
30
0
0
SPLINE
5
484
100
AcDbEntity
8
0
100
AcDbSpline
70
0
71
2
72
6
73
3
74
0
42
0.000000001
43
0.0000000001
44
0.0000000001
40
0
40
0
40
0
40
1
40
1
40
1
10
5.7397041191012983
20
-8.5772167646353363
30
0
10
5.6813036007890689
20
-8.6813415124973652
30
0
10
5.5767263410344974
20
-8.7397419040910602
30
0
0
SPLINE
5
485
100
AcDbEntity
8
0
100
AcDbSpline
70
0
71
2
72
6
73
3
74
0
42
0.000000001
43
0.0000000001
44
0.0000000001
40
0
40
0
40
0
40
1
40
1
40
1
10
5.077380291282676
20
-8.7238967648954553
30
0
10
4.9669174623987011
20
-8.6496513608247003
30
0
10
4.9085171975235431
20
-8.5043294031163548
30
0
0
SPLINE
5
486
100
AcDbEntity
8
0
100
AcDbSpline
70
0
71
2
72
6
73
3
74
0
42
0.000000001
43
0.0000000001
44
0.0000000001
40
0
40
0
40
0
40
1
40
1
40
1
10
5.5658609868719937
20
-7.4852652714321684
30
0
10
5.6541407222569591
20
-7.5305368623708846
30
0
10
5.6989595478660622
20
-7.597538908197536
30
0
0
SPLINE
5
487
100
AcDbEntity
8
0
100
AcDbSpline
70
0
71
2
72
6
73
3
74
0
42
0.000000001
43
0.0000000001
44
0.0000000001
40
0
40
0
40
0
40
1
40
1
40
1
10
6.7872892985879121
20
-8.1371765104179037
30
0
10
6.8357297399598007
20
-8.1860698438379451
30
0
10
6.8601762799512844
20
-8.2453757660908717
30
0
0
SPLINE
5
488
100
AcDbEntity
8
0
100
AcDbSpline
70
0
71
2
72
6
73
3
74
0
42
0.000000001
43
0.0000000001
44
0.0000000001
40
0
40
0
40
0
40
1
40
1
40
1
10
6.66822481547098
20
-8.0502549443032549
30
0
10
6.7388486037789521
20
-8.0882830502793297
30
0
10
6.7872892985879121
20
-8.1371765104179037
30
0
0
SPLINE
5
489
100
AcDbEntity
8
0
100
AcDbSpline
70
0
71
2
72
6
73
3
74
0
42
0.000000001
43
0.0000000001
44
0.0000000001
40
0
40
0
40
0
40
1
40
1
40
1
10
6.6016755349739489
20
-8.76418857080108
30
0
10
6.5133957995889826
20
-8.7981422956847535
30
0
10
6.40655483990487
20
-8.7981422956847535
30
0
0
SPLINE
5
490
100
AcDbEntity
8
0
100
AcDbSpline
70
0
71
2
72
6
73
3
74
0
42
0.000000001
43
0.0000000001
44
0.0000000001
40
0
40
0
40
0
40
1
40
1
40
1
10
5.957460292843396
20
-8.4377801226193263
30
0
10
5.957460292843396
20
-8.3852650467179632
30
0
10
5.9914140177270694
20
-8.3531221297156826
30
0
0
SPLINE
5
491
100
AcDbEntity
8
0
100
AcDbSpline
70
0
71
2
72
6
73
3
74
0
42
0.000000001
43
0.0000000001
44
0.0000000001
40
0
40
0
40
0
40
1
40
1
40
1
10
5.3544425139962355
20
-7.6129311553449828
30
0
10
5.3064547112354283
20
-7.6129311553449828
30
0
10
5.2589195470857018
20
-7.6405469259252445
30
0
0
SPLINE
5
492
100
AcDbEntity
8
0
100
AcDbSpline
70
0
71
2
72
6
73
3
74
0
42
0.000000001
43
0.0000000001
44
0.0000000001
40
0
40
0
40
0
40
1
40
1
40
1
10
6.2141504833764127
20
-7.7360698928357792
30
0
10
6.1955890056401861
20
-7.7759089334117819
30
0
10
6.1801967584927393
20
-7.8112207642065004
30
0
0
SPLINE
5
493
100
AcDbEntity
8
0
100
AcDbSpline
70
0
71
2
72
6
73
3
74
0
42
0.000000001
43
0.0000000001
44
0.0000000001
40
0
40
0
40
0
40
1
40
1
40
1
10
6.426474233474333
20
-7.4418043616563052
30
0
10
6.5143013302482178
20
-7.4418043616563052
30
0
10
6.5867359264375827
20
-7.4657983897552453
30
0
0
SPLINE
5
494
100
AcDbEntity
8
0
100
AcDbSpline
70
0
71
2
72
6
73
3
74
0
42
0.000000001
43
0.0000000001
44
0.0000000001
40
0
40
0
40
0
40
1
40
1
40
1
10
6.0932751923780879
20
-7.8519652720824693
30
0
10
6.0570577675648716
20
-7.8519652720824693
30
0
10
6.0267259118810559
20
-7.8225386936208148
30
0
0
SPLINE
5
495
100
AcDbEntity
8
0
100
AcDbSpline
70
0
71
2
72
6
73
3
74
0
42
0.000000001
43
0.0000000001
44
0.0000000001
40
0
40
0
40
0
40
1
40
1
40
1
10
4.8854285733653002
20
-7.8429109792384315
30
0
10
4.9207404675192867
20
-7.7080016103629747
30
0
10
4.9868371094052399
20
-7.6192692363669305
30
0
0
SPLINE
5
496
100
AcDbEntity
8
0
100
AcDbSpline
70
0
71
2
72
6
73
3
74
0
42
0.000000001
43
0.0000000001
44
0.0000000001
40
0
40
0
40
0
40
1
40
1
40
1
10
5.9914140177270694
20
-8.3531221297156826
30
0
10
6.0253677426107419
20
-8.3209793394319416
30
0
10
6.0760718839121752
20
-8.3209793394319416
30
0
0
SPLINE
5
497
100
AcDbEntity
8
0
100
AcDbSpline
70
0
71
2
72
6
73
3
74
0
42
0.000000001
43
0.0000000001
44
0.0000000001
40
0
40
0
40
0
40
1
40
1
40
1
10
5.5735573638827924
20
-7.799902961510722
30
0
10
5.5409618082694312
20
-7.77590899677105
30
0
10
5.5255693076849131
20
-7.7333536176544211
30
0
0
SPLINE
5
498
100
AcDbEntity
8
0
100
AcDbSpline
70
0
71
2
72
6
73
3
74
0
42
0.000000001
43
0.0000000001
44
0.0000000001
40
0
40
0
40
0
40
1
40
1
40
1
10
6.0760718839121752
20
-8.3209793394319416
30
0
10
6.1014239545628923
20
-8.3209793394319416
30
0
10
6.1249652173322158
20
-8.3359189479683113
30
0
0
SPLINE
5
499
100
AcDbEntity
8
0
100
AcDbSpline
70
0
71
2
72
6
73
3
74
0
42
0.000000001
43
0.0000000001
44
0.0000000001
40
0
40
0
40
0
40
1
40
1
40
1
10
6.2535366319042636
20
-7.6708787816090602
30
0
10
6.2327117076755654
20
-7.6962308522597755
30
0
10
6.2141504833764127
20
-7.7360698928357792
30
0
0
SPLINE
5
500
100
AcDbEntity
8
0
100
AcDbSpline
70
0
71
2
72
6
73
3
74
0
42
0.000000001
43
0.0000000001
44
0.0000000001
40
0
40
0
40
0
40
1
40
1
40
1
10
5.9859813406458198
20
-8.5409994665406561
30
0
10
5.957460292843396
20
-8.4785245671360272
30
0
10
5.957460292843396
20
-8.4377801226193263
30
0
0
SPLINE
5
501
100
AcDbEntity
8
0
100
AcDbSpline
70
0
71
2
72
6
73
3
74
0
42
0.000000001
43
0.0000000001
44
0.0000000001
40
0
40
0
40
0
40
1
40
1
40
1
10
6.1557499650641843
20
-8.3716834807333704
30
0
10
6.2028324906028303
20
-8.4975386834833291
30
0
10
6.2567056090559685
20
-8.5586554136176503
30
0
0
SPLINE
5
502
100
AcDbEntity
8
0
100
AcDbSpline
70
0
71
2
72
6
73
3
74
0
42
0.000000001
43
0.0000000001
44
0.0000000001
40
0
40
0
40
0
40
1
40
1
40
1
10
6.2567056090559685
20
-8.5586554136176503
30
0
10
6.310578980946179
20
-8.6197720170334335
30
0
10
6.4083656477862592
20
-8.6197720170334335
30
0
0
SPLINE
5
503
100
AcDbEntity
8
0
100
AcDbSpline
70
0
71
2
72
6
73
3
74
0
42
0.000000001
43
0.0000000001
44
0.0000000001
40
0
40
0
40
0
40
1
40
1
40
1
10
5.2589195470857018
20
-7.6405469259252445
30
0
10
5.2113841294989012
20
-7.6681625697869693
30
0
10
5.1787885738855417
20
-7.7152450319663508
30
0
0
SPLINE
5
504
100
AcDbEntity
8
0
100
AcDbSpline
70
0
71
2
72
6
73
3
74
0
42
0.000000001
43
0.0000000001
44
0.0000000001
40
0
40
0
40
0
40
1
40
1
40
1
10
6.1249652173322158
20
-8.3359189479683113
30
0
10
6.1485064801015374
20
-8.3508585565046758
30
0
10
6.1557499650641843
20
-8.3716834807333704
30
0
0
SPLINE
5
505
100
AcDbEntity
8
0
100
AcDbSpline
70
0
71
2
72
6
73
3
74
0
42
0.000000001
43
0.0000000001
44
0.0000000001
40
0
40
0
40
0
40
1
40
1
40
1
10
6.5165647767406893
20
-8.5921563731717061
30
0
10
6.5686273407495088
20
-8.5645406025914443
30
0
10
6.60258081219611
20
-8.5102147188086921
30
0
0
SPLINE
5
506
100
AcDbEntity
8
0
100
AcDbSpline
70
0
71
2
72
6
73
3
74
0
42
0.000000001
43
0.0000000001
44
0.0000000001
40
0
40
0
40
0
40
1
40
1
40
1
10
5.4965956212714095
20
-8.5450738476330592
30
0
10
5.5563540554168798
20
-8.4703756782326849
30
0
10
5.5563540554168798
20
-8.349047748623283
30
0
0
SPLINE
5
507
100
AcDbEntity
8
0
100
AcDbSpline
70
0
71
2
72
6
73
3
74
0
42
0.000000001
43
0.0000000001
44
0.0000000001
40
0
40
0
40
0
40
1
40
1
40
1
10
5.3616859989588805
20
-7.4399935537749142
30
0
10
5.4775815049241059
20
-7.4399935537749142
30
0
10
5.5658609868719937
20
-7.4852652714321684
30
0
0
SPLINE
5
508
100
AcDbEntity
8
0
100
AcDbSpline
70
0
71
2
72
6
73
3
74
0
42
0.000000001
43
0.0000000001
44
0.0000000001
40
0
40
0
40
0
40
1
40
1
40
1
10
6.530599108054898
20
-7.6649934659167283
30
0
10
6.4826110518570141
20
-7.6147419632263755
30
0
10
6.4011221628236141
20
-7.6147419632263755
30
0
0
SPLINE
5
509
100
AcDbEntity
8
0
100
AcDbSpline
70
0
71
2
72
6
73
3
74
0
42
0.000000001
43
0.0000000001
44
0.0000000001
40
0
40
0
40
0
40
1
40
1
40
1
10
6.8515751325924734
20
-8.5328504509187795
30
0
10
6.818526431493888
20
-8.6098123202486967
30
0
10
6.7542408509264007
20
-8.6700235197237827
30
0
0
SPLINE
5
510
100
AcDbEntity
8
0
100
AcDbSpline
70
0
71
2
72
6
73
3
74
0
42
0.000000001
43
0.0000000001
44
0.0000000001
40
0
40
0
40
0
40
1
40
1
40
1
10
5.122651755502857
20
-8.3345607786979947
30
0
10
5.122651755502857
20
-8.45679423896663
30
0
10
5.1860320588481841
20
-8.5382831280000335
30
0
0
SPLINE
5
511
100
AcDbEntity
8
0
100
AcDbSpline
70
0
71
2
72
6
73
3
74
0
42
0.000000001
43
0.0000000001
44
0.0000000001
40
0
40
0
40
0
40
1
40
1
40
1
10
6.1476012028793789
20
-7.8411000446385044
30
0
10
6.1240599401100537
20
-7.8519652720824693
30
0
10
6.0932751923780879
20
-7.8519652720824693
30
0
0
SPLINE
5
512
100
AcDbEntity
8
0
100
AcDbSpline
70
0
71
2
72
6
73
3
74
0
42
0.000000001
43
0.0000000001
44
0.0000000001
40
0
40
0
40
0
40
1
40
1
40
1
10
6.7931746142802432
20
-7.6400940338770926
30
0
10
6.8203374928123521
20
-7.6998525947410972
30
0
10
6.8203374928123521
20
-7.7686654484491404
30
0
0
SPLINE
5
513
100
AcDbEntity
8
0
100
AcDbSpline
70
0
71
2
72
6
73
3
74
0
42
0.000000001
43
0.0000000001
44
0.0000000001
40
0
40
0
40
0
40
1
40
1
40
1
10
5.996393802760168
20
-7.7442187817391179
30
0
10
5.996393802760168
20
-7.697136382919008
30
0
10
6.0249151039996631
20
-7.6450739456287256
30
0
0
SPLINE
5
514
100
AcDbEntity
8
0
100
AcDbSpline
70
0
71
2
72
6
73
3
74
0
42
0.000000001
43
0.0000000001
44
0.0000000001
40
0
40
0
40
0
40
1
40
1
40
1
10
5.715710217720896
20
-7.7935649438480441
30
0
10
5.687641808529551
20
-7.8238969262503923
30
0
10
5.6441811521907628
20
-7.8238969262503923
30
0
0
SPLINE
5
515
100
AcDbEntity
8
0
100
AcDbSpline
70
0
71
2
72
6
73
3
74
0
42
0.000000001
43
0.0000000001
44
0.0000000001
40
0
40
0
40
0
40
1
40
1
40
1
10
6.8846233268169135
20
-8.3734944153332975
30
0
10
6.8846233268169135
20
-8.4558887083073984
30
0
10
6.8515751325924734
20
-8.5328504509187795
30
0
0
SPLINE
5
516
100
AcDbEntity
8
0
100
AcDbSpline
70
0
71
2
72
6
73
3
74
0
42
0.000000001
43
0.0000000001
44
0.0000000001
40
0
40
0
40
0
40
1
40
1
40
1
10
6.8601762799512844
20
-8.2453757660908717
30
0
10
6.8846233268169135
20
-8.3046815616252587
30
0
10
6.8846233268169135
20
-8.3734944153332975
30
0
0
SPLINE
5
517
100
AcDbEntity
8
0
100
AcDbSpline
70
0
71
2
72
6
73
3
74
0
42
0.000000001
43
0.0000000001
44
0.0000000001
40
0
40
0
40
0
40
1
40
1
40
1
10
5.1787885738855417
20
-7.7152450319663508
30
0
10
5.1126921854366625
20
-7.8112208275657702
30
0
10
5.1009215540519977
20
-8.0574984926251645
30
0
0
SPLINE
5
518
100
AcDbEntity
8
0
100
AcDbSpline
70
0
71
2
72
6
73
3
74
0
42
0.000000001
43
0.0000000001
44
0.0000000001
40
0
40
0
40
0
40
1
40
1
40
1
10
6.40655483990487
20
-8.7981422956847535
30
0
10
6.2979028189022843
20
-8.7981422956847535
30
0
10
6.2118867834468672
20
-8.7592086590494453
30
0
0
SPLINE
5
519
100
AcDbEntity
8
0
100
AcDbSpline
70
0
71
2
72
6
73
3
74
0
42
0.000000001
43
0.0000000001
44
0.0000000001
40
0
40
0
40
0
40
1
40
1
40
1
10
6.5785869108157051
20
-7.7849632262558197
30
0
10
6.5785869108157051
20
-7.7152449052478138
30
0
10
6.530599108054898
20
-7.6649934659167283
30
0
0
SPLINE
5
520
100
AcDbEntity
8
0
100
AcDbSpline
70
0
71
2
72
6
73
3
74
0
42
0.000000001
43
0.0000000001
44
0.0000000001
40
0
40
0
40
0
40
1
40
1
40
1
10
6.4083656477862592
20
-8.6197720170334335
30
0
10
6.4645024661689439
20
-8.6197720170334335
30
0
10
6.5165647767406893
20
-8.5921563731717061
30
0
0
SPLINE
5
521
100
AcDbEntity
8
0
100
AcDbSpline
70
0
71
2
72
6
73
3
74
0
42
0.000000001
43
0.0000000001
44
0.0000000001
40
0
40
0
40
0
40
1
40
1
40
1
10
6.60258081219611
20
-8.5102147188086921
30
0
10
6.6365347905168504
20
-8.4558887083073984
30
0
10
6.6365347905168504
20
-8.3843596427772678
30
0
0
SPLINE
5
522
100
AcDbEntity
8
0
100
AcDbSpline
70
0
71
2
72
6
73
3
74
0
42
0.000000001
43
0.0000000001
44
0.0000000001
40
0
40
0
40
0
40
1
40
1
40
1
10
6.5183758380591561
20
-7.9253052722125288
30
0
10
6.5785869108157051
20
-7.8764119387924891
30
0
10
6.5785869108157051
20
-7.7849632262558197
30
0
0
SPLINE
5
523
100
AcDbEntity
8
0
100
AcDbSpline
70
0
71
2
72
6
73
3
74
0
42
0.000000001
43
0.0000000001
44
0.0000000001
40
0
40
0
40
0
40
1
40
1
40
1
10
6.0267259118810559
20
-7.8225386936208148
30
0
10
5.996393802760168
20
-7.7931121151591585
30
0
10
5.996393802760168
20
-7.7442187817391179
30
0
0
SPLINE
5
524
100
AcDbEntity
8
0
100
AcDbSpline
70
0
71
2
72
6
73
3
74
0
42
0.000000001
43
0.0000000001
44
0.0000000001
40
0
40
0
40
0
40
1
40
1
40
1
10
6.0249151039996631
20
-7.6450739456287256
30
0
10
6.0534361518020843
20
-7.5930116350569792
30
0
10
6.1082148009144541
20
-7.545929109518335
30
0
0
SPLINE
5
525
100
AcDbEntity
8
0
100
AcDbSpline
70
0
71
2
72
6
73
3
74
0
42
0.000000001
43
0.0000000001
44
0.0000000001
40
0
40
0
40
0
40
1
40
1
40
1
10
6.7125910024690008
20
-7.5350638820743683
30
0
10
6.7660114823110602
20
-7.5803355997316215
30
0
10
6.7931746142802432
20
-7.6400940338770926
30
0
0
SPLINE
5
526
100
AcDbEntity
8
0
100
AcDbSpline
70
0
71
2
72
6
73
3
74
0
42
0.000000001
43
0.0000000001
44
0.0000000001
40
0
40
0
40
0
40
1
40
1
40
1
10
6.0701865682198441
20
-8.6618746308204404
30
0
10
6.014502641885314
20
-8.6034742392267525
30
0
10
5.9859813406458198
20
-8.5409994665406561
30
0
0
SPLINE
5
527
100
AcDbEntity
8
0
100
AcDbSpline
70
0
71
2
72
6
73
3
74
0
42
0.000000001
43
0.0000000001
44
0.0000000001
40
0
40
0
40
0
40
1
40
1
40
1
10
6.6365347905168504
20
-8.3843596427772678
30
0
10
6.6365347905168504
20
-8.2784239603153118
30
0
10
6.5785869108157051
20
-8.2182126341216897
30
0
0
SPLINE
5
528
100
AcDbEntity
8
0
100
AcDbSpline
70
0
71
2
72
6
73
3
74
0
42
0.000000001
43
0.0000000001
44
0.0000000001
40
0
40
0
40
0
40
1
40
1
40
1
10
5.4594726657989598
20
-7.6459794762879598
30
0
10
5.4142012015787762
20
-7.6129311553449828
30
0
10
5.3544425139962355
20
-7.6129311553449828
30
0
0
SPLINE
5
529
100
AcDbEntity
8
0
100
AcDbSpline
70
0
71
2
72
6
73
3
74
0
42
0.000000001
43
0.0000000001
44
0.0000000001
40
0
40
0
40
0
40
1
40
1
40
1
10
6.7542408509264007
20
-8.6700235197237827
30
0
10
6.6899552703589125
20
-8.7302348459174048
30
0
10
6.6016755349739489
20
-8.76418857080108
30
0
0
SPLINE
5
530
100
AcDbEntity
8
0
100
AcDbSpline
70
0
71
2
72
6
73
3
74
0
42
0.000000001
43
0.0000000001
44
0.0000000001
40
0
40
0
40
0
40
1
40
1
40
1
10
6.5785869108157051
20
-8.2182126341216897
30
0
10
6.5206392845516277
20
-8.1580014346466072
30
0
10
6.4174199406302979
20
-8.1580014346466072
30
0
0
SPLINE
5
531
100
AcDbEntity
8
0
100
AcDbSpline
70
0
71
2
72
6
73
3
74
0
42
0.000000001
43
0.0000000001
44
0.0000000001
40
0
40
0
40
0
40
1
40
1
40
1
10
5.6989595478660622
20
-7.597538908197536
30
0
10
5.7437786269122348
20
-7.6645408273056495
30
0
10
5.7437786269122348
20
-7.7261101326917769
30
0
0
SPLINE
5
532
100
AcDbEntity
8
0
100
AcDbSpline
70
0
71
2
72
6
73
3
74
0
42
0.000000001
43
0.0000000001
44
0.0000000001
40
0
40
0
40
0
40
1
40
1
40
1
10
6.1082148009144541
20
-7.545929109518335
30
0
10
6.1629934500268266
20
-7.498846583979689
30
0
10
6.2444823390602266
20
-7.4703255361772634
30
0
0
SPLINE
5
533
100
AcDbEntity
8
0
100
AcDbSpline
70
0
71
2
72
6
73
3
74
0
42
0.000000001
43
0.0000000001
44
0.0000000001
40
0
40
0
40
0
40
1
40
1
40
1
10
6.2118867834468672
20
-8.7592086590494453
30
0
10
6.1258707479914492
20
-8.7202750224141354
30
0
10
6.0701865682198441
20
-8.6618746308204404
30
0
0
SPLINE
5
534
100
AcDbEntity
8
0
100
AcDbSpline
70
0
71
2
72
6
73
3
74
0
42
0.000000001
43
0.0000000001
44
0.0000000001
40
0
40
0
40
0
40
1
40
1
40
1
10
5.6441811521907628
20
-7.8238969262503923
30
0
10
5.6061529194961519
20
-7.8238969262503923
30
0
10
5.5735573638827924
20
-7.799902961510722
30
0
0
SPLINE
5
535
100
AcDbEntity
8
0
100
AcDbSpline
70
0
71
2
72
6
73
3
74
0
42
0.000000001
43
0.0000000001
44
0.0000000001
40
0
40
0
40
0
40
1
40
1
40
1
10
6.3101263423351002
20
-7.6301343370923584
30
0
10
6.2743615561329618
20
-7.6455267109583396
30
0
10
6.2535366319042636
20
-7.6708787816090602
30
0
0
SPLINE
5
536
100
AcDbEntity
8
0
100
AcDbSpline
70
0
71
2
72
6
73
3
74
0
42
0.000000001
43
0.0000000001
44
0.0000000001
40
0
40
0
40
0
40
1
40
1
40
1
10
6.1801967584927393
20
-7.8112207642065004
30
0
10
6.1711424656487033
20
-7.8302348805538067
30
0
10
6.1476012028793789
20
-7.8411000446385044
30
0
0
SPLINE
5
537
100
AcDbEntity
8
0
100
AcDbSpline
70
0
71
2
72
6
73
3
74
0
42
0.000000001
43
0.0000000001
44
0.0000000001
40
0
40
0
40
0
40
1
40
1
40
1
10
5.2362835615385368
20
-8.11544618224851
30
0
10
5.1851267816260247
20
-8.1453253993212424
30
0
10
5.1538893952829774
20
-8.2019149830335465
30
0
0
SPLINE
5
538
100
AcDbEntity
8
0
100
AcDbSpline
70
0
71
2
72
6
73
3
74
0
42
0.000000001
43
0.0000000001
44
0.0000000001
40
0
40
0
40
0
40
1
40
1
40
1
10
6.4011221628236141
20
-7.6147419632263755
30
0
10
6.3458908751001646
20
-7.6147419632263755
30
0
10
6.3101263423351002
20
-7.6301343370923584
30
0
0
SPLINE
5
539
100
AcDbEntity
8
0
100
AcDbSpline
70
0
71
2
72
6
73
3
74
0
42
0.000000001
43
0.0000000001
44
0.0000000001
40
0
40
0
40
0
40
1
40
1
40
1
10
6.5867359264375827
20
-7.4657983897552453
30
0
10
6.6591705226269449
20
-7.4897922911356503
30
0
10
6.7125910024690008
20
-7.5350638820743683
30
0
0
SPLINE
5
540
100
AcDbEntity
8
0
100
AcDbSpline
70
0
71
2
72
6
73
3
74
0
42
0.000000001
43
0.0000000001
44
0.0000000001
40
0
40
0
40
0
40
1
40
1
40
1
10
5.5255693076849131
20
-7.7333536176544211
30
0
10
5.5047443834562149
20
-7.679027797230936
30
0
10
5.4594726657989598
20
-7.6459794762879598
30
0
0
SPLINE
5
541
100
AcDbEntity
8
0
100
AcDbSpline
70
0
71
2
72
6
73
3
74
0
42
0.000000001
43
0.0000000001
44
0.0000000001
40
0
40
0
40
0
40
1
40
1
40
1
10
5.7437786269122348
20
-7.7261101326917769
30
0
10
5.7437786269122348
20
-7.7632328980864234
30
0
10
5.715710217720896
20
-7.7935649438480441
30
0
0
SPLINE
5
542
100
AcDbEntity
8
0
100
AcDbSpline
70
0
71
2
72
6
73
3
74
0
42
0.000000001
43
0.0000000001
44
0.0000000001
40
0
40
0
40
0
40
1
40
1
40
1
10
5.3435774132708058
20
-8.085566965175774
30
0
10
5.2874405948881211
20
-8.085566965175774
30
0
10
5.2362835615385368
20
-8.11544618224851
30
0
0
SPLINE
5
543
100
AcDbEntity
8
0
100
AcDbSpline
70
0
71
2
72
6
73
3
74
0
42
0.000000001
43
0.0000000001
44
0.0000000001
40
0
40
0
40
0
40
1
40
1
40
1
10
6.8203374928123521
20
-7.7686654484491404
30
0
10
6.8203374928123521
20
-7.8592086936858454
30
0
10
6.78095109084743
20
-7.9239471029422157
30
0
0
SPLINE
5
544
100
AcDbEntity
8
0
100
AcDbSpline
70
0
71
2
72
6
73
3
74
0
42
0.000000001
43
0.0000000001
44
0.0000000001
40
0
40
0
40
0
40
1
40
1
40
1
10
5.5563540554168798
20
-8.349047748623283
30
0
10
5.5563540554168798
20
-8.2666533289306479
30
0
10
5.5282856462255374
20
-8.2073475333962591
30
0
0
SPLINE
5
545
100
AcDbEntity
8
0
100
AcDbSpline
70
0
71
2
72
6
73
3
74
0
42
0.000000001
43
0.0000000001
44
0.0000000001
40
0
40
0
40
0
40
1
40
1
40
1
10
6.2444823390602266
20
-7.4703255361772634
30
0
10
6.3259712280936276
20
-7.4418043616563052
30
0
10
6.426474233474333
20
-7.4418043616563052
30
0
0
SPLINE
5
546
100
AcDbEntity
8
0
100
AcDbSpline
70
0
71
2
72
6
73
3
74
0
42
0.000000001
43
0.0000000001
44
0.0000000001
40
0
40
0
40
0
40
1
40
1
40
1
10
5.1538893952829774
20
-8.2019149830335465
30
0
10
5.122651755502857
20
-8.258504566745847
30
0
10
5.122651755502857
20
-8.3345607786979947
30
0
0
SPLINE
5
547
100
AcDbEntity
8
0
100
AcDbSpline
70
0
71
2
72
6
73
3
74
0
42
0.000000001
43
0.0000000001
44
0.0000000001
40
0
40
0
40
0
40
1
40
1
40
1
10
6.78095109084743
20
-7.9239471029422157
30
0
10
6.7415649423195765
20
-7.9886855755578541
30
0
10
6.66822481547098
20
-8.0502549443032549
30
0
0
SPLINE
5
548
100
AcDbEntity
8
0
100
AcDbSpline
70
0
71
2
72
6
73
3
74
0
42
0.000000001
43
0.0000000001
44
0.0000000001
40
0
40
0
40
0
40
1
40
1
40
1
10
5.5282856462255374
20
-8.2073475333962591
30
0
10
5.500217237034196
20
-8.1480417378618721
30
0
10
5.4513239036141554
20
-8.1168043515188213
30
0
0
SPLINE
5
549
100
AcDbEntity
8
0
100
AcDbSpline
70
0
71
2
72
6
73
3
74
0
42
0.000000001
43
0.0000000001
44
0.0000000001
40
0
40
0
40
0
40
1
40
1
40
1
10
5.4513239036141554
20
-8.1168043515188213
30
0
10
5.4024305701941175
20
-8.085566965175774
30
0
10
5.3435774132708058
20
-8.085566965175774
30
0
0
SPLINE
5
550
100
AcDbEntity
8
0
100
AcDbSpline
70
0
71
2
72
6
73
3
74
0
42
0.000000001
43
0.0000000001
44
0.0000000001
40
0
40
0
40
0
40
1
40
1
40
1
10
6.3748645615136663
20
-7.9741986056325684
30
0
10
6.4581645118655304
20
-7.9741986056325684
30
0
10
6.5183758380591561
20
-7.9253052722125288
30
0
0
LINE
5
551
100
AcDbEntity
8
0
100
AcDbLine
10
-0.60090747565653624
20
-3.1996118131634605
30
0
11
-0.60090747566097102
21
-3.4218749786003975
31
0
0
SPLINE
5
552
100
AcDbEntity
8
0
100
AcDbSpline
70
4
71
5
72
20
73
14
74
0
42
0.000000001
43
0.0000000001
44
0.0000000001
40
0.10976668456569336
40
0.10976668456569336
40
0.10976668456569336
40
0.10976668456569336
40
0.10976668456569336
40
0.10976668456569336
40
0.20000000000000001
40
0.30000000000000004
40
0.40000000000000002
40
0.5
40
0.59999999999999998
40
0.69999999999999996
40
0.79999999999999982
40
0.8999999999999998
40
1
40
1
40
1
40
1
40
1
40
1
41
1
41
1
41
1
41
1
41
1
41
1
41
1
41
1
41
1
41
1
41
1
41
1
41
1
41
1
10
3.271188485652146
20
-6.6918907032346961
30
0
10
3.2660708090107451
20
-6.6988817687826012
30
0
10
3.2560422698357256
20
-6.7138475053565507
30
0
10
3.2432231479720226
20
-6.7374203266364736
30
0
10
3.2312761779252135
20
-6.7706927126601508
30
0
10
3.2258188324014028
20
-6.8153401812066718
30
0
10
3.2307771427626015
20
-6.8640162359174877
30
0
10
3.2460888141720918
20
-6.9157803769259933
30
0
10
3.2709533321163589
20
-6.9703938355936863
30
0
10
3.304455752009468
20
-7.0275837123430289
30
0
10
3.3375162932547178
20
-7.0752023614810557
30
0
10
3.3655935945309934
20
-7.1118952358632406
30
0
10
3.3857464231215357
20
-7.1367850570497788
30
0
10
3.3961815169651883
20
-7.1493369506208806
30
0
0
LINE
5
553
100
AcDbEntity
8
0
100
AcDbLine
10
3.271188485652146
20
-6.6918907032346961
30
0
11
3.271188485652146
21
-6.6918907032346961
31
0
0
SPLINE
5
554
100
AcDbEntity
8
0
100
AcDbSpline
70
0
71
3
72
8
73
4
74
0
42
0.000000001
43
0.0000000001
44
0.0000000001
40
29.589402762519121
40
29.589402762519121
40
29.589402762519121
40
29.589402762519121
40
29.721518528059558
40
29.721518528059558
40
29.721518528059558
40
29.721518528059558
10
3.3961815169651883
20
-7.1493369506208806
30
0
10
3.4226463403806626
20
-7.1842630746133214
30
0
10
3.452588120600228
20
-7.2191170651485734
30
0
10
3.4862358969481653
20
-7.2521117760563865
30
0
0
SPLINE
5
555
100
AcDbEntity
8
0
100
AcDbSpline
70
0
71
3
72
14
73
10
74
0
42
0.000000001
43
0.0000000001
44
0.0000000001
40
9
40
9
40
9
40
9
40
10
40
10
40
10
40
11
40
11
40
11
40
12
40
12
40
12
40
12
10
1.360376002863114
20
2.1415469900329107
30
0
10
1.5524197650701461
20
2.2410048452575202
30
0
10
1.7512737461193604
20
2.28558364176572
30
0
10
2.9240902972967051
20
2.3198715749938481
30
0
10
3.9361083314274263
20
2.3494584756434866
30
0
10
5.4617799919999577
20
2.3336071565391787
30
0
10
6.3362474323064744
20
2.2615836111266612
30
0
10
7.2106166618844219
20
2.1895681546200798
30
0
10
7.1832521320135054
20
1.8980624929625978
30
0
10
7.1935353351385034
20
1.7711910024840825
30
0
0
SPLINE
5
556
100
AcDbEntity
8
0
100
AcDbSpline
70
0
71
2
72
6
73
3
74
0
42
0.000000001
43
0.0000000001
44
0.0000000001
40
0
40
0
40
0
40
1
40
1
40
1
10
6.2082651676840808
20
-8.0710799318912194
30
0
10
6.2082651676840808
20
-8.0276191488338959
30
0
10
6.2408607232974411
20
-8.0009089089128675
30
0
0
SPLINE
5
557
100
AcDbEntity
8
0
100
AcDbSpline
70
0
71
2
72
6
73
3
74
0
42
0.000000001
43
0.0000000001
44
0.0000000001
40
0
40
0
40
0
40
1
40
1
40
1
10
6.2354280462161888
20
-8.1403454875696095
30
0
10
6.2082651676840808
20
-8.11544618224851
30
0
10
6.2082651676840808
20
-8.0710799318912194
30
0
0
LINE
5
558
100
AcDbEntity
8
0
100
AcDbLine
10
5.3966458401257498
20
-8.6132551045776911
30
0
11
5.3966458401296435
21
-8.7953297874525962
31
0
0
SPLINE
5
559
100
AcDbEntity
8
0
100
AcDbSpline
70
0
71
3
72
8
73
4
74
0
42
0.000000001
43
0.0000000001
44
0.0000000001
40
12.301183564544608
40
12.301183564544608
40
12.301183564544608
40
12.301183564544608
40
12.545302681930337
40
12.545302681930337
40
12.545302681930337
40
12.545302681930337
10
-0.60090747565653624
20
-3.1996118131634605
30
0
10
-0.25353232631170614
20
-3.2515465817781717
30
0
10
0.08448523779868268
20
-3.300600386605558
30
0
10
0.37729189643671573
20
-3.3424483125126634
30
0
0
SPLINE
5
560
100
AcDbEntity
8
0
100
AcDbSpline
70
0
71
2
72
6
73
3
74
0
42
0.000000001
43
0.0000000001
44
0.0000000001
40
0
40
0
40
0
40
1
40
1
40
1
10
6.3123897888275717
20
-8.1652449196092469
30
0
10
6.2625909247482987
20
-8.1652449196092469
30
0
10
6.2354280462161888
20
-8.1403454875696095
30
0
0
LINE
5
561
100
AcDbEntity
8
0
100
AcDbLine
10
7.2056462281233138
20
-9.0071118320661423
30
0
11
2.4806460773282564
21
-9.0071118320661423
31
0
0
LINE
5
562
100
AcDbEntity
8
0
100
AcDbLine
10
4.1276458554734994
20
-7.6230266230616035
30
0
11
4.1276458555432081
21
-7.458240223624145
31
0
0
SPLINE
5
563
100
AcDbEntity
8
0
100
AcDbSpline
70
4
71
5
72
21
73
15
74
0
42
0.000000001
43
0.0000000001
44
0.0000000001
40
0
40
0
40
0
40
0
40
0
40
0
40
0.10000000000000001
40
0.20000000000000001
40
0.30000000000000004
40
0.40000000000000002
40
0.5
40
0.59999999999999998
40
0.69999999999999996
40
0.79999999999999982
40
0.8999999999999998
40
1
40
1
40
1
40
1
40
1
40
1
41
1
41
1
41
1
41
1
41
1
41
1
41
1
41
1
41
1
41
1
41
1
41
1
41
1
41
1
41
1
10
5.3222014289565687
20
-7.4412556257476918
30
0
10
5.3143385475643363
20
-7.4423829292944852
30
0
10
5.2985861503536471
20
-7.4449998107547115
30
0
10
5.274877484390565
20
-7.4500121018380616
30
0
10
5.2431045860880729
20
-7.4589036136053872
30
0
10
5.2032163156283548
20
-7.4738132737115279
30
0
10
5.1635083628312444
20
-7.4924279333270496
30
0
10
5.1246797503887054
20
-7.5142456663944817
30
0
10
5.0880549781314395
20
-7.5378969060717953
30
0
10
5.0555063778478333
20
-7.560991209481057
30
0
10
5.02756153024007
20
-7.5825804238580581
30
0
10
5.008993868738175
20
-7.5982646528623636
30
0
10
4.997126428704008
20
-7.6091172334893287
30
0
10
4.9901166473549026
20
-7.6159518816166267
30
0
10
4.9868371094052408
20
-7.6192692363669305
30
0
0
SPLINE
5
564
100
AcDbEntity
8
0
100
AcDbSpline
70
0
71
3
72
8
73
4
74
0
42
0.000000001
43
0.0000000001
44
0.0000000001
40
3
40
3
40
3
40
3
40
4
40
4
40
4
40
4
10
6.8026253009588169
20
-0.34125330293583855
30
0
10
7.0494963336736642
20
-0.35838373506474447
30
0
10
7.0872426105291302
20
-0.24865503633427563
30
0
10
7.0940404010564757
20
-0.097756446246385006
30
0
0
SPLINE
5
565
100
AcDbEntity
8
0
100
AcDbSpline
70
0
71
2
72
6
73
3
74
0
42
0.000000001
43
0.0000000001
44
0.0000000001
40
0.29536971507608373
40
0.29536971507608373
40
0.29536971507608373
40
1
40
1
40
1
10
5.3966458401257498
20
-8.6132551045776911
30
0
10
5.454487840213444
20
-8.597708440020936
30
0
10
5.4965956212714095
20
-8.5450738476330592
30
0
0
LINE
5
566
100
AcDbEntity
8
0
100
AcDbLine
10
7.2056462281233138
20
-7.2521117760565517
30
0
11
7.2056462281233138
21
-9.0071118320661423
31
0
0
SPLINE
5
567
100
AcDbEntity
8
0
100
AcDbSpline
70
0
71
2
72
6
73
3
74
0
42
0.000000001
43
0.0000000001
44
0.0000000001
40
0
40
0
40
0
40
1
40
1
40
1
10
6.4174199406302979
20
-8.1580014346466072
30
0
10
6.3993113549422214
20
-8.1580014346466072
30
0
10
6.3612831222476105
20
-8.1616231771279271
30
0
0
LINE
5
568
100
AcDbEntity
8
0
100
AcDbLine
10
5.2886458414467317
20
-8.7959267989621086
30
0
11
5.2886458414377842
21
-8.6118317305231855
31
0
0
SPLINE
5
569
100
AcDbEntity
8
0
100
AcDbSpline
70
0
71
2
72
6
73
3
74
0
42
0.000000001
43
0.0000000001
44
0.0000000001
40
0
40
0
40
0
40
1
40
1
40
1
10
6.2408607232974411
20
-8.0009089089128675
30
0
10
6.2734562789108006
20
-7.9741986056325684
30
0
10
6.3377418594782906
20
-7.9741986056325684
30
0
0
SPLINE
5
570
100
AcDbEntity
8
0
100
AcDbSpline
70
0
71
3
72
8
73
4
74
0
42
0.000000001
43
0.0000000001
44
0.0000000001
40
31.579649387394017
40
31.579649387394017
40
31.579649387394017
40
31.579649387394017
40
32
40
32
40
32
40
32
10
5.5741147922800511
20
-7.2521116862643735
30
0
10
5.7706688100537384
20
-7.070039007098468
30
0
10
5.9554059555169037
20
-6.8085856095622681
30
0
10
6.0995360065252235
20
-6.445335486773728
30
0
0
LINE
5
571
100
AcDbEntity
8
0
100
AcDbLine
10
6.3377418594782906
20
-7.9741986056325684
30
0
11
6.3748645615136663
21
-7.9741986056325684
31
0
0
SPLINE
5
572
100
AcDbEntity
8
0
100
AcDbSpline
70
0
71
3
72
8
73
4
74
0
42
0.000000001
43
0.0000000001
44
0.0000000001
40
4.7489440895740591
40
4.7489440895740591
40
4.7489440895740591
40
4.7489440895740591
40
4.9892853414860561
40
4.9892853414860561
40
4.9892853414860561
40
4.9892853414860561
10
-0.83281096001139576
20
-4.3252265719778906
30
0
10
-1.1521538761242547
20
-4.2644208208931609
30
0
10
-1.451429864985726
20
-4.2068146394568409
30
0
10
-1.6848734783380455
20
-4.1607233864972315
30
0
0
LINE
5
573
100
AcDbEntity
8
0
100
AcDbLine
10
-0.60090747566097102
20
-3.4218749786003975
30
0
11
0.3772918964178017
21
-3.5848797690166956
31
0
0
SPLINE
5
574
100
AcDbEntity
8
0
100
AcDbSpline
70
0
71
3
72
8
73
4
74
0
42
0.000000001
43
0.0000000001
44
0.0000000001
40
12.044786739352016
40
12.044786739352016
40
12.044786739352016
40
12.044786739352016
40
12.24709140150987
40
12.24709140150987
40
12.24709140150987
40
12.24709140150987
10
-1.6848734783339494
20
-3.0314482100736795
30
0
10
-1.4134856155085891
20
-3.0755486621540391
30
0
10
-1.1226630296959801
20
-3.1207901526264097
30
0
10
-0.83281095965866148
20
-3.1647112378830582
30
0
0
SPLINE
5
575
100
AcDbEntity
8
0
100
AcDbSpline
70
0
71
3
72
10
73
6
74
0
42
0.000000001
43
0.0000000001
44
0.0000000001
40
1
40
1
40
1
40
1
40
2
40
2
40
3
40
3
40
3
40
3
10
1.6449809528142842
20
1.7620448843200203
30
0
10
1.6495910907537397
20
1.7940562978942387
30
0
10
1.704418361261552
20
1.83521382963252
30
0
10
1.8050503803045195
20
1.844335228558301
30
0
10
2.6691484332830346
20
1.8306036916930672
30
0
10
2.7744029498845961
20
1.821482292767286
30
0
0
SPLINE
5
576
100
AcDbEntity
8
0
100
AcDbSpline
70
4
71
5
72
17
73
11
74
0
42
0.000000001
43
0.0000000001
44
0.0000000001
40
0.40985905694594027
40
0.40985905694594027
40
0.40985905694594027
40
0.40985905694594027
40
0.40985905694594027
40
0.40985905694594027
40
0.5
40
0.59999999999999998
40
0.69999999999999996
40
0.79999999999999982
40
0.8999999999999998
40
1
40
1
40
1
40
1
40
1
40
1
41
1
41
1
41
1
41
1
41
1
41
1
41
1
41
1
41
1
41
1
41
1
10
4.2491458539984528
20
-7.462667877990957
30
0
10
4.2594912152909661
20
-7.4640517242601252
30
0
10
4.2810774232244535
20
-7.4674602844840896
30
0
10
4.3132415246817644
20
-7.4742685040602295
30
0
10
4.3548495899710513
20
-7.4868281200421318
30
0
10
4.4044121688625291
20
-7.5082282086913494
30
0
10
4.4523318657873618
20
-7.5355336646772582
30
0
10
4.4887192898641048
20
-7.5614188161450961
30
0
10
4.5149821597368378
20
-7.5829640957549653
30
0
10
4.5320413784431279
20
-7.5982595775129695
30
0
10
4.5404586474473216
20
-7.6061403089934219
30
0
0
SPLINE
5
577
100
AcDbEntity
8
0
100
AcDbSpline
70
0
71
2
72
6
73
3
74
0
42
0.000000001
43
0.0000000001
44
0.0000000001
40
0.25137514769147884
40
0.25137514769147884
40
0.25137514769147884
40
1
40
1
40
1
10
4.1276458554734994
20
-7.6230266230616035
30
0
10
4.0681933944194935
20
-7.6369133411697945
30
0
10
4.0234566506185088
20
-7.692156344448839
30
0
0
LINE
5
578
100
AcDbEntity
8
0
100
AcDbLine
10
-1.684873478338057
20
-3.2412454912707478
30
0
11
-0.83281096000740829
21
-3.3832311397862598
31
0
0
SPLINE
5
579
100
AcDbEntity
8
0
100
AcDbSpline
70
0
71
2
72
6
73
3
74
0
42
0.000000001
43
0.0000000001
44
0.0000000001
40
0
40
0
40
0
40
1
40
1
40
1
10
6.3612831222476105
20
-8.1616231771279271
30
0
10
6.3232551429900736
20
-8.1652449196092469
30
0
10
6.3123897888275717
20
-8.1652449196092469
30
0
0
SPLINE
5
580
100
AcDbEntity
8
0
100
AcDbSpline
70
0
71
2
72
6
73
3
74
0
42
0.000000001
43
0.0000000001
44
0.0000000001
40
0.83301626273423734
40
0.83301626273423734
40
0.83301626273423734
40
1
40
1
40
1
10
5.3222009830628005
20
-7.4412558908158299
30
0
10
5.3415774167316723
20
-7.4399935537749142
30
0
10
5.3616859989588805
20
-7.4399935537749142
30
0
0
LINE
5
581
100
AcDbEntity
8
0
100
AcDbLine
10
4.2491458539984528
20
-7.462667877990957
30
0
11
4.2491458539969349
21
-7.6344150092926739
31
0
0
SPLINE
5
582
100
AcDbEntity
8
0
100
AcDbSpline
70
4
71
5
72
14
73
8
74
0
42
0.000000001
43
0.0000000001
44
0.0000000001
40
0
40
0
40
0
40
0
40
0
40
0
40
0.10000000000000001
40
0.20000000000000001
40
0.20746257854438679
40
0.20746257854438679
40
0.20746257854438679
40
0.20746257854438679
40
0.20746257854438679
40
0.20746257854438679
41
1
41
1
41
1
41
1
41
1
41
1
41
1
41
1
10
3.9931246682161565
20
-7.4743999172696647
30
0
10
4.0065402884136567
20
-7.4719142143996073
30
0
10
4.0331595250203351
20
-7.4673824983234631
30
0
10
4.0603321976015279
20
-7.4635938330058815
30
0
10
4.0870410427800632
20
-7.4607671321720606
30
0
10
4.1132638237921455
20
-7.4589485142203671
30
0
10
4.1267125757955601
20
-7.4582849577551915
30
0
10
4.1276458555432081
20
-7.4582402236241467
30
0
0
SPLINE
5
583
100
AcDbEntity
8
0
100
AcDbSpline
70
0
71
2
72
6
73
3
74
0
42
0.000000001
43
0.0000000001
44
0.0000000001
40
0
40
0
40
0
40
0.68784601165015746
40
0.68784601165015746
40
0.68784601165015746
10
5.1860320588481841
20
-8.5382831280000335
30
0
10
5.2296279477214433
20
-8.5943349353154588
30
0
10
5.2886458414377842
20
-8.6118317305231855
30
0
0
SPLINE
5
584
100
AcDbEntity
8
0
100
AcDbSpline
70
0
71
2
72
6
73
3
74
0
42
0.000000001
43
0.0000000001
44
0.0000000001
40
0
40
0
40
0
40
0.14054723744300454
40
0.14054723744300454
40
0.14054723744300454
10
4.2611327248042175
20
-7.6400940338770926
30
0
10
4.2552153009373814
20
-7.6370398962841541
30
0
10
4.2491458539969349
20
-7.6344150092926739
30
0
0
LINE
5
585
100
AcDbEntity
8
0
100
AcDbLine
10
2.4806460773282564
20
-9.0071118320661423
30
0
11
2.4806460773282564
21
-7.2521117760565517
31
0
0
LINE
5
586
100
AcDbEntity
8
0
100
AcDbLine
10
-0.83281095965866148
20
-3.1647112378830582
30
0
11
-0.83281096000740829
21
-3.3832311397862598
31
0
0
ENDSEC
0
SECTION
2
OBJECTS
0
DICTIONARY
5
C
100
AcDbDictionary
3
ACAD_GROUP
350
D
3
ACAD_MLINESTYLE
350
17
0
DICTIONARY
5
D
100
AcDbDictionary
0
DICTIONARY
5
1A
330
C
100
AcDbDictionary
0
DICTIONARY
5
17
100
AcDbDictionary
0
ENDSEC
0
EOF
