0
SECTION
2
HEADER
9
$INSUNITS
70
1
9
$ACADVER
1
AC1014
9
$HANDSEED
5
FFFF
0
ENDSEC
0
SECTION
2
TABLES
0
TABLE
2
VPORT
5
8
100
AcDbSymbolTable
0
ENDTAB
0
TABLE
2
LTYPE
5
5
100
AcDbSymbolTable
0
LTYPE
5
14
100
AcDbSymbolTableRecord
100
AcDbLinetypeTableRecord
2
BYBLOCK
70
0
0
LTYPE
5
15
100
AcDbSymbolTableRecord
100
AcDbLinetypeTableRecord
2
BYLAYER
70
0
0
ENDTAB
0
TABLE
2
LAYER
5
2
100
AcDbSymbolTable
70
2
0
LAYER
5
50
100
AcDbSymbolTableRecord
100
AcDbLayerTableRecord
2
0
70
0
6
CONTINUOUS
0
ENDTAB
0
TABLE
2
STYLE
5
3
100
AcDbSymbolTable
70
1
0
STYLE
5
11
100
AcDbSymbolTableRecord
100
AcDbTextStyleTableRecord
2
STANDARD
70
0
0
ENDTAB
0
TABLE
2
VIEW
5
6
100
AcDbSymbolTable
70
0
0
ENDTAB
0
TABLE
2
UCS
5
7
100
AcDbSymbolTable
70
0
0
ENDTAB
0
TABLE
2
APPID
5
9
100
AcDbSymbolTable
70
2
0
APPID
5
12
100
AcDbSymbolTableRecord
100
AcDbRegAppTableRecord
2
ACAD
70
0
0
ENDTAB
0
TABLE
2
DIMSTYLE
5
A
100
AcDbSymbolTable
70
1
0
ENDTAB
0
TABLE
2
BLOCK_RECORD
5
1
100
AcDbSymbolTable
70
1
0
BLOCK_RECORD
5
1F
100
AcDbSymbolTableRecord
100
AcDbBlockTableRecord
2
*MODEL_SPACE
0
BLOCK_RECORD
5
1B
100
AcDbSymbolTableRecord
100
AcDbBlockTableRecord
2
*PAPER_SPACE
0
ENDTAB
0
ENDSEC
0
SECTION
2
BLOCKS
0
BLOCK
5
20
100
AcDbEntity
100
AcDbBlockBegin
2
*MODEL_SPACE
0
ENDBLK
5
21
100
AcDbEntity
100
AcDbBlockEnd
0
BLOCK
5
1C
100
AcDbEntity
100
AcDbBlockBegin
2
*PAPER_SPACE
0
ENDBLK
5
1D
100
AcDbEntity
100
AcDbBlockEnd
0
ENDSEC
0
SECTION
2
ENTITIES
0
LINE
5
100
100
AcDbEntity
8
0
100
AcDbLine
10
7.7390862821313648
20
23.891179677631538
30
0
11
7.7539042421313642
21
23.879860797631537
31
0
0
LINE
5
101
100
AcDbEntity
8
0
100
AcDbLine
10
7.4820672821313652
20
24.268465797631542
30
0
11
7.5501696821313669
21
24.199554237631542
31
0
0
LINE
5
102
100
AcDbEntity
8
0
100
AcDbLine
10
7.4181196421313649
20
24.321285477631545
30
0
11
7.4369332421313663
21
24.306194157631541
31
0
0
LINE
5
103
100
AcDbEntity
8
0
100
AcDbLine
10
7.3879366421313657
20
24.343922637631543
30
0
11
7.3984976021313669
21
24.336377157631535
31
0
0
LINE
5
104
100
AcDbEntity
8
0
100
AcDbLine
10
7.361526802131368
20
24.359014197631542
30
0
11
7.3690722821313654
21
24.355241157631539
31
0
0
LINE
5
105
100
AcDbEntity
8
0
100
AcDbLine
10
7.670901562131367
20
23.981728077631544
30
0
11
7.6746742421313678
21
23.974182237631542
31
0
0
LINE
5
106
100
AcDbEntity
8
0
100
AcDbLine
10
7.6822197221313653
20
23.959090917631546
30
0
11
7.6859928821313641
21
23.952377877631541
31
0
0
LINE
5
107
100
AcDbEntity
8
0
100
AcDbLine
10
7.4369332421313663
20
24.306194157631541
30
0
11
7.4596211621313637
21
24.287329797631539
31
0
0
LINE
5
108
100
AcDbEntity
8
0
100
AcDbLine
10
7.6746742421313678
20
23.974182237631542
30
0
11
7.6784470421313671
21
23.966636757631548
31
0
0
LINE
5
109
100
AcDbEntity
8
0
100
AcDbLine
10
7.6784470421313671
20
23.966636757631548
30
0
11
7.6822197221313653
21
23.959090917631546
31
0
0
LINE
5
110
100
AcDbEntity
8
0
100
AcDbLine
10
6.9238744421313703
20
24.49106435763154
30
0
11
6.9691487621313692
21
24.487291317631545
31
0
0
LINE
5
111
100
AcDbEntity
8
0
100
AcDbLine
10
6.1693014821313676
20
23.959090917631546
30
0
11
6.1655286821313684
21
24.011911077631545
31
0
0
LINE
5
112
100
AcDbEntity
8
0
100
AcDbLine
10
6.2749416821313693
20
24.483518517631538
30
0
11
6.282487522131369
21
24.487291317631545
31
0
0
LINE
5
113
100
AcDbEntity
8
0
100
AcDbLine
10
6.8257800821313683
20
24.49483715763154
30
0
11
6.9238744421313703
21
24.49106435763154
31
0
0
LINE
5
114
100
AcDbEntity
8
0
100
AcDbLine
10
6.1957116821313702
20
23.72517335763154
30
0
11
6.191938642131368
21
23.747810517631542
31
0
0
LINE
5
115
100
AcDbEntity
8
0
100
AcDbLine
10
6.150437002131369
20
24.328831197631548
30
0
11
6.1466643221313682
21
24.353526117631539
31
0
0
LINE
5
116
100
AcDbEntity
8
0
100
AcDbLine
10
6.1579828421313687
20
24.162825477631539
30
0
11
6.1542101621313705
21
24.245828157631546
31
0
0
LINE
5
117
100
AcDbEntity
8
0
100
AcDbLine
10
6.1768473221313673
20
23.868542157631541
30
0
11
6.1730741621313694
21
23.906270997631541
31
0
0
LINE
5
118
100
AcDbEntity
8
0
100
AcDbLine
10
6.1994843621313684
20
23.706308997631549
30
0
11
6.1957116821313702
21
23.72517335763154
31
0
0
LINE
5
119
100
AcDbEntity
8
0
100
AcDbLine
10
6.1730741621313694
20
23.906270997631541
30
0
11
6.1693014821313676
21
23.959090917631546
31
0
0
LINE
5
120
100
AcDbEntity
8
0
100
AcDbLine
10
6.184393162131367
20
23.800630677631542
30
0
11
6.1806200021313682
21
23.830813677631543
31
0
0
LINE
5
121
100
AcDbEntity
8
0
100
AcDbLine
10
6.2673962021313692
20
24.479745477631543
30
0
11
6.2749416821313693
21
24.483518517631538
31
0
0
LINE
5
122
100
AcDbEntity
8
0
100
AcDbLine
10
6.282487522131369
20
24.487291317631545
30
0
11
6.29003300213137
21
24.49106435763154
31
0
0
LINE
5
123
100
AcDbEntity
8
0
100
AcDbLine
10
6.2540595221313682
20
24.472199997631542
30
0
11
6.2598503621313695
21
24.475973037631544
31
0
0
LINE
5
124
100
AcDbEntity
8
0
100
AcDbLine
10
6.2108030021313674
20
24.43447151763154
30
0
11
6.2540595221313682
21
24.472199997631542
31
0
0
LINE
5
125
100
AcDbEntity
8
0
100
AcDbLine
10
6.1542101621313705
20
24.245828157631546
30
0
11
6.150437002131369
21
24.328831197631548
31
0
0
LINE
5
126
100
AcDbEntity
8
0
100
AcDbLine
10
6.1617560021313675
20
24.087368277631537
30
0
11
6.1579828421313687
21
24.162825477631539
31
0
0
LINE
5
127
100
AcDbEntity
8
0
100
AcDbLine
10
6.1466643221313682
20
24.353526117631539
30
0
11
6.1559252021313693
21
24.387482157631542
31
0
0
LINE
5
128
100
AcDbEntity
8
0
100
AcDbLine
10
6.1881658421313679
20
23.770447677631541
30
0
11
6.184393162131367
21
23.800630677631542
31
0
0
LINE
5
129
100
AcDbEntity
8
0
100
AcDbLine
10
6.2598503621313695
20
24.475973037631544
30
0
11
6.2673962021313692
21
24.479745477631543
31
0
0
LINE
5
130
100
AcDbEntity
8
0
100
AcDbLine
10
6.9691487621313692
20
24.487291317631545
30
0
11
7.0144230821313682
21
24.483518517631538
31
0
0
LINE
5
131
100
AcDbEntity
8
0
100
AcDbLine
10
6.1559252021313693
20
24.387482157631542
30
0
11
6.169261522131368
21
24.396742677631547
31
0
0
LINE
5
132
100
AcDbEntity
8
0
100
AcDbLine
10
7.0144230821313682
20
24.483518517631538
30
0
11
7.0370602421313677
21
24.479745477631543
31
0
0
LINE
5
133
100
AcDbEntity
8
0
100
AcDbLine
10
6.1806200021313682
20
23.830813677631543
30
0
11
6.1768473221313673
21
23.868542157631541
31
0
0
LINE
5
134
100
AcDbEntity
8
0
100
AcDbLine
10
6.527723722131368
20
24.50238299763155
30
0
11
6.7276857221313691
21
24.498610197631542
31
0
0
LINE
5
135
100
AcDbEntity
8
0
100
AcDbLine
10
6.3088973621313693
20
24.49483715763154
30
0
11
6.3277617221313696
21
24.498610197631542
31
0
0
LINE
5
136
100
AcDbEntity
8
0
100
AcDbLine
10
7.3237979621313665
20
24.374105877631546
30
0
11
7.3388892821313663
21
24.370332837631544
31
0
0
LINE
5
137
100
AcDbEntity
8
0
100
AcDbLine
10
7.2030664421313677
20
24.426925677631541
30
0
11
7.2106119221313678
21
24.423152637631539
31
0
0
LINE
5
138
100
AcDbEntity
8
0
100
AcDbLine
10
6.29003300213137
20
24.49106435763154
30
0
11
6.3088973621313693
21
24.49483715763154
31
0
0
LINE
5
139
100
AcDbEntity
8
0
100
AcDbLine
10
7.2936149621313646
20
24.385424157631537
30
0
11
7.301160802131367
21
24.381651357631547
31
0
0
LINE
5
140
100
AcDbEntity
8
0
100
AcDbLine
10
7.3539809621313657
20
24.362786997631542
30
0
11
7.361526802131368
21
24.359014197631542
31
0
0
LINE
5
141
100
AcDbEntity
8
0
100
AcDbLine
10
7.1842020821313675
20
24.43447151763154
30
0
11
7.195520602131368
21
24.430698477631541
31
0
0
LINE
5
142
100
AcDbEntity
8
0
100
AcDbLine
10
7.1653376021313688
20
24.442017357631542
30
0
11
7.1728834421313685
21
24.438244197631544
31
0
0
LINE
5
143
100
AcDbEntity
8
0
100
AcDbLine
10
7.346435122131366
20
24.36656003763154
30
0
11
7.3539809621313657
21
24.362786997631542
31
0
0
LINE
5
144
100
AcDbEntity
8
0
100
AcDbLine
10
7.1049720821313684
20
24.464654157631543
30
0
11
7.1200634021313682
21
24.460881357631539
31
0
0
LINE
5
145
100
AcDbEntity
8
0
100
AcDbLine
10
7.1200634021313682
20
24.460881357631539
30
0
11
7.1313819221313688
21
24.457108677631542
31
0
0
LINE
5
146
100
AcDbEntity
8
0
100
AcDbLine
10
7.240794922131367
20
24.408061677631544
30
0
11
7.2483407621313694
21
24.404288517631542
31
0
0
LINE
5
147
100
AcDbEntity
8
0
100
AcDbLine
10
6.7276857221313691
20
24.498610197631542
30
0
11
6.8257800821313683
21
24.49483715763154
31
0
0
LINE
5
148
100
AcDbEntity
8
0
100
AcDbLine
10
6.191938642131368
20
23.747810517631542
30
0
11
6.1881658421313679
21
23.770447677631541
31
0
0
LINE
5
149
100
AcDbEntity
8
0
100
AcDbLine
10
6.1655286821313684
20
24.011911077631545
30
0
11
6.1617560021313675
21
24.087368277631537
31
0
0
LINE
5
150
100
AcDbEntity
8
0
100
AcDbLine
10
7.1313819221313688
20
24.457108677631542
30
0
11
7.1427004421313693
21
24.45333551763154
31
0
0
LINE
5
151
100
AcDbEntity
8
0
100
AcDbLine
10
6.3277617221313696
20
24.498610197631542
30
0
11
6.527723722131368
21
24.50238299763155
31
0
0
LINE
5
152
100
AcDbEntity
8
0
100
AcDbLine
10
7.0596974021313672
20
24.475973037631544
30
0
11
7.0747890821313693
21
24.472199997631542
31
0
0
LINE
5
153
100
AcDbEntity
8
0
100
AcDbLine
10
7.2181577621313675
20
24.419379837631546
30
0
11
7.2257036021313699
21
24.415607157631545
31
0
0
LINE
5
154
100
AcDbEntity
8
0
100
AcDbLine
10
7.150246282131369
20
24.449562837631539
30
0
11
7.1577921221313714
21
24.445789797631537
31
0
0
LINE
5
155
100
AcDbEntity
8
0
100
AcDbLine
10
7.1427004421313693
20
24.45333551763154
30
0
11
7.150246282131369
21
24.449562837631539
31
0
0
LINE
5
156
100
AcDbEntity
8
0
100
AcDbLine
10
7.2860694821313636
20
24.389197197631546
30
0
11
7.2936149621313646
21
24.385424157631537
31
0
0
LINE
5
157
100
AcDbEntity
8
0
100
AcDbLine
10
7.0747890821313693
20
24.472199997631542
30
0
11
7.0898807621313686
21
24.468427197631545
31
0
0
LINE
5
158
100
AcDbEntity
8
0
100
AcDbLine
10
7.2785236421313639
20
24.392969997631539
30
0
11
7.2860694821313636
21
24.389197197631546
31
0
0
LINE
5
159
100
AcDbEntity
8
0
100
AcDbLine
10
7.2483407621313694
20
24.404288517631542
30
0
11
7.2558866021313664
21
24.400515837631541
31
0
0
LINE
5
160
100
AcDbEntity
8
0
100
AcDbLine
10
7.2558866021313664
20
24.400515837631541
30
0
11
7.2672051221313669
21
24.396742677631547
31
0
0
LINE
5
161
100
AcDbEntity
8
0
100
AcDbLine
10
7.2332490821313673
20
24.411833997631543
30
0
11
7.240794922131367
21
24.408061677631544
31
0
0
LINE
5
162
100
AcDbEntity
8
0
100
AcDbLine
10
7.1577921221313714
20
24.445789797631537
30
0
11
7.1653376021313688
21
24.442017357631542
31
0
0
LINE
5
163
100
AcDbEntity
8
0
100
AcDbLine
10
7.2257036021313699
20
24.415607157631545
30
0
11
7.2332490821313673
21
24.411833997631543
31
0
0
LINE
5
164
100
AcDbEntity
8
0
100
AcDbLine
10
7.195520602131368
20
24.430698477631541
30
0
11
7.2030664421313677
21
24.426925677631541
31
0
0
LINE
5
165
100
AcDbEntity
8
0
100
AcDbLine
10
7.301160802131367
20
24.381651357631547
30
0
11
7.3087066421313667
21
24.377878317631545
31
0
0
LINE
5
166
100
AcDbEntity
8
0
100
AcDbLine
10
7.0370602421313677
20
24.479745477631543
30
0
11
7.0596974021313672
21
24.475973037631544
31
0
0
LINE
5
167
100
AcDbEntity
8
0
100
AcDbLine
10
7.1728834421313685
20
24.438244197631544
30
0
11
7.1842020821313675
21
24.43447151763154
31
0
0
LINE
5
168
100
AcDbEntity
8
0
100
AcDbLine
10
7.2672051221313669
20
24.396742677631547
30
0
11
7.2785236421313639
21
24.392969997631539
31
0
0
LINE
5
169
100
AcDbEntity
8
0
100
AcDbLine
10
7.0898807621313686
20
24.468427197631545
30
0
11
7.1049720821313684
21
24.464654157631543
31
0
0
LINE
5
170
100
AcDbEntity
8
0
100
AcDbLine
10
7.375784962131366
20
24.351468477631538
30
0
11
7.3879366421313657
21
24.343922637631543
31
0
0
LINE
5
171
100
AcDbEntity
8
0
100
AcDbLine
10
7.3690722821313654
20
24.355241157631539
30
0
11
7.375784962131366
21
24.351468477631538
31
0
0
LINE
5
172
100
AcDbEntity
8
0
100
AcDbLine
10
7.2106119221313678
20
24.423152637631539
30
0
11
7.2181577621313675
21
24.419379837631546
31
0
0
LINE
5
173
100
AcDbEntity
8
0
100
AcDbLine
10
7.3388892821313663
20
24.370332837631544
30
0
11
7.346435122131366
21
24.36656003763154
31
0
0
LINE
5
174
100
AcDbEntity
8
0
100
AcDbLine
10
7.3087066421313667
20
24.377878317631545
30
0
11
7.3237979621313665
21
24.374105877631546
31
0
0
LINE
5
175
100
AcDbEntity
8
0
100
AcDbLine
10
6.2070294821313698
20
21.167174157631546
30
0
11
6.2108026421313687
21
21.174719637631551
31
0
0
LINE
5
176
100
AcDbEntity
8
0
100
AcDbLine
10
6.2258943221313707
20
21.212448477631543
30
0
11
6.2296670021313689
21
21.223766997631547
31
0
0
LINE
5
177
100
AcDbEntity
8
0
100
AcDbLine
10
6.2787140021313688
20
21.340725837631556
30
0
11
6.2824871621313676
21
21.348271677631551
31
0
0
LINE
5
178
100
AcDbEntity
8
0
100
AcDbLine
10
6.2749413221313679
20
21.329406957631548
30
0
11
6.2787140021313688
21
21.340725837631556
31
0
0
LINE
5
179
100
AcDbEntity
8
0
100
AcDbLine
10
6.2900326421313677
20
21.363362997631548
30
0
11
6.2938056821313708
21
21.370908477631549
31
0
0
LINE
5
180
100
AcDbEntity
8
0
100
AcDbLine
10
6.203256802131369
20
21.159628317631547
30
0
11
6.2070294821313698
21
21.167174157631546
31
0
0
LINE
5
181
100
AcDbEntity
8
0
100
AcDbLine
10
6.2975784821313674
20
21.378454317631551
30
0
11
6.301351522131367
21
21.386000157631546
31
0
0
LINE
5
182
100
AcDbEntity
8
0
100
AcDbLine
10
6.2183484821313684
20
21.197356797631553
30
0
11
6.2221211621313692
21
21.204902637631548
31
0
0
LINE
5
183
100
AcDbEntity
8
0
100
AcDbLine
10
6.2296670021313689
20
21.223766997631547
30
0
11
6.2334398021313682
21
21.235085637631549
31
0
0
LINE
5
184
100
AcDbEntity
8
0
100
AcDbLine
10
6.301351522131367
20
21.386000157631546
30
0
11
6.3051239621313702
21
21.393545637631547
31
0
0
LINE
5
185
100
AcDbEntity
8
0
100
AcDbLine
10
6.263622682131369
20
21.302996997631549
30
0
11
6.2673958421313669
21
21.310542837631548
31
0
0
LINE
5
186
100
AcDbEntity
8
0
100
AcDbLine
10
6.2447583221313687
20
21.261495477631545
30
0
11
6.2485310021313696
21
21.272813997631548
31
0
0
LINE
5
187
100
AcDbEntity
8
0
100
AcDbLine
10
6.3503985221313703
20
21.476548677631548
30
0
11
6.3541713221313696
21
21.484094517631551
31
0
0
LINE
5
188
100
AcDbEntity
8
0
100
AcDbLine
10
6.3466254821313672
20
21.469003197631547
30
0
11
6.3503985221313703
21
21.476548677631548
31
0
0
LINE
5
189
100
AcDbEntity
8
0
100
AcDbLine
10
6.3730356821313698
20
21.514277517631552
30
0
11
6.3805815221313695
21
21.525596037631548
31
0
0
LINE
5
190
100
AcDbEntity
8
0
100
AcDbLine
10
6.3881270021313696
20
21.537747357631549
30
0
11
6.3919000421313665
21
21.54446039763155
31
0
0
LINE
5
191
100
AcDbEntity
8
0
100
AcDbLine
10
6.3088970021313679
20
21.40109147763155
30
0
11
6.3126698021313672
21
21.408637317631552
31
0
0
LINE
5
192
100
AcDbEntity
8
0
100
AcDbLine
10
6.3956728421313693
20
21.550492437631544
30
0
11
6.4069913621313699
21
21.567097557631548
31
0
0
LINE
5
193
100
AcDbEntity
8
0
100
AcDbLine
10
6.3805815221313695
20
21.525596037631548
30
0
11
6.3881270021313696
21
21.537747357631549
31
0
0
LINE
5
194
100
AcDbEntity
8
0
100
AcDbLine
10
6.3390800021313698
20
21.453911517631546
30
0
11
6.3428526821313707
21
21.461457357631549
31
0
0
LINE
5
195
100
AcDbEntity
8
0
100
AcDbLine
10
6.3541713221313696
20
21.484094517631551
30
0
11
6.3579443621313692
21
21.49080719763155
31
0
0
LINE
5
196
100
AcDbEntity
8
0
100
AcDbLine
10
6.3277613621313709
20
21.435047157631548
30
0
11
6.3353072021313697
21
21.447198837631554
31
0
0
LINE
5
197
100
AcDbEntity
8
0
100
AcDbLine
10
6.4560388421313704
20
21.623690517631552
30
0
11
6.493767322131367
21
21.666113877631549
31
0
0
LINE
5
198
100
AcDbEntity
8
0
100
AcDbLine
10
6.3164428421313676
20
21.416183157631551
30
0
11
6.3202155221313685
21
21.42289583763155
31
0
0
LINE
5
199
100
AcDbEntity
8
0
100
AcDbLine
10
6.3654902021313662
20
21.502958877631549
30
0
11
6.3730356821313698
21
21.514277517631552
31
0
0
LINE
5
200
100
AcDbEntity
8
0
100
AcDbLine
10
6.4069913621313699
20
21.567097557631548
30
0
11
6.4183100021313688
21
21.58194779763155
31
0
0
LINE
5
201
100
AcDbEntity
8
0
100
AcDbLine
10
6.3202155221313685
20
21.42289583763155
30
0
11
6.3277613621313709
21
21.435047157631548
31
0
0
LINE
5
202
100
AcDbEntity
8
0
100
AcDbLine
10
6.4183100021313688
20
21.58194779763155
30
0
11
6.4560388421313704
21
21.623690517631552
31
0
0
LINE
5
203
100
AcDbEntity
8
0
100
AcDbLine
10
6.493767322131367
20
21.666113877631549
30
0
11
6.5013131621313693
21
21.676510557631548
31
0
0
LINE
5
204
100
AcDbEntity
8
0
100
AcDbLine
10
6.3126698021313672
20
21.408637317631552
30
0
11
6.3164428421313676
21
21.416183157631551
31
0
0
LINE
5
205
100
AcDbEntity
8
0
100
AcDbLine
10
6.3428526821313707
20
21.461457357631549
30
0
11
6.3466254821313672
21
21.469003197631547
31
0
0
LINE
5
206
100
AcDbEntity
8
0
100
AcDbLine
10
6.3919000421313665
20
21.54446039763155
30
0
11
6.3956728421313693
21
21.550492437631544
31
0
0
LINE
5
207
100
AcDbEntity
8
0
100
AcDbLine
10
6.3579443621313692
20
21.49080719763155
30
0
11
6.3654902021313662
21
21.502958877631549
31
0
0
LINE
5
208
100
AcDbEntity
8
0
100
AcDbLine
10
6.8710535621313706
20
22.027386957631549
30
0
11
6.8748262421313688
21
22.050024117631551
31
0
0
LINE
5
209
100
AcDbEntity
8
0
100
AcDbLine
10
6.3353072021313697
20
21.447198837631554
30
0
11
6.3390800021313698
21
21.453911517631546
31
0
0
LINE
5
210
100
AcDbEntity
8
0
100
AcDbLine
10
6.852189442131368
20
21.951929277631546
30
0
11
6.8559618821313686
21
21.963248157631547
31
0
0
LINE
5
211
100
AcDbEntity
8
0
100
AcDbLine
10
6.8446436021313684
20
21.93683795763155
30
0
11
6.8484164021313685
21
21.944383797631545
31
0
0
LINE
5
212
100
AcDbEntity
8
0
100
AcDbLine
10
6.8635077221313683
20
21.989658117631553
30
0
11
6.8672807621313705
21
22.004749437631549
31
0
0
LINE
5
213
100
AcDbEntity
8
0
100
AcDbLine
10
6.8785994021313677
20
22.087752597631553
30
0
11
6.8823720821313685
21
22.125481437631549
31
0
0
LINE
5
214
100
AcDbEntity
8
0
100
AcDbLine
10
6.8597349221313682
20
21.974566437631548
30
0
11
6.8635077221313683
21
21.989658117631553
31
0
0
LINE
5
215
100
AcDbEntity
8
0
100
AcDbLine
10
6.8748262421313688
20
22.050024117631551
30
0
11
6.8785994021313677
21
22.087752597631553
31
0
0
LINE
5
216
100
AcDbEntity
8
0
100
AcDbLine
10
6.8408705621313688
20
21.931079277631547
30
0
11
6.8446436021313684
21
21.93683795763155
31
0
0
LINE
5
217
100
AcDbEntity
8
0
100
AcDbLine
10
6.8559618821313686
20
21.963248157631547
30
0
11
6.8597349221313682
21
21.974566437631548
31
0
0
LINE
5
218
100
AcDbEntity
8
0
100
AcDbLine
10
6.8484164021313685
20
21.944383797631545
30
0
11
6.852189442131368
21
21.951929277631546
31
0
0
LINE
5
219
100
AcDbEntity
8
0
100
AcDbLine
10
6.8239920821313671
20
21.908442117631552
30
0
11
6.8408705621313688
21
21.931079277631547
31
0
0
LINE
5
220
100
AcDbEntity
8
0
100
AcDbLine
10
6.8672807621313705
20
22.004749437631549
30
0
11
6.8710535621313706
21
22.027386957631549
31
0
0
LINE
5
221
100
AcDbEntity
8
0
100
AcDbLine
10
7.6218534821313639
20
20.789887317631553
30
0
11
7.6180804421313644
21
20.782341717631549
31
0
0
LINE
5
222
100
AcDbEntity
8
0
100
AcDbLine
10
7.6029891221313672
20
20.752158837631551
30
0
11
7.5992163221313644
21
20.744612997631549
31
0
0
LINE
5
223
100
AcDbEntity
8
0
100
AcDbLine
10
7.5992163221313644
20
20.744612997631549
30
0
11
7.5954432821313649
21
20.737900317631549
31
0
0
LINE
5
224
100
AcDbEntity
8
0
100
AcDbLine
10
7.5501689621313659
20
20.661610317631546
30
0
11
7.5426231221313662
21
20.650291437631548
31
0
0
LINE
5
225
100
AcDbEntity
8
0
100
AcDbLine
10
7.810496722131365
20
20.955893397631545
30
0
11
7.7991778421313649
21
20.95212035763155
31
0
0
LINE
5
226
100
AcDbEntity
8
0
100
AcDbLine
10
7.7991778421313649
20
20.95212035763155
30
0
11
7.7916323621313675
21
20.94834755763155
31
0
0
LINE
5
227
100
AcDbEntity
8
0
100
AcDbLine
10
7.6331720021313645
20
20.808752037631546
30
0
11
7.6256262821313667
21
20.796600357631551
31
0
0
LINE
5
228
100
AcDbEntity
8
0
100
AcDbLine
10
7.6180804421313644
20
20.782341717631549
30
0
11
7.6143076421313678
21
20.77479599763155
31
0
0
LINE
5
229
100
AcDbEntity
8
0
100
AcDbLine
10
7.5954432821313649
20
20.737900317631549
30
0
11
7.5878978021313674
21
20.725748997631552
31
0
0
LINE
5
230
100
AcDbEntity
8
0
100
AcDbLine
10
7.6407178421313668
20
20.820070197631551
30
0
11
7.6331720021313645
21
20.808752037631546
31
0
0
LINE
5
231
100
AcDbEntity
8
0
100
AcDbLine
10
7.7425850021313689
20
20.925710517631551
30
0
11
7.7322716021313651
21
20.918164677631548
31
0
0
LINE
5
232
100
AcDbEntity
8
0
100
AcDbLine
10
7.5878978021313674
20
20.725748997631552
30
0
11
7.5803519621313677
21
20.713597317631553
31
0
0
LINE
5
233
100
AcDbEntity
8
0
100
AcDbLine
10
7.7322716021313651
20
20.918164677631548
30
0
11
7.655809162131364
21
20.841702237631548
31
0
0
LINE
5
234
100
AcDbEntity
8
0
100
AcDbLine
10
7.5577148021313683
20
20.672928837631549
30
0
11
7.5501689621313659
21
20.661610317631546
31
0
0
LINE
5
235
100
AcDbEntity
8
0
100
AcDbLine
10
7.5350776421313652
20
20.639986437631549
30
0
11
7.4441961221313653
21
20.548424277631547
31
0
0
LINE
5
236
100
AcDbEntity
8
0
100
AcDbLine
10
7.4294373221313652
20
20.537105757631547
30
0
11
7.4136650021313644
21
20.525787117631552
31
0
0
LINE
5
237
100
AcDbEntity
8
0
100
AcDbLine
10
7.5426231221313662
20
20.650291437631548
30
0
11
7.5350776421313652
21
20.639986437631549
31
0
0
LINE
5
238
100
AcDbEntity
8
0
100
AcDbLine
10
7.5652606421313671
20
20.685080517631551
30
0
11
7.5577148021313683
21
20.672928837631549
31
0
0
LINE
5
239
100
AcDbEntity
8
0
100
AcDbLine
10
7.6105346021313647
20
20.767250397631553
30
0
11
7.6067621621313641
21
20.75970467763155
31
0
0
LINE
5
240
100
AcDbEntity
8
0
100
AcDbLine
10
7.7727680021313645
20
20.940802077631549
30
0
11
7.7614493621313656
21
20.937029037631547
31
0
0
LINE
5
241
100
AcDbEntity
8
0
100
AcDbLine
10
7.6256262821313667
20
20.796600357631551
30
0
11
7.6218534821313639
21
20.789887317631553
31
0
0
LINE
5
242
100
AcDbEntity
8
0
100
AcDbLine
10
7.5765788021313663
20
20.706884517631547
30
0
11
7.5728061221313654
21
20.699338677631552
31
0
0
LINE
5
243
100
AcDbEntity
8
0
100
AcDbLine
10
7.4441961221313653
20
20.548424277631547
30
0
11
7.4294373221313652
21
20.537105757631547
31
0
0
LINE
5
244
100
AcDbEntity
8
0
100
AcDbLine
10
7.5803519621313677
20
20.713597317631553
30
0
11
7.5765788021313663
21
20.706884517631547
31
0
0
LINE
5
245
100
AcDbEntity
8
0
100
AcDbLine
10
7.7547363221313663
20
20.933256237631554
30
0
11
7.7425850021313689
21
20.925710517631551
31
0
0
LINE
5
246
100
AcDbEntity
8
0
100
AcDbLine
10
9.7044645221313637
20
20.231392437631548
30
0
11
9.6856005221313666
21
20.235165237631549
31
0
0
LINE
5
247
100
AcDbEntity
8
0
100
AcDbLine
10
9.6856005221313666
20
20.235165237631549
30
0
11
9.6667361621313663
21
20.238937917631542
31
0
0
LINE
5
248
100
AcDbEntity
8
0
100
AcDbLine
10
9.534686122131367
20
20.26912091763155
30
0
11
9.5195948021313672
21
20.272893597631551
31
0
0
LINE
5
249
100
AcDbEntity
8
0
100
AcDbLine
10
7.7840865221313651
20
20.944574877631549
30
0
11
7.7727680021313645
21
20.940802077631549
31
0
0
LINE
5
250
100
AcDbEntity
8
0
100
AcDbLine
10
7.7916323621313675
20
20.94834755763155
30
0
11
7.7840865221313651
21
20.944574877631549
31
0
0
LINE
5
251
100
AcDbEntity
8
0
100
AcDbLine
10
7.655809162131364
20
20.841702237631548
30
0
11
7.6482633221313678
21
20.831388837631554
31
0
0
LINE
5
252
100
AcDbEntity
8
0
100
AcDbLine
10
7.6482633221313678
20
20.831388837631554
30
0
11
7.6407178421313668
21
20.820070197631551
31
0
0
LINE
5
253
100
AcDbEntity
8
0
100
AcDbLine
10
7.7614493621313656
20
20.937029037631547
30
0
11
7.7547363221313663
21
20.933256237631554
31
0
0
LINE
5
254
100
AcDbEntity
8
0
100
AcDbLine
10
7.5690333221313653
20
20.691792957631552
30
0
11
7.5652606421313671
21
20.685080517631551
31
0
0
LINE
5
255
100
AcDbEntity
8
0
100
AcDbLine
10
7.6143076421313678
20
20.77479599763155
30
0
11
7.6105346021313647
21
20.767250397631553
31
0
0
LINE
5
256
100
AcDbEntity
8
0
100
AcDbLine
10
7.6067621621313641
20
20.75970467763155
30
0
11
7.6029891221313672
21
20.752158837631551
31
0
0
LINE
5
257
100
AcDbEntity
8
0
100
AcDbLine
10
7.5728061221313654
20
20.699338677631552
30
0
11
7.5690333221313653
21
20.691792957631552
31
0
0
LINE
5
258
100
AcDbEntity
8
0
100
AcDbLine
10
9.5195948021313672
20
20.272893597631551
30
0
11
9.5082759221313644
21
20.276666757631549
31
0
0
LINE
5
259
100
AcDbEntity
8
0
100
AcDbLine
10
9.5082759221313644
20
20.276666757631549
30
0
11
9.4969572821313655
21
20.28043943763155
31
0
0
LINE
5
260
100
AcDbEntity
8
0
100
AcDbLine
10
9.6667361621313663
20
20.238937917631542
30
0
11
9.6478718021313661
21
20.242711077631551
31
0
0
LINE
5
261
100
AcDbEntity
8
0
100
AcDbLine
10
9.8931076421313655
20
20.208754917631548
30
0
11
9.8440602821313643
21
20.212528077631553
31
0
0
LINE
5
262
100
AcDbEntity
8
0
100
AcDbLine
10
9.5950521221313654
20
20.254029597631547
30
0
11
9.579960442131366
21
20.257802277631548
31
0
0
LINE
5
263
100
AcDbEntity
8
0
100
AcDbLine
10
9.6478718021313661
20
20.242711077631551
30
0
11
9.6290078021313672
21
20.246483757631552
31
0
0
LINE
5
264
100
AcDbEntity
8
0
100
AcDbLine
10
9.7761489221313642
20
20.220073917631552
30
0
11
9.7497390821313665
21
20.223846597631553
31
0
0
LINE
5
265
100
AcDbEntity
8
0
100
AcDbLine
10
9.8101046021313643
20
20.216300757631551
30
0
11
9.7761489221313642
21
20.220073917631552
31
0
0
LINE
5
266
100
AcDbEntity
8
0
100
AcDbLine
10
9.8440602821313643
20
20.212528077631553
30
0
11
9.8101046021313643
21
20.216300757631551
31
0
0
LINE
5
267
100
AcDbEntity
8
0
100
AcDbLine
10
9.6101434421313652
20
20.250256557631545
30
0
11
9.5950521221313654
21
20.254029597631547
31
0
0
LINE
5
268
100
AcDbEntity
8
0
100
AcDbLine
10
9.7497390821313665
20
20.223846597631553
30
0
11
9.7233288821313675
21
20.227619757631548
31
0
0
LINE
5
269
100
AcDbEntity
8
0
100
AcDbLine
10
9.549777442131365
20
20.265348117631547
30
0
11
9.534686122131367
21
20.26912091763155
31
0
0
LINE
5
270
100
AcDbEntity
8
0
100
AcDbLine
10
9.579960442131366
20
20.257802277631548
30
0
11
9.5648687621313648
21
20.261575437631546
31
0
0
LINE
5
271
100
AcDbEntity
8
0
100
AcDbLine
10
9.5648687621313648
20
20.261575437631546
30
0
11
9.549777442131365
21
20.265348117631547
31
0
0
LINE
5
272
100
AcDbEntity
8
0
100
AcDbLine
10
9.7233288821313675
20
20.227619757631548
30
0
11
9.7044645221313637
21
20.231392437631548
31
0
0
LINE
5
273
100
AcDbEntity
8
0
100
AcDbLine
10
9.4667742821313663
20
20.287985277631552
30
0
11
9.455456122131368
21
20.291758077631552
31
0
0
LINE
5
274
100
AcDbEntity
8
0
100
AcDbLine
10
9.4969572821313655
20
20.28043943763155
30
0
11
9.4818659621313657
21
20.284212597631544
31
0
0
LINE
5
275
100
AcDbEntity
8
0
100
AcDbLine
10
9.4818659621313657
20
20.284212597631544
30
0
11
9.4667742821313663
21
20.287985277631552
31
0
0
LINE
5
276
100
AcDbEntity
8
0
100
AcDbLine
10
9.455456122131368
20
20.291758077631552
30
0
11
9.4441372421313687
21
20.295531117631548
31
0
0
LINE
5
277
100
AcDbEntity
8
0
100
AcDbLine
10
9.6290078021313672
20
20.246483757631552
30
0
11
9.6101434421313652
21
20.250256557631545
31
0
0
LINE
5
278
100
AcDbEntity
8
0
100
AcDbLine
10
9.4441372421313687
20
20.295531117631548
30
0
11
9.4328186021313662
21
20.299303917631548
31
0
0
LINE
5
279
100
AcDbEntity
8
0
100
AcDbLine
10
9.9421546421313653
20
20.20498187763155
30
0
11
9.8931076421313655
21
20.208754917631548
31
0
0
LINE
5
280
100
AcDbEntity
8
0
100
AcDbLine
10
9.4328186021313662
20
20.299303917631548
30
0
11
9.4215000821313666
21
20.303076597631549
31
0
0
LINE
5
281
100
AcDbEntity
8
0
100
AcDbLine
10
9.3913174421313652
20
20.314395117631545
30
0
11
9.3837716021313664
21
20.318168277631546
31
0
0
LINE
5
282
100
AcDbEntity
8
0
100
AcDbLine
10
9.4215000821313666
20
20.303076597631549
30
0
11
9.4101814421313676
21
20.306849637631547
31
0
0
LINE
5
283
100
AcDbEntity
8
0
100
AcDbLine
10
9.4101814421313676
20
20.306849637631547
30
0
11
9.3988629221313662
21
20.310622437631544
31
0
0
LINE
5
284
100
AcDbEntity
8
0
100
AcDbLine
10
9.3988629221313662
20
20.310622437631544
30
0
11
9.3913174421313652
21
20.314395117631545
31
0
0
LINE
5
285
100
AcDbEntity
8
0
100
AcDbLine
10
9.2026740821313666
20
20.397398277631549
30
0
11
9.1951282421313678
21
20.401171317631551
31
0
0
LINE
5
286
100
AcDbEntity
8
0
100
AcDbLine
10
9.1582325621313672
20
20.420035437631551
30
0
11
9.146081242131368
21
20.427581157631554
31
0
0
LINE
5
287
100
AcDbEntity
8
0
100
AcDbLine
10
9.1724912021313667
20
20.412489597631549
30
0
11
9.1649453621313661
21
20.416262637631551
31
0
0
LINE
5
288
100
AcDbEntity
8
0
100
AcDbLine
10
9.2404025621313668
20
20.378533797631551
30
0
11
9.2328570821313658
21
20.382306957631545
31
0
0
LINE
5
289
100
AcDbEntity
8
0
100
AcDbLine
10
9.3498159221313628
20
20.329486797631549
30
0
11
9.3384970421313636
21
20.33325959763155
31
0
0
LINE
5
290
100
AcDbEntity
8
0
100
AcDbLine
10
9.1800369221313645
20
20.408716797631548
30
0
11
9.1724912021313667
21
20.412489597631549
31
0
0
LINE
5
291
100
AcDbEntity
8
0
100
AcDbLine
10
9.2630397221313654
20
20.367215637631549
30
0
11
9.2554938821313666
21
20.370988077631548
31
0
0
LINE
5
292
100
AcDbEntity
8
0
100
AcDbLine
10
9.217765762131366
20
20.389852437631546
30
0
11
9.2102199221313636
21
20.393625477631549
31
0
0
LINE
5
293
100
AcDbEntity
8
0
100
AcDbLine
10
9.3309515621313661
20
20.33703227763155
30
0
11
9.3234057221313638
21
20.340805437631548
31
0
0
LINE
5
294
100
AcDbEntity
8
0
100
AcDbLine
10
9.225311242131367
20
20.386079637631546
30
0
11
9.217765762131366
21
20.389852437631546
31
0
0
LINE
5
295
100
AcDbEntity
8
0
100
AcDbLine
10
9.1649453621313661
20
20.416262637631551
30
0
11
9.1582325621313672
21
20.420035437631551
31
0
0
LINE
5
296
100
AcDbEntity
8
0
100
AcDbLine
10
9.3611340821313647
20
20.325714117631549
30
0
11
9.3498159221313628
21
20.329486797631549
31
0
0
LINE
5
297
100
AcDbEntity
8
0
100
AcDbLine
10
9.1875825221313665
20
20.404944117631551
30
0
11
9.1800369221313645
21
20.408716797631548
31
0
0
LINE
5
298
100
AcDbEntity
8
0
100
AcDbLine
10
9.2969954021313654
20
20.352123957631552
30
0
11
9.2856772421313654
21
20.355896757631552
31
0
0
LINE
5
299
100
AcDbEntity
8
0
100
AcDbLine
10
9.3837716021313664
20
20.318168277631546
30
0
11
9.3724530821313632
21
20.321940957631547
31
0
0
LINE
5
300
100
AcDbEntity
8
0
100
AcDbLine
10
9.3384970421313636
20
20.33325959763155
30
0
11
9.3309515621313661
21
20.33703227763155
31
0
0
LINE
5
301
100
AcDbEntity
8
0
100
AcDbLine
10
9.096201202131363
20
20.457764157631548
30
0
11
9.0894881621313637
21
20.461536957631555
31
0
0
LINE
5
302
100
AcDbEntity
8
0
100
AcDbLine
10
9.2554938821313666
20
20.370988077631548
30
0
11
9.2479484021313656
21
20.37476111763155
31
0
0
LINE
5
303
100
AcDbEntity
8
0
100
AcDbLine
10
9.2328570821313658
20
20.382306957631545
30
0
11
9.225311242131367
21
20.386079637631546
31
0
0
LINE
5
304
100
AcDbEntity
8
0
100
AcDbLine
10
9.1272168821313642
20
20.438899797631549
30
0
11
9.1205038421313649
21
20.44267247763155
31
0
0
LINE
5
305
100
AcDbEntity
8
0
100
AcDbLine
10
9.3724530821313632
20
20.321940957631547
30
0
11
9.3611340821313647
21
20.325714117631549
31
0
0
LINE
5
306
100
AcDbEntity
8
0
100
AcDbLine
10
9.270585562131366
20
20.363442477631548
30
0
11
9.2630397221313654
21
20.367215637631549
31
0
0
LINE
5
307
100
AcDbEntity
8
0
100
AcDbLine
10
9.2856772421313654
20
20.355896757631552
30
0
11
9.2781314021313648
21
20.359669797631547
31
0
0
LINE
5
308
100
AcDbEntity
8
0
100
AcDbLine
10
9.1083525221313639
20
20.450218317631553
30
0
11
9.096201202131363
21
20.457764157631548
31
0
0
LINE
5
309
100
AcDbEntity
8
0
100
AcDbLine
10
9.1951282421313678
20
20.401171317631551
30
0
11
9.1875825221313665
21
20.404944117631551
31
0
0
LINE
5
310
100
AcDbEntity
8
0
100
AcDbLine
10
9.3234057221313638
20
20.340805437631548
30
0
11
9.3158602421313663
21
20.344578117631549
31
0
0
LINE
5
311
100
AcDbEntity
8
0
100
AcDbLine
10
9.2102199221313636
20
20.393625477631549
30
0
11
9.2026740821313666
21
20.397398277631549
31
0
0
LINE
5
312
100
AcDbEntity
8
0
100
AcDbLine
10
9.146081242131368
20
20.427581157631554
30
0
11
9.1339295621313674
21
20.435126997631549
31
0
0
LINE
5
313
100
AcDbEntity
8
0
100
AcDbLine
10
9.2781314021313648
20
20.359669797631547
30
0
11
9.270585562131366
21
20.363442477631548
31
0
0
LINE
5
314
100
AcDbEntity
8
0
100
AcDbLine
10
9.3083144021313675
20
20.348351277631551
30
0
11
9.2969954021313654
21
20.352123957631552
31
0
0
LINE
5
315
100
AcDbEntity
8
0
100
AcDbLine
10
9.1339295621313674
20
20.435126997631549
30
0
11
9.1272168821313642
21
20.438899797631549
31
0
0
LINE
5
316
100
AcDbEntity
8
0
100
AcDbLine
10
9.1205038421313649
20
20.44267247763155
30
0
11
9.1083525221313639
21
20.450218317631553
31
0
0
LINE
5
317
100
AcDbEntity
8
0
100
AcDbLine
10
8.8668896021313657
20
20.684135877631551
30
0
11
8.8631164421313677
21
20.691681357631548
31
0
0
LINE
5
318
100
AcDbEntity
8
0
100
AcDbLine
10
8.8178422421313662
20
20.775517557631545
30
0
11
8.8140690821313648
21
20.782230237631552
31
0
0
LINE
5
319
100
AcDbEntity
8
0
100
AcDbLine
10
9.070624162131363
20
20.472855477631548
30
0
11
9.0593052821313673
21
20.48040131763155
31
0
0
LINE
5
320
100
AcDbEntity
8
0
100
AcDbLine
10
8.8631164421313677
20
20.691681357631548
30
0
11
8.8593437621313669
21
20.699227197631551
31
0
0
LINE
5
321
100
AcDbEntity
8
0
100
AcDbLine
10
9.0479870021313662
20
20.487947157631552
30
0
11
9.0366681221313652
21
20.495492637631553
31
0
0
LINE
5
322
100
AcDbEntity
8
0
100
AcDbLine
10
8.8819809221313655
20
20.653952997631553
30
0
11
8.878207762131364
21
20.661498717631549
31
0
0
LINE
5
323
100
AcDbEntity
8
0
100
AcDbLine
10
9.0366681221313652
20
20.495492637631553
30
0
11
9.0253496021313637
21
20.503038477631549
31
0
0
LINE
5
324
100
AcDbEntity
8
0
100
AcDbLine
10
9.3158602421313663
20
20.344578117631549
30
0
11
9.3083144021313675
21
20.348351277631551
31
0
0
LINE
5
325
100
AcDbEntity
8
0
100
AcDbLine
10
8.8555706021313654
20
20.70677303763155
30
0
11
8.8517979221313645
21
20.714318517631551
31
0
0
LINE
5
326
100
AcDbEntity
8
0
100
AcDbLine
10
9.0147117221313646
20
20.510583957631553
30
0
11
8.998939642131365
21
20.521902837631547
31
0
0
LINE
5
327
100
AcDbEntity
8
0
100
AcDbLine
10
8.878207762131364
20
20.661498717631549
30
0
11
8.8744354421313645
21
20.669044557631548
31
0
0
LINE
5
328
100
AcDbEntity
8
0
100
AcDbLine
10
8.8593437621313669
20
20.699227197631551
30
0
11
8.8555706021313654
21
20.70677303763155
31
0
0
LINE
5
329
100
AcDbEntity
8
0
100
AcDbLine
10
8.998939642131365
20
20.521902837631547
30
0
11
8.9841724421313671
21
20.53322147763155
31
0
0
LINE
5
330
100
AcDbEntity
8
0
100
AcDbLine
10
9.2479484021313656
20
20.37476111763155
30
0
11
9.2404025621313668
21
20.378533797631551
31
0
0
LINE
5
331
100
AcDbEntity
8
0
100
AcDbLine
10
8.8253880821313633
20
20.763365877631546
30
0
11
8.8178422421313662
21
20.775517557631545
31
0
0
LINE
5
332
100
AcDbEntity
8
0
100
AcDbLine
10
8.8404792821313656
20
20.736956037631547
30
0
11
8.8367066021313647
21
20.744501517631544
31
0
0
LINE
5
333
100
AcDbEntity
8
0
100
AcDbLine
10
8.9841724421313671
20
20.53322147763155
30
0
11
8.9083911221313681
21
20.609683557631545
31
0
0
LINE
5
334
100
AcDbEntity
8
0
100
AcDbLine
10
9.0894881621313637
20
20.461536957631555
30
0
11
9.082775482131364
21
20.465309997631547
31
0
0
LINE
5
335
100
AcDbEntity
8
0
100
AcDbLine
10
8.8744354421313645
20
20.669044557631548
30
0
11
8.8706622821313648
21
20.676590037631552
31
0
0
LINE
5
336
100
AcDbEntity
8
0
100
AcDbLine
10
8.8140690821313648
20
20.782230237631552
30
0
11
8.8102964021313639
21
20.788185357631548
31
0
0
LINE
5
337
100
AcDbEntity
8
0
100
AcDbLine
10
9.0593052821313673
20
20.48040131763155
30
0
11
9.0479870021313662
21
20.487947157631552
31
0
0
LINE
5
338
100
AcDbEntity
8
0
100
AcDbLine
10
8.8367066021313647
20
20.744501517631544
30
0
11
8.8329338021313664
21
20.751214557631549
31
0
0
LINE
5
339
100
AcDbEntity
8
0
100
AcDbLine
10
8.8329338021313664
20
20.751214557631549
30
0
11
8.8253880821313633
21
20.763365877631546
31
0
0
LINE
5
340
100
AcDbEntity
8
0
100
AcDbLine
10
8.8517979221313645
20
20.714318517631551
30
0
11
8.8480251221313679
21
20.721864357631553
31
0
0
LINE
5
341
100
AcDbEntity
8
0
100
AcDbLine
10
8.9008452821313657
20
20.619997317631547
30
0
11
8.8932994421313669
21
20.632148637631548
31
0
0
LINE
5
342
100
AcDbEntity
8
0
100
AcDbLine
10
9.082775482131364
20
20.465309997631547
30
0
11
9.070624162131363
21
20.472855477631548
31
0
0
LINE
5
343
100
AcDbEntity
8
0
100
AcDbLine
10
8.7084292421313663
20
20.895415917631549
30
0
11
8.6894879621313663
21
20.91050759763155
31
0
0
LINE
5
344
100
AcDbEntity
8
0
100
AcDbLine
10
8.8895267621313661
20
20.638861677631549
30
0
11
8.8857536021313646
21
20.64640715763155
31
0
0
LINE
5
345
100
AcDbEntity
8
0
100
AcDbLine
10
8.7952050821313676
20
20.808640437631549
30
0
11
8.7801134021313647
21
20.827278597631548
31
0
0
LINE
5
346
100
AcDbEntity
8
0
100
AcDbLine
10
8.8480251221313679
20
20.721864357631553
30
0
11
8.8442520821313639
21
20.729410197631548
31
0
0
LINE
5
347
100
AcDbEntity
8
0
100
AcDbLine
10
8.6894879621313663
20
20.91050759763155
30
0
11
8.6744732021313631
21
20.921826237631553
31
0
0
LINE
5
348
100
AcDbEntity
8
0
100
AcDbLine
10
7.8708623621313665
20
20.970984717631548
30
0
11
7.8519980021313671
21
20.967212037631548
31
0
0
LINE
5
349
100
AcDbEntity
8
0
100
AcDbLine
10
8.9083911221313681
20
20.609683557631545
30
0
11
8.9008452821313657
21
20.619997317631547
31
0
0
LINE
5
350
100
AcDbEntity
8
0
100
AcDbLine
10
7.8218150021313653
20
20.959666197631552
30
0
11
7.810496722131365
21
20.955893397631545
31
0
0
LINE
5
351
100
AcDbEntity
8
0
100
AcDbLine
10
7.8897267221313641
20
20.97475787763155
30
0
11
7.8708623621313665
21
20.970984717631548
31
0
0
LINE
5
352
100
AcDbEntity
8
0
100
AcDbLine
10
9.0253496021313637
20
20.503038477631549
30
0
11
9.0147117221313646
21
20.510583957631553
31
0
0
LINE
5
353
100
AcDbEntity
8
0
100
AcDbLine
10
7.9199093621313637
20
20.978530557631547
30
0
11
7.8897267221313641
21
20.97475787763155
31
0
0
LINE
5
354
100
AcDbEntity
8
0
100
AcDbLine
10
8.8857536021313646
20
20.64640715763155
30
0
11
8.8819809221313655
21
20.653952997631553
31
0
0
LINE
5
355
100
AcDbEntity
8
0
100
AcDbLine
10
8.8932994421313669
20
20.632148637631548
30
0
11
8.8895267621313661
21
20.638861677631549
31
0
0
LINE
5
356
100
AcDbEntity
8
0
100
AcDbLine
10
8.8102964021313639
20
20.788185357631548
30
0
11
8.7952050821313676
21
20.808640437631549
31
0
0
LINE
5
357
100
AcDbEntity
8
0
100
AcDbLine
10
8.7270677621313659
20
20.880324597631553
30
0
11
8.7084292421313663
21
20.895415917631549
31
0
0
LINE
5
358
100
AcDbEntity
8
0
100
AcDbLine
10
7.8519980021313671
20
20.967212037631548
30
0
11
7.8369066821313638
21
20.963439237631547
31
0
0
LINE
5
359
100
AcDbEntity
8
0
100
AcDbLine
10
8.8442520821313639
20
20.729410197631548
30
0
11
8.8404792821313656
21
20.736956037631547
31
0
0
LINE
5
360
100
AcDbEntity
8
0
100
AcDbLine
10
8.8706622821313648
20
20.676590037631552
30
0
11
8.8668896021313657
21
20.684135877631551
31
0
0
LINE
5
361
100
AcDbEntity
8
0
100
AcDbLine
10
7.8369066821313638
20
20.963439237631547
30
0
11
7.8218150021313653
21
20.959666197631552
31
0
0
LINE
5
362
100
AcDbEntity
8
0
100
AcDbLine
10
8.0180040821313678
20
20.98607639763155
30
0
11
7.9500927221313651
21
20.982303357631551
31
0
0
LINE
5
363
100
AcDbEntity
8
0
100
AcDbLine
10
7.3003269221313634
20
20.457875757631552
30
0
11
7.2936142421313663
21
20.45410259763155
31
0
0
LINE
5
364
100
AcDbEntity
8
0
100
AcDbLine
10
7.3615259621313651
20
20.49183143763155
30
0
11
7.3539801221313654
21
20.48805863763155
31
0
0
LINE
5
365
100
AcDbEntity
8
0
100
AcDbLine
10
7.1502455621313681
20
20.393737077631553
30
0
11
7.1389270421313675
21
20.389963917631551
31
0
0
LINE
5
366
100
AcDbEntity
8
0
100
AcDbLine
10
7.3246302821313662
20
20.472967077631548
30
0
11
7.3124786021313666
21
20.465421597631547
31
0
0
LINE
5
367
100
AcDbEntity
8
0
100
AcDbLine
10
8.5252944731966558
20
20.993535443808693
30
0
11
8.3334106421313674
21
20.993621877631551
31
0
0
LINE
5
368
100
AcDbEntity
8
0
100
AcDbLine
10
8.7801134021313647
20
20.827278597631548
30
0
11
8.7270677621313659
21
20.880324597631553
31
0
0
LINE
5
369
100
AcDbEntity
8
0
100
AcDbLine
10
7.2483399221313674
20
20.435238597631553
30
0
11
7.2407940821313677
21
20.431465437631545
31
0
0
LINE
5
370
100
AcDbEntity
8
0
100
AcDbLine
10
7.1955198821313697
20
20.41260107763155
30
0
11
7.1879744021313696
21
20.408828397631549
31
0
0
LINE
5
371
100
AcDbEntity
8
0
100
AcDbLine
10
7.1766554021313684
20
20.405055597631549
30
0
11
7.1653368821313679
21
20.401282917631548
31
0
0
LINE
5
372
100
AcDbEntity
8
0
100
AcDbLine
10
7.9500927221313651
20
20.982303357631551
30
0
11
7.9199093621313637
21
20.978530557631547
31
0
0
LINE
5
373
100
AcDbEntity
8
0
100
AcDbLine
10
8.3334106421313674
20
20.993621877631551
30
0
11
8.0859154421313644
21
20.989849077631551
31
0
0
LINE
5
374
100
AcDbEntity
8
0
100
AcDbLine
10
7.1577914021313678
20
20.397509757631546
30
0
11
7.1502455621313681
21
20.393737077631553
31
0
0
LINE
5
375
100
AcDbEntity
8
0
100
AcDbLine
10
7.2936142421313663
20
20.45410259763155
30
0
11
7.2860687621313662
21
20.450329917631549
31
0
0
LINE
5
376
100
AcDbEntity
8
0
100
AcDbLine
10
7.3388885621313653
20
20.480512917631547
30
0
11
7.3313429621313659
21
20.476739757631549
31
0
0
LINE
5
377
100
AcDbEntity
8
0
100
AcDbLine
10
8.6744732021313631
20
20.921826237631553
30
0
11
8.666927542131365
21
20.927485497631551
31
0
0
LINE
5
378
100
AcDbEntity
8
0
100
AcDbLine
10
7.21438424213137
20
20.420146917631548
30
0
11
7.2030657221313668
21
20.416374237631551
31
0
0
LINE
5
379
100
AcDbEntity
8
0
100
AcDbLine
10
8.0859154421313644
20
20.989849077631551
30
0
11
8.0180040821313678
21
20.98607639763155
31
0
0
LINE
5
380
100
AcDbEntity
8
0
100
AcDbLine
10
7.3124786021313666
20
20.465421597631547
30
0
11
7.3003269221313634
21
20.457875757631552
31
0
0
LINE
5
381
100
AcDbEntity
8
0
100
AcDbLine
10
7.2860687621313662
20
20.450329917631549
30
0
11
7.2785229221313665
21
20.446557117631549
31
0
0
LINE
5
382
100
AcDbEntity
8
0
100
AcDbLine
10
7.3313429621313659
20
20.476739757631549
30
0
11
7.3246302821313662
21
20.472967077631548
31
0
0
LINE
5
383
100
AcDbEntity
8
0
100
AcDbLine
10
7.3464342821313666
20
20.484285597631551
30
0
11
7.3388885621313653
21
20.480512917631547
31
0
0
LINE
5
384
100
AcDbEntity
8
0
100
AcDbLine
10
7.1653368821313679
20
20.401282917631548
30
0
11
7.1577914021313678
21
20.397509757631546
31
0
0
LINE
5
385
100
AcDbEntity
8
0
100
AcDbLine
10
7.2785229221313665
20
20.446557117631549
30
0
11
7.267204402131366
21
20.442784077631554
31
0
0
LINE
5
386
100
AcDbEntity
8
0
100
AcDbLine
10
7.3682386421313657
20
20.495604117631551
30
0
11
7.3615259621313651
21
20.49183143763155
31
0
0
LINE
5
387
100
AcDbEntity
8
0
100
AcDbLine
10
7.3803899621313667
20
20.503149957631546
30
0
11
7.3682386421313657
21
20.495604117631551
31
0
0
LINE
5
388
100
AcDbEntity
8
0
100
AcDbLine
10
7.2332483621313699
20
20.427692757631551
30
0
11
7.2257027621313679
21
20.423919957631551
31
0
0
LINE
5
389
100
AcDbEntity
8
0
100
AcDbLine
10
7.2257027621313679
20
20.423919957631551
30
0
11
7.21438424213137
21
20.420146917631548
31
0
0
LINE
5
390
100
AcDbEntity
8
0
100
AcDbLine
10
7.2030657221313668
20
20.416374237631551
30
0
11
7.1955198821313697
21
20.41260107763155
31
0
0
LINE
5
391
100
AcDbEntity
8
0
100
AcDbLine
10
7.1389270421313675
20
20.389963917631551
30
0
11
7.1276084021313686
21
20.38619123763155
31
0
0
LINE
5
392
100
AcDbEntity
8
0
100
AcDbLine
10
7.1879744021313696
20
20.408828397631549
30
0
11
7.1766554021313684
21
20.405055597631549
31
0
0
LINE
5
393
100
AcDbEntity
8
0
100
AcDbLine
10
7.3539801221313654
20
20.48805863763155
30
0
11
7.3464342821313666
21
20.484285597631551
31
0
0
LINE
5
394
100
AcDbEntity
8
0
100
AcDbLine
10
7.3917089621313643
20
20.510695437631547
30
0
11
7.3803899621313667
21
20.503149957631546
31
0
0
LINE
5
395
100
AcDbEntity
8
0
100
AcDbLine
10
7.2407940821313677
20
20.431465437631545
30
0
11
7.2332483621313699
21
20.427692757631551
31
0
0
LINE
5
396
100
AcDbEntity
8
0
100
AcDbLine
10
7.1276084021313686
20
20.38619123763155
30
0
11
7.1200625621313689
21
20.382418437631546
31
0
0
LINE
5
397
100
AcDbEntity
8
0
100
AcDbLine
10
7.0068768821313698
20
20.340916917631549
30
0
11
6.9917852021313678
21
20.337143877631547
31
0
0
LINE
5
398
100
AcDbEntity
8
0
100
AcDbLine
10
7.0672425221313686
20
20.363554077631552
30
0
11
7.0559238821313697
21
20.359781277631551
31
0
0
LINE
5
399
100
AcDbEntity
8
0
100
AcDbLine
10
6.8069150021313698
20
20.284323717631551
30
0
11
6.7880506421313704
21
20.28055103763155
31
0
0
LINE
5
400
100
AcDbEntity
8
0
100
AcDbLine
10
6.1730738021313698
20
21.069079437631547
30
0
11
6.1768469621313686
21
21.080398317631548
31
0
0
LINE
5
401
100
AcDbEntity
8
0
100
AcDbLine
10
6.1277998421313695
20
20.812524957631549
30
0
11
6.1315726421313697
21
20.84270795763155
31
0
0
LINE
5
402
100
AcDbEntity
8
0
100
AcDbLine
10
6.1428911621313702
20
20.925710637631553
30
0
11
6.1466639621313695
21
20.94457535763155
31
0
0
LINE
5
403
100
AcDbEntity
8
0
100
AcDbLine
10
6.1542098021313691
20
20.28055103763155
30
0
11
6.1483790021313682
21
20.284323717631551
31
0
0
LINE
5
404
100
AcDbEntity
8
0
100
AcDbLine
10
6.1353453221313679
20
20.872890957631547
30
0
11
6.1391181221313671
21
20.899300797631547
31
0
0
LINE
5
405
100
AcDbEntity
8
0
100
AcDbLine
10
7.4030271221313662
20
20.518241277631549
30
0
11
7.3917089621313643
21
20.510695437631547
31
0
0
LINE
5
406
100
AcDbEntity
8
0
100
AcDbLine
10
7.4136650021313644
20
20.525787117631552
30
0
11
7.4030271221313662
21
20.518241277631549
31
0
0
LINE
5
407
100
AcDbEntity
8
0
100
AcDbLine
10
7.0446053621313691
20
20.356008237631549
30
0
11
7.0332868421313695
21
20.352235557631548
31
0
0
LINE
5
408
100
AcDbEntity
8
0
100
AcDbLine
10
6.976693882131368
20
20.333371077631554
30
0
11
6.9653753621313701
21
20.329598397631546
31
0
0
LINE
5
409
100
AcDbEntity
8
0
100
AcDbLine
10
6.8559620021313705
20
20.29564235763155
30
0
11
6.8408706821313672
21
20.29186955763155
31
0
0
LINE
5
410
100
AcDbEntity
8
0
100
AcDbLine
10
6.871053682131369
20
20.299415397631552
30
0
11
6.8559620021313705
21
20.29564235763155
31
0
0
LINE
5
411
100
AcDbEntity
8
0
100
AcDbLine
10
7.0144223621313699
20
20.344689717631546
30
0
11
7.0068768821313698
21
20.340916917631549
31
0
0
LINE
5
412
100
AcDbEntity
8
0
100
AcDbLine
10
6.9087825221313679
20
20.310733917631548
30
0
11
6.8974636421313686
21
20.306961237631548
31
0
0
LINE
5
413
100
AcDbEntity
8
0
100
AcDbLine
10
6.7880506421313704
20
20.28055103763155
30
0
11
6.7616408021313701
21
20.276777877631549
31
0
0
LINE
5
414
100
AcDbEntity
8
0
100
AcDbLine
10
6.7616408021313701
20
20.276777877631549
30
0
11
6.7352306021313675
21
20.273005197631555
31
0
0
LINE
5
415
100
AcDbEntity
8
0
100
AcDbLine
10
7.0898799221313693
20
20.371099557631545
30
0
11
7.0785610421313665
21
20.367327117631547
31
0
0
LINE
5
416
100
AcDbEntity
8
0
100
AcDbLine
10
7.267204402131366
20
20.442784077631554
30
0
11
7.255885762131367
21
20.439011277631547
31
0
0
LINE
5
417
100
AcDbEntity
8
0
100
AcDbLine
10
6.82577936213137
20
20.288096517631548
30
0
11
6.8069150021313698
21
20.284323717631551
31
0
0
LINE
5
418
100
AcDbEntity
8
0
100
AcDbLine
10
6.9653753621313701
20
20.329598397631546
30
0
11
6.9540567221313685
21
20.32582559763155
31
0
0
LINE
5
419
100
AcDbEntity
8
0
100
AcDbLine
10
7.0785610421313665
20
20.367327117631547
30
0
11
7.0672425221313686
21
20.363554077631552
31
0
0
LINE
5
420
100
AcDbEntity
8
0
100
AcDbLine
10
7.1011982021313687
20
20.374872597631548
30
0
11
7.0898799221313693
21
20.371099557631545
31
0
0
LINE
5
421
100
AcDbEntity
8
0
100
AcDbLine
10
7.1125167221313692
20
20.378645397631548
30
0
11
7.1011982021313687
21
20.374872597631548
31
0
0
LINE
5
422
100
AcDbEntity
8
0
100
AcDbLine
10
6.9427382021313679
20
20.322052557631544
30
0
11
6.9314193221313687
21
20.318279757631551
31
0
0
LINE
5
423
100
AcDbEntity
8
0
100
AcDbLine
10
7.255885762131367
20
20.439011277631547
30
0
11
7.2483399221313674
21
20.435238597631553
31
0
0
LINE
5
424
100
AcDbEntity
8
0
100
AcDbLine
10
6.9201010421313685
20
20.314506717631549
30
0
11
6.9087825221313679
21
20.310733917631548
31
0
0
LINE
5
425
100
AcDbEntity
8
0
100
AcDbLine
10
6.8861453621313684
20
20.303188197631552
30
0
11
6.871053682131369
21
20.299415397631552
31
0
0
LINE
5
426
100
AcDbEntity
8
0
100
AcDbLine
10
6.9917852021313678
20
20.337143877631547
30
0
11
6.976693882131368
21
20.333371077631554
31
0
0
LINE
5
427
100
AcDbEntity
8
0
100
AcDbLine
10
6.6446823221313682
20
20.265459717631547
30
0
11
6.4447203221313671
21
20.261686557631545
31
0
0
LINE
5
428
100
AcDbEntity
8
0
100
AcDbLine
10
6.9314193221313687
20
20.318279757631551
30
0
11
6.9201010421313685
21
20.314506717631549
31
0
0
LINE
5
429
100
AcDbEntity
8
0
100
AcDbLine
10
6.8974636421313686
20
20.306961237631548
30
0
11
6.8861453621313684
21
20.303188197631552
31
0
0
LINE
5
430
100
AcDbEntity
8
0
100
AcDbLine
10
7.0559238821313697
20
20.359781277631551
30
0
11
7.0446053621313691
21
20.356008237631549
31
0
0
LINE
5
431
100
AcDbEntity
8
0
100
AcDbLine
10
7.0332868421313695
20
20.352235557631548
30
0
11
7.0219682021313696
21
20.348462757631548
31
0
0
LINE
5
432
100
AcDbEntity
8
0
100
AcDbLine
10
6.9540567221313685
20
20.32582559763155
30
0
11
6.9427382021313679
21
20.322052557631544
31
0
0
LINE
5
433
100
AcDbEntity
8
0
100
AcDbLine
10
6.7352306021313675
20
20.273005197631555
30
0
11
6.6899562821313685
21
20.269232037631546
31
0
0
LINE
5
434
100
AcDbEntity
8
0
100
AcDbLine
10
6.6899562821313685
20
20.269232037631546
30
0
11
6.6446823221313682
21
20.265459717631547
31
0
0
LINE
5
435
100
AcDbEntity
8
0
100
AcDbLine
10
7.1200625621313689
20
20.382418437631546
30
0
11
7.1125167221313692
21
20.378645397631548
31
0
0
LINE
5
436
100
AcDbEntity
8
0
100
AcDbLine
10
7.0219682021313696
20
20.348462757631548
30
0
11
7.0144223621313699
21
20.344689717631546
31
0
0
LINE
5
437
100
AcDbEntity
8
0
100
AcDbLine
10
6.8408706821313672
20
20.29186955763155
30
0
11
6.82577936213137
21
20.288096517631548
31
0
0
LINE
5
438
100
AcDbEntity
8
0
100
AcDbLine
10
6.1617556421313688
20
21.020032077631551
30
0
11
6.1655283221313697
21
21.03889643763155
31
0
0
LINE
5
439
100
AcDbEntity
8
0
100
AcDbLine
10
6.1483790021313682
20
20.284323717631551
30
0
11
6.12402680213137
21
20.308675557631545
31
0
0
LINE
5
440
100
AcDbEntity
8
0
100
AcDbLine
10
6.1542098021313691
20
20.982303357631551
30
0
11
6.15798248213137
21
21.001168077631554
31
0
0
LINE
5
441
100
AcDbEntity
8
0
100
AcDbLine
10
6.1655284421313681
20
20.276777877631549
30
0
11
6.1542098021313691
21
20.28055103763155
31
0
0
LINE
5
442
100
AcDbEntity
8
0
100
AcDbLine
10
6.1768469621313686
20
21.080398317631548
30
0
11
6.1806196421313695
21
21.091716597631553
31
0
0
LINE
5
443
100
AcDbEntity
8
0
100
AcDbLine
10
6.1806196421313695
20
21.091716597631553
30
0
11
6.1843926821313664
21
21.103035477631551
31
0
0
LINE
5
444
100
AcDbEntity
8
0
100
AcDbLine
10
6.1164809621313676
20
20.699339277631548
30
0
11
6.1202541221313691
21
20.744613597631549
31
0
0
LINE
5
445
100
AcDbEntity
8
0
100
AcDbLine
10
6.4447203221313671
20
20.261686557631545
30
0
11
6.2447583221313687
21
20.265459717631547
31
0
0
LINE
5
446
100
AcDbEntity
8
0
100
AcDbLine
10
6.1466639621313695
20
20.94457535763155
30
0
11
6.1504366421313676
21
20.963439357631547
31
0
0
LINE
5
447
100
AcDbEntity
8
0
100
AcDbLine
10
6.1768469621313686
20
20.273005197631555
30
0
11
6.1655284421313681
21
20.276777877631549
31
0
0
LINE
5
448
100
AcDbEntity
8
0
100
AcDbLine
10
6.12402680213137
20
20.778569277631551
30
0
11
6.1277998421313695
21
20.812524957631549
31
0
0
LINE
5
449
100
AcDbEntity
8
0
100
AcDbLine
10
6.1164809621313676
20
20.329598037631552
30
0
11
6.1127082821313694
21
20.344689357631548
31
0
0
LINE
5
450
100
AcDbEntity
8
0
100
AcDbLine
10
6.15798248213137
20
21.001168077631554
30
0
11
6.1617556421313688
21
21.020032077631551
31
0
0
LINE
5
451
100
AcDbEntity
8
0
100
AcDbLine
10
6.1127082821313694
20
20.344689357631548
30
0
11
6.1089351221313679
21
20.499377757631553
31
0
0
LINE
5
452
100
AcDbEntity
8
0
100
AcDbLine
10
6.12402680213137
20
20.308675557631545
30
0
11
6.1202541221313691
21
20.314506717631549
31
0
0
LINE
5
453
100
AcDbEntity
8
0
100
AcDbLine
10
6.1843926821313664
20
21.103035477631551
30
0
11
6.1881654821313692
21
21.114354117631549
31
0
0
LINE
5
454
100
AcDbEntity
8
0
100
AcDbLine
10
6.1504366421313676
20
20.963439357631547
30
0
11
6.1542098021313691
21
20.982303357631551
31
0
0
LINE
5
455
100
AcDbEntity
8
0
100
AcDbLine
10
6.2447583221313687
20
20.265459717631547
30
0
11
6.2108026421313687
21
20.269232037631546
31
0
0
LINE
5
456
100
AcDbEntity
8
0
100
AcDbLine
10
6.1391181221313671
20
20.899300797631547
30
0
11
6.1428911621313702
21
20.925710637631553
31
0
0
LINE
5
457
100
AcDbEntity
8
0
100
AcDbLine
10
6.2108026421313687
20
20.269232037631546
30
0
11
6.1768469621313686
21
20.273005197631555
31
0
0
LINE
5
458
100
AcDbEntity
8
0
100
AcDbLine
10
6.3051239621313702
20
21.393545637631547
30
0
11
6.3088970021313679
21
21.40109147763155
31
0
0
LINE
5
459
100
AcDbEntity
8
0
100
AcDbLine
10
6.2673958421313669
20
21.310542837631548
30
0
11
6.2711681621313691
21
21.31808867763155
31
0
0
LINE
5
460
100
AcDbEntity
8
0
100
AcDbLine
10
6.1655283221313697
20
21.03889643763155
30
0
11
6.1693011221313689
21
21.05398775763155
31
0
0
LINE
5
461
100
AcDbEntity
8
0
100
AcDbLine
10
6.1089351221313679
20
20.499377757631553
30
0
11
6.1127082821313694
21
20.654064957631551
31
0
0
LINE
5
462
100
AcDbEntity
8
0
100
AcDbLine
10
6.1202541221313691
20
20.744613597631549
30
0
11
6.12402680213137
21
20.778569277631551
31
0
0
LINE
5
463
100
AcDbEntity
8
0
100
AcDbLine
10
6.1202541221313691
20
20.314506717631549
30
0
11
6.1164809621313676
21
20.329598037631552
31
0
0
LINE
5
464
100
AcDbEntity
8
0
100
AcDbLine
10
6.1693011221313689
20
21.05398775763155
30
0
11
6.1730738021313698
21
21.069079437631547
31
0
0
LINE
5
465
100
AcDbEntity
8
0
100
AcDbLine
10
6.1315726421313697
20
20.84270795763155
30
0
11
6.1353453221313679
21
20.872890957631547
31
0
0
LINE
5
466
100
AcDbEntity
8
0
100
AcDbLine
10
6.1127082821313694
20
20.654064957631551
30
0
11
6.1164809621313676
21
20.699339277631548
31
0
0
LINE
5
467
100
AcDbEntity
8
0
100
AcDbLine
10
6.2372124821313664
20
21.242631477631551
30
0
11
6.2409855221313686
21
21.250177197631551
31
0
0
LINE
5
468
100
AcDbEntity
8
0
100
AcDbLine
10
6.19193816213137
20
21.125672637631553
30
0
11
6.1957113221313689
21
21.136991157631549
31
0
0
LINE
5
469
100
AcDbEntity
8
0
100
AcDbLine
10
6.2485310021313696
20
21.272813997631548
30
0
11
6.2523041621313684
21
21.280359837631551
31
0
0
LINE
5
470
100
AcDbEntity
8
0
100
AcDbLine
10
6.2938056821313708
20
21.370908477631549
30
0
11
6.2975784821313674
21
21.378454317631551
31
0
0
LINE
5
471
100
AcDbEntity
8
0
100
AcDbLine
10
6.1957113221313689
20
21.136991157631549
30
0
11
6.1994840021313697
21
21.148309797631551
31
0
0
LINE
5
472
100
AcDbEntity
8
0
100
AcDbLine
10
6.2145753221313695
20
21.18603827763155
30
0
11
6.2183484821313684
21
21.197356797631553
31
0
0
LINE
5
473
100
AcDbEntity
8
0
100
AcDbLine
10
6.2711681621313691
20
21.31808867763155
30
0
11
6.2749413221313679
21
21.329406957631548
31
0
0
LINE
5
474
100
AcDbEntity
8
0
100
AcDbLine
10
6.2598500021313672
20
21.295451157631547
30
0
11
6.263622682131369
21
21.302996997631549
31
0
0
LINE
5
475
100
AcDbEntity
8
0
100
AcDbLine
10
6.1994840021313697
20
21.148309797631551
30
0
11
6.203256802131369
21
21.159628317631547
31
0
0
LINE
5
476
100
AcDbEntity
8
0
100
AcDbLine
10
6.2523041621313684
20
21.280359837631551
30
0
11
6.2560768421313693
21
21.287905317631552
31
0
0
LINE
5
477
100
AcDbEntity
8
0
100
AcDbLine
10
6.2221211621313692
20
21.204902637631548
30
0
11
6.2258943221313707
21
21.212448477631543
31
0
0
LINE
5
478
100
AcDbEntity
8
0
100
AcDbLine
10
6.1881654821313692
20
21.114354117631549
30
0
11
6.19193816213137
21
21.125672637631553
31
0
0
LINE
5
479
100
AcDbEntity
8
0
100
AcDbLine
10
6.2560768421313693
20
21.287905317631552
30
0
11
6.2598500021313672
21
21.295451157631547
31
0
0
LINE
5
480
100
AcDbEntity
8
0
100
AcDbLine
10
6.2824871621313676
20
21.348271677631551
30
0
11
6.2862598421313685
21
21.355817157631545
31
0
0
LINE
5
481
100
AcDbEntity
8
0
100
AcDbLine
10
6.2862598421313685
20
21.355817157631545
30
0
11
6.2900326421313677
21
21.363362997631548
31
0
0
LINE
5
482
100
AcDbEntity
8
0
100
AcDbLine
10
6.2334398021313682
20
21.235085637631549
30
0
11
6.2372124821313664
21
21.242631477631551
31
0
0
LINE
5
483
100
AcDbEntity
8
0
100
AcDbLine
10
6.2409855221313686
20
21.250177197631551
30
0
11
6.2447583221313687
21
21.261495477631545
31
0
0
LINE
5
484
100
AcDbEntity
8
0
100
AcDbLine
10
6.2108026421313687
20
21.174719637631551
30
0
11
6.2145753221313695
21
21.18603827763155
31
0
0
LINE
5
485
100
AcDbEntity
8
0
100
AcDbLine
10
6.169261522131368
20
24.396742677631547
30
0
11
6.2108030021313674
21
24.43447151763154
31
0
0
LINE
5
486
100
AcDbEntity
8
0
100
AcDbLine
10
6.8936907221313675
20
22.431082557631548
30
0
11
6.8899175621313686
21
22.615952157631551
31
0
0
LINE
5
487
100
AcDbEntity
8
0
100
AcDbLine
10
6.8823720821313685
20
22.125481437631549
30
0
11
6.88614524213137
21
22.185847077631554
31
0
0
LINE
5
488
100
AcDbEntity
8
0
100
AcDbLine
10
6.8748262421313688
20
22.736683557631547
30
0
11
6.8710535621313706
21
22.748002077631551
31
0
0
LINE
5
489
100
AcDbEntity
8
0
100
AcDbLine
10
6.8785994021313677
20
22.717819197631545
30
0
11
6.8748262421313688
21
22.736683557631547
31
0
0
LINE
5
490
100
AcDbEntity
8
0
100
AcDbLine
10
6.88614524213137
20
22.657453677631548
30
0
11
6.8823720821313685
21
22.698955197631548
31
0
0
LINE
5
491
100
AcDbEntity
8
0
100
AcDbLine
10
6.3541716821313683
20
23.295066957631541
30
0
11
6.350398882131369
21
23.302612797631543
31
0
0
LINE
5
492
100
AcDbEntity
8
0
100
AcDbLine
10
6.3579447221313687
20
23.287521477631543
30
0
11
6.3541716821313683
21
23.295066957631541
31
0
0
LINE
5
493
100
AcDbEntity
8
0
100
AcDbLine
10
6.8899175621313686
20
22.246212957631553
30
0
11
6.8936907221313675
21
22.431082557631548
31
0
0
LINE
5
494
100
AcDbEntity
8
0
100
AcDbLine
10
6.8823720821313685
20
22.698955197631548
30
0
11
6.8785994021313677
21
22.717819197631545
31
0
0
LINE
5
495
100
AcDbEntity
8
0
100
AcDbLine
10
6.3428530421313667
20
23.317704117631546
30
0
11
6.3390803621313685
21
23.325249957631545
31
0
0
LINE
5
496
100
AcDbEntity
8
0
100
AcDbLine
10
6.4183103621313675
20
23.185654077631547
30
0
11
6.4107645221313678
21
23.196972717631549
31
0
0
LINE
5
497
100
AcDbEntity
8
0
100
AcDbLine
10
6.3466258421313659
20
23.310158637631542
30
0
11
6.3428530421313667
21
23.317704117631546
31
0
0
LINE
5
498
100
AcDbEntity
8
0
100
AcDbLine
10
6.350398882131369
20
23.302612797631543
30
0
11
6.3466258421313659
21
23.310158637631542
31
0
0
LINE
5
499
100
AcDbEntity
8
0
100
AcDbLine
10
6.8899175621313686
20
22.615952157631551
30
0
11
6.88614524213137
21
22.657453677631548
31
0
0
LINE
5
500
100
AcDbEntity
8
0
100
AcDbLine
10
6.88614524213137
20
22.185847077631554
30
0
11
6.8899175621313686
21
22.246212957631553
31
0
0
LINE
5
501
100
AcDbEntity
8
0
100
AcDbLine
10
6.4032190421313677
20
23.208291237631549
30
0
11
6.395673202131368
21
23.220442917631537
31
0
0
LINE
5
502
100
AcDbEntity
8
0
100
AcDbLine
10
6.3730360421313685
20
23.261111277631539
30
0
11
6.3654905621313684
21
23.273262597631543
31
0
0
LINE
5
503
100
AcDbEntity
8
0
100
AcDbLine
10
6.456039082131368
20
23.129364117631553
30
0
11
6.4447205621313675
21
23.144152677631542
31
0
0
LINE
5
504
100
AcDbEntity
8
0
100
AcDbLine
10
6.361717522131368
20
23.279975637631544
30
0
11
6.3579447221313687
21
23.287521477631543
31
0
0
LINE
5
505
100
AcDbEntity
8
0
100
AcDbLine
10
6.3881273621313683
20
23.234701077631541
30
0
11
6.3843546821313701
21
23.24224691763154
31
0
0
LINE
5
506
100
AcDbEntity
8
0
100
AcDbLine
10
6.5239505621313691
20
23.068695357631547
30
0
11
6.5164047221313695
21
23.07246839763155
31
0
0
LINE
5
507
100
AcDbEntity
8
0
100
AcDbLine
10
6.4447205621313675
20
23.144152677631542
30
0
11
6.4334020421313669
21
23.160757797631547
31
0
0
LINE
5
508
100
AcDbEntity
8
0
100
AcDbLine
10
6.5164047221313695
20
23.07246839763155
30
0
11
6.510675442131368
21
23.07624119763155
31
0
0
LINE
5
509
100
AcDbEntity
8
0
100
AcDbLine
10
6.4107645221313678
20
23.196972717631549
30
0
11
6.4032190421313677
21
23.208291237631549
31
0
0
LINE
5
510
100
AcDbEntity
8
0
100
AcDbLine
10
6.3277617221313696
20
23.347887117631544
30
0
11
6.3239890421313687
21
23.355432957631539
31
0
0
LINE
5
511
100
AcDbEntity
8
0
100
AcDbLine
10
6.4258562021313672
20
23.173502757631546
30
0
11
6.4183103621313675
21
23.185654077631547
31
0
0
LINE
5
512
100
AcDbEntity
8
0
100
AcDbLine
10
6.3843546821313701
20
23.24224691763154
30
0
11
6.3805818821313709
21
23.248959957631541
31
0
0
LINE
5
513
100
AcDbEntity
8
0
100
AcDbLine
10
6.395673202131368
20
23.220442917631537
30
0
11
6.3919004021313688
21
23.22715559763154
31
0
0
LINE
5
514
100
AcDbEntity
8
0
100
AcDbLine
10
6.3353075621313693
20
23.332795437631539
30
0
11
6.3315345221313688
21
23.340341277631541
31
0
0
LINE
5
515
100
AcDbEntity
8
0
100
AcDbLine
10
6.3805818821313709
20
23.248959957631541
30
0
11
6.3730360421313685
21
23.261111277631539
31
0
0
LINE
5
516
100
AcDbEntity
8
0
100
AcDbLine
10
6.3315345221313688
20
23.340341277631541
30
0
11
6.3277617221313696
21
23.347887117631544
31
0
0
LINE
5
517
100
AcDbEntity
8
0
100
AcDbLine
10
6.8710535621313706
20
22.748002077631551
30
0
11
6.8672807621313705
21
22.759320717631553
31
0
0
LINE
5
518
100
AcDbEntity
8
0
100
AcDbLine
10
6.3654905621313684
20
23.273262597631543
30
0
11
6.361717522131368
21
23.279975637631544
31
0
0
LINE
5
519
100
AcDbEntity
8
0
100
AcDbLine
10
6.3390803621313685
20
23.325249957631545
30
0
11
6.3353075621313693
21
23.332795437631539
31
0
0
LINE
5
520
100
AcDbEntity
8
0
100
AcDbLine
10
6.3239890421313687
20
23.355432957631539
30
0
11
6.3202160021313682
21
23.362978437631536
31
0
0
LINE
5
521
100
AcDbEntity
8
0
100
AcDbLine
10
6.3919004021313688
20
23.22715559763154
30
0
11
6.3881273621313683
21
23.234701077631541
31
0
0
LINE
5
522
100
AcDbEntity
8
0
100
AcDbLine
10
6.5314964021313688
20
23.064922557631551
30
0
11
6.5239505621313691
21
23.068695357631547
31
0
0
LINE
5
523
100
AcDbEntity
8
0
100
AcDbLine
10
6.2409860021313692
20
23.551621677631545
30
0
11
6.2372128421313677
21
23.562940317631547
31
0
0
LINE
5
524
100
AcDbEntity
8
0
100
AcDbLine
10
6.4334020421313669
20
23.160757797631547
30
0
11
6.4296288821313707
21
23.166789717631548
31
0
0
LINE
5
525
100
AcDbEntity
8
0
100
AcDbLine
10
6.510675442131368
20
23.07624119763155
30
0
11
6.456039082131368
21
23.129364117631553
31
0
0
LINE
5
526
100
AcDbEntity
8
0
100
AcDbLine
10
6.2334401621313669
20
23.574258837631543
30
0
11
6.2296673621313703
21
23.585577477631546
31
0
0
LINE
5
527
100
AcDbEntity
8
0
100
AcDbLine
10
6.2258946821313694
20
23.596895997631542
30
0
11
6.2221215221313679
21
23.611987677631536
31
0
0
LINE
5
528
100
AcDbEntity
8
0
100
AcDbLine
10
6.2221215221313679
20
23.611987677631536
30
0
11
6.2183488421313671
21
23.627078997631546
31
0
0
LINE
5
529
100
AcDbEntity
8
0
100
AcDbLine
10
6.4296288821313707
20
23.166789717631548
30
0
11
6.4258562021313672
21
23.173502757631546
31
0
0
LINE
5
530
100
AcDbEntity
8
0
100
AcDbLine
10
6.2183488421313671
20
23.627078997631546
30
0
11
6.2145756821313682
21
23.642170317631543
31
0
0
LINE
5
531
100
AcDbEntity
8
0
100
AcDbLine
10
6.2032571621313712
20
23.687444997631545
30
0
11
6.1994843621313684
21
23.706308997631549
31
0
0
LINE
5
532
100
AcDbEntity
8
0
100
AcDbLine
10
6.3202160021313682
20
23.362978437631536
30
0
11
6.316443202131369
21
23.370524277631542
31
0
0
LINE
5
533
100
AcDbEntity
8
0
100
AcDbLine
10
6.2145756821313682
20
23.642170317631543
30
0
11
6.2108030021313674
21
23.65726199763154
31
0
0
LINE
5
534
100
AcDbEntity
8
0
100
AcDbLine
10
6.3051243221313698
20
23.393161437631544
30
0
11
6.3013518821313692
21
23.40070727763154
31
0
0
LINE
5
535
100
AcDbEntity
8
0
100
AcDbLine
10
6.2523045221313698
20
23.517665997631546
30
0
11
6.2485314821313676
21
23.528984637631542
31
0
0
LINE
5
536
100
AcDbEntity
8
0
100
AcDbLine
10
6.2447586821313701
20
23.540303157631541
30
0
11
6.2409860021313692
21
23.551621677631545
31
0
0
LINE
5
537
100
AcDbEntity
8
0
100
AcDbLine
10
6.316443202131369
20
23.370524277631542
30
0
11
6.3126701621313694
21
23.378070117631541
31
0
0
LINE
5
538
100
AcDbEntity
8
0
100
AcDbLine
10
6.3126701621313694
20
23.378070117631541
30
0
11
6.3088973621313693
21
23.385615957631547
31
0
0
LINE
5
539
100
AcDbEntity
8
0
100
AcDbLine
10
6.3088973621313693
20
23.385615957631547
30
0
11
6.3051243221313698
21
23.393161437631544
31
0
0
LINE
5
540
100
AcDbEntity
8
0
100
AcDbLine
10
6.2787143621313675
20
23.445981477631545
30
0
11
6.2749416821313693
21
23.457300117631544
31
0
0
LINE
5
541
100
AcDbEntity
8
0
100
AcDbLine
10
6.282487522131369
20
23.438435637631542
30
0
11
6.2787143621313675
21
23.445981477631545
31
0
0
LINE
5
542
100
AcDbEntity
8
0
100
AcDbLine
10
6.2673962021313692
20
23.476164477631542
30
0
11
6.2636230421313677
21
23.483710317631544
31
0
0
LINE
5
543
100
AcDbEntity
8
0
100
AcDbLine
10
6.2485314821313676
20
23.528984637631542
30
0
11
6.2447586821313701
21
23.540303157631541
31
0
0
LINE
5
544
100
AcDbEntity
8
0
100
AcDbLine
10
6.2372128421313677
20
23.562940317631547
30
0
11
6.2334401621313669
21
23.574258837631543
31
0
0
LINE
5
545
100
AcDbEntity
8
0
100
AcDbLine
10
6.2070298421313685
20
23.672353317631543
30
0
11
6.2032571621313712
21
23.687444997631545
31
0
0
LINE
5
546
100
AcDbEntity
8
0
100
AcDbLine
10
6.2296673621313703
20
23.585577477631546
30
0
11
6.2258946821313694
21
23.596895997631542
31
0
0
LINE
5
547
100
AcDbEntity
8
0
100
AcDbLine
10
6.3013518821313692
20
23.40070727763154
30
0
11
6.2975788421313688
21
23.408252997631543
31
0
0
LINE
5
548
100
AcDbEntity
8
0
100
AcDbLine
10
6.2636230421313677
20
23.483710317631544
30
0
11
6.2598503621313695
21
23.495028597631539
31
0
0
LINE
5
549
100
AcDbEntity
8
0
100
AcDbLine
10
6.2108030021313674
20
23.65726199763154
30
0
11
6.2070298421313685
21
23.672353317631543
31
0
0
LINE
5
550
100
AcDbEntity
8
0
100
AcDbLine
10
6.2711685221313678
20
23.468618637631547
30
0
11
6.2673962021313692
21
23.476164477631542
31
0
0
LINE
5
551
100
AcDbEntity
8
0
100
AcDbLine
10
6.256077202131368
20
23.506347477631543
30
0
11
6.2523045221313698
21
23.517665997631546
31
0
0
LINE
5
552
100
AcDbEntity
8
0
100
AcDbLine
10
6.2975788421313688
20
23.408252997631543
30
0
11
6.2938060421313669
21
23.415798597631543
31
0
0
LINE
5
553
100
AcDbEntity
8
0
100
AcDbLine
10
6.29003300213137
20
23.423344317631546
30
0
11
6.2862602021313698
21
23.430889917631546
31
0
0
LINE
5
554
100
AcDbEntity
8
0
100
AcDbLine
10
6.2598503621313695
20
23.495028597631539
30
0
11
6.256077202131368
21
23.506347477631543
31
0
0
LINE
5
555
100
AcDbEntity
8
0
100
AcDbLine
10
6.2938060421313669
20
23.415798597631543
30
0
11
6.29003300213137
21
23.423344317631546
31
0
0
LINE
5
556
100
AcDbEntity
8
0
100
AcDbLine
10
6.2749416821313693
20
23.457300117631544
30
0
11
6.2711685221313678
21
23.468618637631547
31
0
0
LINE
5
557
100
AcDbEntity
8
0
100
AcDbLine
10
6.2862602021313698
20
23.430889917631546
30
0
11
6.282487522131369
21
23.438435637631542
31
0
0
LINE
5
558
100
AcDbEntity
8
0
100
AcDbLine
10
9.6176987621313668
20
22.725362157631551
30
0
11
9.6139257221313663
21
22.714043157631547
31
0
0
LINE
5
559
100
AcDbEntity
8
0
100
AcDbLine
10
9.5988340421313669
20
22.532946357631552
30
0
11
9.5950616021313664
21
22.393350357631551
31
0
0
LINE
5
560
100
AcDbEntity
8
0
100
AcDbLine
10
9.6441087221313655
20
22.781954997631548
30
0
11
9.6403355621313658
21
22.774409157631553
31
0
0
LINE
5
561
100
AcDbEntity
8
0
100
AcDbLine
10
9.6214715621313651
20
22.736680677631547
30
0
11
9.6176987621313668
21
22.725362157631551
31
0
0
LINE
5
562
100
AcDbEntity
8
0
100
AcDbLine
10
9.6101530421313655
20
22.695179157631543
30
0
11
9.6063798821313657
21
22.676314797631548
31
0
0
LINE
5
563
100
AcDbEntity
8
0
100
AcDbLine
10
9.6629730821313657
20
22.818850677631549
30
0
11
9.6592004021313649
21
22.812137997631549
31
0
0
LINE
5
564
100
AcDbEntity
8
0
100
AcDbLine
10
9.6516545621313679
20
22.797046317631551
30
0
11
9.6478814021313664
21
22.789500477631549
31
0
0
LINE
5
565
100
AcDbEntity
8
0
100
AcDbLine
10
9.6554272421313652
20
22.804592157631546
30
0
11
9.6516545621313679
21
22.797046317631551
31
0
0
LINE
5
566
100
AcDbEntity
8
0
100
AcDbLine
10
9.6290174021313657
20
22.75177199763155
30
0
11
9.625244242131366
21
22.744226517631546
31
0
0
LINE
5
567
100
AcDbEntity
8
0
100
AcDbLine
10
9.5988340421313669
20
22.25375435763155
30
0
11
9.6026070821313638
21
22.219798677631548
31
0
0
LINE
5
568
100
AcDbEntity
8
0
100
AcDbLine
10
9.6365628821313649
20
22.766863677631545
30
0
11
9.6327900821313666
21
22.759317837631549
31
0
0
LINE
5
569
100
AcDbEntity
8
0
100
AcDbLine
10
9.6327900821313666
20
22.759317837631549
30
0
11
9.6290174021313657
21
22.75177199763155
31
0
0
LINE
5
570
100
AcDbEntity
8
0
100
AcDbLine
10
9.6592004021313649
20
22.812137997631549
30
0
11
9.6554272421313652
21
22.804592157631546
31
0
0
LINE
5
571
100
AcDbEntity
8
0
100
AcDbLine
10
9.625244242131366
20
22.744226517631546
30
0
11
9.6214715621313651
21
22.736680677631547
31
0
0
LINE
5
572
100
AcDbEntity
8
0
100
AcDbLine
10
9.8968905221313666
20
21.763281957631548
30
0
11
9.9044360021313658
21
21.759509277631548
31
0
0
LINE
5
573
100
AcDbEntity
8
0
100
AcDbLine
10
9.6101529221313662
20
22.159432797631549
30
0
11
9.6139257221313663
21
22.13302295763155
31
0
0
LINE
5
574
100
AcDbEntity
8
0
100
AcDbLine
10
9.6365627621313674
20
22.042473957631547
30
0
11
9.6403355621313658
21
22.02738263763155
31
0
0
LINE
5
575
100
AcDbEntity
8
0
100
AcDbLine
10
9.6441086021313644
20
22.012290957631553
30
0
11
9.6478814021313664
21
21.982108317631553
31
0
0
LINE
5
576
100
AcDbEntity
8
0
100
AcDbLine
10
9.6714729221313647
20
21.906650757631546
30
0
11
9.6715228634231707
21
21.906614398002649
31
0
0
LINE
5
577
100
AcDbEntity
8
0
100
AcDbLine
10
9.6214715621313651
20
22.102839957631552
30
0
11
9.625244242131366
21
22.087748277631547
31
0
0
LINE
5
578
100
AcDbEntity
8
0
100
AcDbLine
10
9.8365246421313657
20
21.789692157631549
30
0
11
9.8478431621313671
21
21.785919477631548
31
0
0
LINE
5
579
100
AcDbEntity
8
0
100
AcDbLine
10
9.625244242131366
20
22.087748277631547
30
0
11
9.6290172821313664
21
22.072656957631551
31
0
0
LINE
5
580
100
AcDbEntity
8
0
100
AcDbLine
10
9.6327900821313666
20
22.057565637631548
30
0
11
9.6365627621313674
21
22.042473957631547
31
0
0
LINE
5
581
100
AcDbEntity
8
0
100
AcDbLine
10
9.6063798821313657
20
22.18584299763155
30
0
11
9.6101529221313662
21
22.159432797631549
31
0
0
LINE
5
582
100
AcDbEntity
8
0
100
AcDbLine
10
9.6063798821313657
20
22.676314797631548
30
0
11
9.6026072021313649
21
22.664996277631552
31
0
0
LINE
5
583
100
AcDbEntity
8
0
100
AcDbLine
10
9.6026070821313638
20
22.219798677631548
30
0
11
9.6063798821313657
21
22.18584299763155
31
0
0
LINE
5
584
100
AcDbEntity
8
0
100
AcDbLine
10
9.6403355621313658
20
22.02738263763155
30
0
11
9.6441086021313644
21
22.012290957631553
31
0
0
LINE
5
585
100
AcDbEntity
8
0
100
AcDbLine
10
9.8591618021313661
20
21.782146437631546
30
0
11
9.8667076421313649
21
21.778373637631553
31
0
0
LINE
5
586
100
AcDbEntity
8
0
100
AcDbLine
10
9.9044360021313658
20
21.759509277631548
30
0
11
9.9119818421313663
21
21.755736477631547
31
0
0
LINE
5
587
100
AcDbEntity
8
0
100
AcDbLine
10
9.6290172821313664
20
22.072656957631551
30
0
11
9.6327900821313666
21
22.057565637631548
31
0
0
LINE
5
588
100
AcDbEntity
8
0
100
AcDbLine
10
9.8176602821313637
20
21.793464957631549
30
0
11
9.8365246421313657
21
21.789692157631549
31
0
0
LINE
5
589
100
AcDbEntity
8
0
100
AcDbLine
10
9.8478431621313671
20
21.785919477631548
30
0
11
9.8591618021313661
21
21.782146437631546
31
0
0
LINE
5
590
100
AcDbEntity
8
0
100
AcDbLine
10
9.889344682131366
20
21.767054757631552
30
0
11
9.8968905221313666
21
21.763281957631548
31
0
0
LINE
5
591
100
AcDbEntity
8
0
100
AcDbLine
10
9.8817989621313664
20
21.770827797631544
30
0
11
9.889344682131366
21
21.767054757631552
31
0
0
LINE
5
592
100
AcDbEntity
8
0
100
AcDbLine
10
9.8742531221313659
20
21.774600597631551
30
0
11
9.8817989621313664
21
21.770827797631544
31
0
0
LINE
5
593
100
AcDbEntity
8
0
100
AcDbLine
10
9.6139257221313663
20
22.13302295763155
30
0
11
9.6176987621313668
21
22.117931277631548
31
0
0
LINE
5
594
100
AcDbEntity
8
0
100
AcDbLine
10
9.6176987621313668
20
22.117931277631548
30
0
11
9.6214715621313651
21
22.102839957631552
31
0
0
LINE
5
595
100
AcDbEntity
8
0
100
AcDbLine
10
10.206265042131365
20
21.367131237631551
30
0
11
10.210038202131367
21
21.348267237631546
31
0
0
LINE
5
596
100
AcDbEntity
8
0
100
AcDbLine
10
10.232675362131365
20
21.265264077631549
30
0
11
10.236448042131364
21
21.253945557631546
31
0
0
LINE
5
597
100
AcDbEntity
8
0
100
AcDbLine
10
9.8667076421313649
20
21.778373637631553
30
0
11
9.8742531221313659
21
21.774600597631551
31
0
0
LINE
5
598
100
AcDbEntity
8
0
100
AcDbLine
10
9.9685748021313678
20
21.718007757631554
30
0
11
9.9872133221313675
21
21.702916437631551
31
0
0
LINE
5
599
100
AcDbEntity
8
0
100
AcDbLine
10
10.051577842131366
20
21.63500459763155
30
0
11
10.062896482131366
21
21.619232517631549
31
0
0
LINE
5
600
100
AcDbEntity
8
0
100
AcDbLine
10
9.9262401221313663
20
21.748190637631552
30
0
11
9.9383921621313647
21
21.74064479763155
31
0
0
LINE
5
601
100
AcDbEntity
8
0
100
AcDbLine
10
10.070442322131365
20
21.608594637631551
30
0
11
10.077988162131364
21
21.597275997631549
31
0
0
LINE
5
602
100
AcDbEntity
8
0
100
AcDbLine
10
10.093079482131364
20
21.573805797631547
30
0
11
10.096852162131366
21
21.567093117631551
31
0
0
LINE
5
603
100
AcDbEntity
8
0
100
AcDbLine
10
10.228902202131364
20
21.276582717631552
30
0
11
10.232675362131365
21
21.265264077631549
31
0
0
LINE
5
604
100
AcDbEntity
8
0
100
AcDbLine
10
10.040259322131366
20
21.649793517631551
30
0
11
10.051577842131366
21
21.63500459763155
31
0
0
LINE
5
605
100
AcDbEntity
8
0
100
AcDbLine
10
9.9195276821313652
20
21.751963437631549
30
0
11
9.9262401221313663
21
21.748190637631552
31
0
0
LINE
5
606
100
AcDbEntity
8
0
100
AcDbLine
10
9.9872133221313675
20
21.702916437631551
30
0
11
10.040259322131366
21
21.649793517631551
31
0
0
LINE
5
607
100
AcDbEntity
8
0
100
AcDbLine
10
10.100625202131365
20
21.561061077631557
30
0
11
10.111943842131364
21
21.544455957631552
31
0
0
LINE
5
608
100
AcDbEntity
8
0
100
AcDbLine
10
9.9383921621313647
20
21.74064479763155
30
0
11
9.9489527621313663
21
21.73309907763155
31
0
0
LINE
5
609
100
AcDbEntity
8
0
100
AcDbLine
10
10.062896482131366
20
21.619232517631549
30
0
11
10.070442322131365
21
21.608594637631551
31
0
0
LINE
5
610
100
AcDbEntity
8
0
100
AcDbLine
10
10.225129522131363
20
21.287901237631548
30
0
11
10.228902202131364
21
21.276582717631552
31
0
0
LINE
5
611
100
AcDbEntity
8
0
100
AcDbLine
10
10.210038202131367
20
21.348267237631546
30
0
11
10.213810882131364
21
21.333175557631549
31
0
0
LINE
5
612
100
AcDbEntity
8
0
100
AcDbLine
10
9.9489527621313663
20
21.73309907763155
30
0
11
9.9685748021313678
21
21.718007757631554
31
0
0
LINE
5
613
100
AcDbEntity
8
0
100
AcDbLine
10
10.213810882131364
20
21.333175557631549
30
0
11
10.217583682131368
21
21.318084237631552
31
0
0
LINE
5
614
100
AcDbEntity
8
0
100
AcDbLine
10
10.077988162131364
20
21.597275997631549
30
0
11
10.085533642131365
21
21.585957477631549
31
0
0
LINE
5
615
100
AcDbEntity
8
0
100
AcDbLine
10
10.085533642131365
20
21.585957477631549
30
0
11
10.093079482131364
21
21.573805797631547
31
0
0
LINE
5
616
100
AcDbEntity
8
0
100
AcDbLine
10
10.096852162131366
20
21.567093117631551
30
0
11
10.100625202131365
21
21.561061077631557
31
0
0
LINE
5
617
100
AcDbEntity
8
0
100
AcDbLine
10
9.9119818421313663
20
21.755736477631547
30
0
11
9.9195276821313652
21
21.751963437631549
31
0
0
LINE
5
618
100
AcDbEntity
8
0
100
AcDbLine
10
10.236448042131364
20
21.253945557631546
30
0
11
10.240221082131367
21
21.242626917631544
31
0
0
LINE
5
619
100
AcDbEntity
8
0
100
AcDbLine
10
10.217583682131368
20
21.318084237631552
30
0
11
10.221356362131365
21
21.302992917631549
31
0
0
LINE
5
620
100
AcDbEntity
8
0
100
AcDbLine
10
10.221356362131365
20
21.302992917631549
30
0
11
10.225129522131363
21
21.287901237631548
31
0
0
LINE
5
621
100
AcDbEntity
8
0
100
AcDbLine
10
10.308132562131366
20
21.046438197631552
30
0
11
10.311905242131367
21
21.031346517631547
31
0
0
LINE
5
622
100
AcDbEntity
8
0
100
AcDbLine
10
10.274176882131366
20
21.148305357631546
30
0
11
10.277949562131367
21
21.136986717631551
31
0
0
LINE
5
623
100
AcDbEntity
8
0
100
AcDbLine
10
10.296814042131365
20
21.08039387763155
30
0
11
10.300586722131365
21
21.069075357631551
31
0
0
LINE
5
624
100
AcDbEntity
8
0
100
AcDbLine
10
10.111943842131364
20
21.544455957631552
30
0
11
10.123262002131366
21
21.529637997631554
31
0
0
LINE
5
625
100
AcDbEntity
8
0
100
AcDbLine
10
10.319450842131365
20
21.001163877631548
30
0
11
10.323223882131366
21
20.986072197631554
31
0
0
LINE
5
626
100
AcDbEntity
8
0
100
AcDbLine
10
10.334542402131365
20
20.895523677631548
30
0
11
10.338315562131365
21
20.857794957631548
31
0
0
LINE
5
627
100
AcDbEntity
8
0
100
AcDbLine
10
10.262857882131367
20
21.182261397631553
30
0
11
10.266631042131365
21
21.170942517631548
31
0
0
LINE
5
628
100
AcDbEntity
8
0
100
AcDbLine
10
10.281722722131365
20
21.125668197631548
30
0
11
10.285495042131364
21
21.114349677631552
31
0
0
LINE
5
629
100
AcDbEntity
8
0
100
AcDbLine
10
10.315678402131365
20
21.016255197631551
30
0
11
10.319450842131365
21
21.001163877631548
31
0
0
LINE
5
630
100
AcDbEntity
8
0
100
AcDbLine
10
10.289268202131366
20
21.103031037631549
30
0
11
10.293040882131367
21
21.091712517631549
31
0
0
LINE
5
631
100
AcDbEntity
8
0
100
AcDbLine
10
10.266631042131365
20
21.170942517631548
30
0
11
10.270403722131364
21
21.15962387763155
31
0
0
LINE
5
632
100
AcDbEntity
8
0
100
AcDbLine
10
10.240221082131367
20
21.242626917631544
30
0
11
10.243993882131367
21
21.231308397631548
31
0
0
LINE
5
633
100
AcDbEntity
8
0
100
AcDbLine
10
10.304359522131366
20
21.057756837631548
30
0
11
10.308132562131366
21
21.046438197631552
31
0
0
LINE
5
634
100
AcDbEntity
8
0
100
AcDbLine
10
10.323223882131366
20
20.986072197631554
30
0
11
10.326996562131367
21
20.959662357631547
31
0
0
LINE
5
635
100
AcDbEntity
8
0
100
AcDbLine
10
10.243993882131367
20
21.231308397631548
30
0
11
10.247766562131364
21
21.219989877631548
31
0
0
LINE
5
636
100
AcDbEntity
8
0
100
AcDbLine
10
10.330769722131365
20
20.933252157631546
30
0
11
10.334542402131365
21
20.895523677631548
31
0
0
LINE
5
637
100
AcDbEntity
8
0
100
AcDbLine
10
10.285495042131364
20
21.114349677631552
30
0
11
10.289268202131366
21
21.103031037631549
31
0
0
LINE
5
638
100
AcDbEntity
8
0
100
AcDbLine
10
10.251539362131368
20
21.208671237631552
30
0
11
10.255312402131366
21
21.197352717631549
31
0
0
LINE
5
639
100
AcDbEntity
8
0
100
AcDbLine
10
10.255312402131366
20
21.197352717631549
30
0
11
10.259085202131367
21
21.189806877631547
31
0
0
LINE
5
640
100
AcDbEntity
8
0
100
AcDbLine
10
10.259085202131367
20
21.189806877631547
30
0
11
10.262857882131367
21
21.182261397631553
31
0
0
LINE
5
641
100
AcDbEntity
8
0
100
AcDbLine
10
10.326996562131367
20
20.959662357631547
30
0
11
10.330769722131365
21
20.933252157631546
31
0
0
LINE
5
642
100
AcDbEntity
8
0
100
AcDbLine
10
10.277949562131367
20
21.136986717631551
30
0
11
10.281722722131365
21
21.125668197631548
31
0
0
LINE
5
643
100
AcDbEntity
8
0
100
AcDbLine
10
10.293040882131367
20
21.091712517631549
30
0
11
10.296814042131365
21
21.08039387763155
31
0
0
LINE
5
644
100
AcDbEntity
8
0
100
AcDbLine
10
10.270403722131364
20
21.15962387763155
30
0
11
10.274176882131366
21
21.148305357631546
31
0
0
LINE
5
645
100
AcDbEntity
8
0
100
AcDbLine
10
10.300586722131365
20
21.069075357631551
30
0
11
10.304359522131366
21
21.057756837631548
31
0
0
LINE
5
646
100
AcDbEntity
8
0
100
AcDbLine
10
10.247766562131364
20
21.219989877631548
30
0
11
10.251539362131368
21
21.208671237631552
31
0
0
LINE
5
647
100
AcDbEntity
8
0
100
AcDbLine
10
10.311905242131367
20
21.031346517631547
30
0
11
10.315678402131365
21
21.016255197631551
31
0
0
LINE
5
648
100
AcDbEntity
8
0
100
AcDbLine
10
9.9817797821313654
20
20.20320359763155
30
0
11
9.9421646021313652
21
20.20508999763155
31
0
0
LINE
5
649
100
AcDbEntity
8
0
100
AcDbLine
10
9.9421646021313652
20
20.20508999763155
30
0
11
9.9421546421313653
21
20.20498187763155
31
0
0
LINE
5
650
100
AcDbEntity
8
0
100
AcDbLine
10
10.145899522131367
20
23.279972517631546
30
0
11
10.142126842131367
21
23.272426677631543
31
0
0
LINE
5
651
100
AcDbEntity
8
0
100
AcDbLine
10
9.8968906421313676
20
22.997008077631545
30
0
11
9.8893448021313652
21
22.993235037631543
31
0
0
LINE
5
652
100
AcDbEntity
8
0
100
AcDbLine
10
10.217583682131368
20
23.423341557631542
30
0
11
10.213810882131364
21
23.415795717631546
31
0
0
LINE
5
653
100
AcDbEntity
8
0
100
AcDbLine
10
9.8742532421313669
20
22.985689197631547
30
0
11
9.8667076421313649
21
22.981916757631542
31
0
0
LINE
5
654
100
AcDbEntity
8
0
100
AcDbLine
10
10.062896482131366
20
23.140376757631547
30
0
11
10.055350642131366
21
23.130071397631546
31
0
0
LINE
5
655
100
AcDbEntity
8
0
100
AcDbLine
10
9.7828715621313656
20
22.932869397631546
30
0
11
9.7761588821313659
21
22.929096357631551
31
0
0
LINE
5
656
100
AcDbEntity
8
0
100
AcDbLine
10
10.127035162131364
20
23.24224403763154
30
0
11
10.123262002131366
21
23.235530997631546
31
0
0
LINE
5
657
100
AcDbEntity
8
0
100
AcDbLine
10
10.115716522131365
20
23.223379677631538
30
0
11
10.108170682131366
21
23.211228357631537
31
0
0
LINE
5
658
100
AcDbEntity
8
0
100
AcDbLine
10
10.183628002131368
20
23.35542983763154
30
0
11
10.179855202131364
21
23.347884357631546
31
0
0
LINE
5
659
100
AcDbEntity
8
0
100
AcDbLine
10
10.202492362131366
20
23.393158317631542
30
0
11
10.198719682131365
21
23.385612837631548
31
0
0
LINE
5
660
100
AcDbEntity
8
0
100
AcDbLine
10
10.206265162131366
20
23.400704157631544
30
0
11
10.202492362131366
21
23.393158317631542
31
0
0
LINE
5
661
100
AcDbEntity
8
0
100
AcDbLine
10
10.142126842131367
20
23.272426677631543
30
0
11
10.138353682131365
21
23.264881197631542
31
0
0
LINE
5
662
100
AcDbEntity
8
0
100
AcDbLine
10
9.6780644021313655
20
22.841327877631546
30
0
11
9.670518562131365
21
22.831001997631549
31
0
0
LINE
5
663
100
AcDbEntity
8
0
100
AcDbLine
10
9.8893448021313652
20
22.993235037631543
30
0
11
9.8817989621313664
21
22.98946223763155
31
0
0
LINE
5
664
100
AcDbEntity
8
0
100
AcDbLine
10
9.8591619221313653
20
22.97814371763155
30
0
11
9.8516160821313647
21
22.974370917631546
31
0
0
LINE
5
665
100
AcDbEntity
8
0
100
AcDbLine
10
9.8205999221313647
20
22.955506557631551
30
0
11
9.8138876021313664
21
22.951733517631549
31
0
0
LINE
5
666
100
AcDbEntity
8
0
100
AcDbLine
10
9.9119819621313656
20
23.004553917631544
30
0
11
9.904436122131365
21
23.000780877631552
31
0
0
LINE
5
667
100
AcDbEntity
8
0
100
AcDbLine
10
9.8449032821313658
20
22.970597877631548
30
0
11
9.8327519621313648
21
22.96305239763155
31
0
0
LINE
5
668
100
AcDbEntity
8
0
100
AcDbLine
10
9.738741922131366
20
22.902686397631545
30
0
11
9.6780644021313655
21
22.841327877631546
31
0
0
LINE
5
669
100
AcDbEntity
8
0
100
AcDbLine
10
9.9308463221313641
20
23.015872557631546
30
0
11
9.9186946421313653
21
23.008326717631547
31
0
0
LINE
5
670
100
AcDbEntity
8
0
100
AcDbLine
10
9.7535217221313655
20
22.914005037631547
30
0
11
9.738741922131366
21
22.902686397631545
31
0
0
LINE
5
671
100
AcDbEntity
8
0
100
AcDbLine
10
10.085533642131365
20
23.174332437631545
30
0
11
10.077988042131366
21
23.163013917631545
31
0
0
LINE
5
672
100
AcDbEntity
8
0
100
AcDbLine
10
9.8516160821313647
20
22.974370917631546
30
0
11
9.8449032821313658
21
22.970597877631548
31
0
0
LINE
5
673
100
AcDbEntity
8
0
100
AcDbLine
10
10.070442322131365
20
23.151695277631546
30
0
11
10.062896482131366
21
23.140376757631547
31
0
0
LINE
5
674
100
AcDbEntity
8
0
100
AcDbLine
10
9.9186946421313653
20
23.008326717631547
30
0
11
9.9119819621313656
21
23.004553917631544
31
0
0
LINE
5
675
100
AcDbEntity
8
0
100
AcDbLine
10
10.077988042131366
20
23.163013917631545
30
0
11
10.070442322131365
21
23.151695277631546
31
0
0
LINE
5
676
100
AcDbEntity
8
0
100
AcDbLine
10
9.7761588821313659
20
22.929096357631551
30
0
11
9.770126842131365
21
22.925323557631543
31
0
0
LINE
5
677
100
AcDbEntity
8
0
100
AcDbLine
10
10.055350642131366
20
23.130071397631546
30
0
11
9.9637884821313669
21
23.038509597631553
31
0
0
LINE
5
678
100
AcDbEntity
8
0
100
AcDbLine
10
9.770126842131365
20
22.925323557631543
30
0
11
9.7535217221313655
21
22.914005037631547
31
0
0
LINE
5
679
100
AcDbEntity
8
0
100
AcDbLine
10
9.9637884821313669
20
23.038509597631553
30
0
11
9.9534834821313645
21
23.030963877631546
31
0
0
LINE
5
680
100
AcDbEntity
8
0
100
AcDbLine
10
9.8138876021313664
20
22.951733517631549
30
0
11
9.8071749221313649
21
22.947961077631547
31
0
0
LINE
5
681
100
AcDbEntity
8
0
100
AcDbLine
10
9.7950232421313661
20
22.940415237631548
30
0
11
9.7828715621313656
21
22.932869397631546
31
0
0
LINE
5
682
100
AcDbEntity
8
0
100
AcDbLine
10
9.9421646021313652
20
23.023418037631544
30
0
11
9.9308463221313641
21
23.015872557631546
31
0
0
LINE
5
683
100
AcDbEntity
8
0
100
AcDbLine
10
9.670518562131365
20
22.831001997631549
30
0
11
9.6629730821313657
21
22.818850677631549
31
0
0
LINE
5
684
100
AcDbEntity
8
0
100
AcDbLine
10
9.6403355621313658
20
22.774409157631553
30
0
11
9.6365628821313649
21
22.766863677631545
31
0
0
LINE
5
685
100
AcDbEntity
8
0
100
AcDbLine
10
9.8071749221313649
20
22.947961077631547
30
0
11
9.7950232421313661
21
22.940415237631548
31
0
0
LINE
5
686
100
AcDbEntity
8
0
100
AcDbLine
10
9.5950616021313664
20
22.393350357631551
30
0
11
9.5988340421313669
21
22.25375435763155
31
0
0
LINE
5
687
100
AcDbEntity
8
0
100
AcDbLine
10
9.8667076421313649
20
22.981916757631542
30
0
11
9.8591619221313653
21
22.97814371763155
31
0
0
LINE
5
688
100
AcDbEntity
8
0
100
AcDbLine
10
9.9534834821313645
20
23.030963877631546
30
0
11
9.9421646021313652
21
23.023418037631544
31
0
0
LINE
5
689
100
AcDbEntity
8
0
100
AcDbLine
10
9.904436122131365
20
23.000780877631552
30
0
11
9.8968906421313676
21
22.997008077631545
31
0
0
LINE
5
690
100
AcDbEntity
8
0
100
AcDbLine
10
9.8327519621313648
20
22.96305239763155
30
0
11
9.8205999221313647
21
22.955506557631551
31
0
0
LINE
5
691
100
AcDbEntity
8
0
100
AcDbLine
10
9.8817989621313664
20
22.98946223763155
30
0
11
9.8742532421313669
21
22.985689197631547
31
0
0
LINE
5
692
100
AcDbEntity
8
0
100
AcDbLine
10
9.6139257221313663
20
22.714043157631547
30
0
11
9.6101530421313655
21
22.695179157631543
31
0
0
LINE
5
693
100
AcDbEntity
8
0
100
AcDbLine
10
9.6478814021313664
20
22.789500477631549
30
0
11
9.6441087221313655
21
22.781954997631548
31
0
0
LINE
5
694
100
AcDbEntity
8
0
100
AcDbLine
10
9.3007779221313669
20
24.392966637631545
30
0
11
9.3120964421313666
21
24.396739797631543
31
0
0
LINE
5
695
100
AcDbEntity
8
0
100
AcDbLine
10
9.4479196421313656
20
24.457105317631541
30
0
11
9.4592382821313663
21
24.460878117631538
31
0
0
LINE
5
696
100
AcDbEntity
8
0
100
AcDbLine
10
9.4139639621313655
20
24.442013997631548
30
0
11
9.4215094421313648
21
24.445786797631541
31
0
0
LINE
5
697
100
AcDbEntity
8
0
100
AcDbLine
10
9.4818754421313667
20
24.472196997631546
30
0
11
9.4894211621313644
21
24.475969797631539
31
0
0
LINE
5
698
100
AcDbEntity
8
0
100
AcDbLine
10
9.2026834421313666
20
24.34769243763154
30
0
11
9.2102292821313654
21
24.351465117631541
31
0
0
LINE
5
699
100
AcDbEntity
8
0
100
AcDbLine
10
9.3913268021313652
20
24.430695477631538
30
0
11
9.3988722821313662
21
24.434468157631539
31
0
0
LINE
5
700
100
AcDbEntity
8
0
100
AcDbLine
10
9.2555032421313665
20
24.370329597631539
30
0
11
9.2630490821313654
21
24.374102637631541
31
0
0
LINE
5
701
100
AcDbEntity
8
0
100
AcDbLine
10
9.2781407621313647
20
24.381648117631549
30
0
11
9.2856866021313671
21
24.385421157631541
31
0
0
LINE
5
702
100
AcDbEntity
8
0
100
AcDbLine
10
9.3988722821313662
20
24.434468157631539
30
0
11
9.406418122131365
21
24.438240957631546
31
0
0
LINE
5
703
100
AcDbEntity
8
0
100
AcDbLine
10
9.2932320821313645
20
24.389193957631544
30
0
11
9.3007779221313669
21
24.392966637631545
31
0
0
LINE
5
704
100
AcDbEntity
8
0
100
AcDbLine
10
9.4366007621313663
20
24.45333263763154
30
0
11
9.4479196421313656
21
24.457105317631541
31
0
0
LINE
5
705
100
AcDbEntity
8
0
100
AcDbLine
10
10.409999722131367
20
24.185459277631541
30
0
11
10.406226922131365
21
24.094910757631546
31
0
0
LINE
5
706
100
AcDbEntity
8
0
100
AcDbLine
10
9.2102292821313654
20
24.351465117631541
30
0
11
9.217775122131366
21
24.355238277631543
31
0
0
LINE
5
707
100
AcDbEntity
8
0
100
AcDbLine
10
8.9536745621313667
20
24.181686477631541
30
0
11
8.9612200421313641
21
24.192033477631547
31
0
0
LINE
5
708
100
AcDbEntity
8
0
100
AcDbLine
10
9.406418122131365
20
24.438240957631546
30
0
11
9.4139639621313655
21
24.442013997631548
31
0
0
LINE
5
709
100
AcDbEntity
8
0
100
AcDbLine
10
9.4290552821313653
20
24.449559477631542
30
0
11
9.4366007621313663
21
24.45333263763154
31
0
0
LINE
5
710
100
AcDbEntity
8
0
100
AcDbLine
10
10.364725402131365
20
23.791568157631534
30
0
11
10.360952362131368
21
23.785536237631543
31
0
0
LINE
5
711
100
AcDbEntity
8
0
100
AcDbLine
10
10.406226922131365
20
24.094910757631546
30
0
11
10.402453882131365
21
24.008134557631539
31
0
0
LINE
5
712
100
AcDbEntity
8
0
100
AcDbLine
10
9.0819519221313652
20
24.287326797631543
30
0
11
9.0894974021313661
21
24.291099597631543
31
0
0
LINE
5
713
100
AcDbEntity
8
0
100
AcDbLine
10
9.3120964421313666
20
24.396739797631543
30
0
11
9.3234150821313673
21
24.400512477631544
31
0
0
LINE
5
714
100
AcDbEntity
8
0
100
AcDbLine
10
10.402453882131365
20
24.332600997631538
30
0
11
10.406226922131365
21
24.276007797631539
31
0
0
LINE
5
715
100
AcDbEntity
8
0
100
AcDbLine
10
9.3800079221313641
20
24.426922437631546
30
0
11
9.3913268021313652
21
24.430695477631538
31
0
0
LINE
5
716
100
AcDbEntity
8
0
100
AcDbLine
10
9.4969667621313647
20
24.47974247763154
30
0
11
9.5045124821313642
21
24.483515277631543
31
0
0
LINE
5
717
100
AcDbEntity
8
0
100
AcDbLine
10
9.0517690421313652
20
24.268462437631538
30
0
11
9.0630875621313685
21
24.276007917631539
31
0
0
LINE
5
718
100
AcDbEntity
8
0
100
AcDbLine
10
9.2630490821313654
20
24.374102637631541
30
0
11
9.2705949221313642
21
24.377875317631542
31
0
0
LINE
5
719
100
AcDbEntity
8
0
100
AcDbLine
10
9.2856866021313671
20
24.385421157631541
30
0
11
9.2932320821313645
21
24.389193957631544
31
0
0
LINE
5
720
100
AcDbEntity
8
0
100
AcDbLine
10
9.1800464021313655
20
24.336373797631545
30
0
11
9.1875918821313665
21
24.340146957631546
31
0
0
LINE
5
721
100
AcDbEntity
8
0
100
AcDbLine
10
9.1574088821313637
20
24.325055277631542
30
0
11
9.1649547221313661
21
24.328828317631544
31
0
0
LINE
5
722
100
AcDbEntity
8
0
100
AcDbLine
10
9.0178130021313656
20
24.245825277631543
30
0
11
9.0291318821313649
21
24.253370757631544
31
0
0
LINE
5
723
100
AcDbEntity
8
0
100
AcDbLine
10
9.0894974021313661
20
24.291099597631543
30
0
11
9.0970432421313649
21
24.294872277631544
31
0
0
LINE
5
724
100
AcDbEntity
8
0
100
AcDbLine
10
9.3611435621313657
20
24.41937659763154
30
0
11
9.368689282131367
21
24.423149637631543
31
0
0
LINE
5
725
100
AcDbEntity
8
0
100
AcDbLine
10
8.9612200421313641
20
24.192033477631547
30
0
11
9.0074660021313662
21
24.238279437631547
31
0
0
LINE
5
726
100
AcDbEntity
8
0
100
AcDbLine
10
9.1649547221313661
20
24.328828317631544
30
0
11
9.1725005621313667
21
24.332601117631548
31
0
0
LINE
5
727
100
AcDbEntity
8
0
100
AcDbLine
10
9.2441850821313647
20
24.366556797631539
30
0
11
9.2555032421313665
21
24.370329597631539
31
0
0
LINE
5
728
100
AcDbEntity
8
0
100
AcDbLine
10
9.217775122131366
20
24.355238277631543
30
0
11
9.2253206021313652
21
24.359010957631551
31
0
0
LINE
5
729
100
AcDbEntity
8
0
100
AcDbLine
10
9.0291318821313649
20
24.253370757631544
30
0
11
9.0404504021313645
21
24.260916597631546
31
0
0
LINE
5
730
100
AcDbEntity
8
0
100
AcDbLine
10
9.4894211621313644
20
24.475969797631539
30
0
11
9.4969667621313647
21
24.47974247763154
31
0
0
LINE
5
731
100
AcDbEntity
8
0
100
AcDbLine
10
9.1347720821313665
20
24.313736757631542
30
0
11
9.1423175621313675
21
24.317509437631539
31
0
0
LINE
5
732
100
AcDbEntity
8
0
100
AcDbLine
10
9.3460522421313659
20
24.411831117631547
30
0
11
9.3535979621313672
21
24.41560379763154
31
0
0
LINE
5
733
100
AcDbEntity
8
0
100
AcDbLine
10
9.3234150821313673
20
24.400512477631544
30
0
11
9.3309609221313661
21
24.404285637631538
31
0
0
LINE
5
734
100
AcDbEntity
8
0
100
AcDbLine
10
9.3309609221313661
20
24.404285637631538
30
0
11
9.3385064021313671
21
24.408058317631539
31
0
0
LINE
5
735
100
AcDbEntity
8
0
100
AcDbLine
10
9.2328664421313658
20
24.362784117631545
30
0
11
9.2441850821313647
21
24.366556797631539
31
0
0
LINE
5
736
100
AcDbEntity
8
0
100
AcDbLine
10
9.2705949221313642
20
24.377875317631542
30
0
11
9.2781407621313647
21
24.381648117631549
31
0
0
LINE
5
737
100
AcDbEntity
8
0
100
AcDbLine
10
9.3385064021313671
20
24.408058317631539
30
0
11
9.3460522421313659
21
24.411831117631547
31
0
0
LINE
5
738
100
AcDbEntity
8
0
100
AcDbLine
10
9.4667837621313655
20
24.464651157631543
30
0
11
9.4743296021313643
21
24.46842395763154
31
0
0
LINE
5
739
100
AcDbEntity
8
0
100
AcDbLine
10
9.4215094421313648
20
24.445786797631541
30
0
11
9.4290552821313653
21
24.449559477631542
31
0
0
LINE
5
740
100
AcDbEntity
8
0
100
AcDbLine
10
8.942356042131367
20
24.162822117631542
30
0
11
8.9461287221313643
21
24.169535157631543
31
0
0
LINE
5
741
100
AcDbEntity
8
0
100
AcDbLine
10
9.4743296021313643
20
24.46842395763154
30
0
11
9.4818754421313667
21
24.472196997631546
31
0
0
LINE
5
742
100
AcDbEntity
8
0
100
AcDbLine
10
9.368689282131367
20
24.423149637631543
30
0
11
9.3800079221313641
21
24.426922437631546
31
0
0
LINE
5
743
100
AcDbEntity
8
0
100
AcDbLine
10
9.3535979621313672
20
24.41560379763154
30
0
11
9.3611435621313657
21
24.41937659763154
31
0
0
LINE
5
744
100
AcDbEntity
8
0
100
AcDbLine
10
9.4592382821313663
20
24.460878117631538
30
0
11
9.4667837621313655
21
24.464651157631543
31
0
0
LINE
5
745
100
AcDbEntity
8
0
100
AcDbLine
10
9.1196804021313671
20
24.306191157631545
30
0
11
9.1272262421313659
21
24.309963597631548
31
0
0
LINE
5
746
100
AcDbEntity
8
0
100
AcDbLine
10
9.1045890821313638
20
24.298645437631539
30
0
11
9.1121349221313643
21
24.302418117631539
31
0
0
LINE
5
747
100
AcDbEntity
8
0
100
AcDbLine
10
9.1121349221313643
20
24.302418117631539
30
0
11
9.1196804021313671
21
24.306191157631545
31
0
0
LINE
5
748
100
AcDbEntity
8
0
100
AcDbLine
10
10.330769722131365
20
23.710078917631538
30
0
11
10.326996682131366
21
23.702533077631543
31
0
0
LINE
5
749
100
AcDbEntity
8
0
100
AcDbLine
10
10.089306442131367
20
24.502379637631538
30
0
11
10.296814042131365
21
24.498606837631545
31
0
0
LINE
5
750
100
AcDbEntity
8
0
100
AcDbLine
10
10.402453882131365
20
24.008134557631539
30
0
11
10.398681082131365
21
23.921359077631543
31
0
0
LINE
5
751
100
AcDbEntity
8
0
100
AcDbLine
10
9.5271496421313664
20
24.491060997631546
30
0
11
9.7044736421313669
21
24.494834157631544
31
0
0
LINE
5
752
100
AcDbEntity
8
0
100
AcDbLine
10
9.5158311221313667
20
24.487288317631545
30
0
11
9.5271496421313664
21
24.491060997631546
31
0
0
LINE
5
753
100
AcDbEntity
8
0
100
AcDbLine
10
10.274176882131366
20
23.55539171763154
30
0
11
10.270403722131364
21
23.54407319763154
31
0
0
LINE
5
754
100
AcDbEntity
8
0
100
AcDbLine
10
10.266631042131365
20
23.536527357631545
30
0
11
10.262858002131367
21
23.528981517631543
31
0
0
LINE
5
755
100
AcDbEntity
8
0
100
AcDbLine
10
10.281722722131365
20
23.578028877631539
30
0
11
10.277949562131367
21
23.566709997631538
31
0
0
LINE
5
756
100
AcDbEntity
8
0
100
AcDbLine
10
10.360952362131368
20
24.449559477631542
30
0
11
10.364725402131365
21
24.443630757631542
31
0
0
LINE
5
757
100
AcDbEntity
8
0
100
AcDbLine
10
10.338315562131365
20
23.732716077631547
30
0
11
10.334542522131368
21
23.721397557631541
31
0
0
LINE
5
758
100
AcDbEntity
8
0
100
AcDbLine
10
10.308132562131366
20
23.649713037631539
30
0
11
10.304359522131366
21
23.638394397631544
31
0
0
LINE
5
759
100
AcDbEntity
8
0
100
AcDbLine
10
10.360952362131368
20
23.785536237631543
30
0
11
10.357179562131366
21
23.777990397631537
31
0
0
LINE
5
760
100
AcDbEntity
8
0
100
AcDbLine
10
10.319450842131365
20
23.683669077631549
30
0
11
10.315678402131365
21
23.672350197631548
31
0
0
LINE
5
761
100
AcDbEntity
8
0
100
AcDbLine
10
10.311905362131368
20
23.661031917631544
30
0
11
10.308132562131366
21
23.649713037631539
31
0
0
LINE
5
762
100
AcDbEntity
8
0
100
AcDbLine
10
10.285495042131364
20
23.589347397631542
30
0
11
10.281722722131365
21
23.578028877631539
31
0
0
LINE
5
763
100
AcDbEntity
8
0
100
AcDbLine
10
10.251539362131368
20
23.498798517631542
30
0
11
10.247766682131365
21
23.491253037631541
31
0
0
LINE
5
764
100
AcDbEntity
8
0
100
AcDbLine
10
10.353406882131365
20
23.770444557631539
30
0
11
10.349634082131365
21
23.759126277631541
31
0
0
LINE
5
765
100
AcDbEntity
8
0
100
AcDbLine
10
10.349634082131365
20
23.759126277631541
30
0
11
10.345861042131364
21
23.74780739763154
31
0
0
LINE
5
766
100
AcDbEntity
8
0
100
AcDbLine
10
10.255312522131366
20
23.506344357631548
30
0
11
10.251539362131368
21
23.498798517631542
31
0
0
LINE
5
767
100
AcDbEntity
8
0
100
AcDbLine
10
10.364725402131365
20
24.443630757631542
30
0
11
10.379817082131364
21
24.426922317631544
31
0
0
LINE
5
768
100
AcDbEntity
8
0
100
AcDbLine
10
10.259085202131367
20
23.517662877631548
30
0
11
10.255312522131366
21
23.506344357631548
31
0
0
LINE
5
769
100
AcDbEntity
8
0
100
AcDbLine
10
10.387362562131365
20
23.832324237631539
30
0
11
10.376044042131364
21
23.808173277631539
31
0
0
LINE
5
770
100
AcDbEntity
8
0
100
AcDbLine
10
10.398681082131365
20
24.389193837631542
30
0
11
10.402453882131365
21
24.332600997631538
31
0
0
LINE
5
771
100
AcDbEntity
8
0
100
AcDbLine
10
10.357179562131366
20
23.777990397631537
30
0
11
10.353406882131365
21
23.770444557631539
31
0
0
LINE
5
772
100
AcDbEntity
8
0
100
AcDbLine
10
10.394908402131367
20
23.883630477631542
30
0
11
10.391135362131365
21
23.84590199763154
31
0
0
LINE
5
773
100
AcDbEntity
8
0
100
AcDbLine
10
10.345861042131364
20
23.74780739763154
30
0
11
10.342088242131366
21
23.740261917631546
31
0
0
LINE
5
774
100
AcDbEntity
8
0
100
AcDbLine
10
10.315678402131365
20
23.672350197631548
30
0
11
10.311905362131368
21
23.661031917631544
31
0
0
LINE
5
775
100
AcDbEntity
8
0
100
AcDbLine
10
10.289268202131366
20
23.596892877631543
30
0
11
10.285495042131364
21
23.589347397631542
31
0
0
LINE
5
776
100
AcDbEntity
8
0
100
AcDbLine
10
10.296814042131365
20
23.615757357631541
30
0
11
10.293040882131367
21
23.604438717631538
31
0
0
LINE
5
777
100
AcDbEntity
8
0
100
AcDbLine
10
10.300586722131365
20
23.627076237631542
30
0
11
10.296814042131365
21
23.615757357631541
31
0
0
LINE
5
778
100
AcDbEntity
8
0
100
AcDbLine
10
10.323223882131366
20
23.694987597631545
30
0
11
10.319450842131365
21
23.683669077631549
31
0
0
LINE
5
779
100
AcDbEntity
8
0
100
AcDbLine
10
9.5045124821313642
20
24.483515277631543
30
0
11
9.5158311221313667
21
24.487288317631545
31
0
0
LINE
5
780
100
AcDbEntity
8
0
100
AcDbLine
10
10.357179562131366
20
24.463034037631541
30
0
11
10.360952362131368
21
24.449559477631542
31
0
0
LINE
5
781
100
AcDbEntity
8
0
100
AcDbLine
10
10.394908402131367
20
24.40266839763154
30
0
11
10.398681082131365
21
24.389193837631542
31
0
0
LINE
5
782
100
AcDbEntity
8
0
100
AcDbLine
10
9.7044736421313669
20
24.494834157631544
30
0
11
9.8817988421313672
21
24.498606837631545
31
0
0
LINE
5
783
100
AcDbEntity
8
0
100
AcDbLine
10
10.293040882131367
20
23.604438717631538
30
0
11
10.289268202131366
21
23.596892877631543
31
0
0
LINE
5
784
100
AcDbEntity
8
0
100
AcDbLine
10
10.406226922131365
20
24.276007797631539
30
0
11
10.409999722131367
21
24.185459277631541
31
0
0
LINE
5
785
100
AcDbEntity
8
0
100
AcDbLine
10
10.228902202131364
20
23.44597871763154
30
0
11
10.225129522131363
21
23.438432877631538
31
0
0
LINE
5
786
100
AcDbEntity
8
0
100
AcDbLine
10
10.262858002131367
20
23.528981517631543
30
0
11
10.259085202131367
21
23.517662877631548
31
0
0
LINE
5
787
100
AcDbEntity
8
0
100
AcDbLine
10
10.334542402131365
20
24.491060997631546
30
0
11
10.340471122131367
21
24.487288317631545
31
0
0
LINE
5
788
100
AcDbEntity
8
0
100
AcDbLine
10
10.247766682131365
20
23.491253037631541
30
0
11
10.243993882131367
21
23.483707197631542
31
0
0
LINE
5
789
100
AcDbEntity
8
0
100
AcDbLine
10
10.296814042131365
20
24.498606837631545
30
0
11
10.315678402131365
21
24.494834157631544
31
0
0
LINE
5
790
100
AcDbEntity
8
0
100
AcDbLine
10
10.225129522131363
20
23.438432877631538
30
0
11
10.221356362131365
21
23.430887037631543
31
0
0
LINE
5
791
100
AcDbEntity
8
0
100
AcDbLine
10
9.8817988421313672
20
24.498606837631545
30
0
11
10.089306442131367
21
24.502379637631538
31
0
0
LINE
5
792
100
AcDbEntity
8
0
100
AcDbLine
10
10.304359522131366
20
23.638394397631544
30
0
11
10.300586722131365
21
23.627076237631542
31
0
0
LINE
5
793
100
AcDbEntity
8
0
100
AcDbLine
10
10.334542522131368
20
23.721397557631541
30
0
11
10.330769722131365
21
23.710078917631538
31
0
0
LINE
5
794
100
AcDbEntity
8
0
100
AcDbLine
10
10.391135362131365
20
23.84590199763154
30
0
11
10.387362562131365
21
23.832324237631539
31
0
0
LINE
5
795
100
AcDbEntity
8
0
100
AcDbLine
10
10.270403722131364
20
23.54407319763154
30
0
11
10.266631042131365
21
23.536527357631545
31
0
0
LINE
5
796
100
AcDbEntity
8
0
100
AcDbLine
10
10.340471122131367
20
24.487288317631545
30
0
11
10.357179562131366
21
24.463034037631541
31
0
0
LINE
5
797
100
AcDbEntity
8
0
100
AcDbLine
10
10.342088242131366
20
23.740261917631546
30
0
11
10.338315562131365
21
23.732716077631547
31
0
0
LINE
5
798
100
AcDbEntity
8
0
100
AcDbLine
10
10.315678402131365
20
24.494834157631544
30
0
11
10.334542402131365
21
24.491060997631546
31
0
0
LINE
5
799
100
AcDbEntity
8
0
100
AcDbLine
10
10.376044042131364
20
23.808173277631539
30
0
11
10.364725402131365
21
23.791568157631534
31
0
0
LINE
5
800
100
AcDbEntity
8
0
100
AcDbLine
10
10.277949562131367
20
23.566709997631538
30
0
11
10.274176882131366
21
23.55539171763154
31
0
0
LINE
5
801
100
AcDbEntity
8
0
100
AcDbLine
10
10.398681082131365
20
23.921359077631543
30
0
11
10.394908402131367
21
23.883630477631542
31
0
0
LINE
5
802
100
AcDbEntity
8
0
100
AcDbLine
10
10.243993882131367
20
23.483707197631542
30
0
11
10.240221202131366
21
23.47616135763154
31
0
0
LINE
5
803
100
AcDbEntity
8
0
100
AcDbLine
10
10.236448042131364
20
23.464842837631544
30
0
11
10.232675362131365
21
23.453524197631541
31
0
0
LINE
5
804
100
AcDbEntity
8
0
100
AcDbLine
10
10.379817082131364
20
24.426922317631544
30
0
11
10.394908402131367
21
24.40266839763154
31
0
0
LINE
5
805
100
AcDbEntity
8
0
100
AcDbLine
10
10.240221202131366
20
23.47616135763154
30
0
11
10.236448042131364
21
23.464842837631544
31
0
0
LINE
5
806
100
AcDbEntity
8
0
100
AcDbLine
10
10.123262002131366
20
23.235530997631546
30
0
11
10.115716522131365
21
23.223379677631538
31
0
0
LINE
5
807
100
AcDbEntity
8
0
100
AcDbLine
10
10.157218042131365
20
23.302609677631537
30
0
11
10.153445002131365
21
23.295063837631542
31
0
0
LINE
5
808
100
AcDbEntity
8
0
100
AcDbLine
10
10.168536682131366
20
23.325246837631543
30
0
11
10.164763522131365
21
23.317701357631542
31
0
0
LINE
5
809
100
AcDbEntity
8
0
100
AcDbLine
10
10.138353682131365
20
23.264881197631542
30
0
11
10.134581002131366
21
23.257335357631543
31
0
0
LINE
5
810
100
AcDbEntity
8
0
100
AcDbLine
10
10.194946522131364
20
23.378066997631539
30
0
11
10.191173842131366
21
23.370521157631543
31
0
0
LINE
5
811
100
AcDbEntity
8
0
100
AcDbLine
10
10.164763522131365
20
23.317701357631542
30
0
11
10.160990842131364
21
23.310155517631539
31
0
0
LINE
5
812
100
AcDbEntity
8
0
100
AcDbLine
10
10.232675362131365
20
23.453524197631541
30
0
11
10.228902202131364
21
23.44597871763154
31
0
0
LINE
5
813
100
AcDbEntity
8
0
100
AcDbLine
10
10.326996682131366
20
23.702533077631543
30
0
11
10.323223882131366
21
23.694987597631545
31
0
0
LINE
5
814
100
AcDbEntity
8
0
100
AcDbLine
10
10.187400682131365
20
23.362975677631535
30
0
11
10.183628002131368
21
23.35542983763154
31
0
0
LINE
5
815
100
AcDbEntity
8
0
100
AcDbLine
10
10.221356362131365
20
23.430887037631543
30
0
11
10.217583682131368
21
23.423341557631542
31
0
0
LINE
5
816
100
AcDbEntity
8
0
100
AcDbLine
10
10.172309362131367
20
23.332792677631542
30
0
11
10.168536682131366
21
23.325246837631543
31
0
0
LINE
5
817
100
AcDbEntity
8
0
100
AcDbLine
10
10.179855202131364
20
23.347884357631546
30
0
11
10.176082522131367
21
23.340338517631537
31
0
0
LINE
5
818
100
AcDbEntity
8
0
100
AcDbLine
10
10.176082522131367
20
23.340338517631537
30
0
11
10.172309362131367
21
23.332792677631542
31
0
0
LINE
5
819
100
AcDbEntity
8
0
100
AcDbLine
10
10.130807842131365
20
23.249789517631541
30
0
11
10.127035162131364
21
23.24224403763154
31
0
0
LINE
5
820
100
AcDbEntity
8
0
100
AcDbLine
10
10.104398002131367
20
23.204515317631543
30
0
11
10.100625202131365
21
23.197802637631554
31
0
0
LINE
5
821
100
AcDbEntity
8
0
100
AcDbLine
10
10.093079362131366
20
23.185651317631557
30
0
11
10.085533642131365
21
23.174332437631545
31
0
0
LINE
5
822
100
AcDbEntity
8
0
100
AcDbLine
10
10.210038202131367
20
23.408249997631547
30
0
11
10.206265162131366
21
23.400704157631544
31
0
0
LINE
5
823
100
AcDbEntity
8
0
100
AcDbLine
10
10.149672322131368
20
23.287518357631541
30
0
11
10.145899522131367
21
23.279972517631546
31
0
0
LINE
5
824
100
AcDbEntity
8
0
100
AcDbLine
10
10.213810882131364
20
23.415795717631546
30
0
11
10.210038202131367
21
23.408249997631547
31
0
0
LINE
5
825
100
AcDbEntity
8
0
100
AcDbLine
10
10.108170682131366
20
23.211228357631537
30
0
11
10.104398002131367
21
23.204515317631543
31
0
0
LINE
5
826
100
AcDbEntity
8
0
100
AcDbLine
10
10.160990842131364
20
23.310155517631539
30
0
11
10.157218042131365
21
23.302609677631537
31
0
0
LINE
5
827
100
AcDbEntity
8
0
100
AcDbLine
10
10.153445002131365
20
23.295063837631542
30
0
11
10.149672322131368
21
23.287518357631541
31
0
0
LINE
5
828
100
AcDbEntity
8
0
100
AcDbLine
10
10.100625202131365
20
23.197802637631554
30
0
11
10.093079362131366
21
23.185651317631557
31
0
0
LINE
5
829
100
AcDbEntity
8
0
100
AcDbLine
10
10.191173842131366
20
23.370521157631543
30
0
11
10.187400682131365
21
23.362975677631535
31
0
0
LINE
5
830
100
AcDbEntity
8
0
100
AcDbLine
10
10.198719682131365
20
23.385612837631548
30
0
11
10.194946522131364
21
23.378066997631539
31
0
0
LINE
5
831
100
AcDbEntity
8
0
100
AcDbLine
10
10.134581002131366
20
23.257335357631543
30
0
11
10.130807842131365
21
23.249789517631541
31
0
0
LINE
5
832
100
AcDbEntity
8
0
100
AcDbLine
10
8.5386597221313654
20
23.79685811763154
30
0
11
8.5575240821313638
21
23.800630797631541
31
0
0
LINE
5
833
100
AcDbEntity
8
0
100
AcDbLine
10
8.5575240821313638
20
23.800630797631541
30
0
11
8.5763880821313663
21
23.804403597631541
31
0
0
LINE
5
834
100
AcDbEntity
8
0
100
AcDbLine
10
7.6935383621313678
20
23.940226557631544
30
0
11
7.7010842021313675
21
23.929862277631546
31
0
0
LINE
5
835
100
AcDbEntity
8
0
100
AcDbLine
10
8.6442998021313677
20
23.827041117631541
30
0
11
8.6518456421313648
21
23.830813797631539
31
0
0
LINE
5
836
100
AcDbEntity
8
0
100
AcDbLine
10
7.8331341221313675
20
23.830813797631539
30
0
11
7.8444530021313668
21
23.827041117631541
31
0
0
LINE
5
837
100
AcDbEntity
8
0
100
AcDbLine
10
8.4028364021313653
20
23.785539477631538
30
0
11
8.4330194021313645
21
23.789312277631545
31
0
0
LINE
5
838
100
AcDbEntity
8
0
100
AcDbLine
10
7.7696765621313677
20
23.868542277631541
30
0
11
7.7803140821313672
21
23.860996797631547
31
0
0
LINE
5
839
100
AcDbEntity
8
0
100
AcDbLine
10
7.7916329621313638
20
23.853450957631548
30
0
11
7.8029514821313644
21
23.845905117631542
31
0
0
LINE
5
840
100
AcDbEntity
8
0
100
AcDbLine
10
7.8151028021313653
20
23.838359277631543
30
0
11
7.821815482131365
21
23.834586597631542
31
0
0
LINE
5
841
100
AcDbEntity
8
0
100
AcDbLine
10
8.2594677221313635
20
23.793085317631547
30
0
11
8.3726537621313657
21
23.789312277631545
31
0
0
LINE
5
842
100
AcDbEntity
8
0
100
AcDbLine
10
7.8444530021313668
20
23.827041117631541
30
0
11
7.8519984821313642
21
23.82326795763154
31
0
0
LINE
5
843
100
AcDbEntity
8
0
100
AcDbLine
10
8.4330194021313645
20
23.789312277631545
30
0
11
8.4858395621313658
21
23.793085317631547
31
0
0
LINE
5
844
100
AcDbEntity
8
0
100
AcDbLine
10
7.7803140821313672
20
23.860996797631547
30
0
11
7.7916329621313638
21
23.853450957631548
31
0
0
LINE
5
845
100
AcDbEntity
8
0
100
AcDbLine
10
7.9538656421313636
20
23.808176637631544
30
0
11
8.0029130021313648
21
23.804403597631541
31
0
0
LINE
5
846
100
AcDbEntity
8
0
100
AcDbLine
10
7.9048186421313664
20
23.811949437631544
30
0
11
7.9538656421313636
21
23.808176637631544
31
0
0
LINE
5
847
100
AcDbEntity
8
0
100
AcDbLine
10
7.4596211621313637
20
24.287329797631539
30
0
11
7.4820672821313652
21
24.268465797631542
31
0
0
LINE
5
848
100
AcDbEntity
8
0
100
AcDbLine
10
7.8029514821313644
20
23.845905117631542
30
0
11
7.8151028021313653
21
23.838359277631543
31
0
0
LINE
5
849
100
AcDbEntity
8
0
100
AcDbLine
10
8.6518456421313648
20
23.830813797631539
30
0
11
8.659391122131364
21
23.834586597631542
31
0
0
LINE
5
850
100
AcDbEntity
8
0
100
AcDbLine
10
7.6859928821313641
20
23.952377877631541
30
0
11
7.6935383621313678
21
23.940226557631544
31
0
0
LINE
5
851
100
AcDbEntity
8
0
100
AcDbLine
10
8.5877069621313655
20
23.808176637631544
30
0
11
8.5990256021313645
21
23.811949437631544
31
0
0
LINE
5
852
100
AcDbEntity
8
0
100
AcDbLine
10
7.8595443221313666
20
23.819495277631539
30
0
11
7.8821814821313634
21
23.815722117631545
31
0
0
LINE
5
853
100
AcDbEntity
8
0
100
AcDbLine
10
7.8821814821313634
20
23.815722117631545
30
0
11
7.9048186421313664
21
23.811949437631544
31
0
0
LINE
5
854
100
AcDbEntity
8
0
100
AcDbLine
10
7.821815482131365
20
23.834586597631542
30
0
11
7.8331341221313675
21
23.830813797631539
31
0
0
LINE
5
855
100
AcDbEntity
8
0
100
AcDbLine
10
8.1462820421313644
20
23.79685811763154
30
0
11
8.2594677221313635
21
23.793085317631547
31
0
0
LINE
5
856
100
AcDbEntity
8
0
100
AcDbLine
10
8.0745975221313664
20
23.800630797631541
30
0
11
8.1462820421313644
21
23.79685811763154
31
0
0
LINE
5
857
100
AcDbEntity
8
0
100
AcDbLine
10
8.4858395621313658
20
23.793085317631547
30
0
11
8.5386597221313654
21
23.79685811763154
31
0
0
LINE
5
858
100
AcDbEntity
8
0
100
AcDbLine
10
8.6103441221313641
20
23.815722117631545
30
0
11
8.6216626421313656
21
23.819495277631539
31
0
0
LINE
5
859
100
AcDbEntity
8
0
100
AcDbLine
10
7.7010842021313675
20
23.929862277631546
30
0
11
7.7390862821313648
21
23.891179677631538
31
0
0
LINE
5
860
100
AcDbEntity
8
0
100
AcDbLine
10
8.0029130021313648
20
23.804403597631541
30
0
11
8.0745975221313664
21
23.800630797631541
31
0
0
LINE
5
861
100
AcDbEntity
8
0
100
AcDbLine
10
7.8519984821313642
20
23.82326795763154
30
0
11
7.8595443221313666
21
23.819495277631539
31
0
0
LINE
5
862
100
AcDbEntity
8
0
100
AcDbLine
10
8.6329812821313663
20
23.82326795763154
30
0
11
8.6442998021313677
21
23.827041117631541
31
0
0
LINE
5
863
100
AcDbEntity
8
0
100
AcDbLine
10
8.6216626421313656
20
23.819495277631539
30
0
11
8.6329812821313663
21
23.82326795763154
31
0
0
LINE
5
864
100
AcDbEntity
8
0
100
AcDbLine
10
8.5763880821313663
20
23.804403597631541
30
0
11
8.5877069621313655
21
23.808176637631544
31
0
0
LINE
5
865
100
AcDbEntity
8
0
100
AcDbLine
10
8.5990256021313645
20
23.811949437631544
30
0
11
8.6103441221313641
21
23.815722117631545
31
0
0
LINE
5
866
100
AcDbEntity
8
0
100
AcDbLine
10
7.7539042421313642
20
23.879860797631537
30
0
11
7.7696765621313677
21
23.868542277631541
31
0
0
LINE
5
867
100
AcDbEntity
8
0
100
AcDbLine
10
8.7650313221313656
20
23.894952477631541
30
0
11
8.7798198821313633
21
23.906270997631541
31
0
0
LINE
5
868
100
AcDbEntity
8
0
100
AcDbLine
10
8.6669369621313663
20
23.838359277631543
30
0
11
8.6744824421313673
21
23.842132317631545
31
0
0
LINE
5
869
100
AcDbEntity
8
0
100
AcDbLine
10
8.8480343621313651
20
23.982560877631538
30
0
11
8.8518070421313624
21
23.989273917631539
31
0
0
LINE
5
870
100
AcDbEntity
8
0
100
AcDbLine
10
8.8329430421313653
20
23.960074797631545
30
0
11
8.8404885221313663
21
23.970409557631541
31
0
0
LINE
5
871
100
AcDbEntity
8
0
100
AcDbLine
10
8.8593528821313647
20
24.004365237631539
30
0
11
8.8631256821313649
21
24.011911077631545
31
0
0
LINE
5
872
100
AcDbEntity
8
0
100
AcDbLine
10
8.3726537621313657
20
23.789312277631545
30
0
11
8.4028364021313653
21
23.785539477631538
31
0
0
LINE
5
873
100
AcDbEntity
8
0
100
AcDbLine
10
7.3984976021313669
20
24.336377157631535
30
0
11
7.4181196421313649
21
24.321285477631545
31
0
0
LINE
5
874
100
AcDbEntity
8
0
100
AcDbLine
10
8.8518070421313624
20
23.989273917631539
30
0
11
8.8555798421313661
21
23.99681939763154
31
0
0
LINE
5
875
100
AcDbEntity
8
0
100
AcDbLine
10
8.7386214821313626
20
23.876088117631543
30
0
11
8.7492590021313656
21
23.883633957631545
31
0
0
LINE
5
876
100
AcDbEntity
8
0
100
AcDbLine
10
8.6895741221313667
20
23.849678157631544
30
0
11
8.6971199621313637
21
23.853450957631548
31
0
0
LINE
5
877
100
AcDbEntity
8
0
100
AcDbLine
10
8.7046658021313661
20
23.857223637631545
30
0
11
8.7122112821313635
21
23.860996797631547
31
0
0
LINE
5
878
100
AcDbEntity
8
0
100
AcDbLine
10
8.7264698021313656
20
23.868542277631541
30
0
11
8.7386214821313626
21
23.876088117631543
31
0
0
LINE
5
879
100
AcDbEntity
8
0
100
AcDbLine
10
8.8555798421313661
20
23.99681939763154
30
0
11
8.8593528821313647
21
24.004365237631539
31
0
0
LINE
5
880
100
AcDbEntity
8
0
100
AcDbLine
10
8.7492590021313656
20
23.883633957631545
30
0
11
8.7650313221313656
21
23.894952477631541
31
0
0
LINE
5
881
100
AcDbEntity
8
0
100
AcDbLine
10
8.659391122131364
20
23.834586597631542
30
0
11
8.6669369621313663
21
23.838359277631543
31
0
0
LINE
5
882
100
AcDbEntity
8
0
100
AcDbLine
10
8.7798198821313633
20
23.906270997631541
30
0
11
8.8329430421313653
21
23.960074797631545
31
0
0
LINE
5
883
100
AcDbEntity
8
0
100
AcDbLine
10
8.6820282821313643
20
23.845905117631542
30
0
11
8.6895741221313667
21
23.849678157631544
31
0
0
LINE
5
884
100
AcDbEntity
8
0
100
AcDbLine
10
8.7122112821313635
20
23.860996797631547
30
0
11
8.7197571221313659
21
23.864769477631548
31
0
0
LINE
5
885
100
AcDbEntity
8
0
100
AcDbLine
10
8.7197571221313659
20
23.864769477631548
30
0
11
8.7264698021313656
21
23.868542277631541
31
0
0
LINE
5
886
100
AcDbEntity
8
0
100
AcDbLine
10
8.6744824421313673
20
23.842132317631545
30
0
11
8.6820282821313643
21
23.845905117631542
31
0
0
LINE
5
887
100
AcDbEntity
8
0
100
AcDbLine
10
8.6971199621313637
20
23.853450957631548
30
0
11
8.7046658021313661
21
23.857223637631545
31
0
0
LINE
5
888
100
AcDbEntity
8
0
100
AcDbLine
10
8.8631256821313649
20
24.011911077631545
30
0
11
8.8668987221313653
21
24.019456557631539
31
0
0
LINE
5
889
100
AcDbEntity
8
0
100
AcDbLine
10
9.1725005621313667
20
24.332601117631548
30
0
11
9.1800464021313655
21
24.336373797631545
31
0
0
LINE
5
890
100
AcDbEntity
8
0
100
AcDbLine
10
9.1875918821313665
20
24.340146957631546
30
0
11
9.1951377221313653
21
24.343919637631547
31
0
0
LINE
5
891
100
AcDbEntity
8
0
100
AcDbLine
10
9.1498634021313663
20
24.321282477631541
30
0
11
9.1574088821313637
21
24.325055277631542
31
0
0
LINE
5
892
100
AcDbEntity
8
0
100
AcDbLine
10
9.0970432421313649
20
24.294872277631544
30
0
11
9.1045890821313638
21
24.298645437631539
31
0
0
LINE
5
893
100
AcDbEntity
8
0
100
AcDbLine
10
8.9461287221313643
20
24.169535157631543
30
0
11
8.9536745621313667
21
24.181686477631541
31
0
0
LINE
5
894
100
AcDbEntity
8
0
100
AcDbLine
10
9.2253206021313652
20
24.359010957631551
30
0
11
9.2328664421313658
21
24.362784117631545
31
0
0
LINE
5
895
100
AcDbEntity
8
0
100
AcDbLine
10
8.8404885221313663
20
23.970409557631541
30
0
11
8.8480343621313651
21
23.982560877631538
31
0
0
LINE
5
896
100
AcDbEntity
8
0
100
AcDbLine
10
9.0074660021313662
20
24.238279437631547
30
0
11
9.0178130021313656
21
24.245825277631543
31
0
0
LINE
5
897
100
AcDbEntity
8
0
100
AcDbLine
10
9.0630875621313685
20
24.276007917631539
30
0
11
9.0752388821313659
21
24.283553757631548
31
0
0
LINE
5
898
100
AcDbEntity
8
0
100
AcDbLine
10
9.0404504021313645
20
24.260916597631546
30
0
11
9.0517690421313652
21
24.268462437631538
31
0
0
LINE
5
899
100
AcDbEntity
8
0
100
AcDbLine
10
9.1951377221313653
20
24.343919637631547
30
0
11
9.2026834421313666
21
24.34769243763154
31
0
0
LINE
5
900
100
AcDbEntity
8
0
100
AcDbLine
10
9.0752388821313659
20
24.283553757631548
30
0
11
9.0819519221313652
21
24.287326797631543
31
0
0
LINE
5
901
100
AcDbEntity
8
0
100
AcDbLine
10
9.1272262421313659
20
24.309963597631548
30
0
11
9.1347720821313665
21
24.313736757631542
31
0
0
LINE
5
902
100
AcDbEntity
8
0
100
AcDbLine
10
9.1423175621313675
20
24.317509437631539
30
0
11
9.1498634021313663
21
24.321282477631541
31
0
0
LINE
5
903
100
AcDbEntity
8
0
100
AcDbLine
10
8.8668987221313653
20
24.019456557631539
30
0
11
8.942356042131367
21
24.162822117631542
31
0
0
LINE
5
904
100
AcDbEntity
8
0
100
AcDbLine
10
7.5501696821313669
20
24.199554237631542
30
0
11
7.670901562131367
21
23.981728077631544
31
0
0
LINE
5
905
100
AcDbEntity
8
0
100
AcDbLine
10
9.5988340421313669
20
22.532946357631552
30
0
11
9.6026072021313649
21
22.664996277631552
31
0
0
LINE
5
906
100
AcDbEntity
8
0
100
AcDbLine
10
6.8918041421313676
20
22.523517357631547
30
0
11
6.8936907221313675
21
22.431082557631548
31
0
0
CIRCLE
5
907
100
AcDbEntity
8
0
100
AcDbCircle
10
8.244375982131368
20
22.331100057631552
30
0
40
0.12499999999999999
210
0
220
0
230
1
0
ARC
5
908
100
AcDbEntity
8
0
100
AcDbCircle
10
9.8681679316812954
20
22.00964391487177
30
0
40
0.22200082030597945
210
0
220
0
230
1
100
AcDbArc
50
187.12496027596501
51
256.84941638807129
0
ARC
5
909
100
AcDbEntity
8
0
100
AcDbCircle
10
6.2967284727980681
20
22.301574837675201
30
0
40
0.65769312699472104
210
0
220
0
230
1
100
AcDbArc
50
288.12336692619618
51
323.29144101143436
0
ARC
5
910
100
AcDbEntity
8
0
100
AcDbCircle
10
6.1572868667861052
20
22.316479682262067
30
0
40
0.83677925048047352
210
0
220
-0
230
1
100
AcDbArc
50
31.952826645042531
51
63.435677758346607
0
ARC
5
911
100
AcDbEntity
8
0
100
AcDbCircle
10
9.7183925765307144
20
21.220393206981754
30
0
40
0.50946206171827779
210
0
220
-0
230
1
100
AcDbArc
50
16.73977841167796
51
37.373084796858244
0
LINE
5
912
100
AcDbEntity
8
0
100
AcDbLine
10
10.323223882131366
20
20.986072197631554
30
0
11
10.326996562131367
21
20.959662357631547
31
0
0
ARC
5
913
100
AcDbEntity
8
0
100
AcDbCircle
10
8.5818595653960621
20
20.682135950152912
30
0
40
1.7652177642930604
210
0
220
0
230
1
100
AcDbArc
50
-12.825887044861812
51
5.7110261708495162
0
LINE
5
914
100
AcDbEntity
8
0
100
AcDbLine
10
9.9817797821313654
20
20.20320359763155
30
0
11
10.233024040436579
21
20.228436474595586
31
0
0
ARC
5
915
100
AcDbEntity
8
0
100
AcDbCircle
10
10.225029724192771
20
20.308036040598132
30
0
40
0.080000000000000487
210
0
220
0
230
1
100
AcDbArc
50
275.73507929403695
51
347.17411295514097
0
LINE
5
916
100
AcDbEntity
8
0
100
AcDbLine
10
8.5251396604186294
20
20.993568581475031
30
0
11
8.5624555218287171
21
20.985581123460708
31
0
0
ARC
5
917
100
AcDbEntity
8
0
100
AcDbCircle
10
8.5196570749825629
20
20.785635044468599
30
0
40
0.20447528348619787
210
0
220
-0
230
1
100
AcDbArc
50
43.926028752165124
51
77.9181591718813
0
ENDSEC
0
SECTION
2
OBJECTS
0
DICTIONARY
5
C
100
AcDbDictionary
3
ACAD_GROUP
350
D
3
ACAD_MLINESTYLE
350
17
0
DICTIONARY
5
D
100
AcDbDictionary
0
DICTIONARY
5
1A
330
C
100
AcDbDictionary
0
DICTIONARY
5
17
100
AcDbDictionary
0
ENDSEC
0
EOF