  0
SECTION
  2
HEADER
  9
$ACADVER
  1
AC1009
  0
ENDSEC
  0
SECTION
  2
ENTITIES
  0
POLYLINE
  5
90
  8
Layer_0
  62
0
  70
1
  66
1
  10
0
  20
0
  30
0
  0
VERTEX
  5
90
  8
Layer_0
  10
29.295057
  20
10.497775
  0
VERTEX
  5
91
  8
Layer_0
  10
29.309814
  20
10.524727
  0
VERTEX
  5
92
  8
Layer_0
  10
29.324005
  20
10.550401
  0
VERTEX
  5
93
  8
Layer_0
  10
29.337658
  20
10.574839
  0
VERTEX
  5
94
  8
Layer_0
  10
29.350813
  20
10.59808
  0
VERTEX
  5
95
  8
Layer_0
  10
29.363495
  20
10.620168
  0
VERTEX
  5
96
  8
Layer_0
  10
29.37575
  20
10.641141
  0
VERTEX
  5
97
  8
Layer_0
  10
29.387602
  20
10.661037
  0
VERTEX
  5
98
  8
Layer_0
  10
29.39909
  20
10.679905
  0
VERTEX
  5
99
  8
Layer_0
  10
29.421106
  20
10.714705
  0
VERTEX
  5
9a
  8
Layer_0
  10
29.44207
  20
10.745872
  0
VERTEX
  5
9b
  8
Layer_0
  10
29.462252
  20
10.773725
  0
VERTEX
  5
9c
  8
Layer_0
  10
29.481922
  20
10.798593
  0
VERTEX
  5
9d
  8
Layer_0
  10
29.501358
  20
10.820806
  0
VERTEX
  5
9e
  8
Layer_0
  10
29.520826
  20
10.840688
  0
VERTEX
  5
9f
  8
Layer_0
  10
29.5406
  20
10.85857
  0
VERTEX
  5
a0
  8
Layer_0
  10
29.560953
  20
10.874778
  0
VERTEX
  5
a1
  8
Layer_0
  10
29.582157
  20
10.889641
  0
VERTEX
  5
a2
  8
Layer_0
  10
29.604481
  20
10.903481
  0
VERTEX
  5
a3
  8
Layer_0
  10
29.628201
  20
10.916631
  0
VERTEX
  5
a4
  8
Layer_0
  10
29.653584
  20
10.929414
  0
VERTEX
  5
a5
  8
Layer_0
  10
29.665144
  20
10.934725
  0
VERTEX
  5
a6
  8
Layer_0
  10
29.676033
  20
10.939175
  0
VERTEX
  5
a7
  8
Layer_0
  10
29.686243
  20
10.94278
  0
VERTEX
  5
a8
  8
Layer_0
  10
29.695776
  20
10.945553
  0
VERTEX
  5
a9
  8
Layer_0
  10
29.704632
  20
10.947509
  0
VERTEX
  5
aa
  8
Layer_0
  10
29.712803
  20
10.948667
  0
VERTEX
  5
ab
  8
Layer_0
  10
29.720289
  20
10.949041
  0
VERTEX
  5
ac
  8
Layer_0
  10
29.727089
  20
10.948652
  0
VERTEX
  5
ad
  8
Layer_0
  10
29.7332
  20
10.947509
  0
VERTEX
  5
ae
  8
Layer_0
  10
29.738619
  20
10.945632
  0
VERTEX
  5
af
  8
Layer_0
  10
29.743343
  20
10.943037
  0
VERTEX
  5
b0
  8
Layer_0
  10
29.747372
  20
10.93974
  0
VERTEX
  5
b1
  8
Layer_0
  10
29.753334
  20
10.931099
  0
VERTEX
  5
b2
  8
Layer_0
  10
29.756489
  20
10.919841
  0
VERTEX
  5
b3
  8
Layer_0
  10
29.756813
  20
10.906089
  0
VERTEX
  5
b4
  8
Layer_0
  10
29.754293
  20
10.889975
  0
VERTEX
  5
b5
  8
Layer_0
  10
29.748909
  20
10.871623
  0
VERTEX
  5
b6
  8
Layer_0
  10
29.740643
  20
10.851164
  0
VERTEX
  5
b7
  8
Layer_0
  10
29.729481
  20
10.828726
  0
VERTEX
  5
b8
  8
Layer_0
  10
29.715399
  20
10.804432
  0
VERTEX
  5
b9
  8
Layer_0
  10
29.698383
  20
10.778417
  0
VERTEX
  5
ba
  8
Layer_0
  10
29.678415
  20
10.750807
  0
VERTEX
  5
bb
  8
Layer_0
  10
29.66659
  20
10.735481
  0
VERTEX
  5
bc
  8
Layer_0
  10
29.653311
  20
10.718833
  0
VERTEX
  5
bd
  8
Layer_0
  10
29.638695
  20
10.700989
  0
VERTEX
  5
be
  8
Layer_0
  10
29.622858
  20
10.682071
  0
VERTEX
  5
bf
  8
Layer_0
  10
29.605917
  20
10.662195
  0
VERTEX
  5
c0
  8
Layer_0
  10
29.58799
  20
10.641482
  0
VERTEX
  5
c1
  8
Layer_0
  10
29.569191
  20
10.620057
  0
VERTEX
  5
c2
  8
Layer_0
  10
29.549635
  20
10.598043
  0
VERTEX
  5
c3
  8
Layer_0
  10
29.466198
  20
10.506489
  0
VERTEX
  5
c4
  8
Layer_0
  10
29.37999
  20
10.415157
  0
VERTEX
  5
c5
  8
Layer_0
  10
29.338175
  20
10.372
  0
VERTEX
  5
c6
  8
Layer_0
  10
29.298462
  20
10.331808
  0
VERTEX
  5
c7
  8
Layer_0
  10
29.279684
  20
10.313128
  0
VERTEX
  5
c8
  8
Layer_0
  10
29.261782
  20
10.295552
  0
VERTEX
  5
c9
  8
Layer_0
  10
29.244871
  20
10.279204
  0
VERTEX
  5
ca
  8
Layer_0
  10
29.229067
  20
10.264203
  0
VERTEX
  5
cb
  8
Layer_0
  10
29.214485
  20
10.250669
  0
VERTEX
  5
cc
  8
Layer_0
  10
29.201244
  20
10.238727
  0
VERTEX
  5
cd
  8
Layer_0
  10
29.189459
  20
10.228493
  0
VERTEX
  5
ce
  8
Layer_0
  10
29.179245
  20
10.220095
  0
VERTEX
  5
cf
  8
Layer_0
  10
29.170723
  20
10.21365
  0
VERTEX
  5
d0
  8
Layer_0
  10
29.164005
  20
10.209276
  0
VERTEX
  5
d1
  8
Layer_0
  10
29.159212
  20
10.207099
  0
VERTEX
  5
d2
  8
Layer_0
  10
29.156456
  20
10.207241
  0
VERTEX
  5
d3
  8
Layer_0
  10
29.155834
  20
10.209805
  0
VERTEX
  5
d4
  8
Layer_0
  10
29.15678
  20
10.215147
  0
VERTEX
  5
d5
  8
Layer_0
  10
29.159227
  20
10.223112
  0
VERTEX
  5
d6
  8
Layer_0
  10
29.163101
  20
10.233553
  0
VERTEX
  5
d7
  8
Layer_0
  10
29.168329
  20
10.246323
  0
VERTEX
  5
d8
  8
Layer_0
  10
29.174843
  20
10.261269
  0
VERTEX
  5
d9
  8
Layer_0
  10
29.182573
  20
10.278244
  0
VERTEX
  5
da
  8
Layer_0
  10
29.191448
  20
10.2971
  0
VERTEX
  5
db
  8
Layer_0
  10
29.201391
  20
10.317688
  0
VERTEX
  5
dc
  8
Layer_0
  10
29.212337
  20
10.339858
  0
VERTEX
  5
dd
  8
Layer_0
  10
29.224215
  20
10.363462
  0
VERTEX
  5
de
  8
Layer_0
  10
29.236948
  20
10.388352
  0
VERTEX
  5
df
  8
Layer_0
  10
29.250471
  20
10.414376
  0
VERTEX
  5
e0
  8
Layer_0
  10
29.264709
  20
10.441388
  0
VERTEX
  5
e1
  8
Layer_0
  10
29.279596
  20
10.469238
  0
VERTEX
  5
e2
  8
Layer_0
  10
29.295057
  20
10.497775
  0
SEQEND
  0
CIRCLE
  5
e4
  8
Layer_0
  62
0
  10
17.467598
  20
10.218819
  30
0
  40
0.062500946
  0
CIRCLE
  5
e4
  8
Layer_0
  62
0
  10
26.761223
  20
10.218819
  30
0
  40
0.062500946
  0
POLYLINE
  5
e4
  8
Layer_0
  62
0
  70
1
  66
1
  10
0
  20
0
  30
0
  0
VERTEX
  5
e4
  8
Layer_0
  10
20.572775
  20
11.672121
  0
VERTEX
  5
e5
  8
Layer_0
  10
20.412783
  20
11.688485
  0
VERTEX
  5
e6
  8
Layer_0
  10
20.252893
  20
11.705801
  0
VERTEX
  5
e7
  8
Layer_0
  10
19.980608
  20
11.735944
  0
VERTEX
  5
e8
  8
Layer_0
  10
19.921825
  20
11.742376
  0
VERTEX
  5
e9
  8
Layer_0
  10
19.863037
  20
11.748708
  0
VERTEX
  5
ea
  8
Layer_0
  10
19.862421
  20
11.748861
  0
VERTEX
  5
eb
  8
Layer_0
  10
19.813751
  20
11.753752
  0
VERTEX
  5
ec
  8
Layer_0
  10
19.765072
  20
11.758551
  0
VERTEX
  5
ed
  8
Layer_0
  10
19.686769
  20
11.765015
  0
VERTEX
  5
ee
  8
Layer_0
  10
19.608362
  20
11.770084
  0
VERTEX
  5
ef
  8
Layer_0
  10
19.588448
  20
11.770921
  0
VERTEX
  5
f0
  8
Layer_0
  10
19.568529
  20
11.771623
  0
VERTEX
  5
f1
  8
Layer_0
  10
19.548225
  20
11.771995
  0
VERTEX
  5
f2
  8
Layer_0
  10
19.529165
  20
11.771553
  0
VERTEX
  5
f3
  8
Layer_0
  10
19.510138
  20
11.770301
  0
VERTEX
  5
f4
  8
Layer_0
  10
19.491173
  20
11.768239
  0
VERTEX
  5
f5
  8
Layer_0
  10
19.488253
  20
11.767777
  0
VERTEX
  5
f6
  8
Layer_0
  10
19.476025
  20
11.765257
  0
VERTEX
  5
f7
  8
Layer_0
  10
19.463953
  20
11.762088
  0
VERTEX
  5
f8
  8
Layer_0
  10
19.451189
  20
11.757474
  0
VERTEX
  5
f9
  8
Layer_0
  10
19.44273
  20
11.75409
  0
VERTEX
  5
fa
  8
Layer_0
  10
19.426258
  20
11.744851
  0
VERTEX
  5
fb
  8
Layer_0
  10
19.411049
  20
11.733637
  0
VERTEX
  5
fc
  8
Layer_0
  10
19.400303
  20
11.722948
  0
VERTEX
  5
fd
  8
Layer_0
  10
19.390749
  20
11.711184
  0
VERTEX
  5
fe
  8
Layer_0
  10
19.389212
  20
11.708569
  0
VERTEX
  5
ff
  8
Layer_0
  10
19.384218
  20
11.700629
  0
VERTEX
  5
100
  8
Layer_0
  10
19.379677
  20
11.692421
  0
VERTEX
  5
101
  8
Layer_0
  10
19.374674
  20
11.680026
  0
VERTEX
  5
102
  8
Layer_0
  10
19.370827
  20
11.667253
  0
VERTEX
  5
103
  8
Layer_0
  10
19.368137
  20
11.654185
  0
VERTEX
  5
104
  8
Layer_0
  10
19.366604
  20
11.640902
  0
VERTEX
  5
105
  8
Layer_0
  10
19.366018
  20
11.628636
  0
VERTEX
  5
106
  8
Layer_0
  10
19.366417
  20
11.616386
  0
VERTEX
  5
107
  8
Layer_0
  10
19.367796
  20
11.604203
  0
VERTEX
  5
108
  8
Layer_0
  10
19.370142
  20
11.592151
  0
VERTEX
  5
109
  8
Layer_0
  10
19.371218
  20
11.588152
  0
VERTEX
  5
10a
  8
Layer_0
  10
19.376839
  20
11.57172
  0
VERTEX
  5
10b
  8
Layer_0
  10
19.384468
  20
11.5562
  0
VERTEX
  5
10c
  8
Layer_0
  10
19.394009
  20
11.541775
  0
VERTEX
  5
10d
  8
Layer_0
  10
19.405359
  20
11.528635
  0
VERTEX
  5
10e
  8
Layer_0
  10
19.418236
  20
11.516926
  0
VERTEX
  5
10f
  8
Layer_0
  10
19.432272
  20
11.506643
  0
VERTEX
  5
110
  8
Layer_0
  10
19.443192
  20
11.500031
  0
VERTEX
  5
111
  8
Layer_0
  10
19.461744
  20
11.49112
  0
VERTEX
  5
112
  8
Layer_0
  10
19.480875
  20
11.483602
  0
VERTEX
  5
113
  8
Layer_0
  10
19.500502
  20
11.477489
  0
VERTEX
  5
114
  8
Layer_0
  10
19.520548
  20
11.47281
  0
VERTEX
  5
115
  8
Layer_0
  10
19.551334
  20
11.467358
  0
VERTEX
  5
116
  8
Layer_0
  10
19.58227
  20
11.4629
  0
VERTEX
  5
117
  8
Layer_0
  10
19.613333
  20
11.459437
  0
VERTEX
  5
118
  8
Layer_0
  10
19.644503
  20
11.456969
  0
VERTEX
  5
119
  8
Layer_0
  10
19.763535
  20
11.447958
  0
VERTEX
  5
11a
  8
Layer_0
  10
19.882414
  20
11.437131
  0
VERTEX
  5
11b
  8
Layer_0
  10
19.96669
  20
11.42898
  0
VERTEX
  5
11c
  8
Layer_0
  10
20.289845
  20
11.396873
  0
VERTEX
  5
11d
  8
Layer_0
  10
20.613068
  20
11.365388
  0
VERTEX
  5
11e
  8
Layer_0
  10
20.686424
  20
11.358698
  0
VERTEX
  5
11f
  8
Layer_0
  10
20.68704
  20
11.358698
  0
VERTEX
  5
120
  8
Layer_0
  10
20.711493
  20
11.356544
  0
VERTEX
  5
121
  8
Layer_0
  10
20.709801
  20
11.351932
  0
VERTEX
  5
122
  8
Layer_0
  10
20.691917
  20
11.307226
  0
VERTEX
  5
123
  8
Layer_0
  10
20.673145
  20
11.262892
  0
VERTEX
  5
124
  8
Layer_0
  10
20.6535
  20
11.21894
  0
VERTEX
  5
125
  8
Layer_0
  10
20.632982
  20
11.175381
  0
VERTEX
  5
126
  8
Layer_0
  10
20.596775
  20
11.101874
  0
VERTEX
  5
127
  8
Layer_0
  10
20.559055
  20
11.029141
  0
VERTEX
  5
128
  8
Layer_0
  10
20.519833
  20
10.957211
  0
VERTEX
  5
129
  8
Layer_0
  10
20.479116
  20
10.886104
  0
VERTEX
  5
12a
  8
Layer_0
  10
20.4251
  20
10.795752
  0
VERTEX
  5
12b
  8
Layer_0
  10
20.36956
  20
10.706333
  0
VERTEX
  5
12c
  8
Layer_0
  10
20.31251
  20
10.61787
  0
VERTEX
  5
12d
  8
Layer_0
  10
20.253969
  20
10.530389
  0
VERTEX
  5
12e
  8
Layer_0
  10
20.181995
  20
10.426273
  0
VERTEX
  5
12f
  8
Layer_0
  10
20.108023
  20
10.322773
  0
VERTEX
  5
130
  8
Layer_0
  10
20.031729
  20
10.219565
  0
VERTEX
  5
131
  8
Layer_0
  10
19.954103
  20
10.117356
  0
VERTEX
  5
132
  8
Layer_0
  10
19.875156
  20
10.01616
  0
VERTEX
  5
133
  8
Layer_0
  10
19.794909
  20
9.9160004
  0
VERTEX
  5
134
  8
Layer_0
  10
19.705898
  20
9.8081217
  0
VERTEX
  5
135
  8
Layer_0
  10
19.615465
  20
9.7014542
  0
VERTEX
  5
136
  8
Layer_0
  10
19.523611
  20
9.5960007
  0
VERTEX
  5
137
  8
Layer_0
  10
19.430349
  20
9.4917717
  0
VERTEX
  5
138
  8
Layer_0
  10
19.332592
  20
9.3864164
  0
VERTEX
  5
139
  8
Layer_0
  10
19.233345
  20
9.282465
  0
VERTEX
  5
13a
  8
Layer_0
  10
19.170612
  20
9.2190981
  0
VERTEX
  5
13b
  8
Layer_0
  10
19.107033
  20
9.1565876
  0
VERTEX
  5
13c
  8
Layer_0
  10
19.04261
  20
9.0949402
  0
VERTEX
  5
13d
  8
Layer_0
  10
18.977364
  20
9.0341721
  0
VERTEX
  5
13e
  8
Layer_0
  10
18.925179
  20
8.9871988
  0
VERTEX
  5
13f
  8
Layer_0
  10
18.871933
  20
8.9414368
  0
VERTEX
  5
140
  8
Layer_0
  10
18.817657
  20
8.8969049
  0
VERTEX
  5
141
  8
Layer_0
  10
18.762365
  20
8.8536234
  0
VERTEX
  5
142
  8
Layer_0
  10
18.713116
  20
8.8181505
  0
VERTEX
  5
143
  8
Layer_0
  10
18.662249
  20
8.7850332
  0
VERTEX
  5
144
  8
Layer_0
  10
18.596729
  20
8.7478542
  0
VERTEX
  5
145
  8
Layer_0
  10
18.529837
  20
8.713213
  0
VERTEX
  5
146
  8
Layer_0
  10
18.512449
  20
8.7048845
  0
VERTEX
  5
147
  8
Layer_0
  10
18.494684
  20
8.6974134
  0
VERTEX
  5
148
  8
Layer_0
  10
18.47658
  20
8.6908083
  0
VERTEX
  5
149
  8
Layer_0
  10
18.45817
  20
8.68507
  0
VERTEX
  5
14a
  8
Layer_0
  10
18.452002
  20
8.6839209
  0
VERTEX
  5
14b
  8
Layer_0
  10
18.445868
  20
8.6826096
  0
VERTEX
  5
14c
  8
Layer_0
  10
18.436947
  20
8.6819944
  0
VERTEX
  5
14d
  8
Layer_0
  10
18.434935
  20
8.6823788
  0
VERTEX
  5
14e
  8
Layer_0
  10
18.432949
  20
8.6829166
  0
VERTEX
  5
14f
  8
Layer_0
  10
18.434448
  20
8.7109356
  0
VERTEX
  5
150
  8
Layer_0
  10
18.438177
  20
8.7387419
  0
VERTEX
  5
151
  8
Layer_0
  10
18.446463
  20
8.781496
  0
VERTEX
  5
152
  8
Layer_0
  10
18.456078
  20
8.8239632
  0
VERTEX
  5
153
  8
Layer_0
  10
18.467007
  20
8.8661137
  0
VERTEX
  5
154
  8
Layer_0
  10
18.47924
  20
8.9079103
  0
VERTEX
  5
155
  8
Layer_0
  10
18.499405
  20
8.9707527
  0
VERTEX
  5
156
  8
Layer_0
  10
18.520998
  20
9.0331144
  0
VERTEX
  5
157
  8
Layer_0
  10
18.544014
  20
9.094964
  0
VERTEX
  5
158
  8
Layer_0
  10
18.568438
  20
9.1562805
  0
VERTEX
  5
159
  8
Layer_0
  10
18.597118
  20
9.2245626
  0
VERTEX
  5
15a
  8
Layer_0
  10
18.619612
  20
9.2741747
  0
VERTEX
  5
15b
  8
Layer_0
  10
18.64282
  20
9.3234444
  0
VERTEX
  5
15c
  8
Layer_0
  10
18.66675
  20
9.3723736
  0
VERTEX
  5
15d
  8
Layer_0
  10
18.691393
  20
9.4209518
  0
VERTEX
  5
15e
  8
Layer_0
  10
18.705618
  20
9.447711
  0
VERTEX
  5
15f
  8
Layer_0
  10
18.706387
  20
9.4489412
  0
VERTEX
  5
160
  8
Layer_0
  10
18.737745
  20
9.511322
  0
VERTEX
  5
161
  8
Layer_0
  10
18.767286
  20
9.5745878
  0
VERTEX
  5
162
  8
Layer_0
  10
18.778433
  20
9.600544
  0
VERTEX
  5
163
  8
Layer_0
  10
18.788481
  20
9.6269331
  0
VERTEX
  5
164
  8
Layer_0
  10
18.797432
  20
9.6537142
  0
VERTEX
  5
165
  8
Layer_0
  10
18.805273
  20
9.6808558
  0
VERTEX
  5
166
  8
Layer_0
  10
18.809906
  20
9.7014303
  0
VERTEX
  5
167
  8
Layer_0
  10
18.812975
  20
9.7222681
  0
VERTEX
  5
168
  8
Layer_0
  10
18.814463
  20
9.7432756
  0
VERTEX
  5
169
  8
Layer_0
  10
18.814346
  20
9.7643633
  0
VERTEX
  5
16a
  8
Layer_0
  10
18.812788
  20
9.7809391
  0
VERTEX
  5
16b
  8
Layer_0
  10
18.809752
  20
9.7972746
  0
VERTEX
  5
16c
  8
Layer_0
  10
18.805246
  20
9.8132639
  0
VERTEX
  5
16d
  8
Layer_0
  10
18.799274
  20
9.8288012
  0
VERTEX
  5
16e
  8
Layer_0
  10
18.789934
  20
9.8464746
  0
VERTEX
  5
16f
  8
Layer_0
  10
18.778822
  20
9.8630962
  0
VERTEX
  5
170
  8
Layer_0
  10
18.764641
  20
9.8792486
  0
VERTEX
  5
171
  8
Layer_0
  10
18.748785
  20
9.8936567
  0
VERTEX
  5
172
  8
Layer_0
  10
18.731413
  20
9.9062052
  0
VERTEX
  5
173
  8
Layer_0
  10
18.712692
  20
9.916769
  0
VERTEX
  5
174
  8
Layer_0
  10
18.694555
  20
9.924963
  0
VERTEX
  5
175
  8
Layer_0
  10
18.675968
  20
9.9320183
  0
VERTEX
  5
176
  8
Layer_0
  10
18.656979
  20
9.9379101
  0
VERTEX
  5
177
  8
Layer_0
  10
18.637642
  20
9.942605
  0
VERTEX
  5
178
  8
Layer_0
  10
18.608511
  20
9.9485579
  0
VERTEX
  5
179
  8
Layer_0
  10
18.579165
  20
9.9532604
  0
VERTEX
  5
17a
  8
Layer_0
  10
18.549646
  20
9.9567108
  0
VERTEX
  5
17b
  8
Layer_0
  10
18.519995
  20
9.9589071
  0
VERTEX
  5
17c
  8
Layer_0
  10
18.488888
  20
9.9592581
  0
VERTEX
  5
17d
  8
Layer_0
  10
18.457794
  20
9.9586334
  0
VERTEX
  5
17e
  8
Layer_0
  10
18.426735
  20
9.9570284
  0
VERTEX
  5
17f
  8
Layer_0
  10
18.395733
  20
9.9544468
  0
VERTEX
  5
180
  8
Layer_0
  10
18.331121
  20
9.9469309
  0
VERTEX
  5
181
  8
Layer_0
  10
18.266905
  20
9.9367523
  0
VERTEX
  5
182
  8
Layer_0
  10
18.203163
  20
9.9239244
  0
VERTEX
  5
183
  8
Layer_0
  10
18.13998
  20
9.9084644
  0
VERTEX
  5
184
  8
Layer_0
  10
18.11281
  20
9.9007168
  0
VERTEX
  5
185
  8
Layer_0
  10
18.085972
  20
9.891922
  0
VERTEX
  5
186
  8
Layer_0
  10
18.05949
  20
9.8820963
  0
VERTEX
  5
187
  8
Layer_0
  10
18.033403
  20
9.8712473
  0
VERTEX
  5
188
  8
Layer_0
  10
18.00985
  20
9.8587952
  0
VERTEX
  5
189
  8
Layer_0
  10
17.987576
  20
9.8441801
  0
VERTEX
  5
18a
  8
Layer_0
  10
17.979086
  20
9.8369761
  0
VERTEX
  5
18b
  8
Layer_0
  10
17.971106
  20
9.8292313
  0
VERTEX
  5
18c
  8
Layer_0
  10
17.963669
  20
9.8209629
  0
VERTEX
  5
18d
  8
Layer_0
  10
17.956818
  20
9.812192
  0
VERTEX
  5
18e
  8
Layer_0
  10
17.953434
  20
9.8071175
  0
VERTEX
  5
18f
  8
Layer_0
  10
17.951897
  20
9.8045025
  0
VERTEX
  5
190
  8
Layer_0
  10
17.946091
  20
9.7929688
  0
VERTEX
  5
191
  8
Layer_0
  10
17.941284
  20
9.7809725
  0
VERTEX
  5
192
  8
Layer_0
  10
17.928741
  20
9.7552567
  0
VERTEX
  5
193
  8
Layer_0
  10
17.915756
  20
9.7297611
  0
VERTEX
  5
194
  8
Layer_0
  10
17.906759
  20
9.7113066
  0
VERTEX
  5
195
  8
Layer_0
  10
17.846901
  20
9.5980139
  0
VERTEX
  5
196
  8
Layer_0
  10
17.786341
  20
9.4850817
  0
VERTEX
  5
197
  8
Layer_0
  10
17.752052
  20
9.425705
  0
VERTEX
  5
198
  8
Layer_0
  10
17.715656
  20
9.3676205
  0
VERTEX
  5
199
  8
Layer_0
  10
17.677197
  20
9.3108864
  0
VERTEX
  5
19a
  8
Layer_0
  10
17.636705
  20
9.2555513
  0
VERTEX
  5
19b
  8
Layer_0
  10
17.592043
  20
9.1974478
  0
VERTEX
  5
19c
  8
Layer_0
  10
17.545431
  20
9.1409016
  0
VERTEX
  5
19d
  8
Layer_0
  10
17.495295
  20
9.0835381
  0
VERTEX
  5
19e
  8
Layer_0
  10
17.44516
  20
9.0290966
  0
VERTEX
  5
19f
  8
Layer_0
  10
17.390564
  20
8.9732714
  0
VERTEX
  5
1a0
  8
Layer_0
  10
17.33843
  20
8.9229822
  0
VERTEX
  5
1a1
  8
Layer_0
  10
17.279091
  20
8.8688745
  0
VERTEX
  5
1a2
  8
Layer_0
  10
17.217852
  20
8.8169727
  0
VERTEX
  5
1a3
  8
Layer_0
  10
17.154768
  20
8.7673235
  0
VERTEX
  5
1a4
  8
Layer_0
  10
17.089907
  20
8.7199802
  0
VERTEX
  5
1a5
  8
Layer_0
  10
17.040586
  20
8.6869678
  0
VERTEX
  5
1a6
  8
Layer_0
  10
16.990097
  20
8.6557732
  0
VERTEX
  5
1a7
  8
Layer_0
  10
16.939449
  20
8.6270142
  0
VERTEX
  5
1a8
  8
Layer_0
  10
16.88752
  20
8.6006393
  0
VERTEX
  5
1a9
  8
Layer_0
  10
16.869415
  20
8.5923109
  0
VERTEX
  5
1aa
  8
Layer_0
  10
16.851013
  20
8.5846767
  0
VERTEX
  5
1ab
  8
Layer_0
  10
16.832333
  20
8.5777588
  0
VERTEX
  5
1ac
  8
Layer_0
  10
16.813393
  20
8.5715733
  0
VERTEX
  5
1ad
  8
Layer_0
  10
16.796761
  20
8.5675793
  0
VERTEX
  5
1ae
  8
Layer_0
  10
16.779867
  20
8.5648832
  0
VERTEX
  5
1af
  8
Layer_0
  10
16.778271
  20
8.5859671
  0
VERTEX
  5
1b0
  8
Layer_0
  10
16.778944
  20
8.6070986
  0
VERTEX
  5
1b1
  8
Layer_0
  10
16.779867
  20
8.6198635
  0
VERTEX
  5
1b2
  8
Layer_0
  10
16.784269
  20
8.6508856
  0
VERTEX
  5
1b3
  8
Layer_0
  10
16.789865
  20
8.6817055
  0
VERTEX
  5
1b4
  8
Layer_0
  10
16.796654
  20
8.7122831
  0
VERTEX
  5
1b5
  8
Layer_0
  10
16.804626
  20
8.7425871
  0
VERTEX
  5
1b6
  8
Layer_0
  10
16.817387
  20
8.7869501
  0
VERTEX
  5
1b7
  8
Layer_0
  10
16.831177
  20
8.8309946
  0
VERTEX
  5
1b8
  8
Layer_0
  10
16.845997
  20
8.8747044
  0
VERTEX
  5
1b9
  8
Layer_0
  10
16.861837
  20
8.9180603
  0
VERTEX
  5
1ba
  8
Layer_0
  10
16.887058
  20
8.9838829
  0
VERTEX
  5
1bb
  8
Layer_0
  10
16.913048
  20
9.0455523
  0
VERTEX
  5
1bc
  8
Layer_0
  10
16.943346
  20
9.1121426
  0
VERTEX
  5
1bd
  8
Layer_0
  10
16.974113
  20
9.1743145
  0
VERTEX
  5
1be
  8
Layer_0
  10
17.006552
  20
9.2356358
  0
VERTEX
  5
1bf
  8
Layer_0
  10
17.043154
  20
9.3002272
  0
VERTEX
  5
1c0
  8
Layer_0
  10
17.079662
  20
9.3607702
  0
VERTEX
  5
1c1
  8
Layer_0
  10
17.117743
  20
9.4203367
  0
VERTEX
  5
1c2
  8
Layer_0
  10
17.160189
  20
9.4824677
  0
VERTEX
  5
1c3
  8
Layer_0
  10
17.20125
  20
9.539216
  0
VERTEX
  5
1c4
  8
Layer_0
  10
17.24567
  20
9.5972185
  0
VERTEX
  5
1c5
  8
Layer_0
  10
17.291525
  20
9.6540966
  0
VERTEX
  5
1c6
  8
Layer_0
  10
17.339045
  20
9.7096148
  0
VERTEX
  5
1c7
  8
Layer_0
  10
17.389265
  20
9.7649984
  0
VERTEX
  5
1c8
  8
Layer_0
  10
17.440853
  20
9.8191128
  0
VERTEX
  5
1c9
  8
Layer_0
  10
17.499256
  20
9.8766251
  0
VERTEX
  5
1ca
  8
Layer_0
  10
17.559271
  20
9.9324551
  0
VERTEX
  5
1cb
  8
Layer_0
  10
17.58927
  20
9.95926
  0
VERTEX
  5
1cc
  8
Layer_0
  10
17.619783
  20
9.9854746
  0
VERTEX
  5
1cd
  8
Layer_0
  10
17.650795
  20
10.011095
  0
VERTEX
  5
1ce
  8
Layer_0
  10
17.682302
  20
10.036109
  0
VERTEX
  5
1cf
  8
Layer_0
  10
17.709131
  20
10.056465
  0
VERTEX
  5
1d0
  8
Layer_0
  10
17.736437
  20
10.076177
  0
VERTEX
  5
1d1
  8
Layer_0
  10
17.7642
  20
10.095232
  0
VERTEX
  5
1d2
  8
Layer_0
  10
17.792416
  20
10.113619
  0
VERTEX
  5
1d3
  8
Layer_0
  10
17.814264
  20
10.126797
  0
VERTEX
  5
1d4
  8
Layer_0
  10
17.836555
  20
10.139192
  0
VERTEX
  5
1d5
  8
Layer_0
  10
17.859268
  20
10.150798
  0
VERTEX
  5
1d6
  8
Layer_0
  10
17.882383
  20
10.161601
  0
VERTEX
  5
1d7
  8
Layer_0
  10
17.899429
  20
10.168724
  0
VERTEX
  5
1d8
  8
Layer_0
  10
17.916824
  20
10.174897
  0
VERTEX
  5
1d9
  8
Layer_0
  10
17.934532
  20
10.180114
  0
VERTEX
  5
1da
  8
Layer_0
  10
17.952511
  20
10.184362
  0
VERTEX
  5
1db
  8
Layer_0
  10
17.965088
  20
10.186021
  0
VERTEX
  5
1dc
  8
Layer_0
  10
17.977732
  20
10.186976
  0
VERTEX
  5
1dd
  8
Layer_0
  10
17.98904
  20
10.186481
  0
VERTEX
  5
1de
  8
Layer_0
  10
18.000185
  20
10.184516
  0
VERTEX
  5
1df
  8
Layer_0
  10
18.006798
  20
10.182209
  0
VERTEX
  5
1e0
  8
Layer_0
  10
18.012821
  20
10.17866
  0
VERTEX
  5
1e1
  8
Layer_0
  10
18.018333
  20
10.174366
  0
VERTEX
  5
1e2
  8
Layer_0
  10
18.021408
  20
10.171137
  0
VERTEX
  5
1e3
  8
Layer_0
  10
18.0271
  20
10.163754
  0
VERTEX
  5
1e4
  8
Layer_0
  10
18.032444
  20
10.154876
  0
VERTEX
  5
1e5
  8
Layer_0
  10
18.037096
  20
10.145607
  0
VERTEX
  5
1e6
  8
Layer_0
  10
18.046131
  20
10.122246
  0
VERTEX
  5
1e7
  8
Layer_0
  10
18.055857
  20
10.099163
  0
VERTEX
  5
1e8
  8
Layer_0
  10
18.064724
  20
10.080569
  0
VERTEX
  5
1e9
  8
Layer_0
  10
18.075052
  20
10.062784
  0
VERTEX
  5
1ea
  8
Layer_0
  10
18.086779
  20
10.045887
  0
VERTEX
  5
1eb
  8
Layer_0
  10
18.099842
  20
10.029958
  0
VERTEX
  5
1ec
  8
Layer_0
  10
18.103994
  20
10.025498
  0
VERTEX
  5
1ed
  8
Layer_0
  10
18.115204
  20
10.014884
  0
VERTEX
  5
1ee
  8
Layer_0
  10
18.127388
  20
10.005462
  0
VERTEX
  5
1ef
  8
Layer_0
  10
18.140451
  20
9.9972916
  0
VERTEX
  5
1f0
  8
Layer_0
  10
18.154284
  20
9.9904337
  0
VERTEX
  5
1f1
  8
Layer_0
  10
18.171988
  20
9.9841242
  0
VERTEX
  5
1f2
  8
Layer_0
  10
18.190424
  20
9.9804373
  0
VERTEX
  5
1f3
  8
Layer_0
  10
18.193346
  20
9.9799767
  0
VERTEX
  5
1f4
  8
Layer_0
  10
18.199343
  20
9.9793615
  0
VERTEX
  5
1f5
  8
Layer_0
  10
18.207802
  20
9.9791927
  0
VERTEX
  5
1f6
  8
Layer_0
  10
18.216259
  20
9.979207
  0
VERTEX
  5
1f7
  8
Layer_0
  10
18.220816
  20
9.9794264
  0
VERTEX
  5
1f8
  8
Layer_0
  10
18.225334
  20
9.9799767
  0
VERTEX
  5
1f9
  8
Layer_0
  10
18.24448
  20
9.9835329
  0
VERTEX
  5
1fa
  8
Layer_0
  10
18.262968
  20
9.9894247
  0
VERTEX
  5
1fb
  8
Layer_0
  10
18.280592
  20
9.9975519
  0
VERTEX
  5
1fc
  8
Layer_0
  10
18.297153
  20
10.007813
  0
VERTEX
  5
1fd
  8
Layer_0
  10
18.299578
  20
10.009634
  0
VERTEX
  5
1fe
  8
Layer_0
  10
18.302074
  20
10.01135
  0
VERTEX
  5
1ff
  8
Layer_0
  10
18.31332
  20
10.020937
  0
VERTEX
  5
200
  8
Layer_0
  10
18.323681
  20
10.031431
  0
VERTEX
  5
201
  8
Layer_0
  10
18.33312
  20
10.042766
  0
VERTEX
  5
202
  8
Layer_0
  10
18.341599
  20
10.054872
  0
VERTEX
  5
203
  8
Layer_0
  10
18.352945
  20
10.077277
  0
VERTEX
  5
204
  8
Layer_0
  10
18.361067
  20
10.10092
  0
VERTEX
  5
205
  8
Layer_0
  10
18.365875
  20
10.125451
  0
VERTEX
  5
206
  8
Layer_0
  10
18.367281
  20
10.150529
  0
VERTEX
  5
207
  8
Layer_0
  10
18.366327
  20
10.171877
  0
VERTEX
  5
208
  8
Layer_0
  10
18.363922
  20
10.193089
  0
VERTEX
  5
209
  8
Layer_0
  10
18.360083
  20
10.214089
  0
VERTEX
  5
20a
  8
Layer_0
  10
18.354824
  20
10.234805
  0
VERTEX
  5
20b
  8
Layer_0
  10
18.346064
  20
10.263343
  0
VERTEX
  5
20c
  8
Layer_0
  10
18.334684
  20
10.290866
  0
VERTEX
  5
20d
  8
Layer_0
  10
18.320765
  20
10.317198
  0
VERTEX
  5
20e
  8
Layer_0
  10
18.30438
  20
10.342151
  0
VERTEX
  5
20f
  8
Layer_0
  10
18.289871
  20
10.360276
  0
VERTEX
  5
210
  8
Layer_0
  10
18.274183
  20
10.377354
  0
VERTEX
  5
211
  8
Layer_0
  10
18.25737
  20
10.393324
  0
VERTEX
  5
212
  8
Layer_0
  10
18.239483
  20
10.408126
  0
VERTEX
  5
213
  8
Layer_0
  10
18.209776
  20
10.429214
  0
VERTEX
  5
214
  8
Layer_0
  10
18.17861
  20
10.447971
  0
VERTEX
  5
215
  8
Layer_0
  10
18.146122
  20
10.464341
  0
VERTEX
  5
216
  8
Layer_0
  10
18.112452
  20
10.478254
  0
VERTEX
  5
217
  8
Layer_0
  10
18.079815
  20
10.489841
  0
VERTEX
  5
218
  8
Layer_0
  10
18.046701
  20
10.499938
  0
VERTEX
  5
219
  8
Layer_0
  10
18.013172
  20
10.508541
  0
VERTEX
  5
21a
  8
Layer_0
  10
17.979271
  20
10.515625
  0
VERTEX
  5
21b
  8
Layer_0
  10
17.935469
  20
10.522949
  0
VERTEX
  5
21c
  8
Layer_0
  10
17.891438
  20
10.528623
  0
VERTEX
  5
21d
  8
Layer_0
  10
17.847223
  20
10.532642
  0
VERTEX
  5
21e
  8
Layer_0
  10
17.802874
  20
10.535002
  0
VERTEX
  5
21f
  8
Layer_0
  10
17.777498
  20
10.535771
  0
VERTEX
  5
220
  8
Layer_0
  10
17.716911
  20
10.53611
  0
VERTEX
  5
221
  8
Layer_0
  10
17.656395
  20
10.533861
  0
VERTEX
  5
222
  8
Layer_0
  10
17.596027
  20
10.529028
  0
VERTEX
  5
223
  8
Layer_0
  10
17.535896
  20
10.521623
  0
VERTEX
  5
224
  8
Layer_0
  10
17.492081
  20
10.514005
  0
VERTEX
  5
225
  8
Layer_0
  10
17.448629
  20
10.504614
  0
VERTEX
  5
226
  8
Layer_0
  10
17.405596
  20
10.493463
  0
VERTEX
  5
227
  8
Layer_0
  10
17.363037
  20
10.48056
  0
VERTEX
  5
228
  8
Layer_0
  10
17.308573
  20
10.460914
  0
VERTEX
  5
229
  8
Layer_0
  10
17.255163
  20
10.438653
  0
VERTEX
  5
22a
  8
Layer_0
  10
17.202904
  20
10.413816
  0
VERTEX
  5
22b
  8
Layer_0
  10
17.151884
  20
10.386441
  0
VERTEX
  5
22c
  8
Layer_0
  10
17.115484
  20
10.365355
  0
VERTEX
  5
22d
  8
Layer_0
  10
17.079651
  20
10.343326
  0
VERTEX
  5
22e
  8
Layer_0
  10
17.044409
  20
10.32036
  0
VERTEX
  5
22f
  8
Layer_0
  10
17.009783
  20
10.296474
  0
VERTEX
  5
230
  8
Layer_0
  10
16.973253
  20
10.270374
  0
VERTEX
  5
231
  8
Layer_0
  10
16.937347
  20
10.243418
  0
VERTEX
  5
232
  8
Layer_0
  10
16.935963
  20
10.242495
  0
VERTEX
  5
233
  8
Layer_0
  10
16.899515
  20
10.214197
  0
VERTEX
  5
234
  8
Layer_0
  10
16.880381
  20
10.198458
  0
VERTEX
  5
235
  8
Layer_0
  10
16.860914
  20
10.183132
  0
VERTEX
  5
236
  8
Layer_0
  10
16.841358
  20
10.166595
  0
VERTEX
  5
237
  8
Layer_0
  10
16.821545
  20
10.150375
  0
VERTEX
  5
238
  8
Layer_0
  10
16.820467
  20
10.149606
  0
VERTEX
  5
239
  8
Layer_0
  10
16.781097
  20
10.11608
  0
VERTEX
  5
23a
  8
Layer_0
  10
16.760382
  20
10.098209
  0
VERTEX
  5
23b
  8
Layer_0
  10
16.739882
  20
10.080093
  0
VERTEX
  5
23c
  8
Layer_0
  10
16.738806
  20
10.079017
  0
VERTEX
  5
23d
  8
Layer_0
  10
16.697435
  20
10.0418
  0
VERTEX
  5
23e
  8
Layer_0
  10
16.654221
  20
10.002122
  0
VERTEX
  5
23f
  8
Layer_0
  10
16.653606
  20
10.00166
  0
VERTEX
  5
240
  8
Layer_0
  10
16.609623
  20
9.9607525
  0
VERTEX
  5
241
  8
Layer_0
  10
16.608852
  20
9.9601374
  0
VERTEX
  5
242
  8
Layer_0
  10
16.563639
  20
9.9172306
  0
VERTEX
  5
243
  8
Layer_0
  10
16.563177
  20
9.9166155
  0
VERTEX
  5
244
  8
Layer_0
  10
16.457567
  20
9.8146763
  0
VERTEX
  5
245
  8
Layer_0
  10
16.350945
  20
9.7137938
  0
VERTEX
  5
246
  8
Layer_0
  10
16.243324
  20
9.6139717
  0
VERTEX
  5
247
  8
Layer_0
  10
16.13472
  20
9.5152245
  0
VERTEX
  5
248
  8
Layer_0
  10
15.983531
  20
9.381464
  0
VERTEX
  5
249
  8
Layer_0
  10
15.829994
  20
9.2504282
  0
VERTEX
  5
24a
  8
Layer_0
  10
15.67415
  20
9.1221466
  0
VERTEX
  5
24b
  8
Layer_0
  10
15.516026
  20
8.9966469
  0
VERTEX
  5
24c
  8
Layer_0
  10
15.387747
  20
8.8987265
  0
VERTEX
  5
24d
  8
Layer_0
  10
15.25753
  20
8.8034229
  0
VERTEX
  5
24e
  8
Layer_0
  10
15.125416
  20
8.7107668
  0
VERTEX
  5
24f
  8
Layer_0
  10
14.99145
  20
8.6207857
  0
VERTEX
  5
250
  8
Layer_0
  10
14.918292
  20
8.5735722
  0
VERTEX
  5
251
  8
Layer_0
  10
14.844349
  20
8.5276089
  0
VERTEX
  5
252
  8
Layer_0
  10
14.769638
  20
8.4829044
  0
VERTEX
  5
253
  8
Layer_0
  10
14.694176
  20
8.4394684
  0
VERTEX
  5
254
  8
Layer_0
  10
14.785046
  20
8.6312895
  0
VERTEX
  5
255
  8
Layer_0
  10
14.87501
  20
8.8234463
  0
VERTEX
  5
256
  8
Layer_0
  10
14.964105
  20
9.0160027
  0
VERTEX
  5
257
  8
Layer_0
  10
15.130577
  20
9.3800755
  0
VERTEX
  5
258
  8
Layer_0
  10
15.208294
  20
9.5513649
  0
VERTEX
  5
259
  8
Layer_0
  10
15.219426
  20
9.5786915
  0
VERTEX
  5
25a
  8
Layer_0
  10
15.228007
  20
9.606864
  0
VERTEX
  5
25b
  8
Layer_0
  10
15.233995
  20
9.6356993
  0
VERTEX
  5
25c
  8
Layer_0
  10
15.23736
  20
9.6650152
  0
VERTEX
  5
25d
  8
Layer_0
  10
15.237744
  20
9.6811848
  0
VERTEX
  5
25e
  8
Layer_0
  10
15.236995
  20
9.6972828
  0
VERTEX
  5
25f
  8
Layer_0
  10
15.235132
  20
9.7132483
  0
VERTEX
  5
260
  8
Layer_0
  10
15.232169
  20
9.7290258
  0
VERTEX
  5
261
  8
Layer_0
  10
15.228113
  20
9.7445612
  0
VERTEX
  5
262
  8
Layer_0
  10
15.222978
  20
9.7597933
  0
VERTEX
  5
263
  8
Layer_0
  10
15.216776
  20
9.7746677
  0
VERTEX
  5
264
  8
Layer_0
  10
15.209524
  20
9.7891235
  0
VERTEX
  5
265
  8
Layer_0
  10
15.196139
  20
9.8101711
  0
VERTEX
  5
266
  8
Layer_0
  10
15.180612
  20
9.8295946
  0
VERTEX
  5
267
  8
Layer_0
  10
15.163084
  20
9.8472395
  0
VERTEX
  5
268
  8
Layer_0
  10
15.143702
  20
9.8629427
  0
VERTEX
  5
269
  8
Layer_0
  10
15.124306
  20
9.8759785
  0
VERTEX
  5
26a
  8
Layer_0
  10
15.103986
  20
9.8874578
  0
VERTEX
  5
26b
  8
Layer_0
  10
15.082842
  20
9.8973293
  0
VERTEX
  5
26c
  8
Layer_0
  10
15.060964
  20
9.9055424
  0
VERTEX
  5
26d
  8
Layer_0
  10
15.027682
  20
9.9151735
  0
VERTEX
  5
26e
  8
Layer_0
  10
14.993846
  20
9.9223967
  0
VERTEX
  5
26f
  8
Layer_0
  10
14.95958
  20
9.9271927
  0
VERTEX
  5
270
  8
Layer_0
  10
14.925014
  20
9.929533
  0
VERTEX
  5
271
  8
Layer_0
  10
14.880525
  20
9.9302158
  0
VERTEX
  5
272
  8
Layer_0
  10
14.836075
  20
9.9289322
  0
VERTEX
  5
273
  8
Layer_0
  10
14.791726
  20
9.9256792
  0
VERTEX
  5
274
  8
Layer_0
  10
14.74754
  20
9.9204597
  0
VERTEX
  5
275
  8
Layer_0
  10
14.725256
  20
9.9164562
  0
VERTEX
  5
276
  8
Layer_0
  10
14.703168
  20
9.9115019
  0
VERTEX
  5
277
  8
Layer_0
  10
14.681315
  20
9.9056025
  0
VERTEX
  5
278
  8
Layer_0
  10
14.659727
  20
9.8987751
  0
VERTEX
  5
279
  8
Layer_0
  10
14.637514
  20
9.8901253
  0
VERTEX
  5
27a
  8
Layer_0
  10
14.61595
  20
9.8801289
  0
VERTEX
  5
27b
  8
Layer_0
  10
14.59509
  20
9.8688278
  0
VERTEX
  5
27c
  8
Layer_0
  10
14.574996
  20
9.8562574
  0
VERTEX
  5
27d
  8
Layer_0
  10
14.555732
  20
9.8424549
  0
VERTEX
  5
27e
  8
Layer_0
  10
14.537349
  20
9.8274603
  0
VERTEX
  5
27f
  8
Layer_0
  10
14.519913
  20
9.8113127
  0
VERTEX
  5
280
  8
Layer_0
  10
14.503477
  20
9.7940445
  0
VERTEX
  5
281
  8
Layer_0
  10
14.489025
  20
9.7773876
  0
VERTEX
  5
282
  8
Layer_0
  10
14.475276
  20
9.7601604
  0
VERTEX
  5
283
  8
Layer_0
  10
14.462247
  20
9.7423811
  0
VERTEX
  5
284
  8
Layer_0
  10
14.449958
  20
9.7240705
  0
VERTEX
  5
285
  8
Layer_0
  10
14.430326
  20
9.692193
  0
VERTEX
  5
286
  8
Layer_0
  10
14.411775
  20
9.6596832
  0
VERTEX
  5
287
  8
Layer_0
  10
14.394325
  20
9.6265736
  0
VERTEX
  5
288
  8
Layer_0
  10
14.377985
  20
9.5928888
  0
VERTEX
  5
289
  8
Layer_0
  10
14.355575
  20
9.5440941
  0
VERTEX
  5
28a
  8
Layer_0
  10
14.334001
  20
9.4949245
  0
VERTEX
  5
28b
  8
Layer_0
  10
14.306495
  20
9.4352226
  0
VERTEX
  5
28c
  8
Layer_0
  10
14.276637
  20
9.3766603
  0
VERTEX
  5
28d
  8
Layer_0
  10
14.250517
  20
9.3314466
  0
VERTEX
  5
28e
  8
Layer_0
  10
14.222054
  20
9.2877131
  0
VERTEX
  5
28f
  8
Layer_0
  10
14.191318
  20
9.2455454
  0
VERTEX
  5
290
  8
Layer_0
  10
14.158374
  20
9.2050314
  0
VERTEX
  5
291
  8
Layer_0
  10
14.123138
  20
9.1646624
  0
VERTEX
  5
292
  8
Layer_0
  10
14.086708
  20
9.1253691
  0
VERTEX
  5
293
  8
Layer_0
  10
14.06077
  20
9.0980282
  0
VERTEX
  5
294
  8
Layer_0
  10
14.034266
  20
9.0712347
  0
VERTEX
  5
295
  8
Layer_0
  10
13.976953
  20
9.0140657
  0
VERTEX
  5
296
  8
Layer_0
  10
13.918729
  20
8.957839
  0
VERTEX
  5
297
  8
Layer_0
  10
13.859604
  20
8.9025612
  0
VERTEX
  5
298
  8
Layer_0
  10
13.799582
  20
8.8482399
  0
VERTEX
  5
299
  8
Layer_0
  10
13.753965
  20
8.8085222
  0
VERTEX
  5
29a
  8
Layer_0
  10
13.707454
  20
8.7698698
  0
VERTEX
  5
29b
  8
Layer_0
  10
13.660057
  20
8.7323027
  0
VERTEX
  5
29c
  8
Layer_0
  10
13.611806
  20
8.6958351
  0
VERTEX
  5
29d
  8
Layer_0
  10
13.579693
  20
8.6728096
  0
VERTEX
  5
29e
  8
Layer_0
  10
13.5469
  20
8.650775
  0
VERTEX
  5
29f
  8
Layer_0
  10
13.513457
  20
8.6297388
  0
VERTEX
  5
2a0
  8
Layer_0
  10
13.479393
  20
8.6097126
  0
VERTEX
  5
2a1
  8
Layer_0
  10
13.459406
  20
8.5988417
  0
VERTEX
  5
2a2
  8
Layer_0
  10
13.43899
  20
8.5888214
  0
VERTEX
  5
2a3
  8
Layer_0
  10
13.418166
  20
8.5796738
  0
VERTEX
  5
2a4
  8
Layer_0
  10
13.396962
  20
8.5714197
  0
VERTEX
  5
2a5
  8
Layer_0
  10
13.383169
  20
8.5669165
  0
VERTEX
  5
2a6
  8
Layer_0
  10
13.369126
  20
8.5632687
  0
VERTEX
  5
2a7
  8
Layer_0
  10
13.359784
  20
8.5614996
  0
VERTEX
  5
2a8
  8
Layer_0
  10
13.350364
  20
8.5601931
  0
VERTEX
  5
2a9
  8
Layer_0
  10
13.34552
  20
8.560133
  0
VERTEX
  5
2aa
  8
Layer_0
  10
13.340675
  20
8.5601931
  0
VERTEX
  5
2ab
  8
Layer_0
  10
13.337215
  20
8.5607309
  0
VERTEX
  5
2ac
  8
Layer_0
  10
13.335451
  20
8.5618725
  0
VERTEX
  5
2ad
  8
Layer_0
  10
13.333755
  20
8.5631151
  0
VERTEX
  5
2ae
  8
Layer_0
  10
13.331294
  20
8.5663443
  0
VERTEX
  5
2af
  8
Layer_0
  10
13.328103
  20
8.5734644
  0
VERTEX
  5
2b0
  8
Layer_0
  10
13.32545
  20
8.580801
  0
VERTEX
  5
2b1
  8
Layer_0
  10
13.323605
  20
8.588336
  0
VERTEX
  5
2b2
  8
Layer_0
  10
13.322067
  20
8.5971022
  0
VERTEX
  5
2b3
  8
Layer_0
  10
13.320404
  20
8.6146755
  0
VERTEX
  5
2b4
  8
Layer_0
  10
13.320067
  20
8.6323204
  0
VERTEX
  5
2b5
  8
Layer_0
  10
13.321199
  20
8.6551456
  0
VERTEX
  5
2b6
  8
Layer_0
  10
13.323427
  20
8.6778774
  0
VERTEX
  5
2b7
  8
Layer_0
  10
13.326745
  20
8.7004776
  0
VERTEX
  5
2b8
  8
Layer_0
  10
13.331141
  20
8.7229023
  0
VERTEX
  5
2b9
  8
Layer_0
  10
13.339104
  20
8.7578192
  0
VERTEX
  5
2ba
  8
Layer_0
  10
13.348297
  20
8.7924223
  0
VERTEX
  5
2bb
  8
Layer_0
  10
13.358717
  20
8.8266764
  0
VERTEX
  5
2bc
  8
Layer_0
  10
13.370357
  20
8.8605433
  0
VERTEX
  5
2bd
  8
Layer_0
  10
13.39108
  20
8.9154654
  0
VERTEX
  5
2be
  8
Layer_0
  10
13.413427
  20
8.9697313
  0
VERTEX
  5
2bf
  8
Layer_0
  10
13.437385
  20
9.0233059
  0
VERTEX
  5
2c0
  8
Layer_0
  10
13.462938
  20
9.0761566
  0
VERTEX
  5
2c1
  8
Layer_0
  10
13.48567
  20
9.1209307
  0
VERTEX
  5
2c2
  8
Layer_0
  10
13.509248
  20
9.1652622
  0
VERTEX
  5
2c3
  8
Layer_0
  10
13.533662
  20
9.2091408
  0
VERTEX
  5
2c4
  8
Layer_0
  10
13.558903
  20
9.252553
  0
VERTEX
  5
2c5
  8
Layer_0
  10
13.594822
  20
9.3120785
  0
VERTEX
  5
2c6
  8
Layer_0
  10
13.63226
  20
9.3706627
  0
VERTEX
  5
2c7
  8
Layer_0
  10
13.683198
  20
9.4465675
  0
VERTEX
  5
2c8
  8
Layer_0
  10
13.736286
  20
9.5209579
  0
VERTEX
  5
2c9
  8
Layer_0
  10
13.791497
  20
9.5937891
  0
VERTEX
  5
2ca
  8
Layer_0
  10
13.848796
  20
9.6650152
  0
VERTEX
  5
2cb
  8
Layer_0
  10
13.895701
  20
9.7200718
  0
VERTEX
  5
2cc
  8
Layer_0
  10
13.943837
  20
9.7740526
  0
VERTEX
  5
2cd
  8
Layer_0
  10
13.99157
  20
9.8242674
  0
VERTEX
  5
2ce
  8
Layer_0
  10
14.040571
  20
9.8732462
  0
VERTEX
  5
2cf
  8
Layer_0
  10
14.07264
  20
9.9038744
  0
VERTEX
  5
2d0
  8
Layer_0
  10
14.105369
  20
9.9337893
  0
VERTEX
  5
2d1
  8
Layer_0
  10
14.138743
  20
9.9629774
  0
VERTEX
  5
2d2
  8
Layer_0
  10
14.172752
  20
9.9914331
  0
VERTEX
  5
2d3
  8
Layer_0
  10
14.220951
  20
10.030741
  0
VERTEX
  5
2d4
  8
Layer_0
  10
14.270794
  20
10.067944
  0
VERTEX
  5
2d5
  8
Layer_0
  10
14.289388
  20
10.080525
  0
VERTEX
  5
2d6
  8
Layer_0
  10
14.308691
  20
10.091949
  0
VERTEX
  5
2d7
  8
Layer_0
  10
14.328652
  20
10.102177
  0
VERTEX
  5
2d8
  8
Layer_0
  10
14.349226
  20
10.111158
  0
VERTEX
  5
2d9
  8
Layer_0
  10
14.364766
  20
10.116272
  0
VERTEX
  5
2da
  8
Layer_0
  10
14.380556
  20
10.120492
  0
VERTEX
  5
2db
  8
Layer_0
  10
14.39656
  20
10.123813
  0
VERTEX
  5
2dc
  8
Layer_0
  10
14.412741
  20
10.12623
  0
VERTEX
  5
2dd
  8
Layer_0
  10
14.441202
  20
10.129478
  0
VERTEX
  5
2de
  8
Layer_0
  10
14.469751
  20
10.131766
  0
VERTEX
  5
2df
  8
Layer_0
  10
14.498359
  20
10.133095
  0
VERTEX
  5
2e0
  8
Layer_0
  10
14.527006
  20
10.133458
  0
VERTEX
  5
2e1
  8
Layer_0
  10
14.531928
  20
10.13315
  0
VERTEX
  5
2e2
  8
Layer_0
  10
14.540756
  20
10.101763
  0
VERTEX
  5
2e3
  8
Layer_0
  10
14.550998
  20
10.073173
  0
VERTEX
  5
2e4
  8
Layer_0
  10
14.557649
  20
10.058132
  0
VERTEX
  5
2e5
  8
Layer_0
  10
14.565338
  20
10.043621
  0
VERTEX
  5
2e6
  8
Layer_0
  10
14.574047
  20
10.029698
  0
VERTEX
  5
2e7
  8
Layer_0
  10
14.583755
  20
10.016424
  0
VERTEX
  5
2e8
  8
Layer_0
  10
14.589087
  20
10.009996
  0
VERTEX
  5
2e9
  8
Layer_0
  10
14.594521
  20
10.00366
  0
VERTEX
  5
2ea
  8
Layer_0
  10
14.603464
  20
9.9945908
  0
VERTEX
  5
2eb
  8
Layer_0
  10
14.612975
  20
9.9861279
  0
VERTEX
  5
2ec
  8
Layer_0
  10
14.624422
  20
9.977684
  0
VERTEX
  5
2ed
  8
Layer_0
  10
14.636545
  20
9.9702969
  0
VERTEX
  5
2ee
  8
Layer_0
  10
14.649261
  20
9.9639778
  0
VERTEX
  5
2ef
  8
Layer_0
  10
14.662495
  20
9.9587536
  0
VERTEX
  5
2f0
  8
Layer_0
  10
14.671107
  20
9.9559851
  0
VERTEX
  5
2f1
  8
Layer_0
  10
14.675552
  20
9.9549322
  0
VERTEX
  5
2f2
  8
Layer_0
  10
14.680027
  20
9.9539862
  0
VERTEX
  5
2f3
  8
Layer_0
  10
14.698342
  20
9.9519119
  0
VERTEX
  5
2f4
  8
Layer_0
  10
14.716783
  20
9.9519863
  0
VERTEX
  5
2f5
  8
Layer_0
  10
14.728297
  20
9.9534616
  0
VERTEX
  5
2f6
  8
Layer_0
  10
14.739697
  20
9.955678
  0
VERTEX
  5
2f7
  8
Layer_0
  10
14.744041
  20
9.9567709
  0
VERTEX
  5
2f8
  8
Layer_0
  10
14.748309
  20
9.9581385
  0
VERTEX
  5
2f9
  8
Layer_0
  10
14.759303
  20
9.962163
  0
VERTEX
  5
2fa
  8
Layer_0
  10
14.769907
  20
9.9670725
  0
VERTEX
  5
2fb
  8
Layer_0
  10
14.780055
  20
9.9728584
  0
VERTEX
  5
2fc
  8
Layer_0
  10
14.789679
  20
9.9795151
  0
VERTEX
  5
2fd
  8
Layer_0
  10
14.791986
  20
9.9813604
  0
VERTEX
  5
2fe
  8
Layer_0
  10
14.807307
  20
9.9948673
  0
VERTEX
  5
2ff
  8
Layer_0
  10
14.820898
  20
10.010119
  0
VERTEX
  5
300
  8
Layer_0
  10
14.833429
  20
10.028672
  0
VERTEX
  5
301
  8
Layer_0
  10
14.844014
  20
10.048336
  0
VERTEX
  5
302
  8
Layer_0
  10
14.852579
  20
10.068963
  0
VERTEX
  5
303
  8
Layer_0
  10
14.859037
  20
10.090397
  0
VERTEX
  5
304
  8
Layer_0
  10
14.8634
  20
10.108621
  0
VERTEX
  5
305
  8
Layer_0
  10
14.866292
  20
10.127047
  0
VERTEX
  5
306
  8
Layer_0
  10
14.86772
  20
10.145588
  0
VERTEX
  5
307
  8
Layer_0
  10
14.867688
  20
10.164153
  0
VERTEX
  5
308
  8
Layer_0
  10
14.866201
  20
10.182661
  0
VERTEX
  5
309
  8
Layer_0
  10
14.86326
  20
10.201024
  0
VERTEX
  5
30a
  8
Layer_0
  10
14.858872
  20
10.219152
  0
VERTEX
  5
30b
  8
Layer_0
  10
14.85304
  20
10.236959
  0
VERTEX
  5
30c
  8
Layer_0
  10
14.850118
  20
10.244186
  0
VERTEX
  5
30d
  8
Layer_0
  10
14.837382
  20
10.270268
  0
VERTEX
  5
30e
  8
Layer_0
  10
14.821994
  20
10.294778
  0
VERTEX
  5
30f
  8
Layer_0
  10
14.804096
  20
10.317522
  0
VERTEX
  5
310
  8
Layer_0
  10
14.783834
  20
10.338305
  0
VERTEX
  5
311
  8
Layer_0
  10
14.774122
  20
10.34698
  0
VERTEX
  5
312
  8
Layer_0
  10
14.764303
  20
10.35553
  0
VERTEX
  5
313
  8
Layer_0
  10
14.749294
  20
10.366975
  0
VERTEX
  5
314
  8
Layer_0
  10
14.733853
  20
10.37783
  0
VERTEX
  5
315
  8
Layer_0
  10
14.714089
  20
10.390181
  0
VERTEX
  5
316
  8
Layer_0
  10
14.693791
  20
10.401611
  0
VERTEX
  5
317
  8
Layer_0
  10
14.672991
  20
10.412107
  0
VERTEX
  5
318
  8
Layer_0
  10
14.65173
  20
10.421659
  0
VERTEX
  5
319
  8
Layer_0
  10
14.625769
  20
10.432102
  0
VERTEX
  5
31a
  8
Layer_0
  10
14.599434
  20
10.441532
  0
VERTEX
  5
31b
  8
Layer_0
  10
14.572757
  20
10.449947
  0
VERTEX
  5
31c
  8
Layer_0
  10
14.545769
  20
10.457338
  0
VERTEX
  5
31d
  8
Layer_0
  10
14.508931
  20
10.465951
  0
VERTEX
  5
31e
  8
Layer_0
  10
14.471815
  20
10.473207
  0
VERTEX
  5
31f
  8
Layer_0
  10
14.434459
  20
10.479107
  0
VERTEX
  5
320
  8
Layer_0
  10
14.396901
  20
10.483637
  0
VERTEX
  5
321
  8
Layer_0
  10
14.393671
  20
10.484097
  0
VERTEX
  5
322
  8
Layer_0
  10
14.356147
  20
10.487481
  0
VERTEX
  5
323
  8
Layer_0
  10
14.317296
  20
10.489641
  0
VERTEX
  5
324
  8
Layer_0
  10
14.278419
  20
10.490781
  0
VERTEX
  5
325
  8
Layer_0
  10
14.239541
  20
10.490903
  0
VERTEX
  5
326
  8
Layer_0
  10
14.200678
  20
10.490005
  0
VERTEX
  5
327
  8
Layer_0
  10
14.161853
  20
10.488091
  0
VERTEX
  5
328
  8
Layer_0
  10
14.123084
  20
10.48516
  0
VERTEX
  5
329
  8
Layer_0
  10
14.084394
  20
10.481215
  0
VERTEX
  5
32a
  8
Layer_0
  10
14.045799
  20
10.476254
  0
VERTEX
  5
32b
  8
Layer_0
  10
14.002739
  20
10.469642
  0
VERTEX
  5
32c
  8
Layer_0
  10
13.999817
  20
10.469027
  0
VERTEX
  5
32d
  8
Layer_0
  10
13.959159
  20
10.461546
  0
VERTEX
  5
32e
  8
Layer_0
  10
13.918726
  20
10.45295
  0
VERTEX
  5
32f
  8
Layer_0
  10
13.878547
  20
10.443243
  0
VERTEX
  5
330
  8
Layer_0
  10
13.838645
  20
10.432425
  0
VERTEX
  5
331
  8
Layer_0
  10
13.810224
  20
10.42326
  0
VERTEX
  5
332
  8
Layer_0
  10
13.782102
  20
10.413225
  0
VERTEX
  5
333
  8
Layer_0
  10
13.754301
  20
10.402335
  0
VERTEX
  5
334
  8
Layer_0
  10
13.72684
  20
10.390594
  0
VERTEX
  5
335
  8
Layer_0
  10
13.692935
  20
10.374816
  0
VERTEX
  5
336
  8
Layer_0
  10
13.659548
  20
10.357985
  0
VERTEX
  5
337
  8
Layer_0
  10
13.626704
  20
10.340122
  0
VERTEX
  5
338
  8
Layer_0
  10
13.594428
  20
10.321235
  0
VERTEX
  5
339
  8
Layer_0
  10
13.549303
  20
10.293082
  0
VERTEX
  5
33a
  8
Layer_0
  10
13.505146
  20
10.263455
  0
VERTEX
  5
33b
  8
Layer_0
  10
13.461991
  20
10.232386
  0
VERTEX
  5
33c
  8
Layer_0
  10
13.419877
  20
10.199895
  0
VERTEX
  5
33d
  8
Layer_0
  10
13.379123
  20
10.166677
  0
VERTEX
  5
33e
  8
Layer_0
  10
13.35776
  20
10.148448
  0
VERTEX
  5
33f
  8
Layer_0
  10
13.336523
  20
10.130075
  0
VERTEX
  5
340
  8
Layer_0
  10
13.315478
  20
10.110666
  0
VERTEX
  5
341
  8
Layer_0
  10
13.294231
  20
10.091474
  0
VERTEX
  5
342
  8
Layer_0
  10
13.29254
  20
10.09009
  0
VERTEX
  5
343
  8
Layer_0
  10
13.252707
  20
10.052103
  0
VERTEX
  5
344
  8
Layer_0
  10
13.211493
  20
10.01058
  0
VERTEX
  5
345
  8
Layer_0
  10
13.171045
  20
9.9676733
  0
VERTEX
  5
346
  8
Layer_0
  10
13.115456
  20
9.9056292
  0
VERTEX
  5
347
  8
Layer_0
  10
13.061933
  20
9.8418779
  0
VERTEX
  5
348
  8
Layer_0
  10
13.010509
  20
9.7764769
  0
VERTEX
  5
349
  8
Layer_0
  10
12.961231
  20
9.7094707
  0
VERTEX
  5
34a
  8
Layer_0
  10
12.914131
  20
9.640914
  0
VERTEX
  5
34b
  8
Layer_0
  10
12.869244
  20
9.5708656
  0
VERTEX
  5
34c
  8
Layer_0
  10
12.826611
  20
9.4993725
  0
VERTEX
  5
34d
  8
Layer_0
  10
12.786264
  20
9.4264879
  0
VERTEX
  5
34e
  8
Layer_0
  10
12.752719
  20
9.360465
  0
VERTEX
  5
34f
  8
Layer_0
  10
12.721452
  20
9.2933598
  0
VERTEX
  5
350
  8
Layer_0
  10
12.692485
  20
9.2252264
  0
VERTEX
  5
351
  8
Layer_0
  10
12.665848
  20
9.156127
  0
VERTEX
  5
352
  8
Layer_0
  10
12.646095
  20
9.1003799
  0
VERTEX
  5
353
  8
Layer_0
  10
12.627788
  20
9.0441532
  0
VERTEX
  5
354
  8
Layer_0
  10
12.61094
  20
8.9874697
  0
VERTEX
  5
355
  8
Layer_0
  10
12.595566
  20
8.9303637
  0
VERTEX
  5
356
  8
Layer_0
  10
12.586123
  20
8.8897152
  0
VERTEX
  5
357
  8
Layer_0
  10
12.578359
  20
8.8487301
  0
VERTEX
  5
358
  8
Layer_0
  10
12.572276
  20
8.8074617
  0
VERTEX
  5
359
  8
Layer_0
  10
12.567883
  20
8.7659626
  0
VERTEX
  5
35a
  8
Layer_0
  10
12.565885
  20
8.7289934
  0
VERTEX
  5
35b
  8
Layer_0
  10
12.566291
  20
8.6920099
  0
VERTEX
  5
35c
  8
Layer_0
  10
12.569109
  20
8.6551313
  0
VERTEX
  5
35d
  8
Layer_0
  10
12.574343
  20
8.6184788
  0
VERTEX
  5
35e
  8
Layer_0
  10
12.57912
  20
8.5956411
  0
VERTEX
  5
35f
  8
Layer_0
  10
12.585117
  20
8.5731449
  0
VERTEX
  5
360
  8
Layer_0
  10
12.592317
  20
8.5510378
  0
VERTEX
  5
361
  8
Layer_0
  10
12.600698
  20
8.5293703
  0
VERTEX
  5
362
  8
Layer_0
  10
12.610248
  20
8.508193
  0
VERTEX
  5
363
  8
Layer_0
  10
12.620941
  20
8.4875517
  0
VERTEX
  5
364
  8
Layer_0
  10
12.632766
  20
8.4674959
  0
VERTEX
  5
365
  8
Layer_0
  10
12.645701
  20
8.4480801
  0
VERTEX
  5
366
  8
Layer_0
  10
12.666944
  20
8.4199896
  0
VERTEX
  5
367
  8
Layer_0
  10
12.6903
  20
8.3936386
  0
VERTEX
  5
368
  8
Layer_0
  10
12.692145
  20
8.3914862
  0
VERTEX
  5
369
  8
Layer_0
  10
12.714257
  20
8.3693838
  0
VERTEX
  5
36a
  8
Layer_0
  10
12.737286
  20
8.3482618
  0
VERTEX
  5
36b
  8
Layer_0
  10
12.761197
  20
8.3281441
  0
VERTEX
  5
36c
  8
Layer_0
  10
12.785957
  20
8.3090544
  0
VERTEX
  5
36d
  8
Layer_0
  10
12.800959
  20
8.2987986
  0
VERTEX
  5
36e
  8
Layer_0
  10
12.816441
  20
8.2893028
  0
VERTEX
  5
36f
  8
Layer_0
  10
12.832368
  20
8.2805729
  0
VERTEX
  5
370
  8
Layer_0
  10
12.848703
  20
8.2726068
  0
VERTEX
  5
371
  8
Layer_0
  10
12.86773
  20
8.2647181
  0
VERTEX
  5
372
  8
Layer_0
  10
12.887177
  20
8.2579966
  0
VERTEX
  5
373
  8
Layer_0
  10
12.906999
  20
8.2524672
  0
VERTEX
  5
374
  8
Layer_0
  10
12.927135
  20
8.2481546
  0
VERTEX
  5
375
  8
Layer_0
  10
12.946711
  20
8.2446117
  0
VERTEX
  5
376
  8
Layer_0
  10
12.9664
  20
8.2418156
  0
VERTEX
  5
377
  8
Layer_0
  10
12.986178
  20
8.2397633
  0
VERTEX
  5
378
  8
Layer_0
  10
13.00603
  20
8.2384653
  0
VERTEX
  5
379
  8
Layer_0
  10
13.009413
  20
8.2381582
  0
VERTEX
  5
37a
  8
Layer_0
  10
13.065128
  20
8.2364321
  0
VERTEX
  5
37b
  8
Layer_0
  10
13.120857
  20
8.2361679
  0
VERTEX
  5
37c
  8
Layer_0
  10
13.176578
  20
8.23736
  0
VERTEX
  5
37d
  8
Layer_0
  10
13.232254
  20
8.2400036
  0
VERTEX
  5
37e
  8
Layer_0
  10
13.257475
  20
8.242156
  0
VERTEX
  5
37f
  8
Layer_0
  10
13.302329
  20
8.2472792
  0
VERTEX
  5
380
  8
Layer_0
  10
13.34681
  20
8.2545147
  0
VERTEX
  5
381
  8
Layer_0
  10
13.390849
  20
8.2638454
  0
VERTEX
  5
382
  8
Layer_0
  10
13.434372
  20
8.2752476
  0
VERTEX
  5
383
  8
Layer_0
  10
13.477303
  20
8.2887068
  0
VERTEX
  5
384
  8
Layer_0
  10
13.519568
  20
8.3041964
  0
VERTEX
  5
385
  8
Layer_0
  10
13.561094
  20
8.3216991
  0
VERTEX
  5
386
  8
Layer_0
  10
13.60181
  20
8.341197
  0
VERTEX
  5
387
  8
Layer_0
  10
13.649796
  20
8.3668003
  0
VERTEX
  5
388
  8
Layer_0
  10
13.696815
  20
8.3941145
  0
VERTEX
  5
389
  8
Layer_0
  10
13.74281
  20
8.4231138
  0
VERTEX
  5
38a
  8
Layer_0
  10
13.787741
  20
8.4537706
  0
VERTEX
  5
38b
  8
Layer_0
  10
13.788664
  20
8.4542322
  0
VERTEX
  5
38c
  8
Layer_0
  10
13.828207
  20
8.4824524
  0
VERTEX
  5
38d
  8
Layer_0
  10
13.867255
  20
8.5113411
  0
VERTEX
  5
38e
  8
Layer_0
  10
13.905801
  20
8.5408974
  0
VERTEX
  5
38f
  8
Layer_0
  10
13.943837
  20
8.5711117
  0
VERTEX
  5
390
  8
Layer_0
  10
13.876891
  20
8.435585
  0
VERTEX
  5
391
  8
Layer_0
  10
13.809195
  20
8.3004427
  0
VERTEX
  5
392
  8
Layer_0
  10
13.719235
  20
8.1195936
  0
VERTEX
  5
393
  8
Layer_0
  10
13.630876
  20
7.9379611
  0
VERTEX
  5
394
  8
Layer_0
  10
13.630415
  20
7.937192
  0
VERTEX
  5
395
  8
Layer_0
  10
13.601348
  20
7.8753686
  0
VERTEX
  5
396
  8
Layer_0
  10
13.596639
  20
7.8650384
  0
VERTEX
  5
397
  8
Layer_0
  10
13.591813
  20
7.8547611
  0
VERTEX
  5
398
  8
Layer_0
  10
13.544283
  20
7.8202739
  0
VERTEX
  5
399
  8
Layer_0
  10
13.495618
  20
7.7874012
  0
VERTEX
  5
39a
  8
Layer_0
  10
13.415907
  20
7.7346129
  0
VERTEX
  5
39b
  8
Layer_0
  10
13.335446
  20
7.6829782
  0
VERTEX
  5
39c
  8
Layer_0
  10
13.219143
  20
7.6098371
  0
VERTEX
  5
39d
  8
Layer_0
  10
13.102403
  20
7.5374455
  0
VERTEX
  5
39e
  8
Layer_0
  10
12.985209
  20
7.4657893
  0
VERTEX
  5
39f
  8
Layer_0
  10
12.867542
  20
7.3948541
  0
VERTEX
  5
3a0
  8
Layer_0
  10
12.648481
  20
7.2612467
  0
VERTEX
  5
3a1
  8
Layer_0
  10
12.430858
  20
7.1253381
  0
VERTEX
  5
3a2
  8
Layer_0
  10
12.32672
  20
7.058918
  0
VERTEX
  5
3a3
  8
Layer_0
  10
12.22343
  20
6.9911857
  0
VERTEX
  5
3a4
  8
Layer_0
  10
12.121005
  20
6.9221487
  0
VERTEX
  5
3a5
  8
Layer_0
  10
12.019471
  20
6.8518233
  0
VERTEX
  5
3a6
  8
Layer_0
  10
11.961901
  20
6.8107018
  0
VERTEX
  5
3a7
  8
Layer_0
  10
11.905051
  20
6.7686019
  0
VERTEX
  5
3a8
  8
Layer_0
  10
11.848933
  20
6.7255335
  0
VERTEX
  5
3a9
  8
Layer_0
  10
11.793554
  20
6.6815019
  0
VERTEX
  5
3aa
  8
Layer_0
  10
11.753939
  20
6.648807
  0
VERTEX
  5
3ab
  8
Layer_0
  10
11.715072
  20
6.6152377
  0
VERTEX
  5
3ac
  8
Layer_0
  10
11.676958
  20
6.5808129
  0
VERTEX
  5
3ad
  8
Layer_0
  10
11.639611
  20
6.5455523
  0
VERTEX
  5
3ae
  8
Layer_0
  10
11.600986
  20
6.5068693
  0
VERTEX
  5
3af
  8
Layer_0
  10
11.564031
  20
6.4666195
  0
VERTEX
  5
3b0
  8
Layer_0
  10
11.528806
  20
6.424849
  0
VERTEX
  5
3b1
  8
Layer_0
  10
11.495357
  20
6.3816128
  0
VERTEX
  5
3b2
  8
Layer_0
  10
11.473269
  20
6.3500519
  0
VERTEX
  5
3b3
  8
Layer_0
  10
11.452659
  20
6.317533
  0
VERTEX
  5
3b4
  8
Layer_0
  10
11.433559
  20
6.2841005
  0
VERTEX
  5
3b5
  8
Layer_0
  10
11.416001
  20
6.249815
  0
VERTEX
  5
3b6
  8
Layer_0
  10
11.400315
  20
6.2149048
  0
VERTEX
  5
3b7
  8
Layer_0
  10
11.399392
  20
6.2122903
  0
VERTEX
  5
3b8
  8
Layer_0
  10
11.392789
  20
6.1948018
  0
VERTEX
  5
3b9
  8
Layer_0
  10
11.386012
  20
6.1773801
  0
VERTEX
  5
3ba
  8
Layer_0
  10
11.374113
  20
6.1405864
  0
VERTEX
  5
3bb
  8
Layer_0
  10
11.364635
  20
6.1052532
  0
VERTEX
  5
3bc
  8
Layer_0
  10
11.355904
  20
6.0634942
  0
VERTEX
  5
3bd
  8
Layer_0
  10
11.349872
  20
6.0263591
  0
VERTEX
  5
3be
  8
Layer_0
  10
11.346426
  20
5.9888635
  0
VERTEX
  5
3bf
  8
Layer_0
  10
11.34608
  20
5.9531264
  0
VERTEX
  5
3c0
  8
Layer_0
  10
11.348665
  20
5.9174786
  0
VERTEX
  5
3c1
  8
Layer_0
  10
11.354178
  20
5.8821049
  0
VERTEX
  5
3c2
  8
Layer_0
  10
11.362434
  20
5.8479776
  0
VERTEX
  5
3c3
  8
Layer_0
  10
11.373512
  20
5.8147259
  0
VERTEX
  5
3c4
  8
Layer_0
  10
11.387339
  20
5.7825212
  0
VERTEX
  5
3c5
  8
Layer_0
  10
11.403852
  20
5.7515373
  0
VERTEX
  5
3c6
  8
Layer_0
  10
11.416234
  20
5.7312708
  0
VERTEX
  5
3c7
  8
Layer_0
  10
11.429662
  20
5.7117014
  0
VERTEX
  5
3c8
  8
Layer_0
  10
11.444101
  20
5.692862
  0
VERTEX
  5
3c9
  8
Layer_0
  10
11.459524
  20
5.6747966
  0
VERTEX
  5
3ca
  8
Layer_0
  10
11.482049
  20
5.6512475
  0
VERTEX
  5
3cb
  8
Layer_0
  10
11.505968
  20
5.6291213
  0
VERTEX
  5
3cc
  8
Layer_0
  10
11.519689
  20
5.6177649
  0
VERTEX
  5
3cd
  8
Layer_0
  10
11.533497
  20
5.606514
  0
VERTEX
  5
3ce
  8
Layer_0
  10
11.549907
  20
5.5948982
  0
VERTEX
  5
3cf
  8
Layer_0
  10
11.5661
  20
5.5829844
  0
VERTEX
  5
3d0
  8
Layer_0
  10
11.598395
  20
5.5629916
  0
VERTEX
  5
3d1
  8
Layer_0
  10
11.636026
  20
5.5425329
  0
VERTEX
  5
3d2
  8
Layer_0
  10
11.674829
  20
5.5243907
  0
VERTEX
  5
3d3
  8
Layer_0
  10
11.715246
  20
5.5084109
  0
VERTEX
  5
3d4
  8
Layer_0
  10
11.756491
  20
5.494709
  0
VERTEX
  5
3d5
  8
Layer_0
  10
11.776229
  20
5.4890862
  0
VERTEX
  5
3d6
  8
Layer_0
  10
11.796015
  20
5.4836364
  0
VERTEX
  5
3d7
  8
Layer_0
  10
11.816031
  20
5.4788642
  0
VERTEX
  5
3d8
  8
Layer_0
  10
11.836154
  20
5.4745626
  0
VERTEX
  5
3d9
  8
Layer_0
  10
11.857924
  20
5.4707856
  0
VERTEX
  5
3da
  8
Layer_0
  10
11.879676
  20
5.4668732
  0
VERTEX
  5
3db
  8
Layer_0
  10
11.884444
  20
5.4661045
  0
VERTEX
  5
3dc
  8
Layer_0
  10
11.924275
  20
5.4610295
  0
VERTEX
  5
3dd
  8
Layer_0
  10
11.926659
  20
5.4607964
  0
VERTEX
  5
3de
  8
Layer_0
  10
11.969951
  20
5.4573383
  0
VERTEX
  5
3df
  8
Layer_0
  10
12.016385
  20
5.4558196
  0
VERTEX
  5
3e0
  8
Layer_0
  10
12.065377
  20
5.4562907
  0
VERTEX
  5
3e1
  8
Layer_0
  10
12.114669
  20
5.4593039
  0
VERTEX
  5
3e2
  8
Layer_0
  10
12.161264
  20
5.4641051
  0
VERTEX
  5
3e3
  8
Layer_0
  10
12.162956
  20
5.4644127
  0
VERTEX
  5
3e4
  8
Layer_0
  10
12.186347
  20
5.4678683
  0
VERTEX
  5
3e5
  8
Layer_0
  10
12.209708
  20
5.471487
  0
VERTEX
  5
3e6
  8
Layer_0
  10
12.259235
  20
5.4814234
  0
VERTEX
  5
3e7
  8
Layer_0
  10
12.308288
  20
5.4934788
  0
VERTEX
  5
3e8
  8
Layer_0
  10
12.356683
  20
5.5078969
  0
VERTEX
  5
3e9
  8
Layer_0
  10
12.404406
  20
5.5243907
  0
VERTEX
  5
3ea
  8
Layer_0
  10
12.455833
  20
5.5452194
  0
VERTEX
  5
3eb
  8
Layer_0
  10
12.506248
  20
5.568336
  0
VERTEX
  5
3ec
  8
Layer_0
  10
12.555569
  20
5.593699
  0
VERTEX
  5
3ed
  8
Layer_0
  10
12.603717
  20
5.6212778
  0
VERTEX
  5
3ee
  8
Layer_0
  10
12.656327
  20
5.6541119
  0
VERTEX
  5
3ef
  8
Layer_0
  10
12.707828
  20
5.6886282
  0
VERTEX
  5
3f0
  8
Layer_0
  10
12.758177
  20
5.7248044
  0
VERTEX
  5
3f1
  8
Layer_0
  10
12.807334
  20
5.7626104
  0
VERTEX
  5
3f2
  8
Layer_0
  10
12.820844
  20
5.7732172
  0
VERTEX
  5
3f3
  8
Layer_0
  10
12.834093
  20
5.7841411
  0
VERTEX
  5
3f4
  8
Layer_0
  10
12.834708
  20
5.7847562
  0
VERTEX
  5
3f5
  8
Layer_0
  10
12.889583
  20
5.8308086
  0
VERTEX
  5
3f6
  8
Layer_0
  10
12.943286
  20
5.8782024
  0
VERTEX
  5
3f7
  8
Layer_0
  10
12.995798
  20
5.9269104
  0
VERTEX
  5
3f8
  8
Layer_0
  10
13.047091
  20
5.9769158
  0
VERTEX
  5
3f9
  8
Layer_0
  10
13.11871
  20
6.049644
  0
VERTEX
  5
3fa
  8
Layer_0
  10
13.188582
  20
6.124032
  0
VERTEX
  5
3fb
  8
Layer_0
  10
13.256687
  20
6.2000451
  0
VERTEX
  5
3fc
  8
Layer_0
  10
13.322989
  20
6.2776508
  0
VERTEX
  5
3fd
  8
Layer_0
  10
13.381634
  20
6.3484182
  0
VERTEX
  5
3fe
  8
Layer_0
  10
13.439255
  20
6.4200263
  0
VERTEX
  5
3ff
  8
Layer_0
  10
13.495834
  20
6.4924588
  0
VERTEX
  5
400
  8
Layer_0
  10
13.551367
  20
6.5656986
  0
VERTEX
  5
401
  8
Layer_0
  10
13.580618
  20
6.6044893
  0
VERTEX
  5
402
  8
Layer_0
  10
13.609345
  20
6.6436696
  0
VERTEX
  5
403
  8
Layer_0
  10
13.609653
  20
6.6442847
  0
VERTEX
  5
404
  8
Layer_0
  10
13.710423
  20
6.7852449
  0
VERTEX
  5
405
  8
Layer_0
  10
13.808758
  20
6.9278941
  0
VERTEX
  5
406
  8
Layer_0
  10
13.90464
  20
7.072206
  0
VERTEX
  5
407
  8
Layer_0
  10
13.998048
  20
7.2181497
  0
VERTEX
  5
408
  8
Layer_0
  10
14.091413
  20
7.3681426
  0
VERTEX
  5
409
  8
Layer_0
  10
14.182673
  20
7.519423
  0
VERTEX
  5
40a
  8
Layer_0
  10
14.443653
  20
7.9568772
  0
VERTEX
  5
40b
  8
Layer_0
  10
14.852886
  20
8.1967115
  0
VERTEX
  5
40c
  8
Layer_0
  10
14.897024
  20
8.2227793
  0
VERTEX
  5
40d
  8
Layer_0
  10
14.897639
  20
8.2232399
  0
VERTEX
  5
40e
  8
Layer_0
  10
15.005368
  20
8.2884951
  0
VERTEX
  5
40f
  8
Layer_0
  10
15.112331
  20
8.3549757
  0
VERTEX
  5
410
  8
Layer_0
  10
15.218523
  20
8.4226761
  0
VERTEX
  5
411
  8
Layer_0
  10
15.323943
  20
8.4916029
  0
VERTEX
  5
412
  8
Layer_0
  10
15.418985
  20
8.5548105
  0
VERTEX
  5
413
  8
Layer_0
  10
15.419754
  20
8.5552711
  0
VERTEX
  5
414
  8
Layer_0
  10
15.513258
  20
8.6187868
  0
VERTEX
  5
415
  8
Layer_0
  10
15.514027
  20
8.6192484
  0
VERTEX
  5
416
  8
Layer_0
  10
15.582463
  20
8.666399
  0
VERTEX
  5
417
  8
Layer_0
  10
15.650592
  20
8.7139826
  0
VERTEX
  5
418
  8
Layer_0
  10
15.73229
  20
8.7720909
  0
VERTEX
  5
419
  8
Layer_0
  10
15.812719
  20
8.830658
  0
VERTEX
  5
41a
  8
Layer_0
  10
15.892476
  20
8.8901339
  0
VERTEX
  5
41b
  8
Layer_0
  10
15.97155
  20
8.95051
  0
VERTEX
  5
41c
  8
Layer_0
  10
16.021046
  20
8.9895868
  0
VERTEX
  5
41d
  8
Layer_0
  10
16.069822
  20
9.0295582
  0
VERTEX
  5
41e
  8
Layer_0
  10
16.058071
  20
8.9882126
  0
VERTEX
  5
41f
  8
Layer_0
  10
16.04718
  20
8.9466362
  0
VERTEX
  5
420
  8
Layer_0
  10
16.037151
  20
8.9048443
  0
VERTEX
  5
421
  8
Layer_0
  10
16.02799
  20
8.8628502
  0
VERTEX
  5
422
  8
Layer_0
  10
16.023026
  20
8.8353777
  0
VERTEX
  5
423
  8
Layer_0
  10
16.019114
  20
8.8077459
  0
VERTEX
  5
424
  8
Layer_0
  10
16.01626
  20
8.7799816
  0
VERTEX
  5
425
  8
Layer_0
  10
16.014458
  20
8.7521219
  0
VERTEX
  5
426
  8
Layer_0
  10
16.014458
  20
8.7222872
  0
VERTEX
  5
427
  8
Layer_0
  10
16.015162
  20
8.7094402
  0
VERTEX
  5
428
  8
Layer_0
  10
16.015995
  20
8.6966038
  0
VERTEX
  5
429
  8
Layer_0
  10
16.019608
  20
8.6676817
  0
VERTEX
  5
42a
  8
Layer_0
  10
16.025223
  20
8.6390867
  0
VERTEX
  5
42b
  8
Layer_0
  10
16.037783
  20
8.5962801
  0
VERTEX
  5
42c
  8
Layer_0
  10
16.053444
  20
8.554575
  0
VERTEX
  5
42d
  8
Layer_0
  10
16.072144
  20
8.5141401
  0
VERTEX
  5
42e
  8
Layer_0
  10
16.093813
  20
8.4751472
  0
VERTEX
  5
42f
  8
Layer_0
  10
16.094736
  20
8.473609
  0
VERTEX
  5
430
  8
Layer_0
  10
16.116703
  20
8.441186
  0
VERTEX
  5
431
  8
Layer_0
  10
16.14123
  20
8.4107409
  0
VERTEX
  5
432
  8
Layer_0
  10
16.168194
  20
8.3824339
  0
VERTEX
  5
433
  8
Layer_0
  10
16.197466
  20
8.3564215
  0
VERTEX
  5
434
  8
Layer_0
  10
16.200081
  20
8.3544226
  0
VERTEX
  5
435
  8
Layer_0
  10
16.23262
  20
8.3305082
  0
VERTEX
  5
436
  8
Layer_0
  10
16.26696
  20
8.3093987
  0
VERTEX
  5
437
  8
Layer_0
  10
16.302927
  20
8.2911911
  0
VERTEX
  5
438
  8
Layer_0
  10
16.340338
  20
8.2759905
  0
VERTEX
  5
439
  8
Layer_0
  10
16.375839
  20
8.264163
  0
VERTEX
  5
43a
  8
Layer_0
  10
16.411926
  20
8.2543926
  0
VERTEX
  5
43b
  8
Layer_0
  10
16.448513
  20
8.2466936
  0
VERTEX
  5
43c
  8
Layer_0
  10
16.485514
  20
8.2410803
  0
VERTEX
  5
43d
  8
Layer_0
  10
16.526846
  20
8.236495
  0
VERTEX
  5
43e
  8
Layer_0
  10
16.568331
  20
8.2338905
  0
VERTEX
  5
43f
  8
Layer_0
  10
16.609888
  20
8.2332659
  0
VERTEX
  5
440
  8
Layer_0
  10
16.651453
  20
8.234621
  0
VERTEX
  5
441
  8
Layer_0
  10
16.683306
  20
8.2380018
  0
VERTEX
  5
442
  8
Layer_0
  10
16.714935
  20
8.2429829
  0
VERTEX
  5
443
  8
Layer_0
  10
16.746269
  20
8.249548
  0
VERTEX
  5
444
  8
Layer_0
  10
16.777252
  20
8.2576895
  0
VERTEX
  5
445
  8
Layer_0
  10
16.818737
  20
8.2701626
  0
VERTEX
  5
446
  8
Layer_0
  10
16.859713
  20
8.2841721
  0
VERTEX
  5
447
  8
Layer_0
  10
16.900133
  20
8.2997074
  0
VERTEX
  5
448
  8
Layer_0
  10
16.939962
  20
8.3167439
  0
VERTEX
  5
449
  8
Layer_0
  10
16.941654
  20
8.317359
  0
VERTEX
  5
44a
  8
Layer_0
  10
17.00288
  20
8.345871
  0
VERTEX
  5
44b
  8
Layer_0
  10
17.063126
  20
8.376359
  0
VERTEX
  5
44c
  8
Layer_0
  10
17.122345
  20
8.4087963
  0
VERTEX
  5
44d
  8
Layer_0
  10
17.180489
  20
8.4431591
  0
VERTEX
  5
44e
  8
Layer_0
  10
17.210169
  20
8.4613066
  0
VERTEX
  5
44f
  8
Layer_0
  10
17.257891
  20
8.4919147
  0
VERTEX
  5
450
  8
Layer_0
  10
17.304905
  20
8.523591
  0
VERTEX
  5
451
  8
Layer_0
  10
17.335983
  20
8.5452175
  0
VERTEX
  5
452
  8
Layer_0
  10
17.36688
  20
8.5671129
  0
VERTEX
  5
453
  8
Layer_0
  10
17.397728
  20
8.5901861
  0
VERTEX
  5
454
  8
Layer_0
  10
17.428705
  20
8.6130962
  0
VERTEX
  5
455
  8
Layer_0
  10
17.487606
  20
8.6595411
  0
VERTEX
  5
456
  8
Layer_0
  10
17.48945
  20
8.661232
  0
VERTEX
  5
457
  8
Layer_0
  10
17.547585
  20
8.7095222
  0
VERTEX
  5
458
  8
Layer_0
  10
17.548815
  20
8.7104454
  0
VERTEX
  5
459
  8
Layer_0
  10
17.614174
  20
8.7662706
  0
VERTEX
  5
45a
  8
Layer_0
  10
17.6159
  20
8.7500124
  0
VERTEX
  5
45b
  8
Layer_0
  10
17.618174
  20
8.7338209
  0
VERTEX
  5
45c
  8
Layer_0
  10
17.621485
  20
8.7154913
  0
VERTEX
  5
45d
  8
Layer_0
  10
17.625093
  20
8.6972189
  0
VERTEX
  5
45e
  8
Layer_0
  10
17.630222
  20
8.6773319
  0
VERTEX
  5
45f
  8
Layer_0
  10
17.635704
  20
8.6575413
  0
VERTEX
  5
460
  8
Layer_0
  10
17.645086
  20
8.629859
  0
VERTEX
  5
461
  8
Layer_0
  10
17.660004
  20
8.5942669
  0
VERTEX
  5
462
  8
Layer_0
  10
17.677536
  20
8.559885
  0
VERTEX
  5
463
  8
Layer_0
  10
17.687225
  20
8.5438499
  0
VERTEX
  5
464
  8
Layer_0
  10
17.697529
  20
8.5282049
  0
VERTEX
  5
465
  8
Layer_0
  10
17.713676
  20
8.5060587
  0
VERTEX
  5
466
  8
Layer_0
  10
17.718597
  20
8.499754
  0
VERTEX
  5
467
  8
Layer_0
  10
17.728464
  20
8.4881716
  0
VERTEX
  5
468
  8
Layer_0
  10
17.738436
  20
8.4766855
  0
VERTEX
  5
469
  8
Layer_0
  10
17.750603
  20
8.4641705
  0
VERTEX
  5
46a
  8
Layer_0
  10
17.763042
  20
8.4519253
  0
VERTEX
  5
46b
  8
Layer_0
  10
17.776411
  20
8.4403648
  0
VERTEX
  5
46c
  8
Layer_0
  10
17.789955
  20
8.4290104
  0
VERTEX
  5
46d
  8
Layer_0
  10
17.817242
  20
8.4090919
  0
VERTEX
  5
46e
  8
Layer_0
  10
17.845781
  20
8.3910246
  0
VERTEX
  5
46f
  8
Layer_0
  10
17.880455
  20
8.3724594
  0
VERTEX
  5
470
  8
Layer_0
  10
17.91637
  20
8.3564215
  0
VERTEX
  5
471
  8
Layer_0
  10
17.944513
  20
8.346118
  0
VERTEX
  5
472
  8
Layer_0
  10
17.981813
  20
8.3349781
  0
VERTEX
  5
473
  8
Layer_0
  10
18.019716
  20
8.3261251
  0
VERTEX
  5
474
  8
Layer_0
  10
18.036572
  20
8.3232174
  0
VERTEX
  5
475
  8
Layer_0
  10
18.053396
  20
8.3201275
  0
VERTEX
  5
476
  8
Layer_0
  10
18.058933
  20
8.3192053
  0
VERTEX
  5
477
  8
Layer_0
  10
18.092152
  20
8.3152065
  0
VERTEX
  5
478
  8
Layer_0
  10
18.113438
  20
8.313529
  0
VERTEX
  5
479
  8
Layer_0
  10
18.134752
  20
8.3122845
  0
VERTEX
  5
47a
  8
Layer_0
  10
18.175602
  20
8.3116598
  0
VERTEX
  5
47b
  8
Layer_0
  10
18.216425
  20
8.3127651
  0
VERTEX
  5
47c
  8
Layer_0
  10
18.257166
  20
8.315588
  0
VERTEX
  5
47d
  8
Layer_0
  10
18.302074
  20
8.3205891
  0
VERTEX
  5
47e
  8
Layer_0
  10
18.341751
  20
8.3267403
  0
VERTEX
  5
47f
  8
Layer_0
  10
18.386486
  20
8.3354778
  0
VERTEX
  5
480
  8
Layer_0
  10
18.43095
  20
8.3455029
  0
VERTEX
  5
481
  8
Layer_0
  10
18.477266
  20
8.3579407
  0
VERTEX
  5
482
  8
Layer_0
  10
18.523224
  20
8.3716469
  0
VERTEX
  5
483
  8
Layer_0
  10
18.531199
  20
8.3744822
  0
VERTEX
  5
484
  8
Layer_0
  10
18.539217
  20
8.3771839
  0
VERTEX
  5
485
  8
Layer_0
  10
18.568573
  20
8.3882351
  0
VERTEX
  5
486
  8
Layer_0
  10
18.597542
  20
8.4002323
  0
VERTEX
  5
487
  8
Layer_0
  10
18.626108
  20
8.4131651
  0
VERTEX
  5
488
  8
Layer_0
  10
18.654251
  20
8.4270115
  0
VERTEX
  5
489
  8
Layer_0
  10
18.692526
  20
8.4469748
  0
VERTEX
  5
48a
  8
Layer_0
  10
18.730385
  20
8.4677057
  0
VERTEX
  5
48b
  8
Layer_0
  10
18.767817
  20
8.4891949
  0
VERTEX
  5
48c
  8
Layer_0
  10
18.804811
  20
8.5114412
  0
VERTEX
  5
48d
  8
Layer_0
  10
18.844181
  20
8.5358944
  0
VERTEX
  5
48e
  8
Layer_0
  10
18.912354
  20
8.5798779
  0
VERTEX
  5
48f
  8
Layer_0
  10
18.979738
  20
8.6250486
  0
VERTEX
  5
490
  8
Layer_0
  10
19.046318
  20
8.6713924
  0
VERTEX
  5
491
  8
Layer_0
  10
19.112083
  20
8.7189035
  0
VERTEX
  5
492
  8
Layer_0
  10
19.158989
  20
8.7533522
  0
VERTEX
  5
493
  8
Layer_0
  10
19.159912
  20
8.7541208
  0
VERTEX
  5
494
  8
Layer_0
  10
19.207432
  20
8.7899542
  0
VERTEX
  5
495
  8
Layer_0
  10
19.208048
  20
8.7902613
  0
VERTEX
  5
496
  8
Layer_0
  10
19.297401
  20
8.8589668
  0
VERTEX
  5
497
  8
Layer_0
  10
19.385763
  20
8.928936
  0
VERTEX
  5
498
  8
Layer_0
  10
19.47312
  20
9.0001574
  0
VERTEX
  5
499
  8
Layer_0
  10
19.559456
  20
9.0726194
  0
VERTEX
  5
49a
  8
Layer_0
  10
19.660341
  20
9.1593561
  0
VERTEX
  5
49b
  8
Layer_0
  10
19.661419
  20
9.1604328
  0
VERTEX
  5
49c
  8
Layer_0
  10
19.761997
  20
9.2496309
  0
VERTEX
  5
49d
  8
Layer_0
  10
19.763227
  20
9.2505531
  0
VERTEX
  5
49e
  8
Layer_0
  10
19.863806
  20
9.3425198
  0
VERTEX
  5
49f
  8
Layer_0
  10
19.93578
  20
9.4106483
  0
VERTEX
  5
4a0
  8
Layer_0
  10
19.934088
  20
9.4040356
  0
VERTEX
  5
4a1
  8
Layer_0
  10
19.906612
  20
9.3041801
  0
VERTEX
  5
4a2
  8
Layer_0
  10
19.879337
  20
9.2042627
  0
VERTEX
  5
4a3
  8
Layer_0
  10
19.860287
  20
9.1315584
  0
VERTEX
  5
4a4
  8
Layer_0
  10
19.843012
  20
9.0584221
  0
VERTEX
  5
4a5
  8
Layer_0
  10
19.827522
  20
8.9848871
  0
VERTEX
  5
4a6
  8
Layer_0
  10
19.813824
  20
8.9109859
  0
VERTEX
  5
4a7
  8
Layer_0
  10
19.807837
  20
8.8717651
  0
VERTEX
  5
4a8
  8
Layer_0
  10
19.802891
  20
8.8324051
  0
VERTEX
  5
4a9
  8
Layer_0
  10
19.798988
  20
8.7929239
  0
VERTEX
  5
4aa
  8
Layer_0
  10
19.796139
  20
8.7533522
  0
VERTEX
  5
4ab
  8
Layer_0
  10
19.794865
  20
8.7194805
  0
VERTEX
  5
4ac
  8
Layer_0
  10
19.79508
  20
8.6855984
  0
VERTEX
  5
4ad
  8
Layer_0
  10
19.796787
  20
8.651762
  0
VERTEX
  5
4ae
  8
Layer_0
  10
19.799982
  20
8.6180172
  0
VERTEX
  5
4af
  8
Layer_0
  10
19.805092
  20
8.5831747
  0
VERTEX
  5
4b0
  8
Layer_0
  10
19.813007
  20
8.5489178
  0
VERTEX
  5
4b1
  8
Layer_0
  10
19.823673
  20
8.5154133
  0
VERTEX
  5
4b2
  8
Layer_0
  10
19.837046
  20
8.4828367
  0
VERTEX
  5
4b3
  8
Layer_0
  10
19.849623
  20
8.4585238
  0
VERTEX
  5
4b4
  8
Layer_0
  10
19.864176
  20
8.4354019
  0
VERTEX
  5
4b5
  8
Layer_0
  10
19.880621
  20
8.413579
  0
VERTEX
  5
4b6
  8
Layer_0
  10
19.898869
  20
8.393178
  0
VERTEX
  5
4b7
  8
Layer_0
  10
19.900974
  20
8.3909769
  0
VERTEX
  5
4b8
  8
Layer_0
  10
19.903021
  20
8.3887177
  0
VERTEX
  5
4b9
  8
Layer_0
  10
19.917166
  20
8.3760633
  0
VERTEX
  5
4ba
  8
Layer_0
  10
19.93178
  20
8.3639574
  0
VERTEX
  5
4bb
  8
Layer_0
  10
19.953157
  20
8.348732
  0
VERTEX
  5
4bc
  8
Layer_0
  10
19.967224
  20
8.3401537
  0
VERTEX
  5
4bd
  8
Layer_0
  10
19.981607
  20
8.3321228
  0
VERTEX
  5
4be
  8
Layer_0
  10
19.99822
  20
8.3241024
  0
VERTEX
  5
4bf
  8
Layer_0
  10
20.015135
  20
8.3167439
  0
VERTEX
  5
4c0
  8
Layer_0
  10
20.031071
  20
8.310811
  0
VERTEX
  5
4c1
  8
Layer_0
  10
20.047123
  20
8.3052101
  0
VERTEX
  5
4c2
  8
Layer_0
  10
20.062256
  20
8.3009996
  0
VERTEX
  5
4c3
  8
Layer_0
  10
20.077419
  20
8.2969055
  0
VERTEX
  5
4c4
  8
Layer_0
  10
20.110615
  20
8.2900639
  0
VERTEX
  5
4c5
  8
Layer_0
  10
20.144163
  20
8.2852173
  0
VERTEX
  5
4c6
  8
Layer_0
  10
20.172108
  20
8.2824154
  0
VERTEX
  5
4c7
  8
Layer_0
  10
20.200127
  20
8.2805557
  0
VERTEX
  5
4c8
  8
Layer_0
  10
20.228189
  20
8.279645
  0
VERTEX
  5
4c9
  8
Layer_0
  10
20.261044
  20
8.2796812
  0
VERTEX
  5
4ca
  8
Layer_0
  10
20.285275
  20
8.2804089
  0
VERTEX
  5
4cb
  8
Layer_0
  10
20.309486
  20
8.2816801
  0
VERTEX
  5
4cc
  8
Layer_0
  10
20.333426
  20
8.2836294
  0
VERTEX
  5
4cd
  8
Layer_0
  10
20.357315
  20
8.2861404
  0
VERTEX
  5
4ce
  8
Layer_0
  10
20.421366
  20
8.2961721
  0
VERTEX
  5
4cf
  8
Layer_0
  10
20.484676
  20
8.3098717
  0
VERTEX
  5
4d0
  8
Layer_0
  10
20.547092
  20
8.3272018
  0
VERTEX
  5
4d1
  8
Layer_0
  10
20.608454
  20
8.3481169
  0
VERTEX
  5
4d2
  8
Layer_0
  10
20.663717
  20
8.3696766
  0
VERTEX
  5
4d3
  8
Layer_0
  10
20.718204
  20
8.393074
  0
VERTEX
  5
4d4
  8
Layer_0
  10
20.771873
  20
8.418293
  0
VERTEX
  5
4d5
  8
Layer_0
  10
20.824682
  20
8.4453125
  0
VERTEX
  5
4d6
  8
Layer_0
  10
20.851902
  20
8.4597683
  0
VERTEX
  5
4d7
  8
Layer_0
  10
20.881123
  20
8.4759159
  0
VERTEX
  5
4d8
  8
Layer_0
  10
20.930912
  20
8.5044613
  0
VERTEX
  5
4d9
  8
Layer_0
  10
20.980192
  20
8.5338564
  0
VERTEX
  5
4da
  8
Layer_0
  10
21.028948
  20
8.5640955
  0
VERTEX
  5
4db
  8
Layer_0
  10
21.077169
  20
8.5951681
  0
VERTEX
  5
4dc
  8
Layer_0
  10
21.124849
  20
8.6270676
  0
VERTEX
  5
4dd
  8
Layer_0
  10
21.171976
  20
8.659791
  0
VERTEX
  5
4de
  8
Layer_0
  10
21.218536
  20
8.693326
  0
VERTEX
  5
4df
  8
Layer_0
  10
21.264519
  20
8.7276697
  0
VERTEX
  5
4e0
  8
Layer_0
  10
21.385109
  20
8.8207693
  0
VERTEX
  5
4e1
  8
Layer_0
  10
21.503969
  20
8.9160614
  0
VERTEX
  5
4e2
  8
Layer_0
  10
21.576712
  20
8.9755783
  0
VERTEX
  5
4e3
  8
Layer_0
  10
21.649878
  20
9.0363321
  0
VERTEX
  5
4e4
  8
Layer_0
  10
21.722042
  20
9.0970716
  0
VERTEX
  5
4e5
  8
Layer_0
  10
21.722658
  20
9.0978403
  0
VERTEX
  5
4e6
  8
Layer_0
  10
21.784342
  20
9.1504364
  0
VERTEX
  5
4e7
  8
Layer_0
  10
21.845526
  20
9.2035942
  0
VERTEX
  5
4e8
  8
Layer_0
  10
21.906218
  20
9.2573204
  0
VERTEX
  5
4e9
  8
Layer_0
  10
21.966413
  20
9.3116074
  0
VERTEX
  5
4ea
  8
Layer_0
  10
21.943316
  20
9.2402859
  0
VERTEX
  5
4eb
  8
Layer_0
  10
21.921976
  20
9.1684294
  0
VERTEX
  5
4ec
  8
Layer_0
  10
21.902399
  20
9.096077
  0
VERTEX
  5
4ed
  8
Layer_0
  10
21.884598
  20
9.0232525
  0
VERTEX
  5
4ee
  8
Layer_0
  10
21.878811
  20
8.9978342
  0
VERTEX
  5
4ef
  8
Layer_0
  10
21.873833
  20
8.9722519
  0
VERTEX
  5
4f0
  8
Layer_0
  10
21.869661
  20
8.9465265
  0
VERTEX
  5
4f1
  8
Layer_0
  10
21.866297
  20
8.9206753
  0
VERTEX
  5
4f2
  8
Layer_0
  10
21.864752
  20
8.8939781
  0
VERTEX
  5
4f3
  8
Layer_0
  10
21.866041
  20
8.8673487
  0
VERTEX
  5
4f4
  8
Layer_0
  10
21.870152
  20
8.8410025
  0
VERTEX
  5
4f5
  8
Layer_0
  10
21.877062
  20
8.815176
  0
VERTEX
  5
4f6
  8
Layer_0
  10
21.88381
  20
8.7974415
  0
VERTEX
  5
4f7
  8
Layer_0
  10
21.891975
  20
8.7804193
  0
VERTEX
  5
4f8
  8
Layer_0
  10
21.901501
  20
8.7641945
  0
VERTEX
  5
4f9
  8
Layer_0
  10
21.912315
  20
8.7488394
  0
VERTEX
  5
4fa
  8
Layer_0
  10
21.92437
  20
8.7344341
  0
VERTEX
  5
4fb
  8
Layer_0
  10
21.937597
  20
8.7210512
  0
VERTEX
  5
4fc
  8
Layer_0
  10
21.951941
  20
8.7087774
  0
VERTEX
  5
4fd
  8
Layer_0
  10
21.967337
  20
8.6976805
  0
VERTEX
  5
4fe
  8
Layer_0
  10
21.976074
  20
8.6919975
  0
VERTEX
  5
4ff
  8
Layer_0
  10
21.985176
  20
8.6869154
  0
VERTEX
  5
500
  8
Layer_0
  10
21.987175
  20
8.6856852
  0
VERTEX
  5
501
  8
Layer_0
  10
21.993908
  20
8.6820831
  0
VERTEX
  5
502
  8
Layer_0
  10
22.00071
  20
8.6786108
  0
VERTEX
  5
503
  8
Layer_0
  10
22.008303
  20
8.675189
  0
VERTEX
  5
504
  8
Layer_0
  10
22.015934
  20
8.6718435
  0
VERTEX
  5
505
  8
Layer_0
  10
22.043041
  20
8.6618042
  0
VERTEX
  5
506
  8
Layer_0
  10
22.070793
  20
8.6538553
  0
VERTEX
  5
507
  8
Layer_0
  10
22.099066
  20
8.648016
  0
VERTEX
  5
508
  8
Layer_0
  10
22.127739
  20
8.6443157
  0
VERTEX
  5
509
  8
Layer_0
  10
22.165859
  20
8.6415663
  0
VERTEX
  5
50a
  8
Layer_0
  10
22.204046
  20
8.6408243
  0
VERTEX
  5
50b
  8
Layer_0
  10
22.24222
  20
8.6421003
  0
VERTEX
  5
50c
  8
Layer_0
  10
22.280298
  20
8.6453924
  0
VERTEX
  5
50d
  8
Layer_0
  10
22.329878
  20
8.6515532
  0
VERTEX
  5
50e
  8
Layer_0
  10
22.379173
  20
8.659584
  0
VERTEX
  5
50f
  8
Layer_0
  10
22.428125
  20
8.6694765
  0
VERTEX
  5
510
  8
Layer_0
  10
22.476686
  20
8.6812248
  0
VERTEX
  5
511
  8
Layer_0
  10
22.506075
  20
8.6907434
  0
VERTEX
  5
512
  8
Layer_0
  10
22.534666
  20
8.7024479
  0
VERTEX
  5
513
  8
Layer_0
  10
22.559128
  20
8.7153082
  0
VERTEX
  5
514
  8
Layer_0
  10
22.582201
  20
8.7304068
  0
VERTEX
  5
515
  8
Layer_0
  10
22.603727
  20
8.747633
  0
VERTEX
  5
516
  8
Layer_0
  10
22.623556
  20
8.7668858
  0
VERTEX
  5
517
  8
Layer_0
  10
22.62571
  20
8.7690392
  0
VERTEX
  5
518
  8
Layer_0
  10
22.643299
  20
8.7893915
  0
VERTEX
  5
519
  8
Layer_0
  10
22.659697
  20
8.8107157
  0
VERTEX
  5
51a
  8
Layer_0
  10
22.662157
  20
8.8137913
  0
VERTEX
  5
51b
  8
Layer_0
  10
22.69743
  20
8.8670578
  0
VERTEX
  5
51c
  8
Layer_0
  10
22.73044
  20
8.921752
  0
VERTEX
  5
51d
  8
Layer_0
  10
22.793871
  20
9.0242834
  0
VERTEX
  5
51e
  8
Layer_0
  10
22.860229
  20
9.1249123
  0
VERTEX
  5
51f
  8
Layer_0
  10
22.929476
  20
9.2235775
  0
VERTEX
  5
520
  8
Layer_0
  10
23.00157
  20
9.32022
  0
VERTEX
  5
521
  8
Layer_0
  10
23.074163
  20
9.4126501
  0
VERTEX
  5
522
  8
Layer_0
  10
23.149162
  20
9.503109
  0
VERTEX
  5
523
  8
Layer_0
  10
23.22653
  20
9.5915546
  0
VERTEX
  5
524
  8
Layer_0
  10
23.306227
  20
9.6779337
  0
VERTEX
  5
525
  8
Layer_0
  10
23.358057
  20
9.7314863
  0
VERTEX
  5
526
  8
Layer_0
  10
23.411053
  20
9.7838755
  0
VERTEX
  5
527
  8
Layer_0
  10
23.465193
  20
9.835083
  0
VERTEX
  5
528
  8
Layer_0
  10
23.520454
  20
9.885088
  0
VERTEX
  5
529
  8
Layer_0
  10
23.554926
  20
9.9148779
  0
VERTEX
  5
52a
  8
Layer_0
  10
23.590031
  20
9.9439106
  0
VERTEX
  5
52b
  8
Layer_0
  10
23.625757
  20
9.9721766
  0
VERTEX
  5
52c
  8
Layer_0
  10
23.662096
  20
9.9996614
  0
VERTEX
  5
52d
  8
Layer_0
  10
23.69212
  20
10.02124
  0
VERTEX
  5
52e
  8
Layer_0
  10
23.722776
  20
10.041896
  0
VERTEX
  5
52f
  8
Layer_0
  10
23.754042
  20
10.061619
  0
VERTEX
  5
530
  8
Layer_0
  10
23.785896
  20
10.0804
  0
VERTEX
  5
531
  8
Layer_0
  10
23.806686
  20
10.091497
  0
VERTEX
  5
532
  8
Layer_0
  10
23.827911
  20
10.10172
  0
VERTEX
  5
533
  8
Layer_0
  10
23.849541
  20
10.111048
  0
VERTEX
  5
534
  8
Layer_0
  10
23.871557
  20
10.119463
  0
VERTEX
  5
535
  8
Layer_0
  10
23.884554
  20
10.123707
  0
VERTEX
  5
536
  8
Layer_0
  10
23.897821
  20
10.126926
  0
VERTEX
  5
537
  8
Layer_0
  10
23.911295
  20
10.129107
  0
VERTEX
  5
538
  8
Layer_0
  10
23.924921
  20
10.130228
  0
VERTEX
  5
539
  8
Layer_0
  10
23.924307
  20
10.126537
  0
VERTEX
  5
53a
  8
Layer_0
  10
23.918261
  20
10.095191
  0
VERTEX
  5
53b
  8
Layer_0
  10
23.911299
  20
10.064044
  0
VERTEX
  5
53c
  8
Layer_0
  10
23.903419
  20
10.033115
  0
VERTEX
  5
53d
  8
Layer_0
  10
23.894625
  20
10.00243
  0
VERTEX
  5
53e
  8
Layer_0
  10
23.870193
  20
9.9211226
  0
VERTEX
  5
53f
  8
Layer_0
  10
23.844105
  20
9.8403358
  0
VERTEX
  5
540
  8
Layer_0
  10
23.801872
  20
9.7127914
  0
VERTEX
  5
541
  8
Layer_0
  10
23.758444
  20
9.58566
  0
VERTEX
  5
542
  8
Layer_0
  10
23.686625
  20
9.3771992
  0
VERTEX
  5
543
  8
Layer_0
  10
23.649946
  20
9.2683926
  0
VERTEX
  5
544
  8
Layer_0
  10
23.649485
  20
9.2673168
  0
VERTEX
  5
545
  8
Layer_0
  10
23.628735
  20
9.2041664
  0
VERTEX
  5
546
  8
Layer_0
  10
23.608847
  20
9.1407385
  0
VERTEX
  5
547
  8
Layer_0
  10
23.589821
  20
9.0770473
  0
VERTEX
  5
548
  8
Layer_0
  10
23.571667
  20
9.0131025
  0
VERTEX
  5
549
  8
Layer_0
  10
23.559771
  20
8.9683304
  0
VERTEX
  5
54a
  8
Layer_0
  10
23.549034
  20
8.923275
  0
VERTEX
  5
54b
  8
Layer_0
  10
23.539463
  20
8.8779554
  0
VERTEX
  5
54c
  8
Layer_0
  10
23.531067
  20
8.8324003
  0
VERTEX
  5
54d
  8
Layer_0
  10
23.52676
  20
8.8039494
  0
VERTEX
  5
54e
  8
Layer_0
  10
23.521925
  20
8.7576876
  0
VERTEX
  5
54f
  8
Layer_0
  10
23.519995
  20
8.7112141
  0
VERTEX
  5
550
  8
Layer_0
  10
23.52033
  20
8.6919155
  0
VERTEX
  5
551
  8
Layer_0
  10
23.521423
  20
8.6726542
  0
VERTEX
  5
552
  8
Layer_0
  10
23.523262
  20
8.6534472
  0
VERTEX
  5
553
  8
Layer_0
  10
23.525839
  20
8.6343193
  0
VERTEX
  5
554
  8
Layer_0
  10
23.531178
  20
8.6092253
  0
VERTEX
  5
555
  8
Layer_0
  10
23.537987
  20
8.5844917
  0
VERTEX
  5
556
  8
Layer_0
  10
23.544725
  20
8.565979
  0
VERTEX
  5
557
  8
Layer_0
  10
23.552626
  20
8.5479517
  0
VERTEX
  5
558
  8
Layer_0
  10
23.561661
  20
8.5304728
  0
VERTEX
  5
559
  8
Layer_0
  10
23.571821
  20
8.5135946
  0
VERTEX
  5
55a
  8
Layer_0
  10
23.573051
  20
8.5120564
  0
VERTEX
  5
55b
  8
Layer_0
  10
23.579405
  20
8.5028315
  0
VERTEX
  5
55c
  8
Layer_0
  10
23.58597
  20
8.4937553
  0
VERTEX
  5
55d
  8
Layer_0
  10
23.591957
  20
8.4862366
  0
VERTEX
  5
55e
  8
Layer_0
  10
23.598272
  20
8.4789925
  0
VERTEX
  5
55f
  8
Layer_0
  10
23.615669
  20
8.4608879
  0
VERTEX
  5
560
  8
Layer_0
  10
23.634254
  20
8.4440527
  0
VERTEX
  5
561
  8
Layer_0
  10
23.653957
  20
8.4285393
  0
VERTEX
  5
562
  8
Layer_0
  10
23.674706
  20
8.4144001
  0
VERTEX
  5
563
  8
Layer_0
  10
23.7031
  20
8.3974619
  0
VERTEX
  5
564
  8
Layer_0
  10
23.732607
  20
8.3826523
  0
VERTEX
  5
565
  8
Layer_0
  10
23.763119
  20
8.3700323
  0
VERTEX
  5
566
  8
Layer_0
  10
23.794508
  20
8.3596516
  0
VERTEX
  5
567
  8
Layer_0
  10
23.828491
  20
8.3506403
  0
VERTEX
  5
568
  8
Layer_0
  10
23.86285
  20
8.3433018
  0
VERTEX
  5
569
  8
Layer_0
  10
23.897528
  20
8.3376408
  0
VERTEX
  5
56a
  8
Layer_0
  10
23.932457
  20
8.3336611
  0
VERTEX
  5
56b
  8
Layer_0
  10
23.965683
  20
8.3308544
  0
VERTEX
  5
56c
  8
Layer_0
  10
23.998968
  20
8.3290234
  0
VERTEX
  5
56d
  8
Layer_0
  10
24.032295
  20
8.3281631
  0
VERTEX
  5
56e
  8
Layer_0
  10
24.065639
  20
8.3282785
  0
VERTEX
  5
56f
  8
Layer_0
  10
24.163555
  20
8.3298187
  0
VERTEX
  5
570
  8
Layer_0
  10
24.261412
  20
8.3335075
  0
VERTEX
  5
571
  8
Layer_0
  10
24.2934
  20
8.3353529
  0
VERTEX
  5
572
  8
Layer_0
  10
24.345951
  20
8.3390989
  0
VERTEX
  5
573
  8
Layer_0
  10
24.398434
  20
8.3436403
  0
VERTEX
  5
574
  8
Layer_0
  10
24.450846
  20
8.3489799
  0
VERTEX
  5
575
  8
Layer_0
  10
24.50317
  20
8.3551149
  0
VERTEX
  5
576
  8
Layer_0
  10
24.615761
  20
8.3701239
  0
VERTEX
  5
577
  8
Layer_0
  10
24.728077
  20
8.3870335
  0
VERTEX
  5
578
  8
Layer_0
  10
24.84009
  20
8.4058437
  0
VERTEX
  5
579
  8
Layer_0
  10
24.951773
  20
8.4265499
  0
VERTEX
  5
57a
  8
Layer_0
  10
25.03841
  20
8.4444904
  0
VERTEX
  5
57b
  8
Layer_0
  10
25.124729
  20
8.4638777
  0
VERTEX
  5
57c
  8
Layer_0
  10
25.210711
  20
8.4847107
  0
VERTEX
  5
57d
  8
Layer_0
  10
25.296337
  20
8.5069818
  0
VERTEX
  5
57e
  8
Layer_0
  10
25.369291
  20
8.5261211
  0
VERTEX
  5
57f
  8
Layer_0
  10
25.442362
  20
8.5448141
  0
VERTEX
  5
580
  8
Layer_0
  10
25.444054
  20
8.5392771
  0
VERTEX
  5
581
  8
Layer_0
  10
25.454657
  20
8.5145655
  0
VERTEX
  5
582
  8
Layer_0
  10
25.467583
  20
8.4909878
  0
VERTEX
  5
583
  8
Layer_0
  10
25.492987
  20
8.4498539
  0
VERTEX
  5
584
  8
Layer_0
  10
25.520487
  20
8.4100943
  0
VERTEX
  5
585
  8
Layer_0
  10
25.553387
  20
8.370595
  0
VERTEX
  5
586
  8
Layer_0
  10
25.587999
  20
8.3325844
  0
VERTEX
  5
587
  8
Layer_0
  10
25.599884
  20
8.3220596
  0
VERTEX
  5
588
  8
Layer_0
  10
25.612144
  20
8.3119764
  0
VERTEX
  5
589
  8
Layer_0
  10
25.625507
  20
8.3020811
  0
VERTEX
  5
58a
  8
Layer_0
  10
25.639057
  20
8.2924452
  0
VERTEX
  5
58b
  8
Layer_0
  10
25.667318
  20
8.274683
  0
VERTEX
  5
58c
  8
Layer_0
  10
25.696436
  20
8.2584076
  0
VERTEX
  5
58d
  8
Layer_0
  10
25.726353
  20
8.2436562
  0
VERTEX
  5
58e
  8
Layer_0
  10
25.757013
  20
8.2304688
  0
VERTEX
  5
58f
  8
Layer_0
  10
25.799358
  20
8.214633
  0
VERTEX
  5
590
  8
Layer_0
  10
25.842323
  20
8.2006264
  0
VERTEX
  5
591
  8
Layer_0
  10
25.885847
  20
8.1884699
  0
VERTEX
  5
592
  8
Layer_0
  10
25.929873
  20
8.1781797
  0
VERTEX
  5
593
  8
Layer_0
  10
25.97962
  20
8.1681862
  0
VERTEX
  5
594
  8
Layer_0
  10
26.02965
  20
8.1598263
  0
VERTEX
  5
595
  8
Layer_0
  10
26.079929
  20
8.1531048
  0
VERTEX
  5
596
  8
Layer_0
  10
26.130415
  20
8.148037
  0
VERTEX
  5
597
  8
Layer_0
  10
26.169785
  20
8.1449614
  0
VERTEX
  5
598
  8
Layer_0
  10
26.235214
  20
8.1417274
  0
VERTEX
  5
599
  8
Layer_0
  10
26.300661
  20
8.140624
  0
VERTEX
  5
59a
  8
Layer_0
  10
26.366076
  20
8.141655
  0
VERTEX
  5
59b
  8
Layer_0
  10
26.431404
  20
8.1448097
  0
VERTEX
  5
59c
  8
Layer_0
  10
26.496595
  20
8.1500893
  0
VERTEX
  5
59d
  8
Layer_0
  10
26.561598
  20
8.1574907
  0
VERTEX
  5
59e
  8
Layer_0
  10
26.626356
  20
8.1670084
  0
VERTEX
  5
59f
  8
Layer_0
  10
26.690823
  20
8.1786413
  0
VERTEX
  5
5a0
  8
Layer_0
  10
26.730654
  20
8.187254
  0
VERTEX
  5
5a1
  8
Layer_0
  10
26.787615
  20
8.2012939
  0
VERTEX
  5
5a2
  8
Layer_0
  10
26.844011
  20
8.217391
  0
VERTEX
  5
5a3
  8
Layer_0
  10
26.899784
  20
8.2355289
  0
VERTEX
  5
5a4
  8
Layer_0
  10
26.95488
  20
8.2556896
  0
VERTEX
  5
5a5
  8
Layer_0
  10
27.001017
  20
8.2736835
  0
VERTEX
  5
5a6
  8
Layer_0
  10
27.05069
  20
8.2945986
  0
VERTEX
  5
5a7
  8
Layer_0
  10
27.052382
  20
8.2952137
  0
VERTEX
  5
5a8
  8
Layer_0
  10
27.100826
  20
8.3165903
  0
VERTEX
  5
5a9
  8
Layer_0
  10
27.102671
  20
8.3175135
  0
VERTEX
  5
5aa
  8
Layer_0
  10
27.152037
  20
8.3405819
  0
VERTEX
  5
5ab
  8
Layer_0
  10
27.177933
  20
8.3534708
  0
VERTEX
  5
5ac
  8
Layer_0
  10
27.205709
  20
8.3667259
  0
VERTEX
  5
5ad
  8
Layer_0
  10
27.257229
  20
8.3930235
  0
VERTEX
  5
5ae
  8
Layer_0
  10
27.311056
  20
8.421629
  0
VERTEX
  5
5af
  8
Layer_0
  10
27.398008
  20
8.4699278
  0
VERTEX
  5
5b0
  8
Layer_0
  10
27.482916
  20
8.519309
  0
VERTEX
  5
5b1
  8
Layer_0
  10
27.56682
  20
8.5703697
  0
VERTEX
  5
5b2
  8
Layer_0
  10
27.6497
  20
8.6230927
  0
VERTEX
  5
5b3
  8
Layer_0
  10
27.65093
  20
8.6237078
  0
VERTEX
  5
5b4
  8
Layer_0
  10
27.708601
  20
8.66154
  0
VERTEX
  5
5b5
  8
Layer_0
  10
27.709217
  20
8.6620016
  0
VERTEX
  5
5b6
  8
Layer_0
  10
27.767656
  20
8.7010641
  0
VERTEX
  5
5b7
  8
Layer_0
  10
27.797506
  20
8.7218733
  0
VERTEX
  5
5b8
  8
Layer_0
  10
27.827635
  20
8.7422791
  0
VERTEX
  5
5b9
  8
Layer_0
  10
27.828403
  20
8.7427406
  0
VERTEX
  5
5ba
  8
Layer_0
  10
27.887766
  20
8.7842636
  0
VERTEX
  5
5bb
  8
Layer_0
  10
27.888689
  20
8.7850332
  0
VERTEX
  5
5bc
  8
Layer_0
  10
27.948513
  20
8.82794
  0
VERTEX
  5
5bd
  8
Layer_0
  10
27.949282
  20
8.8284016
  0
VERTEX
  5
5be
  8
Layer_0
  10
28.009567
  20
8.8725386
  0
VERTEX
  5
5bf
  8
Layer_0
  10
28.070929
  20
8.9183683
  0
VERTEX
  5
5c0
  8
Layer_0
  10
28.132599
  20
8.9654274
  0
VERTEX
  5
5c1
  8
Layer_0
  10
28.133368
  20
8.965889
  0
VERTEX
  5
5c2
  8
Layer_0
  10
28.194576
  20
9.0134096
  0
VERTEX
  5
5c3
  8
Layer_0
  10
28.19519
  20
9.0140257
  0
VERTEX
  5
5c4
  8
Layer_0
  10
28.320881
  20
9.1143532
  0
VERTEX
  5
5c5
  8
Layer_0
  10
28.444792
  20
9.2168732
  0
VERTEX
  5
5c6
  8
Layer_0
  10
28.506767
  20
9.2694693
  0
VERTEX
  5
5c7
  8
Layer_0
  10
28.507538
  20
9.2702379
  0
VERTEX
  5
5c8
  8
Layer_0
  10
28.592518
  20
9.3443213
  0
VERTEX
  5
5c9
  8
Layer_0
  10
28.677013
  20
9.4189529
  0
VERTEX
  5
5ca
  8
Layer_0
  10
28.744526
  20
9.4773493
  0
VERTEX
  5
5cb
  8
Layer_0
  10
28.813271
  20
9.5342951
  0
VERTEX
  5
5cc
  8
Layer_0
  10
28.843422
  20
9.5573177
  0
VERTEX
  5
5cd
  8
Layer_0
  10
28.874939
  20
9.5784321
  0
VERTEX
  5
5ce
  8
Layer_0
  10
28.889935
  20
9.5872536
  0
VERTEX
  5
5cf
  8
Layer_0
  10
28.905851
  20
9.5942726
  0
VERTEX
  5
5d0
  8
Layer_0
  10
28.90785
  20
9.5948877
  0
VERTEX
  5
5d1
  8
Layer_0
  10
28.912003
  20
9.5953493
  0
VERTEX
  5
5d2
  8
Layer_0
  10
28.915234
  20
9.5951948
  0
VERTEX
  5
5d3
  8
Layer_0
  10
28.952604
  20
9.5864296
  0
VERTEX
  5
5d4
  8
Layer_0
  10
28.996967
  20
9.5784416
  0
VERTEX
  5
5d5
  8
Layer_0
  10
29.041647
  20
9.5726748
  0
VERTEX
  5
5d6
  8
Layer_0
  10
29.086557
  20
9.5691328
  0
VERTEX
  5
5d7
  8
Layer_0
  10
29.131615
  20
9.5678205
  0
VERTEX
  5
5d8
  8
Layer_0
  10
29.16794
  20
9.5680275
  0
VERTEX
  5
5d9
  8
Layer_0
  10
29.204214
  20
9.5693655
  0
VERTEX
  5
5da
  8
Layer_0
  10
29.240414
  20
9.5718288
  0
VERTEX
  5
5db
  8
Layer_0
  10
29.27651
  20
9.5754089
  0
VERTEX
  5
5dc
  8
Layer_0
  10
29.312481
  20
9.5801115
  0
VERTEX
  5
5dd
  8
Layer_0
  10
29.348293
  20
9.5859251
  0
VERTEX
  5
5de
  8
Layer_0
  10
29.383928
  20
9.5928497
  0
VERTEX
  5
5df
  8
Layer_0
  10
29.419353
  20
9.6008854
  0
VERTEX
  5
5e0
  8
Layer_0
  10
29.389515
  20
9.5356665
  0
VERTEX
  5
5e1
  8
Layer_0
  10
29.360899
  20
9.4699049
  0
VERTEX
  5
5e2
  8
Layer_0
  10
29.333525
  20
9.4036217
  0
VERTEX
  5
5e3
  8
Layer_0
  10
29.307396
  20
9.3368292
  0
VERTEX
  5
5e4
  8
Layer_0
  10
29.28587
  20
9.2801886
  0
VERTEX
  5
5e5
  8
Layer_0
  10
29.265108
  20
9.2232656
  0
VERTEX
  5
5e6
  8
Layer_0
  10
29.245113
  20
9.1660681
  0
VERTEX
  5
5e7
  8
Layer_0
  10
29.225887
  20
9.1086054
  0
VERTEX
  5
5e8
  8
Layer_0
  10
29.210068
  20
9.0594559
  0
VERTEX
  5
5e9
  8
Layer_0
  10
29.19536
  20
9.0099688
  0
VERTEX
  5
5ea
  8
Layer_0
  10
29.181767
  20
8.960165
  0
VERTEX
  5
5eb
  8
Layer_0
  10
29.169292
  20
8.9100637
  0
VERTEX
  5
5ec
  8
Layer_0
  10
29.160656
  20
8.867382
  0
VERTEX
  5
5ed
  8
Layer_0
  10
29.154682
  20
8.8242493
  0
VERTEX
  5
5ee
  8
Layer_0
  10
29.154375
  20
8.8202505
  0
VERTEX
  5
5ef
  8
Layer_0
  10
29.15267
  20
8.7918377
  0
VERTEX
  5
5f0
  8
Layer_0
  10
29.15267
  20
8.763401
  0
VERTEX
  5
5f1
  8
Layer_0
  10
29.154367
  20
8.7350149
  0
VERTEX
  5
5f2
  8
Layer_0
  10
29.157759
  20
8.7067537
  0
VERTEX
  5
5f3
  8
Layer_0
  10
29.16291
  20
8.6797762
  0
VERTEX
  5
5f4
  8
Layer_0
  10
29.17009
  20
8.6533051
  0
VERTEX
  5
5f5
  8
Layer_0
  10
29.179255
  20
8.6274519
  0
VERTEX
  5
5f6
  8
Layer_0
  10
29.190361
  20
8.6023312
  0
VERTEX
  5
5f7
  8
Layer_0
  10
29.200705
  20
8.5832176
  0
VERTEX
  5
5f8
  8
Layer_0
  10
29.212214
  20
8.5648613
  0
VERTEX
  5
5f9
  8
Layer_0
  10
29.224846
  20
8.5473108
  0
VERTEX
  5
5fa
  8
Layer_0
  10
29.238556
  20
8.530612
  0
VERTEX
  5
5fb
  8
Layer_0
  10
29.253292
  20
8.5148125
  0
VERTEX
  5
5fc
  8
Layer_0
  10
29.269018
  20
8.4999628
  0
VERTEX
  5
5fd
  8
Layer_0
  10
29.285683
  20
8.4861097
  0
VERTEX
  5
5fe
  8
Layer_0
  10
29.303244
  20
8.4733019
  0
VERTEX
  5
5ff
  8
Layer_0
  10
29.311346
  20
8.4679623
  0
VERTEX
  5
600
  8
Layer_0
  10
29.319391
  20
8.4625368
  0
VERTEX
  5
601
  8
Layer_0
  10
29.349503
  20
8.4456196
  0
VERTEX
  5
602
  8
Layer_0
  10
29.380657
  20
8.4307985
  0
VERTEX
  5
603
  8
Layer_0
  10
29.412745
  20
8.4181204
  0
VERTEX
  5
604
  8
Layer_0
  10
29.445652
  20
8.4076338
  0
VERTEX
  5
605
  8
Layer_0
  10
29.489048
  20
8.3967485
  0
VERTEX
  5
606
  8
Layer_0
  10
29.532921
  20
8.3881388
  0
VERTEX
  5
607
  8
Layer_0
  10
29.577181
  20
8.3818159
  0
VERTEX
  5
608
  8
Layer_0
  10
29.62174
  20
8.377799
  0
VERTEX
  5
609
  8
Layer_0
  10
29.671415
  20
8.3750305
  0
VERTEX
  5
60a
  8
Layer_0
  10
29.697636
  20
8.3747826
  0
VERTEX
  5
60b
  8
Layer_0
  10
29.723858
  20
8.3747225
  0
VERTEX
  5
60c
  8
Layer_0
  10
29.748089
  20
8.3755207
  0
VERTEX
  5
60d
  8
Layer_0
  10
29.772301
  20
8.3767223
  0
VERTEX
  5
60e
  8
Layer_0
  10
29.774454
  20
8.3770294
  0
VERTEX
  5
60f
  8
Layer_0
  10
29.799501
  20
8.3795576
  0
VERTEX
  5
610
  8
Layer_0
  10
29.824589
  20
8.3816433
  0
VERTEX
  5
611
  8
Layer_0
  10
29.869343
  20
8.3881025
  0
VERTEX
  5
612
  8
Layer_0
  10
29.872265
  20
8.3887177
  0
VERTEX
  5
613
  8
Layer_0
  10
29.874878
  20
8.3891792
  0
VERTEX
  5
614
  8
Layer_0
  10
29.910376
  20
8.3962049
  0
VERTEX
  5
615
  8
Layer_0
  10
29.945621
  20
8.4044046
  0
VERTEX
  5
616
  8
Layer_0
  10
29.991201
  20
8.4171371
  0
VERTEX
  5
617
  8
Layer_0
  10
30.036188
  20
8.4317503
  0
VERTEX
  5
618
  8
Layer_0
  10
30.080534
  20
8.4482222
  0
VERTEX
  5
619
  8
Layer_0
  10
30.12417
  20
8.4665346
  0
VERTEX
  5
61a
  8
Layer_0
  10
30.147854
  20
8.4773006
  0
VERTEX
  5
61b
  8
Layer_0
  10
30.20257
  20
8.5041609
  0
VERTEX
  5
61c
  8
Layer_0
  10
30.256361
  20
8.5327892
  0
VERTEX
  5
61d
  8
Layer_0
  10
30.309187
  20
8.5631628
  0
VERTEX
  5
61e
  8
Layer_0
  10
30.361006
  20
8.5952568
  0
VERTEX
  5
61f
  8
Layer_0
  10
30.387766
  20
8.6124811
  0
VERTEX
  5
620
  8
Layer_0
  10
30.388382
  20
8.6129427
  0
VERTEX
  5
621
  8
Layer_0
  10
30.415602
  20
8.6307821
  0
VERTEX
  5
622
  8
Layer_0
  10
30.470619
  20
8.6686916
  0
VERTEX
  5
623
  8
Layer_0
  10
30.524817
  20
8.7077494
  0
VERTEX
  5
624
  8
Layer_0
  10
30.578175
  20
8.7479429
  0
VERTEX
  5
625
  8
Layer_0
  10
30.630676
  20
8.7892618
  0
VERTEX
  5
626
  8
Layer_0
  10
30.65686
  20
8.8099613
  0
VERTEX
  5
627
  8
Layer_0
  10
30.682888
  20
8.830862
  0
VERTEX
  5
628
  8
Layer_0
  10
30.737944
  20
8.8757687
  0
VERTEX
  5
629
  8
Layer_0
  10
30.73856
  20
8.8763838
  0
VERTEX
  5
62a
  8
Layer_0
  10
30.857756
  20
8.9760103
  0
VERTEX
  5
62b
  8
Layer_0
  10
30.975395
  20
9.0774632
  0
VERTEX
  5
62c
  8
Layer_0
  10
31.037382
  20
9.1314383
  0
VERTEX
  5
62d
  8
Layer_0
  10
31.098888
  20
9.1859617
  0
VERTEX
  5
62e
  8
Layer_0
  10
31.099503
  20
9.1865768
  0
VERTEX
  5
62f
  8
Layer_0
  10
31.22315
  20
9.2977667
  0
VERTEX
  5
630
  8
Layer_0
  10
31.223919
  20
9.2983818
  0
VERTEX
  5
631
  8
Layer_0
  10
31.344917
  20
9.4096098
  0
VERTEX
  5
632
  8
Layer_0
  10
31.464983
  20
9.5218382
  0
VERTEX
  5
633
  8
Layer_0
  10
31.547472
  20
9.6008062
  0
VERTEX
  5
634
  8
Layer_0
  10
31.629154
  20
9.680625
  0
VERTEX
  5
635
  8
Layer_0
  10
31.689329
  20
9.7400341
  0
VERTEX
  5
636
  8
Layer_0
  10
31.748589
  20
9.8003578
  0
VERTEX
  5
637
  8
Layer_0
  10
31.806915
  20
9.861578
  0
VERTEX
  5
638
  8
Layer_0
  10
31.864298
  20
9.9236898
  0
VERTEX
  5
639
  8
Layer_0
  10
31.886375
  20
9.948555
  0
VERTEX
  5
63a
  8
Layer_0
  10
31.90707
  20
9.9730244
  0
VERTEX
  5
63b
  8
Layer_0
  10
31.927139
  20
9.9980106
  0
VERTEX
  5
63c
  8
Layer_0
  10
31.946575
  20
10.023499
  0
VERTEX
  5
63d
  8
Layer_0
  10
31.956602
  20
10.037347
  0
VERTEX
  5
63e
  8
Layer_0
  10
31.965784
  20
10.051753
  0
VERTEX
  5
63f
  8
Layer_0
  10
31.974087
  20
10.06668
  0
VERTEX
  5
640
  8
Layer_0
  10
31.981485
  20
10.082092
  0
VERTEX
  5
641
  8
Layer_0
  10
31.988211
  20
10.101026
  0
VERTEX
  5
642
  8
Layer_0
  10
31.992706
  20
10.120538
  0
VERTEX
  5
643
  8
Layer_0
  10
31.994938
  20
10.140436
  0
VERTEX
  5
644
  8
Layer_0
  10
31.994865
  20
10.160525
  0
VERTEX
  5
645
  8
Layer_0
  10
31.992525
  20
10.175397
  0
VERTEX
  5
646
  8
Layer_0
  10
31.988401
  20
10.189813
  0
VERTEX
  5
647
  8
Layer_0
  10
31.98255
  20
10.20362
  0
VERTEX
  5
648
  8
Layer_0
  10
31.975025
  20
10.216659
  0
VERTEX
  5
649
  8
Layer_0
  10
31.965006
  20
10.22901
  0
VERTEX
  5
64a
  8
Layer_0
  10
31.953524
  20
10.239674
  0
VERTEX
  5
64b
  8
Layer_0
  10
31.940794
  20
10.24856
  0
VERTEX
  5
64c
  8
Layer_0
  10
31.927019
  20
10.255586
  0
VERTEX
  5
64d
  8
Layer_0
  10
31.912409
  20
10.260656
  0
VERTEX
  5
64e
  8
Layer_0
  10
31.897177
  20
10.263684
  0
VERTEX
  5
64f
  8
Layer_0
  10
31.881533
  20
10.264578
  0
VERTEX
  5
650
  8
Layer_0
  10
31.865683
  20
10.263256
  0
VERTEX
  5
651
  8
Layer_0
  10
31.853716
  20
10.261168
  0
VERTEX
  5
652
  8
Layer_0
  10
31.841972
  20
10.258128
  0
VERTEX
  5
653
  8
Layer_0
  10
31.830513
  20
10.254154
  0
VERTEX
  5
654
  8
Layer_0
  10
31.819391
  20
10.249262
  0
VERTEX
  5
655
  8
Layer_0
  10
31.813677
  20
10.246541
  0
VERTEX
  5
656
  8
Layer_0
  10
31.80801
  20
10.243725
  0
VERTEX
  5
657
  8
Layer_0
  10
31.78903
  20
10.23271
  0
VERTEX
  5
658
  8
Layer_0
  10
31.770525
  20
10.220925
  0
VERTEX
  5
659
  8
Layer_0
  10
31.75252
  20
10.208392
  0
VERTEX
  5
65a
  8
Layer_0
  10
31.735037
  20
10.195127
  0
VERTEX
  5
65b
  8
Layer_0
  10
31.678741
  20
10.149817
  0
VERTEX
  5
65c
  8
Layer_0
  10
31.624079
  20
10.102547
  0
VERTEX
  5
65d
  8
Layer_0
  10
31.578865
  20
10.062099
  0
VERTEX
  5
65e
  8
Layer_0
  10
31.498095
  20
9.987072
  0
VERTEX
  5
65f
  8
Layer_0
  10
31.418232
  20
9.9110785
  0
VERTEX
  5
660
  8
Layer_0
  10
31.287237
  20
9.7853508
  0
VERTEX
  5
661
  8
Layer_0
  10
31.155636
  20
9.6602478
  0
VERTEX
  5
662
  8
Layer_0
  10
31.055166
  20
9.5661049
  0
VERTEX
  5
663
  8
Layer_0
  10
30.95393
  20
9.4727983
  0
VERTEX
  5
664
  8
Layer_0
  10
30.851929
  20
9.3803225
  0
VERTEX
  5
665
  8
Layer_0
  10
30.74917
  20
9.2886934
  0
VERTEX
  5
666
  8
Layer_0
  10
30.704369
  20
9.2496929
  0
VERTEX
  5
667
  8
Layer_0
  10
30.659742
  20
9.2104912
  0
VERTEX
  5
668
  8
Layer_0
  10
30.600796
  20
9.1602793
  0
VERTEX
  5
669
  8
Layer_0
  10
30.541327
  20
9.1106892
  0
VERTEX
  5
66a
  8
Layer_0
  10
30.481337
  20
9.0617332
  0
VERTEX
  5
66b
  8
Layer_0
  10
30.42083
  20
9.0134096
  0
VERTEX
  5
66c
  8
Layer_0
  10
30.366634
  20
8.9711514
  0
VERTEX
  5
66d
  8
Layer_0
  10
30.311518
  20
8.9301186
  0
VERTEX
  5
66e
  8
Layer_0
  10
30.255503
  20
8.8903208
  0
VERTEX
  5
66f
  8
Layer_0
  10
30.198605
  20
8.8517771
  0
VERTEX
  5
670
  8
Layer_0
  10
30.169495
  20
8.8330965
  0
VERTEX
  5
671
  8
Layer_0
  10
30.139893
  20
8.8152285
  0
VERTEX
  5
672
  8
Layer_0
  10
30.109812
  20
8.7981796
  0
VERTEX
  5
673
  8
Layer_0
  10
30.079264
  20
8.7819567
  0
VERTEX
  5
674
  8
Layer_0
  10
30.045515
  20
8.7664871
  0
VERTEX
  5
675
  8
Layer_0
  10
30.010674
  20
8.7536602
  0
VERTEX
  5
676
  8
Layer_0
  10
30.001579
  20
8.7512693
  0
VERTEX
  5
677
  8
Layer_0
  10
29.992373
  20
8.7493534
  0
VERTEX
  5
678
  8
Layer_0
  10
29.992332
  20
8.7741861
  0
VERTEX
  5
679
  8
Layer_0
  10
29.994987
  20
8.7988739
  0
VERTEX
  5
67a
  8
Layer_0
  10
30.000074
  20
8.8283825
  0
VERTEX
  5
67b
  8
Layer_0
  10
30.006258
  20
8.857667
  0
VERTEX
  5
67c
  8
Layer_0
  10
30.013535
  20
8.8866968
  0
VERTEX
  5
67d
  8
Layer_0
  10
30.0219
  20
8.9154463
  0
VERTEX
  5
67e
  8
Layer_0
  10
30.039742
  20
8.9708271
  0
VERTEX
  5
67f
  8
Layer_0
  10
30.059048
  20
9.0257034
  0
VERTEX
  5
680
  8
Layer_0
  10
30.079813
  20
9.0800467
  0
VERTEX
  5
681
  8
Layer_0
  10
30.102026
  20
9.1338272
  0
VERTEX
  5
682
  8
Layer_0
  10
30.136364
  20
9.2133389
  0
VERTEX
  5
683
  8
Layer_0
  10
30.172274
  20
9.2921438
  0
VERTEX
  5
684
  8
Layer_0
  10
30.209734
  20
9.3702259
  0
VERTEX
  5
685
  8
Layer_0
  10
30.248741
  20
9.4475574
  0
VERTEX
  5
686
  8
Layer_0
  10
30.285791
  20
9.5161047
  0
VERTEX
  5
687
  8
Layer_0
  10
30.32502
  20
9.5834303
  0
VERTEX
  5
688
  8
Layer_0
  10
30.344326
  20
9.6163387
  0
VERTEX
  5
689
  8
Layer_0
  10
30.362659
  20
9.6497908
  0
VERTEX
  5
68a
  8
Layer_0
  10
30.380016
  20
9.6837587
  0
VERTEX
  5
68b
  8
Layer_0
  10
30.396378
  20
9.7182264
  0
VERTEX
  5
68c
  8
Layer_0
  10
30.405451
  20
9.7391996
  0
VERTEX
  5
68d
  8
Layer_0
  10
30.413504
  20
9.7605667
  0
VERTEX
  5
68e
  8
Layer_0
  10
30.42053
  20
9.782299
  0
VERTEX
  5
68f
  8
Layer_0
  10
30.426521
  20
9.8043489
  0
VERTEX
  5
690
  8
Layer_0
  10
30.430058
  20
9.8215733
  0
VERTEX
  5
691
  8
Layer_0
  10
30.433035
  20
9.8437433
  0
VERTEX
  5
692
  8
Layer_0
  10
30.43392
  20
9.8660469
  0
VERTEX
  5
693
  8
Layer_0
  10
30.43272
  20
9.8883343
  0
VERTEX
  5
694
  8
Layer_0
  10
30.429443
  20
9.9104633
  0
VERTEX
  5
695
  8
Layer_0
  10
30.427042
  20
9.9199572
  0
VERTEX
  5
696
  8
Layer_0
  10
30.424368
  20
9.9293795
  0
VERTEX
  5
697
  8
Layer_0
  10
30.419394
  20
9.9428892
  0
VERTEX
  5
698
  8
Layer_0
  10
30.413481
  20
9.9559517
  0
VERTEX
  5
699
  8
Layer_0
  10
30.406662
  20
9.9685259
  0
VERTEX
  5
69a
  8
Layer_0
  10
30.398973
  20
9.9805651
  0
VERTEX
  5
69b
  8
Layer_0
  10
30.390438
  20
9.9920197
  0
VERTEX
  5
69c
  8
Layer_0
  10
30.38109
  20
10.002843
  0
VERTEX
  5
69d
  8
Layer_0
  10
30.370962
  20
10.012993
  0
VERTEX
  5
69e
  8
Layer_0
  10
30.360085
  20
10.022422
  0
VERTEX
  5
69f
  8
Layer_0
  10
30.3409
  20
10.036888
  0
VERTEX
  5
6a0
  8
Layer_0
  10
30.320738
  20
10.049888
  0
VERTEX
  5
6a1
  8
Layer_0
  10
30.299679
  20
10.061384
  0
VERTEX
  5
6a2
  8
Layer_0
  10
30.277807
  20
10.071327
  0
VERTEX
  5
6a3
  8
Layer_0
  10
30.235964
  20
10.087729
  0
VERTEX
  5
6a4
  8
Layer_0
  10
30.193222
  20
10.101624
  0
VERTEX
  5
6a5
  8
Layer_0
  10
30.152094
  20
10.113544
  0
VERTEX
  5
6a6
  8
Layer_0
  10
30.11063
  20
10.124211
  0
VERTEX
  5
6a7
  8
Layer_0
  10
30.068865
  20
10.133621
  0
VERTEX
  5
6a8
  8
Layer_0
  10
30.026823
  20
10.141763
  0
VERTEX
  5
6a9
  8
Layer_0
  10
29.998096
  20
10.146092
  0
VERTEX
  5
6aa
  8
Layer_0
  10
29.969213
  20
10.149005
  0
VERTEX
  5
6ab
  8
Layer_0
  10
29.940222
  20
10.150485
  0
VERTEX
  5
6ac
  8
Layer_0
  10
29.911173
  20
10.150529
  0
VERTEX
  5
6ad
  8
Layer_0
  10
29.883856
  20
10.148839
  0
VERTEX
  5
6ae
  8
Layer_0
  10
29.856731
  20
10.145146
  0
VERTEX
  5
6af
  8
Layer_0
  10
29.840746
  20
10.142253
  0
VERTEX
  5
6b0
  8
Layer_0
  10
29.824898
  20
10.138687
  0
VERTEX
  5
6b1
  8
Layer_0
  10
29.82136
  20
10.137764
  0
VERTEX
  5
6b2
  8
Layer_0
  10
29.805798
  20
10.133338
  0
VERTEX
  5
6b3
  8
Layer_0
  10
29.790447
  20
10.128229
  0
VERTEX
  5
6b4
  8
Layer_0
  10
29.774179
  20
10.12207
  0
VERTEX
  5
6b5
  8
Layer_0
  10
29.758152
  20
10.115311
  0
VERTEX
  5
6b6
  8
Layer_0
  10
29.73617
  20
10.104512
  0
VERTEX
  5
6b7
  8
Layer_0
  10
29.71463
  20
10.092857
  0
VERTEX
  5
6b8
  8
Layer_0
  10
29.687241
  20
10.075396
  0
VERTEX
  5
6b9
  8
Layer_0
  10
29.660631
  20
10.056794
  0
VERTEX
  5
6ba
  8
Layer_0
  10
29.634838
  20
10.037078
  0
VERTEX
  5
6bb
  8
Layer_0
  10
29.6099
  20
10.016271
  0
VERTEX
  5
6bc
  8
Layer_0
  10
29.584156
  20
9.9955473
  0
VERTEX
  5
6bd
  8
Layer_0
  10
29.557302
  20
9.976285
  0
VERTEX
  5
6be
  8
Layer_0
  10
29.533606
  20
9.9606686
  0
VERTEX
  5
6bf
  8
Layer_0
  10
29.509445
  20
9.9457922
  0
VERTEX
  5
6c0
  8
Layer_0
  10
29.48484
  20
9.9316673
  0
VERTEX
  5
6c1
  8
Layer_0
  10
29.459801
  20
9.9183064
  0
VERTEX
  5
6c2
  8
Layer_0
  10
29.430475
  20
9.9039946
  0
VERTEX
  5
6c3
  8
Layer_0
  10
29.400438
  20
9.8912401
  0
VERTEX
  5
6c4
  8
Layer_0
  10
29.36302
  20
9.879261
  0
VERTEX
  5
6c5
  8
Layer_0
  10
29.324928
  20
9.8696327
  0
VERTEX
  5
6c6
  8
Layer_0
  10
29.311338
  20
9.8665857
  0
VERTEX
  5
6c7
  8
Layer_0
  10
29.297554
  20
9.8646345
  0
VERTEX
  5
6c8
  8
Layer_0
  10
29.296015
  20
9.8661718
  0
VERTEX
  5
6c9
  8
Layer_0
  10
29.292313
  20
9.8704834
  0
VERTEX
  5
6ca
  8
Layer_0
  10
29.288788
  20
9.874938
  0
VERTEX
  5
6cb
  8
Layer_0
  10
29.286089
  20
9.8791504
  0
VERTEX
  5
6cc
  8
Layer_0
  10
29.283712
  20
9.8835506
  0
VERTEX
  5
6cd
  8
Layer_0
  10
29.2826
  20
9.8888054
  0
VERTEX
  5
6ce
  8
Layer_0
  10
29.282175
  20
9.8941622
  0
VERTEX
  5
6cf
  8
Layer_0
  10
29.28315
  20
9.9011469
  0
VERTEX
  5
6d0
  8
Layer_0
  10
29.284788
  20
9.9080029
  0
VERTEX
  5
6d1
  8
Layer_0
  10
29.291748
  20
9.9263468
  0
VERTEX
  5
6d2
  8
Layer_0
  10
29.300936
  20
9.9436817
  0
VERTEX
  5
6d3
  8
Layer_0
  10
29.312542
  20
9.9622068
  0
VERTEX
  5
6d4
  8
Layer_0
  10
29.324986
  20
9.9801664
  0
VERTEX
  5
6d5
  8
Layer_0
  10
29.338245
  20
9.99753
  0
VERTEX
  5
6d6
  8
Layer_0
  10
29.352303
  20
10.014272
  0
VERTEX
  5
6d7
  8
Layer_0
  10
29.376839
  20
10.041559
  0
VERTEX
  5
6d8
  8
Layer_0
  10
29.402073
  20
10.068193
  0
VERTEX
  5
6d9
  8
Layer_0
  10
29.427988
  20
10.094165
  0
VERTEX
  5
6da
  8
Layer_0
  10
29.454573
  20
10.119463
  0
VERTEX
  5
6db
  8
Layer_0
  10
29.496096
  20
10.157757
  0
VERTEX
  5
6dc
  8
Layer_0
  10
29.497019
  20
10.158372
  0
VERTEX
  5
6dd
  8
Layer_0
  10
29.520548
  20
10.180517
  0
VERTEX
  5
6de
  8
Layer_0
  10
29.532789
  20
10.192427
  0
VERTEX
  5
6df
  8
Layer_0
  10
29.545155
  20
10.204201
  0
VERTEX
  5
6e0
  8
Layer_0
  10
29.545769
  20
10.20497
  0
VERTEX
  5
6e1
  8
Layer_0
  10
29.569607
  20
10.228346
  0
VERTEX
  5
6e2
  8
Layer_0
  10
29.570375
  20
10.228961
  0
VERTEX
  5
6e3
  8
Layer_0
  10
29.619474
  20
10.278064
  0
VERTEX
  5
6e4
  8
Layer_0
  10
29.667725
  20
10.328002
  0
VERTEX
  5
6e5
  8
Layer_0
  10
29.668493
  20
10.328924
  0
VERTEX
  5
6e6
  8
Layer_0
  10
29.71586
  20
10.379213
  0
VERTEX
  5
6e7
  8
Layer_0
  10
29.716936
  20
10.38029
  0
VERTEX
  5
6e8
  8
Layer_0
  10
29.763227
  20
10.430886
  0
VERTEX
  5
6e9
  8
Layer_0
  10
29.81197
  20
10.485598
  0
VERTEX
  5
6ea
  8
Layer_0
  10
29.858803
  20
10.540087
  0
VERTEX
  5
6eb
  8
Layer_0
  10
29.904642
  20
10.595415
  0
VERTEX
  5
6ec
  8
Layer_0
  10
29.949467
  20
10.651574
  0
VERTEX
  5
6ed
  8
Layer_0
  10
29.95039
  20
10.652959
  0
VERTEX
  5
6ee
  8
Layer_0
  10
29.966537
  20
10.674182
  0
VERTEX
  5
6ef
  8
Layer_0
  10
29.967306
  20
10.675104
  0
VERTEX
  5
6f0
  8
Layer_0
  10
30.003496
  20
10.724451
  0
VERTEX
  5
6f1
  8
Layer_0
  10
30.037434
  20
10.775375
  0
VERTEX
  5
6f2
  8
Layer_0
  10
30.047585
  20
10.791801
  0
VERTEX
  5
6f3
  8
Layer_0
  10
30.056955
  20
10.808675
  0
VERTEX
  5
6f4
  8
Layer_0
  10
30.065525
  20
10.82597
  0
VERTEX
  5
6f5
  8
Layer_0
  10
30.073267
  20
10.843657
  0
VERTEX
  5
6f6
  8
Layer_0
  10
30.080355
  20
10.864457
  0
VERTEX
  5
6f7
  8
Layer_0
  10
30.085377
  20
10.885697
  0
VERTEX
  5
6f8
  8
Layer_0
  10
30.088335
  20
10.907223
  0
VERTEX
  5
6f9
  8
Layer_0
  10
30.08923
  20
10.928885
  0
VERTEX
  5
6fa
  8
Layer_0
  10
30.088062
  20
10.950534
  0
VERTEX
  5
6fb
  8
Layer_0
  10
30.084831
  20
10.972018
  0
VERTEX
  5
6fc
  8
Layer_0
  10
30.07954
  20
10.993194
  0
VERTEX
  5
6fd
  8
Layer_0
  10
30.072189
  20
11.013903
  0
VERTEX
  5
6fe
  8
Layer_0
  10
30.06035
  20
11.038023
  0
VERTEX
  5
6ff
  8
Layer_0
  10
30.046041
  20
11.060674
  0
VERTEX
  5
700
  8
Layer_0
  10
30.029388
  20
11.081663
  0
VERTEX
  5
701
  8
Layer_0
  10
30.010521
  20
11.100793
  0
VERTEX
  5
702
  8
Layer_0
  10
29.986376
  20
11.120692
  0
VERTEX
  5
703
  8
Layer_0
  10
29.960676
  20
11.138433
  0
VERTEX
  5
704
  8
Layer_0
  10
29.933563
  20
11.153925
  0
VERTEX
  5
705
  8
Layer_0
  10
29.905174
  20
11.167076
  0
VERTEX
  5
706
  8
Layer_0
  10
29.888565
  20
11.173997
  0
VERTEX
  5
707
  8
Layer_0
  10
29.844961
  20
11.188434
  0
VERTEX
  5
708
  8
Layer_0
  10
29.800543
  20
11.199932
  0
VERTEX
  5
709
  8
Layer_0
  10
29.755461
  20
11.20846
  0
VERTEX
  5
70a
  8
Layer_0
  10
29.709862
  20
11.213983
  0
VERTEX
  5
70b
  8
Layer_0
  10
29.651194
  20
11.218428
  0
VERTEX
  5
70c
  8
Layer_0
  10
29.592415
  20
11.219728
  0
VERTEX
  5
70d
  8
Layer_0
  10
29.533651
  20
11.217887
  0
VERTEX
  5
70e
  8
Layer_0
  10
29.475025
  20
11.212906
  0
VERTEX
  5
70f
  8
Layer_0
  10
29.418926
  20
11.204682
  0
VERTEX
  5
710
  8
Layer_0
  10
29.363668
  20
11.192826
  0
VERTEX
  5
711
  8
Layer_0
  10
29.309422
  20
11.177404
  0
VERTEX
  5
712
  8
Layer_0
  10
29.256357
  20
11.158479
  0
VERTEX
  5
713
  8
Layer_0
  10
29.204645
  20
11.136122
  0
VERTEX
  5
714
  8
Layer_0
  10
29.154457
  20
11.110398
  0
VERTEX
  5
715
  8
Layer_0
  10
29.105963
  20
11.081377
  0
VERTEX
  5
716
  8
Layer_0
  10
29.059334
  20
11.04912
  0
VERTEX
  5
717
  8
Layer_0
  10
29.023954
  20
11.022062
  0
VERTEX
  5
718
  8
Layer_0
  10
28.989681
  20
10.993646
  0
VERTEX
  5
719
  8
Layer_0
  10
28.956554
  20
10.963897
  0
VERTEX
  5
71a
  8
Layer_0
  10
28.924614
  20
10.932856
  0
VERTEX
  5
71b
  8
Layer_0
  10
28.902815
  20
10.91082
  0
VERTEX
  5
71c
  8
Layer_0
  10
28.881674
  20
10.888163
  0
VERTEX
  5
71d
  8
Layer_0
  10
28.861204
  20
10.864897
  0
VERTEX
  5
71e
  8
Layer_0
  10
28.841413
  20
10.841043
  0
VERTEX
  5
71f
  8
Layer_0
  10
28.813679
  20
10.802898
  0
VERTEX
  5
720
  8
Layer_0
  10
28.788691
  20
10.762963
  0
VERTEX
  5
721
  8
Layer_0
  10
28.766535
  20
10.721393
  0
VERTEX
  5
722
  8
Layer_0
  10
28.747295
  20
10.678334
  0
VERTEX
  5
723
  8
Layer_0
  10
28.733656
  20
10.64424
  0
VERTEX
  5
724
  8
Layer_0
  10
28.720877
  20
10.609825
  0
VERTEX
  5
725
  8
Layer_0
  10
28.708965
  20
10.575098
  0
VERTEX
  5
726
  8
Layer_0
  10
28.697927
  20
10.540077
  0
VERTEX
  5
727
  8
Layer_0
  10
28.673424
  20
10.45921
  0
VERTEX
  5
728
  8
Layer_0
  10
28.650156
  20
10.377983
  0
VERTEX
  5
729
  8
Layer_0
  10
28.62813
  20
10.29641
  0
VERTEX
  5
72a
  8
Layer_0
  10
28.607346
  20
10.214505
  0
VERTEX
  5
72b
  8
Layer_0
  10
28.598827
  20
10.178096
  0
VERTEX
  5
72c
  8
Layer_0
  10
28.591347
  20
10.141465
  0
VERTEX
  5
72d
  8
Layer_0
  10
28.584908
  20
10.104639
  0
VERTEX
  5
72e
  8
Layer_0
  10
28.57951
  20
10.067636
  0
VERTEX
  5
72f
  8
Layer_0
  10
28.576593
  20
10.040819
  0
VERTEX
  5
730
  8
Layer_0
  10
28.57506
  20
10.013899
  0
VERTEX
  5
731
  8
Layer_0
  10
28.574909
  20
9.9869356
  0
VERTEX
  5
732
  8
Layer_0
  10
28.576128
  20
9.9599838
  0
VERTEX
  5
733
  8
Layer_0
  10
28.580748
  20
9.9250641
  0
VERTEX
  5
734
  8
Layer_0
  10
28.588987
  20
9.890913
  0
VERTEX
  5
735
  8
Layer_0
  10
28.600756
  20
9.85781
  0
VERTEX
  5
736
  8
Layer_0
  10
28.615959
  20
9.8260336
  0
VERTEX
  5
737
  8
Layer_0
  10
28.620188
  20
9.8176031
  0
VERTEX
  5
738
  8
Layer_0
  10
28.623955
  20
9.8089628
  0
VERTEX
  5
739
  8
Layer_0
  10
28.608099
  20
9.7881365
  0
VERTEX
  5
73a
  8
Layer_0
  10
28.590429
  20
9.7688236
  0
VERTEX
  5
73b
  8
Layer_0
  10
28.542246
  20
9.7210121
  0
VERTEX
  5
73c
  8
Layer_0
  10
28.492466
  20
9.6748581
  0
VERTEX
  5
73d
  8
Layer_0
  10
28.41239
  20
9.6023512
  0
VERTEX
  5
73e
  8
Layer_0
  10
28.331795
  20
9.5304308
  0
VERTEX
  5
73f
  8
Layer_0
  10
28.250681
  20
9.4590969
  0
VERTEX
  5
740
  8
Layer_0
  10
28.169046
  20
9.3883486
  0
VERTEX
  5
741
  8
Layer_0
  10
28.057678
  20
9.2949982
  0
VERTEX
  5
742
  8
Layer_0
  10
27.944683
  20
9.2036476
  0
VERTEX
  5
743
  8
Layer_0
  10
27.830082
  20
9.114315
  0
VERTEX
  5
744
  8
Layer_0
  10
27.713907
  20
9.0270205
  0
VERTEX
  5
745
  8
Layer_0
  10
27.644033
  20
8.9767866
  0
VERTEX
  5
746
  8
Layer_0
  10
27.573454
  20
8.9275475
  0
VERTEX
  5
747
  8
Layer_0
  10
27.502188
  20
8.8793154
  0
VERTEX
  5
748
  8
Layer_0
  10
27.430243
  20
8.8320923
  0
VERTEX
  5
749
  8
Layer_0
  10
27.342438
  20
8.7767239
  0
VERTEX
  5
74a
  8
Layer_0
  10
27.253212
  20
8.7237091
  0
VERTEX
  5
74b
  8
Layer_0
  10
27.162611
  20
8.6730785
  0
VERTEX
  5
74c
  8
Layer_0
  10
27.070683
  20
8.6248608
  0
VERTEX
  5
74d
  8
Layer_0
  10
27.006498
  20
8.5931711
  0
VERTEX
  5
74e
  8
Layer_0
  10
26.94137
  20
8.5635109
  0
VERTEX
  5
74f
  8
Layer_0
  10
26.875343
  20
8.5359039
  0
VERTEX
  5
750
  8
Layer_0
  10
26.808472
  20
8.5103655
  0
VERTEX
  5
751
  8
Layer_0
  10
26.764404
  20
8.4950151
  0
VERTEX
  5
752
  8
Layer_0
  10
26.719885
  20
8.4810734
  0
VERTEX
  5
753
  8
Layer_0
  10
26.674944
  20
8.4685488
  0
VERTEX
  5
754
  8
Layer_0
  10
26.629616
  20
8.4574614
  0
VERTEX
  5
755
  8
Layer_0
  10
26.592386
  20
8.4497118
  0
VERTEX
  5
756
  8
Layer_0
  10
26.554873
  20
8.4435921
  0
VERTEX
  5
757
  8
Layer_0
  10
26.51713
  20
8.4391003
  0
VERTEX
  5
758
  8
Layer_0
  10
26.47921
  20
8.4362383
  0
VERTEX
  5
759
  8
Layer_0
  10
26.452383
  20
8.435585
  0
VERTEX
  5
75a
  8
Layer_0
  10
26.42557
  20
8.4362144
  0
VERTEX
  5
75b
  8
Layer_0
  10
26.398819
  20
8.4381275
  0
VERTEX
  5
75c
  8
Layer_0
  10
26.372171
  20
8.4413137
  0
VERTEX
  5
75d
  8
Layer_0
  10
26.350714
  20
8.4462156
  0
VERTEX
  5
75e
  8
Layer_0
  10
26.330004
  20
8.4534674
  0
VERTEX
  5
75f
  8
Layer_0
  10
26.310232
  20
8.4629879
  0
VERTEX
  5
760
  8
Layer_0
  10
26.291586
  20
8.4746857
  0
VERTEX
  5
761
  8
Layer_0
  10
26.280958
  20
8.4825239
  0
VERTEX
  5
762
  8
Layer_0
  10
26.270824
  20
8.4909878
  0
VERTEX
  5
763
  8
Layer_0
  10
26.254061
  20
8.5072889
  0
VERTEX
  5
764
  8
Layer_0
  10
26.242065
  20
8.5209761
  0
VERTEX
  5
765
  8
Layer_0
  10
26.228987
  20
8.5392265
  0
VERTEX
  5
766
  8
Layer_0
  10
26.217459
  20
8.5585012
  0
VERTEX
  5
767
  8
Layer_0
  10
26.20705
  20
8.5806761
  0
VERTEX
  5
768
  8
Layer_0
  10
26.199739
  20
8.6039457
  0
VERTEX
  5
769
  8
Layer_0
  10
26.195601
  20
8.6279831
  0
VERTEX
  5
76a
  8
Layer_0
  10
26.194698
  20
8.6524668
  0
VERTEX
  5
76b
  8
Layer_0
  10
26.198328
  20
8.6866121
  0
VERTEX
  5
76c
  8
Layer_0
  10
26.204233
  20
8.7204409
  0
VERTEX
  5
76d
  8
Layer_0
  10
26.208252
  20
8.7347298
  0
VERTEX
  5
76e
  8
Layer_0
  10
26.213923
  20
8.7484312
  0
VERTEX
  5
76f
  8
Layer_0
  10
26.218075
  20
8.7559671
  0
VERTEX
  5
770
  8
Layer_0
  10
26.224897
  20
8.7649918
  0
VERTEX
  5
771
  8
Layer_0
  10
26.232615
  20
8.7732248
  0
VERTEX
  5
772
  8
Layer_0
  10
26.241138
  20
8.780633
  0
VERTEX
  5
773
  8
Layer_0
  10
26.25037
  20
8.7871857
  0
VERTEX
  5
774
  8
Layer_0
  10
26.258368
  20
8.7922611
  0
VERTEX
  5
775
  8
Layer_0
  10
26.279028
  20
8.8032351
  0
VERTEX
  5
776
  8
Layer_0
  10
26.300352
  20
8.8128691
  0
VERTEX
  5
777
  8
Layer_0
  10
26.358593
  20
8.8355169
  0
VERTEX
  5
778
  8
Layer_0
  10
26.373863
  20
8.8420887
  0
VERTEX
  5
779
  8
Layer_0
  10
26.421566
  20
8.8634005
  0
VERTEX
  5
77a
  8
Layer_0
  10
26.468655
  20
8.8860216
  0
VERTEX
  5
77b
  8
Layer_0
  10
26.5151
  20
8.909936
  0
VERTEX
  5
77c
  8
Layer_0
  10
26.560871
  20
8.9351311
  0
VERTEX
  5
77d
  8
Layer_0
  10
26.62079
  20
8.9705582
  0
VERTEX
  5
77e
  8
Layer_0
  10
26.67975
  20
9.0075665
  0
VERTEX
  5
77f
  8
Layer_0
  10
26.711205
  20
9.0285149
  0
VERTEX
  5
780
  8
Layer_0
  10
26.742496
  20
9.0497046
  0
VERTEX
  5
781
  8
Layer_0
  10
26.786802
  20
9.0811253
  0
VERTEX
  5
782
  8
Layer_0
  10
26.830492
  20
9.1133928
  0
VERTEX
  5
783
  8
Layer_0
  10
26.873554
  20
9.1464958
  0
VERTEX
  5
784
  8
Layer_0
  10
26.915972
  20
9.1804256
  0
VERTEX
  5
785
  8
Layer_0
  10
26.917662
  20
9.181963
  0
VERTEX
  5
786
  8
Layer_0
  10
26.973246
  20
9.2283068
  0
VERTEX
  5
787
  8
Layer_0
  10
27.027651
  20
9.2760153
  0
VERTEX
  5
788
  8
Layer_0
  10
27.080847
  20
9.3250647
  0
VERTEX
  5
789
  8
Layer_0
  10
27.132814
  20
9.3754301
  0
VERTEX
  5
78a
  8
Layer_0
  10
27.134506
  20
9.3772755
  0
VERTEX
  5
78b
  8
Layer_0
  10
27.183294
  20
9.42694
  0
VERTEX
  5
78c
  8
Layer_0
  10
27.230778
  20
9.4778538
  0
VERTEX
  5
78d
  8
Layer_0
  10
27.253485
  20
9.5039597
  0
VERTEX
  5
78e
  8
Layer_0
  10
27.276453
  20
9.5298347
  0
VERTEX
  5
78f
  8
Layer_0
  10
27.278299
  20
9.5318336
  0
VERTEX
  5
790
  8
Layer_0
  10
27.310579
  20
9.5702982
  0
VERTEX
  5
791
  8
Layer_0
  10
27.341967
  20
9.609498
  0
VERTEX
  5
792
  8
Layer_0
  10
27.361038
  20
9.6342573
  0
VERTEX
  5
793
  8
Layer_0
  10
27.397894
  20
9.6842299
  0
VERTEX
  5
794
  8
Layer_0
  10
27.432758
  20
9.7355814
  0
VERTEX
  5
795
  8
Layer_0
  10
27.465597
  20
9.7882519
  0
VERTEX
  5
796
  8
Layer_0
  10
27.496372
  20
9.8421812
  0
VERTEX
  5
797
  8
Layer_0
  10
27.51524
  20
9.8788719
  0
VERTEX
  5
798
  8
Layer_0
  10
27.532413
  20
9.9163628
  0
VERTEX
  5
799
  8
Layer_0
  10
27.547867
  20
9.9545965
  0
VERTEX
  5
79a
  8
Layer_0
  10
27.561579
  20
9.9935093
  0
VERTEX
  5
79b
  8
Layer_0
  10
27.570475
  20
10.024017
  0
VERTEX
  5
79c
  8
Layer_0
  10
27.577501
  20
10.05498
  0
VERTEX
  5
79d
  8
Layer_0
  10
27.582644
  20
10.086312
  0
VERTEX
  5
79e
  8
Layer_0
  10
27.585876
  20
10.117926
  0
VERTEX
  5
79f
  8
Layer_0
  10
27.586639
  20
10.142721
  0
VERTEX
  5
7a0
  8
Layer_0
  10
27.585661
  20
10.16748
  0
VERTEX
  5
7a1
  8
Layer_0
  10
27.582949
  20
10.192104
  0
VERTEX
  5
7a2
  8
Layer_0
  10
27.578495
  20
10.216504
  0
VERTEX
  5
7a3
  8
Layer_0
  10
27.573833
  20
10.234459
  0
VERTEX
  5
7a4
  8
Layer_0
  10
27.56798
  20
10.252044
  0
VERTEX
  5
7a5
  8
Layer_0
  10
27.560966
  20
10.269197
  0
VERTEX
  5
7a6
  8
Layer_0
  10
27.552813
  20
10.285863
  0
VERTEX
  5
7a7
  8
Layer_0
  10
27.545143
  20
10.299847
  0
VERTEX
  5
7a8
  8
Layer_0
  10
27.536972
  20
10.313545
  0
VERTEX
  5
7a9
  8
Layer_0
  10
27.527983
  20
10.326723
  0
VERTEX
  5
7aa
  8
Layer_0
  10
27.520208
  20
10.338459
  0
VERTEX
  5
7ab
  8
Layer_0
  10
27.508997
  20
10.352728
  0
VERTEX
  5
7ac
  8
Layer_0
  10
27.497295
  20
10.366603
  0
VERTEX
  5
7ad
  8
Layer_0
  10
27.49468
  20
10.369371
  0
VERTEX
  5
7ae
  8
Layer_0
  10
27.475456
  20
10.388748
  0
VERTEX
  5
7af
  8
Layer_0
  10
27.447712
  20
10.411445
  0
VERTEX
  5
7b0
  8
Layer_0
  10
27.417969
  20
10.431297
  0
VERTEX
  5
7b1
  8
Layer_0
  10
27.386438
  20
10.448176
  0
VERTEX
  5
7b2
  8
Layer_0
  10
27.353348
  20
10.461952
  0
VERTEX
  5
7b3
  8
Layer_0
  10
27.322803
  20
10.471925
  0
VERTEX
  5
7b4
  8
Layer_0
  10
27.291792
  20
10.480236
  0
VERTEX
  5
7b5
  8
Layer_0
  10
27.260374
  20
10.486864
  0
VERTEX
  5
7b6
  8
Layer_0
  10
27.228624
  20
10.491787
  0
VERTEX
  5
7b7
  8
Layer_0
  10
27.189922
  20
10.496118
  0
VERTEX
  5
7b8
  8
Layer_0
  10
27.151117
  20
10.499227
  0
VERTEX
  5
7b9
  8
Layer_0
  10
27.11223
  20
10.501118
  0
VERTEX
  5
7ba
  8
Layer_0
  10
27.073298
  20
10.501783
  0
VERTEX
  5
7bb
  8
Layer_0
  10
27.023516
  20
10.501807
  0
VERTEX
  5
7bc
  8
Layer_0
  10
26.973795
  20
10.499323
  0
VERTEX
  5
7bd
  8
Layer_0
  10
26.934132
  20
10.494824
  0
VERTEX
  5
7be
  8
Layer_0
  10
26.89469
  20
10.48881
  0
VERTEX
  5
7bf
  8
Layer_0
  10
26.855503
  20
10.481284
  0
VERTEX
  5
7c0
  8
Layer_0
  10
26.816624
  20
10.472256
  0
VERTEX
  5
7c1
  8
Layer_0
  10
26.749098
  20
10.453208
  0
VERTEX
  5
7c2
  8
Layer_0
  10
26.682514
  20
10.431202
  0
VERTEX
  5
7c3
  8
Layer_0
  10
26.616974
  20
10.406268
  0
VERTEX
  5
7c4
  8
Layer_0
  10
26.552567
  20
10.378445
  0
VERTEX
  5
7c5
  8
Layer_0
  10
26.523346
  20
10.364911
  0
VERTEX
  5
7c6
  8
Layer_0
  10
26.507847
  20
10.357308
  0
VERTEX
  5
7c7
  8
Layer_0
  10
26.492281
  20
10.34984
  0
VERTEX
  5
7c8
  8
Layer_0
  10
26.476479
  20
10.342146
  0
VERTEX
  5
7c9
  8
Layer_0
  10
26.460909
  20
10.334
  0
VERTEX
  5
7ca
  8
Layer_0
  10
26.383806
  20
10.291876
  0
VERTEX
  5
7cb
  8
Layer_0
  10
26.308632
  20
10.24662
  0
VERTEX
  5
7cc
  8
Layer_0
  10
26.235481
  20
10.198304
  0
VERTEX
  5
7cd
  8
Layer_0
  10
26.164446
  20
10.146996
  0
VERTEX
  5
7ce
  8
Layer_0
  10
26.095613
  20
10.092767
  0
VERTEX
  5
7cf
  8
Layer_0
  10
26.029078
  20
10.035682
  0
VERTEX
  5
7d0
  8
Layer_0
  10
25.964933
  20
9.9758148
  0
VERTEX
  5
7d1
  8
Layer_0
  10
25.903267
  20
9.9132318
  0
VERTEX
  5
7d2
  8
Layer_0
  10
25.87451
  20
9.8818588
  0
VERTEX
  5
7d3
  8
Layer_0
  10
25.873432
  20
9.8807821
  0
VERTEX
  5
7d4
  8
Layer_0
  10
25.846674
  20
9.8506393
  0
VERTEX
  5
7d5
  8
Layer_0
  10
25.810879
  20
9.8082323
  0
VERTEX
  5
7d6
  8
Layer_0
  10
25.776356
  20
9.7648296
  0
VERTEX
  5
7d7
  8
Layer_0
  10
25.743128
  20
9.7204542
  0
VERTEX
  5
7d8
  8
Layer_0
  10
25.711212
  20
9.6751413
  0
VERTEX
  5
7d9
  8
Layer_0
  10
25.68063
  20
9.6289186
  0
VERTEX
  5
7da
  8
Layer_0
  10
25.6514
  20
9.5818157
  0
VERTEX
  5
7db
  8
Layer_0
  10
25.623539
  20
9.5338602
  0
VERTEX
  5
7dc
  8
Layer_0
  10
25.597073
  20
9.4850817
  0
VERTEX
  5
7dd
  8
Layer_0
  10
25.560783
  20
9.4114189
  0
VERTEX
  5
7de
  8
Layer_0
  10
25.527918
  20
9.336216
  0
VERTEX
  5
7df
  8
Layer_0
  10
25.498528
  20
9.2595911
  0
VERTEX
  5
7e0
  8
Layer_0
  10
25.472658
  20
9.1816559
  0
VERTEX
  5
7e1
  8
Layer_0
  10
25.459892
  20
9.137826
  0
VERTEX
  5
7e2
  8
Layer_0
  10
25.459124
  20
9.1353655
  0
VERTEX
  5
7e3
  8
Layer_0
  10
25.447283
  20
9.0906124
  0
VERTEX
  5
7e4
  8
Layer_0
  10
25.441494
  20
9.06672
  0
VERTEX
  5
7e5
  8
Layer_0
  10
25.435902
  20
9.0427837
  0
VERTEX
  5
7e6
  8
Layer_0
  10
25.425636
  20
8.9920645
  0
VERTEX
  5
7e7
  8
Layer_0
  10
25.416525
  20
8.9411287
  0
VERTEX
  5
7e8
  8
Layer_0
  10
25.411449
  20
8.906373
  0
VERTEX
  5
7e9
  8
Layer_0
  10
25.273664
  20
8.8627157
  0
VERTEX
  5
7ea
  8
Layer_0
  10
25.135551
  20
8.820097
  0
VERTEX
  5
7eb
  8
Layer_0
  10
25.079592
  20
8.8032713
  0
VERTEX
  5
7ec
  8
Layer_0
  10
25.023407
  20
8.7872152
  0
VERTEX
  5
7ed
  8
Layer_0
  10
24.967012
  20
8.7719364
  0
VERTEX
  5
7ee
  8
Layer_0
  10
24.910404
  20
8.7574272
  0
VERTEX
  5
7ef
  8
Layer_0
  10
24.854742
  20
8.7444181
  0
VERTEX
  5
7f0
  8
Layer_0
  10
24.798914
  20
8.7321434
  0
VERTEX
  5
7f1
  8
Layer_0
  10
24.742929
  20
8.7206144
  0
VERTEX
  5
7f2
  8
Layer_0
  10
24.686794
  20
8.7098303
  0
VERTEX
  5
7f3
  8
Layer_0
  10
24.580532
  20
8.6903419
  0
VERTEX
  5
7f4
  8
Layer_0
  10
24.474104
  20
8.6717672
  0
VERTEX
  5
7f5
  8
Layer_0
  10
24.406435
  20
8.6618471
  0
VERTEX
  5
7f6
  8
Layer_0
  10
24.359631
  20
8.6567869
  0
VERTEX
  5
7f7
  8
Layer_0
  10
24.312624
  20
8.6541576
  0
VERTEX
  5
7f8
  8
Layer_0
  10
24.306396
  20
8.6542521
  0
VERTEX
  5
7f9
  8
Layer_0
  10
24.300167
  20
8.6544657
  0
VERTEX
  5
7fa
  8
Layer_0
  10
24.308418
  20
8.690505
  0
VERTEX
  5
7fb
  8
Layer_0
  10
24.318853
  20
8.7259779
  0
VERTEX
  5
7fc
  8
Layer_0
  10
24.34164
  20
8.7968025
  0
VERTEX
  5
7fd
  8
Layer_0
  10
24.366297
  20
8.8670025
  0
VERTEX
  5
7fe
  8
Layer_0
  10
24.390211
  20
8.9337473
  0
VERTEX
  5
7ff
  8
Layer_0
  10
24.555689
  20
9.3891172
  0
VERTEX
  5
800
  8
Layer_0
  10
24.592548
  20
9.4914646
  0
VERTEX
  5
801
  8
Layer_0
  10
24.629276
  20
9.593811
  0
VERTEX
  5
802
  8
Layer_0
  10
24.629431
  20
9.5944262
  0
VERTEX
  5
803
  8
Layer_0
  10
24.649178
  20
9.6501265
  0
VERTEX
  5
804
  8
Layer_0
  10
24.668646
  20
9.705924
  0
VERTEX
  5
805
  8
Layer_0
  10
24.6688
  20
9.7065392
  0
VERTEX
  5
806
  8
Layer_0
  10
24.693407
  20
9.7780504
  0
VERTEX
  5
807
  8
Layer_0
  10
24.693714
  20
9.77882
  0
VERTEX
  5
808
  8
Layer_0
  10
24.704166
  20
9.810092
  0
VERTEX
  5
809
  8
Layer_0
  10
24.714476
  20
9.8414125
  0
VERTEX
  5
80a
  8
Layer_0
  10
24.71463
  20
9.8421812
  0
VERTEX
  5
80b
  8
Layer_0
  10
24.737574
  20
9.9154348
  0
VERTEX
  5
80c
  8
Layer_0
  10
24.75769
  20
9.9895115
  0
VERTEX
  5
80d
  8
Layer_0
  10
24.763079
  20
10.01436
  0
VERTEX
  5
80e
  8
Layer_0
  10
24.767841
  20
10.039339
  0
VERTEX
  5
80f
  8
Layer_0
  10
24.770876
  20
10.059623
  0
VERTEX
  5
810
  8
Layer_0
  10
24.772644
  20
10.080033
  0
VERTEX
  5
811
  8
Layer_0
  10
24.773127
  20
10.100512
  0
VERTEX
  5
812
  8
Layer_0
  10
24.772301
  20
10.121001
  0
VERTEX
  5
813
  8
Layer_0
  10
24.768869
  20
10.145804
  0
VERTEX
  5
814
  8
Layer_0
  10
24.762619
  20
10.169964
  0
VERTEX
  5
815
  8
Layer_0
  10
24.753635
  20
10.193249
  0
VERTEX
  5
816
  8
Layer_0
  10
24.742004
  20
10.215427
  0
VERTEX
  5
817
  8
Layer_0
  10
24.7299
  20
10.234267
  0
VERTEX
  5
818
  8
Layer_0
  10
24.717167
  20
10.252679
  0
VERTEX
  5
819
  8
Layer_0
  10
24.703817
  20
10.270653
  0
VERTEX
  5
81a
  8
Layer_0
  10
24.689869
  20
10.28817
  0
VERTEX
  5
81b
  8
Layer_0
  10
24.683805
  20
10.294788
  0
VERTEX
  5
81c
  8
Layer_0
  10
24.677567
  20
10.301242
  0
VERTEX
  5
81d
  8
Layer_0
  10
24.656336
  20
10.32135
  0
VERTEX
  5
81e
  8
Layer_0
  10
24.633938
  20
10.340105
  0
VERTEX
  5
81f
  8
Layer_0
  10
24.610443
  20
10.357462
  0
VERTEX
  5
820
  8
Layer_0
  10
24.585909
  20
10.373369
  0
VERTEX
  5
821
  8
Layer_0
  10
24.559809
  20
10.388397
  0
VERTEX
  5
822
  8
Layer_0
  10
24.533005
  20
10.402128
  0
VERTEX
  5
823
  8
Layer_0
  10
24.498255
  20
10.418113
  0
VERTEX
  5
824
  8
Layer_0
  10
24.462723
  20
10.432271
  0
VERTEX
  5
825
  8
Layer_0
  10
24.458263
  20
10.433963
  0
VERTEX
  5
826
  8
Layer_0
  10
24.418133
  20
10.44752
  0
VERTEX
  5
827
  8
Layer_0
  10
24.377369
  20
10.45903
  0
VERTEX
  5
828
  8
Layer_0
  10
24.356199
  20
10.464326
  0
VERTEX
  5
829
  8
Layer_0
  10
24.334925
  20
10.46918
  0
VERTEX
  5
82a
  8
Layer_0
  10
24.296169
  20
10.476563
  0
VERTEX
  5
82b
  8
Layer_0
  10
24.271896
  20
10.480289
  0
VERTEX
  5
82c
  8
Layer_0
  10
24.247572
  20
10.483637
  0
VERTEX
  5
82d
  8
Layer_0
  10
24.213688
  20
10.487106
  0
VERTEX
  5
82e
  8
Layer_0
  10
24.179716
  20
10.48947
  0
VERTEX
  5
82f
  8
Layer_0
  10
24.145685
  20
10.490723
  0
VERTEX
  5
830
  8
Layer_0
  10
24.111622
  20
10.490865
  0
VERTEX
  5
831
  8
Layer_0
  10
24.093855
  20
10.490163
  0
VERTEX
  5
832
  8
Layer_0
  10
24.076096
  20
10.489326
  0
VERTEX
  5
833
  8
Layer_0
  10
24.058809
  20
10.487635
  0
VERTEX
  5
834
  8
Layer_0
  10
24.041494
  20
10.486251
  0
VERTEX
  5
835
  8
Layer_0
  10
24.012562
  20
10.482512
  0
VERTEX
  5
836
  8
Layer_0
  10
23.98378
  20
10.477802
  0
VERTEX
  5
837
  8
Layer_0
  10
23.955175
  20
10.472121
  0
VERTEX
  5
838
  8
Layer_0
  10
23.926767
  20
10.465489
  0
VERTEX
  5
839
  8
Layer_0
  10
23.877283
  20
10.451413
  0
VERTEX
  5
83a
  8
Layer_0
  10
23.828539
  20
10.435044
  0
VERTEX
  5
83b
  8
Layer_0
  10
23.780619
  20
10.416402
  0
VERTEX
  5
83c
  8
Layer_0
  10
23.730532
  20
10.394131
  0
VERTEX
  5
83d
  8
Layer_0
  10
23.694853
  20
10.376599
  0
VERTEX
  5
83e
  8
Layer_0
  10
23.633881
  20
10.343371
  0
VERTEX
  5
83f
  8
Layer_0
  10
23.574368
  20
10.307655
  0
VERTEX
  5
840
  8
Layer_0
  10
23.516388
  20
10.269504
  0
VERTEX
  5
841
  8
Layer_0
  10
23.460016
  20
10.228961
  0
VERTEX
  5
842
  8
Layer_0
  10
23.458017
  20
10.227577
  0
VERTEX
  5
843
  8
Layer_0
  10
23.420338
  20
10.198818
  0
VERTEX
  5
844
  8
Layer_0
  10
23.357925
  20
10.148107
  0
VERTEX
  5
845
  8
Layer_0
  10
23.297087
  20
10.095549
  0
VERTEX
  5
846
  8
Layer_0
  10
23.237856
  20
10.041187
  0
VERTEX
  5
847
  8
Layer_0
  10
23.180273
  20
9.9850512
  0
VERTEX
  5
848
  8
Layer_0
  10
23.127499
  20
9.9313259
  0
VERTEX
  5
849
  8
Layer_0
  10
23.075859
  20
9.8765192
  0
VERTEX
  5
84a
  8
Layer_0
  10
23.02537
  20
9.8206549
  0
VERTEX
  5
84b
  8
Layer_0
  10
22.976042
  20
9.7637482
  0
VERTEX
  5
84c
  8
Layer_0
  10
22.98942
  20
9.801734
  0
VERTEX
  5
84d
  8
Layer_0
  10
23.149977
  20
10.256028
  0
VERTEX
  5
84e
  8
Layer_0
  10
23.488775
  20
10.546844
  0
VERTEX
  5
84f
  8
Layer_0
  10
23.523993
  20
10.577141
  0
VERTEX
  5
850
  8
Layer_0
  10
23.524607
  20
10.577448
  0
VERTEX
  5
851
  8
Layer_0
  10
23.627493
  20
10.667989
  0
VERTEX
  5
852
  8
Layer_0
  10
23.72934
  20
10.759671
  0
VERTEX
  5
853
  8
Layer_0
  10
23.830149
  20
10.852498
  0
VERTEX
  5
854
  8
Layer_0
  10
23.92992
  20
10.946465
  0
VERTEX
  5
855
  8
Layer_0
  10
24.003613
  20
11.016944
  0
VERTEX
  5
856
  8
Layer_0
  10
24.076866
  20
11.087875
  0
VERTEX
  5
857
  8
Layer_0
  10
24.07748
  20
11.088336
  0
VERTEX
  5
858
  8
Layer_0
  10
24.149607
  20
11.159233
  0
VERTEX
  5
859
  8
Layer_0
  10
24.150068
  20
11.159848
  0
VERTEX
  5
85a
  8
Layer_0
  10
24.220814
  20
11.230435
  0
VERTEX
  5
85b
  8
Layer_0
  10
24.291094
  20
11.301488
  0
VERTEX
  5
85c
  8
Layer_0
  10
24.29171
  20
11.30195
  0
VERTEX
  5
85d
  8
Layer_0
  10
24.366262
  20
11.378588
  0
VERTEX
  5
85e
  8
Layer_0
  10
24.440123
  20
11.455883
  0
VERTEX
  5
85f
  8
Layer_0
  10
24.513288
  20
11.53384
  0
VERTEX
  5
860
  8
Layer_0
  10
24.585754
  20
11.612451
  0
VERTEX
  5
861
  8
Layer_0
  10
24.719378
  20
11.635408
  0
VERTEX
  5
862
  8
Layer_0
  10
24.852818
  20
11.659356
  0
VERTEX
  5
863
  8
Layer_0
  10
24.986065
  20
11.684289
  0
VERTEX
  5
864
  8
Layer_0
  10
25.119125
  20
11.710213
  0
VERTEX
  5
865
  8
Layer_0
  10
25.251987
  20
11.737121
  0
VERTEX
  5
866
  8
Layer_0
  10
25.384651
  20
11.765017
  0
VERTEX
  5
867
  8
Layer_0
  10
25.517113
  20
11.793893
  0
VERTEX
  5
868
  8
Layer_0
  10
25.649361
  20
11.823757
  0
VERTEX
  5
869
  8
Layer_0
  10
25.862823
  20
11.872892
  0
VERTEX
  5
86a
  8
Layer_0
  10
26.076128
  20
11.922721
  0
VERTEX
  5
86b
  8
Layer_0
  10
26.150879
  20
11.939059
  0
VERTEX
  5
86c
  8
Layer_0
  10
26.225763
  20
11.954785
  0
VERTEX
  5
86d
  8
Layer_0
  10
26.313025
  20
11.975671
  0
VERTEX
  5
86e
  8
Layer_0
  10
26.400007
  20
11.997693
  0
VERTEX
  5
86f
  8
Layer_0
  10
26.437845
  20
12.008066
  0
VERTEX
  5
870
  8
Layer_0
  10
26.475365
  20
12.019531
  0
VERTEX
  5
871
  8
Layer_0
  10
26.492743
  20
12.025682
  0
VERTEX
  5
872
  8
Layer_0
  10
26.510582
  20
12.032603
  0
VERTEX
  5
873
  8
Layer_0
  10
26.533754
  20
12.043054
  0
VERTEX
  5
874
  8
Layer_0
  10
26.555643
  20
12.055979
  0
VERTEX
  5
875
  8
Layer_0
  10
26.56369
  20
12.061468
  0
VERTEX
  5
876
  8
Layer_0
  10
26.571329
  20
12.067513
  0
VERTEX
  5
877
  8
Layer_0
  10
26.585171
  20
12.080432
  0
VERTEX
  5
878
  8
Layer_0
  10
26.591936
  20
12.088406
  0
VERTEX
  5
879
  8
Layer_0
  10
26.598074
  20
12.096861
  0
VERTEX
  5
87a
  8
Layer_0
  10
26.603565
  20
12.10575
  0
VERTEX
  5
87b
  8
Layer_0
  10
26.608393
  20
12.115034
  0
VERTEX
  5
87c
  8
Layer_0
  10
26.61154
  20
12.122278
  0
VERTEX
  5
87d
  8
Layer_0
  10
26.614389
  20
12.129644
  0
VERTEX
  5
87e
  8
Layer_0
  10
26.615313
  20
12.132566
  0
VERTEX
  5
87f
  8
Layer_0
  10
26.616629
  20
12.13758
  0
VERTEX
  5
880
  8
Layer_0
  10
26.61808
  20
12.142563
  0
VERTEX
  5
881
  8
Layer_0
  10
26.620472
  20
12.15855
  0
VERTEX
  5
882
  8
Layer_0
  10
26.620541
  20
12.174705
  0
VERTEX
  5
883
  8
Layer_0
  10
26.619619
  20
12.183778
  0
VERTEX
  5
884
  8
Layer_0
  10
26.61684
  20
12.196069
  0
VERTEX
  5
885
  8
Layer_0
  10
26.613007
  20
12.208076
  0
VERTEX
  5
886
  8
Layer_0
  10
26.607603
  20
12.219746
  0
VERTEX
  5
887
  8
Layer_0
  10
26.600903
  20
12.230674
  0
VERTEX
  5
888
  8
Layer_0
  10
26.592985
  20
12.240762
  0
VERTEX
  5
889
  8
Layer_0
  10
26.583941
  20
12.249907
  0
VERTEX
  5
88a
  8
Layer_0
  10
26.581657
  20
12.251863
  0
VERTEX
  5
88b
  8
Layer_0
  10
26.579327
  20
12.253752
  0
VERTEX
  5
88c
  8
Layer_0
  10
26.574404
  20
12.257443
  0
VERTEX
  5
88d
  8
Layer_0
  10
26.565449
  20
12.263187
  0
VERTEX
  5
88e
  8
Layer_0
  10
26.55607
  20
12.268177
  0
VERTEX
  5
88f
  8
Layer_0
  10
26.546322
  20
12.272413
  0
VERTEX
  5
890
  8
Layer_0
  10
26.536264
  20
12.275898
  0
VERTEX
  5
891
  8
Layer_0
  10
26.521254
  20
12.279217
  0
VERTEX
  5
892
  8
Layer_0
  10
26.506056
  20
12.281375
  0
VERTEX
  5
893
  8
Layer_0
  10
26.490738
  20
12.282372
  0
VERTEX
  5
894
  8
Layer_0
  10
26.475365
  20
12.282204
  0
VERTEX
  5
895
  8
Layer_0
  10
26.467983
  20
12.281896
  0
VERTEX
  5
896
  8
Layer_0
  10
26.434374
  20
12.279311
  0
VERTEX
  5
897
  8
Layer_0
  10
26.40093
  20
12.275129
  0
VERTEX
  5
898
  8
Layer_0
  10
26.360895
  20
12.269214
  0
VERTEX
  5
899
  8
Layer_0
  10
26.320959
  20
12.262672
  0
VERTEX
  5
89a
  8
Layer_0
  10
26.22315
  20
12.246062
  0
VERTEX
  5
89b
  8
Layer_0
  10
26.112171
  20
12.222855
  0
VERTEX
  5
89c
  8
Layer_0
  10
26.001616
  20
12.197696
  0
VERTEX
  5
89d
  8
Layer_0
  10
25.829926
  20
12.157902
  0
VERTEX
  5
89e
  8
Layer_0
  10
25.658127
  20
12.118418
  0
VERTEX
  5
89f
  8
Layer_0
  10
25.532686
  20
12.090198
  0
VERTEX
  5
8a0
  8
Layer_0
  10
25.407076
  20
12.062719
  0
VERTEX
  5
8a1
  8
Layer_0
  10
25.281307
  20
12.035986
  0
VERTEX
  5
8a2
  8
Layer_0
  10
25.15539
  20
12.009996
  0
VERTEX
  5
8a3
  8
Layer_0
  10
25.014116
  20
11.981923
  0
VERTEX
  5
8a4
  8
Layer_0
  10
24.872572
  20
11.955247
  0
VERTEX
  5
8a5
  8
Layer_0
  10
24.916401
  20
12.015527
  0
VERTEX
  5
8a6
  8
Layer_0
  10
24.958458
  20
12.077041
  0
VERTEX
  5
8a7
  8
Layer_0
  10
24.998707
  20
12.13975
  0
VERTEX
  5
8a8
  8
Layer_0
  10
25.037127
  20
12.203617
  0
VERTEX
  5
8a9
  8
Layer_0
  10
25.061636
  20
12.246758
  0
VERTEX
  5
8aa
  8
Layer_0
  10
25.08494
  20
12.290556
  0
VERTEX
  5
8ab
  8
Layer_0
  10
25.107023
  20
12.334982
  0
VERTEX
  5
8ac
  8
Layer_0
  10
25.127861
  20
12.380013
  0
VERTEX
  5
8ad
  8
Layer_0
  10
25.141958
  20
12.412333
  0
VERTEX
  5
8ae
  8
Layer_0
  10
25.155197
  20
12.445007
  0
VERTEX
  5
8af
  8
Layer_0
  10
25.167574
  20
12.478018
  0
VERTEX
  5
8b0
  8
Layer_0
  10
25.179073
  20
12.51135
  0
VERTEX
  5
8b1
  8
Layer_0
  10
25.188765
  20
12.541908
  0
VERTEX
  5
8b2
  8
Layer_0
  10
25.197514
  20
12.572742
  0
VERTEX
  5
8b3
  8
Layer_0
  10
25.205309
  20
12.603829
  0
VERTEX
  5
8b4
  8
Layer_0
  10
25.212139
  20
12.63515
  0
VERTEX
  5
8b5
  8
Layer_0
  10
25.218752
  20
12.670982
  0
VERTEX
  5
8b6
  8
Layer_0
  10
25.219366
  20
12.673904
  0
VERTEX
  5
8b7
  8
Layer_0
  10
25.219521
  20
12.675596
  0
VERTEX
  5
8b8
  8
Layer_0
  10
25.22459
  20
12.712556
  0
VERTEX
  5
8b9
  8
Layer_0
  10
25.227825
  20
12.749722
  0
VERTEX
  5
8ba
  8
Layer_0
  10
25.228132
  20
12.754951
  0
VERTEX
  5
8bb
  8
Layer_0
  10
25.22921
  20
12.78817
  0
VERTEX
  5
8bc
  8
Layer_0
  10
25.229019
  20
12.807091
  0
VERTEX
  5
8bd
  8
Layer_0
  10
25.228439
  20
12.826002
  0
VERTEX
  5
8be
  8
Layer_0
  10
25.225346
  20
12.866128
  0
VERTEX
  5
8bf
  8
Layer_0
  10
25.219673
  20
12.905972
  0
VERTEX
  5
8c0
  8
Layer_0
  10
25.213522
  20
12.9355
  0
VERTEX
  5
8c1
  8
Layer_0
  10
25.206289
  20
12.962517
  0
VERTEX
  5
8c2
  8
Layer_0
  10
25.197634
  20
12.989091
  0
VERTEX
  5
8c3
  8
Layer_0
  10
25.18758
  20
13.015168
  0
VERTEX
  5
8c4
  8
Layer_0
  10
25.176151
  20
13.040692
  0
VERTEX
  5
8c5
  8
Layer_0
  10
25.167934
  20
13.056662
  0
VERTEX
  5
8c6
  8
Layer_0
  10
25.159235
  20
13.072373
  0
VERTEX
  5
8c7
  8
Layer_0
  10
25.148687
  20
13.089683
  0
VERTEX
  5
8c8
  8
Layer_0
  10
25.137396
  20
13.106514
  0
VERTEX
  5
8c9
  8
Layer_0
  10
25.127911
  20
13.119391
  0
VERTEX
  5
8ca
  8
Layer_0
  10
25.118326
  20
13.132197
  0
VERTEX
  5
8cb
  8
Layer_0
  10
25.1066
  20
13.146138
  0
VERTEX
  5
8cc
  8
Layer_0
  10
25.094643
  20
13.159879
  0
VERTEX
  5
8cd
  8
Layer_0
  10
25.072224
  20
13.182183
  0
VERTEX
  5
8ce
  8
Layer_0
  10
25.048994
  20
13.203589
  0
VERTEX
  5
8cf
  8
Layer_0
  10
25.024982
  20
13.224076
  0
VERTEX
  5
8d0
  8
Layer_0
  10
25.000208
  20
13.243622
  0
VERTEX
  5
8d1
  8
Layer_0
  10
24.974707
  20
13.262207
  0
VERTEX
  5
8d2
  8
Layer_0
  10
24.948505
  20
13.279807
  0
VERTEX
  5
8d3
  8
Layer_0
  10
24.921627
  20
13.296406
  0
VERTEX
  5
8d4
  8
Layer_0
  10
24.894102
  20
13.311976
  0
VERTEX
  5
8d5
  8
Layer_0
  10
24.862883
  20
13.327857
  0
VERTEX
  5
8d6
  8
Layer_0
  10
24.83102
  20
13.342274
  0
VERTEX
  5
8d7
  8
Layer_0
  10
24.798565
  20
13.355212
  0
VERTEX
  5
8d8
  8
Layer_0
  10
24.765577
  20
13.366656
  0
VERTEX
  5
8d9
  8
Layer_0
  10
24.732103
  20
13.37659
  0
VERTEX
  5
8da
  8
Layer_0
  10
24.698193
  20
13.384999
  0
VERTEX
  5
8db
  8
Layer_0
  10
24.663898
  20
13.391866
  0
VERTEX
  5
8dc
  8
Layer_0
  10
24.629276
  20
13.397176
  0
VERTEX
  5
8dd
  8
Layer_0
  10
24.589983
  20
13.401658
  0
VERTEX
  5
8de
  8
Layer_0
  10
24.55055
  20
13.404486
  0
VERTEX
  5
8df
  8
Layer_0
  10
24.511036
  20
13.405656
  0
VERTEX
  5
8e0
  8
Layer_0
  10
24.468412
  20
13.405173
  0
VERTEX
  5
8e1
  8
Layer_0
  10
24.425251
  20
13.4029
  0
VERTEX
  5
8e2
  8
Layer_0
  10
24.38221
  20
13.399138
  0
VERTEX
  5
8e3
  8
Layer_0
  10
24.339323
  20
13.393896
  0
VERTEX
  5
8e4
  8
Layer_0
  10
24.296631
  20
13.387179
  0
VERTEX
  5
8e5
  8
Layer_0
  10
24.263103
  20
13.381028
  0
VERTEX
  5
8e6
  8
Layer_0
  10
24.261259
  20
13.380567
  0
VERTEX
  5
8e7
  8
Layer_0
  10
24.198997
  20
13.367155
  0
VERTEX
  5
8e8
  8
Layer_0
  10
24.137247
  20
13.351628
  0
VERTEX
  5
8e9
  8
Layer_0
  10
24.076063
  20
13.334
  0
VERTEX
  5
8ea
  8
Layer_0
  10
24.015503
  20
13.314283
  0
VERTEX
  5
8eb
  8
Layer_0
  10
23.973421
  20
13.298564
  0
VERTEX
  5
8ec
  8
Layer_0
  10
23.932022
  20
13.281388
  0
VERTEX
  5
8ed
  8
Layer_0
  10
23.891338
  20
13.262783
  0
VERTEX
  5
8ee
  8
Layer_0
  10
23.851406
  20
13.242774
  0
VERTEX
  5
8ef
  8
Layer_0
  10
23.812256
  20
13.221384
  0
VERTEX
  5
8f0
  8
Layer_0
  10
23.773924
  20
13.19864
  0
VERTEX
  5
8f1
  8
Layer_0
  10
23.736448
  20
13.174566
  0
VERTEX
  5
8f2
  8
Layer_0
  10
23.69986
  20
13.149186
  0
VERTEX
  5
8f3
  8
Layer_0
  10
23.664196
  20
13.122525
  0
VERTEX
  5
8f4
  8
Layer_0
  10
23.629488
  20
13.09461
  0
VERTEX
  5
8f5
  8
Layer_0
  10
23.595768
  20
13.065463
  0
VERTEX
  5
8f6
  8
Layer_0
  10
23.563076
  20
13.03511
  0
VERTEX
  5
8f7
  8
Layer_0
  10
23.531445
  20
13.003576
  0
VERTEX
  5
8f8
  8
Layer_0
  10
23.500908
  20
12.970884
  0
VERTEX
  5
8f9
  8
Layer_0
  10
23.471497
  20
12.93706
  0
VERTEX
  5
8fa
  8
Layer_0
  10
23.443253
  20
12.902128
  0
VERTEX
  5
8fb
  8
Layer_0
  10
23.411226
  20
12.859696
  0
VERTEX
  5
8fc
  8
Layer_0
  10
23.380844
  20
12.816097
  0
VERTEX
  5
8fd
  8
Layer_0
  10
23.352135
  20
12.771376
  0
VERTEX
  5
8fe
  8
Layer_0
  10
23.325142
  20
12.725578
  0
VERTEX
  5
8ff
  8
Layer_0
  10
23.271177
  20
12.628458
  0
VERTEX
  5
900
  8
Layer_0
  10
23.21949
  20
12.530111
  0
VERTEX
  5
901
  8
Layer_0
  10
23.202881
  20
12.498123
  0
VERTEX
  5
902
  8
Layer_0
  10
23.140202
  20
12.373168
  0
VERTEX
  5
903
  8
Layer_0
  10
23.078772
  20
12.247601
  0
VERTEX
  5
904
  8
Layer_0
  10
23.006645
  20
12.095503
  0
VERTEX
  5
905
  8
Layer_0
  10
22.935287
  20
11.94033
  0
VERTEX
  5
906
  8
Layer_0
  10
22.900684
  20
11.863435
  0
VERTEX
  5
907
  8
Layer_0
  10
22.867311
  20
11.788078
  0
VERTEX
  5
908
  8
Layer_0
  10
22.867159
  20
11.787463
  0
VERTEX
  5
909
  8
Layer_0
  10
22.848179
  20
11.743731
  0
VERTEX
  5
90a
  8
Layer_0
  10
22.829327
  20
11.699957
  0
VERTEX
  5
90b
  8
Layer_0
  10
22.657097
  20
11.688702
  0
VERTEX
  5
90c
  8
Layer_0
  10
22.484823
  20
11.678724
  0
VERTEX
  5
90d
  8
Layer_0
  10
22.312481
  20
11.670018
  0
VERTEX
  5
90e
  8
Layer_0
  10
22.140041
  20
11.662586
  0
VERTEX
  5
90f
  8
Layer_0
  10
21.946383
  20
11.654932
  0
VERTEX
  5
910
  8
Layer_0
  10
21.7528
  20
11.646746
  0
VERTEX
  5
911
  8
Layer_0
  10
21.858078
  20
11.873893
  0
VERTEX
  5
912
  8
Layer_0
  10
21.962337
  20
12.101501
  0
VERTEX
  5
913
  8
Layer_0
  10
22.00749
  20
12.202288
  0
VERTEX
  5
914
  8
Layer_0
  10
22.051151
  20
12.303734
  0
VERTEX
  5
915
  8
Layer_0
  10
22.051306
  20
12.304349
  0
VERTEX
  5
916
  8
Layer_0
  10
22.057737
  20
12.319862
  0
VERTEX
  5
917
  8
Layer_0
  10
22.075762
  20
12.364389
  0
VERTEX
  5
918
  8
Layer_0
  10
22.086735
  20
12.393641
  0
VERTEX
  5
919
  8
Layer_0
  10
22.096985
  20
12.423151
  0
VERTEX
  5
91a
  8
Layer_0
  10
22.106516
  20
12.452909
  0
VERTEX
  5
91b
  8
Layer_0
  10
22.113302
  20
12.477883
  0
VERTEX
  5
91c
  8
Layer_0
  10
22.116825
  20
12.494123
  0
VERTEX
  5
91d
  8
Layer_0
  10
22.119535
  20
12.510517
  0
VERTEX
  5
91e
  8
Layer_0
  10
22.121433
  20
12.527036
  0
VERTEX
  5
91f
  8
Layer_0
  10
22.122255
  20
12.542871
  0
VERTEX
  5
920
  8
Layer_0
  10
22.121725
  20
12.558687
  0
VERTEX
  5
921
  8
Layer_0
  10
22.119858
  20
12.574403
  0
VERTEX
  5
922
  8
Layer_0
  10
22.116667
  20
12.589935
  0
VERTEX
  5
923
  8
Layer_0
  10
22.110485
  20
12.608418
  0
VERTEX
  5
924
  8
Layer_0
  10
22.101902
  20
12.625922
  0
VERTEX
  5
925
  8
Layer_0
  10
22.100365
  20
12.628537
  0
VERTEX
  5
926
  8
Layer_0
  10
22.090311
  20
12.643109
  0
VERTEX
  5
927
  8
Layer_0
  10
22.078737
  20
12.65644
  0
VERTEX
  5
928
  8
Layer_0
  10
22.065758
  20
12.66839
  0
VERTEX
  5
929
  8
Layer_0
  10
22.051458
  20
12.678826
  0
VERTEX
  5
92a
  8
Layer_0
  10
22.048592
  20
12.680632
  0
VERTEX
  5
92b
  8
Layer_0
  10
22.045769
  20
12.682517
  0
VERTEX
  5
92c
  8
Layer_0
  10
22.025753
  20
12.694086
  0
VERTEX
  5
92d
  8
Layer_0
  10
22.004948
  20
12.704098
  0
VERTEX
  5
92e
  8
Layer_0
  10
21.983448
  20
12.712509
  0
VERTEX
  5
92f
  8
Layer_0
  10
21.961338
  20
12.719273
  0
VERTEX
  5
930
  8
Layer_0
  10
21.922699
  20
12.728646
  0
VERTEX
  5
931
  8
Layer_0
  10
21.883522
  20
12.73542
  0
VERTEX
  5
932
  8
Layer_0
  10
21.849226
  20
12.739573
  0
VERTEX
  5
933
  8
Layer_0
  10
21.786612
  20
12.743884
  0
VERTEX
  5
934
  8
Layer_0
  10
21.723902
  20
12.744934
  0
VERTEX
  5
935
  8
Layer_0
  10
21.661224
  20
12.742728
  0
VERTEX
  5
936
  8
Layer_0
  10
21.598703
  20
12.737266
  0
VERTEX
  5
937
  8
Layer_0
  10
21.56764
  20
12.733232
  0
VERTEX
  5
938
  8
Layer_0
  10
21.536726
  20
12.728192
  0
VERTEX
  5
939
  8
Layer_0
  10
21.507246
  20
12.722534
  0
VERTEX
  5
93a
  8
Layer_0
  10
21.478088
  20
12.715487
  0
VERTEX
  5
93b
  8
Layer_0
  10
21.449297
  20
12.707066
  0
VERTEX
  5
93c
  8
Layer_0
  10
21.420923
  20
12.697281
  0
VERTEX
  5
93d
  8
Layer_0
  10
21.404039
  20
12.690329
  0
VERTEX
  5
93e
  8
Layer_0
  10
21.387661
  20
12.682311
  0
VERTEX
  5
93f
  8
Layer_0
  10
21.37184
  20
12.673242
  0
VERTEX
  5
940
  8
Layer_0
  10
21.356638
  20
12.663139
  0
VERTEX
  5
941
  8
Layer_0
  10
21.346779
  20
12.655884
  0
VERTEX
  5
942
  8
Layer_0
  10
21.337107
  20
12.648376
  0
VERTEX
  5
943
  8
Layer_0
  10
21.326189
  20
12.638702
  0
VERTEX
  5
944
  8
Layer_0
  10
21.315577
  20
12.628691
  0
VERTEX
  5
945
  8
Layer_0
  10
21.297325
  20
12.609215
  0
VERTEX
  5
946
  8
Layer_0
  10
21.280024
  20
12.588905
  0
VERTEX
  5
947
  8
Layer_0
  10
21.2637
  20
12.567804
  0
VERTEX
  5
948
  8
Layer_0
  10
21.248371
  20
12.545952
  0
VERTEX
  5
949
  8
Layer_0
  10
21.220245
  20
12.501548
  0
VERTEX
  5
94a
  8
Layer_0
  10
21.19343
  20
12.456354
  0
VERTEX
  5
94b
  8
Layer_0
  10
21.167942
  20
12.410398
  0
VERTEX
  5
94c
  8
Layer_0
  10
21.143795
  20
12.363711
  0
VERTEX
  5
94d
  8
Layer_0
  10
21.095285
  20
12.268103
  0
VERTEX
  5
94e
  8
Layer_0
  10
21.048521
  20
12.171629
  0
VERTEX
  5
94f
  8
Layer_0
  10
21.005846
  20
12.081354
  0
VERTEX
  5
950
  8
Layer_0
  10
20.962477
  20
11.986773
  0
VERTEX
  5
951
  8
Layer_0
  10
20.92524
  20
11.903728
  0
VERTEX
  5
952
  8
Layer_0
  10
20.888706
  20
11.820369
  0
VERTEX
  5
953
  8
Layer_0
  10
20.852879
  20
11.736703
  0
VERTEX
  5
954
  8
Layer_0
  10
20.81776
  20
11.652743
  0
VERTEX
  5
955
  8
Layer_0
  10
20.752968
  20
11.656425
  0
VERTEX
  5
956
  8
Layer_0
  10
20.691193
  20
11.661356
  0
VERTEX
  5
957
  8
Layer_0
  10
20.631962
  20
11.666505
  0
VERTEX
  5
958
  8
Layer_0
  10
20.572775
  20
11.672121
  0
SEQEND
  0
POLYLINE
  5
95a
  8
Layer_0
  62
0
  70
1
  66
1
  10
0
  20
0
  30
0
  0
VERTEX
  5
95a
  8
Layer_0
  10
13.225948
  20
7.2300687
  0
VERTEX
  5
95b
  8
Layer_0
  10
13.14572
  20
7.1062298
  0
VERTEX
  5
95c
  8
Layer_0
  10
13.063293
  20
6.9838591
  0
VERTEX
  5
95d
  8
Layer_0
  10
12.978682
  20
6.8629827
  0
VERTEX
  5
95e
  8
Layer_0
  10
12.891918
  20
6.7436328
  0
VERTEX
  5
95f
  8
Layer_0
  10
12.812219
  20
6.6402912
  0
VERTEX
  5
960
  8
Layer_0
  10
12.730033
  20
6.5389438
  0
VERTEX
  5
961
  8
Layer_0
  10
12.645396
  20
6.4396296
  0
VERTEX
  5
962
  8
Layer_0
  10
12.558349
  20
6.3423963
  0
VERTEX
  5
963
  8
Layer_0
  10
12.517919
  20
6.299768
  0
VERTEX
  5
964
  8
Layer_0
  10
12.476468
  20
6.2581415
  0
VERTEX
  5
965
  8
Layer_0
  10
12.434012
  20
6.2175431
  0
VERTEX
  5
966
  8
Layer_0
  10
12.390565
  20
6.1779952
  0
VERTEX
  5
967
  8
Layer_0
  10
12.337705
  20
6.1328678
  0
VERTEX
  5
968
  8
Layer_0
  10
12.283056
  20
6.0899749
  0
VERTEX
  5
969
  8
Layer_0
  10
12.226681
  20
6.0493793
  0
VERTEX
  5
96a
  8
Layer_0
  10
12.168647
  20
6.0111341
  0
VERTEX
  5
96b
  8
Layer_0
  10
12.138403
  20
5.9924774
  0
VERTEX
  5
96c
  8
Layer_0
  10
12.107702
  20
5.9745898
  0
VERTEX
  5
96d
  8
Layer_0
  10
12.076565
  20
5.9574809
  0
VERTEX
  5
96e
  8
Layer_0
  10
12.045
  20
5.9411597
  0
VERTEX
  5
96f
  8
Layer_0
  10
12.011877
  20
5.9251466
  0
VERTEX
  5
970
  8
Layer_0
  10
11.978034
  20
5.9107671
  0
VERTEX
  5
971
  8
Layer_0
  10
11.943535
  20
5.8980508
  0
VERTEX
  5
972
  8
Layer_0
  10
11.908435
  20
5.8870258
  0
VERTEX
  5
973
  8
Layer_0
  10
11.88615
  20
5.8814268
  0
VERTEX
  5
974
  8
Layer_0
  10
11.863582
  20
5.8772435
  0
VERTEX
  5
975
  8
Layer_0
  10
11.840794
  20
5.8744922
  0
VERTEX
  5
976
  8
Layer_0
  10
11.817853
  20
5.8731847
  0
VERTEX
  5
977
  8
Layer_0
  10
11.802036
  20
5.8736897
  0
VERTEX
  5
978
  8
Layer_0
  10
11.786365
  20
5.8756142
  0
VERTEX
  5
979
  8
Layer_0
  10
11.770943
  20
5.8789783
  0
VERTEX
  5
97a
  8
Layer_0
  10
11.755876
  20
5.8837962
  0
VERTEX
  5
97b
  8
Layer_0
  10
11.751723
  20
5.8856421
  0
VERTEX
  5
97c
  8
Layer_0
  10
11.745188
  20
5.8888812
  0
VERTEX
  5
97d
  8
Layer_0
  10
11.738805
  20
5.8924084
  0
VERTEX
  5
97e
  8
Layer_0
  10
11.731885
  20
5.8970222
  0
VERTEX
  5
97f
  8
Layer_0
  10
11.72636
  20
5.901165
  0
VERTEX
  5
980
  8
Layer_0
  10
11.720965
  20
5.9054809
  0
VERTEX
  5
981
  8
Layer_0
  10
11.718589
  20
5.9078765
  0
VERTEX
  5
982
  8
Layer_0
  10
11.716352
  20
5.9104018
  0
VERTEX
  5
983
  8
Layer_0
  10
11.713891
  20
5.9142466
  0
VERTEX
  5
984
  8
Layer_0
  10
11.711123
  20
5.9197831
  0
VERTEX
  5
985
  8
Layer_0
  10
11.708201
  20
5.927165
  0
VERTEX
  5
986
  8
Layer_0
  10
11.706663
  20
5.9319324
  0
VERTEX
  5
987
  8
Layer_0
  10
11.704041
  20
5.9434018
  0
VERTEX
  5
988
  8
Layer_0
  10
11.702049
  20
5.9550009
  0
VERTEX
  5
989
  8
Layer_0
  10
11.701281
  20
5.9619212
  0
VERTEX
  5
98a
  8
Layer_0
  10
11.700336
  20
5.9800735
  0
VERTEX
  5
98b
  8
Layer_0
  10
11.700531
  20
5.9982347
  0
VERTEX
  5
98c
  8
Layer_0
  10
11.701869
  20
6.0163484
  0
VERTEX
  5
98d
  8
Layer_0
  10
11.704356
  20
6.0343561
  0
VERTEX
  5
98e
  8
Layer_0
  10
11.711061
  20
6.0686464
  0
VERTEX
  5
98f
  8
Layer_0
  10
11.72035
  20
6.1023312
  0
VERTEX
  5
990
  8
Layer_0
  10
11.729578
  20
6.1289368
  0
VERTEX
  5
991
  8
Layer_0
  10
11.742035
  20
6.1589255
  0
VERTEX
  5
992
  8
Layer_0
  10
11.755874
  20
6.1873188
  0
VERTEX
  5
993
  8
Layer_0
  10
11.771255
  20
6.2149048
  0
VERTEX
  5
994
  8
Layer_0
  10
11.788018
  20
6.2408953
  0
VERTEX
  5
995
  8
Layer_0
  10
11.792939
  20
6.2479696
  0
VERTEX
  5
996
  8
Layer_0
  10
11.820929
  20
6.2819905
  0
VERTEX
  5
997
  8
Layer_0
  10
11.850764
  20
6.3144064
  0
VERTEX
  5
998
  8
Layer_0
  10
11.880164
  20
6.3449817
  0
VERTEX
  5
999
  8
Layer_0
  10
11.910665
  20
6.3744612
  0
VERTEX
  5
99a
  8
Layer_0
  10
11.962353
  20
6.4231691
  0
VERTEX
  5
99b
  8
Layer_0
  10
12.015501
  20
6.4702506
  0
VERTEX
  5
99c
  8
Layer_0
  10
12.070082
  20
6.5156689
  0
VERTEX
  5
99d
  8
Layer_0
  10
12.126047
  20
6.5593929
  0
VERTEX
  5
99e
  8
Layer_0
  10
12.210241
  20
6.6191068
  0
VERTEX
  5
99f
  8
Layer_0
  10
12.295984
  20
6.6765804
  0
VERTEX
  5
9a0
  8
Layer_0
  10
12.414171
  20
6.7539678
  0
VERTEX
  5
9a1
  8
Layer_0
  10
12.533435
  20
6.8296781
  0
VERTEX
  5
9a2
  8
Layer_0
  10
12.71345
  20
6.9423671
  0
VERTEX
  5
9a3
  8
Layer_0
  10
12.89484
  20
7.0528264
  0
VERTEX
  5
9a4
  8
Layer_0
  10
13.068862
  20
7.157052
  0
VERTEX
  5
9a5
  8
Layer_0
  10
13.244249
  20
7.2589808
  0
VERTEX
  5
9a6
  8
Layer_0
  10
13.225948
  20
7.2300687
  0
SEQEND
  0
POLYLINE
  5
9a8
  8
Layer_0
  62
0
  70
1
  66
1
  10
0
  20
0
  30
0
  0
VERTEX
  5
9a8
  8
Layer_0
  10
22.690607
  20
11.357314
  0
VERTEX
  5
9a9
  8
Layer_0
  10
22.651104
  20
11.261205
  0
VERTEX
  5
9aa
  8
Layer_0
  10
22.610176
  20
11.165692
  0
VERTEX
  5
9ab
  8
Layer_0
  10
22.599266
  20
11.142201
  0
VERTEX
  5
9ac
  8
Layer_0
  10
22.587568
  20
11.119094
  0
VERTEX
  5
9ad
  8
Layer_0
  10
22.57003
  20
11.0779
  0
VERTEX
  5
9ae
  8
Layer_0
  10
22.553736
  20
11.036201
  0
VERTEX
  5
9af
  8
Layer_0
  10
22.541586
  20
11.004213
  0
VERTEX
  5
9b0
  8
Layer_0
  10
22.541431
  20
11.003598
  0
VERTEX
  5
9b1
  8
Layer_0
  10
22.493954
  20
10.873454
  0
VERTEX
  5
9b2
  8
Layer_0
  10
22.44747
  20
10.742932
  0
VERTEX
  5
9b3
  8
Layer_0
  10
22.401981
  20
10.612062
  0
VERTEX
  5
9b4
  8
Layer_0
  10
22.3575
  20
10.480868
  0
VERTEX
  5
9b5
  8
Layer_0
  10
22.172491
  20
9.9327631
  0
VERTEX
  5
9b6
  8
Layer_0
  10
21.863375
  20
9.6451769
  0
VERTEX
  5
9b7
  8
Layer_0
  10
21.733274
  20
9.5257473
  0
VERTEX
  5
9b8
  8
Layer_0
  10
21.601305
  20
9.4083986
  0
VERTEX
  5
9b9
  8
Layer_0
  10
21.467497
  20
9.2931576
  0
VERTEX
  5
9ba
  8
Layer_0
  10
21.331879
  20
9.1800413
  0
VERTEX
  5
9bb
  8
Layer_0
  10
21.219751
  20
9.0900116
  0
VERTEX
  5
9bc
  8
Layer_0
  10
21.106194
  20
9.0017986
  0
VERTEX
  5
9bd
  8
Layer_0
  10
21.048128
  20
8.959096
  0
VERTEX
  5
9be
  8
Layer_0
  10
20.989851
  20
8.9166765
  0
VERTEX
  5
9bf
  8
Layer_0
  10
20.93552
  20
8.8784695
  0
VERTEX
  5
9c0
  8
Layer_0
  10
20.880335
  20
8.8415289
  0
VERTEX
  5
9c1
  8
Layer_0
  10
20.824312
  20
8.8058662
  0
VERTEX
  5
9c2
  8
Layer_0
  10
20.767471
  20
8.7714996
  0
VERTEX
  5
9c3
  8
Layer_0
  10
20.726921
  20
8.7493629
  0
VERTEX
  5
9c4
  8
Layer_0
  10
20.685501
  20
8.7289
  0
VERTEX
  5
9c5
  8
Layer_0
  10
20.659309
  20
8.7180052
  0
VERTEX
  5
9c6
  8
Layer_0
  10
20.632292
  20
8.7093687
  0
VERTEX
  5
9c7
  8
Layer_0
  10
20.632332
  20
8.7308874
  0
VERTEX
  5
9c8
  8
Layer_0
  10
20.633457
  20
8.7523623
  0
VERTEX
  5
9c9
  8
Layer_0
  10
20.635651
  20
8.7737579
  0
VERTEX
  5
9ca
  8
Layer_0
  10
20.638905
  20
8.7950296
  0
VERTEX
  5
9cb
  8
Layer_0
  10
20.645906
  20
8.8328276
  0
VERTEX
  5
9cc
  8
Layer_0
  10
20.653872
  20
8.870429
  0
VERTEX
  5
9cd
  8
Layer_0
  10
20.662788
  20
8.9078188
  0
VERTEX
  5
9ce
  8
Layer_0
  10
20.672661
  20
8.9449739
  0
VERTEX
  5
9cf
  8
Layer_0
  10
20.693459
  20
9.0192738
  0
VERTEX
  5
9d0
  8
Layer_0
  10
20.715952
  20
9.0930729
  0
VERTEX
  5
9d1
  8
Layer_0
  10
20.744381
  20
9.1807137
  0
VERTEX
  5
9d2
  8
Layer_0
  10
20.773607
  20
9.2680855
  0
VERTEX
  5
9d3
  8
Layer_0
  10
20.803629
  20
9.3551903
  0
VERTEX
  5
9d4
  8
Layer_0
  10
20.834448
  20
9.4420214
  0
VERTEX
  5
9d5
  8
Layer_0
  10
20.865671
  20
9.5295515
  0
VERTEX
  5
9d6
  8
Layer_0
  10
20.897703
  20
9.616786
  0
VERTEX
  5
9d7
  8
Layer_0
  10
20.930536
  20
9.703723
  0
VERTEX
  5
9d8
  8
Layer_0
  10
20.964169
  20
9.7903538
  0
VERTEX
  5
9d9
  8
Layer_0
  10
20.973467
  20
9.8129635
  0
VERTEX
  5
9da
  8
Layer_0
  10
20.982393
  20
9.835722
  0
VERTEX
  5
9db
  8
Layer_0
  10
20.994528
  20
9.8642206
  0
VERTEX
  5
9dc
  8
Layer_0
  10
21.007229
  20
9.8924704
  0
VERTEX
  5
9dd
  8
Layer_0
  10
21.611929
  20
11.346087
  0
VERTEX
  5
9de
  8
Layer_0
  10
21.706568
  20
11.351047
  0
VERTEX
  5
9df
  8
Layer_0
  10
21.801245
  20
11.355314
  0
VERTEX
  5
9e0
  8
Layer_0
  10
22.019644
  20
11.36412
  0
VERTEX
  5
9e1
  8
Layer_0
  10
22.238007
  20
11.373615
  0
VERTEX
  5
9e2
  8
Layer_0
  10
22.472822
  20
11.38551
  0
VERTEX
  5
9e3
  8
Layer_0
  10
22.707525
  20
11.399452
  0
VERTEX
  5
9e4
  8
Layer_0
  10
22.690607
  20
11.357314
  0
SEQEND
  0
POLYLINE
  5
9e6
  8
Layer_0
  62
0
  70
1
  66
1
  10
0
  20
0
  30
0
  0
VERTEX
  5
9e6
  8
Layer_0
  10
27.221704
  20
10.169599
  0
VERTEX
  5
9e7
  8
Layer_0
  10
27.232777
  20
10.168983
  0
VERTEX
  5
9e8
  8
Layer_0
  10
27.243835
  20
10.167174
  0
VERTEX
  5
9e9
  8
Layer_0
  10
27.254616
  20
10.164139
  0
VERTEX
  5
9ea
  8
Layer_0
  10
27.253414
  20
10.150024
  0
VERTEX
  5
9eb
  8
Layer_0
  10
27.25144
  20
10.13601
  0
VERTEX
  5
9ec
  8
Layer_0
  10
27.248709
  20
10.122121
  0
VERTEX
  5
9ed
  8
Layer_0
  10
27.245234
  20
10.108391
  0
VERTEX
  5
9ee
  8
Layer_0
  10
27.236107
  20
10.078082
  0
VERTEX
  5
9ef
  8
Layer_0
  10
27.225674
  20
10.048216
  0
VERTEX
  5
9f0
  8
Layer_0
  10
27.213947
  20
10.018832
  0
VERTEX
  5
9f1
  8
Layer_0
  10
27.200943
  20
9.9899731
  0
VERTEX
  5
9f2
  8
Layer_0
  10
27.180584
  20
9.9483633
  0
VERTEX
  5
9f3
  8
Layer_0
  10
27.158794
  20
9.9075031
  0
VERTEX
  5
9f4
  8
Layer_0
  10
27.135584
  20
9.8674316
  0
VERTEX
  5
9f5
  8
Layer_0
  10
27.110975
  20
9.828186
  0
VERTEX
  5
9f6
  8
Layer_0
  10
27.082006
  20
9.7846346
  0
VERTEX
  5
9f7
  8
Layer_0
  10
27.051613
  20
9.7420645
  0
VERTEX
  5
9f8
  8
Layer_0
  10
27.027632
  20
9.7108784
  0
VERTEX
  5
9f9
  8
Layer_0
  10
27.002684
  20
9.6804762
  0
VERTEX
  5
9fa
  8
Layer_0
  10
26.976786
  20
9.6508789
  0
VERTEX
  5
9fb
  8
Layer_0
  10
26.949959
  20
9.6221085
  0
VERTEX
  5
9fc
  8
Layer_0
  10
26.90596
  20
9.5779085
  0
VERTEX
  5
9fd
  8
Layer_0
  10
26.860458
  20
9.5352869
  0
VERTEX
  5
9fe
  8
Layer_0
  10
26.813492
  20
9.4942856
  0
VERTEX
  5
9ff
  8
Layer_0
  10
26.765104
  20
9.4549398
  0
VERTEX
  5
a00
  8
Layer_0
  10
26.725607
  20
9.4244938
  0
VERTEX
  5
a01
  8
Layer_0
  10
26.685421
  20
9.3949928
  0
VERTEX
  5
a02
  8
Layer_0
  10
26.644571
  20
9.3664455
  0
VERTEX
  5
a03
  8
Layer_0
  10
26.603071
  20
9.3388643
  0
VERTEX
  5
a04
  8
Layer_0
  10
26.560938
  20
9.3122568
  0
VERTEX
  5
a05
  8
Layer_0
  10
26.51819
  20
9.2866383
  0
VERTEX
  5
a06
  8
Layer_0
  10
26.474846
  20
9.2620153
  0
VERTEX
  5
a07
  8
Layer_0
  10
26.43092
  20
9.2384043
  0
VERTEX
  5
a08
  8
Layer_0
  10
26.394403
  20
9.2199059
  0
VERTEX
  5
a09
  8
Layer_0
  10
26.35738
  20
9.2024698
  0
VERTEX
  5
a0a
  8
Layer_0
  10
26.319868
  20
9.1861038
  0
VERTEX
  5
a0b
  8
Layer_0
  10
26.281897
  20
9.1708136
  0
VERTEX
  5
a0c
  8
Layer_0
  10
26.264156
  20
9.1644125
  0
VERTEX
  5
a0d
  8
Layer_0
  10
26.246218
  20
9.1585875
  0
VERTEX
  5
a0e
  8
Layer_0
  10
26.253119
  20
9.1877184
  0
VERTEX
  5
a0f
  8
Layer_0
  10
26.261717
  20
9.2163687
  0
VERTEX
  5
a10
  8
Layer_0
  10
26.271986
  20
9.2444639
  0
VERTEX
  5
a11
  8
Layer_0
  10
26.283897
  20
9.2719297
  0
VERTEX
  5
a12
  8
Layer_0
  10
26.302515
  20
9.3094711
  0
VERTEX
  5
a13
  8
Layer_0
  10
26.32242
  20
9.3463306
  0
VERTEX
  5
a14
  8
Layer_0
  10
26.343596
  20
9.3824759
  0
VERTEX
  5
a15
  8
Layer_0
  10
26.36602
  20
9.4178762
  0
VERTEX
  5
a16
  8
Layer_0
  10
26.393688
  20
9.4590845
  0
VERTEX
  5
a17
  8
Layer_0
  10
26.422256
  20
9.4996653
  0
VERTEX
  5
a18
  8
Layer_0
  10
26.451714
  20
9.5396051
  0
VERTEX
  5
a19
  8
Layer_0
  10
26.482054
  20
9.5788937
  0
VERTEX
  5
a1a
  8
Layer_0
  10
26.527338
  20
9.6357908
  0
VERTEX
  5
a1b
  8
Layer_0
  10
26.573673
  20
9.6918325
  0
VERTEX
  5
a1c
  8
Layer_0
  10
26.621048
  20
9.7469978
  0
VERTEX
  5
a1d
  8
Layer_0
  10
26.669447
  20
9.8012733
  0
VERTEX
  5
a1e
  8
Layer_0
  10
26.726934
  20
9.8642235
  0
VERTEX
  5
a1f
  8
Layer_0
  10
26.786327
  20
9.9253807
  0
VERTEX
  5
a20
  8
Layer_0
  10
26.822769
  20
9.9596519
  0
VERTEX
  5
a21
  8
Layer_0
  10
26.860527
  20
9.9924431
  0
VERTEX
  5
a22
  8
Layer_0
  10
26.899553
  20
10.02371
  0
VERTEX
  5
a23
  8
Layer_0
  10
26.939808
  20
10.053411
  0
VERTEX
  5
a24
  8
Layer_0
  10
26.970119
  20
10.073783
  0
VERTEX
  5
a25
  8
Layer_0
  10
27.001213
  20
10.092903
  0
VERTEX
  5
a26
  8
Layer_0
  10
27.033054
  20
10.110755
  0
VERTEX
  5
a27
  8
Layer_0
  10
27.065607
  20
10.127307
  0
VERTEX
  5
a28
  8
Layer_0
  10
27.09119
  20
10.138934
  0
VERTEX
  5
a29
  8
Layer_0
  10
27.117401
  20
10.149003
  0
VERTEX
  5
a2a
  8
Layer_0
  10
27.144165
  20
10.157488
  0
VERTEX
  5
a2b
  8
Layer_0
  10
27.171415
  20
10.16437
  0
VERTEX
  5
a2c
  8
Layer_0
  10
27.196415
  20
10.168395
  0
VERTEX
  5
a2d
  8
Layer_0
  10
27.221704
  20
10.169599
  0
SEQEND
  0
POLYLINE
  5
a2f
  8
Layer_0
  62
0
  70
1
  66
1
  10
0
  20
0
  30
0
  0
VERTEX
  5
a2f
  8
Layer_0
  10
24.069637
  20
11.510949
  0
VERTEX
  5
a30
  8
Layer_0
  10
23.988562
  20
11.429146
  0
VERTEX
  5
a31
  8
Layer_0
  10
23.906693
  20
11.348135
  0
VERTEX
  5
a32
  8
Layer_0
  10
23.824036
  20
11.267929
  0
VERTEX
  5
a33
  8
Layer_0
  10
23.740604
  20
11.18853
  0
VERTEX
  5
a34
  8
Layer_0
  10
23.654238
  20
11.106801
  0
VERTEX
  5
a35
  8
Layer_0
  10
23.567144
  20
11.02584
  0
VERTEX
  5
a36
  8
Layer_0
  10
23.479332
  20
10.945659
  0
VERTEX
  5
a37
  8
Layer_0
  10
23.39081
  20
10.866264
  0
VERTEX
  5
a38
  8
Layer_0
  10
23.449429
  20
11.021361
  0
VERTEX
  5
a39
  8
Layer_0
  10
23.510111
  20
11.175646
  0
VERTEX
  5
a3a
  8
Layer_0
  10
23.572849
  20
11.329105
  0
VERTEX
  5
a3b
  8
Layer_0
  10
23.637642
  20
11.48173
  0
VERTEX
  5
a3c
  8
Layer_0
  10
23.867115
  20
11.508693
  0
VERTEX
  5
a3d
  8
Layer_0
  10
24.096243
  20
11.538478
  0
VERTEX
  5
a3e
  8
Layer_0
  10
24.069637
  20
11.510949
  0
SEQEND
  0
POLYLINE
  5
a40
  8
Layer_0
  62
0
  70
1
  66
1
  10
0
  20
0
  30
0
  0
VERTEX
  5
a40
  8
Layer_0
  10
24.858885
  20
12.905972
  0
VERTEX
  5
a41
  8
Layer_0
  10
24.869335
  20
12.880903
  0
VERTEX
  5
a42
  8
Layer_0
  10
24.877411
  20
12.85503
  0
VERTEX
  5
a43
  8
Layer_0
  10
24.883068
  20
12.828523
  0
VERTEX
  5
a44
  8
Layer_0
  10
24.886259
  20
12.80155
  0
VERTEX
  5
a45
  8
Layer_0
  10
24.887028
  20
12.792937
  0
VERTEX
  5
a46
  8
Layer_0
  10
24.88748
  20
12.76343
  0
VERTEX
  5
a47
  8
Layer_0
  10
24.886087
  20
12.733978
  0
VERTEX
  5
a48
  8
Layer_0
  10
24.882858
  20
12.704672
  0
VERTEX
  5
a49
  8
Layer_0
  10
24.8778
  20
12.675596
  0
VERTEX
  5
a4a
  8
Layer_0
  10
24.868244
  20
12.634389
  0
VERTEX
  5
a4b
  8
Layer_0
  10
24.856634
  20
12.59374
  0
VERTEX
  5
a4c
  8
Layer_0
  10
24.843
  20
12.553727
  0
VERTEX
  5
a4d
  8
Layer_0
  10
24.827358
  20
12.514425
  0
VERTEX
  5
a4e
  8
Layer_0
  10
24.809637
  20
12.474039
  0
VERTEX
  5
a4f
  8
Layer_0
  10
24.790833
  20
12.434147
  0
VERTEX
  5
a50
  8
Layer_0
  10
24.779692
  20
12.413116
  0
VERTEX
  5
a51
  8
Layer_0
  10
24.768993
  20
12.391855
  0
VERTEX
  5
a52
  8
Layer_0
  10
24.732019
  20
12.326802
  0
VERTEX
  5
a53
  8
Layer_0
  10
24.693045
  20
12.262948
  0
VERTEX
  5
a54
  8
Layer_0
  10
24.652098
  20
12.200339
  0
VERTEX
  5
a55
  8
Layer_0
  10
24.609207
  20
12.139026
  0
VERTEX
  5
a56
  8
Layer_0
  10
24.565086
  20
12.078745
  0
VERTEX
  5
a57
  8
Layer_0
  10
24.519835
  20
12.019323
  0
VERTEX
  5
a58
  8
Layer_0
  10
24.473457
  20
11.960773
  0
VERTEX
  5
a59
  8
Layer_0
  10
24.425966
  20
11.903112
  0
VERTEX
  5
a5a
  8
Layer_0
  10
24.402361
  20
11.874815
  0
VERTEX
  5
a5b
  8
Layer_0
  10
24.24588
  20
11.85143
  0
VERTEX
  5
a5c
  8
Layer_0
  10
24.089182
  20
11.829382
  0
VERTEX
  5
a5d
  8
Layer_0
  10
23.932308
  20
11.808676
  0
VERTEX
  5
a5e
  8
Layer_0
  10
23.775284
  20
11.789309
  0
VERTEX
  5
a5f
  8
Layer_0
  10
23.773592
  20
11.789001
  0
VERTEX
  5
a60
  8
Layer_0
  10
23.851185
  20
11.957377
  0
VERTEX
  5
a61
  8
Layer_0
  10
23.931238
  20
12.124578
  0
VERTEX
  5
a62
  8
Layer_0
  10
24.01375
  20
12.290583
  0
VERTEX
  5
a63
  8
Layer_0
  10
24.098703
  20
12.45537
  0
VERTEX
  5
a64
  8
Layer_0
  10
24.138294
  20
12.529328
  0
VERTEX
  5
a65
  8
Layer_0
  10
24.179102
  20
12.602612
  0
VERTEX
  5
a66
  8
Layer_0
  10
24.221117
  20
12.675208
  0
VERTEX
  5
a67
  8
Layer_0
  10
24.264334
  20
12.747108
  0
VERTEX
  5
a68
  8
Layer_0
  10
24.298389
  20
12.800029
  0
VERTEX
  5
a69
  8
Layer_0
  10
24.33477
  20
12.851377
  0
VERTEX
  5
a6a
  8
Layer_0
  10
24.347181
  20
12.867616
  0
VERTEX
  5
a6b
  8
Layer_0
  10
24.360544
  20
12.883055
  0
VERTEX
  5
a6c
  8
Layer_0
  10
24.374823
  20
12.897649
  0
VERTEX
  5
a6d
  8
Layer_0
  10
24.38998
  20
12.911356
  0
VERTEX
  5
a6e
  8
Layer_0
  10
24.414881
  20
12.933148
  0
VERTEX
  5
a6f
  8
Layer_0
  10
24.440685
  20
12.953838
  0
VERTEX
  5
a70
  8
Layer_0
  10
24.467358
  20
12.973395
  0
VERTEX
  5
a71
  8
Layer_0
  10
24.494865
  20
12.991787
  0
VERTEX
  5
a72
  8
Layer_0
  10
24.517008
  20
13.005088
  0
VERTEX
  5
a73
  8
Layer_0
  10
24.539885
  20
13.017028
  0
VERTEX
  5
a74
  8
Layer_0
  10
24.563433
  20
13.027575
  0
VERTEX
  5
a75
  8
Layer_0
  10
24.587601
  20
13.036694
  0
VERTEX
  5
a76
  8
Layer_0
  10
24.600826
  20
13.040846
  0
VERTEX
  5
a77
  8
Layer_0
  10
24.620598
  20
13.045503
  0
VERTEX
  5
a78
  8
Layer_0
  10
24.640657
  20
13.04869
  0
VERTEX
  5
a79
  8
Layer_0
  10
24.665413
  20
13.049846
  0
VERTEX
  5
a7a
  8
Layer_0
  10
24.68997
  20
13.047586
  0
VERTEX
  5
a7b
  8
Layer_0
  10
24.713982
  20
13.041958
  0
VERTEX
  5
a7c
  8
Layer_0
  10
24.737083
  20
13.033003
  0
VERTEX
  5
a7d
  8
Layer_0
  10
24.756798
  20
13.021928
  0
VERTEX
  5
a7e
  8
Layer_0
  10
24.775362
  20
13.009101
  0
VERTEX
  5
a7f
  8
Layer_0
  10
24.792664
  20
12.994615
  0
VERTEX
  5
a80
  8
Layer_0
  10
24.808596
  20
12.978561
  0
VERTEX
  5
a81
  8
Layer_0
  10
24.823257
  20
12.961925
  0
VERTEX
  5
a82
  8
Layer_0
  10
24.836565
  20
12.944225
  0
VERTEX
  5
a83
  8
Layer_0
  10
24.848459
  20
12.925548
  0
VERTEX
  5
a84
  8
Layer_0
  10
24.858885
  20
12.905972
  0
SEQEND
  0
ENDSEC
  0
EOF